MFile 0 1 192
MTrk
0 Meta Text "Billy Je"
0 Tempo 512820
15 SysEx f0 41 10 42 12 40 00 7f 00 41 f7
54 SysEx f0 41 10 45 12 10 00 00 42 69 6c 6c 79 20 4a 65 61 6e 56 f7
192 Par ch=10 c=121 v=0
192 Par ch=11 c=121 v=0
192 Par ch=7 c=121 v=0
192 Par ch=5 c=121 v=0
192 Par ch=4 c=121 v=0
192 Par ch=3 c=121 v=0
192 Par ch=2 c=121 v=0
192 Par ch=1 c=121 v=0
237 Par ch=10 c=0 v=0
237 Par ch=11 c=0 v=0
237 Par ch=7 c=0 v=0
237 Par ch=5 c=0 v=0
237 Par ch=4 c=0 v=0
237 Par ch=3 c=0 v=0
237 Par ch=2 c=0 v=0
237 Par ch=1 c=0 v=8
240 Par ch=10 c=32 v=0
240 Par ch=11 c=32 v=0
240 Par ch=7 c=32 v=0
240 Par ch=5 c=32 v=0
240 Par ch=4 c=32 v=0
240 Par ch=3 c=32 v=0
240 Par ch=2 c=32 v=0
240 Par ch=1 c=32 v=0
257 PrCh ch=10 p=0
283 Par ch=10 c=10 v=64
288 PrCh ch=11 p=7
288 PrCh ch=7 p=49
288 PrCh ch=5 p=27
288 PrCh ch=4 p=53
288 PrCh ch=3 p=50
288 PrCh ch=2 p=35
288 PrCh ch=1 p=5
298 Par ch=10 c=91 v=110
317 Par ch=10 c=93 v=30
336 Par ch=11 c=10 v=64
336 Par ch=7 c=10 v=64
336 Par ch=5 c=10 v=64
336 Par ch=4 c=10 v=64
336 Par ch=3 c=10 v=64
336 Par ch=2 c=10 v=64
336 Par ch=1 c=10 v=64
347 Par ch=10 c=7 v=123
380 Par ch=10 c=11 v=127
384 Par ch=2 c=91 v=30
384 Par ch=1 c=91 v=50
385 Par ch=11 c=91 v=70
385 Par ch=7 c=91 v=127
385 Par ch=5 c=91 v=100
385 Par ch=4 c=91 v=70
385 Par ch=3 c=91 v=110
414 Par ch=10 c=99 v=28
432 Par ch=11 c=93 v=30
432 Par ch=7 c=93 v=30
432 Par ch=5 c=93 v=60
432 Par ch=4 c=93 v=38
432 Par ch=3 c=93 v=30
432 Par ch=2 c=93 v=0
432 Par ch=1 c=93 v=30
437 Par ch=10 c=98 v=42
456 Par ch=10 c=6 v=1
478 Par ch=10 c=99 v=29
482 Par ch=11 c=7 v=53
482 Par ch=7 c=7 v=84
482 Par ch=5 c=7 v=70
482 Par ch=4 c=7 v=124
482 Par ch=3 c=7 v=91
482 Par ch=2 c=7 v=91
482 Par ch=1 c=7 v=123
496 Par ch=10 c=98 v=42
516 Par ch=10 c=6 v=20
518 Par ch=11 c=11 v=127
518 Par ch=7 c=11 v=127
518 Par ch=5 c=11 v=127
518 Par ch=4 c=11 v=127
518 Par ch=3 c=11 v=127
518 Par ch=2 c=11 v=127
518 Par ch=1 c=11 v=127
543 Par ch=10 c=99 v=24
559 Par ch=10 c=98 v=36
576 SysEx f0 41 10 45 12 10 00 00 28 4d 2e 20 4a 61 63 6b 73 6f 6e 29 3b f7
587 Par ch=10 c=6 v=63
594 Par ch=7 c=99 v=1
594 Par ch=3 c=99 v=1
600 Par ch=2 c=99 v=1
603 Par ch=10 c=99 v=24
610 Par ch=7 c=98 v=99
610 Par ch=3 c=98 v=99
623 Par ch=2 c=98 v=99
628 Par ch=7 c=6 v=52
628 Par ch=3 c=6 v=56
629 Par ch=10 c=98 v=40
642 Par ch=2 c=6 v=0
645 Par ch=10 c=6 v=64
658 Par ch=3 c=99 v=1
658 Par ch=2 c=99 v=1
670 Par ch=2 c=98 v=32
671 Par ch=10 c=99 v=29
676 Par ch=3 c=98 v=32
682 Par ch=2 c=6 v=27
692 Par ch=10 c=98 v=36
698 Par ch=10 c=6 v=5
701 Par ch=3 c=6 v=59
711 Par ch=10 c=99 v=29
720 On ch=2 n=60 v=1
721 Off ch=2 n=60 v=1
726 Par ch=10 c=98 v=40
735 Par ch=10 c=6 v=20
768 On ch=10 n=36 v=105
768 On ch=10 n=42 v=54
780 Off ch=10 n=42 v=54
780 Off ch=10 n=36 v=105
802 Par ch=10 c=99 v=28
825 Par ch=10 c=98 v=82
844 Par ch=10 c=6 v=126
864 On ch=10 n=42 v=69
874 Par ch=10 c=99 v=29
876 Off ch=10 n=42 v=69
894 Par ch=10 c=98 v=82
913 Par ch=10 c=6 v=1
960 On ch=10 n=40 v=113
960 On ch=10 n=42 v=49
972 Off ch=10 n=42 v=49
972 Off ch=10 n=40 v=113
1056 On ch=10 n=42 v=79
1068 Off ch=10 n=42 v=79
1152 On ch=10 n=36 v=105
1152 On ch=10 n=42 v=46
1164 Off ch=10 n=42 v=46
1164 Off ch=10 n=36 v=105
1248 On ch=10 n=42 v=74
1260 Off ch=10 n=42 v=74
1344 On ch=10 n=40 v=113
1344 On ch=10 n=42 v=46
1356 Off ch=10 n=42 v=46
1356 Off ch=10 n=40 v=113
1440 On ch=10 n=42 v=79
1452 Off ch=10 n=42 v=79
1536 On ch=10 n=36 v=105
1536 On ch=10 n=42 v=42
1548 Off ch=10 n=42 v=42
1548 Off ch=10 n=36 v=105
1632 On ch=10 n=42 v=69
1644 Off ch=10 n=42 v=69
1728 On ch=10 n=40 v=112
1728 On ch=10 n=42 v=54
1740 Off ch=10 n=42 v=54
1740 Off ch=10 n=40 v=112
1824 On ch=10 n=42 v=74
1836 Off ch=10 n=42 v=74
1920 On ch=10 n=36 v=105
1920 On ch=10 n=42 v=57
1932 Off ch=10 n=42 v=57
1932 Off ch=10 n=36 v=105
2016 On ch=10 n=42 v=69
2028 Off ch=10 n=42 v=69
2112 On ch=10 n=40 v=113
2112 On ch=10 n=42 v=57
2124 Off ch=10 n=42 v=57
2124 Off ch=10 n=40 v=113
2208 On ch=10 n=42 v=79
2220 Off ch=10 n=42 v=79
2304 On ch=11 n=30 v=117
2304 On ch=10 n=36 v=105
2304 On ch=10 n=42 v=54
2304 On ch=2 n=42 v=127
2304 On ch=10 n=82 v=62
2316 Off ch=10 n=82 v=62
2316 Off ch=10 n=42 v=54
2316 Off ch=10 n=36 v=105
2354 Off ch=2 n=42 v=127
2400 On ch=10 n=42 v=69
2400 On ch=10 n=82 v=55
2400 Off ch=11 n=30 v=117
2400 On ch=2 n=37 v=127
2412 Off ch=10 n=82 v=55
2412 Off ch=10 n=42 v=69
2452 Off ch=2 n=37 v=127
2496 On ch=10 n=40 v=113
2496 On ch=2 n=40 v=127
2496 On ch=10 n=42 v=49
2496 On ch=10 n=82 v=55
2508 Off ch=10 n=82 v=55
2508 Off ch=10 n=42 v=49
2508 Off ch=10 n=40 v=113
2551 Off ch=2 n=40 v=127
2592 On ch=11 n=30 v=117
2592 On ch=10 n=42 v=79
2592 On ch=2 n=42 v=127
2592 On ch=10 n=82 v=51
2604 Off ch=10 n=82 v=51
2604 Off ch=10 n=42 v=79
2643 Off ch=2 n=42 v=127
2688 On ch=10 n=36 v=105
2688 On ch=10 n=42 v=46
2688 On ch=10 n=82 v=58
2688 Off ch=11 n=30 v=117
2688 On ch=2 n=40 v=127
2700 Off ch=10 n=82 v=58
2700 Off ch=10 n=42 v=46
2700 Off ch=10 n=36 v=105
2744 Off ch=2 n=40 v=127
2784 On ch=2 n=37 v=127
2784 On ch=10 n=42 v=74
2784 On ch=10 n=82 v=47
2796 Off ch=10 n=82 v=47
2796 Off ch=10 n=42 v=74
2835 Off ch=2 n=37 v=127
2880 On ch=2 n=35 v=127
2880 On ch=10 n=40 v=113
2880 On ch=10 n=42 v=46
2880 On ch=10 n=82 v=62
2892 Off ch=10 n=82 v=62
2892 Off ch=10 n=42 v=46
2892 Off ch=10 n=40 v=113
2941 Off ch=2 n=35 v=127
2976 On ch=2 n=37 v=127
2976 On ch=10 n=42 v=79
2976 On ch=10 n=82 v=58
2988 Off ch=10 n=82 v=58
2988 Off ch=10 n=42 v=79
3030 Off ch=2 n=37 v=127
3072 On ch=11 n=30 v=117
3072 On ch=10 n=36 v=105
3072 On ch=10 n=42 v=42
3072 On ch=2 n=42 v=127
3072 On ch=10 n=82 v=56
3084 Off ch=10 n=82 v=56
3084 Off ch=10 n=42 v=42
3084 Off ch=10 n=36 v=105
3119 Off ch=2 n=42 v=127
3168 On ch=10 n=42 v=69
3168 On ch=10 n=82 v=46
3168 Off ch=11 n=30 v=117
3168 On ch=2 n=37 v=127
3180 Off ch=10 n=82 v=46
3180 Off ch=10 n=42 v=69
3216 Off ch=2 n=37 v=127
3264 On ch=10 n=40 v=112
3264 On ch=2 n=40 v=127
3264 On ch=10 n=42 v=54
3264 On ch=10 n=82 v=64
3276 Off ch=10 n=82 v=64
3276 Off ch=10 n=42 v=54
3276 Off ch=10 n=40 v=112
3317 Off ch=2 n=40 v=127
3360 On ch=11 n=30 v=117
3360 On ch=10 n=42 v=74
3360 On ch=2 n=42 v=127
3360 On ch=10 n=82 v=53
3372 Off ch=10 n=82 v=53
3372 Off ch=10 n=42 v=74
3406 Off ch=2 n=42 v=127
3456 On ch=10 n=36 v=105
3456 On ch=10 n=42 v=57
3456 On ch=10 n=82 v=62
3456 Off ch=11 n=30 v=117
3456 On ch=2 n=40 v=127
3468 Off ch=10 n=82 v=62
3468 Off ch=10 n=42 v=57
3468 Off ch=10 n=36 v=105
3515 Off ch=2 n=40 v=127
3552 On ch=2 n=37 v=127
3552 On ch=10 n=42 v=69
3552 On ch=10 n=82 v=60
3564 Off ch=10 n=82 v=60
3564 Off ch=10 n=42 v=69
3606 Off ch=2 n=37 v=127
3648 On ch=2 n=35 v=127
3648 On ch=10 n=40 v=113
3648 On ch=10 n=42 v=57
3648 On ch=10 n=82 v=68
3660 Off ch=10 n=82 v=68
3660 Off ch=10 n=42 v=57
3660 Off ch=10 n=40 v=113
3713 Off ch=2 n=35 v=127
3744 On ch=2 n=37 v=127
3744 On ch=10 n=42 v=79
3744 On ch=10 n=82 v=50
3756 Off ch=10 n=82 v=50
3756 Off ch=10 n=42 v=79
3795 Off ch=2 n=37 v=127
3840 On ch=11 n=30 v=117
3840 On ch=10 n=36 v=105
3840 On ch=10 n=42 v=54
3840 On ch=2 n=42 v=127
3840 On ch=10 n=82 v=68
3852 Off ch=10 n=82 v=68
3852 Off ch=10 n=42 v=54
3852 Off ch=10 n=36 v=105
3890 Off ch=2 n=42 v=127
3936 On ch=10 n=42 v=69
3936 On ch=10 n=82 v=58
3936 Off ch=11 n=30 v=117
3936 On ch=2 n=37 v=127
3948 Off ch=10 n=82 v=58
3948 Off ch=10 n=42 v=69
3988 Off ch=2 n=37 v=127
4032 On ch=10 n=40 v=113
4032 On ch=2 n=40 v=127
4032 On ch=10 n=42 v=49
4032 On ch=10 n=82 v=66
4044 Off ch=10 n=82 v=66
4044 Off ch=10 n=42 v=49
4044 Off ch=10 n=40 v=113
4087 Off ch=2 n=40 v=127
4128 On ch=11 n=30 v=117
4128 On ch=10 n=42 v=79
4128 On ch=2 n=42 v=127
4128 On ch=10 n=82 v=60
4140 Off ch=10 n=82 v=60
4140 Off ch=10 n=42 v=79
4179 Off ch=2 n=42 v=127
4224 On ch=10 n=36 v=105
4224 On ch=10 n=42 v=46
4224 On ch=10 n=82 v=56
4224 Off ch=11 n=30 v=117
4224 On ch=2 n=40 v=127
4236 Off ch=10 n=82 v=56
4236 Off ch=10 n=42 v=46
4236 Off ch=10 n=36 v=105
4280 Off ch=2 n=40 v=127
4320 On ch=2 n=37 v=127
4320 On ch=10 n=42 v=74
4320 On ch=10 n=82 v=60
4332 Off ch=10 n=82 v=60
4332 Off ch=10 n=42 v=74
4371 Off ch=2 n=37 v=127
4416 On ch=2 n=35 v=127
4416 On ch=10 n=40 v=113
4416 On ch=10 n=42 v=46
4416 On ch=10 n=82 v=64
4428 Off ch=10 n=82 v=64
4428 Off ch=10 n=42 v=46
4428 Off ch=10 n=40 v=113
4477 Off ch=2 n=35 v=127
4512 On ch=2 n=37 v=127
4512 On ch=10 n=42 v=79
4512 On ch=10 n=69 v=100
4512 On ch=10 n=82 v=64
4524 Off ch=10 n=82 v=64
4524 Off ch=10 n=69 v=100
4524 Off ch=10 n=42 v=79
4539 Par ch=10 c=11 v=127
4551 Par ch=10 c=99 v=28
4560 Par ch=10 c=98 v=69
4566 Off ch=2 n=37 v=127
4573 Par ch=10 c=6 v=126
4608 On ch=11 n=30 v=117
4608 On ch=10 n=36 v=105
4608 On ch=10 n=42 v=42
4608 On ch=2 n=42 v=127
4608 On ch=10 n=69 v=113
4608 On ch=10 n=82 v=66
4620 Off ch=10 n=82 v=66
4620 Off ch=10 n=69 v=113
4620 Off ch=10 n=42 v=42
4620 Off ch=10 n=36 v=105
4655 Off ch=2 n=42 v=127
4704 On ch=10 n=42 v=69
4704 On ch=10 n=69 v=117
4704 On ch=10 n=82 v=64
4704 Off ch=11 n=30 v=117
4704 On ch=2 n=37 v=127
4716 Off ch=10 n=82 v=64
4716 Off ch=10 n=69 v=117
4716 Off ch=10 n=42 v=69
4752 Off ch=2 n=37 v=127
4800 On ch=10 n=40 v=112
4800 On ch=2 n=40 v=127
4800 On ch=10 n=42 v=54
4800 On ch=10 n=69 v=93
4800 On ch=10 n=82 v=62
4812 Off ch=10 n=82 v=62
4812 Off ch=10 n=69 v=93
4812 Off ch=10 n=42 v=54
4812 Off ch=10 n=40 v=112
4853 Off ch=2 n=40 v=127
4896 On ch=11 n=30 v=117
4896 On ch=10 n=42 v=74
4896 On ch=2 n=42 v=127
4896 On ch=10 n=82 v=64
4900 On ch=10 n=69 v=80
4908 Off ch=10 n=82 v=64
4908 Off ch=10 n=42 v=74
4912 Off ch=10 n=69 v=80
4936 Par ch=10 c=99 v=28
4942 Off ch=2 n=42 v=127
4955 Par ch=10 c=98 v=69
4971 Par ch=10 c=6 v=1
4992 On ch=10 n=36 v=105
4992 On ch=10 n=42 v=57
4992 On ch=10 n=82 v=64
4992 Off ch=11 n=30 v=117
4992 On ch=2 n=40 v=127
5004 Off ch=10 n=82 v=64
5004 Off ch=10 n=42 v=57
5004 Off ch=10 n=36 v=105
5051 Off ch=2 n=40 v=127
5088 On ch=2 n=37 v=127
5088 On ch=10 n=42 v=69
5088 On ch=10 n=82 v=68
5100 Off ch=10 n=82 v=68
5100 Off ch=10 n=42 v=69
5142 Off ch=2 n=37 v=127
5184 On ch=2 n=35 v=127
5184 On ch=10 n=40 v=113
5184 On ch=10 n=42 v=57
5184 On ch=10 n=82 v=62
5196 Off ch=10 n=82 v=62
5196 Off ch=10 n=42 v=57
5196 Off ch=10 n=40 v=113
5249 Off ch=2 n=35 v=127
5280 On ch=2 n=37 v=127
5280 On ch=10 n=42 v=79
5280 On ch=10 n=82 v=64
5292 Off ch=10 n=82 v=64
5292 Off ch=10 n=42 v=79
5331 Off ch=2 n=37 v=127
5376 On ch=11 n=30 v=117
5376 On ch=10 n=36 v=105
5376 On ch=10 n=42 v=54
5376 On ch=2 n=42 v=127
5376 On ch=10 n=82 v=62
5388 Off ch=10 n=82 v=62
5388 Off ch=10 n=42 v=54
5388 Off ch=10 n=36 v=105
5426 Off ch=2 n=42 v=127
5472 On ch=10 n=42 v=69
5472 On ch=10 n=82 v=55
5472 Off ch=11 n=30 v=117
5472 On ch=2 n=37 v=127
5484 Off ch=10 n=82 v=55
5484 Off ch=10 n=42 v=69
5524 Off ch=2 n=37 v=127
5568 On ch=10 n=40 v=113
5568 On ch=2 n=40 v=127
5568 On ch=10 n=42 v=49
5568 On ch=10 n=82 v=55
5580 Off ch=10 n=82 v=55
5580 Off ch=10 n=42 v=49
5580 Off ch=10 n=40 v=113
5623 Off ch=2 n=40 v=127
5664 On ch=11 n=30 v=117
5664 On ch=10 n=42 v=79
5664 On ch=2 n=42 v=127
5664 On ch=10 n=82 v=51
5676 Off ch=10 n=82 v=51
5676 Off ch=10 n=42 v=79
5715 Off ch=2 n=42 v=127
5760 On ch=10 n=36 v=105
5760 On ch=10 n=42 v=46
5760 On ch=10 n=82 v=58
5760 Off ch=11 n=30 v=117
5760 On ch=2 n=40 v=127
5772 Off ch=10 n=82 v=58
5772 Off ch=10 n=42 v=46
5772 Off ch=10 n=36 v=105
5816 Off ch=2 n=40 v=127
5856 On ch=2 n=37 v=127
5856 On ch=10 n=42 v=74
5856 On ch=10 n=82 v=47
5868 Off ch=10 n=82 v=47
5868 Off ch=10 n=42 v=74
5907 Off ch=2 n=37 v=127
5952 On ch=2 n=35 v=127
5952 On ch=10 n=40 v=113
5952 On ch=10 n=42 v=46
5952 On ch=10 n=82 v=62
5964 Off ch=10 n=82 v=62
5964 Off ch=10 n=42 v=46
5964 Off ch=10 n=40 v=113
6013 Off ch=2 n=35 v=127
6048 On ch=2 n=37 v=127
6048 On ch=10 n=42 v=79
6048 On ch=10 n=82 v=58
6060 Off ch=10 n=82 v=58
6060 Off ch=10 n=42 v=79
6102 Off ch=2 n=37 v=127
6144 On ch=11 n=30 v=117
6144 On ch=10 n=36 v=105
6144 On ch=10 n=42 v=42
6144 On ch=2 n=42 v=127
6144 On ch=10 n=82 v=56
6156 Off ch=10 n=82 v=56
6156 Off ch=10 n=42 v=42
6156 Off ch=10 n=36 v=105
6191 Off ch=2 n=42 v=127
6240 On ch=10 n=42 v=69
6240 On ch=10 n=82 v=46
6240 Off ch=11 n=30 v=117
6240 On ch=2 n=37 v=127
6252 Off ch=10 n=82 v=46
6252 Off ch=10 n=42 v=69
6288 Off ch=2 n=37 v=127
6336 On ch=10 n=40 v=112
6336 On ch=2 n=40 v=127
6336 On ch=10 n=42 v=54
6336 On ch=10 n=82 v=64
6348 Off ch=10 n=82 v=64
6348 Off ch=10 n=42 v=54
6348 Off ch=10 n=40 v=112
6389 Off ch=2 n=40 v=127
6432 On ch=11 n=30 v=117
6432 On ch=10 n=42 v=74
6432 On ch=2 n=42 v=127
6432 On ch=10 n=82 v=53
6444 Off ch=10 n=82 v=53
6444 Off ch=10 n=42 v=74
6478 Off ch=2 n=42 v=127
6528 On ch=10 n=36 v=105
6528 On ch=10 n=42 v=57
6528 On ch=10 n=82 v=62
6528 Off ch=11 n=30 v=117
6528 On ch=2 n=40 v=127
6540 Off ch=10 n=82 v=62
6540 Off ch=10 n=42 v=57
6540 Off ch=10 n=36 v=105
6587 Off ch=2 n=40 v=127
6624 On ch=2 n=37 v=127
6624 On ch=10 n=42 v=69
6624 On ch=10 n=82 v=60
6636 Off ch=10 n=82 v=60
6636 Off ch=10 n=42 v=69
6678 Off ch=2 n=37 v=127
6720 On ch=2 n=35 v=127
6720 On ch=10 n=40 v=113
6720 On ch=10 n=42 v=57
6720 On ch=10 n=82 v=68
6732 Off ch=10 n=82 v=68
6732 Off ch=10 n=42 v=57
6732 Off ch=10 n=40 v=113
6785 Off ch=2 n=35 v=127
6816 On ch=2 n=37 v=127
6816 On ch=10 n=42 v=79
6816 On ch=10 n=82 v=50
6828 Off ch=10 n=82 v=50
6828 Off ch=10 n=42 v=79
6867 Off ch=2 n=37 v=127
6912 On ch=11 n=30 v=117
6912 On ch=10 n=36 v=105
6912 On ch=10 n=42 v=54
6912 On ch=2 n=42 v=127
6912 On ch=10 n=82 v=68
6924 Off ch=10 n=82 v=68
6924 Off ch=10 n=42 v=54
6924 Off ch=10 n=36 v=105
6962 Off ch=2 n=42 v=127
7008 On ch=10 n=42 v=69
7008 On ch=10 n=82 v=58
7008 Off ch=11 n=30 v=117
7008 On ch=2 n=37 v=127
7020 Off ch=10 n=82 v=58
7020 Off ch=10 n=42 v=69
7060 Off ch=2 n=37 v=127
7104 On ch=10 n=40 v=113
7104 On ch=2 n=40 v=127
7104 On ch=10 n=42 v=49
7104 On ch=10 n=82 v=66
7116 Off ch=10 n=82 v=66
7116 Off ch=10 n=42 v=49
7116 Off ch=10 n=40 v=113
7159 Off ch=2 n=40 v=127
7200 On ch=11 n=30 v=117
7200 On ch=10 n=42 v=79
7200 On ch=2 n=42 v=127
7200 On ch=10 n=82 v=60
7212 Off ch=10 n=82 v=60
7212 Off ch=10 n=42 v=79
7251 Off ch=2 n=42 v=127
7296 On ch=10 n=36 v=105
7296 On ch=10 n=42 v=46
7296 On ch=10 n=82 v=56
7296 Off ch=11 n=30 v=117
7296 On ch=2 n=40 v=127
7308 Off ch=10 n=82 v=56
7308 Off ch=10 n=42 v=46
7308 Off ch=10 n=36 v=105
7352 Off ch=2 n=40 v=127
7392 On ch=2 n=37 v=127
7392 On ch=10 n=42 v=74
7392 On ch=10 n=82 v=60
7404 Off ch=10 n=82 v=60
7404 Off ch=10 n=42 v=74
7443 Off ch=2 n=37 v=127
7488 On ch=2 n=35 v=127
7488 On ch=10 n=40 v=113
7488 On ch=10 n=42 v=46
7488 On ch=10 n=82 v=64
7500 Off ch=10 n=82 v=64
7500 Off ch=10 n=42 v=46
7500 Off ch=10 n=40 v=113
7549 Off ch=2 n=35 v=127
7584 On ch=2 n=37 v=127
7584 On ch=10 n=42 v=79
7584 On ch=10 n=82 v=64
7596 Off ch=10 n=82 v=64
7596 Off ch=10 n=42 v=79
7631 Off ch=2 n=37 v=127
7644 Par ch=2 c=11 v=127
7644 Par ch=2 c=99 v=1
7644 Par ch=2 c=98 v=33
7648 Par ch=2 c=6 v=70
7680 On ch=11 n=30 v=117
7680 On ch=10 n=36 v=105
7680 On ch=10 n=42 v=42
7680 On ch=2 n=42 v=127
7680 On ch=3 n=57 v=96
7680 On ch=3 n=61 v=96
7680 On ch=3 n=66 v=96
7680 On ch=10 n=82 v=66
7692 Off ch=10 n=82 v=66
7692 Off ch=10 n=42 v=42
7692 Off ch=10 n=36 v=105
7727 Off ch=2 n=42 v=127
7728 Off ch=3 n=57 v=96
7728 Off ch=3 n=61 v=96
7728 Off ch=3 n=66 v=96
7776 On ch=10 n=42 v=69
7776 On ch=10 n=82 v=64
7776 Off ch=11 n=30 v=117
7776 On ch=2 n=37 v=127
7788 Off ch=10 n=82 v=64
7788 Off ch=10 n=42 v=69
7824 Off ch=2 n=37 v=127
7872 On ch=10 n=40 v=112
7872 On ch=2 n=40 v=127
7872 On ch=10 n=42 v=54
7872 On ch=10 n=82 v=62
7884 Off ch=10 n=82 v=62
7884 Off ch=10 n=42 v=54
7884 Off ch=10 n=40 v=112
7925 Off ch=2 n=40 v=127
7968 On ch=11 n=30 v=117
7968 On ch=10 n=42 v=74
7968 On ch=2 n=42 v=127
7968 On ch=3 n=59 v=96
7968 On ch=3 n=63 v=96
7968 On ch=3 n=68 v=96
7968 On ch=10 n=82 v=64
7980 Off ch=10 n=82 v=64
7980 Off ch=10 n=42 v=74
8014 Off ch=2 n=42 v=127
8016 Off ch=3 n=68 v=96
8016 Off ch=3 n=63 v=96
8016 Off ch=3 n=59 v=96
8064 On ch=10 n=36 v=105
8064 On ch=10 n=42 v=57
8064 On ch=10 n=82 v=64
8064 Off ch=11 n=30 v=117
8064 On ch=2 n=40 v=127
8076 Off ch=10 n=82 v=64
8076 Off ch=10 n=42 v=57
8076 Off ch=10 n=36 v=105
8123 Off ch=2 n=40 v=127
8160 On ch=2 n=37 v=127
8160 On ch=10 n=42 v=69
8160 On ch=10 n=82 v=68
8172 Off ch=10 n=82 v=68
8172 Off ch=10 n=42 v=69
8214 Off ch=2 n=37 v=127
8256 On ch=2 n=35 v=127
8256 On ch=10 n=40 v=113
8256 On ch=10 n=42 v=57
8256 On ch=10 n=82 v=62
8268 Off ch=10 n=82 v=62
8268 Off ch=10 n=42 v=57
8268 Off ch=10 n=40 v=113
8321 Off ch=2 n=35 v=127
8352 On ch=2 n=37 v=127
8352 On ch=10 n=42 v=79
8352 On ch=10 n=82 v=64
8364 Off ch=10 n=82 v=64
8364 Off ch=10 n=42 v=79
8403 Off ch=2 n=37 v=127
8448 On ch=11 n=30 v=117
8448 On ch=10 n=36 v=105
8448 On ch=10 n=42 v=54
8448 On ch=2 n=42 v=127
8448 On ch=3 n=61 v=96
8448 On ch=3 n=64 v=96
8448 On ch=3 n=69 v=96
8448 On ch=10 n=82 v=62
8460 Off ch=10 n=82 v=62
8460 Off ch=10 n=42 v=54
8460 Off ch=10 n=36 v=105
8496 Off ch=3 n=69 v=96
8496 Off ch=3 n=64 v=96
8496 Off ch=3 n=61 v=96
8498 Off ch=2 n=42 v=127
8544 On ch=10 n=42 v=69
8544 On ch=10 n=82 v=55
8544 Off ch=11 n=30 v=117
8544 On ch=2 n=37 v=127
8556 Off ch=10 n=82 v=55
8556 Off ch=10 n=42 v=69
8596 Off ch=2 n=37 v=127
8640 On ch=10 n=40 v=113
8640 On ch=2 n=40 v=127
8640 On ch=10 n=42 v=49
8640 On ch=10 n=82 v=55
8652 Off ch=10 n=82 v=55
8652 Off ch=10 n=42 v=49
8652 Off ch=10 n=40 v=113
8695 Off ch=2 n=40 v=127
8736 On ch=11 n=30 v=117
8736 On ch=10 n=42 v=79
8736 On ch=2 n=42 v=127
8736 On ch=3 n=59 v=96
8736 On ch=3 n=63 v=96
8736 On ch=3 n=68 v=96
8736 On ch=10 n=82 v=51
8748 Off ch=10 n=82 v=51
8748 Off ch=10 n=42 v=79
8784 Off ch=3 n=68 v=96
8784 Off ch=3 n=63 v=96
8784 Off ch=3 n=59 v=96
8787 Off ch=2 n=42 v=127
8832 On ch=10 n=36 v=105
8832 On ch=10 n=42 v=46
8832 On ch=10 n=82 v=58
8832 Off ch=11 n=30 v=117
8832 On ch=2 n=40 v=127
8844 Off ch=10 n=82 v=58
8844 Off ch=10 n=42 v=46
8844 Off ch=10 n=36 v=105
8888 Off ch=2 n=40 v=127
8928 On ch=2 n=37 v=127
8928 On ch=10 n=42 v=74
8928 On ch=10 n=82 v=47
8940 Off ch=10 n=82 v=47
8940 Off ch=10 n=42 v=74
8979 Off ch=2 n=37 v=127
9024 On ch=2 n=35 v=127
9024 On ch=10 n=40 v=113
9024 On ch=10 n=42 v=46
9024 On ch=10 n=82 v=62
9036 Off ch=10 n=82 v=62
9036 Off ch=10 n=42 v=46
9036 Off ch=10 n=40 v=113
9085 Off ch=2 n=35 v=127
9120 On ch=2 n=37 v=127
9120 On ch=10 n=42 v=79
9120 On ch=10 n=82 v=58
9132 Off ch=10 n=82 v=58
9132 Off ch=10 n=42 v=79
9174 Off ch=2 n=37 v=127
9216 On ch=11 n=30 v=117
9216 On ch=10 n=36 v=105
9216 On ch=10 n=42 v=42
9216 On ch=2 n=42 v=127
9216 On ch=3 n=57 v=96
9216 On ch=3 n=61 v=96
9216 On ch=3 n=66 v=96
9216 On ch=10 n=82 v=56
9228 Off ch=10 n=82 v=56
9228 Off ch=10 n=42 v=42
9228 Off ch=10 n=36 v=105
9263 Off ch=2 n=42 v=127
9264 Off ch=3 n=66 v=96
9264 Off ch=3 n=61 v=96
9264 Off ch=3 n=57 v=96
9312 On ch=10 n=42 v=69
9312 On ch=10 n=82 v=46
9312 Off ch=11 n=30 v=117
9312 On ch=2 n=37 v=127
9324 Off ch=10 n=82 v=46
9324 Off ch=10 n=42 v=69
9360 Off ch=2 n=37 v=127
9408 On ch=10 n=40 v=112
9408 On ch=2 n=40 v=127
9408 On ch=10 n=42 v=54
9408 On ch=10 n=82 v=64
9420 Off ch=10 n=82 v=64
9420 Off ch=10 n=42 v=54
9420 Off ch=10 n=40 v=112
9461 Off ch=2 n=40 v=127
9504 On ch=11 n=30 v=117
9504 On ch=10 n=42 v=74
9504 On ch=2 n=42 v=127
9504 On ch=3 n=59 v=96
9504 On ch=3 n=63 v=96
9504 On ch=3 n=68 v=96
9504 On ch=10 n=82 v=53
9516 Off ch=10 n=82 v=53
9516 Off ch=10 n=42 v=74
9550 Off ch=2 n=42 v=127
9552 Off ch=3 n=68 v=96
9552 Off ch=3 n=63 v=96
9552 Off ch=3 n=59 v=96
9600 On ch=10 n=36 v=105
9600 On ch=10 n=42 v=57
9600 On ch=10 n=82 v=62
9600 Off ch=11 n=30 v=117
9600 On ch=2 n=40 v=127
9612 Off ch=10 n=82 v=62
9612 Off ch=10 n=42 v=57
9612 Off ch=10 n=36 v=105
9659 Off ch=2 n=40 v=127
9696 On ch=2 n=37 v=127
9696 On ch=10 n=42 v=69
9696 On ch=10 n=82 v=60
9708 Off ch=10 n=82 v=60
9708 Off ch=10 n=42 v=69
9750 Off ch=2 n=37 v=127
9792 On ch=2 n=35 v=127
9792 On ch=10 n=40 v=113
9792 On ch=10 n=42 v=57
9792 On ch=10 n=82 v=68
9804 Off ch=10 n=82 v=68
9804 Off ch=10 n=42 v=57
9804 Off ch=10 n=40 v=113
9857 Off ch=2 n=35 v=127
9888 On ch=2 n=37 v=127
9888 On ch=10 n=42 v=79
9888 On ch=10 n=82 v=50
9900 Off ch=10 n=82 v=50
9900 Off ch=10 n=42 v=79
9939 Off ch=2 n=37 v=127
9984 On ch=11 n=30 v=117
9984 On ch=10 n=36 v=105
9984 On ch=10 n=42 v=54
9984 On ch=2 n=42 v=127
9984 On ch=3 n=61 v=96
9984 On ch=3 n=64 v=96
9984 On ch=3 n=69 v=96
9984 On ch=10 n=82 v=68
9996 Off ch=10 n=82 v=68
9996 Off ch=10 n=42 v=54
9996 Off ch=10 n=36 v=105
10032 Off ch=3 n=69 v=96
10032 Off ch=3 n=64 v=96
10032 Off ch=3 n=61 v=96
10034 Off ch=2 n=42 v=127
10080 On ch=10 n=42 v=69
10080 On ch=10 n=82 v=58
10080 Off ch=11 n=30 v=117
10080 On ch=2 n=37 v=127
10092 Off ch=10 n=82 v=58
10092 Off ch=10 n=42 v=69
10132 Off ch=2 n=37 v=127
10176 On ch=10 n=40 v=113
10176 On ch=2 n=40 v=127
10176 On ch=10 n=42 v=49
10176 On ch=10 n=82 v=66
10176 On ch=10 n=85 v=94
10188 Off ch=10 n=85 v=94
10188 Off ch=10 n=82 v=66
10188 Off ch=10 n=42 v=49
10188 Off ch=10 n=40 v=113
10231 Off ch=2 n=40 v=127
10272 On ch=11 n=30 v=117
10272 On ch=10 n=42 v=79
10272 On ch=2 n=42 v=127
10272 On ch=3 n=59 v=96
10272 On ch=3 n=63 v=96
10272 On ch=3 n=68 v=96
10272 On ch=10 n=82 v=60
10284 Off ch=10 n=82 v=60
10284 Off ch=10 n=42 v=79
10320 Off ch=3 n=68 v=96
10320 Off ch=3 n=63 v=96
10320 Off ch=3 n=59 v=96
10323 Off ch=2 n=42 v=127
10368 On ch=10 n=36 v=105
10368 On ch=10 n=42 v=46
10368 On ch=10 n=82 v=56
10368 Off ch=11 n=30 v=117
10368 On ch=2 n=40 v=127
10380 Off ch=10 n=82 v=56
10380 Off ch=10 n=42 v=46
10380 Off ch=10 n=36 v=105
10424 Off ch=2 n=40 v=127
10464 On ch=2 n=37 v=127
10464 On ch=10 n=42 v=74
10464 On ch=10 n=82 v=60
10476 Off ch=10 n=82 v=60
10476 Off ch=10 n=42 v=74
10515 Off ch=2 n=37 v=127
10560 On ch=2 n=35 v=127
10560 On ch=10 n=40 v=113
10560 On ch=10 n=42 v=46
10560 On ch=10 n=82 v=64
10560 On ch=10 n=85 v=94
10572 Off ch=10 n=85 v=94
10572 Off ch=10 n=82 v=64
10572 Off ch=10 n=42 v=46
10572 Off ch=10 n=40 v=113
10621 Off ch=2 n=35 v=127
10656 On ch=2 n=37 v=127
10656 On ch=10 n=42 v=79
10656 On ch=10 n=82 v=64
10668 Off ch=10 n=82 v=64
10668 Off ch=10 n=42 v=79
10710 Off ch=2 n=37 v=127
10752 On ch=10 n=36 v=105
10752 On ch=10 n=42 v=42
10752 On ch=2 n=42 v=127
10752 On ch=3 n=57 v=96
10752 On ch=3 n=61 v=96
10752 On ch=3 n=66 v=96
10752 On ch=10 n=82 v=66
10764 Off ch=10 n=82 v=66
10764 Off ch=10 n=42 v=42
10764 Off ch=10 n=36 v=105
10799 Off ch=2 n=42 v=127
10800 Off ch=3 n=57 v=96
10800 Off ch=3 n=61 v=96
10800 Off ch=3 n=66 v=96
10848 On ch=2 n=37 v=127
10848 On ch=10 n=42 v=69
10848 On ch=10 n=82 v=64
10860 Off ch=10 n=82 v=64
10860 Off ch=10 n=42 v=69
10896 Off ch=2 n=37 v=127
10944 On ch=10 n=40 v=112
10944 On ch=2 n=40 v=127
10944 On ch=10 n=42 v=54
10944 On ch=10 n=82 v=62
10949 On ch=4 n=61 v=127
10956 Off ch=10 n=82 v=62
10956 Off ch=10 n=42 v=54
10956 Off ch=10 n=40 v=112
10997 Off ch=2 n=40 v=127
11016 Off ch=4 n=61 v=127
11035 On ch=4 n=61 v=118
11040 On ch=10 n=42 v=74
11040 On ch=2 n=42 v=127
11040 On ch=3 n=59 v=96
11040 On ch=3 n=63 v=96
11040 On ch=3 n=68 v=96
11040 On ch=10 n=82 v=64
11052 Off ch=10 n=82 v=64
11052 Off ch=10 n=42 v=74
11086 Off ch=2 n=42 v=127
11088 Off ch=3 n=68 v=96
11088 Off ch=3 n=63 v=96
11088 Off ch=3 n=59 v=96
11132 Off ch=4 n=61 v=118
11136 On ch=10 n=36 v=105
11136 On ch=2 n=40 v=127
11136 On ch=10 n=42 v=57
11136 On ch=10 n=82 v=64
11143 On ch=4 n=61 v=127
11148 Off ch=10 n=82 v=64
11148 Off ch=10 n=42 v=57
11148 Off ch=10 n=36 v=105
11195 Off ch=2 n=40 v=127
11212 Off ch=4 n=61 v=127
11232 On ch=2 n=37 v=127
11232 On ch=10 n=42 v=69
11232 On ch=10 n=82 v=68
11233 On ch=4 n=59 v=123
11244 Off ch=10 n=82 v=68
11244 Off ch=10 n=42 v=69
11286 Off ch=2 n=37 v=127
11311 Off ch=4 n=59 v=123
11328 On ch=2 n=35 v=127
11328 On ch=10 n=40 v=113
11328 On ch=10 n=42 v=57
11328 On ch=10 n=82 v=62
11335 On ch=4 n=57 v=109
11340 Off ch=10 n=82 v=62
11340 Off ch=10 n=42 v=57
11340 Off ch=10 n=40 v=113
11393 Off ch=2 n=35 v=127
11412 Off ch=4 n=57 v=109
11424 On ch=2 n=37 v=127
11424 On ch=10 n=42 v=79
11424 On ch=10 n=82 v=64
11436 Off ch=10 n=82 v=64
11436 Off ch=10 n=42 v=79
11437 On ch=4 n=59 v=127
11475 Off ch=2 n=37 v=127
11520 On ch=10 n=36 v=105
11520 On ch=10 n=42 v=54
11520 On ch=2 n=42 v=127
11520 On ch=3 n=61 v=96
11520 On ch=3 n=64 v=96
11520 On ch=3 n=69 v=96
11520 On ch=10 n=82 v=62
11532 Off ch=10 n=82 v=62
11532 Off ch=10 n=42 v=54
11532 Off ch=10 n=36 v=105
11568 Off ch=3 n=69 v=96
11568 Off ch=3 n=64 v=96
11568 Off ch=3 n=61 v=96
11570 Off ch=2 n=42 v=127
11591 Off ch=4 n=59 v=127
11616 On ch=2 n=37 v=127
11616 On ch=10 n=42 v=69
11616 On ch=10 n=82 v=55
11628 Off ch=10 n=82 v=55
11628 Off ch=10 n=42 v=69
11629 On ch=4 n=57 v=91
11668 Off ch=2 n=37 v=127
11690 Off ch=4 n=57 v=91
11712 On ch=10 n=40 v=113
11712 On ch=2 n=40 v=127
11712 On ch=10 n=42 v=49
11712 On ch=10 n=82 v=55
11722 On ch=4 n=61 v=127
11724 Off ch=10 n=82 v=55
11724 Off ch=10 n=42 v=49
11724 Off ch=10 n=40 v=113
11767 Off ch=2 n=40 v=127
11788 Off ch=4 n=61 v=127
11808 On ch=10 n=42 v=79
11808 On ch=2 n=42 v=127
11808 On ch=3 n=59 v=96
11808 On ch=3 n=63 v=96
11808 On ch=3 n=68 v=96
11808 On ch=10 n=82 v=51
11820 Off ch=10 n=82 v=51
11820 Off ch=10 n=42 v=79
11820 On ch=4 n=57 v=119
11850 Off ch=4 n=57 v=119
11856 Off ch=3 n=68 v=96
11856 Off ch=3 n=63 v=96
11856 Off ch=3 n=59 v=96
11859 Off ch=2 n=42 v=127
11868 On ch=4 n=57 v=78
11900 Off ch=4 n=57 v=78
11904 On ch=10 n=36 v=105
11904 On ch=2 n=40 v=127
11904 On ch=10 n=42 v=46
11904 On ch=10 n=82 v=58
11916 Off ch=10 n=82 v=58
11916 Off ch=10 n=42 v=46
11916 Off ch=10 n=36 v=105
11919 On ch=4 n=59 v=127
11960 Off ch=2 n=40 v=127
11982 Off ch=4 n=59 v=127
12000 On ch=2 n=37 v=127
12000 On ch=10 n=42 v=74
12000 On ch=10 n=82 v=47
12008 On ch=4 n=57 v=127
12012 Off ch=10 n=82 v=47
12012 Off ch=10 n=42 v=74
12051 Off ch=2 n=37 v=127
12077 Off ch=4 n=57 v=127
12096 On ch=2 n=35 v=127
12096 On ch=10 n=40 v=113
12096 On ch=10 n=42 v=46
12096 On ch=10 n=82 v=62
12100 On ch=4 n=61 v=127
12108 Off ch=10 n=82 v=62
12108 Off ch=10 n=42 v=46
12108 Off ch=10 n=40 v=113
12157 Off ch=2 n=35 v=127
12192 On ch=2 n=37 v=127
12192 On ch=10 n=42 v=79
12192 On ch=10 n=82 v=58
12204 Off ch=10 n=82 v=58
12204 Off ch=10 n=42 v=79
12222 Off ch=4 n=61 v=127
12246 Off ch=2 n=37 v=127
12288 On ch=10 n=36 v=105
12288 On ch=10 n=42 v=42
12288 On ch=2 n=42 v=127
12288 On ch=3 n=57 v=96
12288 On ch=3 n=61 v=96
12288 On ch=3 n=66 v=96
12288 On ch=10 n=82 v=56
12300 Off ch=10 n=82 v=56
12300 Off ch=10 n=42 v=42
12300 Off ch=10 n=36 v=105
12335 Off ch=2 n=42 v=127
12336 Off ch=3 n=66 v=96
12336 Off ch=3 n=61 v=96
12336 Off ch=3 n=57 v=96
12384 On ch=2 n=37 v=127
12384 On ch=10 n=42 v=69
12384 On ch=10 n=82 v=46
12390 On ch=4 n=61 v=127
12396 Off ch=10 n=82 v=46
12396 Off ch=10 n=42 v=69
12432 Off ch=2 n=37 v=127
12468 Off ch=4 n=61 v=127
12480 On ch=10 n=40 v=112
12480 On ch=2 n=40 v=127
12480 On ch=10 n=42 v=54
12480 On ch=10 n=82 v=64
12485 On ch=4 n=61 v=127
12492 Off ch=10 n=82 v=64
12492 Off ch=10 n=42 v=54
12492 Off ch=10 n=40 v=112
12533 Off ch=2 n=40 v=127
12568 Off ch=4 n=61 v=127
12576 On ch=10 n=42 v=74
12576 On ch=2 n=42 v=127
12576 On ch=3 n=59 v=96
12576 On ch=3 n=63 v=96
12576 On ch=3 n=68 v=96
12576 On ch=10 n=82 v=53
12577 On ch=4 n=61 v=127
12588 Off ch=10 n=82 v=53
12588 Off ch=10 n=42 v=74
12622 Off ch=2 n=42 v=127
12624 Off ch=3 n=68 v=96
12624 Off ch=3 n=63 v=96
12624 Off ch=3 n=59 v=96
12669 Off ch=4 n=61 v=127
12672 On ch=10 n=36 v=105
12672 On ch=2 n=40 v=127
12672 On ch=10 n=42 v=57
12672 On ch=10 n=82 v=62
12684 Off ch=10 n=82 v=62
12684 Off ch=10 n=42 v=57
12684 Off ch=10 n=36 v=105
12684 On ch=4 n=61 v=127
12731 Off ch=2 n=40 v=127
12759 Off ch=4 n=61 v=127
12768 On ch=2 n=37 v=127
12768 On ch=10 n=42 v=69
12768 On ch=10 n=82 v=60
12777 On ch=4 n=59 v=127
12780 Off ch=10 n=82 v=60
12780 Off ch=10 n=42 v=69
12822 Off ch=2 n=37 v=127
12848 Off ch=4 n=59 v=127
12864 On ch=2 n=35 v=127
12864 On ch=10 n=40 v=113
12864 On ch=10 n=42 v=57
12864 On ch=10 n=82 v=68
12870 On ch=4 n=57 v=127
12876 Off ch=10 n=82 v=68
12876 Off ch=10 n=42 v=57
12876 Off ch=10 n=40 v=113
12929 Off ch=2 n=35 v=127
12947 Off ch=4 n=57 v=127
12960 On ch=2 n=37 v=127
12960 On ch=10 n=42 v=79
12960 On ch=10 n=82 v=50
12969 On ch=4 n=59 v=127
12972 Off ch=10 n=82 v=50
12972 Off ch=10 n=42 v=79
13011 Off ch=2 n=37 v=127
13044 Off ch=4 n=59 v=127
13056 On ch=10 n=36 v=105
13056 On ch=10 n=42 v=54
13056 On ch=2 n=42 v=127
13056 On ch=3 n=61 v=96
13056 On ch=3 n=64 v=96
13056 On ch=3 n=69 v=96
13056 On ch=10 n=82 v=68
13066 On ch=4 n=57 v=127
13068 Off ch=10 n=82 v=68
13068 Off ch=10 n=42 v=54
13068 Off ch=10 n=36 v=105
13104 Off ch=3 n=69 v=96
13104 Off ch=3 n=64 v=96
13104 Off ch=3 n=61 v=96
13106 Off ch=2 n=42 v=127
13121 Off ch=4 n=57 v=127
13152 On ch=2 n=37 v=127
13152 On ch=10 n=42 v=69
13152 On ch=10 n=82 v=58
13156 On ch=4 n=61 v=127
13164 Off ch=10 n=82 v=58
13164 Off ch=10 n=42 v=69
13204 Off ch=2 n=37 v=127
13248 On ch=10 n=40 v=113
13248 On ch=2 n=40 v=127
13248 On ch=10 n=42 v=49
13248 On ch=10 n=82 v=66
13260 Off ch=10 n=82 v=66
13260 Off ch=10 n=42 v=49
13260 Off ch=10 n=40 v=113
13303 Off ch=2 n=40 v=127
13336 Off ch=4 n=61 v=127
13344 On ch=10 n=42 v=79
13344 On ch=2 n=42 v=127
13344 On ch=3 n=59 v=96
13344 On ch=3 n=63 v=96
13344 On ch=3 n=68 v=96
13344 On ch=10 n=82 v=60
13356 Off ch=10 n=82 v=60
13356 Off ch=10 n=42 v=79
13357 On ch=4 n=59 v=127
13392 Off ch=3 n=68 v=96
13392 Off ch=3 n=63 v=96
13392 Off ch=3 n=59 v=96
13395 Off ch=2 n=42 v=127
13440 On ch=10 n=36 v=105
13440 On ch=2 n=40 v=127
13440 On ch=10 n=42 v=46
13440 On ch=10 n=82 v=56
13452 Off ch=10 n=82 v=56
13452 Off ch=10 n=42 v=46
13452 Off ch=10 n=36 v=105
13496 Off ch=2 n=40 v=127
13524 Off ch=4 n=59 v=127
13536 On ch=2 n=37 v=127
13536 On ch=10 n=42 v=74
13536 On ch=10 n=82 v=60
13547 On ch=4 n=57 v=127
13548 Off ch=10 n=82 v=60
13548 Off ch=10 n=42 v=74
13587 Off ch=2 n=37 v=127
13623 Off ch=4 n=57 v=127
13632 On ch=2 n=35 v=127
13632 On ch=10 n=40 v=113
13632 On ch=10 n=42 v=46
13632 On ch=10 n=82 v=64
13644 Off ch=10 n=82 v=64
13644 Off ch=10 n=42 v=46
13644 Off ch=10 n=40 v=113
13648 On ch=4 n=56 v=127
13693 Off ch=2 n=35 v=127
13723 Off ch=4 n=56 v=127
13728 On ch=2 n=37 v=127
13728 On ch=10 n=42 v=79
13728 On ch=10 n=82 v=64
13740 Off ch=10 n=82 v=64
13740 Off ch=10 n=42 v=79
13749 On ch=4 n=54 v=127
13782 Off ch=2 n=37 v=127
13824 On ch=10 n=36 v=105
13824 On ch=10 n=42 v=42
13824 On ch=2 n=47 v=127
13824 On ch=3 n=57 v=96
13824 On ch=3 n=62 v=96
13824 On ch=3 n=66 v=96
13824 On ch=10 n=82 v=66
13836 Off ch=10 n=82 v=66
13836 Off ch=10 n=42 v=42
13836 Off ch=10 n=36 v=105
13872 Off ch=3 n=66 v=96
13872 Off ch=3 n=57 v=96
13872 Off ch=3 n=62 v=96
13872 Off ch=2 n=47 v=127
13900 Off ch=4 n=54 v=127
13920 On ch=10 n=42 v=69
13920 On ch=2 n=42 v=127
13920 On ch=10 n=82 v=64
13932 Off ch=10 n=82 v=64
13932 Off ch=10 n=42 v=69
13955 Off ch=2 n=42 v=127
14016 On ch=10 n=40 v=112
14016 On ch=10 n=42 v=54
14016 On ch=2 n=45 v=127
14016 On ch=10 n=82 v=62
14028 Off ch=10 n=82 v=62
14028 Off ch=10 n=42 v=54
14028 Off ch=10 n=40 v=112
14068 Off ch=2 n=45 v=127
14112 On ch=10 n=42 v=74
14112 On ch=2 n=47 v=127
14112 On ch=3 n=57 v=96
14112 On ch=3 n=62 v=96
14112 On ch=3 n=66 v=96
14112 On ch=10 n=82 v=64
14124 Off ch=10 n=82 v=64
14124 Off ch=10 n=42 v=74
14160 Off ch=3 n=62 v=96
14160 Off ch=3 n=66 v=96
14160 Off ch=3 n=57 v=96
14182 Off ch=2 n=47 v=127
14208 On ch=10 n=36 v=105
14208 On ch=10 n=42 v=57
14208 On ch=10 n=82 v=64
14220 Off ch=10 n=82 v=64
14220 Off ch=10 n=42 v=57
14220 Off ch=10 n=36 v=105
14304 On ch=10 n=42 v=69
14304 On ch=2 n=42 v=127
14304 On ch=10 n=82 v=68
14316 Off ch=10 n=82 v=68
14316 Off ch=10 n=42 v=69
14360 Off ch=2 n=42 v=127
14400 On ch=10 n=40 v=113
14400 On ch=2 n=40 v=127
14400 On ch=10 n=42 v=57
14400 On ch=10 n=82 v=62
14401 On ch=4 n=54 v=127
14412 Off ch=10 n=82 v=62
14412 Off ch=10 n=42 v=57
14412 Off ch=10 n=40 v=113
14444 Off ch=4 n=54 v=127
14453 On ch=4 n=56 v=127
14460 Off ch=2 n=40 v=127
14482 Off ch=4 n=56 v=127
14496 On ch=10 n=42 v=79
14496 On ch=2 n=42 v=127
14496 On ch=10 n=82 v=64
14499 On ch=4 n=54 v=127
14508 Off ch=10 n=82 v=64
14508 Off ch=10 n=42 v=79
14548 Off ch=2 n=42 v=127
14592 On ch=10 n=36 v=105
14592 On ch=10 n=42 v=54
14592 On ch=2 n=47 v=127
14592 On ch=3 n=57 v=96
14592 On ch=3 n=62 v=96
14592 On ch=3 n=66 v=96
14592 On ch=10 n=82 v=62
14604 Off ch=10 n=82 v=62
14604 Off ch=10 n=42 v=54
14604 Off ch=10 n=36 v=105
14612 Off ch=4 n=54 v=127
14640 Off ch=3 n=66 v=96
14640 Off ch=3 n=62 v=96
14640 Off ch=3 n=57 v=96
14641 Off ch=2 n=47 v=127
14688 On ch=10 n=42 v=69
14688 On ch=2 n=42 v=127
14688 On ch=10 n=82 v=55
14700 Off ch=10 n=82 v=55
14700 Off ch=10 n=42 v=69
14738 Off ch=2 n=42 v=127
14784 On ch=10 n=40 v=113
14784 On ch=10 n=42 v=49
14784 On ch=2 n=45 v=127
14784 On ch=4 n=54 v=127
14784 On ch=10 n=82 v=55
14796 Off ch=10 n=82 v=55
14796 Off ch=10 n=42 v=49
14796 Off ch=10 n=40 v=113
14822 Off ch=4 n=54 v=127
14841 Off ch=2 n=45 v=127
14842 On ch=4 n=56 v=116
14863 Off ch=4 n=56 v=116
14880 On ch=10 n=42 v=79
14880 On ch=2 n=47 v=127
14880 On ch=3 n=57 v=96
14880 On ch=3 n=62 v=96
14880 On ch=3 n=66 v=96
14880 On ch=10 n=82 v=51
14887 On ch=4 n=54 v=127
14892 Off ch=10 n=82 v=51
14892 Off ch=10 n=42 v=79
14928 Off ch=3 n=66 v=96
14928 Off ch=3 n=62 v=96
14928 Off ch=3 n=57 v=96
14948 Off ch=2 n=47 v=127
14976 On ch=10 n=36 v=105
14976 On ch=10 n=42 v=46
14976 On ch=10 n=82 v=58
14988 Off ch=10 n=82 v=58
14988 Off ch=10 n=42 v=46
14988 Off ch=10 n=36 v=105
15006 Off ch=4 n=54 v=127
15072 On ch=10 n=42 v=74
15072 On ch=2 n=42 v=127
15072 On ch=10 n=82 v=47
15084 Off ch=10 n=82 v=47
15084 Off ch=10 n=42 v=74
15135 Off ch=2 n=42 v=127
15168 On ch=10 n=40 v=113
15168 On ch=2 n=40 v=127
15168 On ch=10 n=42 v=46
15168 On ch=10 n=82 v=62
15171 On ch=4 n=54 v=127
15180 Off ch=10 n=82 v=62
15180 Off ch=10 n=42 v=46
15180 Off ch=10 n=40 v=113
15204 Off ch=4 n=54 v=127
15224 On ch=4 n=56 v=119
15228 Off ch=2 n=40 v=127
15241 Off ch=4 n=56 v=119
15264 On ch=2 n=37 v=127
15264 On ch=10 n=42 v=79
15264 On ch=10 n=82 v=58
15266 On ch=4 n=54 v=127
15276 Off ch=10 n=82 v=58
15276 Off ch=10 n=42 v=79
15327 Off ch=2 n=37 v=127
15360 On ch=10 n=36 v=105
15360 On ch=10 n=42 v=42
15360 On ch=2 n=42 v=127
15360 On ch=3 n=57 v=96
15360 On ch=3 n=61 v=96
15360 On ch=3 n=66 v=96
15360 On ch=10 n=82 v=56
15371 Off ch=4 n=54 v=127
15372 Off ch=10 n=82 v=56
15372 Off ch=10 n=42 v=42
15372 Off ch=10 n=36 v=105
15408 Off ch=3 n=57 v=96
15408 Off ch=3 n=61 v=96
15408 Off ch=3 n=66 v=96
15410 Off ch=2 n=42 v=127
15456 On ch=2 n=37 v=127
15456 On ch=10 n=42 v=69
15456 On ch=10 n=82 v=46
15468 Off ch=10 n=82 v=46
15468 Off ch=10 n=42 v=69
15508 Off ch=2 n=37 v=127
15552 On ch=10 n=40 v=112
15552 On ch=2 n=40 v=127
15552 On ch=10 n=42 v=54
15552 On ch=10 n=82 v=64
15564 Off ch=10 n=82 v=64
15564 Off ch=10 n=42 v=54
15564 Off ch=10 n=40 v=112
15607 Off ch=2 n=40 v=127
15648 On ch=10 n=42 v=74
15648 On ch=2 n=42 v=127
15648 On ch=3 n=59 v=96
15648 On ch=3 n=63 v=96
15648 On ch=3 n=68 v=96
15648 On ch=10 n=82 v=53
15660 Off ch=10 n=82 v=53
15660 Off ch=10 n=42 v=74
15696 Off ch=3 n=68 v=96
15696 Off ch=3 n=63 v=96
15696 Off ch=3 n=59 v=96
15699 Off ch=2 n=42 v=127
15744 On ch=10 n=36 v=105
15744 On ch=2 n=40 v=127
15744 On ch=10 n=42 v=57
15744 On ch=10 n=82 v=62
15756 Off ch=10 n=82 v=62
15756 Off ch=10 n=42 v=57
15756 Off ch=10 n=36 v=105
15800 Off ch=2 n=40 v=127
15840 On ch=2 n=37 v=127
15840 On ch=10 n=42 v=69
15840 On ch=10 n=82 v=60
15852 Off ch=10 n=82 v=60
15852 Off ch=10 n=42 v=69
15891 Off ch=2 n=37 v=127
15936 On ch=2 n=35 v=127
15936 On ch=10 n=40 v=113
15936 On ch=10 n=42 v=57
15936 On ch=10 n=82 v=68
15948 Off ch=10 n=82 v=68
15948 Off ch=10 n=42 v=57
15948 Off ch=10 n=40 v=113
15997 Off ch=2 n=35 v=127
16032 On ch=2 n=37 v=127
16032 On ch=10 n=42 v=79
16032 On ch=10 n=82 v=50
16044 Off ch=10 n=82 v=50
16044 Off ch=10 n=42 v=79
16086 Off ch=2 n=37 v=127
16128 On ch=10 n=36 v=105
16128 On ch=10 n=42 v=54
16128 On ch=2 n=42 v=127
16128 On ch=3 n=61 v=96
16128 On ch=3 n=64 v=96
16128 On ch=3 n=69 v=96
16128 On ch=10 n=82 v=68
16140 Off ch=10 n=82 v=68
16140 Off ch=10 n=42 v=54
16140 Off ch=10 n=36 v=105
16175 Off ch=2 n=42 v=127
16176 Off ch=3 n=69 v=96
16176 Off ch=3 n=64 v=96
16176 Off ch=3 n=61 v=96
16224 On ch=2 n=37 v=127
16224 On ch=10 n=42 v=69
16224 On ch=10 n=82 v=58
16226 On ch=4 n=54 v=127
16236 Off ch=10 n=82 v=58
16236 Off ch=10 n=42 v=69
16272 Off ch=2 n=37 v=127
16278 Off ch=4 n=54 v=127
16319 On ch=4 n=57 v=127
16320 On ch=10 n=40 v=113
16320 On ch=2 n=40 v=127
16320 On ch=10 n=42 v=49
16320 On ch=10 n=82 v=66
16332 Off ch=10 n=82 v=66
16332 Off ch=10 n=42 v=49
16332 Off ch=10 n=40 v=113
16373 Off ch=2 n=40 v=127
16396 Off ch=4 n=57 v=127
16416 On ch=10 n=42 v=79
16416 On ch=2 n=42 v=127
16416 On ch=3 n=59 v=96
16416 On ch=3 n=63 v=96
16416 On ch=3 n=68 v=96
16416 On ch=10 n=82 v=60
16419 On ch=4 n=59 v=127
16428 Off ch=10 n=82 v=60
16428 Off ch=10 n=42 v=79
16462 Off ch=2 n=42 v=127
16464 Off ch=3 n=68 v=96
16464 Off ch=3 n=63 v=96
16464 Off ch=3 n=59 v=96
16512 On ch=10 n=36 v=105
16512 On ch=2 n=40 v=127
16512 On ch=10 n=42 v=46
16512 On ch=10 n=82 v=56
16524 Off ch=10 n=82 v=56
16524 Off ch=10 n=42 v=46
16524 Off ch=10 n=36 v=105
16571 Off ch=2 n=40 v=127
16583 Off ch=4 n=59 v=127
16608 On ch=2 n=37 v=127
16608 On ch=10 n=42 v=74
16608 On ch=10 n=82 v=60
16609 On ch=4 n=57 v=127
16620 Off ch=10 n=82 v=60
16620 Off ch=10 n=42 v=74
16662 Off ch=2 n=37 v=127
16676 Off ch=4 n=57 v=127
16702 On ch=4 n=56 v=127
16704 On ch=2 n=35 v=127
16704 On ch=10 n=40 v=113
16704 On ch=10 n=42 v=46
16704 On ch=10 n=82 v=64
16716 Off ch=10 n=82 v=64
16716 Off ch=10 n=42 v=46
16716 Off ch=10 n=40 v=113
16769 Off ch=2 n=35 v=127
16777 Off ch=4 n=56 v=127
16800 On ch=2 n=37 v=127
16800 On ch=10 n=42 v=79
16800 On ch=10 n=82 v=64
16806 On ch=4 n=54 v=127
16812 Off ch=10 n=82 v=64
16812 Off ch=10 n=42 v=79
16851 Off ch=2 n=37 v=127
16896 On ch=10 n=36 v=105
16896 On ch=10 n=42 v=42
16896 On ch=2 n=47 v=127
16896 On ch=3 n=57 v=96
16896 On ch=3 n=62 v=96
16896 On ch=3 n=66 v=96
16896 On ch=10 n=82 v=66
16908 Off ch=10 n=82 v=66
16908 Off ch=10 n=42 v=42
16908 Off ch=10 n=36 v=105
16944 Off ch=3 n=66 v=96
16944 Off ch=3 n=57 v=96
16944 Off ch=3 n=62 v=96
16944 Off ch=2 n=47 v=127
16992 On ch=10 n=42 v=69
16992 On ch=2 n=42 v=127
16992 On ch=10 n=82 v=64
17004 Off ch=10 n=82 v=64
17004 Off ch=10 n=42 v=69
17027 Off ch=2 n=42 v=127
17088 On ch=10 n=40 v=112
17088 On ch=10 n=42 v=54
17088 On ch=2 n=45 v=127
17088 On ch=10 n=82 v=62
17097 Off ch=4 n=54 v=127
17100 Off ch=10 n=82 v=62
17100 Off ch=10 n=42 v=54
17100 Off ch=10 n=40 v=112
17140 Off ch=2 n=45 v=127
17184 On ch=10 n=42 v=74
17184 On ch=2 n=47 v=127
17184 On ch=3 n=57 v=96
17184 On ch=3 n=62 v=96
17184 On ch=3 n=66 v=96
17184 On ch=10 n=82 v=64
17196 Off ch=10 n=82 v=64
17196 Off ch=10 n=42 v=74
17232 Off ch=3 n=62 v=96
17232 Off ch=3 n=66 v=96
17232 Off ch=3 n=57 v=96
17254 Off ch=2 n=47 v=127
17280 On ch=10 n=36 v=105
17280 On ch=10 n=42 v=57
17280 On ch=10 n=82 v=64
17292 Off ch=10 n=82 v=64
17292 Off ch=10 n=42 v=57
17292 Off ch=10 n=36 v=105
17376 On ch=10 n=42 v=69
17376 On ch=2 n=42 v=127
17376 On ch=10 n=82 v=68
17388 Off ch=10 n=82 v=68
17388 Off ch=10 n=42 v=69
17432 Off ch=2 n=42 v=127
17472 On ch=10 n=40 v=113
17472 On ch=2 n=40 v=127
17472 On ch=10 n=42 v=57
17472 On ch=10 n=82 v=62
17474 On ch=4 n=57 v=127
17484 Off ch=10 n=82 v=62
17484 Off ch=10 n=42 v=57
17484 Off ch=10 n=40 v=113
17514 Off ch=4 n=57 v=127
17524 On ch=4 n=56 v=127
17532 Off ch=2 n=40 v=127
17567 Off ch=4 n=56 v=127
17568 On ch=10 n=42 v=79
17568 On ch=2 n=42 v=127
17568 On ch=10 n=82 v=64
17578 On ch=4 n=54 v=127
17580 Off ch=10 n=82 v=64
17580 Off ch=10 n=42 v=79
17620 Off ch=2 n=42 v=127
17664 On ch=10 n=36 v=105
17664 On ch=10 n=42 v=54
17664 On ch=2 n=47 v=127
17664 On ch=3 n=57 v=96
17664 On ch=3 n=62 v=96
17664 On ch=3 n=66 v=96
17664 On ch=10 n=82 v=62
17676 Off ch=10 n=82 v=62
17676 Off ch=10 n=42 v=54
17676 Off ch=10 n=36 v=105
17712 Off ch=3 n=66 v=96
17712 Off ch=3 n=62 v=96
17712 Off ch=3 n=57 v=96
17713 Off ch=2 n=47 v=127
17760 On ch=10 n=42 v=69
17760 On ch=2 n=42 v=127
17760 On ch=10 n=82 v=55
17772 Off ch=10 n=82 v=55
17772 Off ch=10 n=42 v=69
17806 Off ch=4 n=54 v=127
17810 Off ch=2 n=42 v=127
17855 On ch=4 n=57 v=127
17856 On ch=10 n=40 v=113
17856 On ch=10 n=42 v=49
17856 On ch=10 n=82 v=55
17856 Par ch=3 c=11 v=127
17856 On ch=2 n=45 v=127
17868 Off ch=10 n=82 v=55
17868 Off ch=10 n=42 v=49
17868 Off ch=10 n=40 v=113
17895 Off ch=4 n=57 v=127
17904 Par ch=3 c=11 v=81
17907 On ch=4 n=56 v=127
17913 Off ch=2 n=45 v=127
17938 Off ch=4 n=56 v=127
17952 On ch=10 n=42 v=79
17952 On ch=10 n=82 v=51
17952 Par ch=3 c=11 v=86
17952 On ch=2 n=47 v=127
17952 On ch=3 n=57 v=100
17952 On ch=3 n=62 v=100
17952 On ch=3 n=66 v=100
17959 On ch=4 n=54 v=127
17964 Off ch=10 n=82 v=51
17964 Off ch=10 n=42 v=79
18000 Par ch=3 c=11 v=92
18020 Off ch=2 n=47 v=127
18048 On ch=10 n=36 v=105
18048 On ch=10 n=42 v=46
18048 On ch=10 n=82 v=58
18048 Par ch=3 c=11 v=97
18060 Off ch=10 n=82 v=58
18060 Off ch=10 n=42 v=46
18060 Off ch=10 n=36 v=105
18096 Par ch=3 c=11 v=103
18144 On ch=10 n=42 v=74
18144 On ch=10 n=82 v=47
18144 Par ch=3 c=11 v=108
18144 On ch=2 n=42 v=127
18156 Off ch=10 n=82 v=47
18156 Off ch=10 n=42 v=74
18192 Par ch=3 c=11 v=114
18194 Off ch=4 n=54 v=127
18207 Off ch=2 n=42 v=127
18239 On ch=4 n=57 v=127
18240 On ch=10 n=40 v=113
18240 On ch=10 n=42 v=46
18240 On ch=10 n=82 v=62
18240 Par ch=3 c=11 v=119
18240 On ch=2 n=40 v=127
18252 Off ch=10 n=82 v=62
18252 Off ch=10 n=42 v=46
18252 Off ch=10 n=40 v=113
18282 Off ch=4 n=57 v=127
18288 Par ch=3 c=11 v=127
18289 On ch=4 n=56 v=127
18300 Off ch=2 n=40 v=127
18332 Off ch=4 n=56 v=127
18336 On ch=2 n=37 v=127
18336 On ch=10 n=42 v=79
18336 On ch=10 n=82 v=58
18338 On ch=4 n=54 v=127
18348 Off ch=10 n=82 v=58
18348 Off ch=10 n=42 v=79
18384 Off ch=3 n=66 v=100
18384 Off ch=3 n=62 v=100
18384 Off ch=3 n=57 v=100
18399 Off ch=2 n=37 v=127
18432 On ch=10 n=36 v=105
18432 On ch=10 n=42 v=42
18432 On ch=2 n=42 v=127
18432 On ch=3 n=57 v=96
18432 On ch=3 n=61 v=96
18432 On ch=3 n=66 v=96
18432 On ch=10 n=82 v=56
18444 Off ch=10 n=82 v=56
18444 Off ch=10 n=42 v=42
18444 Off ch=10 n=36 v=105
18480 Off ch=3 n=57 v=96
18480 Off ch=3 n=61 v=96
18480 Off ch=3 n=66 v=96
18482 Off ch=2 n=42 v=127
18502 Off ch=4 n=54 v=127
18528 On ch=2 n=37 v=127
18528 On ch=10 n=42 v=69
18528 On ch=10 n=82 v=46
18540 Off ch=10 n=82 v=46
18540 Off ch=10 n=42 v=69
18580 Off ch=2 n=37 v=127
18624 On ch=10 n=40 v=112
18624 On ch=2 n=40 v=127
18624 On ch=10 n=42 v=54
18624 On ch=10 n=82 v=64
18636 Off ch=10 n=82 v=64
18636 Off ch=10 n=42 v=54
18636 Off ch=10 n=40 v=112
18679 Off ch=2 n=40 v=127
18720 On ch=10 n=42 v=74
18720 On ch=2 n=42 v=127
18720 On ch=3 n=59 v=96
18720 On ch=3 n=63 v=96
18720 On ch=3 n=68 v=96
18720 On ch=10 n=82 v=53
18732 Off ch=10 n=82 v=53
18732 Off ch=10 n=42 v=74
18768 Off ch=3 n=68 v=96
18768 Off ch=3 n=63 v=96
18768 Off ch=3 n=59 v=96
18771 Off ch=2 n=42 v=127
18816 On ch=10 n=36 v=105
18816 On ch=2 n=40 v=127
18816 On ch=10 n=42 v=57
18816 On ch=10 n=82 v=62
18828 Off ch=10 n=82 v=62
18828 Off ch=10 n=42 v=57
18828 Off ch=10 n=36 v=105
18872 Off ch=2 n=40 v=127
18912 On ch=2 n=37 v=127
18912 On ch=10 n=42 v=69
18912 On ch=10 n=82 v=60
18924 Off ch=10 n=82 v=60
18924 Off ch=10 n=42 v=69
18963 Off ch=2 n=37 v=127
19008 On ch=2 n=35 v=127
19008 On ch=10 n=40 v=113
19008 On ch=10 n=42 v=57
19008 On ch=10 n=82 v=68
19020 Off ch=10 n=82 v=68
19020 Off ch=10 n=42 v=57
19020 Off ch=10 n=40 v=113
19069 Off ch=2 n=35 v=127
19104 On ch=2 n=37 v=127
19104 On ch=10 n=42 v=79
19104 On ch=10 n=82 v=50
19116 Off ch=10 n=82 v=50
19116 Off ch=10 n=42 v=79
19158 Off ch=2 n=37 v=127
19200 On ch=10 n=36 v=105
19200 On ch=10 n=42 v=54
19200 On ch=2 n=42 v=127
19200 On ch=3 n=61 v=96
19200 On ch=3 n=64 v=96
19200 On ch=3 n=69 v=96
19200 On ch=10 n=82 v=68
19212 Off ch=10 n=82 v=68
19212 Off ch=10 n=42 v=54
19212 Off ch=10 n=36 v=105
19247 Off ch=2 n=42 v=127
19248 Off ch=3 n=69 v=96
19248 Off ch=3 n=64 v=96
19248 Off ch=3 n=61 v=96
19296 On ch=2 n=37 v=127
19296 On ch=10 n=42 v=69
19296 On ch=10 n=82 v=58
19308 Off ch=10 n=82 v=58
19308 Off ch=10 n=42 v=69
19344 Off ch=2 n=37 v=127
19392 On ch=10 n=40 v=113
19392 On ch=2 n=40 v=127
19392 On ch=10 n=42 v=49
19392 On ch=10 n=82 v=66
19404 Off ch=10 n=82 v=66
19404 Off ch=10 n=42 v=49
19404 Off ch=10 n=40 v=113
19445 Off ch=2 n=40 v=127
19488 On ch=10 n=42 v=79
19488 On ch=2 n=42 v=127
19488 On ch=3 n=59 v=96
19488 On ch=3 n=63 v=96
19488 On ch=3 n=68 v=96
19488 On ch=10 n=82 v=60
19500 Off ch=10 n=82 v=60
19500 Off ch=10 n=42 v=79
19534 Off ch=2 n=42 v=127
19536 Off ch=3 n=68 v=96
19536 Off ch=3 n=63 v=96
19536 Off ch=3 n=59 v=96
19584 On ch=10 n=36 v=105
19584 On ch=2 n=40 v=127
19584 On ch=10 n=42 v=46
19584 On ch=10 n=82 v=56
19596 Off ch=10 n=82 v=56
19596 Off ch=10 n=42 v=46
19596 Off ch=10 n=36 v=105
19643 Off ch=2 n=40 v=127
19680 On ch=2 n=37 v=127
19680 On ch=10 n=42 v=74
19680 On ch=10 n=82 v=60
19692 Off ch=10 n=82 v=60
19692 Off ch=10 n=42 v=74
19734 Off ch=2 n=37 v=127
19776 On ch=2 n=35 v=127
19776 On ch=10 n=40 v=113
19776 On ch=10 n=42 v=46
19776 On ch=10 n=82 v=64
19788 Off ch=10 n=82 v=64
19788 Off ch=10 n=42 v=46
19788 Off ch=10 n=40 v=113
19841 Off ch=2 n=35 v=127
19872 On ch=2 n=37 v=127
19872 On ch=10 n=42 v=79
19872 On ch=10 n=82 v=64
19884 Off ch=10 n=82 v=64
19884 Off ch=10 n=42 v=79
19923 Off ch=2 n=37 v=127
19968 On ch=10 n=36 v=105
19968 On ch=10 n=42 v=42
19968 On ch=2 n=42 v=127
19968 On ch=3 n=57 v=96
19968 On ch=3 n=61 v=96
19968 On ch=3 n=66 v=96
19968 On ch=10 n=82 v=66
19980 Off ch=10 n=82 v=66
19980 Off ch=10 n=42 v=42
19980 Off ch=10 n=36 v=105
20016 Off ch=3 n=57 v=96
20016 Off ch=3 n=61 v=96
20016 Off ch=3 n=66 v=96
20018 Off ch=2 n=42 v=127
20064 On ch=2 n=37 v=127
20064 On ch=10 n=42 v=69
20064 On ch=10 n=82 v=64
20076 Off ch=10 n=82 v=64
20076 Off ch=10 n=42 v=69
20116 Off ch=2 n=37 v=127
20160 On ch=10 n=40 v=112
20160 On ch=2 n=40 v=127
20160 On ch=10 n=42 v=54
20160 On ch=10 n=82 v=62
20165 On ch=4 n=61 v=127
20172 Off ch=10 n=82 v=62
20172 Off ch=10 n=42 v=54
20172 Off ch=10 n=40 v=112
20215 Off ch=2 n=40 v=127
20232 Off ch=4 n=61 v=127
20251 On ch=4 n=61 v=118
20256 On ch=10 n=42 v=74
20256 On ch=2 n=42 v=127
20256 On ch=3 n=59 v=96
20256 On ch=3 n=63 v=96
20256 On ch=3 n=68 v=96
20256 On ch=10 n=82 v=64
20268 Off ch=10 n=82 v=64
20268 Off ch=10 n=42 v=74
20304 Off ch=3 n=68 v=96
20304 Off ch=3 n=63 v=96
20304 Off ch=3 n=59 v=96
20307 Off ch=2 n=42 v=127
20348 Off ch=4 n=61 v=118
20352 On ch=10 n=36 v=105
20352 On ch=2 n=40 v=127
20352 On ch=10 n=42 v=57
20352 On ch=10 n=82 v=64
20359 On ch=4 n=61 v=127
20364 Off ch=10 n=82 v=64
20364 Off ch=10 n=42 v=57
20364 Off ch=10 n=36 v=105
20408 Off ch=2 n=40 v=127
20428 Off ch=4 n=61 v=127
20448 On ch=2 n=37 v=127
20448 On ch=10 n=42 v=69
20448 On ch=10 n=82 v=68
20449 On ch=4 n=59 v=123
20460 Off ch=10 n=82 v=68
20460 Off ch=10 n=42 v=69
20499 Off ch=2 n=37 v=127
20527 Off ch=4 n=59 v=123
20544 On ch=2 n=35 v=127
20544 On ch=10 n=40 v=113
20544 On ch=10 n=42 v=57
20544 On ch=10 n=82 v=62
20551 On ch=4 n=57 v=109
20556 Off ch=10 n=82 v=62
20556 Off ch=10 n=42 v=57
20556 Off ch=10 n=40 v=113
20605 Off ch=2 n=35 v=127
20628 Off ch=4 n=57 v=109
20640 On ch=2 n=37 v=127
20640 On ch=10 n=42 v=79
20640 On ch=10 n=82 v=64
20652 Off ch=10 n=82 v=64
20652 Off ch=10 n=42 v=79
20653 On ch=4 n=59 v=127
20694 Off ch=2 n=37 v=127
20736 On ch=10 n=36 v=105
20736 On ch=10 n=42 v=54
20736 On ch=2 n=42 v=127
20736 On ch=3 n=61 v=96
20736 On ch=3 n=64 v=96
20736 On ch=3 n=69 v=96
20736 On ch=10 n=82 v=62
20748 Off ch=10 n=82 v=62
20748 Off ch=10 n=42 v=54
20748 Off ch=10 n=36 v=105
20783 Off ch=2 n=42 v=127
20784 Off ch=3 n=69 v=96
20784 Off ch=3 n=64 v=96
20784 Off ch=3 n=61 v=96
20807 Off ch=4 n=59 v=127
20832 On ch=2 n=37 v=127
20832 On ch=10 n=42 v=69
20832 On ch=10 n=82 v=55
20844 Off ch=10 n=82 v=55
20844 Off ch=10 n=42 v=69
20845 On ch=4 n=57 v=91
20880 Off ch=2 n=37 v=127
20906 Off ch=4 n=57 v=91
20928 On ch=10 n=40 v=113
20928 On ch=2 n=40 v=127
20928 On ch=10 n=42 v=49
20928 On ch=10 n=82 v=55
20938 On ch=4 n=61 v=127
20940 Off ch=10 n=82 v=55
20940 Off ch=10 n=42 v=49
20940 Off ch=10 n=40 v=113
20981 Off ch=2 n=40 v=127
21004 Off ch=4 n=61 v=127
21024 On ch=10 n=42 v=79
21024 On ch=2 n=42 v=127
21024 On ch=3 n=59 v=96
21024 On ch=3 n=63 v=96
21024 On ch=3 n=68 v=96
21024 On ch=10 n=82 v=51
21036 Off ch=10 n=82 v=51
21036 Off ch=10 n=42 v=79
21036 On ch=4 n=57 v=119
21066 Off ch=4 n=57 v=119
21070 Off ch=2 n=42 v=127
21072 Off ch=3 n=68 v=96
21072 Off ch=3 n=63 v=96
21072 Off ch=3 n=59 v=96
21084 On ch=4 n=57 v=78
21116 Off ch=4 n=57 v=78
21120 On ch=10 n=36 v=105
21120 On ch=2 n=40 v=127
21120 On ch=10 n=42 v=46
21120 On ch=10 n=82 v=58
21132 Off ch=10 n=82 v=58
21132 Off ch=10 n=42 v=46
21132 Off ch=10 n=36 v=105
21135 On ch=4 n=59 v=127
21179 Off ch=2 n=40 v=127
21198 Off ch=4 n=59 v=127
21216 On ch=2 n=37 v=127
21216 On ch=10 n=42 v=74
21216 On ch=10 n=82 v=47
21224 On ch=4 n=57 v=127
21228 Off ch=10 n=82 v=47
21228 Off ch=10 n=42 v=74
21270 Off ch=2 n=37 v=127
21293 Off ch=4 n=57 v=127
21312 On ch=2 n=35 v=127
21312 On ch=10 n=40 v=113
21312 On ch=10 n=42 v=46
21312 On ch=10 n=82 v=62
21316 On ch=4 n=61 v=127
21324 Off ch=10 n=82 v=62
21324 Off ch=10 n=42 v=46
21324 Off ch=10 n=40 v=113
21377 Off ch=2 n=35 v=127
21408 On ch=2 n=37 v=127
21408 On ch=10 n=42 v=79
21408 On ch=10 n=82 v=58
21420 Off ch=10 n=82 v=58
21420 Off ch=10 n=42 v=79
21438 Off ch=4 n=61 v=127
21459 Off ch=2 n=37 v=127
21504 On ch=10 n=36 v=105
21504 On ch=10 n=42 v=42
21504 On ch=2 n=42 v=127
21504 On ch=3 n=57 v=96
21504 On ch=3 n=61 v=96
21504 On ch=3 n=66 v=96
21504 On ch=10 n=82 v=56
21516 Off ch=10 n=82 v=56
21516 Off ch=10 n=42 v=42
21516 Off ch=10 n=36 v=105
21552 Off ch=3 n=66 v=96
21552 Off ch=3 n=61 v=96
21552 Off ch=3 n=57 v=96
21554 Off ch=2 n=42 v=127
21600 On ch=2 n=37 v=127
21600 On ch=10 n=42 v=69
21600 On ch=10 n=82 v=46
21606 On ch=4 n=61 v=127
21612 Off ch=10 n=82 v=46
21612 Off ch=10 n=42 v=69
21652 Off ch=2 n=37 v=127
21684 Off ch=4 n=61 v=127
21696 On ch=10 n=40 v=112
21696 On ch=2 n=40 v=127
21696 On ch=10 n=42 v=54
21696 On ch=10 n=82 v=64
21701 On ch=4 n=61 v=127
21708 Off ch=10 n=82 v=64
21708 Off ch=10 n=42 v=54
21708 Off ch=10 n=40 v=112
21751 Off ch=2 n=40 v=127
21784 Off ch=4 n=61 v=127
21792 On ch=10 n=42 v=74
21792 On ch=2 n=42 v=127
21792 On ch=3 n=59 v=96
21792 On ch=3 n=63 v=96
21792 On ch=3 n=68 v=96
21792 On ch=10 n=82 v=53
21793 On ch=4 n=61 v=127
21804 Off ch=10 n=82 v=53
21804 Off ch=10 n=42 v=74
21840 Off ch=3 n=68 v=96
21840 Off ch=3 n=63 v=96
21840 Off ch=3 n=59 v=96
21843 Off ch=2 n=42 v=127
21885 Off ch=4 n=61 v=127
21888 On ch=10 n=36 v=105
21888 On ch=2 n=40 v=127
21888 On ch=10 n=42 v=57
21888 On ch=10 n=82 v=62
21900 Off ch=10 n=82 v=62
21900 Off ch=10 n=42 v=57
21900 Off ch=10 n=36 v=105
21900 On ch=4 n=61 v=127
21944 Off ch=2 n=40 v=127
21975 Off ch=4 n=61 v=127
21984 On ch=2 n=37 v=127
21984 On ch=10 n=42 v=69
21984 On ch=10 n=82 v=60
21993 On ch=4 n=59 v=127
21996 Off ch=10 n=82 v=60
21996 Off ch=10 n=42 v=69
22035 Off ch=2 n=37 v=127
22064 Off ch=4 n=59 v=127
22080 On ch=2 n=35 v=127
22080 On ch=10 n=40 v=113
22080 On ch=10 n=42 v=57
22080 On ch=10 n=82 v=68
22086 On ch=4 n=57 v=127
22092 Off ch=10 n=82 v=68
22092 Off ch=10 n=42 v=57
22092 Off ch=10 n=40 v=113
22141 Off ch=2 n=35 v=127
22163 Off ch=4 n=57 v=127
22176 On ch=2 n=37 v=127
22176 On ch=10 n=42 v=79
22176 On ch=10 n=82 v=50
22185 On ch=4 n=59 v=127
22188 Off ch=10 n=82 v=50
22188 Off ch=10 n=42 v=79
22230 Off ch=2 n=37 v=127
22260 Off ch=4 n=59 v=127
22272 On ch=10 n=36 v=105
22272 On ch=10 n=42 v=54
22272 On ch=2 n=42 v=127
22272 On ch=3 n=61 v=96
22272 On ch=3 n=64 v=96
22272 On ch=3 n=69 v=96
22272 On ch=10 n=82 v=68
22282 On ch=4 n=57 v=127
22284 Off ch=10 n=82 v=68
22284 Off ch=10 n=42 v=54
22284 Off ch=10 n=36 v=105
22319 Off ch=2 n=42 v=127
22320 Off ch=3 n=69 v=96
22320 Off ch=3 n=64 v=96
22320 Off ch=3 n=61 v=96
22337 Off ch=4 n=57 v=127
22368 On ch=2 n=37 v=127
22368 On ch=10 n=42 v=69
22368 On ch=10 n=82 v=58
22372 On ch=4 n=61 v=127
22380 Off ch=10 n=82 v=58
22380 Off ch=10 n=42 v=69
22416 Off ch=2 n=37 v=127
22464 On ch=10 n=40 v=113
22464 On ch=2 n=40 v=127
22464 On ch=10 n=42 v=49
22464 On ch=10 n=82 v=66
22476 Off ch=10 n=82 v=66
22476 Off ch=10 n=42 v=49
22476 Off ch=10 n=40 v=113
22517 Off ch=2 n=40 v=127
22552 Off ch=4 n=61 v=127
22560 On ch=10 n=42 v=79
22560 On ch=2 n=42 v=127
22560 On ch=3 n=59 v=96
22560 On ch=3 n=63 v=96
22560 On ch=3 n=68 v=96
22560 On ch=10 n=82 v=60
22572 Off ch=10 n=82 v=60
22572 Off ch=10 n=42 v=79
22573 On ch=4 n=59 v=127
22606 Off ch=2 n=42 v=127
22608 Off ch=3 n=68 v=96
22608 Off ch=3 n=63 v=96
22608 Off ch=3 n=59 v=96
22656 On ch=10 n=36 v=105
22656 On ch=2 n=40 v=127
22656 On ch=10 n=42 v=46
22656 On ch=10 n=82 v=56
22668 Off ch=10 n=82 v=56
22668 Off ch=10 n=42 v=46
22668 Off ch=10 n=36 v=105
22715 Off ch=2 n=40 v=127
22740 Off ch=4 n=59 v=127
22752 On ch=2 n=37 v=127
22752 On ch=10 n=42 v=74
22752 On ch=10 n=82 v=60
22763 On ch=4 n=57 v=127
22764 Off ch=10 n=82 v=60
22764 Off ch=10 n=42 v=74
22806 Off ch=2 n=37 v=127
22839 Off ch=4 n=57 v=127
22848 On ch=2 n=35 v=127
22848 On ch=10 n=40 v=113
22848 On ch=10 n=42 v=46
22848 On ch=10 n=82 v=64
22860 Off ch=10 n=82 v=64
22860 Off ch=10 n=42 v=46
22860 Off ch=10 n=40 v=113
22864 On ch=4 n=56 v=127
22913 Off ch=2 n=35 v=127
22939 Off ch=4 n=56 v=127
22944 On ch=2 n=37 v=127
22944 On ch=10 n=42 v=79
22944 On ch=10 n=82 v=64
22956 Off ch=10 n=82 v=64
22956 Off ch=10 n=42 v=79
22965 On ch=4 n=54 v=127
22995 Off ch=2 n=37 v=127
23040 On ch=10 n=36 v=105
23040 On ch=10 n=42 v=42
23040 On ch=2 n=47 v=127
23040 On ch=10 n=82 v=66
23040 Off ch=4 n=54 v=127
23040 On ch=3 n=57 v=96
23040 On ch=3 n=62 v=96
23040 On ch=3 n=66 v=96
23052 Off ch=10 n=82 v=66
23052 Off ch=10 n=42 v=42
23052 Off ch=10 n=36 v=105
23088 Off ch=3 n=66 v=96
23088 Off ch=3 n=57 v=96
23088 Off ch=3 n=62 v=96
23088 Off ch=2 n=47 v=127
23136 On ch=10 n=42 v=69
23136 On ch=2 n=42 v=127
23136 On ch=10 n=82 v=64
23148 Off ch=10 n=82 v=64
23148 Off ch=10 n=42 v=69
23171 Off ch=2 n=42 v=127
23232 On ch=10 n=40 v=112
23232 On ch=10 n=42 v=54
23232 On ch=2 n=45 v=127
23232 On ch=10 n=82 v=62
23244 Off ch=10 n=82 v=62
23244 Off ch=10 n=42 v=54
23244 Off ch=10 n=40 v=112
23284 Off ch=2 n=45 v=127
23328 On ch=10 n=42 v=74
23328 On ch=2 n=47 v=127
23328 On ch=3 n=57 v=96
23328 On ch=3 n=62 v=96
23328 On ch=3 n=66 v=96
23328 On ch=10 n=82 v=64
23340 Off ch=10 n=82 v=64
23340 Off ch=10 n=42 v=74
23376 Off ch=3 n=62 v=96
23376 Off ch=3 n=66 v=96
23376 Off ch=3 n=57 v=96
23398 Off ch=2 n=47 v=127
23424 On ch=10 n=36 v=105
23424 On ch=10 n=42 v=57
23424 On ch=10 n=82 v=64
23436 Off ch=10 n=82 v=64
23436 Off ch=10 n=42 v=57
23436 Off ch=10 n=36 v=105
23520 On ch=10 n=42 v=69
23520 On ch=2 n=42 v=127
23520 On ch=10 n=82 v=68
23532 Off ch=10 n=82 v=68
23532 Off ch=10 n=42 v=69
23576 Off ch=2 n=42 v=127
23616 On ch=10 n=40 v=113
23616 On ch=2 n=40 v=127
23616 On ch=10 n=42 v=57
23616 On ch=10 n=82 v=62
23617 On ch=4 n=54 v=127
23628 Off ch=10 n=82 v=62
23628 Off ch=10 n=42 v=57
23628 Off ch=10 n=40 v=113
23660 Off ch=4 n=54 v=127
23669 On ch=4 n=56 v=70
23676 Off ch=2 n=40 v=127
23698 Off ch=4 n=56 v=70
23712 On ch=10 n=42 v=79
23712 On ch=2 n=42 v=127
23712 On ch=10 n=82 v=64
23715 On ch=4 n=54 v=127
23724 Off ch=10 n=82 v=64
23724 Off ch=10 n=42 v=79
23764 Off ch=2 n=42 v=127
23808 On ch=10 n=36 v=105
23808 On ch=10 n=42 v=54
23808 On ch=2 n=47 v=127
23808 On ch=3 n=57 v=96
23808 On ch=3 n=62 v=96
23808 On ch=3 n=66 v=96
23808 On ch=10 n=82 v=62
23820 Off ch=10 n=82 v=62
23820 Off ch=10 n=42 v=54
23820 Off ch=10 n=36 v=105
23828 Off ch=4 n=54 v=127
23856 Off ch=3 n=66 v=96
23856 Off ch=3 n=62 v=96
23856 Off ch=3 n=57 v=96
23857 Off ch=2 n=47 v=127
23904 On ch=10 n=42 v=69
23904 On ch=2 n=42 v=127
23904 On ch=10 n=82 v=55
23916 Off ch=10 n=82 v=55
23916 Off ch=10 n=42 v=69
23954 Off ch=2 n=42 v=127
24000 On ch=10 n=40 v=113
24000 On ch=10 n=42 v=49
24000 On ch=10 n=82 v=55
24000 Par ch=3 c=11 v=127
24000 On ch=2 n=45 v=127
24005 On ch=4 n=54 v=127
24012 Off ch=10 n=82 v=55
24012 Off ch=10 n=42 v=49
24012 Off ch=10 n=40 v=113
24043 Off ch=4 n=54 v=127
24048 Par ch=3 c=11 v=81
24057 Off ch=2 n=45 v=127
24058 On ch=4 n=56 v=116
24079 Off ch=4 n=56 v=116
24096 On ch=10 n=42 v=79
24096 On ch=10 n=82 v=51
24096 Par ch=3 c=11 v=87
24096 On ch=2 n=47 v=127
24096 On ch=3 n=57 v=100
24096 On ch=3 n=62 v=100
24096 On ch=3 n=66 v=100
24104 On ch=4 n=54 v=127
24108 Off ch=10 n=82 v=51
24108 Off ch=10 n=42 v=79
24144 Par ch=3 c=11 v=93
24164 Off ch=2 n=47 v=127
24192 On ch=10 n=36 v=105
24192 On ch=10 n=42 v=46
24192 On ch=10 n=82 v=58
24192 Par ch=3 c=11 v=100
24204 Off ch=10 n=82 v=58
24204 Off ch=10 n=42 v=46
24204 Off ch=10 n=36 v=105
24223 Off ch=4 n=54 v=127
24240 Par ch=3 c=11 v=106
24288 On ch=10 n=42 v=74
24288 On ch=10 n=82 v=47
24288 Par ch=3 c=11 v=112
24288 On ch=2 n=42 v=127
24300 Off ch=10 n=82 v=47
24300 Off ch=10 n=42 v=74
24336 Par ch=3 c=11 v=118
24351 Off ch=2 n=42 v=127
24384 On ch=10 n=40 v=113
24384 On ch=10 n=42 v=46
24384 On ch=10 n=82 v=62
24384 Par ch=3 c=11 v=127
24384 On ch=2 n=40 v=127
24386 On ch=4 n=54 v=127
24396 Off ch=10 n=82 v=62
24396 Off ch=10 n=42 v=46
24396 Off ch=10 n=40 v=113
24419 Off ch=4 n=54 v=127
24440 On ch=4 n=56 v=90
24444 Off ch=2 n=40 v=127
24468 Off ch=4 n=56 v=90
24480 On ch=2 n=37 v=127
24480 On ch=10 n=42 v=79
24480 On ch=10 n=82 v=58
24485 On ch=4 n=54 v=127
24492 Off ch=10 n=82 v=58
24492 Off ch=10 n=42 v=79
24528 Off ch=3 n=66 v=100
24528 Off ch=3 n=62 v=100
24528 Off ch=3 n=57 v=100
24543 Off ch=2 n=37 v=127
24576 On ch=10 n=36 v=105
24576 On ch=10 n=42 v=42
24576 On ch=2 n=42 v=127
24576 On ch=3 n=57 v=96
24576 On ch=3 n=61 v=96
24576 On ch=3 n=66 v=96
24576 On ch=10 n=82 v=56
24588 Off ch=10 n=82 v=56
24588 Off ch=10 n=42 v=42
24588 Off ch=10 n=36 v=105
24590 Off ch=4 n=54 v=127
24624 Off ch=3 n=57 v=96
24624 Off ch=3 n=61 v=96
24624 Off ch=3 n=66 v=96
24626 Off ch=2 n=42 v=127
24672 On ch=2 n=37 v=127
24672 On ch=10 n=42 v=69
24672 On ch=10 n=82 v=46
24684 Off ch=10 n=82 v=46
24684 Off ch=10 n=42 v=69
24724 Off ch=2 n=37 v=127
24768 On ch=10 n=40 v=112
24768 On ch=2 n=40 v=127
24768 On ch=10 n=42 v=54
24768 On ch=10 n=82 v=64
24780 Off ch=10 n=82 v=64
24780 Off ch=10 n=42 v=54
24780 Off ch=10 n=40 v=112
24823 Off ch=2 n=40 v=127
24864 On ch=10 n=42 v=74
24864 On ch=2 n=42 v=127
24864 On ch=3 n=59 v=96
24864 On ch=3 n=63 v=96
24864 On ch=3 n=68 v=96
24864 On ch=10 n=82 v=53
24876 Off ch=10 n=82 v=53
24876 Off ch=10 n=42 v=74
24912 Off ch=3 n=68 v=96
24912 Off ch=3 n=63 v=96
24912 Off ch=3 n=59 v=96
24915 Off ch=2 n=42 v=127
24960 On ch=10 n=36 v=105
24960 On ch=2 n=40 v=127
24960 On ch=10 n=42 v=57
24960 On ch=10 n=82 v=62
24972 Off ch=10 n=82 v=62
24972 Off ch=10 n=42 v=57
24972 Off ch=10 n=36 v=105
25016 Off ch=2 n=40 v=127
25056 On ch=2 n=37 v=127
25056 On ch=10 n=42 v=69
25056 On ch=10 n=82 v=60
25068 Off ch=10 n=82 v=60
25068 Off ch=10 n=42 v=69
25107 Off ch=2 n=37 v=127
25152 On ch=2 n=35 v=127
25152 On ch=10 n=40 v=113
25152 On ch=10 n=42 v=57
25152 On ch=10 n=82 v=68
25164 Off ch=10 n=82 v=68
25164 Off ch=10 n=42 v=57
25164 Off ch=10 n=40 v=113
25213 Off ch=2 n=35 v=127
25248 On ch=2 n=37 v=127
25248 On ch=10 n=42 v=79
25248 On ch=10 n=82 v=50
25260 Off ch=10 n=82 v=50
25260 Off ch=10 n=42 v=79
25302 Off ch=2 n=37 v=127
25344 On ch=10 n=36 v=105
25344 On ch=10 n=42 v=54
25344 On ch=2 n=42 v=127
25344 On ch=3 n=61 v=96
25344 On ch=3 n=64 v=96
25344 On ch=3 n=69 v=96
25344 On ch=10 n=82 v=68
25356 Off ch=10 n=82 v=68
25356 Off ch=10 n=42 v=54
25356 Off ch=10 n=36 v=105
25391 Off ch=2 n=42 v=127
25392 Off ch=3 n=69 v=96
25392 Off ch=3 n=64 v=96
25392 Off ch=3 n=61 v=96
25440 On ch=2 n=37 v=127
25440 On ch=10 n=42 v=69
25440 On ch=10 n=82 v=58
25452 Off ch=10 n=82 v=58
25452 Off ch=10 n=42 v=69
25488 Off ch=2 n=37 v=127
25536 On ch=10 n=40 v=113
25536 On ch=2 n=40 v=127
25536 On ch=10 n=42 v=49
25536 On ch=10 n=82 v=66
25548 Off ch=10 n=82 v=66
25548 Off ch=10 n=42 v=49
25548 Off ch=10 n=40 v=113
25589 Off ch=2 n=40 v=127
25632 On ch=10 n=42 v=79
25632 On ch=2 n=42 v=127
25632 On ch=3 n=59 v=96
25632 On ch=3 n=63 v=96
25632 On ch=3 n=68 v=96
25632 On ch=10 n=82 v=60
25644 Off ch=10 n=82 v=60
25644 Off ch=10 n=42 v=79
25678 Off ch=2 n=42 v=127
25680 Off ch=3 n=68 v=96
25680 Off ch=3 n=63 v=96
25680 Off ch=3 n=59 v=96
25728 On ch=10 n=36 v=105
25728 On ch=2 n=40 v=127
25728 On ch=10 n=42 v=46
25728 On ch=10 n=82 v=56
25740 Off ch=10 n=82 v=56
25740 Off ch=10 n=42 v=46
25740 Off ch=10 n=36 v=105
25787 Off ch=2 n=40 v=127
25824 On ch=2 n=37 v=127
25824 On ch=10 n=42 v=74
25824 On ch=10 n=82 v=60
25836 Off ch=10 n=82 v=60
25836 Off ch=10 n=42 v=74
25878 Off ch=2 n=37 v=127
25920 On ch=2 n=35 v=127
25920 On ch=10 n=40 v=113
25920 On ch=10 n=42 v=46
25920 On ch=10 n=82 v=64
25932 Off ch=10 n=82 v=64
25932 Off ch=10 n=42 v=46
25932 Off ch=10 n=40 v=113
25985 Off ch=2 n=35 v=127
26016 On ch=2 n=37 v=127
26016 On ch=10 n=40 v=117
26016 On ch=10 n=46 v=94
26016 On ch=10 n=82 v=64
26028 Off ch=10 n=82 v=64
26028 Off ch=10 n=46 v=94
26028 Off ch=10 n=40 v=117
26055 Off ch=2 n=37 v=127
26064 On ch=10 n=40 v=121
26071 Par ch=2 c=11 v=127
26075 Par ch=2 c=99 v=1
26076 Off ch=10 n=40 v=121
26078 Par ch=2 c=98 v=33
26083 Par ch=2 c=6 v=64
26112 On ch=10 n=36 v=105
26112 On ch=2 n=38 v=127
26112 On ch=10 n=42 v=42
26112 On ch=1 n=50 v=89
26112 On ch=1 n=57 v=91
26112 On ch=1 n=62 v=81
26112 On ch=4 n=66 v=118
26112 On ch=10 n=82 v=66
26124 Off ch=10 n=82 v=66
26124 Off ch=10 n=42 v=42
26124 Off ch=10 n=36 v=105
26160 PrCh ch=11 p=63
26196 Off ch=4 n=66 v=118
26206 On ch=4 n=64 v=111
26208 On ch=10 n=42 v=69
26208 On ch=10 n=82 v=64
26220 Off ch=10 n=82 v=64
26220 Off ch=10 n=42 v=69
26238 Off ch=4 n=64 v=111
26252 On ch=4 n=66 v=127
26256 Par ch=11 c=10 v=127
26304 On ch=10 n=40 v=112
26304 On ch=10 n=42 v=54
26304 On ch=10 n=82 v=62
26316 Off ch=10 n=82 v=62
26316 Off ch=10 n=42 v=54
26316 Off ch=10 n=40 v=112
26338 Off ch=4 n=66 v=127
26352 Par ch=11 c=7 v=58
26352 On ch=4 n=64 v=64
26388 Off ch=4 n=64 v=64
26400 On ch=10 n=42 v=74
26400 On ch=10 n=82 v=64
26405 On ch=4 n=66 v=127
26412 Off ch=10 n=82 v=64
26412 Off ch=10 n=42 v=74
26418 Off ch=2 n=38 v=127
26448 On ch=2 n=38 v=127
26491 Off ch=2 n=38 v=127
26496 On ch=10 n=36 v=105
26496 On ch=2 n=38 v=127
26496 On ch=10 n=42 v=57
26496 On ch=10 n=82 v=64
26508 Off ch=10 n=82 v=64
26508 Off ch=10 n=42 v=57
26508 Off ch=10 n=36 v=105
26566 Off ch=4 n=66 v=127
26585 On ch=4 n=69 v=127
26592 On ch=10 n=42 v=69
26592 On ch=10 n=82 v=68
26592 Off ch=1 n=50 v=89
26592 On ch=1 n=52 v=97
26604 Off ch=10 n=82 v=68
26604 Off ch=10 n=42 v=69
26688 On ch=10 n=40 v=113
26688 On ch=10 n=42 v=57
26688 On ch=10 n=82 v=62
26700 Off ch=10 n=82 v=62
26700 Off ch=10 n=42 v=57
26700 Off ch=10 n=40 v=113
26736 On ch=1 n=50 v=97
26736 Off ch=1 n=52 v=97
26747 Off ch=2 n=38 v=127
26762 Off ch=4 n=69 v=127
26784 On ch=2 n=38 v=127
26784 On ch=10 n=42 v=79
26784 On ch=10 n=82 v=64
26786 On ch=4 n=66 v=127
26796 Off ch=10 n=82 v=64
26796 Off ch=10 n=42 v=79
26839 Pb ch=2 v=11520
26858 Pb ch=2 v=12160
26867 Pb ch=2 v=13440
26868 Off ch=4 n=66 v=127
26868 Off ch=1 n=62 v=81
26872 Off ch=1 n=57 v=91
26880 On ch=10 n=36 v=105
26880 On ch=10 n=42 v=54
26880 On ch=2 n=42 v=127
26880 On ch=1 n=49 v=86
26880 On ch=4 n=69 v=127
26880 On ch=10 n=82 v=62
26880 Off ch=1 n=50 v=97
26880 On ch=1 n=54 v=97
26883 Off ch=2 n=38 v=127
26891 Pb ch=2 v=8192
26892 Off ch=10 n=82 v=62
26892 Off ch=10 n=42 v=54
26892 Off ch=10 n=36 v=105
26963 Off ch=4 n=69 v=127
26972 On ch=4 n=66 v=127
26976 On ch=10 n=42 v=69
26976 On ch=10 n=82 v=55
26988 Off ch=10 n=82 v=55
26988 Off ch=10 n=42 v=69
27010 Off ch=4 n=66 v=127
27021 On ch=4 n=66 v=127
27072 On ch=10 n=40 v=113
27072 On ch=10 n=42 v=49
27072 On ch=10 n=82 v=55
27084 Off ch=10 n=82 v=55
27084 Off ch=10 n=42 v=49
27084 Off ch=10 n=40 v=113
27100 Off ch=4 n=66 v=127
27116 On ch=4 n=64 v=127
27149 Off ch=4 n=64 v=127
27162 On ch=4 n=66 v=127
27164 On ch=11 n=66 v=127
27168 On ch=10 n=42 v=79
27168 On ch=10 n=82 v=51
27173 Off ch=2 n=42 v=127
27180 Off ch=10 n=82 v=51
27180 Off ch=10 n=42 v=79
27191 Off ch=11 n=66 v=127
27216 On ch=2 n=30 v=127
27240 Off ch=4 n=66 v=127
27256 Off ch=2 n=30 v=127
27262 On ch=11 n=69 v=127
27264 On ch=2 n=30 v=127
27264 On ch=10 n=36 v=105
27264 On ch=10 n=42 v=46
27264 On ch=10 n=82 v=58
27276 Off ch=10 n=82 v=58
27276 Off ch=10 n=42 v=46
27276 Off ch=10 n=36 v=105
27349 Off ch=11 n=69 v=127
27360 On ch=10 n=42 v=74
27360 On ch=10 n=82 v=47
27367 On ch=11 n=66 v=99
27372 Off ch=10 n=82 v=47
27372 Off ch=10 n=42 v=74
27394 Off ch=11 n=66 v=99
27456 On ch=10 n=40 v=113
27456 On ch=10 n=42 v=46
27456 On ch=10 n=52 v=84
27456 On ch=10 n=82 v=62
27457 On ch=11 n=76 v=127
27467 Off ch=2 n=30 v=127
27468 Off ch=10 n=82 v=62
27468 Off ch=10 n=52 v=84
27468 Off ch=10 n=42 v=46
27468 Off ch=10 n=40 v=113
27527 Off ch=11 n=76 v=127
27552 On ch=2 n=35 v=127
27552 On ch=10 n=46 v=98
27552 On ch=10 n=82 v=58
27555 On ch=11 n=73 v=127
27557 On ch=4 n=61 v=126
27564 Off ch=10 n=82 v=58
27564 Off ch=10 n=46 v=98
27599 Off ch=4 n=61 v=126
27603 On ch=4 n=66 v=127
27624 Off ch=11 n=73 v=127
27640 Off ch=2 n=35 v=127
27644 Off ch=4 n=66 v=127
27648 On ch=10 n=36 v=105
27648 On ch=2 n=38 v=127
27648 On ch=10 n=42 v=42
27648 On ch=10 n=82 v=56
27648 Off ch=1 n=49 v=86
27648 On ch=1 n=50 v=85
27648 Off ch=1 n=54 v=97
27648 On ch=1 n=57 v=76
27648 On ch=1 n=62 v=84
27653 On ch=4 n=64 v=127
27660 Off ch=10 n=82 v=56
27660 Off ch=10 n=42 v=42
27660 Off ch=10 n=36 v=105
27685 Off ch=4 n=64 v=127
27702 On ch=4 n=66 v=127
27734 Off ch=4 n=66 v=127
27744 On ch=10 n=42 v=69
27744 On ch=10 n=82 v=46
27748 On ch=4 n=66 v=127
27756 Off ch=10 n=82 v=46
27756 Off ch=10 n=42 v=69
27840 On ch=10 n=40 v=112
27840 On ch=10 n=42 v=54
27840 On ch=10 n=82 v=64
27852 Off ch=10 n=82 v=64
27852 Off ch=10 n=42 v=54
27852 Off ch=10 n=40 v=112
27933 Off ch=4 n=66 v=127
27936 On ch=10 n=42 v=74
27936 On ch=10 n=82 v=53
27938 Off ch=2 n=38 v=127
27945 On ch=4 n=66 v=127
27948 Off ch=10 n=82 v=53
27948 Off ch=10 n=42 v=74
27980 Off ch=4 n=66 v=127
27984 On ch=2 n=38 v=127
27997 On ch=4 n=64 v=127
28027 Off ch=4 n=64 v=127
28032 On ch=10 n=36 v=105
28032 On ch=10 n=42 v=57
28032 On ch=10 n=82 v=62
28032 Off ch=2 n=38 v=127
28032 On ch=2 n=38 v=127
28044 Off ch=10 n=82 v=62
28044 Off ch=10 n=42 v=57
28044 Off ch=10 n=36 v=105
28048 On ch=4 n=66 v=127
28112 Off ch=1 n=50 v=85
28128 On ch=10 n=42 v=69
28128 On ch=1 n=52 v=97
28128 On ch=10 n=82 v=60
28129 Off ch=4 n=66 v=127
28140 Off ch=10 n=82 v=60
28140 Off ch=10 n=42 v=69
28153 On ch=4 n=68 v=127
28224 On ch=10 n=40 v=113
28224 On ch=10 n=42 v=57
28224 On ch=10 n=82 v=68
28236 Off ch=10 n=82 v=68
28236 Off ch=10 n=42 v=57
28236 Off ch=10 n=40 v=113
28272 On ch=1 n=50 v=97
28272 Off ch=1 n=52 v=97
28292 Off ch=2 n=38 v=127
28307 Off ch=4 n=68 v=127
28320 On ch=2 n=38 v=127
28320 On ch=10 n=42 v=79
28320 On ch=10 n=82 v=50
28332 Off ch=10 n=82 v=50
28332 Off ch=10 n=42 v=79
28333 On ch=4 n=66 v=127
28359 Pb ch=2 v=9856
28364 Pb ch=2 v=11776
28371 Pb ch=2 v=14976
28399 Pb ch=2 v=16383
28400 Off ch=1 n=62 v=84
28404 Off ch=1 n=57 v=76
28415 Off ch=2 n=38 v=127
28416 On ch=10 n=36 v=105
28416 On ch=10 n=42 v=54
28416 On ch=2 n=42 v=127
28416 On ch=10 n=82 v=68
28416 Off ch=1 n=50 v=97
28416 On ch=1 n=54 v=90
28416 On ch=1 n=57 v=97
28428 Off ch=10 n=82 v=68
28428 Off ch=10 n=42 v=54
28428 Off ch=10 n=36 v=105
28428 Pb ch=2 v=8192
28476 Off ch=4 n=66 v=127
28512 On ch=10 n=42 v=69
28512 On ch=10 n=82 v=58
28524 Off ch=10 n=82 v=58
28524 Off ch=10 n=42 v=69
28608 On ch=10 n=40 v=113
28608 On ch=10 n=42 v=49
28608 On ch=10 n=82 v=66
28620 Off ch=10 n=82 v=66
28620 Off ch=10 n=42 v=49
28620 Off ch=10 n=40 v=113
28704 On ch=10 n=42 v=79
28704 On ch=10 n=82 v=60
28714 Off ch=2 n=42 v=127
28716 Off ch=10 n=82 v=60
28716 Off ch=10 n=42 v=79
28752 On ch=2 n=30 v=127
28789 Off ch=2 n=30 v=127
28800 On ch=2 n=30 v=127
28800 On ch=10 n=36 v=105
28800 On ch=10 n=42 v=46
28800 On ch=10 n=82 v=56
28812 Off ch=10 n=82 v=56
28812 Off ch=10 n=42 v=46
28812 Off ch=10 n=36 v=105
28896 On ch=10 n=42 v=74
28896 On ch=10 n=82 v=60
28908 Off ch=10 n=82 v=60
28908 Off ch=10 n=42 v=74
28992 On ch=10 n=40 v=113
28992 On ch=10 n=42 v=46
28992 On ch=10 n=52 v=84
28992 On ch=10 n=82 v=64
29004 Off ch=10 n=82 v=64
29004 Off ch=10 n=52 v=84
29004 Off ch=10 n=42 v=46
29004 Off ch=10 n=40 v=113
29075 Off ch=2 n=30 v=127
29088 On ch=2 n=35 v=127
29088 On ch=10 n=46 v=103
29088 On ch=10 n=82 v=64
29091 On ch=4 n=64 v=127
29100 Off ch=10 n=82 v=64
29100 Off ch=10 n=46 v=103
29172 Off ch=4 n=64 v=127
29179 Off ch=2 n=35 v=127
29184 On ch=10 n=36 v=105
29184 On ch=2 n=38 v=127
29184 On ch=10 n=42 v=42
29184 On ch=1 n=50 v=85
29184 On ch=10 n=82 v=66
29184 Off ch=1 n=54 v=90
29184 Off ch=1 n=57 v=97
29184 On ch=1 n=57 v=82
29184 On ch=1 n=62 v=83
29191 On ch=4 n=66 v=127
29196 Off ch=10 n=82 v=66
29196 Off ch=10 n=42 v=42
29196 Off ch=10 n=36 v=105
29265 Off ch=4 n=66 v=127
29280 On ch=10 n=42 v=69
29280 On ch=10 n=82 v=64
29284 On ch=4 n=64 v=127
29292 Off ch=10 n=82 v=64
29292 Off ch=10 n=42 v=69
29312 Off ch=4 n=64 v=127
29335 On ch=4 n=66 v=127
29376 On ch=10 n=40 v=112
29376 On ch=10 n=42 v=54
29376 On ch=10 n=82 v=62
29388 Off ch=10 n=82 v=62
29388 Off ch=10 n=42 v=54
29388 Off ch=10 n=40 v=112
29415 Off ch=4 n=66 v=127
29435 On ch=4 n=64 v=127
29469 Off ch=2 n=38 v=127
29471 Off ch=4 n=64 v=127
29472 On ch=10 n=42 v=74
29472 On ch=10 n=82 v=64
29484 Off ch=10 n=82 v=64
29484 Off ch=10 n=42 v=74
29484 On ch=4 n=66 v=127
29520 On ch=2 n=38 v=127
29558 Off ch=2 n=38 v=127
29568 On ch=10 n=36 v=105
29568 On ch=2 n=38 v=127
29568 On ch=10 n=42 v=57
29568 On ch=10 n=82 v=64
29580 Off ch=10 n=82 v=64
29580 Off ch=10 n=42 v=57
29580 Off ch=10 n=36 v=105
29584 Off ch=4 n=66 v=127
29597 On ch=4 n=66 v=127
29616 Off ch=1 n=50 v=85
29660 Off ch=4 n=66 v=127
29664 On ch=10 n=42 v=69
29664 On ch=1 n=52 v=97
29664 On ch=10 n=82 v=68
29676 Off ch=10 n=82 v=68
29676 Off ch=10 n=42 v=69
29760 On ch=10 n=40 v=113
29760 On ch=10 n=42 v=57
29760 On ch=10 n=82 v=62
29772 Off ch=10 n=82 v=62
29772 Off ch=10 n=42 v=57
29772 Off ch=10 n=40 v=113
29800 Off ch=2 n=38 v=127
29800 Off ch=1 n=52 v=97
29808 On ch=1 n=50 v=97
29850 On ch=4 n=66 v=127
29856 On ch=2 n=38 v=127
29856 On ch=10 n=42 v=79
29856 On ch=10 n=82 v=64
29868 Off ch=10 n=82 v=64
29868 Off ch=10 n=42 v=79
29876 Off ch=4 n=66 v=127
29896 On ch=4 n=66 v=127
29904 Pb ch=2 v=12032
29911 Pb ch=2 v=13696
29927 Pb ch=2 v=16256
29936 Off ch=1 n=62 v=83
29937 Off ch=4 n=66 v=127
29940 Off ch=1 n=57 v=82
29948 On ch=4 n=69 v=127
29949 Off ch=2 n=38 v=127
29952 On ch=10 n=36 v=105
29952 On ch=10 n=42 v=54
29952 On ch=2 n=42 v=127
29952 On ch=1 n=49 v=87
29952 On ch=10 n=82 v=62
29952 Off ch=1 n=50 v=97
29952 On ch=1 n=54 v=93
29954 Pb ch=2 v=8192
29964 Off ch=10 n=82 v=62
29964 Off ch=10 n=42 v=54
29964 Off ch=10 n=36 v=105
30039 Off ch=4 n=69 v=127
30048 On ch=10 n=42 v=69
30048 On ch=10 n=82 v=55
30049 On ch=4 n=66 v=127
30060 Off ch=10 n=82 v=55
30060 Off ch=10 n=42 v=69
30090 Off ch=4 n=66 v=127
30102 On ch=4 n=66 v=127
30144 On ch=10 n=40 v=113
30144 On ch=10 n=42 v=49
30144 On ch=10 n=82 v=55
30156 Off ch=10 n=82 v=55
30156 Off ch=10 n=42 v=49
30156 Off ch=10 n=40 v=113
30190 Off ch=4 n=66 v=127
30209 On ch=4 n=64 v=127
30236 On ch=11 n=66 v=127
30240 On ch=10 n=42 v=79
30240 On ch=10 n=82 v=51
30245 Off ch=4 n=64 v=127
30252 Off ch=10 n=82 v=51
30252 Off ch=10 n=42 v=79
30252 Off ch=2 n=42 v=127
30259 On ch=4 n=66 v=127
30263 Off ch=11 n=66 v=127
30288 On ch=2 n=30 v=127
30330 Off ch=2 n=30 v=127
30334 On ch=11 n=69 v=127
30336 On ch=2 n=30 v=127
30336 On ch=10 n=36 v=105
30336 On ch=10 n=42 v=46
30336 On ch=10 n=82 v=58
30348 Off ch=10 n=82 v=58
30348 Off ch=10 n=42 v=46
30348 Off ch=10 n=36 v=105
30363 Off ch=4 n=66 v=127
30421 Off ch=11 n=69 v=127
30432 On ch=10 n=42 v=74
30432 On ch=10 n=82 v=47
30432 Off ch=1 n=49 v=87
30432 On ch=1 n=49 v=78
30432 Off ch=1 n=54 v=93
30432 On ch=1 n=54 v=82
30439 On ch=11 n=66 v=99
30444 Off ch=10 n=82 v=47
30444 Off ch=10 n=42 v=74
30466 Off ch=11 n=66 v=99
30528 On ch=10 n=40 v=113
30528 On ch=10 n=42 v=46
30528 On ch=10 n=52 v=84
30528 On ch=10 n=82 v=62
30529 On ch=11 n=76 v=127
30540 Off ch=10 n=82 v=62
30540 Off ch=10 n=52 v=84
30540 Off ch=10 n=42 v=46
30540 Off ch=10 n=40 v=113
30576 Off ch=2 n=30 v=127
30599 Off ch=11 n=76 v=127
30624 On ch=2 n=35 v=127
30624 On ch=10 n=46 v=101
30624 On ch=10 n=82 v=58
30626 On ch=4 n=61 v=127
30627 On ch=11 n=73 v=127
30636 Off ch=10 n=82 v=58
30636 Off ch=10 n=46 v=101
30661 Off ch=4 n=61 v=127
30676 On ch=4 n=66 v=127
30689 Pb ch=2 v=9984
30697 Pb ch=2 v=11648
30700 Off ch=11 n=73 v=127
30704 Pb ch=2 v=13824
30709 Off ch=4 n=66 v=127
30709 Pb ch=2 v=15104
30717 Off ch=2 n=35 v=127
30720 On ch=10 n=36 v=105
30720 On ch=2 n=38 v=127
30720 On ch=10 n=42 v=36
30720 On ch=7 n=74 v=78
30720 On ch=7 n=78 v=78
30720 On ch=7 n=81 v=78
30720 On ch=10 n=82 v=56
30720 Off ch=1 n=54 v=82
30720 Off ch=1 n=49 v=78
30720 On ch=1 n=50 v=88
30720 On ch=1 n=57 v=82
30720 On ch=1 n=62 v=88
30722 On ch=4 n=62 v=127
30727 Pb ch=2 v=8192
30732 Off ch=10 n=82 v=56
30732 Off ch=10 n=42 v=36
30732 Off ch=10 n=36 v=105
30768 Par ch=11 c=10 v=64
30803 Off ch=4 n=62 v=127
30816 On ch=10 n=42 v=34
30816 On ch=10 n=82 v=46
30820 On ch=4 n=62 v=127
30828 Off ch=10 n=82 v=46
30828 Off ch=10 n=42 v=34
30848 Off ch=4 n=62 v=127
30863 On ch=4 n=62 v=127
30905 Off ch=4 n=62 v=127
30912 On ch=10 n=40 v=112
30912 On ch=10 n=42 v=59
30912 On ch=10 n=82 v=64
30915 On ch=4 n=62 v=127
30924 Off ch=10 n=82 v=64
30924 Off ch=10 n=42 v=59
30924 Off ch=10 n=40 v=112
30963 On ch=4 n=64 v=127
30964 Off ch=4 n=62 v=127
30999 Off ch=2 n=38 v=127
31008 On ch=10 n=46 v=89
31008 On ch=10 n=82 v=53
31020 Off ch=10 n=82 v=53
31020 Off ch=10 n=46 v=89
31056 On ch=2 n=38 v=127
31102 Off ch=4 n=64 v=127
31104 On ch=10 n=36 v=105
31104 On ch=10 n=42 v=62
31104 On ch=10 n=82 v=62
31104 Off ch=2 n=38 v=127
31104 On ch=2 n=38 v=127
31116 Off ch=10 n=82 v=62
31116 Off ch=10 n=42 v=62
31116 Off ch=10 n=36 v=105
31116 On ch=4 n=66 v=127
31184 Off ch=1 n=50 v=88
31200 On ch=10 n=42 v=49
31200 On ch=1 n=52 v=97
31200 On ch=10 n=82 v=60
31212 Off ch=10 n=82 v=60
31212 Off ch=10 n=42 v=49
31259 Off ch=2 n=38 v=127
31296 On ch=2 n=38 v=127
31296 On ch=10 n=40 v=113
31296 On ch=10 n=42 v=59
31296 On ch=10 n=82 v=68
31308 Off ch=10 n=82 v=68
31308 Off ch=10 n=42 v=59
31308 Off ch=10 n=40 v=113
31319 Off ch=4 n=66 v=127
31332 Off ch=1 n=52 v=97
31344 On ch=1 n=50 v=97
31386 Off ch=2 n=38 v=127
31389 On ch=4 n=66 v=127
31392 On ch=2 n=33 v=127
31392 On ch=10 n=46 v=99
31392 On ch=10 n=82 v=50
31404 Off ch=10 n=82 v=50
31404 Off ch=10 n=46 v=99
31472 Off ch=1 n=57 v=82
31472 Off ch=1 n=62 v=88
31474 Off ch=4 n=66 v=127
31476 Off ch=2 n=33 v=127
31483 Off ch=1 n=50 v=97
31488 On ch=10 n=36 v=105
31488 On ch=2 n=37 v=127
31488 On ch=10 n=42 v=62
31488 On ch=1 n=49 v=92
31488 On ch=1 n=56 v=97
31488 On ch=1 n=59 v=97
31488 On ch=10 n=82 v=68
31488 Off ch=7 n=81 v=78
31488 On ch=7 n=83 v=79
31489 On ch=4 n=65 v=127
31500 Off ch=10 n=82 v=68
31500 Off ch=10 n=42 v=62
31500 Off ch=10 n=36 v=105
31545 Off ch=2 n=37 v=127
31574 Off ch=4 n=65 v=127
31584 On ch=2 n=37 v=123
31584 On ch=10 n=42 v=47
31584 On ch=10 n=82 v=58
31589 On ch=4 n=65 v=127
31596 Off ch=10 n=82 v=58
31596 Off ch=10 n=42 v=47
31622 Off ch=4 n=65 v=127
31636 On ch=4 n=65 v=127
31671 Off ch=4 n=65 v=127
31676 Off ch=2 n=37 v=123
31680 On ch=2 n=37 v=127
31680 On ch=10 n=40 v=113
31680 On ch=10 n=42 v=59
31680 On ch=10 n=82 v=66
31687 On ch=4 n=65 v=127
31692 Off ch=10 n=82 v=66
31692 Off ch=10 n=42 v=59
31692 Off ch=10 n=40 v=113
31721 Off ch=4 n=65 v=127
31737 On ch=4 n=66 v=127
31751 Off ch=1 n=49 v=92
31752 Off ch=1 n=56 v=97
31752 Off ch=1 n=59 v=97
31753 Off ch=2 n=37 v=127
31776 On ch=2 n=37 v=127
31776 On ch=10 n=46 v=94
31776 On ch=1 n=49 v=68
31776 On ch=1 n=56 v=95
31776 On ch=1 n=59 v=64
31776 On ch=10 n=82 v=60
31788 Off ch=10 n=82 v=60
31788 Off ch=10 n=46 v=94
31835 Off ch=2 n=37 v=127
31872 On ch=10 n=36 v=105
31872 On ch=2 n=37 v=127
31872 On ch=10 n=42 v=62
31872 On ch=10 n=82 v=56
31872 Off ch=7 n=83 v=79
31872 Off ch=7 n=74 v=78
31872 On ch=7 n=77 v=78
31872 Off ch=7 n=78 v=78
31872 On ch=7 n=80 v=78
31872 On ch=7 n=85 v=79
31872 Off ch=4 n=66 v=127
31884 Off ch=10 n=82 v=56
31884 Off ch=10 n=42 v=62
31884 Off ch=10 n=36 v=105
31885 On ch=4 n=68 v=127
31944 Off ch=2 n=37 v=127
31962 Off ch=1 n=56 v=95
31962 Off ch=1 n=59 v=64
31968 On ch=2 n=37 v=127
31968 On ch=10 n=42 v=49
31968 On ch=10 n=82 v=60
31968 Off ch=1 n=49 v=68
31968 On ch=1 n=49 v=50
31968 On ch=1 n=56 v=71
31968 On ch=1 n=59 v=55
31980 Off ch=10 n=82 v=60
31980 Off ch=10 n=42 v=49
31990 Off ch=4 n=68 v=127
32041 Off ch=2 n=37 v=127
32055 Off ch=1 n=59 v=55
32057 Off ch=1 n=56 v=71
32057 Off ch=1 n=49 v=50
32064 On ch=2 n=37 v=127
32064 On ch=10 n=40 v=113
32064 On ch=10 n=42 v=56
32064 On ch=1 n=49 v=66
32064 On ch=10 n=52 v=84
32064 On ch=1 n=56 v=90
32064 On ch=1 n=59 v=62
32064 On ch=10 n=82 v=64
32073 On ch=4 n=66 v=127
32076 Off ch=10 n=82 v=64
32076 Off ch=10 n=52 v=84
32076 Off ch=10 n=42 v=56
32076 Off ch=10 n=40 v=113
32080 Par ch=10 c=11 v=127
32114 Par ch=10 c=99 v=24
32116 Off ch=2 n=37 v=127
32127 Off ch=1 n=49 v=66
32131 Off ch=1 n=59 v=62
32133 Off ch=1 n=56 v=90
32137 Par ch=10 c=98 v=39
32143 Off ch=4 n=66 v=127
32156 Par ch=10 c=6 v=70
32160 On ch=2 n=37 v=127
32160 On ch=10 n=46 v=94
32160 On ch=1 n=49 v=74
32160 On ch=1 n=56 v=98
32160 On ch=1 n=59 v=80
32160 On ch=10 n=82 v=64
32166 On ch=4 n=68 v=127
32172 Off ch=10 n=82 v=64
32172 Off ch=10 n=46 v=94
32186 Par ch=10 c=99 v=29
32203 Off ch=2 n=37 v=127
32206 Par ch=10 c=98 v=39
32220 Par ch=2 c=11 v=127
32224 Par ch=2 c=99 v=1
32224 Par ch=2 c=98 v=33
32224 Par ch=2 c=6 v=70
32225 Par ch=10 c=6 v=40
32230 Off ch=1 n=49 v=74
32231 Off ch=1 n=59 v=80
32233 Off ch=4 n=68 v=127
32234 Off ch=1 n=56 v=98
32252 Off ch=7 n=80 v=78
32256 On ch=10 n=36 v=105
32256 On ch=10 n=42 v=42
32256 On ch=2 n=42 v=127
32256 On ch=10 n=57 v=75
32256 On ch=3 n=57 v=73
32256 On ch=7 n=61 v=76
32256 On ch=3 n=61 v=73
32256 On ch=7 n=66 v=76
32256 On ch=3 n=66 v=73
32256 On ch=10 n=82 v=66
32256 Off ch=7 n=77 v=78
32256 Off ch=7 n=85 v=79
32268 Off ch=10 n=82 v=66
32268 Off ch=10 n=42 v=42
32268 Off ch=10 n=36 v=105
32306 Off ch=2 n=42 v=127
32307 Off ch=10 n=57 v=75
32352 On ch=2 n=37 v=127
32352 On ch=10 n=42 v=69
32352 On ch=10 n=82 v=64
32364 Off ch=10 n=82 v=64
32364 Off ch=10 n=42 v=69
32404 Off ch=2 n=37 v=127
32448 On ch=10 n=39 v=110
32448 On ch=10 n=40 v=112
32448 On ch=2 n=40 v=127
32448 On ch=10 n=42 v=54
32448 On ch=10 n=82 v=62
32454 On ch=4 n=66 v=127
32460 Off ch=10 n=82 v=62
32460 Off ch=10 n=42 v=54
32460 Off ch=10 n=40 v=112
32460 Off ch=10 n=39 v=110
32496 Off ch=7 n=61 v=76
32496 Off ch=7 n=66 v=76
32496 Off ch=3 n=66 v=73
32496 Off ch=3 n=61 v=73
32496 Off ch=3 n=57 v=73
32503 Off ch=2 n=40 v=127
32511 Off ch=4 n=66 v=127
32536 On ch=4 n=66 v=127
32544 On ch=10 n=42 v=74
32544 On ch=2 n=42 v=127
32544 On ch=3 n=59 v=73
32544 On ch=7 n=63 v=76
32544 On ch=3 n=63 v=73
32544 On ch=7 n=68 v=76
32544 On ch=3 n=68 v=73
32544 On ch=10 n=82 v=64
32556 Off ch=10 n=82 v=64
32556 Off ch=10 n=42 v=74
32595 Off ch=2 n=42 v=127
32623 Off ch=4 n=66 v=127
32640 On ch=10 n=36 v=105
32640 On ch=2 n=40 v=127
32640 On ch=10 n=42 v=57
32640 On ch=10 n=82 v=64
32641 On ch=4 n=64 v=125
32652 Off ch=10 n=82 v=64
32652 Off ch=10 n=42 v=57
32652 Off ch=10 n=36 v=105
32696 Off ch=2 n=40 v=127
32736 On ch=2 n=37 v=127
32736 On ch=10 n=42 v=69
32736 On ch=10 n=82 v=68
32737 Off ch=4 n=64 v=125
32743 On ch=4 n=61 v=127
32748 Off ch=10 n=82 v=68
32748 Off ch=10 n=42 v=69
32787 Off ch=2 n=37 v=127
32832 On ch=2 n=35 v=127
32832 On ch=10 n=39 v=110
32832 On ch=10 n=40 v=113
32832 On ch=10 n=42 v=57
32832 On ch=10 n=82 v=62
32844 Off ch=10 n=82 v=62
32844 Off ch=10 n=42 v=57
32844 Off ch=10 n=40 v=113
32844 Off ch=10 n=39 v=110
32893 Off ch=2 n=35 v=127
32914 Off ch=4 n=61 v=127
32928 On ch=2 n=37 v=127
32928 On ch=10 n=42 v=79
32928 On ch=10 n=82 v=64
32928 Off ch=7 n=68 v=76
32928 Off ch=7 n=63 v=76
32928 Off ch=3 n=68 v=73
32928 Off ch=3 n=59 v=73
32928 Off ch=3 n=63 v=73
32936 On ch=4 n=61 v=127
32940 Off ch=10 n=82 v=64
32940 Off ch=10 n=42 v=79
32982 Off ch=2 n=37 v=127
33009 Off ch=4 n=61 v=127
33024 On ch=10 n=36 v=105
33024 On ch=10 n=42 v=54
33024 On ch=2 n=42 v=127
33024 On ch=3 n=61 v=73
33024 On ch=7 n=64 v=76
33024 On ch=3 n=64 v=73
33024 On ch=7 n=69 v=76
33024 On ch=3 n=69 v=73
33024 On ch=10 n=82 v=62
33036 Off ch=10 n=82 v=62
33036 Off ch=10 n=42 v=54
33036 Off ch=10 n=36 v=105
33036 On ch=4 n=66 v=127
33071 Off ch=2 n=42 v=127
33089 Off ch=4 n=66 v=127
33120 On ch=2 n=37 v=127
33120 On ch=10 n=42 v=69
33120 On ch=10 n=82 v=55
33129 On ch=4 n=66 v=127
33132 Off ch=10 n=82 v=55
33132 Off ch=10 n=42 v=69
33168 Off ch=2 n=37 v=127
33209 Off ch=4 n=66 v=127
33216 On ch=10 n=39 v=110
33216 On ch=10 n=40 v=113
33216 On ch=2 n=40 v=127
33216 On ch=10 n=42 v=49
33216 On ch=10 n=82 v=55
33228 Off ch=10 n=82 v=55
33228 Off ch=10 n=42 v=49
33228 Off ch=10 n=40 v=113
33228 Off ch=10 n=39 v=110
33262 Off ch=7 n=69 v=76
33264 Off ch=7 n=64 v=76
33264 Off ch=3 n=61 v=73
33264 Off ch=3 n=64 v=73
33264 Off ch=3 n=69 v=73
33269 Off ch=2 n=40 v=127
33309 On ch=4 n=64 v=120
33312 On ch=10 n=42 v=79
33312 On ch=2 n=42 v=127
33312 On ch=3 n=59 v=73
33312 On ch=7 n=63 v=76
33312 On ch=3 n=63 v=73
33312 On ch=7 n=68 v=76
33312 On ch=3 n=68 v=73
33312 On ch=10 n=82 v=51
33324 Off ch=10 n=82 v=51
33324 Off ch=10 n=42 v=79
33358 Off ch=2 n=42 v=127
33408 On ch=10 n=36 v=105
33408 On ch=2 n=40 v=127
33408 On ch=10 n=42 v=46
33408 On ch=10 n=82 v=58
33420 Off ch=10 n=82 v=58
33420 Off ch=10 n=42 v=46
33420 Off ch=10 n=36 v=105
33467 Off ch=2 n=40 v=127
33491 Off ch=4 n=64 v=120
33504 On ch=2 n=37 v=127
33504 On ch=10 n=42 v=74
33504 On ch=4 n=61 v=127
33504 On ch=10 n=82 v=47
33516 Off ch=10 n=82 v=47
33516 Off ch=10 n=42 v=74
33552 On ch=10 n=45 v=97
33558 Off ch=2 n=37 v=127
33564 Off ch=10 n=45 v=97
33600 On ch=2 n=35 v=127
33600 On ch=10 n=39 v=110
33600 On ch=10 n=40 v=113
33600 On ch=10 n=42 v=46
33600 On ch=10 n=43 v=103
33600 On ch=10 n=82 v=62
33612 Off ch=10 n=82 v=62
33612 Off ch=10 n=43 v=103
33612 Off ch=10 n=42 v=46
33612 Off ch=10 n=40 v=113
33612 Off ch=10 n=39 v=110
33652 Off ch=7 n=63 v=76
33653 Off ch=7 n=68 v=76
33665 Off ch=2 n=35 v=127
33693 Off ch=4 n=61 v=127
33696 On ch=2 n=37 v=127
33696 On ch=10 n=42 v=79
33696 On ch=10 n=82 v=66
33696 Off ch=3 n=68 v=73
33696 Off ch=3 n=63 v=73
33696 Off ch=3 n=59 v=73
33708 Off ch=10 n=82 v=66
33708 Off ch=10 n=42 v=79
33744 On ch=10 n=82 v=69
33747 Off ch=2 n=37 v=127
33756 Off ch=10 n=82 v=69
33792 On ch=10 n=36 v=105
33792 On ch=10 n=42 v=42
33792 On ch=2 n=42 v=127
33792 On ch=3 n=57 v=73
33792 On ch=7 n=61 v=76
33792 On ch=3 n=61 v=73
33792 On ch=7 n=66 v=76
33792 On ch=3 n=66 v=73
33792 On ch=10 n=82 v=56
33804 Off ch=10 n=82 v=56
33804 Off ch=10 n=42 v=42
33804 Off ch=10 n=36 v=105
33842 Off ch=2 n=42 v=127
33886 On ch=4 n=66 v=127
33888 On ch=2 n=37 v=127
33888 On ch=10 n=42 v=69
33888 On ch=10 n=82 v=46
33900 Off ch=10 n=82 v=46
33900 Off ch=10 n=42 v=69
33940 Off ch=2 n=37 v=127
33969 Off ch=4 n=66 v=127
33984 On ch=10 n=39 v=110
33984 On ch=10 n=40 v=112
33984 On ch=2 n=40 v=127
33984 On ch=10 n=42 v=54
33984 On ch=10 n=82 v=64
33986 On ch=4 n=66 v=127
33996 Off ch=10 n=82 v=64
33996 Off ch=10 n=42 v=54
33996 Off ch=10 n=40 v=112
33996 Off ch=10 n=39 v=110
34030 Off ch=7 n=61 v=76
34032 Off ch=7 n=66 v=76
34032 Off ch=3 n=66 v=73
34032 Off ch=3 n=57 v=73
34032 Off ch=3 n=61 v=73
34039 Off ch=2 n=40 v=127
34069 Off ch=4 n=66 v=127
34080 On ch=10 n=42 v=74
34080 On ch=2 n=42 v=127
34080 On ch=3 n=59 v=73
34080 On ch=7 n=63 v=76
34080 On ch=3 n=63 v=73
34080 On ch=7 n=68 v=76
34080 On ch=3 n=68 v=73
34080 On ch=10 n=82 v=53
34084 On ch=4 n=66 v=127
34092 Off ch=10 n=82 v=53
34092 Off ch=10 n=42 v=74
34131 Off ch=2 n=42 v=127
34164 Off ch=4 n=66 v=127
34176 On ch=10 n=36 v=105
34176 On ch=2 n=40 v=127
34176 On ch=10 n=42 v=57
34176 On ch=10 n=82 v=62
34188 Off ch=10 n=82 v=62
34188 Off ch=10 n=42 v=57
34188 Off ch=10 n=36 v=105
34188 On ch=4 n=64 v=127
34232 Off ch=2 n=40 v=127
34269 Off ch=4 n=64 v=127
34272 On ch=2 n=37 v=127
34272 On ch=10 n=42 v=69
34272 On ch=10 n=82 v=60
34279 On ch=4 n=61 v=127
34284 Off ch=10 n=82 v=60
34284 Off ch=10 n=42 v=69
34323 Off ch=2 n=37 v=127
34352 Off ch=4 n=61 v=127
34368 On ch=2 n=35 v=127
34368 On ch=10 n=39 v=110
34368 On ch=10 n=40 v=113
34368 On ch=10 n=42 v=57
34368 On ch=10 n=82 v=68
34372 On ch=4 n=61 v=127
34373 Off ch=7 n=68 v=76
34378 Off ch=7 n=63 v=76
34380 Off ch=10 n=82 v=68
34380 Off ch=10 n=42 v=57
34380 Off ch=10 n=40 v=113
34380 Off ch=10 n=39 v=110
34429 Off ch=2 n=35 v=127
34464 On ch=2 n=37 v=127
34464 On ch=10 n=42 v=79
34464 On ch=10 n=82 v=50
34464 Off ch=3 n=59 v=73
34464 Off ch=3 n=63 v=73
34464 Off ch=3 n=68 v=73
34471 Off ch=4 n=61 v=127
34476 Off ch=10 n=82 v=50
34476 Off ch=10 n=42 v=79
34518 Off ch=2 n=37 v=127
34560 On ch=10 n=36 v=105
34560 On ch=10 n=42 v=54
34560 On ch=2 n=42 v=127
34560 On ch=3 n=61 v=73
34560 On ch=7 n=64 v=76
34560 On ch=3 n=64 v=73
34560 On ch=4 n=66 v=127
34560 On ch=7 n=69 v=76
34560 On ch=3 n=69 v=73
34560 On ch=10 n=82 v=68
34572 Off ch=10 n=82 v=68
34572 Off ch=10 n=42 v=54
34572 Off ch=10 n=36 v=105
34607 Off ch=2 n=42 v=127
34644 Off ch=4 n=66 v=127
34656 On ch=2 n=37 v=127
34656 On ch=10 n=42 v=69
34656 On ch=10 n=82 v=58
34668 Off ch=10 n=82 v=58
34668 Off ch=10 n=42 v=69
34673 On ch=4 n=69 v=127
34704 Off ch=2 n=37 v=127
34751 Off ch=4 n=69 v=127
34752 On ch=10 n=39 v=110
34752 On ch=10 n=40 v=113
34752 On ch=2 n=40 v=127
34752 On ch=10 n=42 v=49
34752 On ch=10 n=82 v=66
34764 Off ch=10 n=82 v=66
34764 Off ch=10 n=42 v=49
34764 Off ch=10 n=40 v=113
34764 Off ch=10 n=39 v=110
34773 Off ch=7 n=64 v=76
34773 Off ch=7 n=69 v=76
34800 Off ch=3 n=61 v=73
34800 Off ch=3 n=64 v=73
34800 Off ch=3 n=69 v=73
34805 Off ch=2 n=40 v=127
34848 On ch=10 n=42 v=79
34848 On ch=2 n=42 v=127
34848 On ch=3 n=59 v=73
34848 On ch=7 n=63 v=76
34848 On ch=3 n=63 v=73
34848 On ch=7 n=68 v=76
34848 On ch=3 n=68 v=73
34848 On ch=10 n=82 v=60
34851 On ch=4 n=71 v=127
34860 Off ch=10 n=82 v=60
34860 Off ch=10 n=42 v=79
34894 Off ch=2 n=42 v=127
34944 On ch=10 n=36 v=105
34944 On ch=2 n=40 v=127
34944 On ch=10 n=42 v=46
34944 On ch=10 n=82 v=56
34956 Off ch=10 n=82 v=56
34956 Off ch=10 n=42 v=46
34956 Off ch=10 n=36 v=105
35003 Off ch=2 n=40 v=127
35019 Off ch=4 n=71 v=127
35040 On ch=2 n=37 v=127
35040 On ch=10 n=42 v=74
35040 On ch=10 n=82 v=60
35047 On ch=4 n=69 v=127
35052 Off ch=10 n=82 v=60
35052 Off ch=10 n=42 v=74
35094 Off ch=2 n=37 v=127
35123 Off ch=4 n=69 v=127
35127 Off ch=7 n=63 v=76
35129 Off ch=7 n=68 v=76
35136 On ch=2 n=35 v=127
35136 On ch=10 n=39 v=110
35136 On ch=10 n=40 v=113
35136 On ch=10 n=42 v=46
35136 On ch=10 n=82 v=64
35142 On ch=4 n=68 v=127
35148 Off ch=10 n=82 v=64
35148 Off ch=10 n=42 v=46
35148 Off ch=10 n=40 v=113
35148 Off ch=10 n=39 v=110
35201 Off ch=2 n=35 v=127
35215 Off ch=4 n=68 v=127
35232 On ch=2 n=37 v=127
35232 On ch=10 n=42 v=79
35232 On ch=10 n=82 v=64
35234 On ch=4 n=66 v=127
35244 Off ch=10 n=82 v=64
35244 Off ch=10 n=42 v=79
35280 Off ch=3 n=68 v=73
35280 Off ch=3 n=63 v=73
35280 Off ch=3 n=59 v=73
35283 Off ch=2 n=37 v=127
35328 On ch=10 n=36 v=105
35328 On ch=10 n=42 v=42
35328 On ch=2 n=47 v=127
35328 On ch=5 n=54 v=107
35328 On ch=3 n=57 v=73
35328 On ch=3 n=62 v=73
35328 On ch=3 n=66 v=73
35328 On ch=7 n=74 v=76
35328 On ch=7 n=78 v=78
35328 On ch=10 n=82 v=66
35329 On ch=5 n=66 v=127
35340 Off ch=10 n=82 v=66
35340 Off ch=10 n=42 v=42
35340 Off ch=10 n=36 v=105
35363 Off ch=5 n=66 v=127
35363 Off ch=5 n=54 v=107
35376 Off ch=2 n=47 v=127
35384 Off ch=4 n=66 v=127
35421 On ch=5 n=54 v=81
35422 Off ch=5 n=54 v=81
35424 On ch=10 n=42 v=69
35424 On ch=2 n=42 v=127
35424 On ch=10 n=82 v=64
35429 On ch=5 n=66 v=85
35430 Off ch=5 n=66 v=85
35436 Off ch=10 n=82 v=64
35436 Off ch=10 n=42 v=69
35459 Off ch=2 n=42 v=127
35468 On ch=5 n=66 v=85
35469 Off ch=5 n=66 v=85
35472 On ch=5 n=54 v=85
35473 Off ch=5 n=54 v=85
35518 On ch=5 n=54 v=121
35520 On ch=10 n=39 v=110
35520 On ch=10 n=40 v=112
35520 On ch=10 n=42 v=54
35520 On ch=2 n=45 v=127
35520 On ch=10 n=82 v=62
35523 On ch=5 n=66 v=127
35532 Off ch=10 n=82 v=62
35532 Off ch=10 n=42 v=54
35532 Off ch=10 n=40 v=112
35532 Off ch=10 n=39 v=110
35549 Off ch=5 n=54 v=121
35553 Off ch=5 n=66 v=127
35572 Off ch=2 n=45 v=127
35614 On ch=5 n=54 v=85
35615 Off ch=5 n=54 v=85
35616 On ch=10 n=42 v=74
35616 On ch=2 n=47 v=127
35616 On ch=10 n=82 v=64
35621 On ch=5 n=66 v=85
35622 Off ch=5 n=66 v=85
35628 Off ch=10 n=82 v=64
35628 Off ch=10 n=42 v=74
35660 On ch=5 n=66 v=85
35661 Off ch=5 n=66 v=85
35666 On ch=5 n=54 v=85
35667 Off ch=5 n=54 v=85
35686 Off ch=2 n=47 v=127
35708 On ch=5 n=54 v=107
35712 On ch=10 n=36 v=105
35712 On ch=10 n=42 v=57
35712 On ch=5 n=66 v=127
35712 On ch=10 n=82 v=64
35724 Off ch=10 n=82 v=64
35724 Off ch=10 n=42 v=57
35724 Off ch=10 n=36 v=105
35740 Off ch=5 n=54 v=107
35748 Off ch=5 n=66 v=127
35805 On ch=4 n=66 v=127
35807 On ch=5 n=54 v=81
35808 On ch=10 n=42 v=69
35808 On ch=2 n=42 v=127
35808 On ch=10 n=82 v=68
35808 Off ch=5 n=54 v=81
35815 On ch=5 n=66 v=77
35816 Off ch=5 n=66 v=77
35820 Off ch=10 n=82 v=68
35820 Off ch=10 n=42 v=69
35850 On ch=5 n=66 v=77
35851 Off ch=5 n=66 v=77
35856 On ch=5 n=54 v=77
35857 Off ch=5 n=54 v=77
35864 Off ch=2 n=42 v=127
35901 On ch=5 n=54 v=107
35904 On ch=10 n=39 v=110
35904 On ch=10 n=40 v=113
35904 On ch=2 n=40 v=127
35904 On ch=10 n=42 v=57
35904 On ch=10 n=82 v=62
35905 On ch=5 n=66 v=127
35916 Off ch=10 n=82 v=62
35916 Off ch=10 n=42 v=57
35916 Off ch=10 n=40 v=113
35916 Off ch=10 n=39 v=110
35916 Off ch=4 n=66 v=127
35936 Off ch=5 n=54 v=107
35939 Off ch=5 n=66 v=127
35964 Off ch=2 n=40 v=127
35997 On ch=4 n=66 v=127
35998 On ch=5 n=54 v=73
35999 Off ch=5 n=54 v=73
36000 On ch=10 n=42 v=79
36000 On ch=2 n=42 v=127
36000 On ch=5 n=66 v=73
36000 On ch=10 n=82 v=64
36001 Off ch=5 n=66 v=73
36012 Off ch=10 n=82 v=64
36012 Off ch=10 n=42 v=79
36045 On ch=5 n=66 v=73
36046 Off ch=5 n=66 v=73
36051 On ch=5 n=54 v=73
36052 Off ch=5 n=54 v=73
36052 Off ch=2 n=42 v=127
36075 Off ch=4 n=66 v=127
36093 On ch=5 n=54 v=107
36096 On ch=10 n=36 v=105
36096 On ch=10 n=42 v=54
36096 On ch=2 n=47 v=127
36096 On ch=10 n=82 v=62
36097 On ch=5 n=66 v=127
36097 On ch=4 n=73 v=127
36108 Off ch=10 n=82 v=62
36108 Off ch=10 n=42 v=54
36108 Off ch=10 n=36 v=105
36128 Off ch=5 n=54 v=107
36131 Off ch=5 n=66 v=127
36145 Off ch=2 n=47 v=127
36170 Off ch=4 n=73 v=127
36189 On ch=5 n=54 v=73
36190 Off ch=5 n=54 v=73
36192 On ch=10 n=42 v=69
36192 On ch=2 n=42 v=127
36192 On ch=10 n=82 v=55
36194 On ch=4 n=71 v=127
36195 On ch=5 n=66 v=81
36196 Off ch=5 n=66 v=81
36204 Off ch=10 n=82 v=55
36204 Off ch=10 n=42 v=69
36233 On ch=5 n=66 v=81
36234 Off ch=5 n=66 v=81
36242 On ch=5 n=54 v=77
36242 Off ch=2 n=42 v=127
36243 Off ch=5 n=54 v=77
36282 Off ch=4 n=71 v=127
36286 On ch=5 n=54 v=102
36288 On ch=10 n=39 v=110
36288 On ch=10 n=40 v=113
36288 On ch=10 n=42 v=49
36288 On ch=2 n=45 v=127
36288 On ch=10 n=82 v=55
36294 On ch=5 n=66 v=127
36300 Off ch=10 n=82 v=55
36300 Off ch=10 n=42 v=49
36300 Off ch=10 n=40 v=113
36300 Off ch=10 n=39 v=110
36303 On ch=4 n=71 v=127
36321 Off ch=5 n=54 v=102
36322 Off ch=5 n=66 v=127
36345 Off ch=2 n=45 v=127
36384 On ch=10 n=42 v=79
36384 On ch=2 n=47 v=127
36384 On ch=10 n=82 v=51
36385 On ch=5 n=54 v=77
36386 Off ch=5 n=54 v=77
36390 On ch=5 n=66 v=81
36391 Off ch=5 n=66 v=81
36396 Off ch=10 n=82 v=51
36396 Off ch=10 n=42 v=79
36430 On ch=5 n=66 v=81
36431 Off ch=5 n=66 v=81
36432 Off ch=4 n=71 v=127
36436 On ch=5 n=54 v=81
36437 Off ch=5 n=54 v=81
36452 Off ch=2 n=47 v=127
36477 On ch=5 n=54 v=107
36480 On ch=10 n=36 v=105
36480 On ch=10 n=42 v=46
36480 On ch=10 n=82 v=58
36486 On ch=5 n=66 v=127
36487 On ch=4 n=66 v=127
36492 Off ch=10 n=82 v=58
36492 Off ch=10 n=42 v=46
36492 Off ch=10 n=36 v=105
36507 Off ch=5 n=54 v=107
36518 Off ch=5 n=66 v=127
36556 Off ch=4 n=66 v=127
36572 On ch=5 n=54 v=76
36573 Off ch=5 n=54 v=76
36576 On ch=10 n=42 v=74
36576 On ch=2 n=42 v=127
36576 On ch=10 n=82 v=47
36583 On ch=5 n=66 v=73
36584 Off ch=5 n=66 v=73
36588 Off ch=10 n=82 v=47
36588 Off ch=10 n=42 v=74
36590 On ch=4 n=62 v=127
36620 On ch=5 n=66 v=73
36621 Off ch=5 n=66 v=73
36627 On ch=5 n=54 v=73
36628 Off ch=5 n=54 v=73
36639 Off ch=2 n=42 v=127
36671 On ch=5 n=54 v=107
36672 On ch=10 n=39 v=110
36672 On ch=10 n=40 v=113
36672 On ch=2 n=40 v=127
36672 On ch=10 n=42 v=46
36672 On ch=10 n=82 v=62
36674 On ch=5 n=66 v=127
36684 Off ch=10 n=82 v=62
36684 Off ch=10 n=42 v=46
36684 Off ch=10 n=40 v=113
36684 Off ch=10 n=39 v=110
36698 Off ch=5 n=54 v=107
36703 Off ch=5 n=66 v=127
36732 Off ch=2 n=40 v=127
36756 Off ch=4 n=62 v=127
36764 On ch=5 n=54 v=73
36765 Off ch=5 n=54 v=73
36768 On ch=2 n=37 v=127
36768 On ch=10 n=42 v=79
36768 On ch=10 n=82 v=58
36774 On ch=5 n=66 v=73
36775 Off ch=5 n=66 v=73
36780 Off ch=10 n=82 v=58
36780 Off ch=10 n=42 v=79
36783 On ch=4 n=61 v=127
36815 On ch=5 n=66 v=77
36816 Off ch=5 n=66 v=77
36819 On ch=5 n=54 v=77
36820 Off ch=5 n=54 v=77
36828 Off ch=3 n=57 v=73
36831 Off ch=2 n=37 v=127
36832 Off ch=3 n=66 v=73
36840 Off ch=3 n=62 v=73
36862 On ch=5 n=54 v=107
36864 On ch=10 n=36 v=105
36864 On ch=10 n=42 v=42
36864 On ch=2 n=42 v=127
36864 On ch=3 n=57 v=96
36864 On ch=3 n=61 v=96
36864 On ch=3 n=66 v=96
36864 On ch=10 n=82 v=56
36864 Off ch=7 n=78 v=78
36864 Off ch=7 n=74 v=76
36867 On ch=5 n=66 v=127
36876 Off ch=10 n=82 v=56
36876 Off ch=10 n=42 v=42
36876 Off ch=10 n=36 v=105
36892 Off ch=5 n=54 v=107
36893 Off ch=5 n=66 v=127
36912 Off ch=3 n=61 v=96
36912 Off ch=3 n=66 v=96
36912 Off ch=3 n=57 v=96
36914 Off ch=2 n=42 v=127
36960 On ch=2 n=37 v=127
36960 On ch=10 n=42 v=69
36960 On ch=10 n=82 v=46
36972 Off ch=10 n=82 v=46
36972 Off ch=10 n=42 v=69
37012 Off ch=2 n=37 v=127
37056 On ch=10 n=39 v=110
37056 On ch=10 n=40 v=112
37056 On ch=2 n=40 v=127
37056 On ch=10 n=42 v=54
37056 On ch=10 n=82 v=64
37068 Off ch=10 n=82 v=64
37068 Off ch=10 n=42 v=54
37068 Off ch=10 n=40 v=112
37068 Off ch=10 n=39 v=110
37076 Off ch=4 n=61 v=127
37111 Off ch=2 n=40 v=127
37152 On ch=10 n=42 v=74
37152 On ch=2 n=42 v=127
37152 On ch=3 n=59 v=96
37152 On ch=3 n=63 v=96
37152 On ch=3 n=68 v=96
37152 On ch=10 n=82 v=53
37164 Off ch=10 n=82 v=53
37164 Off ch=10 n=42 v=74
37200 Off ch=3 n=63 v=96
37200 Off ch=3 n=68 v=96
37200 Off ch=3 n=59 v=96
37203 Off ch=2 n=42 v=127
37248 On ch=10 n=36 v=105
37248 On ch=2 n=40 v=127
37248 On ch=10 n=42 v=57
37248 On ch=10 n=82 v=62
37260 Off ch=10 n=82 v=62
37260 Off ch=10 n=42 v=57
37260 Off ch=10 n=36 v=105
37304 Off ch=2 n=40 v=127
37344 On ch=2 n=37 v=127
37344 On ch=10 n=42 v=69
37344 On ch=10 n=82 v=60
37356 Off ch=10 n=82 v=60
37356 Off ch=10 n=42 v=69
37395 Off ch=2 n=37 v=127
37440 On ch=2 n=35 v=127
37440 On ch=10 n=39 v=110
37440 On ch=10 n=40 v=113
37440 On ch=10 n=42 v=57
37440 On ch=10 n=82 v=68
37452 Off ch=10 n=82 v=68
37452 Off ch=10 n=42 v=57
37452 Off ch=10 n=40 v=113
37452 Off ch=10 n=39 v=110
37501 Off ch=2 n=35 v=127
37536 On ch=2 n=37 v=127
37536 On ch=10 n=42 v=79
37536 On ch=10 n=82 v=50
37548 Off ch=10 n=82 v=50
37548 Off ch=10 n=42 v=79
37590 Off ch=2 n=37 v=127
37632 On ch=10 n=36 v=105
37632 On ch=10 n=42 v=54
37632 On ch=2 n=42 v=127
37632 On ch=3 n=61 v=96
37632 On ch=3 n=64 v=96
37632 On ch=3 n=69 v=96
37632 On ch=10 n=82 v=68
37644 Off ch=10 n=82 v=68
37644 Off ch=10 n=42 v=54
37644 Off ch=10 n=36 v=105
37679 Off ch=2 n=42 v=127
37680 Off ch=3 n=69 v=96
37680 Off ch=3 n=64 v=96
37680 Off ch=3 n=61 v=96
37728 On ch=2 n=37 v=127
37728 On ch=10 n=42 v=69
37728 On ch=10 n=82 v=58
37731 On ch=4 n=66 v=127
37740 Off ch=10 n=82 v=58
37740 Off ch=10 n=42 v=69
37776 Off ch=2 n=37 v=127
37802 Off ch=4 n=66 v=127
37821 On ch=4 n=69 v=127
37824 On ch=10 n=39 v=110
37824 On ch=10 n=40 v=113
37824 On ch=2 n=40 v=127
37824 On ch=10 n=42 v=49
37824 On ch=10 n=82 v=66
37836 Off ch=10 n=82 v=66
37836 Off ch=10 n=42 v=49
37836 Off ch=10 n=40 v=113
37836 Off ch=10 n=39 v=110
37877 Off ch=2 n=40 v=127
37907 Off ch=4 n=69 v=127
37920 On ch=10 n=42 v=79
37920 On ch=2 n=42 v=127
37920 On ch=3 n=59 v=96
37920 On ch=3 n=63 v=96
37920 On ch=3 n=68 v=96
37920 On ch=10 n=82 v=60
37925 On ch=4 n=71 v=127
37932 Off ch=10 n=82 v=60
37932 Off ch=10 n=42 v=79
37966 Off ch=2 n=42 v=127
37968 Off ch=3 n=68 v=96
37968 Off ch=3 n=63 v=96
37968 Off ch=3 n=59 v=96
38016 On ch=10 n=36 v=105
38016 On ch=2 n=40 v=127
38016 On ch=10 n=42 v=46
38016 On ch=10 n=82 v=56
38028 Off ch=10 n=82 v=56
38028 Off ch=10 n=42 v=46
38028 Off ch=10 n=36 v=105
38075 Off ch=2 n=40 v=127
38091 Off ch=4 n=71 v=127
38110 On ch=4 n=69 v=127
38112 On ch=2 n=37 v=127
38112 On ch=10 n=42 v=74
38112 On ch=10 n=82 v=60
38124 Off ch=10 n=82 v=60
38124 Off ch=10 n=42 v=74
38166 Off ch=2 n=37 v=127
38186 Off ch=4 n=69 v=127
38208 On ch=2 n=35 v=127
38208 On ch=10 n=39 v=110
38208 On ch=10 n=40 v=113
38208 On ch=10 n=42 v=46
38208 On ch=4 n=68 v=127
38208 On ch=10 n=82 v=64
38220 Off ch=10 n=82 v=64
38220 Off ch=10 n=42 v=46
38220 Off ch=10 n=40 v=113
38220 Off ch=10 n=39 v=110
38273 Off ch=2 n=35 v=127
38286 Off ch=4 n=68 v=127
38304 On ch=2 n=37 v=127
38304 On ch=10 n=42 v=79
38304 On ch=10 n=82 v=64
38305 On ch=5 n=54 v=86
38306 Off ch=5 n=54 v=86
38307 On ch=5 n=66 v=76
38308 Off ch=5 n=66 v=76
38311 On ch=4 n=66 v=127
38316 Off ch=10 n=82 v=64
38316 Off ch=10 n=42 v=79
38353 On ch=5 n=54 v=87
38354 Off ch=5 n=54 v=87
38355 On ch=5 n=66 v=76
38355 Off ch=2 n=37 v=127
38356 Off ch=5 n=66 v=76
38400 On ch=10 n=36 v=105
38400 On ch=10 n=42 v=42
38400 On ch=2 n=47 v=127
38400 On ch=5 n=54 v=107
38400 On ch=3 n=57 v=73
38400 On ch=3 n=62 v=73
38400 On ch=3 n=66 v=73
38400 On ch=7 n=74 v=76
38400 On ch=7 n=78 v=78
38400 On ch=10 n=82 v=66
38401 On ch=5 n=66 v=127
38412 Off ch=10 n=82 v=66
38412 Off ch=10 n=42 v=42
38412 Off ch=10 n=36 v=105
38435 Off ch=5 n=66 v=127
38435 Off ch=5 n=54 v=107
38448 Off ch=2 n=47 v=127
38482 Off ch=4 n=66 v=127
38493 On ch=5 n=54 v=81
38494 Off ch=5 n=54 v=81
38496 On ch=10 n=42 v=69
38496 On ch=2 n=42 v=127
38496 On ch=10 n=82 v=64
38501 On ch=5 n=66 v=85
38502 Off ch=5 n=66 v=85
38508 Off ch=10 n=82 v=64
38508 Off ch=10 n=42 v=69
38531 Off ch=2 n=42 v=127
38540 On ch=5 n=66 v=85
38541 Off ch=5 n=66 v=85
38544 On ch=5 n=54 v=85
38545 Off ch=5 n=54 v=85
38590 On ch=5 n=54 v=121
38592 On ch=10 n=39 v=110
38592 On ch=10 n=40 v=112
38592 On ch=10 n=42 v=54
38592 On ch=2 n=45 v=127
38592 On ch=10 n=82 v=62
38595 On ch=5 n=66 v=127
38604 Off ch=10 n=82 v=62
38604 Off ch=10 n=42 v=54
38604 Off ch=10 n=40 v=112
38604 Off ch=10 n=39 v=110
38621 Off ch=5 n=54 v=121
38625 Off ch=5 n=66 v=127
38644 Off ch=2 n=45 v=127
38686 On ch=5 n=54 v=85
38687 Off ch=5 n=54 v=85
38688 On ch=10 n=42 v=74
38688 On ch=2 n=47 v=127
38688 On ch=10 n=82 v=64
38693 On ch=5 n=66 v=85
38694 Off ch=5 n=66 v=85
38700 Off ch=10 n=82 v=64
38700 Off ch=10 n=42 v=74
38732 On ch=5 n=66 v=85
38733 Off ch=5 n=66 v=85
38738 On ch=5 n=54 v=85
38739 Off ch=5 n=54 v=85
38758 Off ch=2 n=47 v=127
38780 On ch=5 n=54 v=107
38784 On ch=10 n=36 v=105
38784 On ch=10 n=42 v=57
38784 On ch=5 n=66 v=127
38784 On ch=10 n=82 v=64
38796 Off ch=10 n=82 v=64
38796 Off ch=10 n=42 v=57
38796 Off ch=10 n=36 v=105
38812 Off ch=5 n=54 v=107
38820 Off ch=5 n=66 v=127
38879 On ch=5 n=54 v=81
38880 On ch=10 n=42 v=69
38880 On ch=2 n=42 v=127
38880 On ch=10 n=82 v=68
38880 Off ch=5 n=54 v=81
38883 On ch=4 n=66 v=127
38887 On ch=5 n=66 v=77
38888 Off ch=5 n=66 v=77
38892 Off ch=10 n=82 v=68
38892 Off ch=10 n=42 v=69
38922 On ch=5 n=66 v=77
38923 Off ch=5 n=66 v=77
38928 On ch=5 n=54 v=77
38929 Off ch=5 n=54 v=77
38936 Off ch=2 n=42 v=127
38972 Off ch=4 n=66 v=127
38973 On ch=5 n=54 v=107
38976 On ch=10 n=39 v=110
38976 On ch=10 n=40 v=113
38976 On ch=2 n=40 v=127
38976 On ch=10 n=42 v=57
38976 On ch=10 n=82 v=62
38977 On ch=5 n=66 v=127
38988 Off ch=10 n=82 v=62
38988 Off ch=10 n=42 v=57
38988 Off ch=10 n=40 v=113
38988 Off ch=10 n=39 v=110
39008 Off ch=5 n=54 v=107
39011 Off ch=5 n=66 v=127
39036 Off ch=2 n=40 v=127
39070 On ch=5 n=54 v=73
39071 Off ch=5 n=54 v=73
39072 On ch=10 n=42 v=79
39072 On ch=2 n=42 v=127
39072 On ch=5 n=66 v=73
39072 On ch=4 n=66 v=127
39072 On ch=10 n=82 v=64
39073 Off ch=5 n=66 v=73
39084 Off ch=10 n=82 v=64
39084 Off ch=10 n=42 v=79
39117 On ch=5 n=66 v=73
39118 Off ch=5 n=66 v=73
39123 On ch=5 n=54 v=73
39124 Off ch=5 n=54 v=73
39124 Off ch=2 n=42 v=127
39158 Off ch=4 n=66 v=127
39165 On ch=5 n=54 v=107
39168 On ch=10 n=36 v=105
39168 On ch=10 n=42 v=54
39168 On ch=2 n=47 v=127
39168 On ch=10 n=82 v=62
39169 On ch=5 n=66 v=127
39171 On ch=4 n=73 v=127
39180 Off ch=10 n=82 v=62
39180 Off ch=10 n=42 v=54
39180 Off ch=10 n=36 v=105
39200 Off ch=5 n=54 v=107
39203 Off ch=5 n=66 v=127
39217 Off ch=2 n=47 v=127
39243 Off ch=4 n=73 v=127
39261 On ch=5 n=54 v=73
39262 Off ch=5 n=54 v=73
39264 On ch=10 n=42 v=69
39264 On ch=2 n=42 v=127
39264 On ch=10 n=82 v=55
39266 On ch=4 n=71 v=127
39267 On ch=5 n=66 v=81
39268 Off ch=5 n=66 v=81
39276 Off ch=10 n=82 v=55
39276 Off ch=10 n=42 v=69
39305 On ch=5 n=66 v=81
39306 Off ch=5 n=66 v=81
39314 On ch=5 n=54 v=77
39314 Off ch=2 n=42 v=127
39315 Off ch=5 n=54 v=77
39342 Off ch=4 n=71 v=127
39358 On ch=5 n=54 v=102
39360 On ch=10 n=39 v=110
39360 On ch=10 n=40 v=113
39360 On ch=10 n=42 v=49
39360 On ch=2 n=45 v=127
39360 On ch=10 n=82 v=55
39366 On ch=5 n=66 v=127
39367 On ch=4 n=71 v=127
39372 Off ch=10 n=82 v=55
39372 Off ch=10 n=42 v=49
39372 Off ch=10 n=40 v=113
39372 Off ch=10 n=39 v=110
39393 Off ch=5 n=54 v=102
39394 Off ch=5 n=66 v=127
39417 Off ch=2 n=45 v=127
39456 On ch=10 n=42 v=79
39456 On ch=2 n=47 v=127
39456 On ch=10 n=82 v=51
39457 On ch=5 n=54 v=77
39458 Off ch=5 n=54 v=77
39462 On ch=5 n=66 v=81
39463 Off ch=5 n=66 v=81
39468 Off ch=10 n=82 v=51
39468 Off ch=10 n=42 v=79
39478 Off ch=4 n=71 v=127
39502 On ch=5 n=66 v=81
39503 Off ch=5 n=66 v=81
39508 On ch=5 n=54 v=81
39509 Off ch=5 n=54 v=81
39524 Off ch=2 n=47 v=127
39549 On ch=5 n=54 v=107
39552 On ch=10 n=36 v=105
39552 On ch=10 n=42 v=46
39552 On ch=10 n=82 v=58
39556 On ch=4 n=66 v=127
39558 On ch=5 n=66 v=127
39564 Off ch=10 n=82 v=58
39564 Off ch=10 n=42 v=46
39564 Off ch=10 n=36 v=105
39579 Off ch=5 n=54 v=107
39590 Off ch=5 n=66 v=127
39644 On ch=5 n=54 v=76
39645 Off ch=5 n=54 v=76
39648 On ch=10 n=42 v=74
39648 On ch=2 n=42 v=127
39648 On ch=10 n=82 v=47
39655 On ch=5 n=66 v=73
39656 Off ch=5 n=66 v=73
39656 Off ch=4 n=66 v=127
39657 On ch=4 n=62 v=127
39660 Off ch=10 n=82 v=47
39660 Off ch=10 n=42 v=74
39692 On ch=5 n=66 v=73
39693 Off ch=5 n=66 v=73
39699 On ch=5 n=54 v=73
39700 Off ch=5 n=54 v=73
39711 Off ch=2 n=42 v=127
39743 On ch=5 n=54 v=107
39744 On ch=10 n=39 v=110
39744 On ch=10 n=40 v=113
39744 On ch=2 n=40 v=127
39744 On ch=10 n=42 v=46
39744 On ch=10 n=82 v=62
39746 On ch=5 n=66 v=127
39756 Off ch=10 n=82 v=62
39756 Off ch=10 n=42 v=46
39756 Off ch=10 n=40 v=113
39756 Off ch=10 n=39 v=110
39770 Off ch=5 n=54 v=107
39775 Off ch=5 n=66 v=127
39804 Off ch=2 n=40 v=127
39822 Off ch=4 n=62 v=127
39836 On ch=5 n=54 v=73
39837 Off ch=5 n=54 v=73
39840 On ch=2 n=37 v=127
39840 On ch=10 n=42 v=79
39840 On ch=10 n=82 v=58
39846 On ch=5 n=66 v=73
39847 Off ch=5 n=66 v=73
39850 On ch=4 n=61 v=127
39852 Off ch=10 n=82 v=58
39852 Off ch=10 n=42 v=79
39887 On ch=5 n=66 v=77
39888 Off ch=5 n=66 v=77
39891 On ch=5 n=54 v=77
39892 Off ch=5 n=54 v=77
39903 Off ch=2 n=37 v=127
39916 Off ch=3 n=66 v=73
39920 Off ch=3 n=57 v=73
39920 Off ch=3 n=62 v=73
39934 On ch=5 n=54 v=107
39936 On ch=10 n=36 v=105
39936 On ch=10 n=42 v=42
39936 On ch=2 n=42 v=127
39936 On ch=3 n=57 v=96
39936 On ch=3 n=61 v=96
39936 On ch=3 n=66 v=96
39936 On ch=10 n=82 v=56
39936 Off ch=7 n=74 v=76
39936 Off ch=7 n=78 v=78
39939 On ch=5 n=66 v=127
39948 Off ch=10 n=82 v=56
39948 Off ch=10 n=42 v=42
39948 Off ch=10 n=36 v=105
39964 Off ch=5 n=54 v=107
39965 Off ch=5 n=66 v=127
39986 Off ch=2 n=42 v=127
39988 Off ch=3 n=57 v=96
39991 Off ch=3 n=61 v=96
39991 Off ch=3 n=66 v=96
40032 On ch=2 n=37 v=127
40032 On ch=10 n=42 v=69
40032 On ch=10 n=82 v=46
40044 Off ch=10 n=82 v=46
40044 Off ch=10 n=42 v=69
40084 Off ch=2 n=37 v=127
40128 On ch=10 n=39 v=110
40128 On ch=10 n=40 v=112
40128 On ch=2 n=40 v=127
40128 On ch=10 n=42 v=54
40128 On ch=10 n=82 v=64
40140 Off ch=10 n=82 v=64
40140 Off ch=10 n=42 v=54
40140 Off ch=10 n=40 v=112
40140 Off ch=10 n=39 v=110
40150 Off ch=4 n=61 v=127
40183 Off ch=2 n=40 v=127
40224 On ch=10 n=42 v=74
40224 On ch=2 n=42 v=127
40224 On ch=3 n=59 v=96
40224 On ch=3 n=63 v=96
40224 On ch=3 n=68 v=96
40224 On ch=10 n=82 v=53
40236 Off ch=10 n=82 v=53
40236 Off ch=10 n=42 v=74
40272 Off ch=3 n=68 v=96
40272 Off ch=3 n=63 v=96
40272 Off ch=3 n=59 v=96
40275 Off ch=2 n=42 v=127
40320 On ch=10 n=36 v=105
40320 On ch=2 n=40 v=127
40320 On ch=10 n=42 v=57
40320 On ch=10 n=82 v=62
40332 Off ch=10 n=82 v=62
40332 Off ch=10 n=42 v=57
40332 Off ch=10 n=36 v=105
40376 Off ch=2 n=40 v=127
40416 On ch=2 n=37 v=127
40416 On ch=10 n=42 v=69
40416 On ch=10 n=82 v=60
40428 Off ch=10 n=82 v=60
40428 Off ch=10 n=42 v=69
40467 Off ch=2 n=37 v=127
40512 On ch=2 n=35 v=127
40512 On ch=10 n=39 v=110
40512 On ch=10 n=40 v=113
40512 On ch=10 n=42 v=57
40512 On ch=10 n=82 v=68
40524 Off ch=10 n=82 v=68
40524 Off ch=10 n=42 v=57
40524 Off ch=10 n=40 v=113
40524 Off ch=10 n=39 v=110
40573 Off ch=2 n=35 v=127
40608 On ch=2 n=37 v=127
40608 On ch=10 n=42 v=79
40608 On ch=10 n=82 v=50
40620 Off ch=10 n=82 v=50
40620 Off ch=10 n=42 v=79
40662 Off ch=2 n=37 v=127
40704 On ch=10 n=36 v=105
40704 On ch=10 n=42 v=54
40704 On ch=2 n=42 v=127
40704 On ch=3 n=61 v=96
40704 On ch=3 n=64 v=96
40704 On ch=3 n=69 v=96
40704 On ch=10 n=82 v=68
40716 Off ch=10 n=82 v=68
40716 Off ch=10 n=42 v=54
40716 Off ch=10 n=36 v=105
40751 Off ch=2 n=42 v=127
40752 PrCh ch=11 p=88
40752 Off ch=3 n=69 v=96
40752 Off ch=3 n=64 v=96
40752 Off ch=3 n=61 v=96
40800 On ch=10 n=42 v=69
40800 On ch=10 n=82 v=58
40800 Par ch=11 c=7 v=61
40800 On ch=2 n=37 v=127
40812 Off ch=10 n=82 v=58
40812 Off ch=10 n=42 v=69
40848 Off ch=2 n=37 v=127
40896 On ch=10 n=39 v=110
40896 On ch=10 n=40 v=113
40896 On ch=2 n=40 v=127
40896 On ch=10 n=42 v=49
40896 On ch=10 n=82 v=66
40908 Off ch=10 n=82 v=66
40908 Off ch=10 n=42 v=49
40908 Off ch=10 n=40 v=113
40908 Off ch=10 n=39 v=110
40949 Off ch=2 n=40 v=127
40992 On ch=10 n=42 v=79
40992 On ch=2 n=42 v=127
40992 On ch=3 n=59 v=96
40992 On ch=3 n=63 v=96
40992 On ch=3 n=68 v=96
40992 On ch=10 n=82 v=60
41004 Off ch=10 n=82 v=60
41004 Off ch=10 n=42 v=79
41038 Off ch=2 n=42 v=127
41040 Off ch=3 n=68 v=96
41040 Off ch=3 n=63 v=96
41040 Off ch=3 n=59 v=96
41088 On ch=10 n=36 v=105
41088 On ch=2 n=40 v=127
41088 On ch=10 n=42 v=46
41088 On ch=10 n=82 v=56
41100 Off ch=10 n=82 v=56
41100 Off ch=10 n=42 v=46
41100 Off ch=10 n=36 v=105
41147 Off ch=2 n=40 v=127
41184 On ch=2 n=37 v=127
41184 On ch=10 n=42 v=74
41184 On ch=10 n=82 v=60
41196 Off ch=10 n=82 v=60
41196 Off ch=10 n=42 v=74
41238 Off ch=2 n=37 v=127
41280 On ch=2 n=35 v=127
41280 On ch=10 n=39 v=110
41280 On ch=10 n=40 v=113
41280 On ch=10 n=42 v=46
41280 On ch=10 n=82 v=64
41292 Off ch=10 n=82 v=64
41292 Off ch=10 n=42 v=46
41292 Off ch=10 n=40 v=113
41292 Off ch=10 n=39 v=110
41345 Off ch=2 n=35 v=127
41376 On ch=2 n=37 v=127
41376 On ch=10 n=46 v=99
41376 On ch=10 n=82 v=64
41377 On ch=5 n=54 v=86
41378 Off ch=5 n=54 v=86
41379 On ch=5 n=66 v=76
41380 Off ch=5 n=66 v=76
41388 Off ch=10 n=82 v=64
41388 Off ch=10 n=46 v=99
41425 On ch=5 n=54 v=87
41426 Off ch=5 n=54 v=87
41427 On ch=5 n=66 v=76
41427 Off ch=2 n=37 v=127
41428 Off ch=5 n=66 v=76
41472 On ch=10 n=36 v=105
41472 On ch=10 n=42 v=42
41472 On ch=2 n=42 v=127
41472 On ch=3 n=57 v=96
41472 On ch=11 n=61 v=127
41472 On ch=7 n=61 v=124
41472 On ch=3 n=61 v=96
41472 On ch=3 n=66 v=96
41472 On ch=10 n=82 v=66
41484 Off ch=10 n=82 v=66
41484 Off ch=10 n=42 v=42
41484 Off ch=10 n=36 v=105
41519 Off ch=2 n=42 v=127
41520 Off ch=3 n=57 v=96
41520 Off ch=3 n=61 v=96
41520 Off ch=3 n=66 v=96
41568 On ch=2 n=37 v=127
41568 On ch=10 n=42 v=69
41568 On ch=10 n=82 v=64
41580 Off ch=10 n=82 v=64
41580 Off ch=10 n=42 v=69
41616 Off ch=2 n=37 v=127
41664 On ch=10 n=40 v=112
41664 On ch=2 n=40 v=127
41664 On ch=10 n=42 v=54
41664 On ch=10 n=82 v=62
41669 On ch=4 n=61 v=127
41676 Off ch=10 n=82 v=62
41676 Off ch=10 n=42 v=54
41676 Off ch=10 n=40 v=112
41717 Off ch=2 n=40 v=127
41736 Off ch=4 n=61 v=127
41755 On ch=4 n=61 v=118
41760 On ch=10 n=42 v=74
41760 On ch=2 n=42 v=127
41760 On ch=3 n=59 v=96
41760 On ch=3 n=63 v=96
41760 On ch=3 n=68 v=96
41760 On ch=10 n=82 v=64
41772 Off ch=10 n=82 v=64
41772 Off ch=10 n=42 v=74
41806 Off ch=2 n=42 v=127
41808 Off ch=3 n=68 v=96
41808 Off ch=3 n=63 v=96
41808 Off ch=3 n=59 v=96
41852 Off ch=4 n=61 v=118
41856 On ch=10 n=36 v=105
41856 On ch=2 n=40 v=127
41856 On ch=10 n=42 v=57
41856 On ch=10 n=82 v=64
41856 Off ch=11 n=61 v=127
41863 On ch=4 n=61 v=127
41868 Off ch=10 n=82 v=64
41868 Off ch=10 n=42 v=57
41868 Off ch=10 n=36 v=105
41915 Off ch=2 n=40 v=127
41932 Off ch=4 n=61 v=127
41952 On ch=2 n=37 v=127
41952 On ch=10 n=42 v=69
41952 On ch=10 n=82 v=68
41953 On ch=4 n=59 v=123
41964 Off ch=10 n=82 v=68
41964 Off ch=10 n=42 v=69
42006 Off ch=2 n=37 v=127
42031 Off ch=4 n=59 v=123
42048 On ch=2 n=35 v=127
42048 On ch=10 n=40 v=113
42048 On ch=10 n=42 v=57
42048 On ch=10 n=82 v=62
42055 On ch=4 n=57 v=109
42060 Off ch=10 n=82 v=62
42060 Off ch=10 n=42 v=57
42060 Off ch=10 n=40 v=113
42113 Off ch=2 n=35 v=127
42132 Off ch=4 n=57 v=109
42144 On ch=2 n=37 v=127
42144 On ch=10 n=42 v=79
42144 On ch=10 n=82 v=64
42156 Off ch=10 n=82 v=64
42156 Off ch=10 n=42 v=79
42157 On ch=4 n=59 v=127
42195 Off ch=2 n=37 v=127
42240 On ch=10 n=36 v=105
42240 On ch=10 n=42 v=54
42240 On ch=2 n=42 v=127
42240 On ch=3 n=61 v=96
42240 On ch=3 n=64 v=96
42240 On ch=3 n=69 v=96
42240 On ch=10 n=82 v=62
42252 Off ch=10 n=82 v=62
42252 Off ch=10 n=42 v=54
42252 Off ch=10 n=36 v=105
42288 Off ch=3 n=69 v=96
42288 Off ch=3 n=64 v=96
42288 Off ch=3 n=61 v=96
42290 Off ch=2 n=42 v=127
42311 Off ch=4 n=59 v=127
42336 On ch=2 n=37 v=127
42336 On ch=10 n=42 v=69
42336 On ch=10 n=82 v=55
42348 Off ch=10 n=82 v=55
42348 Off ch=10 n=42 v=69
42349 On ch=4 n=57 v=91
42388 Off ch=2 n=37 v=127
42410 Off ch=4 n=57 v=91
42432 On ch=10 n=40 v=113
42432 On ch=2 n=40 v=127
42432 On ch=10 n=42 v=49
42432 On ch=10 n=82 v=55
42442 On ch=4 n=61 v=127
42444 Off ch=10 n=82 v=55
42444 Off ch=10 n=42 v=49
42444 Off ch=10 n=40 v=113
42487 Off ch=2 n=40 v=127
42508 Off ch=4 n=61 v=127
42528 On ch=10 n=42 v=79
42528 On ch=2 n=42 v=127
42528 On ch=3 n=59 v=96
42528 On ch=3 n=63 v=96
42528 On ch=3 n=68 v=96
42528 On ch=10 n=82 v=51
42540 Off ch=10 n=82 v=51
42540 Off ch=10 n=42 v=79
42540 On ch=4 n=57 v=119
42570 Off ch=4 n=57 v=119
42576 Off ch=3 n=68 v=96
42576 Off ch=3 n=63 v=96
42576 Off ch=3 n=59 v=96
42579 Off ch=2 n=42 v=127
42588 On ch=4 n=57 v=78
42618 On ch=11 n=63 v=127
42618 Off ch=7 n=61 v=124
42618 On ch=7 n=63 v=124
42620 Off ch=4 n=57 v=78
42624 On ch=10 n=36 v=105
42624 On ch=2 n=40 v=127
42624 On ch=10 n=42 v=46
42624 On ch=10 n=82 v=58
42636 Off ch=10 n=82 v=58
42636 Off ch=10 n=42 v=46
42636 Off ch=10 n=36 v=105
42639 On ch=4 n=59 v=127
42680 Off ch=2 n=40 v=127
42702 Off ch=4 n=59 v=127
42720 On ch=2 n=37 v=127
42720 On ch=10 n=42 v=74
42720 On ch=10 n=82 v=47
42728 On ch=4 n=57 v=127
42732 Off ch=10 n=82 v=47
42732 Off ch=10 n=42 v=74
42771 Off ch=2 n=37 v=127
42797 Off ch=4 n=57 v=127
42810 Off ch=11 n=63 v=127
42816 On ch=2 n=35 v=127
42816 On ch=10 n=40 v=113
42816 On ch=10 n=42 v=46
42816 On ch=10 n=82 v=62
42820 On ch=4 n=61 v=127
42821 On ch=11 n=59 v=127
42821 On ch=7 n=59 v=124
42821 Off ch=7 n=63 v=124
42828 Off ch=10 n=82 v=62
42828 Off ch=10 n=42 v=46
42828 Off ch=10 n=40 v=113
42877 Off ch=2 n=35 v=127
42912 On ch=2 n=37 v=127
42912 On ch=10 n=42 v=79
42912 On ch=10 n=82 v=58
42924 Off ch=10 n=82 v=58
42924 Off ch=10 n=42 v=79
42942 Off ch=4 n=61 v=127
42966 Off ch=2 n=37 v=127
43008 On ch=10 n=36 v=105
43008 On ch=10 n=42 v=42
43008 On ch=2 n=42 v=127
43008 On ch=3 n=57 v=96
43008 On ch=3 n=61 v=96
43008 On ch=3 n=66 v=96
43008 On ch=10 n=82 v=56
43013 Off ch=11 n=59 v=127
43018 On ch=11 n=61 v=127
43018 Off ch=7 n=59 v=124
43018 On ch=7 n=61 v=124
43020 Off ch=10 n=82 v=56
43020 Off ch=10 n=42 v=42
43020 Off ch=10 n=36 v=105
43055 Off ch=2 n=42 v=127
43056 Off ch=3 n=66 v=96
43056 Off ch=3 n=61 v=96
43056 Off ch=3 n=57 v=96
43104 On ch=2 n=37 v=127
43104 On ch=10 n=42 v=69
43104 On ch=10 n=82 v=46
43110 On ch=4 n=61 v=127
43116 Off ch=10 n=82 v=46
43116 Off ch=10 n=42 v=69
43152 Off ch=2 n=37 v=127
43188 Off ch=4 n=61 v=127
43200 On ch=10 n=40 v=112
43200 On ch=2 n=40 v=127
43200 On ch=10 n=42 v=54
43200 On ch=10 n=82 v=64
43205 On ch=4 n=61 v=127
43212 Off ch=10 n=82 v=64
43212 Off ch=10 n=42 v=54
43212 Off ch=10 n=40 v=112
43253 Off ch=2 n=40 v=127
43288 Off ch=4 n=61 v=127
43296 On ch=10 n=42 v=74
43296 On ch=2 n=42 v=127
43296 On ch=3 n=59 v=96
43296 On ch=3 n=63 v=96
43296 On ch=3 n=68 v=96
43296 On ch=10 n=82 v=53
43297 On ch=4 n=61 v=127
43308 Off ch=10 n=82 v=53
43308 Off ch=10 n=42 v=74
43342 Off ch=2 n=42 v=127
43344 Off ch=3 n=68 v=96
43344 Off ch=3 n=63 v=96
43344 Off ch=3 n=59 v=96
43389 Off ch=4 n=61 v=127
43392 On ch=10 n=36 v=105
43392 On ch=2 n=40 v=127
43392 On ch=10 n=42 v=57
43392 On ch=10 n=82 v=62
43392 Off ch=11 n=61 v=127
43404 Off ch=10 n=82 v=62
43404 Off ch=10 n=42 v=57
43404 Off ch=10 n=36 v=105
43404 On ch=4 n=61 v=127
43451 Off ch=2 n=40 v=127
43479 Off ch=4 n=61 v=127
43488 On ch=2 n=37 v=127
43488 On ch=10 n=42 v=69
43488 On ch=10 n=82 v=60
43497 On ch=4 n=59 v=127
43500 Off ch=10 n=82 v=60
43500 Off ch=10 n=42 v=69
43542 Off ch=2 n=37 v=127
43568 Off ch=4 n=59 v=127
43584 On ch=2 n=35 v=127
43584 On ch=10 n=40 v=113
43584 On ch=10 n=42 v=57
43584 On ch=10 n=82 v=68
43590 On ch=4 n=57 v=127
43596 Off ch=10 n=82 v=68
43596 Off ch=10 n=42 v=57
43596 Off ch=10 n=40 v=113
43649 Off ch=2 n=35 v=127
43667 Off ch=4 n=57 v=127
43680 On ch=2 n=37 v=127
43680 On ch=10 n=42 v=79
43680 On ch=10 n=82 v=50
43689 On ch=4 n=59 v=127
43692 Off ch=10 n=82 v=50
43692 Off ch=10 n=42 v=79
43731 Off ch=2 n=37 v=127
43764 Off ch=4 n=59 v=127
43776 On ch=10 n=36 v=105
43776 On ch=10 n=42 v=54
43776 On ch=2 n=42 v=127
43776 On ch=3 n=61 v=96
43776 On ch=3 n=64 v=96
43776 On ch=3 n=69 v=96
43776 On ch=10 n=82 v=68
43786 On ch=4 n=57 v=127
43788 Off ch=10 n=82 v=68
43788 Off ch=10 n=42 v=54
43788 Off ch=10 n=36 v=105
43824 Off ch=3 n=69 v=96
43824 Off ch=3 n=64 v=96
43824 Off ch=3 n=61 v=96
43826 Off ch=2 n=42 v=127
43841 Off ch=4 n=57 v=127
43872 On ch=2 n=37 v=127
43872 On ch=10 n=42 v=69
43872 On ch=10 n=82 v=58
43876 On ch=4 n=61 v=127
43884 Off ch=10 n=82 v=58
43884 Off ch=10 n=42 v=69
43924 Off ch=2 n=37 v=127
43968 On ch=10 n=40 v=113
43968 On ch=2 n=40 v=127
43968 On ch=10 n=42 v=49
43968 On ch=10 n=82 v=66
43980 Off ch=10 n=82 v=66
43980 Off ch=10 n=42 v=49
43980 Off ch=10 n=40 v=113
44023 Off ch=2 n=40 v=127
44056 Off ch=4 n=61 v=127
44064 On ch=10 n=42 v=79
44064 On ch=2 n=42 v=127
44064 On ch=3 n=59 v=96
44064 On ch=3 n=63 v=96
44064 On ch=3 n=68 v=96
44064 On ch=10 n=82 v=60
44076 Off ch=10 n=82 v=60
44076 Off ch=10 n=42 v=79
44077 On ch=4 n=59 v=127
44112 Off ch=3 n=68 v=96
44112 Off ch=3 n=63 v=96
44112 Off ch=3 n=59 v=96
44115 Off ch=2 n=42 v=127
44160 On ch=10 n=36 v=105
44160 On ch=2 n=40 v=127
44160 On ch=10 n=42 v=46
44160 On ch=10 n=82 v=56
44161 On ch=11 n=59 v=127
44161 On ch=7 n=59 v=124
44161 Off ch=7 n=61 v=124
44172 Off ch=10 n=82 v=56
44172 Off ch=10 n=42 v=46
44172 Off ch=10 n=36 v=105
44216 Off ch=2 n=40 v=127
44244 Off ch=4 n=59 v=127
44256 On ch=2 n=37 v=127
44256 On ch=10 n=42 v=74
44256 On ch=10 n=82 v=60
44267 On ch=4 n=57 v=127
44268 Off ch=10 n=82 v=60
44268 Off ch=10 n=42 v=74
44307 Off ch=2 n=37 v=127
44343 Off ch=4 n=57 v=127
44352 On ch=2 n=35 v=127
44352 On ch=10 n=40 v=113
44352 On ch=10 n=42 v=46
44352 On ch=10 n=82 v=64
44353 Off ch=11 n=59 v=127
44357 On ch=11 n=57 v=127
44357 On ch=7 n=57 v=124
44357 Off ch=7 n=59 v=124
44364 Off ch=10 n=82 v=64
44364 Off ch=10 n=42 v=46
44364 Off ch=10 n=40 v=113
44368 On ch=4 n=56 v=127
44413 Off ch=2 n=35 v=127
44443 Off ch=4 n=56 v=127
44448 On ch=2 n=37 v=127
44448 On ch=10 n=42 v=79
44448 On ch=10 n=82 v=64
44460 Off ch=10 n=82 v=64
44460 Off ch=10 n=42 v=79
44469 On ch=4 n=54 v=127
44502 Off ch=2 n=37 v=127
44544 On ch=10 n=36 v=105
44544 On ch=10 n=42 v=42
44544 On ch=2 n=47 v=127
44544 On ch=3 n=57 v=96
44544 On ch=3 n=62 v=96
44544 On ch=3 n=66 v=96
44544 On ch=10 n=82 v=66
44548 On ch=11 n=54 v=127
44548 On ch=7 n=54 v=124
44548 Off ch=7 n=57 v=124
44549 Off ch=11 n=57 v=127
44556 Off ch=10 n=82 v=66
44556 Off ch=10 n=42 v=42
44556 Off ch=10 n=36 v=105
44592 Off ch=3 n=66 v=96
44592 Off ch=3 n=57 v=96
44592 Off ch=3 n=62 v=96
44592 Off ch=2 n=47 v=127
44620 Off ch=4 n=54 v=127
44640 On ch=10 n=42 v=69
44640 On ch=2 n=42 v=127
44640 On ch=10 n=82 v=64
44652 Off ch=10 n=82 v=64
44652 Off ch=10 n=42 v=69
44675 Off ch=2 n=42 v=127
44736 On ch=10 n=40 v=112
44736 On ch=10 n=42 v=54
44736 On ch=2 n=45 v=127
44736 On ch=10 n=82 v=62
44748 Off ch=10 n=82 v=62
44748 Off ch=10 n=42 v=54
44748 Off ch=10 n=40 v=112
44788 Off ch=2 n=45 v=127
44832 On ch=10 n=42 v=74
44832 On ch=2 n=47 v=127
44832 On ch=3 n=57 v=96
44832 On ch=3 n=62 v=96
44832 On ch=3 n=66 v=96
44832 On ch=10 n=82 v=64
44844 Off ch=10 n=82 v=64
44844 Off ch=10 n=42 v=74
44880 Off ch=3 n=62 v=96
44880 Off ch=3 n=66 v=96
44880 Off ch=3 n=57 v=96
44902 Off ch=2 n=47 v=127
44928 On ch=10 n=36 v=105
44928 On ch=10 n=42 v=57
44928 On ch=10 n=82 v=64
44928 Off ch=11 n=54 v=127
44940 Off ch=10 n=82 v=64
44940 Off ch=10 n=42 v=57
44940 Off ch=10 n=36 v=105
45024 On ch=10 n=42 v=69
45024 On ch=2 n=42 v=127
45024 On ch=10 n=82 v=68
45036 Off ch=10 n=82 v=68
45036 Off ch=10 n=42 v=69
45080 Off ch=2 n=42 v=127
45120 On ch=10 n=40 v=113
45120 On ch=2 n=40 v=127
45120 On ch=10 n=42 v=57
45120 On ch=10 n=82 v=62
45121 On ch=4 n=54 v=127
45132 Off ch=10 n=82 v=62
45132 Off ch=10 n=42 v=57
45132 Off ch=10 n=40 v=113
45164 Off ch=4 n=54 v=127
45173 On ch=4 n=56 v=127
45180 Off ch=2 n=40 v=127
45202 Off ch=4 n=56 v=127
45216 On ch=10 n=42 v=79
45216 On ch=2 n=42 v=127
45216 On ch=10 n=82 v=64
45219 On ch=4 n=54 v=127
45228 Off ch=10 n=82 v=64
45228 Off ch=10 n=42 v=79
45268 Off ch=2 n=42 v=127
45312 On ch=10 n=36 v=105
45312 On ch=10 n=42 v=54
45312 On ch=2 n=47 v=127
45312 On ch=3 n=57 v=96
45312 On ch=3 n=62 v=96
45312 On ch=3 n=66 v=96
45312 On ch=10 n=82 v=62
45324 Off ch=10 n=82 v=62
45324 Off ch=10 n=42 v=54
45324 Off ch=10 n=36 v=105
45332 Off ch=4 n=54 v=127
45360 Off ch=3 n=66 v=96
45360 Off ch=3 n=62 v=96
45360 Off ch=3 n=57 v=96
45361 Off ch=2 n=47 v=127
45408 On ch=10 n=42 v=69
45408 On ch=2 n=42 v=127
45408 On ch=10 n=82 v=55
45420 Off ch=10 n=82 v=55
45420 Off ch=10 n=42 v=69
45458 Off ch=2 n=42 v=127
45504 On ch=10 n=40 v=113
45504 On ch=10 n=42 v=49
45504 On ch=2 n=45 v=127
45504 On ch=4 n=54 v=127
45504 On ch=10 n=82 v=55
45516 Off ch=10 n=82 v=55
45516 Off ch=10 n=42 v=49
45516 Off ch=10 n=40 v=113
45542 Off ch=4 n=54 v=127
45561 Off ch=2 n=45 v=127
45562 On ch=4 n=56 v=116
45583 Off ch=4 n=56 v=116
45600 On ch=10 n=42 v=79
45600 On ch=2 n=47 v=127
45600 On ch=3 n=57 v=96
45600 On ch=3 n=62 v=96
45600 On ch=3 n=66 v=96
45600 On ch=10 n=82 v=51
45607 On ch=4 n=54 v=127
45612 Off ch=10 n=82 v=51
45612 Off ch=10 n=42 v=79
45648 Off ch=3 n=66 v=96
45648 Off ch=3 n=62 v=96
45648 Off ch=3 n=57 v=96
45668 Off ch=2 n=47 v=127
45696 On ch=10 n=36 v=105
45696 On ch=10 n=42 v=46
45696 On ch=10 n=82 v=58
45708 Off ch=10 n=82 v=58
45708 Off ch=10 n=42 v=46
45708 Off ch=10 n=36 v=105
45726 Off ch=4 n=54 v=127
45792 On ch=10 n=42 v=74
45792 On ch=2 n=42 v=127
45792 On ch=10 n=82 v=47
45804 Off ch=10 n=82 v=47
45804 Off ch=10 n=42 v=74
45855 Off ch=2 n=42 v=127
45888 On ch=10 n=40 v=113
45888 On ch=2 n=40 v=127
45888 On ch=10 n=42 v=46
45888 On ch=10 n=82 v=62
45891 On ch=4 n=54 v=127
45900 Off ch=10 n=82 v=62
45900 Off ch=10 n=42 v=46
45900 Off ch=10 n=40 v=113
45924 Off ch=4 n=54 v=127
45944 On ch=4 n=56 v=119
45948 Off ch=2 n=40 v=127
45961 Off ch=4 n=56 v=119
45984 On ch=2 n=37 v=127
45984 On ch=10 n=42 v=79
45984 On ch=10 n=82 v=58
45986 On ch=4 n=54 v=127
45996 Off ch=10 n=82 v=58
45996 Off ch=10 n=42 v=79
46047 Off ch=2 n=37 v=127
46080 On ch=10 n=36 v=105
46080 On ch=10 n=42 v=42
46080 On ch=2 n=42 v=127
46080 On ch=10 n=82 v=56
46080 Off ch=7 n=54 v=124
46080 On ch=3 n=57 v=96
46080 On ch=3 n=61 v=96
46080 On ch=3 n=66 v=96
46091 Off ch=4 n=54 v=127
46092 Off ch=10 n=82 v=56
46092 Off ch=10 n=42 v=42
46092 Off ch=10 n=36 v=105
46128 Off ch=3 n=57 v=96
46128 Off ch=3 n=61 v=96
46128 Off ch=3 n=66 v=96
46130 Off ch=2 n=42 v=127
46176 On ch=2 n=37 v=127
46176 On ch=10 n=42 v=69
46176 On ch=10 n=82 v=46
46188 Off ch=10 n=82 v=46
46188 Off ch=10 n=42 v=69
46228 Off ch=2 n=37 v=127
46272 On ch=10 n=40 v=112
46272 On ch=2 n=40 v=127
46272 On ch=10 n=42 v=54
46272 On ch=10 n=82 v=64
46284 Off ch=10 n=82 v=64
46284 Off ch=10 n=42 v=54
46284 Off ch=10 n=40 v=112
46327 Off ch=2 n=40 v=127
46368 On ch=10 n=42 v=74
46368 On ch=2 n=42 v=127
46368 On ch=3 n=59 v=96
46368 On ch=3 n=63 v=96
46368 On ch=3 n=68 v=96
46368 On ch=10 n=82 v=53
46380 Off ch=10 n=82 v=53
46380 Off ch=10 n=42 v=74
46416 Off ch=3 n=68 v=96
46416 Off ch=3 n=63 v=96
46416 Off ch=3 n=59 v=96
46419 Off ch=2 n=42 v=127
46464 On ch=10 n=36 v=105
46464 On ch=2 n=40 v=127
46464 On ch=10 n=42 v=57
46464 On ch=10 n=82 v=62
46476 Off ch=10 n=82 v=62
46476 Off ch=10 n=42 v=57
46476 Off ch=10 n=36 v=105
46520 Off ch=2 n=40 v=127
46560 On ch=2 n=37 v=127
46560 On ch=10 n=42 v=69
46560 On ch=10 n=82 v=60
46572 Off ch=10 n=82 v=60
46572 Off ch=10 n=42 v=69
46611 Off ch=2 n=37 v=127
46656 On ch=2 n=35 v=127
46656 On ch=10 n=40 v=113
46656 On ch=10 n=42 v=57
46656 On ch=10 n=82 v=68
46668 Off ch=10 n=82 v=68
46668 Off ch=10 n=42 v=57
46668 Off ch=10 n=40 v=113
46717 Off ch=2 n=35 v=127
46752 On ch=2 n=37 v=127
46752 On ch=10 n=42 v=79
46752 On ch=10 n=82 v=50
46764 Off ch=10 n=82 v=50
46764 Off ch=10 n=42 v=79
46806 Off ch=2 n=37 v=127
46848 On ch=10 n=36 v=105
46848 On ch=10 n=42 v=54
46848 On ch=2 n=42 v=127
46848 On ch=3 n=61 v=96
46848 On ch=3 n=64 v=96
46848 On ch=3 n=69 v=96
46848 On ch=10 n=82 v=68
46860 Off ch=10 n=82 v=68
46860 Off ch=10 n=42 v=54
46860 Off ch=10 n=36 v=105
46895 Off ch=2 n=42 v=127
46896 Off ch=3 n=69 v=96
46896 Off ch=3 n=64 v=96
46896 Off ch=3 n=61 v=96
46944 On ch=2 n=37 v=127
46944 On ch=10 n=42 v=69
46944 On ch=10 n=82 v=58
46946 On ch=4 n=54 v=127
46956 Off ch=10 n=82 v=58
46956 Off ch=10 n=42 v=69
46992 Off ch=2 n=37 v=127
46998 Off ch=4 n=54 v=127
47039 On ch=4 n=57 v=127
47040 On ch=10 n=40 v=113
47040 On ch=2 n=40 v=127
47040 On ch=10 n=42 v=49
47040 On ch=10 n=82 v=66
47052 Off ch=10 n=82 v=66
47052 Off ch=10 n=42 v=49
47052 Off ch=10 n=40 v=113
47093 Off ch=2 n=40 v=127
47116 Off ch=4 n=57 v=127
47136 On ch=10 n=42 v=79
47136 On ch=2 n=42 v=127
47136 On ch=3 n=59 v=96
47136 On ch=3 n=63 v=96
47136 On ch=3 n=68 v=96
47136 On ch=10 n=82 v=60
47139 On ch=4 n=59 v=127
47148 Off ch=10 n=82 v=60
47148 Off ch=10 n=42 v=79
47182 Off ch=2 n=42 v=127
47184 Off ch=3 n=68 v=96
47184 Off ch=3 n=63 v=96
47184 Off ch=3 n=59 v=96
47232 On ch=10 n=36 v=105
47232 On ch=2 n=40 v=127
47232 On ch=10 n=42 v=46
47232 On ch=10 n=82 v=56
47244 Off ch=10 n=82 v=56
47244 Off ch=10 n=42 v=46
47244 Off ch=10 n=36 v=105
47291 Off ch=2 n=40 v=127
47303 Off ch=4 n=59 v=127
47328 On ch=2 n=37 v=127
47328 On ch=10 n=42 v=74
47328 On ch=10 n=82 v=60
47329 On ch=4 n=57 v=127
47340 Off ch=10 n=82 v=60
47340 Off ch=10 n=42 v=74
47382 Off ch=2 n=37 v=127
47396 Off ch=4 n=57 v=127
47422 On ch=4 n=56 v=127
47424 On ch=2 n=35 v=127
47424 On ch=10 n=40 v=113
47424 On ch=10 n=42 v=46
47424 On ch=10 n=82 v=64
47436 Off ch=10 n=82 v=64
47436 Off ch=10 n=42 v=46
47436 Off ch=10 n=40 v=113
47489 Off ch=2 n=35 v=127
47497 Off ch=4 n=56 v=127
47520 On ch=2 n=37 v=127
47520 On ch=10 n=42 v=79
47520 On ch=10 n=82 v=64
47526 On ch=4 n=54 v=127
47532 Off ch=10 n=82 v=64
47532 Off ch=10 n=42 v=79
47571 Off ch=2 n=37 v=127
47616 On ch=10 n=36 v=105
47616 On ch=10 n=42 v=42
47616 On ch=2 n=47 v=127
47616 On ch=3 n=57 v=96
47616 On ch=3 n=62 v=96
47616 On ch=3 n=66 v=96
47616 On ch=10 n=82 v=66
47628 Off ch=10 n=82 v=66
47628 Off ch=10 n=42 v=42
47628 Off ch=10 n=36 v=105
47664 Off ch=3 n=66 v=96
47664 Off ch=3 n=57 v=96
47664 Off ch=3 n=62 v=96
47664 Off ch=2 n=47 v=127
47712 On ch=10 n=42 v=69
47712 On ch=2 n=42 v=127
47712 On ch=10 n=82 v=64
47724 Off ch=10 n=82 v=64
47724 Off ch=10 n=42 v=69
47747 Off ch=2 n=42 v=127
47808 On ch=10 n=40 v=112
47808 On ch=10 n=42 v=54
47808 On ch=2 n=45 v=127
47808 On ch=10 n=82 v=62
47817 Off ch=4 n=54 v=127
47820 Off ch=10 n=82 v=62
47820 Off ch=10 n=42 v=54
47820 Off ch=10 n=40 v=112
47860 Off ch=2 n=45 v=127
47904 On ch=10 n=42 v=74
47904 On ch=2 n=47 v=127
47904 On ch=3 n=57 v=96
47904 On ch=3 n=62 v=96
47904 On ch=3 n=66 v=96
47904 On ch=10 n=82 v=64
47916 Off ch=10 n=82 v=64
47916 Off ch=10 n=42 v=74
47952 Off ch=3 n=62 v=96
47952 Off ch=3 n=66 v=96
47952 Off ch=3 n=57 v=96
47974 Off ch=2 n=47 v=127
48000 On ch=10 n=36 v=105
48000 On ch=10 n=42 v=57
48000 On ch=10 n=82 v=64
48012 Off ch=10 n=82 v=64
48012 Off ch=10 n=42 v=57
48012 Off ch=10 n=36 v=105
48096 On ch=10 n=42 v=69
48096 On ch=2 n=42 v=127
48096 On ch=10 n=82 v=68
48108 Off ch=10 n=82 v=68
48108 Off ch=10 n=42 v=69
48152 Off ch=2 n=42 v=127
48192 On ch=10 n=40 v=113
48192 On ch=2 n=40 v=127
48192 On ch=10 n=42 v=57
48192 On ch=10 n=82 v=62
48194 On ch=4 n=57 v=127
48204 Off ch=10 n=82 v=62
48204 Off ch=10 n=42 v=57
48204 Off ch=10 n=40 v=113
48234 Off ch=4 n=57 v=127
48244 On ch=4 n=56 v=127
48252 Off ch=2 n=40 v=127
48287 Off ch=4 n=56 v=127
48288 On ch=10 n=42 v=79
48288 On ch=2 n=42 v=127
48288 On ch=10 n=82 v=64
48298 On ch=4 n=54 v=127
48300 Off ch=10 n=82 v=64
48300 Off ch=10 n=42 v=79
48340 Off ch=2 n=42 v=127
48384 On ch=10 n=36 v=105
48384 On ch=10 n=42 v=54
48384 On ch=2 n=47 v=127
48384 On ch=3 n=57 v=96
48384 On ch=3 n=62 v=96
48384 On ch=3 n=66 v=96
48384 On ch=10 n=82 v=62
48396 Off ch=10 n=82 v=62
48396 Off ch=10 n=42 v=54
48396 Off ch=10 n=36 v=105
48432 Off ch=3 n=66 v=96
48432 Off ch=3 n=62 v=96
48432 Off ch=3 n=57 v=96
48433 Off ch=2 n=47 v=127
48480 On ch=10 n=42 v=69
48480 On ch=2 n=42 v=127
48480 On ch=10 n=82 v=55
48492 Off ch=10 n=82 v=55
48492 Off ch=10 n=42 v=69
48526 Off ch=4 n=54 v=127
48530 Off ch=2 n=42 v=127
48575 On ch=4 n=57 v=127
48576 On ch=10 n=40 v=113
48576 On ch=10 n=42 v=49
48576 On ch=2 n=45 v=127
48576 On ch=10 n=82 v=55
48588 Off ch=10 n=82 v=55
48588 Off ch=10 n=42 v=49
48588 Off ch=10 n=40 v=113
48615 Off ch=4 n=57 v=127
48627 On ch=4 n=56 v=127
48633 Off ch=2 n=45 v=127
48658 Off ch=4 n=56 v=127
48672 On ch=10 n=42 v=79
48672 On ch=2 n=47 v=127
48672 On ch=3 n=57 v=96
48672 On ch=3 n=62 v=96
48672 On ch=3 n=66 v=96
48672 On ch=10 n=82 v=51
48679 On ch=4 n=54 v=127
48684 Off ch=10 n=82 v=51
48684 Off ch=10 n=42 v=79
48720 Off ch=3 n=66 v=96
48720 Off ch=3 n=62 v=96
48720 Off ch=3 n=57 v=96
48740 Off ch=2 n=47 v=127
48768 On ch=10 n=36 v=105
48768 On ch=10 n=42 v=46
48768 On ch=10 n=82 v=58
48780 Off ch=10 n=82 v=58
48780 Off ch=10 n=42 v=46
48780 Off ch=10 n=36 v=105
48864 On ch=10 n=42 v=74
48864 On ch=2 n=42 v=127
48864 On ch=10 n=82 v=47
48876 Off ch=10 n=82 v=47
48876 Off ch=10 n=42 v=74
48914 Off ch=4 n=54 v=127
48927 Off ch=2 n=42 v=127
48959 On ch=4 n=57 v=127
48960 On ch=10 n=40 v=113
48960 On ch=2 n=40 v=127
48960 On ch=10 n=42 v=46
48960 On ch=10 n=82 v=62
48972 Off ch=10 n=82 v=62
48972 Off ch=10 n=42 v=46
48972 Off ch=10 n=40 v=113
49002 Off ch=4 n=57 v=127
49009 On ch=4 n=56 v=127
49020 Off ch=2 n=40 v=127
49052 Off ch=4 n=56 v=127
49056 On ch=2 n=37 v=127
49056 On ch=10 n=42 v=79
49056 On ch=10 n=82 v=58
49058 On ch=4 n=54 v=127
49068 Off ch=10 n=82 v=58
49068 Off ch=10 n=42 v=79
49119 Off ch=2 n=37 v=127
49152 On ch=10 n=36 v=105
49152 On ch=10 n=42 v=42
49152 On ch=2 n=42 v=127
49152 On ch=3 n=57 v=96
49152 On ch=3 n=61 v=96
49152 On ch=3 n=66 v=96
49152 On ch=10 n=82 v=56
49164 Off ch=10 n=82 v=56
49164 Off ch=10 n=42 v=42
49164 Off ch=10 n=36 v=105
49200 Off ch=3 n=57 v=96
49200 Off ch=3 n=61 v=96
49200 Off ch=3 n=66 v=96
49202 Off ch=2 n=42 v=127
49222 Off ch=4 n=54 v=127
49248 On ch=2 n=37 v=127
49248 On ch=10 n=42 v=69
49248 On ch=10 n=82 v=46
49260 Off ch=10 n=82 v=46
49260 Off ch=10 n=42 v=69
49300 Off ch=2 n=37 v=127
49344 On ch=10 n=40 v=112
49344 On ch=2 n=40 v=127
49344 On ch=10 n=42 v=54
49344 On ch=10 n=82 v=64
49356 Off ch=10 n=82 v=64
49356 Off ch=10 n=42 v=54
49356 Off ch=10 n=40 v=112
49399 Off ch=2 n=40 v=127
49440 On ch=10 n=42 v=74
49440 On ch=2 n=42 v=127
49440 On ch=3 n=59 v=96
49440 On ch=3 n=63 v=96
49440 On ch=3 n=68 v=96
49440 On ch=10 n=82 v=53
49452 Off ch=10 n=82 v=53
49452 Off ch=10 n=42 v=74
49488 Off ch=3 n=68 v=96
49488 Off ch=3 n=63 v=96
49488 Off ch=3 n=59 v=96
49491 Off ch=2 n=42 v=127
49536 On ch=10 n=36 v=105
49536 On ch=2 n=40 v=127
49536 On ch=10 n=42 v=57
49536 On ch=10 n=82 v=62
49548 Off ch=10 n=82 v=62
49548 Off ch=10 n=42 v=57
49548 Off ch=10 n=36 v=105
49592 Off ch=2 n=40 v=127
49632 On ch=2 n=37 v=127
49632 On ch=10 n=42 v=69
49632 On ch=10 n=82 v=60
49644 Off ch=10 n=82 v=60
49644 Off ch=10 n=42 v=69
49683 Off ch=2 n=37 v=127
49728 On ch=2 n=35 v=127
49728 On ch=10 n=40 v=113
49728 On ch=10 n=42 v=57
49728 On ch=10 n=82 v=68
49740 Off ch=10 n=82 v=68
49740 Off ch=10 n=42 v=57
49740 Off ch=10 n=40 v=113
49789 Off ch=2 n=35 v=127
49824 On ch=2 n=37 v=127
49824 On ch=10 n=42 v=79
49824 On ch=10 n=82 v=50
49836 Off ch=10 n=82 v=50
49836 Off ch=10 n=42 v=79
49878 Off ch=2 n=37 v=127
49920 On ch=10 n=36 v=105
49920 On ch=10 n=42 v=54
49920 On ch=2 n=42 v=127
49920 On ch=3 n=61 v=96
49920 On ch=3 n=64 v=96
49920 On ch=3 n=69 v=96
49920 On ch=10 n=82 v=68
49932 Off ch=10 n=82 v=68
49932 Off ch=10 n=42 v=54
49932 Off ch=10 n=36 v=105
49967 Off ch=2 n=42 v=127
49968 Off ch=3 n=69 v=96
49968 Off ch=3 n=64 v=96
49968 Off ch=3 n=61 v=96
50016 On ch=2 n=37 v=127
50016 On ch=10 n=42 v=69
50016 On ch=10 n=82 v=58
50028 Off ch=10 n=82 v=58
50028 Off ch=10 n=42 v=69
50064 Off ch=2 n=37 v=127
50112 On ch=10 n=40 v=113
50112 On ch=2 n=40 v=127
50112 On ch=10 n=42 v=49
50112 On ch=10 n=82 v=66
50124 Off ch=10 n=82 v=66
50124 Off ch=10 n=42 v=49
50124 Off ch=10 n=40 v=113
50165 Off ch=2 n=40 v=127
50208 On ch=10 n=42 v=79
50208 On ch=2 n=42 v=127
50208 On ch=3 n=59 v=96
50208 On ch=3 n=63 v=96
50208 On ch=3 n=68 v=96
50208 On ch=10 n=82 v=60
50220 Off ch=10 n=82 v=60
50220 Off ch=10 n=42 v=79
50254 Off ch=2 n=42 v=127
50256 Off ch=3 n=68 v=96
50256 Off ch=3 n=63 v=96
50256 Off ch=3 n=59 v=96
50304 On ch=10 n=36 v=105
50304 On ch=2 n=40 v=127
50304 On ch=10 n=42 v=46
50304 On ch=10 n=82 v=56
50316 Off ch=10 n=82 v=56
50316 Off ch=10 n=42 v=46
50316 Off ch=10 n=36 v=105
50363 Off ch=2 n=40 v=127
50400 On ch=2 n=37 v=127
50400 On ch=10 n=42 v=74
50400 On ch=10 n=82 v=60
50412 Off ch=10 n=82 v=60
50412 Off ch=10 n=42 v=74
50454 Off ch=2 n=37 v=127
50496 On ch=2 n=35 v=127
50496 On ch=10 n=40 v=113
50496 On ch=10 n=42 v=46
50496 On ch=10 n=82 v=64
50508 Off ch=10 n=82 v=64
50508 Off ch=10 n=42 v=46
50508 Off ch=10 n=40 v=113
50561 Off ch=2 n=35 v=127
50592 On ch=2 n=37 v=127
50592 On ch=10 n=46 v=99
50592 On ch=10 n=82 v=64
50604 Off ch=10 n=82 v=64
50604 Off ch=10 n=46 v=99
50643 Off ch=2 n=37 v=127
50688 On ch=10 n=36 v=105
50688 On ch=10 n=42 v=42
50688 On ch=2 n=42 v=127
50688 On ch=3 n=57 v=96
50688 On ch=3 n=61 v=96
50688 On ch=3 n=66 v=96
50688 On ch=10 n=82 v=66
50691 On ch=11 n=61 v=127
50691 On ch=7 n=61 v=124
50700 Off ch=10 n=82 v=66
50700 Off ch=10 n=42 v=42
50700 Off ch=10 n=36 v=105
50736 Off ch=3 n=57 v=96
50736 Off ch=3 n=61 v=96
50736 Off ch=3 n=66 v=96
50738 Off ch=2 n=42 v=127
50784 On ch=2 n=37 v=127
50784 On ch=10 n=42 v=69
50784 On ch=10 n=82 v=64
50796 Off ch=10 n=82 v=64
50796 Off ch=10 n=42 v=69
50836 Off ch=2 n=37 v=127
50880 On ch=10 n=40 v=112
50880 On ch=2 n=40 v=127
50880 On ch=10 n=42 v=54
50880 On ch=10 n=82 v=62
50885 On ch=4 n=61 v=127
50892 Off ch=10 n=82 v=62
50892 Off ch=10 n=42 v=54
50892 Off ch=10 n=40 v=112
50935 Off ch=2 n=40 v=127
50952 Off ch=4 n=61 v=127
50971 On ch=4 n=61 v=118
50976 On ch=10 n=42 v=74
50976 On ch=2 n=42 v=127
50976 On ch=3 n=59 v=96
50976 On ch=3 n=63 v=96
50976 On ch=3 n=68 v=96
50976 On ch=10 n=82 v=64
50988 Off ch=10 n=82 v=64
50988 Off ch=10 n=42 v=74
51024 Off ch=3 n=68 v=96
51024 Off ch=3 n=63 v=96
51024 Off ch=3 n=59 v=96
51027 Off ch=2 n=42 v=127
51068 Off ch=4 n=61 v=118
51072 On ch=10 n=36 v=105
51072 On ch=2 n=40 v=127
51072 On ch=10 n=42 v=57
51072 On ch=10 n=82 v=64
51072 Off ch=11 n=61 v=127
51079 On ch=4 n=61 v=127
51084 Off ch=10 n=82 v=64
51084 Off ch=10 n=42 v=57
51084 Off ch=10 n=36 v=105
51128 Off ch=2 n=40 v=127
51148 Off ch=4 n=61 v=127
51168 On ch=2 n=37 v=127
51168 On ch=10 n=42 v=69
51168 On ch=10 n=82 v=68
51169 On ch=4 n=59 v=123
51180 Off ch=10 n=82 v=68
51180 Off ch=10 n=42 v=69
51219 Off ch=2 n=37 v=127
51247 Off ch=4 n=59 v=123
51264 On ch=2 n=35 v=127
51264 On ch=10 n=40 v=113
51264 On ch=10 n=42 v=57
51264 On ch=10 n=82 v=62
51271 On ch=4 n=57 v=109
51276 Off ch=10 n=82 v=62
51276 Off ch=10 n=42 v=57
51276 Off ch=10 n=40 v=113
51325 Off ch=2 n=35 v=127
51348 Off ch=4 n=57 v=109
51360 On ch=2 n=37 v=127
51360 On ch=10 n=42 v=79
51360 On ch=10 n=82 v=64
51372 Off ch=10 n=82 v=64
51372 Off ch=10 n=42 v=79
51373 On ch=4 n=59 v=127
51414 Off ch=2 n=37 v=127
51456 On ch=10 n=36 v=105
51456 On ch=10 n=42 v=54
51456 On ch=2 n=42 v=127
51456 On ch=3 n=61 v=96
51456 On ch=3 n=64 v=96
51456 On ch=3 n=69 v=96
51456 On ch=10 n=82 v=62
51468 Off ch=10 n=82 v=62
51468 Off ch=10 n=42 v=54
51468 Off ch=10 n=36 v=105
51503 Off ch=2 n=42 v=127
51504 Off ch=3 n=69 v=96
51504 Off ch=3 n=64 v=96
51504 Off ch=3 n=61 v=96
51527 Off ch=4 n=59 v=127
51552 On ch=2 n=37 v=127
51552 On ch=10 n=42 v=69
51552 On ch=10 n=82 v=55
51564 Off ch=10 n=82 v=55
51564 Off ch=10 n=42 v=69
51565 On ch=4 n=57 v=91
51600 Off ch=2 n=37 v=127
51626 Off ch=4 n=57 v=91
51648 On ch=10 n=40 v=113
51648 On ch=2 n=40 v=127
51648 On ch=10 n=42 v=49
51648 On ch=10 n=82 v=55
51658 On ch=4 n=61 v=127
51660 Off ch=10 n=82 v=55
51660 Off ch=10 n=42 v=49
51660 Off ch=10 n=40 v=113
51701 Off ch=2 n=40 v=127
51724 Off ch=4 n=61 v=127
51744 On ch=10 n=42 v=79
51744 On ch=2 n=42 v=127
51744 On ch=3 n=59 v=96
51744 On ch=3 n=63 v=96
51744 On ch=3 n=68 v=96
51744 On ch=10 n=82 v=51
51756 Off ch=10 n=82 v=51
51756 Off ch=10 n=42 v=79
51756 On ch=4 n=57 v=119
51786 Off ch=4 n=57 v=119
51790 Off ch=2 n=42 v=127
51792 Off ch=3 n=68 v=96
51792 Off ch=3 n=63 v=96
51792 Off ch=3 n=59 v=96
51804 On ch=4 n=57 v=78
51826 On ch=11 n=63 v=127
51826 Off ch=7 n=61 v=124
51826 On ch=7 n=63 v=124
51836 Off ch=4 n=57 v=78
51840 On ch=10 n=36 v=105
51840 On ch=2 n=40 v=127
51840 On ch=10 n=42 v=46
51840 On ch=10 n=82 v=58
51852 Off ch=10 n=82 v=58
51852 Off ch=10 n=42 v=46
51852 Off ch=10 n=36 v=105
51855 On ch=4 n=59 v=127
51899 Off ch=2 n=40 v=127
51918 Off ch=4 n=59 v=127
51936 On ch=2 n=37 v=127
51936 On ch=10 n=42 v=74
51936 On ch=10 n=82 v=47
51944 On ch=4 n=57 v=127
51948 Off ch=10 n=82 v=47
51948 Off ch=10 n=42 v=74
51990 Off ch=2 n=37 v=127
52010 Off ch=11 n=63 v=127
52013 Off ch=4 n=57 v=127
52025 On ch=11 n=59 v=127
52025 On ch=7 n=59 v=124
52025 Off ch=7 n=63 v=124
52032 On ch=2 n=35 v=127
52032 On ch=10 n=40 v=113
52032 On ch=10 n=42 v=46
52032 On ch=10 n=82 v=62
52036 On ch=4 n=61 v=127
52044 Off ch=10 n=82 v=62
52044 Off ch=10 n=42 v=46
52044 Off ch=10 n=40 v=113
52097 Off ch=2 n=35 v=127
52128 On ch=2 n=37 v=127
52128 On ch=10 n=42 v=79
52128 On ch=10 n=82 v=58
52140 Off ch=10 n=82 v=58
52140 Off ch=10 n=42 v=79
52158 Off ch=4 n=61 v=127
52179 Off ch=2 n=37 v=127
52209 Off ch=11 n=59 v=127
52217 On ch=11 n=61 v=127
52217 Off ch=7 n=59 v=124
52217 On ch=7 n=61 v=124
52224 On ch=10 n=36 v=105
52224 On ch=10 n=42 v=42
52224 On ch=2 n=42 v=127
52224 On ch=3 n=57 v=96
52224 On ch=3 n=61 v=96
52224 On ch=3 n=66 v=96
52224 On ch=10 n=82 v=56
52236 Off ch=10 n=82 v=56
52236 Off ch=10 n=42 v=42
52236 Off ch=10 n=36 v=105
52272 Off ch=3 n=66 v=96
52272 Off ch=3 n=61 v=96
52272 Off ch=3 n=57 v=96
52274 Off ch=2 n=42 v=127
52320 On ch=2 n=37 v=127
52320 On ch=10 n=42 v=69
52320 On ch=10 n=82 v=46
52326 On ch=4 n=61 v=127
52332 Off ch=10 n=82 v=46
52332 Off ch=10 n=42 v=69
52372 Off ch=2 n=37 v=127
52404 Off ch=4 n=61 v=127
52416 On ch=10 n=40 v=112
52416 On ch=2 n=40 v=127
52416 On ch=10 n=42 v=54
52416 On ch=10 n=82 v=64
52421 On ch=4 n=61 v=127
52428 Off ch=10 n=82 v=64
52428 Off ch=10 n=42 v=54
52428 Off ch=10 n=40 v=112
52471 Off ch=2 n=40 v=127
52504 Off ch=4 n=61 v=127
52512 On ch=10 n=42 v=74
52512 On ch=2 n=42 v=127
52512 On ch=3 n=59 v=96
52512 On ch=3 n=63 v=96
52512 On ch=3 n=68 v=96
52512 On ch=10 n=82 v=53
52513 On ch=4 n=61 v=127
52524 Off ch=10 n=82 v=53
52524 Off ch=10 n=42 v=74
52560 Off ch=3 n=68 v=96
52560 Off ch=3 n=63 v=96
52560 Off ch=3 n=59 v=96
52563 Off ch=2 n=42 v=127
52605 Off ch=4 n=61 v=127
52608 On ch=10 n=36 v=105
52608 On ch=2 n=40 v=127
52608 On ch=10 n=42 v=57
52608 On ch=10 n=82 v=62
52620 Off ch=10 n=82 v=62
52620 Off ch=10 n=42 v=57
52620 Off ch=10 n=36 v=105
52620 On ch=4 n=61 v=127
52621 Off ch=11 n=61 v=127
52664 Off ch=2 n=40 v=127
52695 Off ch=4 n=61 v=127
52704 On ch=2 n=37 v=127
52704 On ch=10 n=42 v=69
52704 On ch=10 n=82 v=60
52713 On ch=4 n=59 v=127
52716 Off ch=10 n=82 v=60
52716 Off ch=10 n=42 v=69
52755 Off ch=2 n=37 v=127
52784 Off ch=4 n=59 v=127
52800 On ch=2 n=35 v=127
52800 On ch=10 n=40 v=113
52800 On ch=10 n=42 v=57
52800 On ch=10 n=82 v=68
52806 On ch=4 n=57 v=127
52812 Off ch=10 n=82 v=68
52812 Off ch=10 n=42 v=57
52812 Off ch=10 n=40 v=113
52861 Off ch=2 n=35 v=127
52883 Off ch=4 n=57 v=127
52896 On ch=2 n=37 v=127
52896 On ch=10 n=42 v=79
52896 On ch=10 n=82 v=50
52905 On ch=4 n=59 v=127
52908 Off ch=10 n=82 v=50
52908 Off ch=10 n=42 v=79
52950 Off ch=2 n=37 v=127
52980 Off ch=4 n=59 v=127
52992 On ch=10 n=36 v=105
52992 On ch=10 n=42 v=54
52992 On ch=2 n=42 v=127
52992 On ch=3 n=61 v=96
52992 On ch=3 n=64 v=96
52992 On ch=3 n=69 v=96
52992 On ch=10 n=82 v=68
53002 On ch=4 n=57 v=127
53004 Off ch=10 n=82 v=68
53004 Off ch=10 n=42 v=54
53004 Off ch=10 n=36 v=105
53039 Off ch=2 n=42 v=127
53040 Off ch=3 n=69 v=96
53040 Off ch=3 n=64 v=96
53040 Off ch=3 n=61 v=96
53057 Off ch=4 n=57 v=127
53088 On ch=2 n=37 v=127
53088 On ch=10 n=42 v=69
53088 On ch=10 n=82 v=58
53092 On ch=4 n=61 v=127
53100 Off ch=10 n=82 v=58
53100 Off ch=10 n=42 v=69
53136 Off ch=2 n=37 v=127
53184 On ch=10 n=40 v=113
53184 On ch=2 n=40 v=127
53184 On ch=10 n=42 v=49
53184 On ch=10 n=82 v=66
53196 Off ch=10 n=82 v=66
53196 Off ch=10 n=42 v=49
53196 Off ch=10 n=40 v=113
53237 Off ch=2 n=40 v=127
53272 Off ch=4 n=61 v=127
53280 On ch=10 n=42 v=79
53280 On ch=2 n=42 v=127
53280 On ch=3 n=59 v=96
53280 On ch=3 n=63 v=96
53280 On ch=3 n=68 v=96
53280 On ch=10 n=82 v=60
53292 Off ch=10 n=82 v=60
53292 Off ch=10 n=42 v=79
53293 On ch=4 n=59 v=127
53326 Off ch=2 n=42 v=127
53328 Off ch=3 n=68 v=96
53328 Off ch=3 n=63 v=96
53328 Off ch=3 n=59 v=96
53346 On ch=7 n=59 v=124
53346 Off ch=7 n=61 v=124
53371 On ch=11 n=59 v=127
53376 On ch=10 n=36 v=105
53376 On ch=2 n=40 v=127
53376 On ch=10 n=42 v=46
53376 On ch=10 n=82 v=56
53388 Off ch=10 n=82 v=56
53388 Off ch=10 n=42 v=46
53388 Off ch=10 n=36 v=105
53435 Off ch=2 n=40 v=127
53460 Off ch=4 n=59 v=127
53472 On ch=2 n=37 v=127
53472 On ch=10 n=42 v=74
53472 On ch=10 n=82 v=60
53483 On ch=4 n=57 v=127
53484 Off ch=10 n=82 v=60
53484 Off ch=10 n=42 v=74
53526 Off ch=2 n=37 v=127
53551 Off ch=11 n=59 v=127
53559 Off ch=4 n=57 v=127
53561 On ch=11 n=57 v=119
53561 On ch=7 n=57 v=116
53561 Off ch=7 n=59 v=124
53568 On ch=2 n=35 v=127
53568 On ch=10 n=40 v=113
53568 On ch=10 n=42 v=46
53568 On ch=10 n=82 v=64
53580 Off ch=10 n=82 v=64
53580 Off ch=10 n=42 v=46
53580 Off ch=10 n=40 v=113
53584 On ch=4 n=56 v=127
53633 Off ch=2 n=35 v=127
53659 Off ch=4 n=56 v=127
53664 On ch=2 n=37 v=127
53664 On ch=10 n=42 v=79
53664 On ch=10 n=82 v=64
53676 Off ch=10 n=82 v=64
53676 Off ch=10 n=42 v=79
53685 On ch=4 n=54 v=127
53715 Off ch=2 n=37 v=127
53749 Off ch=11 n=57 v=119
53760 On ch=10 n=36 v=105
53760 On ch=10 n=42 v=42
53760 On ch=2 n=47 v=127
53760 On ch=11 n=54 v=127
53760 On ch=7 n=54 v=124
53760 On ch=10 n=82 v=66
53760 Off ch=7 n=57 v=116
53760 Off ch=4 n=54 v=127
53760 On ch=3 n=57 v=96
53760 On ch=3 n=62 v=96
53760 On ch=3 n=66 v=96
53772 Off ch=10 n=82 v=66
53772 Off ch=10 n=42 v=42
53772 Off ch=10 n=36 v=105
53808 Off ch=3 n=66 v=96
53808 Off ch=3 n=57 v=96
53808 Off ch=3 n=62 v=96
53808 Off ch=2 n=47 v=127
53856 On ch=10 n=42 v=69
53856 On ch=2 n=42 v=127
53856 On ch=10 n=82 v=64
53868 Off ch=10 n=82 v=64
53868 Off ch=10 n=42 v=69
53891 Off ch=2 n=42 v=127
53952 On ch=10 n=40 v=112
53952 On ch=10 n=42 v=54
53952 On ch=2 n=45 v=127
53952 On ch=10 n=82 v=62
53964 Off ch=10 n=82 v=62
53964 Off ch=10 n=42 v=54
53964 Off ch=10 n=40 v=112
54004 Off ch=2 n=45 v=127
54048 On ch=10 n=42 v=74
54048 On ch=2 n=47 v=127
54048 On ch=3 n=57 v=96
54048 On ch=3 n=62 v=96
54048 On ch=3 n=66 v=96
54048 On ch=10 n=82 v=64
54060 Off ch=10 n=82 v=64
54060 Off ch=10 n=42 v=74
54096 Off ch=3 n=62 v=96
54096 Off ch=3 n=66 v=96
54096 Off ch=3 n=57 v=96
54118 Off ch=2 n=47 v=127
54144 On ch=10 n=36 v=105
54144 On ch=10 n=42 v=57
54144 On ch=10 n=82 v=64
54156 Off ch=10 n=82 v=64
54156 Off ch=10 n=42 v=57
54156 Off ch=10 n=36 v=105
54156 Off ch=11 n=54 v=127
54240 On ch=10 n=42 v=69
54240 On ch=2 n=42 v=127
54240 On ch=10 n=82 v=68
54252 Off ch=10 n=82 v=68
54252 Off ch=10 n=42 v=69
54296 Off ch=2 n=42 v=127
54336 On ch=10 n=40 v=113
54336 On ch=2 n=40 v=127
54336 On ch=10 n=42 v=57
54336 On ch=10 n=82 v=62
54337 On ch=4 n=54 v=127
54348 Off ch=10 n=82 v=62
54348 Off ch=10 n=42 v=57
54348 Off ch=10 n=40 v=113
54380 Off ch=4 n=54 v=127
54389 On ch=4 n=56 v=70
54396 Off ch=2 n=40 v=127
54418 Off ch=4 n=56 v=70
54432 On ch=10 n=42 v=79
54432 On ch=2 n=42 v=127
54432 On ch=10 n=82 v=64
54435 On ch=4 n=54 v=127
54444 Off ch=10 n=82 v=64
54444 Off ch=10 n=42 v=79
54484 Off ch=2 n=42 v=127
54528 On ch=10 n=36 v=105
54528 On ch=10 n=42 v=54
54528 On ch=2 n=47 v=127
54528 On ch=3 n=57 v=96
54528 On ch=3 n=62 v=96
54528 On ch=3 n=66 v=96
54528 On ch=10 n=82 v=62
54540 Off ch=10 n=82 v=62
54540 Off ch=10 n=42 v=54
54540 Off ch=10 n=36 v=105
54548 Off ch=4 n=54 v=127
54576 Off ch=3 n=66 v=96
54576 Off ch=3 n=62 v=96
54576 Off ch=3 n=57 v=96
54577 Off ch=2 n=47 v=127
54624 On ch=10 n=42 v=69
54624 On ch=2 n=42 v=127
54624 On ch=10 n=82 v=55
54636 Off ch=10 n=82 v=55
54636 Off ch=10 n=42 v=69
54674 Off ch=2 n=42 v=127
54720 On ch=10 n=40 v=113
54720 On ch=10 n=42 v=49
54720 On ch=2 n=45 v=127
54720 On ch=10 n=82 v=55
54725 On ch=4 n=54 v=127
54732 Off ch=10 n=82 v=55
54732 Off ch=10 n=42 v=49
54732 Off ch=10 n=40 v=113
54763 Off ch=4 n=54 v=127
54777 Off ch=2 n=45 v=127
54778 On ch=4 n=56 v=116
54799 Off ch=4 n=56 v=116
54816 On ch=10 n=42 v=79
54816 On ch=2 n=47 v=127
54816 On ch=3 n=57 v=96
54816 On ch=3 n=62 v=96
54816 On ch=3 n=66 v=96
54816 On ch=10 n=82 v=51
54824 On ch=4 n=54 v=127
54828 Off ch=10 n=82 v=51
54828 Off ch=10 n=42 v=79
54864 Off ch=3 n=66 v=96
54864 Off ch=3 n=62 v=96
54864 Off ch=3 n=57 v=96
54884 Off ch=2 n=47 v=127
54912 On ch=10 n=36 v=105
54912 On ch=10 n=42 v=46
54912 On ch=10 n=82 v=58
54924 Off ch=10 n=82 v=58
54924 Off ch=10 n=42 v=46
54924 Off ch=10 n=36 v=105
54943 Off ch=4 n=54 v=127
55008 On ch=10 n=42 v=74
55008 On ch=2 n=42 v=127
55008 On ch=10 n=82 v=47
55020 Off ch=10 n=82 v=47
55020 Off ch=10 n=42 v=74
55071 Off ch=2 n=42 v=127
55104 On ch=10 n=40 v=113
55104 On ch=2 n=40 v=127
55104 On ch=10 n=42 v=46
55104 On ch=10 n=82 v=62
55106 On ch=4 n=54 v=127
55116 Off ch=10 n=82 v=62
55116 Off ch=10 n=42 v=46
55116 Off ch=10 n=40 v=113
55139 Off ch=4 n=54 v=127
55160 On ch=4 n=56 v=90
55164 Off ch=2 n=40 v=127
55188 Off ch=4 n=56 v=90
55200 On ch=2 n=37 v=127
55200 On ch=10 n=42 v=79
55200 On ch=10 n=82 v=58
55205 On ch=4 n=54 v=127
55212 Off ch=10 n=82 v=58
55212 Off ch=10 n=42 v=79
55263 Off ch=2 n=37 v=127
55283 Off ch=7 n=54 v=124
55296 On ch=10 n=36 v=105
55296 On ch=10 n=42 v=42
55296 On ch=2 n=42 v=127
55296 On ch=3 n=57 v=96
55296 On ch=3 n=61 v=96
55296 On ch=3 n=66 v=96
55296 On ch=10 n=82 v=56
55308 Off ch=10 n=82 v=56
55308 Off ch=10 n=42 v=42
55308 Off ch=10 n=36 v=105
55310 Off ch=4 n=54 v=127
55344 Off ch=3 n=57 v=96
55344 Off ch=3 n=61 v=96
55344 Off ch=3 n=66 v=96
55346 Off ch=2 n=42 v=127
55392 On ch=2 n=37 v=127
55392 On ch=10 n=42 v=69
55392 On ch=10 n=82 v=46
55404 Off ch=10 n=82 v=46
55404 Off ch=10 n=42 v=69
55444 Off ch=2 n=37 v=127
55488 On ch=10 n=40 v=112
55488 On ch=2 n=40 v=127
55488 On ch=10 n=42 v=54
55488 On ch=10 n=82 v=64
55500 Off ch=10 n=82 v=64
55500 Off ch=10 n=42 v=54
55500 Off ch=10 n=40 v=112
55543 Off ch=2 n=40 v=127
55584 On ch=10 n=42 v=74
55584 On ch=2 n=42 v=127
55584 On ch=3 n=59 v=96
55584 On ch=3 n=63 v=96
55584 On ch=3 n=68 v=96
55584 On ch=10 n=82 v=53
55596 Off ch=10 n=82 v=53
55596 Off ch=10 n=42 v=74
55632 Off ch=3 n=68 v=96
55632 Off ch=3 n=63 v=96
55632 Off ch=3 n=59 v=96
55635 Off ch=2 n=42 v=127
55680 On ch=10 n=36 v=105
55680 On ch=2 n=40 v=127
55680 On ch=10 n=42 v=57
55680 On ch=10 n=82 v=62
55692 Off ch=10 n=82 v=62
55692 Off ch=10 n=42 v=57
55692 Off ch=10 n=36 v=105
55736 Off ch=2 n=40 v=127
55776 On ch=2 n=37 v=127
55776 On ch=10 n=42 v=69
55776 On ch=10 n=82 v=60
55788 Off ch=10 n=82 v=60
55788 Off ch=10 n=42 v=69
55827 Off ch=2 n=37 v=127
55872 On ch=2 n=35 v=127
55872 On ch=10 n=40 v=113
55872 On ch=10 n=42 v=57
55872 On ch=10 n=82 v=68
55884 Off ch=10 n=82 v=68
55884 Off ch=10 n=42 v=57
55884 Off ch=10 n=40 v=113
55933 Off ch=2 n=35 v=127
55968 On ch=2 n=37 v=127
55968 On ch=10 n=42 v=79
55968 On ch=10 n=82 v=50
55980 Off ch=10 n=82 v=50
55980 Off ch=10 n=42 v=79
56022 Off ch=2 n=37 v=127
56064 On ch=10 n=36 v=105
56064 On ch=10 n=42 v=54
56064 On ch=2 n=42 v=127
56064 On ch=3 n=61 v=96
56064 On ch=3 n=64 v=96
56064 On ch=3 n=69 v=96
56064 On ch=10 n=82 v=68
56076 Off ch=10 n=82 v=68
56076 Off ch=10 n=42 v=54
56076 Off ch=10 n=36 v=105
56111 Off ch=2 n=42 v=127
56112 Off ch=3 n=69 v=96
56112 Off ch=3 n=64 v=96
56112 Off ch=3 n=61 v=96
56160 On ch=2 n=37 v=127
56160 On ch=10 n=42 v=69
56160 On ch=10 n=82 v=58
56172 Off ch=10 n=82 v=58
56172 Off ch=10 n=42 v=69
56208 Off ch=2 n=37 v=127
56256 On ch=10 n=40 v=113
56256 On ch=2 n=40 v=127
56256 On ch=10 n=42 v=49
56256 On ch=10 n=82 v=66
56268 Off ch=10 n=82 v=66
56268 Off ch=10 n=42 v=49
56268 Off ch=10 n=40 v=113
56309 Off ch=2 n=40 v=127
56352 On ch=10 n=42 v=79
56352 On ch=2 n=42 v=127
56352 On ch=3 n=59 v=96
56352 On ch=3 n=63 v=96
56352 On ch=3 n=68 v=96
56352 On ch=10 n=82 v=60
56364 Off ch=10 n=82 v=60
56364 Off ch=10 n=42 v=79
56398 Off ch=2 n=42 v=127
56400 Off ch=3 n=68 v=96
56400 Off ch=3 n=63 v=96
56400 Off ch=3 n=59 v=96
56448 On ch=10 n=36 v=105
56448 On ch=2 n=40 v=127
56448 On ch=10 n=42 v=46
56448 On ch=10 n=82 v=56
56460 Off ch=10 n=82 v=56
56460 Off ch=10 n=42 v=46
56460 Off ch=10 n=36 v=105
56507 Off ch=2 n=40 v=127
56544 On ch=2 n=37 v=127
56544 On ch=10 n=42 v=74
56544 On ch=10 n=82 v=60
56556 Off ch=10 n=82 v=60
56556 Off ch=10 n=42 v=74
56598 Off ch=2 n=37 v=127
56640 On ch=2 n=35 v=127
56640 On ch=10 n=40 v=113
56640 On ch=10 n=42 v=46
56640 On ch=10 n=82 v=64
56652 Off ch=10 n=82 v=64
56652 Off ch=10 n=42 v=46
56652 Off ch=10 n=40 v=113
56705 Off ch=2 n=35 v=127
56736 On ch=10 n=40 v=117
56736 On ch=10 n=46 v=100
56736 On ch=10 n=82 v=64
56736 Par ch=11 c=7 v=45
56736 On ch=2 n=37 v=127
56748 Off ch=10 n=82 v=64
56748 Off ch=10 n=46 v=100
56748 Off ch=10 n=40 v=117
56783 Off ch=2 n=37 v=127
56784 On ch=10 n=40 v=121
56796 Off ch=10 n=40 v=121
56800 Par ch=2 c=11 v=127
56800 Par ch=2 c=99 v=1
56800 Par ch=2 c=98 v=33
56803 Par ch=2 c=6 v=64
56832 On ch=10 n=36 v=105
56832 On ch=2 n=38 v=127
56832 On ch=10 n=42 v=42
56832 On ch=1 n=50 v=55
56832 On ch=1 n=57 v=47
56832 On ch=1 n=62 v=39
56832 On ch=4 n=66 v=118
56832 On ch=10 n=82 v=66
56833 On ch=7 n=78 v=90
56844 Off ch=10 n=82 v=66
56844 Off ch=10 n=42 v=42
56844 Off ch=10 n=36 v=105
56916 Off ch=4 n=66 v=118
56926 On ch=4 n=64 v=111
56928 On ch=10 n=42 v=69
56928 On ch=10 n=82 v=64
56940 Off ch=10 n=82 v=64
56940 Off ch=10 n=42 v=69
56958 Off ch=4 n=64 v=111
56972 On ch=4 n=66 v=127
57024 On ch=10 n=40 v=112
57024 On ch=10 n=42 v=54
57024 On ch=10 n=82 v=62
57036 Off ch=10 n=82 v=62
57036 Off ch=10 n=42 v=54
57036 Off ch=10 n=40 v=112
57058 Off ch=4 n=66 v=127
57072 On ch=4 n=64 v=64
57108 Off ch=4 n=64 v=64
57120 On ch=10 n=42 v=74
57120 On ch=10 n=82 v=64
57125 On ch=4 n=66 v=127
57132 Off ch=10 n=82 v=64
57132 Off ch=10 n=42 v=74
57138 Off ch=2 n=38 v=127
57168 On ch=2 n=38 v=127
57211 Off ch=2 n=38 v=127
57216 On ch=10 n=36 v=105
57216 On ch=2 n=38 v=127
57216 On ch=10 n=42 v=57
57216 On ch=10 n=82 v=64
57228 Off ch=10 n=82 v=64
57228 Off ch=10 n=42 v=57
57228 Off ch=10 n=36 v=105
57286 Off ch=4 n=66 v=127
57305 On ch=4 n=69 v=127
57312 On ch=10 n=42 v=69
57312 On ch=10 n=82 v=68
57312 Off ch=1 n=50 v=55
57312 On ch=1 n=52 v=97
57324 Off ch=10 n=82 v=68
57324 Off ch=10 n=42 v=69
57408 On ch=10 n=40 v=113
57408 On ch=10 n=42 v=57
57408 On ch=10 n=82 v=62
57420 Off ch=10 n=82 v=62
57420 Off ch=10 n=42 v=57
57420 Off ch=10 n=40 v=113
57456 On ch=1 n=50 v=97
57456 Off ch=1 n=52 v=97
57467 Off ch=2 n=38 v=127
57482 Off ch=4 n=69 v=127
57504 On ch=2 n=38 v=127
57504 On ch=10 n=42 v=79
57504 On ch=10 n=82 v=64
57506 On ch=4 n=66 v=127
57516 Off ch=10 n=82 v=64
57516 Off ch=10 n=42 v=79
57539 Pb ch=2 v=8192
57578 Pb ch=2 v=12160
57587 Pb ch=2 v=13440
57588 Off ch=4 n=66 v=127
57588 Off ch=1 n=62 v=39
57592 Off ch=1 n=57 v=47
57600 On ch=10 n=36 v=105
57600 On ch=10 n=42 v=54
57600 On ch=2 n=42 v=127
57600 On ch=1 n=49 v=83
57600 On ch=4 n=69 v=127
57600 On ch=10 n=82 v=62
57600 Off ch=1 n=50 v=97
57600 On ch=1 n=54 v=96
57603 Off ch=2 n=38 v=127
57611 Pb ch=2 v=8192
57612 Off ch=10 n=82 v=62
57612 Off ch=10 n=42 v=54
57612 Off ch=10 n=36 v=105
57683 Off ch=4 n=69 v=127
57692 On ch=4 n=66 v=127
57696 On ch=10 n=42 v=69
57696 On ch=10 n=82 v=55
57708 Off ch=10 n=82 v=55
57708 Off ch=10 n=42 v=69
57730 Off ch=4 n=66 v=127
57741 On ch=4 n=66 v=127
57792 On ch=10 n=40 v=113
57792 On ch=10 n=42 v=49
57792 On ch=10 n=82 v=55
57804 Off ch=10 n=82 v=55
57804 Off ch=10 n=42 v=49
57804 Off ch=10 n=40 v=113
57820 Off ch=4 n=66 v=127
57836 On ch=4 n=64 v=127
57869 Off ch=4 n=64 v=127
57882 On ch=4 n=66 v=127
57888 On ch=10 n=42 v=79
57888 On ch=10 n=82 v=51
57893 Off ch=2 n=42 v=127
57900 Off ch=10 n=82 v=51
57900 Off ch=10 n=42 v=79
57936 On ch=2 n=30 v=127
57960 Off ch=4 n=66 v=127
57976 Off ch=2 n=30 v=127
57984 On ch=2 n=30 v=127
57984 On ch=10 n=36 v=105
57984 On ch=10 n=42 v=46
57984 On ch=10 n=82 v=58
57996 Off ch=10 n=82 v=58
57996 Off ch=10 n=42 v=46
57996 Off ch=10 n=36 v=105
58063 Off ch=7 n=78 v=90
58067 On ch=7 n=80 v=97
58080 On ch=10 n=42 v=74
58080 On ch=10 n=82 v=47
58092 Off ch=10 n=82 v=47
58092 Off ch=10 n=42 v=74
58173 Off ch=7 n=80 v=97
58173 On ch=7 n=81 v=97
58176 On ch=10 n=40 v=113
58176 On ch=10 n=42 v=46
58176 On ch=10 n=52 v=99
58176 On ch=10 n=82 v=62
58187 Off ch=2 n=30 v=127
58188 Off ch=10 n=82 v=62
58188 Off ch=10 n=52 v=99
58188 Off ch=10 n=42 v=46
58188 Off ch=10 n=40 v=113
58271 On ch=7 n=85 v=97
58272 On ch=2 n=35 v=127
58272 On ch=10 n=46 v=99
58272 On ch=10 n=82 v=58
58272 Off ch=7 n=81 v=97
58277 On ch=4 n=61 v=126
58284 Off ch=10 n=82 v=58
58284 Off ch=10 n=46 v=99
58319 Off ch=4 n=61 v=126
58323 On ch=4 n=66 v=127
58360 Off ch=2 n=35 v=127
58364 Off ch=4 n=66 v=127
58368 On ch=10 n=36 v=105
58368 On ch=2 n=38 v=127
58368 On ch=10 n=42 v=42
58368 On ch=10 n=82 v=56
58368 Off ch=1 n=49 v=83
58368 On ch=1 n=50 v=45
58368 Off ch=1 n=54 v=96
58368 On ch=1 n=57 v=52
58368 On ch=1 n=62 v=85
58373 On ch=4 n=64 v=127
58380 Off ch=10 n=82 v=56
58380 Off ch=10 n=42 v=42
58380 Off ch=10 n=36 v=105
58384 On ch=7 n=78 v=90
58384 Off ch=7 n=85 v=97
58405 Off ch=4 n=64 v=127
58422 On ch=4 n=66 v=127
58454 Off ch=4 n=66 v=127
58464 On ch=10 n=42 v=69
58464 On ch=10 n=82 v=46
58468 On ch=4 n=66 v=127
58476 Off ch=10 n=82 v=46
58476 Off ch=10 n=42 v=69
58560 On ch=10 n=40 v=112
58560 On ch=10 n=42 v=54
58560 On ch=10 n=82 v=64
58572 Off ch=10 n=82 v=64
58572 Off ch=10 n=42 v=54
58572 Off ch=10 n=40 v=112
58653 Off ch=4 n=66 v=127
58656 On ch=10 n=42 v=74
58656 On ch=10 n=82 v=53
58658 Off ch=2 n=38 v=127
58665 On ch=4 n=66 v=127
58668 Off ch=10 n=82 v=53
58668 Off ch=10 n=42 v=74
58700 Off ch=4 n=66 v=127
58704 On ch=2 n=38 v=127
58717 On ch=4 n=64 v=127
58747 Off ch=4 n=64 v=127
58752 On ch=10 n=36 v=105
58752 On ch=10 n=42 v=57
58752 On ch=10 n=82 v=62
58752 Off ch=2 n=38 v=127
58752 On ch=2 n=38 v=127
58764 Off ch=10 n=82 v=62
58764 Off ch=10 n=42 v=57
58764 Off ch=10 n=36 v=105
58768 On ch=4 n=66 v=127
58832 Off ch=1 n=50 v=45
58848 On ch=10 n=42 v=69
58848 On ch=1 n=52 v=97
58848 On ch=10 n=82 v=60
58849 Off ch=4 n=66 v=127
58857 On ch=7 n=76 v=97
58857 Off ch=7 n=78 v=90
58860 Off ch=10 n=82 v=60
58860 Off ch=10 n=42 v=69
58873 On ch=4 n=68 v=127
58944 On ch=10 n=40 v=113
58944 On ch=10 n=42 v=57
58944 On ch=10 n=82 v=68
58956 Off ch=10 n=82 v=68
58956 Off ch=10 n=42 v=57
58956 Off ch=10 n=40 v=113
58992 On ch=1 n=50 v=97
58992 Off ch=1 n=52 v=97
58998 On ch=7 n=74 v=92
58998 Off ch=7 n=76 v=97
59012 Off ch=2 n=38 v=127
59027 Off ch=4 n=68 v=127
59040 On ch=2 n=38 v=127
59040 On ch=10 n=42 v=79
59040 On ch=10 n=82 v=50
59052 Off ch=10 n=82 v=50
59052 Off ch=10 n=42 v=79
59053 On ch=4 n=66 v=127
59079 Pb ch=2 v=9856
59084 Pb ch=2 v=11776
59119 Pb ch=2 v=16256
59120 Off ch=1 n=62 v=85
59124 Off ch=1 n=57 v=52
59135 Off ch=2 n=38 v=127
59136 On ch=10 n=36 v=105
59136 On ch=10 n=42 v=54
59136 On ch=2 n=42 v=127
59136 On ch=10 n=82 v=68
59136 Off ch=1 n=50 v=97
59136 On ch=1 n=54 v=87
59136 On ch=1 n=57 v=96
59144 On ch=7 n=73 v=83
59144 Off ch=7 n=74 v=92
59148 Off ch=10 n=82 v=68
59148 Off ch=10 n=42 v=54
59148 Off ch=10 n=36 v=105
59148 Pb ch=2 v=8192
59196 Off ch=4 n=66 v=127
59232 On ch=10 n=42 v=69
59232 On ch=10 n=82 v=58
59244 Off ch=10 n=82 v=58
59244 Off ch=10 n=42 v=69
59328 On ch=10 n=40 v=113
59328 On ch=10 n=42 v=49
59328 On ch=10 n=82 v=66
59340 Off ch=10 n=82 v=66
59340 Off ch=10 n=42 v=49
59340 Off ch=10 n=40 v=113
59424 On ch=10 n=42 v=79
59424 On ch=10 n=82 v=60
59434 Off ch=2 n=42 v=127
59436 Off ch=10 n=82 v=60
59436 Off ch=10 n=42 v=79
59472 On ch=2 n=30 v=127
59509 Off ch=2 n=30 v=127
59520 On ch=2 n=30 v=127
59520 On ch=10 n=36 v=105
59520 On ch=10 n=42 v=46
59520 On ch=10 n=82 v=56
59532 Off ch=10 n=82 v=56
59532 Off ch=10 n=42 v=46
59532 Off ch=10 n=36 v=105
59616 On ch=10 n=42 v=74
59616 On ch=10 n=82 v=60
59628 Off ch=10 n=82 v=60
59628 Off ch=10 n=42 v=74
59712 On ch=10 n=40 v=113
59712 On ch=10 n=42 v=46
59712 On ch=10 n=52 v=99
59712 On ch=10 n=82 v=64
59724 Off ch=10 n=82 v=64
59724 Off ch=10 n=52 v=99
59724 Off ch=10 n=42 v=46
59724 Off ch=10 n=40 v=113
59795 Off ch=2 n=30 v=127
59808 On ch=2 n=35 v=127
59808 On ch=10 n=46 v=99
59808 On ch=10 n=82 v=64
59811 On ch=4 n=64 v=127
59820 Off ch=10 n=82 v=64
59820 Off ch=10 n=46 v=99
59892 Off ch=4 n=64 v=127
59899 Off ch=2 n=35 v=127
59904 On ch=10 n=36 v=105
59904 On ch=2 n=38 v=127
59904 On ch=10 n=42 v=42
59904 On ch=1 n=50 v=64
59904 On ch=10 n=82 v=66
59904 Off ch=7 n=73 v=83
59904 On ch=7 n=78 v=90
59904 Off ch=1 n=54 v=87
59904 Off ch=1 n=57 v=96
59904 On ch=1 n=57 v=57
59904 On ch=1 n=62 v=71
59911 On ch=4 n=66 v=127
59916 Off ch=10 n=82 v=66
59916 Off ch=10 n=42 v=42
59916 Off ch=10 n=36 v=105
59985 Off ch=4 n=66 v=127
60000 On ch=10 n=42 v=69
60000 On ch=10 n=82 v=64
60004 On ch=4 n=64 v=127
60012 Off ch=10 n=82 v=64
60012 Off ch=10 n=42 v=69
60032 Off ch=4 n=64 v=127
60055 On ch=4 n=66 v=127
60096 On ch=10 n=40 v=112
60096 On ch=10 n=42 v=54
60096 On ch=10 n=82 v=62
60108 Off ch=10 n=82 v=62
60108 Off ch=10 n=42 v=54
60108 Off ch=10 n=40 v=112
60135 Off ch=4 n=66 v=127
60155 On ch=4 n=64 v=127
60189 Off ch=2 n=38 v=127
60191 Off ch=4 n=64 v=127
60192 On ch=10 n=42 v=74
60192 On ch=10 n=82 v=64
60204 Off ch=10 n=82 v=64
60204 Off ch=10 n=42 v=74
60204 On ch=4 n=66 v=127
60240 On ch=2 n=38 v=127
60278 Off ch=2 n=38 v=127
60288 On ch=10 n=36 v=105
60288 On ch=2 n=38 v=127
60288 On ch=10 n=42 v=57
60288 On ch=10 n=82 v=64
60300 Off ch=10 n=82 v=64
60300 Off ch=10 n=42 v=57
60300 Off ch=10 n=36 v=105
60304 Off ch=4 n=66 v=127
60317 On ch=4 n=66 v=127
60336 Off ch=1 n=50 v=64
60380 Off ch=4 n=66 v=127
60384 On ch=10 n=42 v=69
60384 On ch=1 n=52 v=97
60384 On ch=10 n=82 v=68
60396 Off ch=10 n=82 v=68
60396 Off ch=10 n=42 v=69
60480 On ch=10 n=40 v=113
60480 On ch=10 n=42 v=57
60480 On ch=10 n=82 v=62
60492 Off ch=10 n=82 v=62
60492 Off ch=10 n=42 v=57
60492 Off ch=10 n=40 v=113
60520 Off ch=2 n=38 v=127
60520 Off ch=1 n=52 v=97
60528 On ch=1 n=50 v=97
60570 On ch=4 n=66 v=127
60576 On ch=2 n=38 v=127
60576 On ch=10 n=42 v=79
60576 On ch=10 n=82 v=64
60588 Off ch=10 n=82 v=64
60588 Off ch=10 n=42 v=79
60596 Off ch=4 n=66 v=127
60616 On ch=4 n=66 v=127
60617 Pb ch=2 v=11520
60631 Pb ch=2 v=15872
60647 Pb ch=2 v=16256
60656 Off ch=1 n=62 v=71
60657 Off ch=4 n=66 v=127
60660 Off ch=1 n=57 v=57
60668 On ch=4 n=69 v=127
60669 Off ch=2 n=38 v=127
60672 On ch=10 n=36 v=105
60672 On ch=10 n=42 v=54
60672 On ch=2 n=42 v=127
60672 On ch=1 n=49 v=84
60672 On ch=10 n=82 v=62
60672 Off ch=1 n=50 v=97
60672 On ch=1 n=54 v=90
60674 Pb ch=2 v=8192
60684 Off ch=10 n=82 v=62
60684 Off ch=10 n=42 v=54
60684 Off ch=10 n=36 v=105
60759 Off ch=4 n=69 v=127
60768 On ch=10 n=42 v=69
60768 On ch=10 n=82 v=55
60769 On ch=4 n=66 v=127
60780 Off ch=10 n=82 v=55
60780 Off ch=10 n=42 v=69
60810 Off ch=4 n=66 v=127
60822 On ch=4 n=66 v=127
60864 On ch=10 n=40 v=113
60864 On ch=10 n=42 v=49
60864 On ch=10 n=82 v=55
60876 Off ch=10 n=82 v=55
60876 Off ch=10 n=42 v=49
60876 Off ch=10 n=40 v=113
60910 Off ch=4 n=66 v=127
60929 On ch=4 n=64 v=127
60960 On ch=10 n=42 v=79
60960 On ch=10 n=82 v=51
60965 Off ch=4 n=64 v=127
60972 Off ch=10 n=82 v=51
60972 Off ch=10 n=42 v=79
60972 Off ch=2 n=42 v=127
60979 On ch=4 n=66 v=127
61008 On ch=2 n=30 v=127
61050 Off ch=2 n=30 v=127
61056 On ch=2 n=30 v=127
61056 On ch=10 n=36 v=105
61056 On ch=10 n=42 v=46
61056 On ch=10 n=82 v=58
61068 Off ch=10 n=82 v=58
61068 Off ch=10 n=42 v=46
61068 Off ch=10 n=36 v=105
61083 Off ch=4 n=66 v=127
61152 On ch=10 n=42 v=74
61152 On ch=10 n=82 v=47
61152 Off ch=1 n=49 v=84
61152 On ch=1 n=49 v=75
61152 Off ch=1 n=54 v=90
61152 On ch=1 n=54 v=79
61155 Off ch=7 n=78 v=90
61155 On ch=7 n=80 v=97
61164 Off ch=10 n=82 v=47
61164 Off ch=10 n=42 v=74
61248 On ch=10 n=40 v=113
61248 On ch=10 n=42 v=46
61248 On ch=10 n=52 v=99
61248 On ch=10 n=82 v=62
61257 Off ch=7 n=80 v=97
61257 On ch=7 n=81 v=97
61260 Off ch=10 n=82 v=62
61260 Off ch=10 n=52 v=99
61260 Off ch=10 n=42 v=46
61260 Off ch=10 n=40 v=113
61296 Off ch=2 n=30 v=127
61344 On ch=2 n=35 v=127
61344 On ch=10 n=46 v=99
61344 On ch=10 n=82 v=58
61346 On ch=4 n=61 v=127
61349 On ch=7 n=85 v=97
61351 Off ch=7 n=81 v=97
61356 Off ch=10 n=82 v=58
61356 Off ch=10 n=46 v=99
61381 Off ch=4 n=61 v=127
61396 On ch=4 n=66 v=127
61409 Pb ch=2 v=9984
61417 Pb ch=2 v=11648
61424 Pb ch=2 v=13824
61429 Off ch=4 n=66 v=127
61429 Pb ch=2 v=15104
61437 Off ch=2 n=35 v=127
61440 On ch=10 n=36 v=105
61440 On ch=2 n=38 v=127
61440 On ch=10 n=42 v=49
61440 On ch=10 n=82 v=56
61440 Off ch=1 n=54 v=79
61440 Off ch=1 n=49 v=75
61440 On ch=1 n=50 v=97
61440 On ch=1 n=57 v=97
61440 On ch=1 n=62 v=97
61442 On ch=4 n=62 v=127
61447 Pb ch=2 v=8192
61452 Off ch=10 n=82 v=56
61452 Off ch=10 n=42 v=49
61452 Off ch=10 n=36 v=105
61460 On ch=7 n=81 v=80
61460 Off ch=7 n=85 v=97
61462 On ch=7 n=78 v=77
61523 Off ch=4 n=62 v=127
61536 On ch=10 n=42 v=38
61536 On ch=10 n=82 v=46
61540 On ch=4 n=62 v=127
61548 Off ch=10 n=82 v=46
61548 Off ch=10 n=42 v=38
61568 Off ch=4 n=62 v=127
61583 On ch=4 n=62 v=127
61625 Off ch=4 n=62 v=127
61632 On ch=10 n=40 v=112
61632 On ch=10 n=42 v=51
61632 On ch=10 n=82 v=64
61635 On ch=4 n=62 v=127
61644 Off ch=10 n=82 v=64
61644 Off ch=10 n=42 v=51
61644 Off ch=10 n=40 v=112
61683 On ch=4 n=64 v=127
61684 Off ch=4 n=62 v=127
61719 Off ch=2 n=38 v=127
61728 On ch=10 n=46 v=89
61728 On ch=10 n=82 v=53
61740 Off ch=10 n=82 v=53
61740 Off ch=10 n=46 v=89
61776 On ch=2 n=38 v=127
61792 Off ch=1 n=50 v=97
61795 Off ch=1 n=57 v=97
61799 Off ch=1 n=62 v=97
61822 Off ch=4 n=64 v=127
61824 On ch=10 n=36 v=105
61824 On ch=10 n=42 v=59
61824 On ch=10 n=82 v=62
61824 Off ch=2 n=38 v=127
61824 On ch=2 n=38 v=127
61824 On ch=1 n=50 v=37
61824 On ch=1 n=57 v=62
61824 On ch=1 n=62 v=50
61836 Off ch=10 n=82 v=62
61836 Off ch=10 n=42 v=59
61836 Off ch=10 n=36 v=105
61836 On ch=4 n=66 v=127
61899 Off ch=1 n=57 v=62
61900 Off ch=1 n=50 v=37
61900 Off ch=1 n=62 v=50
61920 On ch=10 n=42 v=36
61920 On ch=1 n=50 v=72
61920 On ch=1 n=57 v=70
61920 On ch=1 n=62 v=63
61920 On ch=10 n=82 v=60
61932 Off ch=10 n=82 v=60
61932 Off ch=10 n=42 v=36
61979 Off ch=2 n=38 v=127
61984 Off ch=1 n=50 v=72
61984 Off ch=1 n=62 v=63
61986 Off ch=1 n=57 v=70
62016 On ch=2 n=38 v=127
62016 On ch=10 n=40 v=113
62016 On ch=10 n=42 v=62
62016 On ch=1 n=50 v=81
62016 On ch=1 n=57 v=97
62016 On ch=1 n=62 v=82
62016 On ch=10 n=82 v=68
62028 Off ch=10 n=82 v=68
62028 Off ch=10 n=42 v=62
62028 Off ch=10 n=40 v=113
62039 Off ch=4 n=66 v=127
62080 Off ch=1 n=50 v=81
62083 Off ch=1 n=62 v=82
62085 Off ch=1 n=57 v=97
62106 Off ch=2 n=38 v=127
62109 On ch=4 n=66 v=127
62112 On ch=2 n=33 v=127
62112 On ch=10 n=46 v=94
62112 On ch=1 n=50 v=74
62112 On ch=1 n=57 v=97
62112 On ch=1 n=62 v=88
62112 On ch=10 n=82 v=50
62124 Off ch=10 n=82 v=50
62124 Off ch=10 n=46 v=94
62146 Off ch=7 n=81 v=80
62167 Off ch=1 n=62 v=88
62170 Off ch=1 n=57 v=97
62171 Off ch=1 n=50 v=74
62194 Off ch=4 n=66 v=127
62196 Off ch=2 n=33 v=127
62208 On ch=10 n=36 v=105
62208 On ch=2 n=37 v=127
62208 On ch=10 n=42 v=59
62208 On ch=1 n=49 v=97
62208 On ch=1 n=56 v=97
62208 On ch=1 n=59 v=97
62208 On ch=10 n=82 v=68
62209 On ch=4 n=65 v=127
62212 On ch=7 n=77 v=79
62212 Off ch=7 n=78 v=77
62215 On ch=7 n=80 v=79
62220 Off ch=10 n=82 v=68
62220 Off ch=10 n=42 v=59
62220 Off ch=10 n=36 v=105
62265 Off ch=2 n=37 v=127
62294 Off ch=4 n=65 v=127
62304 On ch=2 n=37 v=123
62304 On ch=10 n=46 v=94
62304 On ch=10 n=82 v=58
62309 On ch=4 n=65 v=127
62316 Off ch=10 n=82 v=58
62316 Off ch=10 n=46 v=94
62342 Off ch=4 n=65 v=127
62356 On ch=4 n=65 v=127
62391 Off ch=4 n=65 v=127
62396 Off ch=2 n=37 v=123
62400 On ch=2 n=37 v=127
62400 On ch=10 n=40 v=113
62400 On ch=10 n=42 v=56
62400 On ch=10 n=82 v=66
62407 On ch=4 n=65 v=127
62412 Off ch=10 n=82 v=66
62412 Off ch=10 n=42 v=56
62412 Off ch=10 n=40 v=113
62441 Off ch=4 n=65 v=127
62457 On ch=4 n=66 v=127
62473 Off ch=2 n=37 v=127
62496 On ch=2 n=37 v=127
62496 On ch=10 n=46 v=89
62496 On ch=10 n=82 v=60
62508 Off ch=10 n=82 v=60
62508 Off ch=10 n=46 v=89
62555 Off ch=2 n=37 v=127
62565 Off ch=7 n=77 v=79
62592 On ch=10 n=36 v=105
62592 On ch=2 n=37 v=127
62592 On ch=10 n=42 v=66
62592 On ch=10 n=82 v=56
62592 Off ch=4 n=66 v=127
62595 On ch=7 n=78 v=79
62604 Off ch=10 n=82 v=56
62604 Off ch=10 n=42 v=66
62604 Off ch=10 n=36 v=105
62605 On ch=4 n=68 v=127
62664 Off ch=2 n=37 v=127
62688 On ch=2 n=37 v=127
62688 On ch=10 n=46 v=94
62688 On ch=10 n=82 v=60
62700 Off ch=10 n=82 v=60
62700 Off ch=10 n=46 v=94
62710 Off ch=4 n=68 v=127
62755 Off ch=1 n=59 v=97
62755 Off ch=1 n=49 v=97
62757 Off ch=1 n=56 v=97
62761 Off ch=2 n=37 v=127
62784 On ch=2 n=37 v=127
62784 On ch=10 n=40 v=113
62784 On ch=10 n=42 v=62
62784 On ch=1 n=49 v=97
62784 On ch=10 n=52 v=92
62784 On ch=1 n=56 v=97
62784 On ch=1 n=59 v=97
62784 On ch=10 n=82 v=64
62792 On ch=7 n=77 v=79
62793 On ch=4 n=66 v=127
62793 Off ch=7 n=78 v=79
62796 Off ch=10 n=82 v=64
62796 Off ch=10 n=52 v=92
62796 Off ch=10 n=42 v=62
62796 Off ch=10 n=40 v=113
62836 Off ch=2 n=37 v=127
62856 Off ch=1 n=49 v=97
62857 Off ch=1 n=59 v=97
62861 Off ch=1 n=56 v=97
62863 Off ch=4 n=66 v=127
62880 On ch=2 n=37 v=127
62880 On ch=10 n=46 v=94
62880 On ch=10 n=82 v=64
62886 On ch=4 n=68 v=127
62892 Off ch=10 n=82 v=64
62892 Off ch=10 n=46 v=94
62927 Off ch=2 n=37 v=127
62928 Off ch=7 n=80 v=79
62943 Par ch=2 c=11 v=127
62947 Par ch=2 c=99 v=1
62948 Par ch=2 c=98 v=33
62950 Par ch=2 c=6 v=70
62953 Off ch=4 n=68 v=127
62968 Off ch=7 n=77 v=79
62976 On ch=10 n=36 v=105
62976 On ch=10 n=42 v=42
62976 On ch=2 n=42 v=127
62976 On ch=10 n=57 v=78
62976 On ch=3 n=57 v=73
62976 On ch=7 n=61 v=70
62976 On ch=3 n=61 v=73
62976 On ch=7 n=66 v=70
62976 On ch=3 n=66 v=73
62976 On ch=10 n=82 v=66
62988 Off ch=10 n=82 v=66
62988 Off ch=10 n=57 v=78
62988 Off ch=10 n=42 v=42
62988 Off ch=10 n=36 v=105
63026 Off ch=2 n=42 v=127
63072 On ch=2 n=37 v=127
63072 On ch=10 n=42 v=69
63072 On ch=10 n=82 v=64
63084 Off ch=10 n=82 v=64
63084 Off ch=10 n=42 v=69
63124 Off ch=2 n=37 v=127
63168 On ch=10 n=39 v=110
63168 On ch=10 n=40 v=112
63168 On ch=2 n=40 v=127
63168 On ch=10 n=42 v=54
63168 On ch=10 n=52 v=72
63168 On ch=10 n=82 v=62
63174 On ch=4 n=66 v=127
63180 Off ch=10 n=82 v=62
63180 Off ch=10 n=52 v=72
63180 Off ch=10 n=42 v=54
63180 Off ch=10 n=40 v=112
63180 Off ch=10 n=39 v=110
63216 Off ch=7 n=61 v=70
63216 Off ch=7 n=66 v=70
63216 Off ch=3 n=66 v=73
63216 Off ch=3 n=61 v=73
63216 Off ch=3 n=57 v=73
63223 Off ch=2 n=40 v=127
63231 Off ch=4 n=66 v=127
63256 On ch=4 n=66 v=127
63264 On ch=10 n=42 v=74
63264 On ch=2 n=42 v=127
63264 On ch=3 n=59 v=73
63264 On ch=7 n=63 v=70
63264 On ch=3 n=63 v=73
63264 On ch=7 n=68 v=70
63264 On ch=3 n=68 v=73
63264 On ch=10 n=82 v=64
63276 Off ch=10 n=82 v=64
63276 Off ch=10 n=42 v=74
63315 Off ch=2 n=42 v=127
63343 Off ch=4 n=66 v=127
63360 On ch=10 n=36 v=105
63360 On ch=2 n=40 v=127
63360 On ch=10 n=42 v=57
63360 On ch=10 n=82 v=64
63361 On ch=4 n=64 v=125
63372 Off ch=10 n=82 v=64
63372 Off ch=10 n=42 v=57
63372 Off ch=10 n=36 v=105
63416 Off ch=2 n=40 v=127
63456 On ch=2 n=37 v=127
63456 On ch=10 n=42 v=69
63456 On ch=10 n=82 v=68
63457 Off ch=4 n=64 v=125
63463 On ch=4 n=61 v=127
63468 Off ch=10 n=82 v=68
63468 Off ch=10 n=42 v=69
63506 Par ch=1 c=120 v=0
63507 Off ch=2 n=37 v=127
63552 On ch=2 n=35 v=127
63552 On ch=10 n=39 v=110
63552 On ch=10 n=40 v=113
63552 On ch=10 n=42 v=57
63552 On ch=10 n=82 v=62
63564 Off ch=10 n=82 v=62
63564 Off ch=10 n=42 v=57
63564 Off ch=10 n=40 v=113
63564 Off ch=10 n=39 v=110
63579 Par ch=1 c=123 v=0
63613 Off ch=2 n=35 v=127
63634 Off ch=4 n=61 v=127
63648 On ch=2 n=37 v=127
63648 On ch=10 n=42 v=79
63648 On ch=10 n=82 v=64
63648 Off ch=7 n=68 v=70
63648 Off ch=7 n=63 v=70
63648 Off ch=3 n=68 v=73
63648 Off ch=3 n=59 v=73
63648 Off ch=3 n=63 v=73
63656 On ch=4 n=61 v=127
63660 Off ch=10 n=82 v=64
63660 Off ch=10 n=42 v=79
63702 Off ch=2 n=37 v=127
63729 Off ch=4 n=61 v=127
63744 On ch=10 n=36 v=105
63744 On ch=10 n=42 v=54
63744 On ch=2 n=42 v=127
63744 On ch=3 n=61 v=73
63744 On ch=7 n=64 v=70
63744 On ch=3 n=64 v=73
63744 On ch=7 n=69 v=70
63744 On ch=3 n=69 v=73
63744 On ch=10 n=82 v=62
63756 Off ch=10 n=82 v=62
63756 Off ch=10 n=42 v=54
63756 Off ch=10 n=36 v=105
63756 On ch=4 n=66 v=127
63791 Off ch=2 n=42 v=127
63809 Off ch=4 n=66 v=127
63840 On ch=2 n=37 v=127
63840 On ch=10 n=42 v=69
63840 On ch=10 n=82 v=55
63849 On ch=4 n=66 v=127
63852 Off ch=10 n=82 v=55
63852 Off ch=10 n=42 v=69
63888 Off ch=2 n=37 v=127
63929 Off ch=4 n=66 v=127
63936 On ch=10 n=39 v=110
63936 On ch=10 n=40 v=113
63936 On ch=2 n=40 v=127
63936 On ch=10 n=42 v=49
63936 On ch=10 n=82 v=55
63948 Off ch=10 n=82 v=55
63948 Off ch=10 n=42 v=49
63948 Off ch=10 n=40 v=113
63948 Off ch=10 n=39 v=110
63982 Off ch=7 n=69 v=70
63984 Off ch=7 n=64 v=70
63984 Off ch=3 n=61 v=73
63984 Off ch=3 n=64 v=73
63984 Off ch=3 n=69 v=73
63989 Off ch=2 n=40 v=127
64029 On ch=4 n=64 v=120
64032 On ch=10 n=42 v=79
64032 On ch=2 n=42 v=127
64032 On ch=3 n=59 v=73
64032 On ch=7 n=63 v=70
64032 On ch=3 n=63 v=73
64032 On ch=7 n=68 v=70
64032 On ch=3 n=68 v=73
64032 On ch=10 n=82 v=51
64044 Off ch=10 n=82 v=51
64044 Off ch=10 n=42 v=79
64078 Off ch=2 n=42 v=127
64128 On ch=10 n=36 v=105
64128 On ch=2 n=40 v=127
64128 On ch=10 n=42 v=46
64128 On ch=10 n=82 v=58
64140 Off ch=10 n=82 v=58
64140 Off ch=10 n=42 v=46
64140 Off ch=10 n=36 v=105
64187 Off ch=2 n=40 v=127
64211 Off ch=4 n=64 v=120
64224 On ch=2 n=37 v=127
64224 On ch=10 n=42 v=74
64224 On ch=4 n=61 v=127
64224 On ch=10 n=82 v=47
64236 Off ch=10 n=82 v=47
64236 Off ch=10 n=42 v=74
64272 On ch=10 n=45 v=97
64278 Off ch=2 n=37 v=127
64284 Off ch=10 n=45 v=97
64320 On ch=2 n=35 v=127
64320 On ch=10 n=39 v=110
64320 On ch=10 n=40 v=113
64320 On ch=10 n=42 v=46
64320 On ch=10 n=43 v=103
64320 On ch=10 n=82 v=62
64332 Off ch=10 n=82 v=62
64332 Off ch=10 n=43 v=103
64332 Off ch=10 n=42 v=46
64332 Off ch=10 n=40 v=113
64332 Off ch=10 n=39 v=110
64372 Off ch=7 n=63 v=70
64373 Off ch=7 n=68 v=70
64385 Off ch=2 n=35 v=127
64413 Off ch=4 n=61 v=127
64416 On ch=2 n=37 v=127
64416 On ch=10 n=42 v=79
64416 On ch=10 n=82 v=58
64416 Off ch=3 n=68 v=73
64416 Off ch=3 n=63 v=73
64416 Off ch=3 n=59 v=73
64428 Off ch=10 n=82 v=58
64428 Off ch=10 n=42 v=79
64467 Off ch=2 n=37 v=127
64512 On ch=10 n=36 v=105
64512 On ch=10 n=42 v=42
64512 On ch=2 n=42 v=127
64512 On ch=3 n=57 v=73
64512 On ch=7 n=61 v=70
64512 On ch=3 n=61 v=73
64512 On ch=7 n=66 v=70
64512 On ch=3 n=66 v=73
64512 On ch=10 n=82 v=56
64524 Off ch=10 n=82 v=56
64524 Off ch=10 n=42 v=42
64524 Off ch=10 n=36 v=105
64562 Off ch=2 n=42 v=127
64606 On ch=4 n=66 v=127
64608 On ch=2 n=37 v=127
64608 On ch=10 n=42 v=69
64608 On ch=10 n=82 v=46
64620 Off ch=10 n=82 v=46
64620 Off ch=10 n=42 v=69
64660 Off ch=2 n=37 v=127
64689 Off ch=4 n=66 v=127
64704 On ch=10 n=39 v=110
64704 On ch=10 n=40 v=112
64704 On ch=2 n=40 v=127
64704 On ch=10 n=42 v=54
64704 On ch=10 n=82 v=64
64706 On ch=4 n=66 v=127
64716 Off ch=10 n=82 v=64
64716 Off ch=10 n=42 v=54
64716 Off ch=10 n=40 v=112
64716 Off ch=10 n=39 v=110
64750 Off ch=7 n=61 v=70
64752 Off ch=7 n=66 v=70
64752 Off ch=3 n=66 v=73
64752 Off ch=3 n=57 v=73
64752 Off ch=3 n=61 v=73
64759 Off ch=2 n=40 v=127
64789 Off ch=4 n=66 v=127
64800 On ch=10 n=42 v=74
64800 On ch=2 n=42 v=127
64800 On ch=3 n=59 v=73
64800 On ch=7 n=63 v=70
64800 On ch=3 n=63 v=73
64800 On ch=7 n=68 v=70
64800 On ch=3 n=68 v=73
64800 On ch=10 n=82 v=53
64804 On ch=4 n=66 v=127
64812 Off ch=10 n=82 v=53
64812 Off ch=10 n=42 v=74
64851 Off ch=2 n=42 v=127
64884 Off ch=4 n=66 v=127
64896 On ch=10 n=36 v=105
64896 On ch=2 n=40 v=127
64896 On ch=10 n=42 v=57
64896 On ch=10 n=82 v=62
64908 Off ch=10 n=82 v=62
64908 Off ch=10 n=42 v=57
64908 Off ch=10 n=36 v=105
64908 On ch=4 n=64 v=127
64952 Off ch=2 n=40 v=127
64989 Off ch=4 n=64 v=127
64992 On ch=2 n=37 v=127
64992 On ch=10 n=42 v=69
64992 On ch=10 n=82 v=60
64999 On ch=4 n=61 v=127
65004 Off ch=10 n=82 v=60
65004 Off ch=10 n=42 v=69
65043 Off ch=2 n=37 v=127
65072 Off ch=4 n=61 v=127
65088 On ch=2 n=35 v=127
65088 On ch=10 n=39 v=110
65088 On ch=10 n=40 v=113
65088 On ch=10 n=42 v=57
65088 On ch=10 n=82 v=68
65092 On ch=4 n=61 v=127
65093 Off ch=7 n=68 v=70
65098 Off ch=7 n=63 v=70
65100 Off ch=10 n=82 v=68
65100 Off ch=10 n=42 v=57
65100 Off ch=10 n=40 v=113
65100 Off ch=10 n=39 v=110
65149 Off ch=2 n=35 v=127
65184 On ch=2 n=37 v=127
65184 On ch=10 n=42 v=79
65184 On ch=10 n=82 v=50
65184 Off ch=3 n=59 v=73
65184 Off ch=3 n=63 v=73
65184 Off ch=3 n=68 v=73
65191 Off ch=4 n=61 v=127
65196 Off ch=10 n=82 v=50
65196 Off ch=10 n=42 v=79
65238 Off ch=2 n=37 v=127
65280 On ch=10 n=36 v=105
65280 On ch=10 n=42 v=54
65280 On ch=2 n=42 v=127
65280 On ch=3 n=61 v=73
65280 On ch=7 n=64 v=70
65280 On ch=3 n=64 v=73
65280 On ch=4 n=66 v=127
65280 On ch=7 n=69 v=70
65280 On ch=3 n=69 v=73
65280 On ch=10 n=82 v=68
65292 Off ch=10 n=82 v=68
65292 Off ch=10 n=42 v=54
65292 Off ch=10 n=36 v=105
65327 Off ch=2 n=42 v=127
65364 Off ch=4 n=66 v=127
65376 On ch=2 n=37 v=127
65376 On ch=10 n=42 v=69
65376 On ch=10 n=82 v=58
65388 Off ch=10 n=82 v=58
65388 Off ch=10 n=42 v=69
65393 On ch=4 n=69 v=127
65424 Off ch=2 n=37 v=127
65471 Off ch=4 n=69 v=127
65472 On ch=10 n=39 v=110
65472 On ch=10 n=40 v=113
65472 On ch=2 n=40 v=127
65472 On ch=10 n=42 v=49
65472 On ch=10 n=82 v=66
65484 Off ch=10 n=82 v=66
65484 Off ch=10 n=42 v=49
65484 Off ch=10 n=40 v=113
65484 Off ch=10 n=39 v=110
65493 Off ch=7 n=64 v=70
65493 Off ch=7 n=69 v=70
65520 Off ch=3 n=61 v=73
65520 Off ch=3 n=64 v=73
65520 Off ch=3 n=69 v=73
65525 Off ch=2 n=40 v=127
65568 On ch=10 n=42 v=79
65568 On ch=2 n=42 v=127
65568 On ch=3 n=59 v=73
65568 On ch=7 n=63 v=70
65568 On ch=3 n=63 v=73
65568 On ch=7 n=68 v=70
65568 On ch=3 n=68 v=73
65568 On ch=10 n=82 v=60
65571 On ch=4 n=71 v=127
65580 Off ch=10 n=82 v=60
65580 Off ch=10 n=42 v=79
65614 Off ch=2 n=42 v=127
65664 On ch=10 n=36 v=105
65664 On ch=2 n=40 v=127
65664 On ch=10 n=42 v=46
65664 On ch=10 n=82 v=56
65676 Off ch=10 n=82 v=56
65676 Off ch=10 n=42 v=46
65676 Off ch=10 n=36 v=105
65723 Off ch=2 n=40 v=127
65739 Off ch=4 n=71 v=127
65760 On ch=2 n=37 v=127
65760 On ch=10 n=42 v=74
65760 On ch=10 n=82 v=60
65767 On ch=4 n=69 v=127
65772 Off ch=10 n=82 v=60
65772 Off ch=10 n=42 v=74
65814 Off ch=2 n=37 v=127
65843 Off ch=4 n=69 v=127
65847 Off ch=7 n=63 v=70
65849 Off ch=7 n=68 v=70
65856 On ch=2 n=35 v=127
65856 On ch=10 n=39 v=110
65856 On ch=10 n=40 v=113
65856 On ch=10 n=42 v=46
65856 On ch=10 n=82 v=64
65862 On ch=4 n=68 v=127
65868 Off ch=10 n=82 v=64
65868 Off ch=10 n=42 v=46
65868 Off ch=10 n=40 v=113
65868 Off ch=10 n=39 v=110
65921 Off ch=2 n=35 v=127
65935 Off ch=4 n=68 v=127
65952 On ch=2 n=37 v=127
65952 On ch=10 n=42 v=79
65952 On ch=10 n=82 v=64
65954 On ch=4 n=66 v=127
65964 Off ch=10 n=82 v=64
65964 Off ch=10 n=42 v=79
66000 Off ch=3 n=68 v=73
66000 Off ch=3 n=63 v=73
66000 Off ch=3 n=59 v=73
66003 Off ch=2 n=37 v=127
66048 On ch=10 n=36 v=105
66048 On ch=10 n=42 v=42
66048 On ch=2 n=47 v=127
66048 On ch=5 n=54 v=102
66048 On ch=3 n=57 v=73
66048 On ch=3 n=62 v=73
66048 On ch=3 n=66 v=73
66048 On ch=7 n=74 v=71
66048 On ch=7 n=78 v=72
66048 On ch=10 n=82 v=66
66049 On ch=5 n=66 v=127
66060 Off ch=10 n=82 v=66
66060 Off ch=10 n=42 v=42
66060 Off ch=10 n=36 v=105
66083 Off ch=5 n=66 v=127
66083 Off ch=5 n=54 v=102
66096 Off ch=2 n=47 v=127
66104 Off ch=4 n=66 v=127
66141 On ch=5 n=54 v=76
66142 Off ch=5 n=54 v=76
66144 On ch=10 n=42 v=69
66144 On ch=2 n=42 v=127
66144 On ch=10 n=82 v=64
66149 On ch=5 n=66 v=80
66150 Off ch=5 n=66 v=80
66156 Off ch=10 n=82 v=64
66156 Off ch=10 n=42 v=69
66179 Off ch=2 n=42 v=127
66188 On ch=5 n=66 v=80
66189 Off ch=5 n=66 v=80
66192 On ch=5 n=54 v=80
66193 Off ch=5 n=54 v=80
66238 On ch=5 n=54 v=116
66240 On ch=10 n=39 v=110
66240 On ch=10 n=40 v=112
66240 On ch=10 n=42 v=54
66240 On ch=2 n=45 v=127
66240 On ch=10 n=82 v=62
66243 On ch=5 n=66 v=127
66252 Off ch=10 n=82 v=62
66252 Off ch=10 n=42 v=54
66252 Off ch=10 n=40 v=112
66252 Off ch=10 n=39 v=110
66269 Off ch=5 n=54 v=116
66273 Off ch=5 n=66 v=127
66292 Off ch=2 n=45 v=127
66334 On ch=5 n=54 v=80
66335 Off ch=5 n=54 v=80
66336 On ch=10 n=42 v=74
66336 On ch=2 n=47 v=127
66336 On ch=10 n=82 v=64
66341 On ch=5 n=66 v=80
66342 Off ch=5 n=66 v=80
66348 Off ch=10 n=82 v=64
66348 Off ch=10 n=42 v=74
66380 On ch=5 n=66 v=80
66381 Off ch=5 n=66 v=80
66386 On ch=5 n=54 v=80
66387 Off ch=5 n=54 v=80
66406 Off ch=2 n=47 v=127
66428 On ch=5 n=54 v=102
66432 On ch=10 n=36 v=105
66432 On ch=10 n=42 v=57
66432 On ch=5 n=66 v=127
66432 On ch=10 n=82 v=64
66444 Off ch=10 n=82 v=64
66444 Off ch=10 n=42 v=57
66444 Off ch=10 n=36 v=105
66460 Off ch=5 n=54 v=102
66468 Off ch=5 n=66 v=127
66525 On ch=4 n=66 v=127
66527 On ch=5 n=54 v=76
66528 On ch=10 n=42 v=69
66528 On ch=2 n=42 v=127
66528 On ch=10 n=82 v=68
66528 Off ch=5 n=54 v=76
66535 On ch=5 n=66 v=72
66536 Off ch=5 n=66 v=72
66540 Off ch=10 n=82 v=68
66540 Off ch=10 n=42 v=69
66570 On ch=5 n=66 v=72
66571 Off ch=5 n=66 v=72
66576 On ch=5 n=54 v=72
66577 Off ch=5 n=54 v=72
66584 Off ch=2 n=42 v=127
66621 On ch=5 n=54 v=102
66624 On ch=10 n=39 v=110
66624 On ch=10 n=40 v=113
66624 On ch=2 n=40 v=127
66624 On ch=10 n=42 v=57
66624 On ch=10 n=82 v=62
66625 On ch=5 n=66 v=127
66636 Off ch=10 n=82 v=62
66636 Off ch=10 n=42 v=57
66636 Off ch=10 n=40 v=113
66636 Off ch=10 n=39 v=110
66636 Off ch=4 n=66 v=127
66656 Off ch=5 n=54 v=102
66659 Off ch=5 n=66 v=127
66684 Off ch=2 n=40 v=127
66717 On ch=4 n=66 v=127
66718 On ch=5 n=54 v=68
66719 Off ch=5 n=54 v=68
66720 On ch=10 n=42 v=79
66720 On ch=2 n=42 v=127
66720 On ch=5 n=66 v=68
66720 On ch=10 n=82 v=64
66721 Off ch=5 n=66 v=68
66732 Off ch=10 n=82 v=64
66732 Off ch=10 n=42 v=79
66765 On ch=5 n=66 v=68
66766 Off ch=5 n=66 v=68
66771 On ch=5 n=54 v=68
66772 Off ch=5 n=54 v=68
66772 Off ch=2 n=42 v=127
66795 Off ch=4 n=66 v=127
66813 On ch=5 n=54 v=102
66816 On ch=10 n=36 v=105
66816 On ch=10 n=42 v=54
66816 On ch=2 n=47 v=127
66816 On ch=10 n=82 v=62
66817 On ch=5 n=66 v=127
66817 On ch=4 n=73 v=127
66828 Off ch=10 n=82 v=62
66828 Off ch=10 n=42 v=54
66828 Off ch=10 n=36 v=105
66848 Off ch=5 n=54 v=102
66851 Off ch=5 n=66 v=127
66865 Off ch=2 n=47 v=127
66890 Off ch=4 n=73 v=127
66909 On ch=5 n=54 v=68
66910 Off ch=5 n=54 v=68
66912 On ch=10 n=42 v=69
66912 On ch=2 n=42 v=127
66912 On ch=10 n=82 v=55
66914 On ch=4 n=71 v=127
66915 On ch=5 n=66 v=76
66916 Off ch=5 n=66 v=76
66924 Off ch=10 n=82 v=55
66924 Off ch=10 n=42 v=69
66953 On ch=5 n=66 v=76
66954 Off ch=5 n=66 v=76
66962 On ch=5 n=54 v=72
66962 Off ch=2 n=42 v=127
66963 Off ch=5 n=54 v=72
67002 Off ch=4 n=71 v=127
67006 On ch=5 n=54 v=97
67008 On ch=10 n=39 v=110
67008 On ch=10 n=40 v=113
67008 On ch=10 n=42 v=49
67008 On ch=2 n=45 v=127
67008 On ch=10 n=82 v=55
67014 On ch=5 n=66 v=127
67020 Off ch=10 n=82 v=55
67020 Off ch=10 n=42 v=49
67020 Off ch=10 n=40 v=113
67020 Off ch=10 n=39 v=110
67023 On ch=4 n=71 v=127
67041 Off ch=5 n=54 v=97
67042 Off ch=5 n=66 v=127
67065 Off ch=2 n=45 v=127
67104 On ch=10 n=42 v=79
67104 On ch=2 n=47 v=127
67104 On ch=10 n=82 v=51
67105 On ch=5 n=54 v=72
67106 Off ch=5 n=54 v=72
67110 On ch=5 n=66 v=76
67111 Off ch=5 n=66 v=76
67116 Off ch=10 n=82 v=51
67116 Off ch=10 n=42 v=79
67150 On ch=5 n=66 v=76
67151 Off ch=5 n=66 v=76
67152 Off ch=4 n=71 v=127
67156 On ch=5 n=54 v=76
67157 Off ch=5 n=54 v=76
67172 Off ch=2 n=47 v=127
67197 On ch=5 n=54 v=102
67200 On ch=10 n=36 v=105
67200 On ch=10 n=42 v=46
67200 On ch=10 n=82 v=58
67206 On ch=5 n=66 v=127
67207 On ch=4 n=66 v=127
67212 Off ch=10 n=82 v=58
67212 Off ch=10 n=42 v=46
67212 Off ch=10 n=36 v=105
67227 Off ch=5 n=54 v=102
67238 Off ch=5 n=66 v=127
67276 Off ch=4 n=66 v=127
67292 On ch=5 n=54 v=71
67293 Off ch=5 n=54 v=71
67296 On ch=10 n=42 v=74
67296 On ch=2 n=42 v=127
67296 On ch=10 n=82 v=47
67303 On ch=5 n=66 v=68
67304 Off ch=5 n=66 v=68
67308 Off ch=10 n=82 v=47
67308 Off ch=10 n=42 v=74
67310 On ch=4 n=62 v=127
67340 On ch=5 n=66 v=68
67341 Off ch=5 n=66 v=68
67347 On ch=5 n=54 v=68
67348 Off ch=5 n=54 v=68
67359 Off ch=2 n=42 v=127
67391 On ch=5 n=54 v=102
67392 On ch=10 n=39 v=110
67392 On ch=10 n=40 v=113
67392 On ch=2 n=40 v=127
67392 On ch=10 n=42 v=46
67392 On ch=10 n=82 v=62
67394 On ch=5 n=66 v=127
67404 Off ch=10 n=82 v=62
67404 Off ch=10 n=42 v=46
67404 Off ch=10 n=40 v=113
67404 Off ch=10 n=39 v=110
67418 Off ch=5 n=54 v=102
67423 Off ch=5 n=66 v=127
67452 Off ch=2 n=40 v=127
67476 Off ch=4 n=62 v=127
67484 On ch=5 n=54 v=68
67485 Off ch=5 n=54 v=68
67488 On ch=2 n=37 v=127
67488 On ch=10 n=42 v=79
67488 On ch=10 n=82 v=58
67494 On ch=5 n=66 v=68
67495 Off ch=5 n=66 v=68
67500 Off ch=10 n=82 v=58
67500 Off ch=10 n=42 v=79
67503 On ch=4 n=61 v=127
67535 On ch=5 n=66 v=72
67536 Off ch=5 n=66 v=72
67539 On ch=5 n=54 v=72
67540 Off ch=5 n=54 v=72
67548 Off ch=3 n=57 v=73
67551 Off ch=2 n=37 v=127
67552 Off ch=3 n=66 v=73
67560 Off ch=3 n=62 v=73
67582 On ch=5 n=54 v=102
67584 On ch=10 n=36 v=105
67584 On ch=10 n=42 v=42
67584 On ch=2 n=42 v=127
67584 On ch=3 n=57 v=96
67584 On ch=3 n=61 v=96
67584 On ch=3 n=66 v=96
67584 On ch=10 n=82 v=56
67584 Off ch=7 n=78 v=72
67584 Off ch=7 n=74 v=71
67587 On ch=5 n=66 v=127
67596 Off ch=10 n=82 v=56
67596 Off ch=10 n=42 v=42
67596 Off ch=10 n=36 v=105
67612 Off ch=5 n=54 v=102
67613 Off ch=5 n=66 v=127
67632 Off ch=3 n=61 v=96
67632 Off ch=3 n=66 v=96
67632 Off ch=3 n=57 v=96
67634 Off ch=2 n=42 v=127
67680 On ch=2 n=37 v=127
67680 On ch=10 n=42 v=69
67680 On ch=10 n=82 v=46
67692 Off ch=10 n=82 v=46
67692 Off ch=10 n=42 v=69
67732 Off ch=2 n=37 v=127
67776 On ch=10 n=39 v=110
67776 On ch=10 n=40 v=112
67776 On ch=2 n=40 v=127
67776 On ch=10 n=42 v=54
67776 On ch=10 n=82 v=64
67788 Off ch=10 n=82 v=64
67788 Off ch=10 n=42 v=54
67788 Off ch=10 n=40 v=112
67788 Off ch=10 n=39 v=110
67796 Off ch=4 n=61 v=127
67831 Off ch=2 n=40 v=127
67872 On ch=10 n=42 v=74
67872 On ch=10 n=82 v=53
67872 Par ch=7 c=10 v=0
67872 On ch=2 n=42 v=127
67872 On ch=3 n=59 v=96
67872 On ch=3 n=63 v=96
67872 On ch=3 n=68 v=96
67884 Off ch=10 n=82 v=53
67884 Off ch=10 n=42 v=74
67920 Off ch=3 n=63 v=96
67920 Off ch=3 n=68 v=96
67920 Off ch=3 n=59 v=96
67923 Off ch=2 n=42 v=127
67966 On ch=7 n=85 v=126
67968 On ch=10 n=36 v=105
67968 On ch=2 n=40 v=127
67968 On ch=10 n=42 v=57
67968 On ch=10 n=82 v=62
67980 Off ch=10 n=82 v=62
67980 Off ch=10 n=42 v=57
67980 Off ch=10 n=36 v=105
68014 Off ch=7 n=85 v=126
68015 On ch=7 n=81 v=126
68024 Off ch=2 n=40 v=127
68063 Off ch=7 n=81 v=126
68064 On ch=2 n=37 v=127
68064 On ch=10 n=42 v=69
68064 On ch=10 n=82 v=60
68065 On ch=7 n=78 v=126
68076 Off ch=10 n=82 v=60
68076 Off ch=10 n=42 v=69
68113 On ch=7 n=74 v=126
68113 Off ch=7 n=78 v=126
68115 Off ch=2 n=37 v=127
68160 On ch=2 n=35 v=127
68160 On ch=10 n=39 v=110
68160 On ch=10 n=40 v=113
68160 On ch=10 n=42 v=57
68160 On ch=10 n=82 v=68
68161 On ch=7 n=73 v=97
68161 Off ch=7 n=74 v=126
68172 Off ch=10 n=82 v=68
68172 Off ch=10 n=42 v=57
68172 Off ch=10 n=40 v=113
68172 Off ch=10 n=39 v=110
68221 Off ch=2 n=35 v=127
68256 On ch=2 n=37 v=127
68256 On ch=10 n=42 v=79
68256 On ch=10 n=82 v=50
68268 Off ch=10 n=82 v=50
68268 Off ch=10 n=42 v=79
68310 Off ch=2 n=37 v=127
68352 On ch=10 n=36 v=105
68352 On ch=10 n=42 v=54
68352 On ch=2 n=42 v=127
68352 On ch=3 n=61 v=96
68352 On ch=3 n=64 v=96
68352 On ch=3 n=69 v=96
68352 On ch=10 n=82 v=68
68364 Off ch=10 n=82 v=68
68364 Off ch=10 n=42 v=54
68364 Off ch=10 n=36 v=105
68399 Off ch=2 n=42 v=127
68400 PrCh ch=11 p=62
68400 Off ch=3 n=69 v=96
68400 Off ch=3 n=64 v=96
68400 Off ch=3 n=61 v=96
68448 On ch=10 n=42 v=69
68448 On ch=10 n=82 v=58
68448 Par ch=11 c=10 v=127
68448 On ch=2 n=37 v=127
68460 Off ch=10 n=82 v=58
68460 Off ch=10 n=42 v=69
68495 Par ch=11 c=7 v=60
68496 Off ch=2 n=37 v=127
68544 On ch=10 n=39 v=110
68544 On ch=10 n=40 v=113
68544 On ch=2 n=40 v=127
68544 On ch=10 n=42 v=49
68544 On ch=10 n=82 v=66
68556 Off ch=10 n=82 v=66
68556 Off ch=10 n=42 v=49
68556 Off ch=10 n=40 v=113
68556 Off ch=10 n=39 v=110
68597 Off ch=2 n=40 v=127
68640 On ch=10 n=42 v=79
68640 On ch=2 n=42 v=127
68640 On ch=3 n=59 v=96
68640 On ch=3 n=63 v=96
68640 On ch=3 n=68 v=96
68640 On ch=10 n=82 v=60
68640 Off ch=7 n=73 v=97
68652 Off ch=10 n=82 v=60
68652 Off ch=10 n=42 v=79
68660 Par ch=7 c=10 v=127
68686 Off ch=2 n=42 v=127
68688 Off ch=3 n=68 v=96
68688 Off ch=3 n=63 v=96
68688 Off ch=3 n=59 v=96
68721 On ch=7 n=64 v=113
68736 On ch=10 n=36 v=105
68736 On ch=2 n=40 v=127
68736 On ch=10 n=42 v=46
68736 On ch=10 n=82 v=56
68748 Off ch=10 n=82 v=56
68748 Off ch=10 n=42 v=46
68748 Off ch=10 n=36 v=105
68784 Par ch=5 c=0 v=8
68795 Off ch=2 n=40 v=127
68803 Off ch=7 n=64 v=113
68804 On ch=7 n=66 v=113
68832 On ch=2 n=37 v=127
68832 On ch=10 n=42 v=74
68832 On ch=10 n=82 v=60
68836 PrCh ch=5 p=28
68844 Off ch=10 n=82 v=60
68844 Off ch=10 n=42 v=74
68864 Off ch=7 n=66 v=113
68880 On ch=10 n=45 v=97
68880 Par ch=5 c=10 v=39
68886 Off ch=2 n=37 v=127
68892 Off ch=10 n=45 v=97
68928 On ch=10 n=39 v=110
68928 On ch=10 n=40 v=113
68928 On ch=10 n=42 v=46
68928 On ch=10 n=43 v=103
68928 On ch=10 n=82 v=64
68928 Par ch=5 c=7 v=75
68928 On ch=2 n=35 v=127
68940 Off ch=10 n=82 v=64
68940 Off ch=10 n=43 v=103
68940 Off ch=10 n=42 v=46
68940 Off ch=10 n=40 v=113
68940 Off ch=10 n=39 v=110
68980 Par ch=7 c=10 v=64
68993 Off ch=2 n=35 v=127
69024 On ch=2 n=37 v=127
69024 On ch=10 n=42 v=79
69024 On ch=10 n=82 v=64
69025 On ch=5 n=54 v=86
69026 Off ch=5 n=54 v=86
69027 On ch=5 n=66 v=76
69028 Off ch=5 n=66 v=76
69036 Off ch=10 n=82 v=64
69036 Off ch=10 n=42 v=79
69073 On ch=5 n=54 v=87
69074 Off ch=5 n=54 v=87
69075 On ch=5 n=66 v=76
69075 Off ch=2 n=37 v=127
69076 Off ch=5 n=66 v=76
69120 On ch=10 n=36 v=105
69120 On ch=10 n=42 v=42
69120 On ch=2 n=42 v=127
69120 On ch=3 n=57 v=73
69120 On ch=7 n=61 v=70
69120 On ch=3 n=61 v=73
69120 On ch=7 n=66 v=70
69120 On ch=3 n=66 v=73
69120 On ch=10 n=82 v=66
69130 On ch=5 n=61 v=120
69132 Off ch=10 n=82 v=66
69132 Off ch=10 n=42 v=42
69132 Off ch=10 n=36 v=105
69153 Off ch=5 n=61 v=120
69170 On ch=5 n=61 v=120
69170 Off ch=2 n=42 v=127
69194 Off ch=5 n=61 v=120
69216 On ch=2 n=37 v=127
69216 On ch=10 n=42 v=69
69216 On ch=10 n=82 v=64
69226 On ch=5 n=61 v=81
69228 Off ch=10 n=82 v=64
69228 Off ch=10 n=42 v=69
69238 Off ch=5 n=61 v=81
69266 On ch=5 n=59 v=120
69268 Off ch=2 n=37 v=127
69296 Off ch=5 n=59 v=120
69312 On ch=10 n=39 v=110
69312 On ch=10 n=40 v=112
69312 On ch=2 n=40 v=127
69312 On ch=10 n=42 v=54
69312 On ch=10 n=82 v=62
69318 On ch=4 n=66 v=127
69324 Off ch=10 n=82 v=62
69324 Off ch=10 n=42 v=54
69324 Off ch=10 n=40 v=112
69324 Off ch=10 n=39 v=110
69360 Off ch=7 n=61 v=70
69360 Off ch=7 n=66 v=70
69360 Off ch=3 n=66 v=73
69360 Off ch=3 n=61 v=73
69360 Off ch=3 n=57 v=73
69366 On ch=5 n=57 v=95
69367 Off ch=2 n=40 v=127
69375 Off ch=4 n=66 v=127
69388 Off ch=5 n=57 v=95
69400 On ch=4 n=66 v=127
69407 On ch=5 n=60 v=120
69408 On ch=10 n=42 v=74
69408 On ch=2 n=42 v=127
69408 On ch=3 n=59 v=73
69408 On ch=7 n=63 v=70
69408 On ch=3 n=63 v=73
69408 On ch=7 n=68 v=70
69408 On ch=3 n=68 v=73
69408 On ch=10 n=82 v=64
69420 Off ch=10 n=82 v=64
69420 Off ch=10 n=42 v=74
69430 Off ch=5 n=60 v=120
69430 On ch=5 n=61 v=120
69459 Off ch=2 n=42 v=127
69487 Off ch=4 n=66 v=127
69504 On ch=10 n=36 v=105
69504 On ch=2 n=40 v=127
69504 On ch=10 n=42 v=57
69504 On ch=10 n=82 v=64
69505 On ch=4 n=64 v=125
69516 Off ch=10 n=82 v=64
69516 Off ch=10 n=42 v=57
69516 Off ch=10 n=36 v=105
69560 Off ch=2 n=40 v=127
69592 On ch=11 n=73 v=127
69600 On ch=2 n=37 v=127
69600 On ch=10 n=42 v=69
69600 On ch=10 n=82 v=68
69601 Off ch=4 n=64 v=125
69607 On ch=4 n=61 v=127
69612 Off ch=10 n=82 v=68
69612 Off ch=10 n=42 v=69
69622 Off ch=11 n=73 v=127
69651 Off ch=2 n=37 v=127
69694 On ch=11 n=73 v=127
69696 On ch=2 n=35 v=127
69696 On ch=10 n=39 v=110
69696 On ch=10 n=40 v=113
69696 On ch=10 n=42 v=57
69696 On ch=10 n=82 v=62
69708 Off ch=10 n=82 v=62
69708 Off ch=10 n=42 v=57
69708 Off ch=10 n=40 v=113
69708 Off ch=10 n=39 v=110
69731 Off ch=11 n=73 v=127
69734 Off ch=5 n=61 v=120
69757 Off ch=2 n=35 v=127
69778 Off ch=4 n=61 v=127
69792 On ch=2 n=37 v=127
69792 On ch=10 n=42 v=79
69792 On ch=10 n=82 v=64
69792 Off ch=7 n=68 v=70
69792 Off ch=7 n=63 v=70
69792 Off ch=3 n=68 v=73
69792 Off ch=3 n=59 v=73
69792 Off ch=3 n=63 v=73
69795 On ch=11 n=73 v=127
69800 On ch=4 n=61 v=127
69804 Off ch=10 n=82 v=64
69804 Off ch=10 n=42 v=79
69846 Off ch=2 n=37 v=127
69873 Off ch=4 n=61 v=127
69888 On ch=10 n=36 v=105
69888 On ch=10 n=42 v=54
69888 On ch=2 n=42 v=127
69888 On ch=3 n=61 v=73
69888 On ch=7 n=64 v=70
69888 On ch=3 n=64 v=73
69888 On ch=7 n=69 v=70
69888 On ch=3 n=69 v=73
69888 On ch=10 n=82 v=62
69895 On ch=5 n=61 v=120
69900 Off ch=10 n=82 v=62
69900 Off ch=10 n=42 v=54
69900 Off ch=10 n=36 v=105
69900 On ch=4 n=66 v=127
69918 Off ch=5 n=61 v=120
69935 Off ch=2 n=42 v=127
69940 On ch=5 n=61 v=120
69953 Off ch=4 n=66 v=127
69963 Off ch=5 n=61 v=120
69984 On ch=2 n=37 v=127
69984 On ch=10 n=42 v=69
69984 On ch=10 n=82 v=55
69986 On ch=5 n=61 v=79
69993 On ch=4 n=66 v=127
69996 Off ch=10 n=82 v=55
69996 Off ch=10 n=42 v=69
70007 Off ch=5 n=61 v=79
70032 Off ch=2 n=37 v=127
70041 On ch=5 n=59 v=120
70065 Off ch=5 n=59 v=120
70073 Off ch=4 n=66 v=127
70080 On ch=10 n=39 v=110
70080 On ch=10 n=40 v=113
70080 On ch=2 n=40 v=127
70080 On ch=10 n=42 v=49
70080 On ch=10 n=82 v=55
70092 Off ch=10 n=82 v=55
70092 Off ch=10 n=42 v=49
70092 Off ch=10 n=40 v=113
70092 Off ch=10 n=39 v=110
70126 Off ch=7 n=69 v=70
70128 Off ch=7 n=64 v=70
70128 Off ch=3 n=61 v=73
70128 Off ch=3 n=64 v=73
70128 Off ch=3 n=69 v=73
70132 On ch=5 n=57 v=105
70133 Off ch=2 n=40 v=127
70159 Off ch=5 n=57 v=105
70173 On ch=4 n=64 v=120
70176 On ch=10 n=42 v=79
70176 On ch=2 n=42 v=127
70176 On ch=3 n=59 v=73
70176 On ch=7 n=63 v=70
70176 On ch=3 n=63 v=73
70176 On ch=7 n=68 v=70
70176 On ch=3 n=68 v=73
70176 On ch=10 n=82 v=51
70181 On ch=5 n=61 v=120
70188 Off ch=10 n=82 v=51
70188 Off ch=10 n=42 v=79
70222 Off ch=2 n=42 v=127
70272 On ch=10 n=36 v=105
70272 On ch=2 n=40 v=127
70272 On ch=10 n=42 v=46
70272 On ch=10 n=82 v=58
70284 Off ch=10 n=82 v=58
70284 Off ch=10 n=42 v=46
70284 Off ch=10 n=36 v=105
70320 Off ch=11 n=73 v=127
70331 Off ch=2 n=40 v=127
70355 Off ch=4 n=64 v=120
70366 On ch=11 n=71 v=127
70368 On ch=2 n=37 v=127
70368 On ch=10 n=42 v=74
70368 On ch=4 n=61 v=127
70368 On ch=10 n=82 v=47
70380 Off ch=10 n=82 v=47
70380 Off ch=10 n=42 v=74
70411 Off ch=11 n=71 v=127
70416 On ch=10 n=45 v=97
70421 On ch=11 n=69 v=127
70422 Off ch=2 n=37 v=127
70428 Off ch=10 n=45 v=97
70453 Off ch=11 n=69 v=127
70464 On ch=2 n=35 v=127
70464 On ch=10 n=39 v=110
70464 On ch=10 n=40 v=113
70464 On ch=10 n=42 v=46
70464 On ch=10 n=43 v=103
70464 On ch=10 n=82 v=62
70470 On ch=11 n=71 v=127
70474 Off ch=5 n=61 v=120
70476 Off ch=10 n=82 v=62
70476 Off ch=10 n=43 v=103
70476 Off ch=10 n=42 v=46
70476 Off ch=10 n=40 v=113
70476 Off ch=10 n=39 v=110
70509 Off ch=11 n=71 v=127
70516 Off ch=7 n=63 v=70
70517 Off ch=7 n=68 v=70
70525 On ch=11 n=69 v=127
70529 Off ch=2 n=35 v=127
70551 Off ch=11 n=69 v=127
70554 On ch=11 n=71 v=127
70557 Off ch=11 n=71 v=127
70557 Off ch=4 n=61 v=127
70560 On ch=2 n=37 v=127
70560 On ch=10 n=42 v=79
70560 On ch=10 n=82 v=58
70560 Off ch=3 n=68 v=73
70560 Off ch=3 n=63 v=73
70560 Off ch=3 n=59 v=73
70563 On ch=11 n=72 v=127
70572 Off ch=10 n=82 v=58
70572 Off ch=10 n=42 v=79
70573 On ch=11 n=73 v=127
70580 Off ch=11 n=72 v=127
70611 Off ch=2 n=37 v=127
70656 On ch=10 n=36 v=105
70656 On ch=10 n=42 v=42
70656 On ch=2 n=42 v=127
70656 On ch=3 n=57 v=73
70656 On ch=7 n=61 v=70
70656 On ch=3 n=61 v=73
70656 On ch=7 n=66 v=70
70656 On ch=3 n=66 v=73
70656 On ch=10 n=82 v=56
70664 On ch=5 n=61 v=120
70668 Off ch=10 n=82 v=56
70668 Off ch=10 n=42 v=42
70668 Off ch=10 n=36 v=105
70677 Off ch=11 n=73 v=127
70687 Off ch=5 n=61 v=120
70706 Off ch=2 n=42 v=127
70709 On ch=5 n=61 v=120
70736 Off ch=5 n=61 v=120
70750 On ch=4 n=66 v=127
70752 On ch=2 n=37 v=127
70752 On ch=10 n=42 v=69
70752 On ch=10 n=82 v=46
70755 On ch=5 n=61 v=89
70764 Off ch=10 n=82 v=46
70764 Off ch=10 n=42 v=69
70776 Off ch=5 n=61 v=89
70804 Off ch=2 n=37 v=127
70805 On ch=5 n=59 v=120
70833 Off ch=5 n=59 v=120
70833 Off ch=4 n=66 v=127
70848 On ch=10 n=39 v=110
70848 On ch=10 n=40 v=112
70848 On ch=2 n=40 v=127
70848 On ch=10 n=42 v=54
70848 On ch=10 n=82 v=64
70850 On ch=4 n=66 v=127
70860 Off ch=10 n=82 v=64
70860 Off ch=10 n=42 v=54
70860 Off ch=10 n=40 v=112
70860 Off ch=10 n=39 v=110
70894 Off ch=7 n=61 v=70
70896 Off ch=7 n=66 v=70
70896 Off ch=3 n=66 v=73
70896 Off ch=3 n=57 v=73
70896 Off ch=3 n=61 v=73
70902 On ch=5 n=57 v=94
70903 Off ch=2 n=40 v=127
70920 Off ch=5 n=57 v=94
70932 On ch=5 n=60 v=63
70933 Off ch=4 n=66 v=127
70940 Off ch=5 n=60 v=63
70943 On ch=5 n=61 v=120
70944 On ch=10 n=42 v=74
70944 On ch=2 n=42 v=127
70944 On ch=3 n=59 v=73
70944 On ch=7 n=63 v=70
70944 On ch=3 n=63 v=73
70944 On ch=7 n=68 v=70
70944 On ch=3 n=68 v=73
70944 On ch=10 n=82 v=53
70948 On ch=4 n=66 v=127
70956 Off ch=10 n=82 v=53
70956 Off ch=10 n=42 v=74
70995 Off ch=2 n=42 v=127
71028 Off ch=4 n=66 v=127
71040 On ch=10 n=36 v=105
71040 On ch=2 n=40 v=127
71040 On ch=10 n=42 v=57
71040 On ch=10 n=82 v=62
71052 Off ch=10 n=82 v=62
71052 Off ch=10 n=42 v=57
71052 Off ch=10 n=36 v=105
71052 On ch=4 n=64 v=127
71096 Off ch=2 n=40 v=127
71133 Off ch=4 n=64 v=127
71135 On ch=11 n=73 v=127
71136 On ch=2 n=37 v=127
71136 On ch=10 n=42 v=69
71136 On ch=10 n=82 v=60
71143 On ch=4 n=61 v=127
71148 Off ch=10 n=82 v=60
71148 Off ch=10 n=42 v=69
71163 Off ch=11 n=73 v=127
71187 Off ch=2 n=37 v=127
71216 Off ch=4 n=61 v=127
71232 On ch=2 n=35 v=127
71232 On ch=10 n=39 v=110
71232 On ch=10 n=40 v=113
71232 On ch=10 n=42 v=57
71232 On ch=10 n=82 v=68
71233 On ch=11 n=72 v=86
71236 On ch=4 n=61 v=127
71237 Off ch=7 n=68 v=70
71241 Off ch=11 n=72 v=86
71241 On ch=11 n=73 v=127
71242 Off ch=7 n=63 v=70
71244 Off ch=10 n=82 v=68
71244 Off ch=10 n=42 v=57
71244 Off ch=10 n=40 v=113
71244 Off ch=10 n=39 v=110
71269 Off ch=11 n=73 v=127
71293 Off ch=2 n=35 v=127
71323 Off ch=5 n=61 v=120
71328 On ch=2 n=37 v=127
71328 On ch=10 n=42 v=79
71328 On ch=10 n=82 v=50
71328 Off ch=3 n=59 v=73
71328 Off ch=3 n=63 v=73
71328 Off ch=3 n=68 v=73
71335 Off ch=4 n=61 v=127
71340 Off ch=10 n=82 v=50
71340 Off ch=10 n=42 v=79
71340 On ch=11 n=73 v=127
71382 Off ch=2 n=37 v=127
71424 On ch=10 n=36 v=105
71424 On ch=10 n=42 v=54
71424 On ch=2 n=42 v=127
71424 On ch=3 n=61 v=73
71424 On ch=7 n=64 v=70
71424 On ch=3 n=64 v=73
71424 On ch=4 n=66 v=127
71424 On ch=7 n=69 v=70
71424 On ch=3 n=69 v=73
71424 On ch=10 n=82 v=68
71431 On ch=5 n=61 v=120
71436 Off ch=10 n=82 v=68
71436 Off ch=10 n=42 v=54
71436 Off ch=10 n=36 v=105
71457 Off ch=5 n=61 v=120
71471 Off ch=2 n=42 v=127
71476 On ch=5 n=61 v=120
71501 Off ch=5 n=61 v=120
71508 Off ch=4 n=66 v=127
71520 On ch=2 n=37 v=127
71520 On ch=10 n=42 v=69
71520 On ch=10 n=82 v=58
71527 On ch=5 n=61 v=82
71532 Off ch=10 n=82 v=58
71532 Off ch=10 n=42 v=69
71537 On ch=4 n=69 v=127
71545 Off ch=5 n=61 v=82
71568 Off ch=2 n=37 v=127
71570 On ch=5 n=59 v=120
71597 Off ch=5 n=59 v=120
71615 Off ch=4 n=69 v=127
71616 On ch=10 n=39 v=110
71616 On ch=10 n=40 v=113
71616 On ch=2 n=40 v=127
71616 On ch=10 n=42 v=49
71616 On ch=10 n=82 v=66
71628 Off ch=10 n=82 v=66
71628 Off ch=10 n=42 v=49
71628 Off ch=10 n=40 v=113
71628 Off ch=10 n=39 v=110
71637 Off ch=7 n=64 v=70
71637 Off ch=7 n=69 v=70
71664 Off ch=3 n=61 v=73
71664 Off ch=3 n=64 v=73
71664 Off ch=3 n=69 v=73
71668 On ch=5 n=57 v=92
71669 Off ch=2 n=40 v=127
71694 Off ch=5 n=57 v=92
71712 On ch=10 n=42 v=79
71712 On ch=2 n=42 v=127
71712 On ch=3 n=59 v=73
71712 On ch=7 n=63 v=70
71712 On ch=3 n=63 v=73
71712 On ch=7 n=68 v=70
71712 On ch=3 n=68 v=73
71712 On ch=10 n=82 v=60
71713 On ch=5 n=61 v=120
71715 On ch=4 n=71 v=127
71724 Off ch=10 n=82 v=60
71724 Off ch=10 n=42 v=79
71758 Off ch=2 n=42 v=127
71808 On ch=10 n=36 v=105
71808 On ch=2 n=40 v=127
71808 On ch=10 n=42 v=46
71808 On ch=10 n=82 v=56
71809 Off ch=11 n=73 v=127
71820 Off ch=10 n=82 v=56
71820 Off ch=10 n=42 v=46
71820 Off ch=10 n=36 v=105
71867 Off ch=2 n=40 v=127
71883 Off ch=4 n=71 v=127
71894 On ch=11 n=73 v=127
71904 On ch=2 n=37 v=127
71904 On ch=10 n=42 v=74
71904 On ch=10 n=82 v=60
71911 On ch=4 n=69 v=127
71916 Off ch=10 n=82 v=60
71916 Off ch=10 n=42 v=74
71935 Off ch=11 n=73 v=127
71947 On ch=11 n=67 v=43
71958 Off ch=2 n=37 v=127
71964 Off ch=11 n=67 v=43
71971 On ch=11 n=71 v=42
71981 Off ch=11 n=71 v=42
71987 Off ch=4 n=69 v=127
71991 Off ch=7 n=63 v=70
71993 Off ch=7 n=68 v=70
71996 On ch=11 n=71 v=127
72000 On ch=2 n=35 v=127
72000 On ch=10 n=39 v=110
72000 On ch=10 n=40 v=113
72000 On ch=10 n=42 v=46
72000 On ch=10 n=82 v=64
72006 On ch=4 n=68 v=127
72012 Off ch=10 n=82 v=64
72012 Off ch=10 n=42 v=46
72012 Off ch=10 n=40 v=113
72012 Off ch=10 n=39 v=110
72013 Off ch=5 n=61 v=120
72039 Off ch=11 n=71 v=127
72048 Par ch=5 c=0 v=0
72051 On ch=11 n=69 v=127
72065 Off ch=2 n=35 v=127
72078 PrCh ch=5 p=27
72079 Off ch=4 n=68 v=127
72096 On ch=2 n=37 v=127
72096 On ch=10 n=46 v=100
72096 On ch=10 n=82 v=64
72098 On ch=4 n=66 v=127
72104 Off ch=11 n=69 v=127
72108 Off ch=10 n=82 v=64
72108 Off ch=10 n=46 v=100
72108 On ch=11 n=66 v=127
72116 Par ch=5 c=10 v=64
72144 Par ch=5 c=7 v=70
72144 Off ch=3 n=68 v=73
72144 Off ch=3 n=63 v=73
72144 Off ch=3 n=59 v=73
72147 Off ch=11 n=66 v=127
72147 Off ch=2 n=37 v=127
72163 On ch=11 n=64 v=127
72181 Off ch=11 n=64 v=127
72182 On ch=11 n=66 v=127
72192 On ch=10 n=36 v=105
72192 On ch=10 n=42 v=42
72192 On ch=2 n=47 v=127
72192 On ch=5 n=54 v=102
72192 On ch=3 n=57 v=73
72192 On ch=3 n=62 v=73
72192 On ch=3 n=66 v=73
72192 On ch=7 n=74 v=69
72192 On ch=7 n=78 v=72
72192 On ch=10 n=82 v=66
72193 On ch=5 n=66 v=127
72194 Off ch=11 n=66 v=127
72204 Off ch=10 n=82 v=66
72204 Off ch=10 n=42 v=42
72204 Off ch=10 n=36 v=105
72205 On ch=11 n=66 v=127
72227 Off ch=5 n=66 v=127
72227 Off ch=5 n=54 v=102
72240 Off ch=2 n=47 v=127
72248 Off ch=4 n=66 v=127
72285 On ch=5 n=54 v=76
72286 Off ch=5 n=54 v=76
72288 On ch=10 n=42 v=69
72288 On ch=2 n=42 v=127
72288 On ch=10 n=82 v=64
72293 On ch=5 n=66 v=80
72294 Off ch=5 n=66 v=80
72300 Off ch=10 n=82 v=64
72300 Off ch=10 n=42 v=69
72323 Off ch=2 n=42 v=127
72332 On ch=5 n=66 v=80
72333 Off ch=5 n=66 v=80
72336 On ch=5 n=54 v=80
72337 Off ch=5 n=54 v=80
72382 On ch=5 n=54 v=116
72384 On ch=10 n=39 v=110
72384 On ch=10 n=40 v=112
72384 On ch=10 n=42 v=54
72384 On ch=2 n=45 v=127
72384 On ch=10 n=82 v=62
72387 On ch=5 n=66 v=127
72392 On ch=11 n=65 v=38
72396 Off ch=10 n=82 v=62
72396 Off ch=10 n=42 v=54
72396 Off ch=10 n=40 v=112
72396 Off ch=10 n=39 v=110
72400 Off ch=11 n=66 v=127
72405 On ch=11 n=66 v=50
72413 Off ch=5 n=54 v=116
72414 Off ch=11 n=66 v=50
72414 Off ch=11 n=65 v=38
72417 Off ch=5 n=66 v=127
72436 Off ch=2 n=45 v=127
72478 On ch=5 n=54 v=80
72479 Off ch=5 n=54 v=80
72480 On ch=10 n=42 v=74
72480 On ch=2 n=47 v=127
72480 On ch=10 n=82 v=64
72485 On ch=5 n=66 v=80
72486 Off ch=5 n=66 v=80
72492 Off ch=10 n=82 v=64
72492 Off ch=10 n=42 v=74
72524 On ch=5 n=66 v=80
72525 Off ch=5 n=66 v=80
72530 On ch=5 n=54 v=80
72531 Off ch=5 n=54 v=80
72550 Off ch=2 n=47 v=127
72572 On ch=5 n=54 v=102
72576 On ch=10 n=36 v=105
72576 On ch=10 n=42 v=57
72576 On ch=5 n=66 v=127
72576 On ch=10 n=82 v=64
72588 Off ch=10 n=82 v=64
72588 Off ch=10 n=42 v=57
72588 Off ch=10 n=36 v=105
72604 Off ch=5 n=54 v=102
72612 Off ch=5 n=66 v=127
72669 On ch=4 n=66 v=127
72671 On ch=5 n=54 v=76
72672 On ch=10 n=42 v=69
72672 On ch=2 n=42 v=127
72672 On ch=10 n=82 v=68
72672 Off ch=5 n=54 v=76
72679 On ch=5 n=66 v=72
72680 Off ch=5 n=66 v=72
72684 Off ch=10 n=82 v=68
72684 Off ch=10 n=42 v=69
72714 On ch=5 n=66 v=72
72715 Off ch=5 n=66 v=72
72720 On ch=5 n=54 v=72
72721 Off ch=5 n=54 v=72
72728 Off ch=2 n=42 v=127
72765 On ch=5 n=54 v=102
72768 On ch=10 n=39 v=110
72768 On ch=10 n=40 v=113
72768 On ch=2 n=40 v=127
72768 On ch=10 n=42 v=57
72768 On ch=10 n=82 v=62
72769 On ch=5 n=66 v=127
72780 Off ch=10 n=82 v=62
72780 Off ch=10 n=42 v=57
72780 Off ch=10 n=40 v=113
72780 Off ch=10 n=39 v=110
72780 Off ch=4 n=66 v=127
72800 Off ch=5 n=54 v=102
72803 Off ch=5 n=66 v=127
72828 Off ch=2 n=40 v=127
72861 On ch=4 n=66 v=127
72862 On ch=5 n=54 v=68
72863 Off ch=5 n=54 v=68
72864 On ch=10 n=42 v=79
72864 On ch=2 n=42 v=127
72864 On ch=5 n=66 v=68
72864 On ch=10 n=82 v=64
72865 Off ch=5 n=66 v=68
72876 Off ch=10 n=82 v=64
72876 Off ch=10 n=42 v=79
72909 On ch=5 n=66 v=68
72910 Off ch=5 n=66 v=68
72915 On ch=5 n=54 v=68
72916 Off ch=5 n=54 v=68
72916 Off ch=2 n=42 v=127
72939 Off ch=4 n=66 v=127
72957 On ch=5 n=54 v=102
72960 On ch=10 n=36 v=105
72960 On ch=10 n=42 v=54
72960 On ch=2 n=47 v=127
72960 On ch=10 n=82 v=62
72961 On ch=5 n=66 v=127
72961 On ch=4 n=73 v=127
72972 Off ch=10 n=82 v=62
72972 Off ch=10 n=42 v=54
72972 Off ch=10 n=36 v=105
72992 Off ch=5 n=54 v=102
72995 Off ch=5 n=66 v=127
73009 Off ch=2 n=47 v=127
73034 Off ch=4 n=73 v=127
73053 On ch=5 n=54 v=68
73054 Off ch=5 n=54 v=68
73056 On ch=10 n=42 v=69
73056 On ch=2 n=42 v=127
73056 On ch=10 n=82 v=55
73058 On ch=4 n=71 v=127
73059 On ch=5 n=66 v=76
73060 Off ch=5 n=66 v=76
73068 Off ch=10 n=82 v=55
73068 Off ch=10 n=42 v=69
73097 On ch=5 n=66 v=76
73098 Off ch=5 n=66 v=76
73106 On ch=5 n=54 v=72
73106 Off ch=2 n=42 v=127
73107 Off ch=5 n=54 v=72
73146 Off ch=4 n=71 v=127
73150 On ch=5 n=54 v=97
73152 On ch=10 n=39 v=110
73152 On ch=10 n=40 v=113
73152 On ch=10 n=42 v=49
73152 On ch=2 n=45 v=127
73152 On ch=10 n=82 v=55
73158 On ch=5 n=66 v=127
73164 Off ch=10 n=82 v=55
73164 Off ch=10 n=42 v=49
73164 Off ch=10 n=40 v=113
73164 Off ch=10 n=39 v=110
73167 On ch=4 n=71 v=127
73185 Off ch=5 n=54 v=97
73186 Off ch=5 n=66 v=127
73209 Off ch=2 n=45 v=127
73248 On ch=10 n=42 v=79
73248 On ch=2 n=47 v=127
73248 On ch=10 n=82 v=51
73249 On ch=5 n=54 v=72
73250 Off ch=5 n=54 v=72
73254 On ch=5 n=66 v=76
73255 Off ch=5 n=66 v=76
73260 Off ch=10 n=82 v=51
73260 Off ch=10 n=42 v=79
73294 On ch=5 n=66 v=76
73295 Off ch=5 n=66 v=76
73296 Off ch=4 n=71 v=127
73300 On ch=5 n=54 v=76
73301 Off ch=5 n=54 v=76
73316 Off ch=2 n=47 v=127
73341 On ch=5 n=54 v=102
73344 On ch=10 n=36 v=105
73344 On ch=10 n=42 v=46
73344 On ch=10 n=82 v=58
73350 On ch=5 n=66 v=127
73351 On ch=4 n=66 v=127
73356 Off ch=10 n=82 v=58
73356 Off ch=10 n=42 v=46
73356 Off ch=10 n=36 v=105
73371 Off ch=5 n=54 v=102
73382 Off ch=5 n=66 v=127
73420 Off ch=4 n=66 v=127
73436 On ch=5 n=54 v=71
73437 Off ch=5 n=54 v=71
73440 On ch=10 n=42 v=74
73440 On ch=2 n=42 v=127
73440 On ch=10 n=82 v=47
73447 On ch=5 n=66 v=68
73448 Off ch=5 n=66 v=68
73452 Off ch=10 n=82 v=47
73452 Off ch=10 n=42 v=74
73454 On ch=4 n=62 v=127
73484 On ch=5 n=66 v=68
73485 Off ch=5 n=66 v=68
73491 On ch=5 n=54 v=68
73492 Off ch=5 n=54 v=68
73503 Off ch=2 n=42 v=127
73535 On ch=5 n=54 v=102
73536 On ch=10 n=39 v=110
73536 On ch=10 n=40 v=113
73536 On ch=2 n=40 v=127
73536 On ch=10 n=42 v=46
73536 On ch=10 n=82 v=62
73538 On ch=5 n=66 v=127
73548 Off ch=10 n=82 v=62
73548 Off ch=10 n=42 v=46
73548 Off ch=10 n=40 v=113
73548 Off ch=10 n=39 v=110
73562 Off ch=5 n=54 v=102
73567 Off ch=5 n=66 v=127
73596 Off ch=2 n=40 v=127
73620 Off ch=4 n=62 v=127
73628 On ch=5 n=54 v=68
73629 Off ch=5 n=54 v=68
73632 On ch=2 n=37 v=127
73632 On ch=10 n=42 v=79
73632 On ch=10 n=82 v=58
73638 On ch=5 n=66 v=68
73639 Off ch=5 n=66 v=68
73644 Off ch=10 n=82 v=58
73644 Off ch=10 n=42 v=79
73647 On ch=4 n=61 v=127
73679 On ch=5 n=66 v=72
73680 Off ch=5 n=66 v=72
73683 On ch=5 n=54 v=72
73684 Off ch=5 n=54 v=72
73692 Off ch=3 n=57 v=73
73695 Off ch=2 n=37 v=127
73696 Off ch=3 n=66 v=73
73704 Off ch=3 n=62 v=73
73726 On ch=5 n=54 v=102
73728 On ch=10 n=36 v=105
73728 On ch=10 n=42 v=42
73728 On ch=2 n=42 v=127
73728 On ch=3 n=57 v=96
73728 On ch=3 n=61 v=96
73728 On ch=3 n=66 v=96
73728 On ch=10 n=82 v=56
73728 Off ch=7 n=78 v=72
73728 Off ch=7 n=74 v=69
73731 On ch=5 n=66 v=127
73740 Off ch=10 n=82 v=56
73740 Off ch=10 n=42 v=42
73740 Off ch=10 n=36 v=105
73756 Off ch=5 n=54 v=102
73757 Off ch=5 n=66 v=127
73776 Off ch=3 n=61 v=96
73776 Off ch=3 n=66 v=96
73776 Off ch=3 n=57 v=96
73778 Off ch=2 n=42 v=127
73818 On ch=11 n=73 v=127
73824 On ch=2 n=37 v=127
73824 On ch=10 n=42 v=69
73824 On ch=10 n=82 v=46
73836 Off ch=10 n=82 v=46
73836 Off ch=10 n=42 v=69
73864 Off ch=11 n=73 v=127
73876 Off ch=2 n=37 v=127
73917 On ch=11 n=84 v=127
73920 On ch=10 n=39 v=110
73920 On ch=10 n=40 v=112
73920 On ch=2 n=40 v=127
73920 On ch=10 n=42 v=54
73920 On ch=10 n=82 v=64
73932 Off ch=10 n=82 v=64
73932 Off ch=10 n=42 v=54
73932 Off ch=10 n=40 v=112
73932 Off ch=10 n=39 v=110
73940 Off ch=4 n=61 v=127
73945 Pb ch=11 v=10336
73948 Pb ch=11 v=12096
73959 Pb ch=11 v=12192
73973 Pb ch=11 v=12288
73975 Off ch=2 n=40 v=127
73999 Off ch=11 n=84 v=127
74000 Pb ch=11 v=8192
74016 On ch=10 n=42 v=74
74016 On ch=10 n=82 v=53
74016 Par ch=7 c=10 v=0
74016 On ch=2 n=42 v=127
74016 On ch=3 n=59 v=96
74016 On ch=3 n=63 v=96
74016 On ch=3 n=68 v=96
74019 On ch=11 n=73 v=127
74028 Off ch=10 n=82 v=53
74028 Off ch=10 n=42 v=74
74064 Off ch=3 n=63 v=96
74064 Off ch=3 n=68 v=96
74064 Off ch=3 n=59 v=96
74067 Off ch=2 n=42 v=127
74069 Off ch=11 n=73 v=127
74110 On ch=7 n=85 v=126
74112 On ch=10 n=36 v=105
74112 On ch=2 n=40 v=127
74112 On ch=10 n=42 v=57
74112 On ch=10 n=82 v=62
74124 Off ch=10 n=82 v=62
74124 Off ch=10 n=42 v=57
74124 Off ch=10 n=36 v=105
74158 Off ch=7 n=85 v=126
74159 On ch=7 n=81 v=126
74168 Off ch=2 n=40 v=127
74207 Off ch=7 n=81 v=126
74208 On ch=2 n=37 v=127
74208 On ch=10 n=42 v=69
74208 On ch=10 n=82 v=60
74209 On ch=7 n=78 v=126
74220 Off ch=10 n=82 v=60
74220 Off ch=10 n=42 v=69
74257 On ch=7 n=74 v=126
74257 Off ch=7 n=78 v=126
74259 Off ch=2 n=37 v=127
74304 On ch=2 n=35 v=127
74304 On ch=10 n=39 v=110
74304 On ch=10 n=40 v=113
74304 On ch=10 n=42 v=57
74304 On ch=10 n=82 v=68
74305 On ch=7 n=73 v=97
74305 Off ch=7 n=74 v=126
74316 Off ch=10 n=82 v=68
74316 Off ch=10 n=42 v=57
74316 Off ch=10 n=40 v=113
74316 Off ch=10 n=39 v=110
74365 Off ch=2 n=35 v=127
74400 On ch=2 n=37 v=127
74400 On ch=10 n=42 v=79
74400 On ch=10 n=82 v=50
74412 Off ch=10 n=82 v=50
74412 Off ch=10 n=42 v=79
74454 Off ch=2 n=37 v=127
74496 On ch=10 n=36 v=105
74496 On ch=10 n=42 v=54
74496 On ch=2 n=42 v=127
74496 On ch=3 n=61 v=96
74496 On ch=3 n=64 v=96
74496 On ch=3 n=69 v=96
74496 On ch=10 n=82 v=68
74508 Off ch=10 n=82 v=68
74508 Off ch=10 n=42 v=54
74508 Off ch=10 n=36 v=105
74543 Off ch=2 n=42 v=127
74544 Off ch=3 n=69 v=96
74544 Off ch=3 n=64 v=96
74544 Off ch=3 n=61 v=96
74582 On ch=11 n=73 v=127
74592 On ch=2 n=37 v=127
74592 On ch=10 n=42 v=69
74592 On ch=10 n=82 v=58
74595 On ch=4 n=66 v=127
74604 Off ch=10 n=82 v=58
74604 Off ch=10 n=42 v=69
74625 Off ch=11 n=73 v=127
74640 Off ch=2 n=37 v=127
74666 Off ch=4 n=66 v=127
74684 On ch=11 n=84 v=127
74685 On ch=4 n=69 v=127
74688 On ch=10 n=39 v=110
74688 On ch=10 n=40 v=113
74688 On ch=2 n=40 v=127
74688 On ch=10 n=42 v=49
74688 On ch=10 n=82 v=66
74698 Pb ch=11 v=10336
74700 Off ch=10 n=82 v=66
74700 Off ch=10 n=42 v=49
74700 Off ch=10 n=40 v=113
74700 Off ch=10 n=39 v=110
74712 Pb ch=11 v=12096
74728 Pb ch=11 v=12192
74741 Off ch=2 n=40 v=127
74746 Pb ch=11 v=12288
74754 Pb ch=11 v=12192
74765 Pb ch=11 v=8192
74771 Off ch=11 n=84 v=127
74771 Off ch=4 n=69 v=127
74780 On ch=11 n=73 v=123
74784 On ch=10 n=42 v=79
74784 On ch=2 n=42 v=127
74784 On ch=3 n=59 v=96
74784 On ch=3 n=63 v=96
74784 On ch=3 n=68 v=96
74784 On ch=10 n=82 v=60
74784 Off ch=7 n=73 v=97
74789 On ch=4 n=71 v=127
74796 Off ch=10 n=82 v=60
74796 Off ch=10 n=42 v=79
74804 Par ch=7 c=10 v=127
74830 Off ch=2 n=42 v=127
74832 Off ch=3 n=68 v=96
74832 Off ch=3 n=63 v=96
74832 Off ch=3 n=59 v=96
74837 Off ch=11 n=73 v=123
74865 On ch=7 n=64 v=113
74880 On ch=10 n=36 v=105
74880 On ch=2 n=40 v=127
74880 On ch=10 n=42 v=46
74880 On ch=10 n=82 v=56
74892 Off ch=10 n=82 v=56
74892 Off ch=10 n=42 v=46
74892 Off ch=10 n=36 v=105
74939 Off ch=2 n=40 v=127
74947 Off ch=7 n=64 v=113
74948 On ch=7 n=66 v=113
74955 Off ch=4 n=71 v=127
74974 On ch=4 n=69 v=127
74976 On ch=2 n=37 v=127
74976 On ch=10 n=42 v=74
74976 On ch=10 n=82 v=60
74988 Off ch=10 n=82 v=60
74988 Off ch=10 n=42 v=74
75008 Off ch=7 n=66 v=113
75024 Par ch=5 c=7 v=70
75030 Off ch=2 n=37 v=127
75050 Off ch=4 n=69 v=127
75072 On ch=2 n=35 v=127
75072 On ch=10 n=39 v=110
75072 On ch=10 n=40 v=113
75072 On ch=10 n=42 v=46
75072 On ch=4 n=68 v=127
75072 On ch=10 n=82 v=64
75084 Off ch=10 n=82 v=64
75084 Off ch=10 n=42 v=46
75084 Off ch=10 n=40 v=113
75084 Off ch=10 n=39 v=110
75124 Par ch=7 c=10 v=64
75137 Off ch=2 n=35 v=127
75150 Off ch=4 n=68 v=127
75168 On ch=2 n=37 v=127
75168 On ch=10 n=42 v=79
75168 On ch=10 n=82 v=64
75169 On ch=5 n=54 v=86
75170 Off ch=5 n=54 v=86
75171 On ch=5 n=66 v=76
75172 Off ch=5 n=66 v=76
75175 On ch=4 n=66 v=127
75180 Off ch=10 n=82 v=64
75180 Off ch=10 n=42 v=79
75217 On ch=5 n=54 v=87
75218 Off ch=5 n=54 v=87
75219 On ch=5 n=66 v=76
75219 Off ch=2 n=37 v=127
75220 Off ch=5 n=66 v=76
75264 On ch=10 n=36 v=105
75264 On ch=10 n=42 v=42
75264 On ch=2 n=47 v=127
75264 On ch=5 n=54 v=104
75264 On ch=3 n=57 v=73
75264 On ch=3 n=62 v=73
75264 On ch=3 n=66 v=73
75264 On ch=7 n=74 v=68
75264 On ch=7 n=78 v=72
75264 On ch=10 n=82 v=66
75265 On ch=5 n=66 v=127
75276 Off ch=10 n=82 v=66
75276 Off ch=10 n=42 v=42
75276 Off ch=10 n=36 v=105
75299 Off ch=5 n=66 v=127
75299 Off ch=5 n=54 v=104
75312 Off ch=2 n=47 v=127
75346 Off ch=4 n=66 v=127
75357 On ch=5 n=54 v=78
75358 Off ch=5 n=54 v=78
75360 On ch=10 n=42 v=69
75360 On ch=2 n=42 v=127
75360 On ch=10 n=82 v=64
75365 On ch=5 n=66 v=82
75366 Off ch=5 n=66 v=82
75372 Off ch=10 n=82 v=64
75372 Off ch=10 n=42 v=69
75395 Off ch=2 n=42 v=127
75404 On ch=5 n=66 v=82
75405 Off ch=5 n=66 v=82
75408 On ch=5 n=54 v=82
75409 Off ch=5 n=54 v=82
75454 On ch=5 n=54 v=118
75456 On ch=10 n=39 v=110
75456 On ch=10 n=40 v=112
75456 On ch=10 n=42 v=54
75456 On ch=2 n=45 v=127
75456 On ch=10 n=82 v=62
75459 On ch=5 n=66 v=127
75468 Off ch=10 n=82 v=62
75468 Off ch=10 n=42 v=54
75468 Off ch=10 n=40 v=112
75468 Off ch=10 n=39 v=110
75485 Off ch=5 n=54 v=118
75489 Off ch=5 n=66 v=127
75508 Off ch=2 n=45 v=127
75550 On ch=5 n=54 v=82
75551 Off ch=5 n=54 v=82
75552 On ch=10 n=42 v=74
75552 On ch=2 n=47 v=127
75552 On ch=10 n=82 v=64
75557 On ch=5 n=66 v=82
75558 Off ch=5 n=66 v=82
75564 Off ch=10 n=82 v=64
75564 Off ch=10 n=42 v=74
75596 On ch=5 n=66 v=82
75597 Off ch=5 n=66 v=82
75602 On ch=5 n=54 v=82
75603 Off ch=5 n=54 v=82
75622 Off ch=2 n=47 v=127
75644 On ch=5 n=54 v=104
75648 On ch=10 n=36 v=105
75648 On ch=10 n=42 v=57
75648 On ch=5 n=66 v=127
75648 On ch=10 n=82 v=64
75660 Off ch=10 n=82 v=64
75660 Off ch=10 n=42 v=57
75660 Off ch=10 n=36 v=105
75676 Off ch=5 n=54 v=104
75684 Off ch=5 n=66 v=127
75743 On ch=5 n=54 v=78
75744 On ch=10 n=42 v=69
75744 On ch=2 n=42 v=127
75744 On ch=10 n=82 v=68
75744 Off ch=5 n=54 v=78
75747 On ch=4 n=66 v=127
75751 On ch=5 n=66 v=74
75752 Off ch=5 n=66 v=74
75756 Off ch=10 n=82 v=68
75756 Off ch=10 n=42 v=69
75786 On ch=5 n=66 v=74
75787 Off ch=5 n=66 v=74
75792 On ch=5 n=54 v=74
75793 Off ch=5 n=54 v=74
75800 Off ch=2 n=42 v=127
75836 Off ch=4 n=66 v=127
75837 On ch=5 n=54 v=104
75840 On ch=10 n=39 v=110
75840 On ch=10 n=40 v=113
75840 On ch=2 n=40 v=127
75840 On ch=10 n=42 v=57
75840 On ch=10 n=82 v=62
75841 On ch=5 n=66 v=127
75852 Off ch=10 n=82 v=62
75852 Off ch=10 n=42 v=57
75852 Off ch=10 n=40 v=113
75852 Off ch=10 n=39 v=110
75872 Off ch=5 n=54 v=104
75875 Off ch=5 n=66 v=127
75900 Off ch=2 n=40 v=127
75934 On ch=5 n=54 v=70
75935 Off ch=5 n=54 v=70
75936 On ch=10 n=42 v=79
75936 On ch=2 n=42 v=127
75936 On ch=5 n=66 v=70
75936 On ch=4 n=66 v=127
75936 On ch=10 n=82 v=64
75937 Off ch=5 n=66 v=70
75948 Off ch=10 n=82 v=64
75948 Off ch=10 n=42 v=79
75981 On ch=5 n=66 v=70
75982 Off ch=5 n=66 v=70
75987 On ch=5 n=54 v=70
75988 Off ch=5 n=54 v=70
75988 Off ch=2 n=42 v=127
76022 Off ch=4 n=66 v=127
76029 On ch=5 n=54 v=104
76032 On ch=10 n=36 v=105
76032 On ch=10 n=42 v=54
76032 On ch=2 n=47 v=127
76032 On ch=10 n=82 v=62
76033 On ch=5 n=66 v=127
76035 On ch=4 n=73 v=127
76044 Off ch=10 n=82 v=62
76044 Off ch=10 n=42 v=54
76044 Off ch=10 n=36 v=105
76064 Off ch=5 n=54 v=104
76067 Off ch=5 n=66 v=127
76081 Off ch=2 n=47 v=127
76107 Off ch=4 n=73 v=127
76125 On ch=5 n=54 v=70
76126 Off ch=5 n=54 v=70
76128 On ch=10 n=42 v=69
76128 On ch=2 n=42 v=127
76128 On ch=10 n=82 v=55
76130 On ch=4 n=71 v=127
76131 On ch=5 n=66 v=78
76132 Off ch=5 n=66 v=78
76140 Off ch=10 n=82 v=55
76140 Off ch=10 n=42 v=69
76169 On ch=5 n=66 v=78
76170 Off ch=5 n=66 v=78
76178 On ch=5 n=54 v=74
76178 Off ch=2 n=42 v=127
76179 Off ch=5 n=54 v=74
76206 Off ch=4 n=71 v=127
76222 On ch=5 n=54 v=99
76224 On ch=10 n=39 v=110
76224 On ch=10 n=40 v=113
76224 On ch=10 n=42 v=49
76224 On ch=2 n=45 v=127
76224 On ch=10 n=82 v=55
76230 On ch=5 n=66 v=127
76231 On ch=4 n=71 v=127
76236 Off ch=10 n=82 v=55
76236 Off ch=10 n=42 v=49
76236 Off ch=10 n=40 v=113
76236 Off ch=10 n=39 v=110
76257 Off ch=5 n=54 v=99
76258 Off ch=5 n=66 v=127
76281 Off ch=2 n=45 v=127
76320 On ch=10 n=42 v=79
76320 On ch=2 n=47 v=127
76320 On ch=10 n=82 v=51
76321 On ch=5 n=54 v=74
76322 Off ch=5 n=54 v=74
76326 On ch=5 n=66 v=78
76327 Off ch=5 n=66 v=78
76332 Off ch=10 n=82 v=51
76332 Off ch=10 n=42 v=79
76342 Off ch=4 n=71 v=127
76366 On ch=5 n=66 v=78
76367 Off ch=5 n=66 v=78
76372 On ch=5 n=54 v=78
76373 Off ch=5 n=54 v=78
76388 Off ch=2 n=47 v=127
76413 On ch=5 n=54 v=104
76416 On ch=10 n=36 v=105
76416 On ch=10 n=42 v=46
76416 On ch=10 n=82 v=58
76420 On ch=4 n=66 v=127
76422 On ch=5 n=66 v=127
76428 Off ch=10 n=82 v=58
76428 Off ch=10 n=42 v=46
76428 Off ch=10 n=36 v=105
76443 Off ch=5 n=54 v=104
76454 Off ch=5 n=66 v=127
76508 On ch=5 n=54 v=73
76509 Off ch=5 n=54 v=73
76512 On ch=10 n=42 v=74
76512 On ch=2 n=42 v=127
76512 On ch=10 n=82 v=47
76519 On ch=5 n=66 v=70
76520 Off ch=5 n=66 v=70
76520 Off ch=4 n=66 v=127
76521 On ch=4 n=62 v=127
76524 Off ch=10 n=82 v=47
76524 Off ch=10 n=42 v=74
76556 On ch=5 n=66 v=70
76557 Off ch=5 n=66 v=70
76563 On ch=5 n=54 v=70
76564 Off ch=5 n=54 v=70
76575 Off ch=2 n=42 v=127
76607 On ch=5 n=54 v=104
76608 On ch=10 n=39 v=110
76608 On ch=10 n=40 v=113
76608 On ch=2 n=40 v=127
76608 On ch=10 n=42 v=46
76608 On ch=10 n=82 v=62
76610 On ch=5 n=66 v=127
76620 Off ch=10 n=82 v=62
76620 Off ch=10 n=42 v=46
76620 Off ch=10 n=40 v=113
76620 Off ch=10 n=39 v=110
76634 Off ch=5 n=54 v=104
76639 Off ch=5 n=66 v=127
76668 Off ch=2 n=40 v=127
76686 Off ch=4 n=62 v=127
76700 On ch=5 n=54 v=70
76701 Off ch=5 n=54 v=70
76704 On ch=2 n=37 v=127
76704 On ch=10 n=42 v=79
76704 On ch=10 n=82 v=58
76710 On ch=5 n=66 v=70
76711 Off ch=5 n=66 v=70
76714 On ch=4 n=61 v=127
76716 Off ch=10 n=82 v=58
76716 Off ch=10 n=42 v=79
76751 On ch=5 n=66 v=74
76752 Off ch=5 n=66 v=74
76755 On ch=5 n=54 v=74
76756 Off ch=5 n=54 v=74
76767 Off ch=2 n=37 v=127
76780 Off ch=3 n=66 v=73
76784 Off ch=3 n=57 v=73
76784 Off ch=3 n=62 v=73
76798 On ch=5 n=54 v=104
76800 On ch=10 n=36 v=105
76800 On ch=10 n=42 v=42
76800 On ch=2 n=42 v=127
76800 On ch=3 n=57 v=96
76800 On ch=3 n=61 v=96
76800 On ch=3 n=66 v=96
76800 On ch=10 n=82 v=56
76800 Off ch=7 n=78 v=72
76800 Off ch=7 n=74 v=68
76803 On ch=5 n=66 v=127
76812 Off ch=10 n=82 v=56
76812 Off ch=10 n=42 v=42
76812 Off ch=10 n=36 v=105
76828 Off ch=5 n=54 v=104
76829 Off ch=5 n=66 v=127
76850 Off ch=2 n=42 v=127
76852 Off ch=3 n=57 v=96
76855 Off ch=3 n=61 v=96
76855 Off ch=3 n=66 v=96
76890 On ch=11 n=73 v=127
76896 On ch=2 n=37 v=127
76896 On ch=10 n=42 v=69
76896 On ch=10 n=82 v=46
76908 Off ch=10 n=82 v=46
76908 Off ch=10 n=42 v=69
76936 Off ch=11 n=73 v=127
76948 Off ch=2 n=37 v=127
76989 On ch=11 n=84 v=127
76992 On ch=10 n=39 v=110
76992 On ch=10 n=40 v=112
76992 On ch=2 n=40 v=127
76992 On ch=10 n=42 v=54
76992 On ch=10 n=82 v=64
77004 Off ch=10 n=82 v=64
77004 Off ch=10 n=42 v=54
77004 Off ch=10 n=40 v=112
77004 Off ch=10 n=39 v=110
77014 Off ch=4 n=61 v=127
77017 Pb ch=11 v=10336
77020 Pb ch=11 v=12096
77031 Pb ch=11 v=12192
77045 Pb ch=11 v=12288
77047 Off ch=2 n=40 v=127
77066 Pb ch=11 v=8192
77071 Off ch=11 n=84 v=127
77088 On ch=10 n=42 v=74
77088 On ch=10 n=82 v=53
77088 Par ch=7 c=10 v=0
77088 On ch=2 n=42 v=127
77088 On ch=3 n=59 v=96
77088 On ch=3 n=63 v=96
77088 On ch=3 n=68 v=96
77091 On ch=11 n=73 v=127
77100 Off ch=10 n=82 v=53
77100 Off ch=10 n=42 v=74
77136 Off ch=3 n=68 v=96
77136 Off ch=3 n=63 v=96
77136 Off ch=3 n=59 v=96
77139 Off ch=2 n=42 v=127
77141 Off ch=11 n=73 v=127
77182 On ch=7 n=85 v=126
77184 On ch=10 n=36 v=105
77184 On ch=2 n=40 v=127
77184 On ch=10 n=42 v=57
77184 On ch=10 n=82 v=62
77196 Off ch=10 n=82 v=62
77196 Off ch=10 n=42 v=57
77196 Off ch=10 n=36 v=105
77230 Off ch=7 n=85 v=126
77231 On ch=7 n=81 v=126
77240 Off ch=2 n=40 v=127
77279 Off ch=7 n=81 v=126
77280 On ch=2 n=37 v=127
77280 On ch=10 n=42 v=69
77280 On ch=10 n=82 v=60
77281 On ch=7 n=78 v=126
77292 Off ch=10 n=82 v=60
77292 Off ch=10 n=42 v=69
77329 On ch=7 n=74 v=126
77329 Off ch=7 n=78 v=126
77331 Off ch=2 n=37 v=127
77376 On ch=2 n=35 v=127
77376 On ch=10 n=39 v=110
77376 On ch=10 n=40 v=113
77376 On ch=10 n=42 v=57
77376 On ch=10 n=82 v=68
77377 On ch=7 n=73 v=97
77377 Off ch=7 n=74 v=126
77388 Off ch=10 n=82 v=68
77388 Off ch=10 n=42 v=57
77388 Off ch=10 n=40 v=113
77388 Off ch=10 n=39 v=110
77437 Off ch=2 n=35 v=127
77472 On ch=2 n=37 v=127
77472 On ch=10 n=42 v=79
77472 On ch=10 n=82 v=50
77484 Off ch=10 n=82 v=50
77484 Off ch=10 n=42 v=79
77526 Off ch=2 n=37 v=127
77568 On ch=10 n=36 v=105
77568 On ch=10 n=42 v=54
77568 On ch=2 n=42 v=127
77568 On ch=3 n=61 v=96
77568 On ch=3 n=64 v=96
77568 On ch=3 n=69 v=96
77568 On ch=10 n=82 v=68
77580 Off ch=10 n=82 v=68
77580 Off ch=10 n=42 v=54
77580 Off ch=10 n=36 v=105
77615 Off ch=2 n=42 v=127
77616 Off ch=3 n=69 v=96
77616 Off ch=3 n=64 v=96
77616 Off ch=3 n=61 v=96
77654 On ch=11 n=73 v=127
77664 On ch=2 n=37 v=127
77664 On ch=10 n=42 v=69
77664 On ch=10 n=82 v=58
77676 Off ch=10 n=82 v=58
77676 Off ch=10 n=42 v=69
77697 Off ch=11 n=73 v=127
77712 Off ch=2 n=37 v=127
77756 On ch=11 n=84 v=127
77760 On ch=10 n=39 v=110
77760 On ch=10 n=40 v=113
77760 On ch=10 n=42 v=49
77760 On ch=10 n=82 v=66
77760 Par ch=5 c=0 v=8
77760 On ch=2 n=40 v=127
77770 Pb ch=11 v=10336
77772 Off ch=10 n=82 v=66
77772 Off ch=10 n=42 v=49
77772 Off ch=10 n=40 v=113
77772 Off ch=10 n=39 v=110
77784 Pb ch=11 v=12096
77800 Pb ch=11 v=12192
77808 PrCh ch=5 p=28
77813 Off ch=2 n=40 v=127
77834 Pb ch=11 v=12288
77841 Pb ch=11 v=8192
77843 Off ch=11 n=84 v=127
77852 On ch=11 n=73 v=123
77856 On ch=10 n=42 v=79
77856 On ch=10 n=82 v=60
77856 Off ch=7 n=73 v=97
77856 Par ch=5 c=7 v=93
77856 On ch=2 n=42 v=127
77856 On ch=3 n=59 v=96
77856 On ch=3 n=63 v=96
77856 On ch=3 n=68 v=96
77868 Off ch=10 n=82 v=60
77868 Off ch=10 n=42 v=79
77876 Par ch=7 c=10 v=127
77902 Off ch=2 n=42 v=127
77904 Off ch=3 n=68 v=96
77904 Off ch=3 n=63 v=96
77904 Off ch=3 n=59 v=96
77909 Off ch=11 n=73 v=123
77937 On ch=7 n=64 v=113
77952 On ch=10 n=36 v=105
77952 On ch=2 n=40 v=127
77952 On ch=10 n=42 v=46
77952 On ch=10 n=82 v=56
77964 Off ch=10 n=82 v=56
77964 Off ch=10 n=42 v=46
77964 Off ch=10 n=36 v=105
78011 Off ch=2 n=40 v=127
78019 Off ch=7 n=64 v=113
78020 On ch=7 n=66 v=113
78048 On ch=2 n=37 v=127
78048 On ch=10 n=42 v=74
78048 On ch=10 n=82 v=60
78060 Off ch=10 n=82 v=60
78060 Off ch=10 n=42 v=74
78080 Off ch=7 n=66 v=113
78096 On ch=10 n=45 v=97
78102 Off ch=2 n=37 v=127
78108 Off ch=10 n=45 v=97
78144 On ch=2 n=35 v=127
78144 On ch=10 n=39 v=110
78144 On ch=10 n=40 v=113
78144 On ch=10 n=42 v=46
78144 On ch=10 n=43 v=103
78144 On ch=10 n=82 v=64
78156 Off ch=10 n=82 v=64
78156 Off ch=10 n=43 v=103
78156 Off ch=10 n=42 v=46
78156 Off ch=10 n=40 v=113
78156 Off ch=10 n=39 v=110
78196 Par ch=7 c=10 v=64
78209 Off ch=2 n=35 v=127
78240 On ch=2 n=37 v=127
78240 On ch=10 n=46 v=100
78240 On ch=10 n=82 v=64
78246 On ch=5 n=54 v=127
78247 Off ch=5 n=54 v=127
78252 Off ch=10 n=82 v=64
78252 Off ch=10 n=46 v=100
78288 Par ch=11 c=10 v=64
78291 Off ch=2 n=37 v=127
78294 On ch=5 n=54 v=127
78295 Off ch=5 n=54 v=127
78336 On ch=10 n=36 v=105
78336 On ch=10 n=42 v=42
78336 On ch=2 n=42 v=127
78336 On ch=3 n=57 v=73
78336 On ch=7 n=61 v=70
78336 On ch=3 n=61 v=73
78336 On ch=7 n=66 v=70
78336 On ch=3 n=66 v=73
78336 On ch=10 n=82 v=66
78343 On ch=5 n=61 v=127
78348 Off ch=10 n=82 v=66
78348 Off ch=10 n=42 v=42
78348 Off ch=10 n=36 v=105
78371 Off ch=5 n=61 v=127
78385 On ch=5 n=61 v=127
78386 Off ch=2 n=42 v=127
78417 Off ch=5 n=61 v=127
78432 On ch=2 n=37 v=127
78432 On ch=10 n=42 v=69
78432 On ch=10 n=82 v=64
78439 On ch=5 n=50 v=71
78444 Off ch=10 n=82 v=64
78444 Off ch=10 n=42 v=69
78445 Off ch=5 n=50 v=71
78484 On ch=5 n=59 v=127
78484 Off ch=2 n=37 v=127
78528 On ch=10 n=39 v=110
78528 On ch=10 n=40 v=112
78528 On ch=2 n=40 v=127
78528 On ch=10 n=42 v=54
78528 On ch=10 n=82 v=62
78540 Off ch=10 n=82 v=62
78540 Off ch=10 n=42 v=54
78540 Off ch=10 n=40 v=112
78540 Off ch=10 n=39 v=110
78543 Off ch=5 n=59 v=127
78576 Off ch=7 n=61 v=70
78576 Off ch=7 n=66 v=70
78576 Off ch=3 n=66 v=73
78576 Off ch=3 n=61 v=73
78576 Off ch=3 n=57 v=73
78583 Off ch=2 n=40 v=127
78584 On ch=5 n=57 v=127
78605 Off ch=5 n=57 v=127
78624 On ch=10 n=42 v=74
78624 On ch=2 n=42 v=127
78624 On ch=3 n=59 v=73
78624 On ch=7 n=63 v=70
78624 On ch=3 n=63 v=73
78624 On ch=7 n=68 v=70
78624 On ch=3 n=68 v=73
78624 On ch=10 n=82 v=64
78627 On ch=5 n=60 v=127
78635 On ch=5 n=61 v=127
78636 Off ch=10 n=82 v=64
78636 Off ch=10 n=42 v=74
78643 Off ch=5 n=60 v=127
78675 Off ch=2 n=42 v=127
78720 On ch=10 n=36 v=105
78720 On ch=2 n=40 v=127
78720 On ch=10 n=42 v=57
78720 On ch=10 n=82 v=64
78732 Off ch=10 n=82 v=64
78732 Off ch=10 n=42 v=57
78732 Off ch=10 n=36 v=105
78776 Off ch=2 n=40 v=127
78816 On ch=2 n=37 v=127
78816 On ch=10 n=42 v=69
78816 On ch=10 n=82 v=68
78828 Off ch=10 n=82 v=68
78828 Off ch=10 n=42 v=69
78867 Off ch=2 n=37 v=127
78912 On ch=2 n=35 v=127
78912 On ch=10 n=39 v=110
78912 On ch=10 n=40 v=113
78912 On ch=10 n=42 v=57
78912 On ch=10 n=82 v=62
78924 Off ch=10 n=82 v=62
78924 Off ch=10 n=42 v=57
78924 Off ch=10 n=40 v=113
78924 Off ch=10 n=39 v=110
78946 Off ch=5 n=61 v=127
78973 Off ch=2 n=35 v=127
79008 On ch=2 n=37 v=127
79008 On ch=10 n=42 v=79
79008 On ch=10 n=82 v=64
79008 Off ch=7 n=68 v=70
79008 Off ch=7 n=63 v=70
79008 Off ch=3 n=68 v=73
79008 Off ch=3 n=59 v=73
79008 Off ch=3 n=63 v=73
79016 On ch=5 n=54 v=121
79017 Off ch=5 n=54 v=121
79020 Off ch=10 n=82 v=64
79020 Off ch=10 n=42 v=79
79062 Off ch=2 n=37 v=127
79064 On ch=5 n=54 v=120
79065 Off ch=5 n=54 v=120
79104 On ch=10 n=36 v=105
79104 On ch=10 n=42 v=54
79104 On ch=2 n=42 v=127
79104 On ch=3 n=61 v=73
79104 On ch=7 n=64 v=70
79104 On ch=3 n=64 v=73
79104 On ch=7 n=69 v=70
79104 On ch=3 n=69 v=73
79104 On ch=10 n=82 v=62
79112 On ch=5 n=61 v=127
79116 Off ch=10 n=82 v=62
79116 Off ch=10 n=42 v=54
79116 Off ch=10 n=36 v=105
79143 Off ch=5 n=61 v=127
79151 Off ch=2 n=42 v=127
79152 On ch=5 n=61 v=127
79189 Off ch=5 n=61 v=127
79200 On ch=2 n=37 v=127
79200 On ch=10 n=42 v=69
79200 On ch=10 n=82 v=55
79207 On ch=5 n=50 v=71
79212 Off ch=10 n=82 v=55
79212 Off ch=10 n=42 v=69
79221 Off ch=5 n=50 v=71
79248 Off ch=2 n=37 v=127
79252 On ch=5 n=59 v=127
79296 On ch=10 n=39 v=110
79296 On ch=10 n=40 v=113
79296 On ch=2 n=40 v=127
79296 On ch=10 n=42 v=49
79296 On ch=10 n=82 v=55
79300 Off ch=5 n=59 v=127
79308 Off ch=10 n=82 v=55
79308 Off ch=10 n=42 v=49
79308 Off ch=10 n=40 v=113
79308 Off ch=10 n=39 v=110
79342 Off ch=7 n=69 v=70
79344 Off ch=7 n=64 v=70
79344 Off ch=3 n=61 v=73
79344 Off ch=3 n=64 v=73
79344 Off ch=3 n=69 v=73
79346 On ch=5 n=57 v=127
79349 Off ch=2 n=40 v=127
79369 On ch=5 n=59 v=102
79371 Off ch=5 n=59 v=102
79374 Off ch=5 n=57 v=127
79384 On ch=5 n=60 v=110
79392 On ch=10 n=42 v=79
79392 On ch=2 n=42 v=127
79392 On ch=3 n=59 v=73
79392 On ch=7 n=63 v=70
79392 On ch=3 n=63 v=73
79392 On ch=7 n=68 v=70
79392 On ch=3 n=68 v=73
79392 On ch=10 n=82 v=51
79396 Off ch=5 n=60 v=110
79398 On ch=5 n=61 v=127
79404 Off ch=10 n=82 v=51
79404 Off ch=10 n=42 v=79
79438 Off ch=2 n=42 v=127
79488 On ch=10 n=36 v=105
79488 On ch=2 n=40 v=127
79488 On ch=10 n=42 v=46
79488 On ch=10 n=82 v=58
79500 Off ch=10 n=82 v=58
79500 Off ch=10 n=42 v=46
79500 Off ch=10 n=36 v=105
79547 Off ch=2 n=40 v=127
79584 On ch=2 n=37 v=127
79584 On ch=10 n=42 v=74
79584 On ch=10 n=82 v=47
79596 Off ch=10 n=82 v=47
79596 Off ch=10 n=42 v=74
79638 Off ch=2 n=37 v=127
79680 On ch=2 n=35 v=127
79680 On ch=10 n=39 v=110
79680 On ch=10 n=40 v=113
79680 On ch=10 n=42 v=46
79680 On ch=10 n=82 v=62
79692 Off ch=10 n=82 v=62
79692 Off ch=10 n=42 v=46
79692 Off ch=10 n=40 v=113
79692 Off ch=10 n=39 v=110
79728 Off ch=5 n=61 v=127
79732 Off ch=7 n=63 v=70
79733 Off ch=7 n=68 v=70
79745 Off ch=2 n=35 v=127
79776 On ch=2 n=37 v=127
79776 On ch=10 n=42 v=79
79776 On ch=5 n=54 v=121
79776 On ch=10 n=82 v=58
79776 Off ch=3 n=68 v=73
79776 Off ch=3 n=63 v=73
79776 Off ch=3 n=59 v=73
79788 Off ch=10 n=82 v=58
79788 Off ch=10 n=42 v=79
79788 Off ch=5 n=54 v=121
79824 On ch=5 n=54 v=122
79827 Off ch=2 n=37 v=127
79836 Off ch=5 n=54 v=122
79872 On ch=10 n=36 v=105
79872 On ch=10 n=42 v=42
79872 On ch=2 n=42 v=127
79872 On ch=3 n=57 v=73
79872 On ch=7 n=61 v=70
79872 On ch=3 n=61 v=73
79872 On ch=7 n=66 v=70
79872 On ch=3 n=66 v=73
79872 On ch=10 n=82 v=56
79882 On ch=5 n=61 v=127
79884 Off ch=10 n=82 v=56
79884 Off ch=10 n=42 v=42
79884 Off ch=10 n=36 v=105
79913 Off ch=5 n=61 v=127
79920 On ch=5 n=61 v=127
79922 Off ch=2 n=42 v=127
79957 Off ch=5 n=61 v=127
79968 On ch=2 n=37 v=127
79968 On ch=10 n=42 v=69
79968 On ch=10 n=82 v=46
79980 Off ch=10 n=82 v=46
79980 Off ch=10 n=42 v=69
80020 On ch=5 n=59 v=127
80020 Off ch=2 n=37 v=127
80064 On ch=10 n=39 v=110
80064 On ch=10 n=40 v=112
80064 On ch=2 n=40 v=127
80064 On ch=10 n=42 v=54
80064 On ch=10 n=82 v=64
80068 Off ch=5 n=59 v=127
80076 Off ch=10 n=82 v=64
80076 Off ch=10 n=42 v=54
80076 Off ch=10 n=40 v=112
80076 Off ch=10 n=39 v=110
80110 Off ch=7 n=61 v=70
80112 Off ch=7 n=66 v=70
80112 Off ch=3 n=66 v=73
80112 Off ch=3 n=57 v=73
80112 Off ch=3 n=61 v=73
80113 On ch=5 n=57 v=102
80119 Off ch=2 n=40 v=127
80133 Off ch=5 n=57 v=102
80160 On ch=10 n=42 v=74
80160 On ch=2 n=42 v=127
80160 On ch=3 n=59 v=73
80160 On ch=7 n=63 v=70
80160 On ch=3 n=63 v=73
80160 On ch=7 n=68 v=70
80160 On ch=3 n=68 v=73
80160 On ch=10 n=82 v=53
80161 On ch=5 n=61 v=127
80172 Off ch=10 n=82 v=53
80172 Off ch=10 n=42 v=74
80211 Off ch=2 n=42 v=127
80256 On ch=10 n=36 v=105
80256 On ch=2 n=40 v=127
80256 On ch=10 n=42 v=57
80256 On ch=10 n=82 v=62
80268 Off ch=10 n=82 v=62
80268 Off ch=10 n=42 v=57
80268 Off ch=10 n=36 v=105
80312 Off ch=2 n=40 v=127
80352 On ch=2 n=37 v=127
80352 On ch=10 n=42 v=69
80352 On ch=10 n=82 v=60
80364 Off ch=10 n=82 v=60
80364 Off ch=10 n=42 v=69
80403 Off ch=2 n=37 v=127
80448 On ch=2 n=35 v=127
80448 On ch=10 n=39 v=110
80448 On ch=10 n=40 v=113
80448 On ch=10 n=42 v=57
80448 On ch=10 n=82 v=68
80453 Off ch=7 n=68 v=70
80458 Off ch=7 n=63 v=70
80460 Off ch=10 n=82 v=68
80460 Off ch=10 n=42 v=57
80460 Off ch=10 n=40 v=113
80460 Off ch=10 n=39 v=110
80509 Off ch=5 n=61 v=127
80509 Off ch=2 n=35 v=127
80544 On ch=2 n=37 v=127
80544 On ch=10 n=42 v=79
80544 On ch=5 n=54 v=120
80544 On ch=10 n=82 v=50
80544 Off ch=3 n=59 v=73
80544 Off ch=3 n=63 v=73
80544 Off ch=3 n=68 v=73
80545 Off ch=5 n=54 v=120
80556 Off ch=10 n=82 v=50
80556 Off ch=10 n=42 v=79
80592 On ch=5 n=54 v=121
80593 Off ch=5 n=54 v=121
80598 Off ch=2 n=37 v=127
80640 On ch=10 n=36 v=105
80640 On ch=10 n=42 v=54
80640 On ch=2 n=42 v=127
80640 On ch=3 n=61 v=73
80640 On ch=7 n=64 v=70
80640 On ch=3 n=64 v=73
80640 On ch=7 n=69 v=70
80640 On ch=3 n=69 v=73
80640 On ch=10 n=82 v=68
80648 On ch=5 n=61 v=127
80652 Off ch=10 n=82 v=68
80652 Off ch=10 n=42 v=54
80652 Off ch=10 n=36 v=105
80679 Off ch=5 n=61 v=127
80687 Off ch=2 n=42 v=127
80688 On ch=5 n=61 v=127
80718 Off ch=5 n=61 v=127
80736 On ch=2 n=37 v=127
80736 On ch=10 n=42 v=69
80736 On ch=10 n=82 v=58
80748 Off ch=10 n=82 v=58
80748 Off ch=10 n=42 v=69
80749 On ch=5 n=50 v=35
80753 Off ch=5 n=50 v=35
80784 Off ch=2 n=37 v=127
80786 On ch=5 n=59 v=127
80832 On ch=10 n=39 v=110
80832 On ch=10 n=40 v=113
80832 On ch=2 n=40 v=127
80832 On ch=10 n=42 v=49
80832 On ch=10 n=82 v=66
80839 Off ch=5 n=59 v=127
80844 Off ch=10 n=82 v=66
80844 Off ch=10 n=42 v=49
80844 Off ch=10 n=40 v=113
80844 Off ch=10 n=39 v=110
80853 Off ch=7 n=64 v=70
80853 Off ch=7 n=69 v=70
80880 Off ch=3 n=61 v=73
80880 Off ch=3 n=64 v=73
80880 Off ch=3 n=69 v=73
80885 On ch=5 n=57 v=127
80885 Off ch=2 n=40 v=127
80915 Off ch=5 n=57 v=127
80928 On ch=10 n=42 v=79
80928 On ch=2 n=42 v=127
80928 On ch=3 n=59 v=73
80928 On ch=7 n=63 v=70
80928 On ch=3 n=63 v=73
80928 On ch=7 n=68 v=70
80928 On ch=3 n=68 v=73
80928 On ch=10 n=82 v=60
80929 On ch=5 n=54 v=120
80930 Off ch=5 n=54 v=120
80940 Off ch=10 n=82 v=60
80940 Off ch=10 n=42 v=79
80974 Off ch=2 n=42 v=127
80977 On ch=5 n=54 v=121
80978 Off ch=5 n=54 v=121
81024 On ch=10 n=36 v=105
81024 On ch=2 n=40 v=127
81024 On ch=10 n=42 v=46
81024 On ch=10 n=82 v=56
81033 On ch=5 n=61 v=127
81036 Off ch=10 n=82 v=56
81036 Off ch=10 n=42 v=46
81036 Off ch=10 n=36 v=105
81060 Off ch=5 n=61 v=127
81067 Off ch=7 n=68 v=70
81067 Off ch=7 n=63 v=70
81072 On ch=5 n=61 v=127
81083 Off ch=2 n=40 v=127
81087 Par ch=7 c=10 v=0
81115 On ch=7 n=66 v=126
81115 On ch=7 n=78 v=126
81118 Off ch=5 n=61 v=127
81120 On ch=2 n=37 v=127
81120 On ch=10 n=42 v=74
81120 On ch=10 n=82 v=60
81132 Off ch=10 n=82 v=60
81132 Off ch=10 n=42 v=74
81155 Off ch=7 n=66 v=126
81157 Off ch=7 n=78 v=126
81174 Off ch=2 n=37 v=127
81179 On ch=5 n=59 v=127
81210 On ch=7 n=66 v=126
81210 On ch=7 n=78 v=126
81213 Off ch=5 n=59 v=127
81216 On ch=2 n=35 v=127
81216 On ch=10 n=39 v=110
81216 On ch=10 n=40 v=113
81216 On ch=10 n=42 v=46
81216 On ch=10 n=82 v=64
81228 Off ch=10 n=82 v=64
81228 Off ch=10 n=42 v=46
81228 Off ch=10 n=40 v=113
81228 Off ch=10 n=39 v=110
81250 Off ch=7 n=78 v=126
81253 Off ch=7 n=66 v=126
81270 On ch=5 n=57 v=127
81281 Off ch=2 n=35 v=127
81284 Par ch=7 c=10 v=64
81305 Off ch=5 n=57 v=127
81312 On ch=2 n=37 v=127
81312 On ch=10 n=42 v=79
81312 On ch=10 n=82 v=64
81314 On ch=5 n=54 v=120
81315 Off ch=5 n=54 v=120
81324 Off ch=10 n=82 v=64
81324 Off ch=10 n=42 v=79
81360 Off ch=3 n=68 v=73
81360 Off ch=3 n=63 v=73
81360 Off ch=3 n=59 v=73
81362 On ch=5 n=54 v=121
81363 Off ch=5 n=54 v=121
81363 Off ch=2 n=37 v=127
81408 On ch=10 n=36 v=105
81408 On ch=10 n=42 v=42
81408 On ch=2 n=42 v=127
81408 On ch=3 n=57 v=73
81408 On ch=7 n=61 v=70
81408 On ch=3 n=61 v=73
81408 On ch=7 n=66 v=70
81408 On ch=3 n=66 v=73
81408 On ch=10 n=82 v=66
81417 On ch=5 n=61 v=127
81420 Off ch=10 n=82 v=66
81420 Off ch=10 n=42 v=42
81420 Off ch=10 n=36 v=105
81445 Off ch=5 n=61 v=127
81457 On ch=5 n=61 v=127
81458 Off ch=2 n=42 v=127
81503 Off ch=5 n=61 v=127
81504 On ch=2 n=37 v=127
81504 On ch=10 n=42 v=69
81504 On ch=10 n=82 v=64
81516 Off ch=10 n=82 v=64
81516 Off ch=10 n=42 v=69
81529 On ch=5 n=59 v=32
81540 Off ch=5 n=59 v=32
81553 On ch=5 n=59 v=127
81556 Off ch=2 n=37 v=127
81600 On ch=10 n=39 v=110
81600 On ch=10 n=40 v=112
81600 On ch=2 n=40 v=127
81600 On ch=10 n=42 v=54
81600 On ch=10 n=82 v=62
81612 Off ch=10 n=82 v=62
81612 Off ch=10 n=42 v=54
81612 Off ch=10 n=40 v=112
81612 Off ch=10 n=39 v=110
81612 Off ch=5 n=59 v=127
81648 On ch=5 n=57 v=127
81648 Off ch=7 n=61 v=70
81648 Off ch=7 n=66 v=70
81648 Off ch=3 n=66 v=73
81648 Off ch=3 n=61 v=73
81648 Off ch=3 n=57 v=73
81655 Off ch=2 n=40 v=127
81668 Off ch=5 n=57 v=127
81696 On ch=10 n=42 v=74
81696 On ch=2 n=42 v=127
81696 On ch=3 n=59 v=73
81696 On ch=7 n=63 v=70
81696 On ch=3 n=63 v=73
81696 On ch=7 n=68 v=70
81696 On ch=3 n=68 v=73
81696 On ch=10 n=82 v=64
81701 On ch=5 n=60 v=108
81708 Off ch=10 n=82 v=64
81708 Off ch=10 n=42 v=74
81708 On ch=5 n=61 v=127
81719 Off ch=5 n=60 v=108
81747 Off ch=2 n=42 v=127
81792 On ch=10 n=36 v=105
81792 On ch=2 n=40 v=127
81792 On ch=10 n=42 v=57
81792 On ch=10 n=82 v=64
81804 Off ch=10 n=82 v=64
81804 Off ch=10 n=42 v=57
81804 Off ch=10 n=36 v=105
81848 Off ch=2 n=40 v=127
81888 On ch=2 n=37 v=127
81888 On ch=10 n=42 v=69
81888 On ch=10 n=82 v=68
81900 Off ch=10 n=82 v=68
81900 Off ch=10 n=42 v=69
81939 Off ch=2 n=37 v=127
81984 On ch=2 n=35 v=127
81984 On ch=10 n=39 v=110
81984 On ch=10 n=40 v=113
81984 On ch=10 n=42 v=57
81984 On ch=10 n=82 v=62
81996 Off ch=10 n=82 v=62
81996 Off ch=10 n=42 v=57
81996 Off ch=10 n=40 v=113
81996 Off ch=10 n=39 v=110
82040 Off ch=5 n=61 v=127
82045 Off ch=2 n=35 v=127
82080 On ch=2 n=37 v=127
82080 On ch=10 n=42 v=79
82080 On ch=10 n=82 v=64
82080 Off ch=7 n=68 v=70
82080 Off ch=7 n=63 v=70
82080 Off ch=3 n=68 v=73
82080 Off ch=3 n=59 v=73
82080 Off ch=3 n=63 v=73
82082 On ch=5 n=54 v=120
82083 Off ch=5 n=54 v=120
82092 Off ch=10 n=82 v=64
82092 Off ch=10 n=42 v=79
82131 On ch=5 n=54 v=121
82132 Off ch=5 n=54 v=121
82134 Off ch=2 n=37 v=127
82176 On ch=10 n=36 v=105
82176 On ch=10 n=42 v=54
82176 On ch=2 n=42 v=127
82176 On ch=3 n=61 v=73
82176 On ch=7 n=64 v=70
82176 On ch=3 n=64 v=73
82176 On ch=7 n=69 v=70
82176 On ch=3 n=69 v=73
82176 On ch=10 n=82 v=62
82185 On ch=5 n=61 v=127
82188 Off ch=10 n=82 v=62
82188 Off ch=10 n=42 v=54
82188 Off ch=10 n=36 v=105
82216 Off ch=5 n=61 v=127
82223 Off ch=2 n=42 v=127
82228 On ch=5 n=61 v=127
82258 Off ch=5 n=61 v=127
82272 On ch=2 n=37 v=127
82272 On ch=10 n=42 v=69
82272 On ch=10 n=82 v=55
82275 On ch=5 n=49 v=78
82279 Off ch=5 n=49 v=78
82284 Off ch=10 n=82 v=55
82284 Off ch=10 n=42 v=69
82320 Off ch=2 n=37 v=127
82326 On ch=5 n=59 v=127
82363 Off ch=5 n=59 v=127
82368 On ch=10 n=39 v=110
82368 On ch=10 n=40 v=113
82368 On ch=2 n=40 v=127
82368 On ch=10 n=42 v=49
82368 On ch=10 n=82 v=55
82380 Off ch=10 n=82 v=55
82380 Off ch=10 n=42 v=49
82380 Off ch=10 n=40 v=113
82380 Off ch=10 n=39 v=110
82414 Off ch=7 n=69 v=70
82416 Off ch=7 n=64 v=70
82416 Off ch=3 n=61 v=73
82416 Off ch=3 n=64 v=73
82416 Off ch=3 n=69 v=73
82418 On ch=5 n=57 v=127
82421 Off ch=2 n=40 v=127
82448 Off ch=5 n=57 v=127
82464 On ch=10 n=42 v=79
82464 On ch=2 n=42 v=127
82464 On ch=3 n=59 v=73
82464 On ch=7 n=63 v=70
82464 On ch=3 n=63 v=73
82464 On ch=7 n=68 v=70
82464 On ch=3 n=68 v=73
82464 On ch=10 n=82 v=51
82468 On ch=5 n=54 v=121
82476 Off ch=10 n=82 v=51
82476 Off ch=10 n=42 v=79
82480 Off ch=5 n=54 v=121
82510 Off ch=2 n=42 v=127
82514 On ch=5 n=54 v=120
82524 Off ch=5 n=54 v=120
82560 On ch=10 n=36 v=105
82560 On ch=2 n=40 v=127
82560 On ch=10 n=42 v=46
82560 On ch=10 n=82 v=58
82564 On ch=5 n=61 v=127
82572 Off ch=10 n=82 v=58
82572 Off ch=10 n=42 v=46
82572 Off ch=10 n=36 v=105
82591 Off ch=5 n=61 v=127
82600 Off ch=7 n=68 v=70
82602 Off ch=7 n=63 v=70
82608 On ch=5 n=61 v=127
82619 Off ch=2 n=40 v=127
82623 Par ch=7 c=10 v=0
82649 On ch=7 n=66 v=126
82650 On ch=7 n=78 v=126
82654 Off ch=5 n=61 v=127
82656 On ch=2 n=37 v=127
82656 On ch=10 n=42 v=74
82656 On ch=10 n=82 v=47
82668 Off ch=10 n=82 v=47
82668 Off ch=10 n=42 v=74
82692 Off ch=7 n=66 v=126
82693 Off ch=7 n=78 v=126
82704 On ch=10 n=45 v=97
82710 Off ch=2 n=37 v=127
82716 Off ch=10 n=45 v=97
82719 On ch=5 n=59 v=127
82747 On ch=7 n=66 v=126
82747 On ch=7 n=78 v=126
82752 On ch=2 n=35 v=127
82752 On ch=10 n=39 v=110
82752 On ch=10 n=40 v=113
82752 On ch=10 n=42 v=46
82752 On ch=10 n=43 v=103
82752 On ch=10 n=82 v=62
82754 Off ch=5 n=59 v=127
82764 Off ch=10 n=82 v=62
82764 Off ch=10 n=43 v=103
82764 Off ch=10 n=42 v=46
82764 Off ch=10 n=40 v=113
82764 Off ch=10 n=39 v=110
82787 Off ch=7 n=66 v=126
82788 Off ch=7 n=78 v=126
82804 On ch=5 n=57 v=127
82817 Off ch=2 n=35 v=127
82824 Par ch=7 c=10 v=64
82838 Off ch=5 n=57 v=127
82848 On ch=2 n=37 v=127
82848 On ch=10 n=42 v=79
82848 On ch=10 n=82 v=58
82848 Off ch=3 n=68 v=73
82848 Off ch=3 n=63 v=73
82848 Off ch=3 n=59 v=73
82854 On ch=5 n=54 v=120
82855 Off ch=5 n=54 v=120
82860 Off ch=10 n=82 v=58
82860 Off ch=10 n=42 v=79
82899 On ch=5 n=54 v=120
82899 Off ch=2 n=37 v=127
82900 Off ch=5 n=54 v=120
82944 On ch=10 n=36 v=105
82944 On ch=10 n=42 v=42
82944 On ch=2 n=42 v=127
82944 On ch=3 n=57 v=73
82944 On ch=7 n=61 v=70
82944 On ch=3 n=61 v=73
82944 On ch=7 n=66 v=70
82944 On ch=3 n=66 v=73
82944 On ch=10 n=82 v=56
82952 On ch=5 n=61 v=127
82956 Off ch=10 n=82 v=56
82956 Off ch=10 n=42 v=42
82956 Off ch=10 n=36 v=105
82980 Off ch=5 n=61 v=127
82993 On ch=5 n=61 v=127
82994 Off ch=2 n=42 v=127
83039 Off ch=5 n=61 v=127
83040 On ch=2 n=37 v=127
83040 On ch=10 n=42 v=69
83040 On ch=10 n=82 v=46
83052 Off ch=10 n=82 v=46
83052 Off ch=10 n=42 v=69
83065 On ch=5 n=59 v=32
83076 Off ch=5 n=59 v=32
83089 On ch=5 n=59 v=127
83092 Off ch=2 n=37 v=127
83136 On ch=10 n=39 v=110
83136 On ch=10 n=40 v=112
83136 On ch=2 n=40 v=127
83136 On ch=10 n=42 v=54
83136 On ch=10 n=82 v=64
83141 Off ch=5 n=59 v=127
83148 Off ch=10 n=82 v=64
83148 Off ch=10 n=42 v=54
83148 Off ch=10 n=40 v=112
83148 Off ch=10 n=39 v=110
83182 Off ch=7 n=61 v=70
83184 On ch=5 n=57 v=127
83184 Off ch=7 n=66 v=70
83184 Off ch=3 n=66 v=73
83184 Off ch=3 n=57 v=73
83184 Off ch=3 n=61 v=73
83191 Off ch=2 n=40 v=127
83204 Off ch=5 n=57 v=127
83232 On ch=10 n=42 v=74
83232 On ch=2 n=42 v=127
83232 On ch=3 n=59 v=73
83232 On ch=7 n=63 v=70
83232 On ch=3 n=63 v=73
83232 On ch=7 n=68 v=70
83232 On ch=3 n=68 v=73
83232 On ch=10 n=82 v=53
83237 On ch=5 n=60 v=127
83244 Off ch=10 n=82 v=53
83244 Off ch=10 n=42 v=74
83245 On ch=5 n=61 v=127
83259 Off ch=5 n=60 v=127
83283 Off ch=2 n=42 v=127
83328 On ch=10 n=36 v=105
83328 On ch=2 n=40 v=127
83328 On ch=10 n=42 v=57
83328 On ch=10 n=82 v=62
83340 Off ch=10 n=82 v=62
83340 Off ch=10 n=42 v=57
83340 Off ch=10 n=36 v=105
83384 Off ch=2 n=40 v=127
83424 On ch=2 n=37 v=127
83424 On ch=10 n=42 v=69
83424 On ch=10 n=82 v=60
83436 Off ch=10 n=82 v=60
83436 Off ch=10 n=42 v=69
83475 Off ch=2 n=37 v=127
83520 On ch=2 n=35 v=127
83520 On ch=10 n=39 v=110
83520 On ch=10 n=40 v=113
83520 On ch=10 n=42 v=57
83520 On ch=10 n=82 v=68
83525 Off ch=7 n=68 v=70
83530 Off ch=7 n=63 v=70
83532 Off ch=10 n=82 v=68
83532 Off ch=10 n=42 v=57
83532 Off ch=10 n=40 v=113
83532 Off ch=10 n=39 v=110
83581 Off ch=2 n=35 v=127
83585 Off ch=5 n=61 v=127
83616 On ch=2 n=37 v=127
83616 On ch=10 n=42 v=79
83616 On ch=10 n=82 v=50
83616 Off ch=3 n=59 v=73
83616 Off ch=3 n=63 v=73
83616 Off ch=3 n=68 v=73
83620 On ch=5 n=54 v=120
83621 Off ch=5 n=54 v=120
83628 Off ch=10 n=82 v=50
83628 Off ch=10 n=42 v=79
83666 On ch=5 n=54 v=121
83667 Off ch=5 n=54 v=121
83670 Off ch=2 n=37 v=127
83712 On ch=10 n=36 v=105
83712 On ch=10 n=42 v=54
83712 On ch=2 n=42 v=127
83712 On ch=3 n=61 v=73
83712 On ch=7 n=64 v=70
83712 On ch=3 n=64 v=73
83712 On ch=7 n=69 v=70
83712 On ch=3 n=69 v=73
83712 On ch=10 n=82 v=68
83716 On ch=5 n=61 v=127
83724 Off ch=10 n=82 v=68
83724 Off ch=10 n=42 v=54
83724 Off ch=10 n=36 v=105
83746 Off ch=5 n=61 v=127
83759 On ch=5 n=61 v=127
83759 Off ch=2 n=42 v=127
83808 On ch=2 n=37 v=127
83808 On ch=10 n=42 v=69
83808 On ch=10 n=82 v=58
83811 On ch=4 n=66 v=127
83815 Off ch=5 n=61 v=127
83820 Off ch=10 n=82 v=58
83820 Off ch=10 n=42 v=69
83856 Off ch=2 n=37 v=127
83860 On ch=5 n=59 v=127
83882 Off ch=4 n=66 v=127
83901 On ch=4 n=69 v=127
83904 On ch=10 n=39 v=110
83904 On ch=10 n=40 v=113
83904 On ch=2 n=40 v=127
83904 On ch=10 n=42 v=49
83904 On ch=10 n=82 v=66
83907 Off ch=5 n=59 v=127
83916 Off ch=10 n=82 v=66
83916 Off ch=10 n=42 v=49
83916 Off ch=10 n=40 v=113
83916 Off ch=10 n=39 v=110
83925 Off ch=7 n=64 v=70
83925 Off ch=7 n=69 v=70
83950 On ch=5 n=57 v=127
83952 Off ch=3 n=61 v=73
83952 Off ch=3 n=64 v=73
83952 Off ch=3 n=69 v=73
83957 Off ch=2 n=40 v=127
83980 Off ch=5 n=57 v=127
83987 Off ch=4 n=69 v=127
83988 On ch=5 n=60 v=110
83998 On ch=5 n=61 v=127
84000 On ch=10 n=42 v=79
84000 On ch=2 n=42 v=127
84000 On ch=3 n=59 v=73
84000 On ch=7 n=63 v=70
84000 On ch=3 n=63 v=73
84000 On ch=7 n=68 v=70
84000 On ch=3 n=68 v=73
84000 On ch=10 n=82 v=60
84005 On ch=4 n=71 v=127
84007 Off ch=5 n=60 v=110
84012 Off ch=10 n=82 v=60
84012 Off ch=10 n=42 v=79
84046 Off ch=2 n=42 v=127
84096 On ch=10 n=36 v=105
84096 On ch=2 n=40 v=127
84096 On ch=10 n=42 v=46
84096 On ch=10 n=82 v=56
84108 Off ch=10 n=82 v=56
84108 Off ch=10 n=42 v=46
84108 Off ch=10 n=36 v=105
84155 Off ch=2 n=40 v=127
84171 Off ch=4 n=71 v=127
84190 On ch=4 n=69 v=127
84192 On ch=2 n=37 v=127
84192 On ch=10 n=42 v=74
84192 On ch=10 n=82 v=60
84204 Off ch=10 n=82 v=60
84204 Off ch=10 n=42 v=74
84246 Off ch=2 n=37 v=127
84266 Off ch=4 n=69 v=127
84279 Off ch=7 n=63 v=70
84281 Off ch=7 n=68 v=70
84288 On ch=2 n=35 v=127
84288 On ch=10 n=39 v=110
84288 On ch=10 n=40 v=113
84288 On ch=10 n=42 v=46
84288 On ch=4 n=68 v=127
84288 On ch=10 n=82 v=64
84300 Off ch=10 n=82 v=64
84300 Off ch=10 n=42 v=46
84300 Off ch=10 n=40 v=113
84300 Off ch=10 n=39 v=110
84353 Off ch=2 n=35 v=127
84366 Off ch=4 n=68 v=127
84369 Off ch=5 n=61 v=127
84384 On ch=2 n=37 v=127
84384 On ch=10 n=42 v=79
84384 On ch=10 n=82 v=64
84387 Par ch=5 c=0 v=0
84391 On ch=4 n=66 v=127
84396 Off ch=10 n=82 v=64
84396 Off ch=10 n=42 v=79
84410 Par ch=5 c=7 v=70
84432 Off ch=3 n=68 v=73
84432 Off ch=3 n=63 v=73
84432 Off ch=3 n=59 v=73
84435 Off ch=2 n=37 v=127
84441 PrCh ch=5 p=27
84480 On ch=10 n=36 v=105
84480 On ch=10 n=42 v=42
84480 On ch=2 n=47 v=127
84480 On ch=5 n=54 v=102
84480 On ch=3 n=57 v=73
84480 On ch=3 n=62 v=73
84480 On ch=3 n=66 v=73
84480 On ch=7 n=74 v=67
84480 On ch=7 n=78 v=72
84480 On ch=10 n=82 v=66
84481 On ch=5 n=66 v=127
84492 Off ch=10 n=82 v=66
84492 Off ch=10 n=42 v=42
84492 Off ch=10 n=36 v=105
84515 Off ch=5 n=66 v=127
84515 Off ch=5 n=54 v=102
84528 Off ch=2 n=47 v=127
84562 Off ch=4 n=66 v=127
84573 On ch=5 n=54 v=76
84574 Off ch=5 n=54 v=76
84576 On ch=10 n=42 v=69
84576 On ch=2 n=42 v=127
84576 On ch=10 n=82 v=64
84581 On ch=5 n=66 v=80
84582 Off ch=5 n=66 v=80
84588 Off ch=10 n=82 v=64
84588 Off ch=10 n=42 v=69
84611 Off ch=2 n=42 v=127
84620 On ch=5 n=66 v=80
84621 Off ch=5 n=66 v=80
84624 On ch=5 n=54 v=80
84625 Off ch=5 n=54 v=80
84670 On ch=5 n=54 v=116
84672 On ch=10 n=39 v=110
84672 On ch=10 n=40 v=112
84672 On ch=10 n=42 v=54
84672 On ch=2 n=45 v=127
84672 On ch=10 n=82 v=62
84675 On ch=5 n=66 v=127
84684 Off ch=10 n=82 v=62
84684 Off ch=10 n=42 v=54
84684 Off ch=10 n=40 v=112
84684 Off ch=10 n=39 v=110
84701 Off ch=5 n=54 v=116
84705 Off ch=5 n=66 v=127
84724 Off ch=2 n=45 v=127
84766 On ch=5 n=54 v=80
84767 Off ch=5 n=54 v=80
84768 On ch=10 n=42 v=74
84768 On ch=2 n=47 v=127
84768 On ch=10 n=82 v=64
84773 On ch=5 n=66 v=80
84774 Off ch=5 n=66 v=80
84780 Off ch=10 n=82 v=64
84780 Off ch=10 n=42 v=74
84812 On ch=5 n=66 v=80
84813 Off ch=5 n=66 v=80
84818 On ch=5 n=54 v=80
84819 Off ch=5 n=54 v=80
84838 Off ch=2 n=47 v=127
84860 On ch=5 n=54 v=102
84864 On ch=10 n=36 v=105
84864 On ch=10 n=42 v=57
84864 On ch=5 n=66 v=127
84864 On ch=10 n=82 v=64
84876 Off ch=10 n=82 v=64
84876 Off ch=10 n=42 v=57
84876 Off ch=10 n=36 v=105
84892 Off ch=5 n=54 v=102
84900 Off ch=5 n=66 v=127
84959 On ch=5 n=54 v=76
84960 On ch=10 n=42 v=69
84960 On ch=2 n=42 v=127
84960 On ch=10 n=82 v=68
84960 Off ch=5 n=54 v=76
84963 On ch=4 n=66 v=127
84967 On ch=5 n=66 v=72
84968 Off ch=5 n=66 v=72
84972 Off ch=10 n=82 v=68
84972 Off ch=10 n=42 v=69
85002 On ch=5 n=66 v=72
85003 Off ch=5 n=66 v=72
85008 On ch=5 n=54 v=72
85009 Off ch=5 n=54 v=72
85016 Off ch=2 n=42 v=127
85052 Off ch=4 n=66 v=127
85053 On ch=5 n=54 v=102
85056 On ch=10 n=39 v=110
85056 On ch=10 n=40 v=113
85056 On ch=2 n=40 v=127
85056 On ch=10 n=42 v=57
85056 On ch=10 n=82 v=62
85057 On ch=5 n=66 v=127
85068 Off ch=10 n=82 v=62
85068 Off ch=10 n=42 v=57
85068 Off ch=10 n=40 v=113
85068 Off ch=10 n=39 v=110
85088 Off ch=5 n=54 v=102
85091 Off ch=5 n=66 v=127
85116 Off ch=2 n=40 v=127
85150 On ch=5 n=54 v=68
85151 Off ch=5 n=54 v=68
85152 On ch=10 n=42 v=79
85152 On ch=2 n=42 v=127
85152 On ch=5 n=66 v=68
85152 On ch=4 n=66 v=127
85152 On ch=10 n=82 v=64
85153 Off ch=5 n=66 v=68
85164 Off ch=10 n=82 v=64
85164 Off ch=10 n=42 v=79
85197 On ch=5 n=66 v=68
85198 Off ch=5 n=66 v=68
85203 On ch=5 n=54 v=68
85204 Off ch=5 n=54 v=68
85204 Off ch=2 n=42 v=127
85238 Off ch=4 n=66 v=127
85245 On ch=5 n=54 v=102
85248 On ch=10 n=36 v=105
85248 On ch=10 n=42 v=54
85248 On ch=2 n=47 v=127
85248 On ch=10 n=82 v=62
85249 On ch=5 n=66 v=127
85251 On ch=4 n=73 v=127
85260 Off ch=10 n=82 v=62
85260 Off ch=10 n=42 v=54
85260 Off ch=10 n=36 v=105
85280 Off ch=5 n=54 v=102
85283 Off ch=5 n=66 v=127
85297 Off ch=2 n=47 v=127
85323 Off ch=4 n=73 v=127
85341 On ch=5 n=54 v=68
85342 Off ch=5 n=54 v=68
85344 On ch=10 n=42 v=69
85344 On ch=2 n=42 v=127
85344 On ch=10 n=82 v=55
85346 On ch=4 n=71 v=127
85347 On ch=5 n=66 v=76
85348 Off ch=5 n=66 v=76
85356 Off ch=10 n=82 v=55
85356 Off ch=10 n=42 v=69
85385 On ch=5 n=66 v=76
85386 Off ch=5 n=66 v=76
85394 On ch=5 n=54 v=72
85394 Off ch=2 n=42 v=127
85395 Off ch=5 n=54 v=72
85422 Off ch=4 n=71 v=127
85438 On ch=5 n=54 v=97
85440 On ch=10 n=39 v=110
85440 On ch=10 n=40 v=113
85440 On ch=10 n=42 v=49
85440 On ch=2 n=45 v=127
85440 On ch=10 n=82 v=55
85446 On ch=5 n=66 v=127
85447 On ch=4 n=71 v=127
85452 Off ch=10 n=82 v=55
85452 Off ch=10 n=42 v=49
85452 Off ch=10 n=40 v=113
85452 Off ch=10 n=39 v=110
85473 Off ch=5 n=54 v=97
85474 Off ch=5 n=66 v=127
85497 Off ch=2 n=45 v=127
85536 On ch=10 n=42 v=79
85536 On ch=2 n=47 v=127
85536 On ch=10 n=82 v=51
85537 On ch=5 n=54 v=72
85538 Off ch=5 n=54 v=72
85542 On ch=5 n=66 v=76
85543 Off ch=5 n=66 v=76
85548 Off ch=10 n=82 v=51
85548 Off ch=10 n=42 v=79
85558 Off ch=4 n=71 v=127
85582 On ch=5 n=66 v=76
85583 Off ch=5 n=66 v=76
85588 On ch=5 n=54 v=76
85589 Off ch=5 n=54 v=76
85604 Off ch=2 n=47 v=127
85629 On ch=5 n=54 v=102
85632 On ch=10 n=36 v=105
85632 On ch=10 n=42 v=46
85632 On ch=10 n=82 v=58
85636 On ch=4 n=66 v=127
85638 On ch=5 n=66 v=127
85644 Off ch=10 n=82 v=58
85644 Off ch=10 n=42 v=46
85644 Off ch=10 n=36 v=105
85659 Off ch=5 n=54 v=102
85670 Off ch=5 n=66 v=127
85724 On ch=5 n=54 v=71
85725 Off ch=5 n=54 v=71
85728 On ch=10 n=42 v=74
85728 On ch=2 n=42 v=127
85728 On ch=10 n=82 v=47
85735 On ch=5 n=66 v=68
85736 Off ch=5 n=66 v=68
85736 Off ch=4 n=66 v=127
85737 On ch=4 n=62 v=127
85740 Off ch=10 n=82 v=47
85740 Off ch=10 n=42 v=74
85772 On ch=5 n=66 v=68
85773 Off ch=5 n=66 v=68
85779 On ch=5 n=54 v=68
85780 Off ch=5 n=54 v=68
85791 Off ch=2 n=42 v=127
85823 On ch=5 n=54 v=102
85824 On ch=10 n=39 v=110
85824 On ch=10 n=40 v=113
85824 On ch=2 n=40 v=127
85824 On ch=10 n=42 v=46
85824 On ch=10 n=82 v=62
85826 On ch=5 n=66 v=127
85836 Off ch=10 n=82 v=62
85836 Off ch=10 n=42 v=46
85836 Off ch=10 n=40 v=113
85836 Off ch=10 n=39 v=110
85850 Off ch=5 n=54 v=102
85855 Off ch=5 n=66 v=127
85884 Off ch=2 n=40 v=127
85902 Off ch=4 n=62 v=127
85916 On ch=5 n=54 v=68
85917 Off ch=5 n=54 v=68
85920 On ch=2 n=37 v=127
85920 On ch=10 n=42 v=79
85920 On ch=10 n=82 v=58
85926 On ch=5 n=66 v=68
85927 Off ch=5 n=66 v=68
85930 On ch=4 n=61 v=127
85932 Off ch=10 n=82 v=58
85932 Off ch=10 n=42 v=79
85967 On ch=5 n=66 v=72
85968 Off ch=5 n=66 v=72
85971 On ch=5 n=54 v=72
85972 Off ch=5 n=54 v=72
85983 Off ch=2 n=37 v=127
85996 Off ch=3 n=66 v=73
86000 Off ch=3 n=57 v=73
86000 Off ch=3 n=62 v=73
86014 On ch=5 n=54 v=102
86016 On ch=10 n=36 v=105
86016 On ch=10 n=42 v=42
86016 On ch=2 n=42 v=127
86016 On ch=3 n=57 v=96
86016 On ch=3 n=61 v=96
86016 On ch=3 n=66 v=96
86016 On ch=10 n=82 v=56
86016 Off ch=7 n=78 v=72
86016 Off ch=7 n=74 v=67
86019 On ch=5 n=66 v=127
86028 Off ch=10 n=82 v=56
86028 Off ch=10 n=42 v=42
86028 Off ch=10 n=36 v=105
86044 Off ch=5 n=54 v=102
86045 Off ch=5 n=66 v=127
86066 Off ch=2 n=42 v=127
86068 Off ch=3 n=57 v=96
86071 Off ch=3 n=61 v=96
86071 Off ch=3 n=66 v=96
86112 On ch=2 n=37 v=127
86112 On ch=10 n=42 v=69
86112 On ch=10 n=82 v=46
86124 Off ch=10 n=82 v=46
86124 Off ch=10 n=42 v=69
86164 Off ch=2 n=37 v=127
86208 On ch=10 n=39 v=110
86208 On ch=10 n=40 v=112
86208 On ch=2 n=40 v=127
86208 On ch=10 n=42 v=54
86208 On ch=10 n=82 v=64
86220 Off ch=10 n=82 v=64
86220 Off ch=10 n=42 v=54
86220 Off ch=10 n=40 v=112
86220 Off ch=10 n=39 v=110
86230 Off ch=4 n=61 v=127
86263 Off ch=2 n=40 v=127
86304 On ch=10 n=42 v=74
86304 On ch=10 n=82 v=53
86304 Par ch=7 c=10 v=0
86304 On ch=2 n=42 v=127
86304 On ch=3 n=59 v=96
86304 On ch=3 n=63 v=96
86304 On ch=3 n=68 v=96
86316 Off ch=10 n=82 v=53
86316 Off ch=10 n=42 v=74
86352 Off ch=3 n=68 v=96
86352 Off ch=3 n=63 v=96
86352 Off ch=3 n=59 v=96
86355 Off ch=2 n=42 v=127
86398 On ch=7 n=85 v=126
86400 On ch=10 n=36 v=105
86400 On ch=2 n=40 v=127
86400 On ch=10 n=42 v=57
86400 On ch=10 n=82 v=62
86412 Off ch=10 n=82 v=62
86412 Off ch=10 n=42 v=57
86412 Off ch=10 n=36 v=105
86446 Off ch=7 n=85 v=126
86447 On ch=7 n=81 v=126
86456 Off ch=2 n=40 v=127
86495 Off ch=7 n=81 v=126
86496 On ch=2 n=37 v=127
86496 On ch=10 n=42 v=69
86496 On ch=10 n=82 v=60
86497 On ch=7 n=78 v=126
86508 Off ch=10 n=82 v=60
86508 Off ch=10 n=42 v=69
86545 On ch=7 n=74 v=126
86545 Off ch=7 n=78 v=126
86547 Off ch=2 n=37 v=127
86592 On ch=2 n=35 v=127
86592 On ch=10 n=39 v=110
86592 On ch=10 n=40 v=113
86592 On ch=10 n=42 v=57
86592 On ch=10 n=82 v=68
86593 On ch=7 n=73 v=97
86593 Off ch=7 n=74 v=126
86604 Off ch=10 n=82 v=68
86604 Off ch=10 n=42 v=57
86604 Off ch=10 n=40 v=113
86604 Off ch=10 n=39 v=110
86653 Off ch=2 n=35 v=127
86688 On ch=2 n=37 v=127
86688 On ch=10 n=42 v=79
86688 On ch=10 n=82 v=50
86700 Off ch=10 n=82 v=50
86700 Off ch=10 n=42 v=79
86742 Off ch=2 n=37 v=127
86784 On ch=10 n=36 v=105
86784 On ch=10 n=42 v=54
86784 On ch=2 n=42 v=127
86784 On ch=3 n=61 v=96
86784 On ch=3 n=64 v=96
86784 On ch=3 n=69 v=96
86784 On ch=10 n=82 v=68
86796 Off ch=10 n=82 v=68
86796 Off ch=10 n=42 v=54
86796 Off ch=10 n=36 v=105
86831 Off ch=2 n=42 v=127
86832 Off ch=3 n=69 v=96
86832 Off ch=3 n=64 v=96
86832 Off ch=3 n=61 v=96
86880 On ch=2 n=37 v=127
86880 On ch=10 n=42 v=69
86880 On ch=10 n=82 v=58
86892 Off ch=10 n=82 v=58
86892 Off ch=10 n=42 v=69
86928 Off ch=2 n=37 v=127
86976 On ch=10 n=39 v=110
86976 On ch=10 n=40 v=113
86976 On ch=2 n=40 v=127
86976 On ch=10 n=42 v=49
86976 On ch=10 n=82 v=66
86988 Off ch=10 n=82 v=66
86988 Off ch=10 n=42 v=49
86988 Off ch=10 n=40 v=113
86988 Off ch=10 n=39 v=110
87029 Off ch=2 n=40 v=127
87072 On ch=10 n=42 v=79
87072 On ch=2 n=42 v=127
87072 On ch=3 n=59 v=96
87072 On ch=3 n=63 v=96
87072 On ch=3 n=68 v=96
87072 On ch=10 n=82 v=60
87072 Off ch=7 n=73 v=97
87084 Off ch=10 n=82 v=60
87084 Off ch=10 n=42 v=79
87092 Par ch=7 c=10 v=127
87118 Off ch=2 n=42 v=127
87120 Off ch=3 n=68 v=96
87120 Off ch=3 n=63 v=96
87120 Off ch=3 n=59 v=96
87153 On ch=7 n=64 v=113
87168 On ch=10 n=36 v=105
87168 On ch=2 n=40 v=127
87168 On ch=10 n=42 v=46
87168 On ch=10 n=82 v=56
87180 Off ch=10 n=82 v=56
87180 Off ch=10 n=42 v=46
87180 Off ch=10 n=36 v=105
87227 Off ch=2 n=40 v=127
87235 Off ch=7 n=64 v=113
87236 On ch=7 n=66 v=113
87264 On ch=2 n=37 v=127
87264 On ch=10 n=42 v=74
87264 On ch=10 n=82 v=60
87276 Off ch=10 n=82 v=60
87276 Off ch=10 n=42 v=74
87296 Off ch=7 n=66 v=113
87312 On ch=10 n=45 v=97
87318 Off ch=2 n=37 v=127
87324 Off ch=10 n=45 v=97
87360 On ch=2 n=35 v=127
87360 On ch=10 n=39 v=110
87360 On ch=10 n=40 v=113
87360 On ch=10 n=42 v=46
87360 On ch=10 n=43 v=103
87360 On ch=10 n=82 v=64
87372 Off ch=10 n=82 v=64
87372 Off ch=10 n=43 v=103
87372 Off ch=10 n=42 v=46
87372 Off ch=10 n=40 v=113
87372 Off ch=10 n=39 v=110
87412 Par ch=7 c=10 v=64
87425 Off ch=2 n=35 v=127
87456 On ch=2 n=37 v=127
87456 On ch=10 n=46 v=99
87456 On ch=10 n=82 v=64
87468 Off ch=10 n=82 v=64
87468 Off ch=10 n=46 v=99
87507 Off ch=2 n=37 v=127
87552 On ch=10 n=36 v=105
87552 On ch=10 n=42 v=42
87552 On ch=2 n=42 v=127
87552 On ch=3 n=57 v=73
87552 On ch=7 n=61 v=70
87552 On ch=3 n=61 v=73
87552 On ch=7 n=66 v=70
87552 On ch=3 n=66 v=73
87552 On ch=10 n=82 v=66
87564 Off ch=10 n=82 v=66
87564 Off ch=10 n=42 v=42
87564 Off ch=10 n=36 v=105
87602 Off ch=2 n=42 v=127
87648 On ch=2 n=37 v=127
87648 On ch=10 n=42 v=69
87648 On ch=10 n=82 v=64
87660 Off ch=10 n=82 v=64
87660 Off ch=10 n=42 v=69
87700 Off ch=2 n=37 v=127
87744 On ch=10 n=39 v=110
87744 On ch=10 n=40 v=112
87744 On ch=2 n=40 v=127
87744 On ch=10 n=42 v=54
87744 On ch=10 n=82 v=62
87750 On ch=4 n=66 v=127
87756 Off ch=10 n=82 v=62
87756 Off ch=10 n=42 v=54
87756 Off ch=10 n=40 v=112
87756 Off ch=10 n=39 v=110
87792 Off ch=7 n=61 v=70
87792 Off ch=7 n=66 v=70
87792 Off ch=3 n=66 v=73
87792 Off ch=3 n=61 v=73
87792 Off ch=3 n=57 v=73
87799 Off ch=2 n=40 v=127
87807 Off ch=4 n=66 v=127
87832 On ch=4 n=66 v=127
87840 On ch=10 n=42 v=74
87840 On ch=2 n=42 v=127
87840 On ch=3 n=59 v=73
87840 On ch=7 n=63 v=70
87840 On ch=3 n=63 v=73
87840 On ch=7 n=68 v=70
87840 On ch=3 n=68 v=73
87840 On ch=10 n=82 v=64
87852 Off ch=10 n=82 v=64
87852 Off ch=10 n=42 v=74
87891 Off ch=2 n=42 v=127
87919 Off ch=4 n=66 v=127
87936 On ch=10 n=36 v=105
87936 On ch=2 n=40 v=127
87936 On ch=10 n=42 v=57
87936 On ch=10 n=82 v=64
87937 On ch=4 n=64 v=125
87948 Off ch=10 n=82 v=64
87948 Off ch=10 n=42 v=57
87948 Off ch=10 n=36 v=105
87992 Off ch=2 n=40 v=127
88032 On ch=2 n=37 v=127
88032 On ch=10 n=42 v=69
88032 On ch=10 n=82 v=68
88033 Off ch=4 n=64 v=125
88039 On ch=4 n=61 v=127
88044 Off ch=10 n=82 v=68
88044 Off ch=10 n=42 v=69
88083 Off ch=2 n=37 v=127
88128 On ch=2 n=35 v=127
88128 On ch=10 n=39 v=110
88128 On ch=10 n=40 v=113
88128 On ch=10 n=42 v=57
88128 On ch=10 n=82 v=62
88140 Off ch=10 n=82 v=62
88140 Off ch=10 n=42 v=57
88140 Off ch=10 n=40 v=113
88140 Off ch=10 n=39 v=110
88189 Off ch=2 n=35 v=127
88210 Off ch=4 n=61 v=127
88224 On ch=2 n=37 v=127
88224 On ch=10 n=42 v=79
88224 On ch=10 n=82 v=64
88224 Off ch=7 n=68 v=70
88224 Off ch=7 n=63 v=70
88224 Off ch=3 n=68 v=73
88224 Off ch=3 n=59 v=73
88224 Off ch=3 n=63 v=73
88232 On ch=4 n=61 v=127
88236 Off ch=10 n=82 v=64
88236 Off ch=10 n=42 v=79
88278 Off ch=2 n=37 v=127
88305 Off ch=4 n=61 v=127
88320 On ch=10 n=36 v=105
88320 On ch=10 n=42 v=54
88320 On ch=2 n=42 v=127
88320 On ch=3 n=61 v=73
88320 On ch=7 n=64 v=70
88320 On ch=3 n=64 v=73
88320 On ch=7 n=69 v=70
88320 On ch=3 n=69 v=73
88320 On ch=10 n=82 v=62
88332 Off ch=10 n=82 v=62
88332 Off ch=10 n=42 v=54
88332 Off ch=10 n=36 v=105
88332 On ch=4 n=66 v=127
88367 Off ch=2 n=42 v=127
88385 Off ch=4 n=66 v=127
88416 On ch=2 n=37 v=127
88416 On ch=10 n=42 v=69
88416 On ch=10 n=82 v=55
88425 On ch=4 n=66 v=127
88428 Off ch=10 n=82 v=55
88428 Off ch=10 n=42 v=69
88464 Off ch=2 n=37 v=127
88505 Off ch=4 n=66 v=127
88512 On ch=10 n=39 v=110
88512 On ch=10 n=40 v=113
88512 On ch=2 n=40 v=127
88512 On ch=10 n=42 v=49
88512 On ch=10 n=82 v=55
88524 Off ch=10 n=82 v=55
88524 Off ch=10 n=42 v=49
88524 Off ch=10 n=40 v=113
88524 Off ch=10 n=39 v=110
88558 Off ch=7 n=69 v=70
88560 Off ch=7 n=64 v=70
88560 Off ch=3 n=61 v=73
88560 Off ch=3 n=64 v=73
88560 Off ch=3 n=69 v=73
88565 Off ch=2 n=40 v=127
88605 On ch=4 n=64 v=120
88608 On ch=10 n=42 v=79
88608 On ch=2 n=42 v=127
88608 On ch=3 n=59 v=73
88608 On ch=7 n=63 v=70
88608 On ch=3 n=63 v=73
88608 On ch=7 n=68 v=70
88608 On ch=3 n=68 v=73
88608 On ch=10 n=82 v=51
88620 Off ch=10 n=82 v=51
88620 Off ch=10 n=42 v=79
88654 Off ch=2 n=42 v=127
88704 On ch=10 n=36 v=105
88704 On ch=2 n=40 v=127
88704 On ch=10 n=42 v=46
88704 On ch=10 n=82 v=58
88716 Off ch=10 n=82 v=58
88716 Off ch=10 n=42 v=46
88716 Off ch=10 n=36 v=105
88763 Off ch=2 n=40 v=127
88787 Off ch=4 n=64 v=120
88800 On ch=2 n=37 v=127
88800 On ch=10 n=42 v=74
88800 On ch=4 n=61 v=127
88800 On ch=10 n=82 v=47
88812 Off ch=10 n=82 v=47
88812 Off ch=10 n=42 v=74
88848 On ch=10 n=45 v=97
88854 Off ch=2 n=37 v=127
88860 Off ch=10 n=45 v=97
88896 On ch=2 n=35 v=127
88896 On ch=10 n=39 v=110
88896 On ch=10 n=40 v=113
88896 On ch=10 n=42 v=46
88896 On ch=10 n=43 v=103
88896 On ch=10 n=82 v=62
88908 Off ch=10 n=82 v=62
88908 Off ch=10 n=43 v=103
88908 Off ch=10 n=42 v=46
88908 Off ch=10 n=40 v=113
88908 Off ch=10 n=39 v=110
88948 Off ch=7 n=63 v=70
88949 Off ch=7 n=68 v=70
88961 Off ch=2 n=35 v=127
88989 Off ch=4 n=61 v=127
88992 On ch=2 n=37 v=127
88992 On ch=10 n=42 v=79
88992 On ch=10 n=82 v=58
88992 Off ch=3 n=68 v=73
88992 Off ch=3 n=63 v=73
88992 Off ch=3 n=59 v=73
89004 Off ch=10 n=82 v=58
89004 Off ch=10 n=42 v=79
89043 Off ch=2 n=37 v=127
89088 On ch=10 n=36 v=105
89088 On ch=10 n=42 v=42
89088 On ch=2 n=42 v=127
89088 On ch=3 n=57 v=73
89088 On ch=7 n=61 v=70
89088 On ch=3 n=61 v=73
89088 On ch=7 n=66 v=70
89088 On ch=3 n=66 v=73
89088 On ch=10 n=82 v=56
89100 Off ch=10 n=82 v=56
89100 Off ch=10 n=42 v=42
89100 Off ch=10 n=36 v=105
89138 Off ch=2 n=42 v=127
89182 On ch=4 n=66 v=127
89184 On ch=2 n=37 v=127
89184 On ch=10 n=42 v=69
89184 On ch=10 n=82 v=46
89196 Off ch=10 n=82 v=46
89196 Off ch=10 n=42 v=69
89236 Off ch=2 n=37 v=127
89265 Off ch=4 n=66 v=127
89280 On ch=10 n=39 v=110
89280 On ch=10 n=40 v=112
89280 On ch=2 n=40 v=127
89280 On ch=10 n=42 v=54
89280 On ch=10 n=82 v=64
89282 On ch=4 n=66 v=127
89292 Off ch=10 n=82 v=64
89292 Off ch=10 n=42 v=54
89292 Off ch=10 n=40 v=112
89292 Off ch=10 n=39 v=110
89326 Off ch=7 n=61 v=70
89328 Off ch=7 n=66 v=70
89328 Off ch=3 n=66 v=73
89328 Off ch=3 n=57 v=73
89328 Off ch=3 n=61 v=73
89335 Off ch=2 n=40 v=127
89365 Off ch=4 n=66 v=127
89376 On ch=10 n=42 v=74
89376 On ch=2 n=42 v=127
89376 On ch=3 n=59 v=73
89376 On ch=7 n=63 v=70
89376 On ch=3 n=63 v=73
89376 On ch=7 n=68 v=70
89376 On ch=3 n=68 v=73
89376 On ch=10 n=82 v=53
89380 On ch=4 n=66 v=127
89388 Off ch=10 n=82 v=53
89388 Off ch=10 n=42 v=74
89427 Off ch=2 n=42 v=127
89460 Off ch=4 n=66 v=127
89472 On ch=10 n=36 v=105
89472 On ch=2 n=40 v=127
89472 On ch=10 n=42 v=57
89472 On ch=10 n=82 v=62
89484 Off ch=10 n=82 v=62
89484 Off ch=10 n=42 v=57
89484 Off ch=10 n=36 v=105
89484 On ch=4 n=64 v=127
89528 Off ch=2 n=40 v=127
89565 Off ch=4 n=64 v=127
89568 On ch=2 n=37 v=127
89568 On ch=10 n=42 v=69
89568 On ch=10 n=82 v=60
89575 On ch=4 n=61 v=127
89580 Off ch=10 n=82 v=60
89580 Off ch=10 n=42 v=69
89619 Off ch=2 n=37 v=127
89648 Off ch=4 n=61 v=127
89664 On ch=2 n=35 v=127
89664 On ch=10 n=39 v=110
89664 On ch=10 n=40 v=113
89664 On ch=10 n=42 v=57
89664 On ch=10 n=82 v=68
89668 On ch=4 n=61 v=127
89669 Off ch=7 n=68 v=70
89674 Off ch=7 n=63 v=70
89676 Off ch=10 n=82 v=68
89676 Off ch=10 n=42 v=57
89676 Off ch=10 n=40 v=113
89676 Off ch=10 n=39 v=110
89725 Off ch=2 n=35 v=127
89760 On ch=2 n=37 v=127
89760 On ch=10 n=42 v=79
89760 On ch=10 n=82 v=50
89760 Off ch=3 n=59 v=73
89760 Off ch=3 n=63 v=73
89760 Off ch=3 n=68 v=73
89767 Off ch=4 n=61 v=127
89772 Off ch=10 n=82 v=50
89772 Off ch=10 n=42 v=79
89814 Off ch=2 n=37 v=127
89856 On ch=10 n=36 v=105
89856 On ch=10 n=42 v=54
89856 On ch=2 n=42 v=127
89856 On ch=3 n=61 v=73
89856 On ch=7 n=64 v=70
89856 On ch=3 n=64 v=73
89856 On ch=4 n=66 v=127
89856 On ch=7 n=69 v=70
89856 On ch=3 n=69 v=73
89856 On ch=10 n=82 v=68
89868 Off ch=10 n=82 v=68
89868 Off ch=10 n=42 v=54
89868 Off ch=10 n=36 v=105
89903 Off ch=2 n=42 v=127
89940 Off ch=4 n=66 v=127
89952 On ch=2 n=37 v=127
89952 On ch=10 n=42 v=69
89952 On ch=10 n=82 v=58
89964 Off ch=10 n=82 v=58
89964 Off ch=10 n=42 v=69
89969 On ch=4 n=69 v=127
90000 Off ch=2 n=37 v=127
90047 Off ch=4 n=69 v=127
90048 On ch=10 n=39 v=110
90048 On ch=10 n=40 v=113
90048 On ch=2 n=40 v=127
90048 On ch=10 n=42 v=49
90048 On ch=10 n=82 v=66
90056 Par ch=11 c=0 v=8
90060 Off ch=10 n=82 v=66
90060 Off ch=10 n=42 v=49
90060 Off ch=10 n=40 v=113
90060 Off ch=10 n=39 v=110
90069 Off ch=7 n=64 v=70
90069 Off ch=7 n=69 v=70
90096 Off ch=3 n=61 v=73
90096 Off ch=3 n=64 v=73
90096 Off ch=3 n=69 v=73
90101 Off ch=2 n=40 v=127
90104 PrCh ch=11 p=28
90144 On ch=10 n=42 v=79
90144 On ch=2 n=42 v=127
90144 On ch=3 n=59 v=73
90144 On ch=7 n=63 v=70
90144 On ch=3 n=63 v=73
90144 On ch=7 n=68 v=70
90144 On ch=3 n=68 v=73
90144 On ch=10 n=82 v=60
90147 On ch=4 n=71 v=127
90156 Off ch=10 n=82 v=60
90156 Off ch=10 n=42 v=79
90156 Par ch=11 c=7 v=70
90190 Off ch=2 n=42 v=127
90200 Par ch=11 c=91 v=100
90240 On ch=10 n=36 v=105
90240 On ch=2 n=40 v=127
90240 On ch=10 n=42 v=46
90240 On ch=10 n=82 v=56
90252 Off ch=10 n=82 v=56
90252 Off ch=10 n=42 v=46
90252 Off ch=10 n=36 v=105
90256 Par ch=11 c=93 v=60
90296 Par ch=11 c=10 v=39
90299 Off ch=2 n=40 v=127
90315 Off ch=4 n=71 v=127
90336 On ch=2 n=37 v=127
90336 On ch=10 n=42 v=74
90336 On ch=10 n=82 v=60
90343 On ch=4 n=69 v=127
90348 Off ch=10 n=82 v=60
90348 Off ch=10 n=42 v=74
90390 Off ch=2 n=37 v=127
90419 Off ch=4 n=69 v=127
90423 Off ch=7 n=63 v=70
90425 Off ch=7 n=68 v=70
90432 On ch=2 n=35 v=127
90432 On ch=10 n=39 v=110
90432 On ch=10 n=40 v=113
90432 On ch=10 n=42 v=46
90432 On ch=10 n=82 v=64
90438 On ch=4 n=68 v=127
90444 Off ch=10 n=82 v=64
90444 Off ch=10 n=42 v=46
90444 Off ch=10 n=40 v=113
90444 Off ch=10 n=39 v=110
90497 Off ch=2 n=35 v=127
90511 Off ch=4 n=68 v=127
90528 On ch=2 n=37 v=127
90528 On ch=10 n=46 v=99
90528 On ch=10 n=82 v=64
90530 On ch=4 n=66 v=127
90540 Off ch=10 n=82 v=64
90540 Off ch=10 n=46 v=99
90576 Off ch=3 n=68 v=73
90576 Off ch=3 n=63 v=73
90576 Off ch=3 n=59 v=73
90579 Off ch=2 n=37 v=127
90624 On ch=10 n=36 v=105
90624 On ch=10 n=42 v=42
90624 On ch=2 n=47 v=127
90624 On ch=5 n=54 v=102
90624 On ch=3 n=57 v=73
90624 On ch=3 n=62 v=73
90624 On ch=3 n=66 v=73
90624 On ch=7 n=74 v=71
90624 On ch=7 n=78 v=72
90624 On ch=10 n=82 v=66
90625 On ch=5 n=66 v=127
90636 Off ch=10 n=82 v=66
90636 Off ch=10 n=42 v=42
90636 Off ch=10 n=36 v=105
90659 Off ch=5 n=66 v=127
90659 Off ch=5 n=54 v=102
90672 Off ch=2 n=47 v=127
90680 Off ch=4 n=66 v=127
90717 On ch=5 n=54 v=76
90718 Off ch=5 n=54 v=76
90720 On ch=10 n=42 v=69
90720 On ch=2 n=42 v=127
90720 On ch=10 n=82 v=64
90721 On ch=11 n=60 v=127
90725 On ch=5 n=66 v=80
90726 Off ch=5 n=66 v=80
90732 Off ch=10 n=82 v=64
90732 Off ch=10 n=42 v=69
90735 Pb ch=11 v=11168
90744 Pb ch=11 v=12096
90749 Pb ch=11 v=12288
90755 Off ch=2 n=42 v=127
90763 Off ch=11 n=60 v=127
90764 Pb ch=11 v=8192
90764 On ch=5 n=66 v=80
90765 Off ch=5 n=66 v=80
90768 On ch=5 n=54 v=80
90769 Off ch=5 n=54 v=80
90776 On ch=11 n=59 v=127
90814 On ch=5 n=54 v=116
90815 Off ch=11 n=59 v=127
90816 On ch=10 n=39 v=110
90816 On ch=10 n=40 v=112
90816 On ch=10 n=42 v=54
90816 On ch=2 n=45 v=127
90816 On ch=10 n=82 v=62
90819 On ch=5 n=66 v=127
90828 Off ch=10 n=82 v=62
90828 Off ch=10 n=42 v=54
90828 Off ch=10 n=40 v=112
90828 Off ch=10 n=39 v=110
90845 Off ch=5 n=54 v=116
90849 Off ch=5 n=66 v=127
90868 On ch=11 n=57 v=127
90868 Off ch=2 n=45 v=127
90869 Off ch=11 n=57 v=127
90910 On ch=5 n=54 v=80
90911 Off ch=5 n=54 v=80
90912 On ch=10 n=42 v=74
90912 On ch=2 n=47 v=127
90912 On ch=10 n=82 v=64
90917 On ch=5 n=66 v=80
90918 Off ch=5 n=66 v=80
90919 On ch=11 n=59 v=127
90924 Off ch=10 n=82 v=64
90924 Off ch=10 n=42 v=74
90947 Off ch=11 n=59 v=127
90956 On ch=5 n=66 v=80
90957 Off ch=5 n=66 v=80
90962 On ch=5 n=54 v=80
90963 Off ch=5 n=54 v=80
90970 On ch=11 n=54 v=88
90971 Off ch=11 n=54 v=88
90982 Off ch=2 n=47 v=127
91004 On ch=5 n=54 v=102
91008 On ch=10 n=36 v=105
91008 On ch=10 n=42 v=57
91008 On ch=5 n=66 v=127
91008 On ch=10 n=82 v=64
91017 On ch=11 n=57 v=127
91020 Off ch=10 n=82 v=64
91020 Off ch=10 n=42 v=57
91020 Off ch=10 n=36 v=105
91036 Off ch=5 n=54 v=102
91044 Off ch=5 n=66 v=127
91101 On ch=4 n=66 v=127
91103 On ch=5 n=54 v=76
91104 On ch=10 n=42 v=69
91104 On ch=2 n=42 v=127
91104 On ch=10 n=82 v=68
91104 Off ch=5 n=54 v=76
91111 On ch=5 n=66 v=72
91112 Off ch=5 n=66 v=72
91116 Off ch=10 n=82 v=68
91116 Off ch=10 n=42 v=69
91132 Off ch=11 n=57 v=127
91146 On ch=5 n=66 v=72
91147 Off ch=5 n=66 v=72
91152 On ch=5 n=54 v=72
91153 On ch=11 n=59 v=127
91153 Off ch=5 n=54 v=72
91160 Off ch=2 n=42 v=127
91185 Off ch=11 n=59 v=127
91197 On ch=5 n=54 v=102
91200 On ch=10 n=39 v=110
91200 On ch=10 n=40 v=113
91200 On ch=2 n=40 v=127
91200 On ch=10 n=42 v=57
91200 On ch=10 n=82 v=62
91201 On ch=5 n=66 v=127
91212 Off ch=10 n=82 v=62
91212 Off ch=10 n=42 v=57
91212 Off ch=10 n=40 v=113
91212 Off ch=10 n=39 v=110
91212 Off ch=4 n=66 v=127
91232 Off ch=5 n=54 v=102
91235 Off ch=5 n=66 v=127
91260 Off ch=2 n=40 v=127
91293 On ch=4 n=66 v=127
91294 On ch=5 n=54 v=68
91295 Off ch=5 n=54 v=68
91296 On ch=10 n=42 v=79
91296 On ch=2 n=42 v=127
91296 On ch=5 n=66 v=68
91296 On ch=10 n=82 v=64
91297 Off ch=5 n=66 v=68
91308 Off ch=10 n=82 v=64
91308 Off ch=10 n=42 v=79
91341 On ch=5 n=66 v=68
91342 Off ch=5 n=66 v=68
91347 On ch=5 n=54 v=68
91348 Off ch=5 n=54 v=68
91348 Off ch=2 n=42 v=127
91371 Off ch=4 n=66 v=127
91389 On ch=5 n=54 v=102
91392 On ch=10 n=36 v=105
91392 On ch=10 n=42 v=54
91392 On ch=2 n=47 v=127
91392 On ch=10 n=82 v=62
91393 On ch=5 n=66 v=127
91393 On ch=4 n=73 v=127
91404 Off ch=10 n=82 v=62
91404 Off ch=10 n=42 v=54
91404 Off ch=10 n=36 v=105
91424 Off ch=5 n=54 v=102
91427 Off ch=5 n=66 v=127
91441 Off ch=2 n=47 v=127
91466 Off ch=4 n=73 v=127
91484 On ch=11 n=60 v=127
91485 On ch=5 n=54 v=68
91486 Off ch=5 n=54 v=68
91488 On ch=10 n=42 v=69
91488 On ch=2 n=42 v=127
91488 On ch=10 n=82 v=55
91490 On ch=4 n=71 v=127
91491 On ch=5 n=66 v=76
91492 Off ch=5 n=66 v=76
91495 Pb ch=11 v=8032
91500 Off ch=10 n=82 v=55
91500 Off ch=10 n=42 v=69
91506 Pb ch=11 v=11872
91511 Pb ch=11 v=12096
91520 Pb ch=11 v=12416
91524 Off ch=11 n=60 v=127
91525 Pb ch=11 v=8192
91529 On ch=5 n=66 v=76
91530 Off ch=5 n=66 v=76
91534 On ch=11 n=59 v=127
91538 On ch=5 n=54 v=72
91538 Off ch=2 n=42 v=127
91539 Off ch=5 n=54 v=72
91578 Off ch=4 n=71 v=127
91582 On ch=5 n=54 v=97
91584 On ch=10 n=39 v=110
91584 On ch=10 n=40 v=113
91584 On ch=10 n=42 v=49
91584 On ch=2 n=45 v=127
91584 On ch=10 n=82 v=55
91590 On ch=5 n=66 v=127
91592 Off ch=11 n=59 v=127
91596 Off ch=10 n=82 v=55
91596 Off ch=10 n=42 v=49
91596 Off ch=10 n=40 v=113
91596 Off ch=10 n=39 v=110
91599 On ch=4 n=71 v=127
91617 Off ch=5 n=54 v=97
91618 Off ch=5 n=66 v=127
91640 On ch=11 n=57 v=127
91641 Off ch=11 n=57 v=127
91641 Off ch=2 n=45 v=127
91680 On ch=10 n=42 v=79
91680 On ch=2 n=47 v=127
91680 On ch=11 n=59 v=127
91680 On ch=10 n=82 v=51
91681 On ch=5 n=54 v=72
91682 Off ch=5 n=54 v=72
91686 On ch=5 n=66 v=76
91687 Off ch=5 n=66 v=76
91692 Off ch=10 n=82 v=51
91692 Off ch=10 n=42 v=79
91708 Off ch=11 n=59 v=127
91726 On ch=5 n=66 v=76
91727 Off ch=5 n=66 v=76
91728 Off ch=4 n=71 v=127
91732 On ch=5 n=54 v=76
91733 Off ch=5 n=54 v=76
91740 On ch=11 n=54 v=88
91741 Off ch=11 n=54 v=88
91748 Off ch=2 n=47 v=127
91773 On ch=5 n=54 v=102
91776 On ch=10 n=36 v=105
91776 On ch=10 n=42 v=46
91776 On ch=10 n=82 v=58
91780 On ch=11 n=57 v=127
91782 On ch=5 n=66 v=127
91783 On ch=4 n=66 v=127
91788 Off ch=10 n=82 v=58
91788 Off ch=10 n=42 v=46
91788 Off ch=10 n=36 v=105
91803 Off ch=5 n=54 v=102
91814 Off ch=5 n=66 v=127
91852 Off ch=4 n=66 v=127
91868 On ch=5 n=54 v=71
91869 Off ch=5 n=54 v=71
91872 On ch=10 n=42 v=74
91872 On ch=2 n=42 v=127
91872 On ch=10 n=82 v=47
91879 On ch=5 n=66 v=68
91880 Off ch=5 n=66 v=68
91884 Off ch=10 n=82 v=47
91884 Off ch=10 n=42 v=74
91886 On ch=4 n=62 v=127
91895 Off ch=11 n=57 v=127
91916 On ch=5 n=66 v=68
91917 Off ch=5 n=66 v=68
91922 On ch=11 n=54 v=127
91923 On ch=5 n=54 v=68
91924 Off ch=5 n=54 v=68
91935 Off ch=2 n=42 v=127
91955 Off ch=11 n=54 v=127
91967 On ch=5 n=54 v=102
91968 On ch=10 n=39 v=110
91968 On ch=10 n=40 v=113
91968 On ch=2 n=40 v=127
91968 On ch=10 n=42 v=46
91968 On ch=10 n=82 v=62
91970 On ch=5 n=66 v=127
91980 Off ch=10 n=82 v=62
91980 Off ch=10 n=42 v=46
91980 Off ch=10 n=40 v=113
91980 Off ch=10 n=39 v=110
91994 Off ch=5 n=54 v=102
91999 Off ch=5 n=66 v=127
92028 Off ch=2 n=40 v=127
92052 Off ch=4 n=62 v=127
92060 On ch=5 n=54 v=68
92061 Off ch=5 n=54 v=68
92064 On ch=2 n=37 v=127
92064 On ch=10 n=42 v=79
92064 On ch=10 n=82 v=58
92070 On ch=5 n=66 v=68
92071 Off ch=5 n=66 v=68
92076 Off ch=10 n=82 v=58
92076 Off ch=10 n=42 v=79
92079 On ch=4 n=61 v=127
92111 On ch=5 n=66 v=72
92112 Off ch=5 n=66 v=72
92115 On ch=5 n=54 v=72
92116 Off ch=5 n=54 v=72
92124 Off ch=3 n=57 v=73
92127 Off ch=2 n=37 v=127
92128 Off ch=3 n=66 v=73
92136 Off ch=3 n=62 v=73
92158 On ch=5 n=54 v=102
92160 On ch=10 n=36 v=105
92160 On ch=10 n=42 v=42
92160 On ch=2 n=42 v=127
92160 On ch=3 n=57 v=96
92160 On ch=3 n=61 v=96
92160 On ch=3 n=66 v=96
92160 On ch=10 n=82 v=56
92160 Off ch=7 n=78 v=72
92160 Off ch=7 n=74 v=71
92163 On ch=5 n=66 v=127
92172 Off ch=10 n=82 v=56
92172 Off ch=10 n=42 v=42
92172 Off ch=10 n=36 v=105
92188 Off ch=5 n=54 v=102
92189 Off ch=5 n=66 v=127
92208 Off ch=3 n=61 v=96
92208 Off ch=3 n=66 v=96
92208 Off ch=3 n=57 v=96
92210 Off ch=2 n=42 v=127
92256 On ch=2 n=37 v=127
92256 On ch=10 n=42 v=69
92256 On ch=10 n=82 v=46
92268 Off ch=10 n=82 v=46
92268 Off ch=10 n=42 v=69
92308 Off ch=2 n=37 v=127
92352 On ch=10 n=39 v=110
92352 On ch=10 n=40 v=112
92352 On ch=2 n=40 v=127
92352 On ch=10 n=42 v=54
92352 On ch=10 n=82 v=64
92364 Off ch=10 n=82 v=64
92364 Off ch=10 n=42 v=54
92364 Off ch=10 n=40 v=112
92364 Off ch=10 n=39 v=110
92372 Off ch=4 n=61 v=127
92407 Off ch=2 n=40 v=127
92448 On ch=10 n=42 v=74
92448 On ch=10 n=82 v=53
92448 Par ch=7 c=10 v=0
92448 On ch=2 n=42 v=127
92448 On ch=3 n=59 v=96
92448 On ch=3 n=63 v=96
92448 On ch=3 n=68 v=96
92460 Off ch=10 n=82 v=53
92460 Off ch=10 n=42 v=74
92496 Off ch=3 n=63 v=96
92496 Off ch=3 n=68 v=96
92496 Off ch=3 n=59 v=96
92499 Off ch=2 n=42 v=127
92542 On ch=7 n=85 v=126
92544 On ch=10 n=36 v=105
92544 On ch=2 n=40 v=127
92544 On ch=10 n=42 v=57
92544 On ch=10 n=82 v=62
92556 Off ch=10 n=82 v=62
92556 Off ch=10 n=42 v=57
92556 Off ch=10 n=36 v=105
92590 Off ch=7 n=85 v=126
92591 On ch=7 n=81 v=126
92600 Off ch=2 n=40 v=127
92639 Off ch=7 n=81 v=126
92640 On ch=2 n=37 v=127
92640 On ch=10 n=42 v=69
92640 On ch=10 n=82 v=60
92641 On ch=7 n=78 v=126
92652 Off ch=10 n=82 v=60
92652 Off ch=10 n=42 v=69
92689 On ch=7 n=74 v=126
92689 Off ch=7 n=78 v=126
92691 Off ch=2 n=37 v=127
92736 On ch=2 n=35 v=127
92736 On ch=10 n=39 v=110
92736 On ch=10 n=40 v=113
92736 On ch=10 n=42 v=57
92736 On ch=10 n=82 v=68
92737 On ch=7 n=73 v=97
92737 Off ch=7 n=74 v=126
92748 Off ch=10 n=82 v=68
92748 Off ch=10 n=42 v=57
92748 Off ch=10 n=40 v=113
92748 Off ch=10 n=39 v=110
92797 Off ch=2 n=35 v=127
92832 On ch=2 n=37 v=127
92832 On ch=10 n=42 v=79
92832 On ch=10 n=82 v=50
92844 Off ch=10 n=82 v=50
92844 Off ch=10 n=42 v=79
92886 Off ch=2 n=37 v=127
92928 On ch=10 n=36 v=105
92928 On ch=10 n=42 v=54
92928 On ch=2 n=42 v=127
92928 On ch=3 n=61 v=96
92928 On ch=3 n=64 v=96
92928 On ch=3 n=69 v=96
92928 On ch=10 n=82 v=68
92940 Off ch=10 n=82 v=68
92940 Off ch=10 n=42 v=54
92940 Off ch=10 n=36 v=105
92975 Off ch=2 n=42 v=127
92976 Off ch=3 n=69 v=96
92976 Off ch=3 n=64 v=96
92976 Off ch=3 n=61 v=96
93024 On ch=2 n=37 v=127
93024 On ch=10 n=42 v=69
93024 On ch=10 n=82 v=58
93027 On ch=4 n=66 v=127
93036 Off ch=10 n=82 v=58
93036 Off ch=10 n=42 v=69
93072 Off ch=2 n=37 v=127
93098 Off ch=4 n=66 v=127
93117 On ch=4 n=69 v=127
93120 On ch=10 n=39 v=110
93120 On ch=10 n=40 v=113
93120 On ch=2 n=40 v=127
93120 On ch=10 n=42 v=49
93120 On ch=10 n=82 v=66
93132 Off ch=10 n=82 v=66
93132 Off ch=10 n=42 v=49
93132 Off ch=10 n=40 v=113
93132 Off ch=10 n=39 v=110
93173 Off ch=2 n=40 v=127
93203 Off ch=4 n=69 v=127
93216 On ch=10 n=42 v=79
93216 On ch=2 n=42 v=127
93216 On ch=3 n=59 v=96
93216 On ch=3 n=63 v=96
93216 On ch=3 n=68 v=96
93216 On ch=10 n=82 v=60
93216 Off ch=7 n=73 v=97
93221 On ch=4 n=71 v=127
93228 Off ch=10 n=82 v=60
93228 Off ch=10 n=42 v=79
93236 Par ch=7 c=10 v=127
93262 Off ch=2 n=42 v=127
93264 Off ch=3 n=68 v=96
93264 Off ch=3 n=63 v=96
93264 Off ch=3 n=59 v=96
93297 On ch=7 n=64 v=113
93312 On ch=10 n=36 v=105
93312 On ch=2 n=40 v=127
93312 On ch=10 n=42 v=46
93312 On ch=10 n=82 v=56
93324 Off ch=10 n=82 v=56
93324 Off ch=10 n=42 v=46
93324 Off ch=10 n=36 v=105
93371 Off ch=2 n=40 v=127
93379 Off ch=7 n=64 v=113
93380 On ch=7 n=66 v=113
93387 Off ch=4 n=71 v=127
93406 On ch=4 n=69 v=127
93408 On ch=2 n=37 v=127
93408 On ch=10 n=42 v=74
93408 On ch=10 n=82 v=60
93420 Off ch=10 n=82 v=60
93420 Off ch=10 n=42 v=74
93440 Off ch=7 n=66 v=113
93462 Off ch=2 n=37 v=127
93482 Off ch=4 n=69 v=127
93504 On ch=2 n=35 v=127
93504 On ch=10 n=39 v=110
93504 On ch=10 n=40 v=113
93504 On ch=10 n=42 v=46
93504 On ch=4 n=68 v=127
93504 On ch=10 n=82 v=64
93516 Off ch=10 n=82 v=64
93516 Off ch=10 n=42 v=46
93516 Off ch=10 n=40 v=113
93516 Off ch=10 n=39 v=110
93556 Par ch=7 c=10 v=64
93569 Off ch=2 n=35 v=127
93582 Off ch=4 n=68 v=127
93600 On ch=2 n=37 v=127
93600 On ch=10 n=46 v=99
93600 On ch=10 n=82 v=64
93601 On ch=5 n=54 v=86
93602 Off ch=5 n=54 v=86
93603 On ch=5 n=66 v=76
93604 Off ch=5 n=66 v=76
93607 On ch=4 n=66 v=127
93612 Off ch=10 n=82 v=64
93612 Off ch=10 n=46 v=99
93649 On ch=5 n=54 v=87
93650 Off ch=5 n=54 v=87
93651 On ch=5 n=66 v=76
93651 Off ch=2 n=37 v=127
93652 Off ch=5 n=66 v=76
93696 On ch=10 n=36 v=105
93696 On ch=10 n=42 v=42
93696 On ch=2 n=47 v=127
93696 On ch=5 n=54 v=102
93696 On ch=3 n=57 v=73
93696 On ch=3 n=62 v=73
93696 On ch=3 n=66 v=73
93696 On ch=7 n=74 v=71
93696 On ch=7 n=78 v=72
93696 On ch=10 n=82 v=66
93697 On ch=5 n=66 v=127
93708 Off ch=10 n=82 v=66
93708 Off ch=10 n=42 v=42
93708 Off ch=10 n=36 v=105
93731 Off ch=5 n=66 v=127
93731 Off ch=5 n=54 v=102
93744 Off ch=2 n=47 v=127
93778 Off ch=4 n=66 v=127
93789 On ch=5 n=54 v=76
93790 Off ch=5 n=54 v=76
93792 On ch=10 n=42 v=69
93792 On ch=2 n=42 v=127
93792 On ch=10 n=82 v=64
93793 On ch=11 n=60 v=127
93797 On ch=5 n=66 v=80
93798 Off ch=5 n=66 v=80
93804 Off ch=10 n=82 v=64
93804 Off ch=10 n=42 v=69
93807 Pb ch=11 v=11168
93816 Pb ch=11 v=12096
93827 Off ch=2 n=42 v=127
93829 Pb ch=11 v=12416
93835 Off ch=11 n=60 v=127
93836 On ch=5 n=66 v=80
93837 Pb ch=11 v=8192
93837 Off ch=5 n=66 v=80
93840 On ch=5 n=54 v=80
93841 Off ch=5 n=54 v=80
93848 On ch=11 n=59 v=127
93886 On ch=5 n=54 v=116
93887 Off ch=11 n=59 v=127
93888 On ch=10 n=39 v=110
93888 On ch=10 n=40 v=112
93888 On ch=10 n=42 v=54
93888 On ch=2 n=45 v=127
93888 On ch=10 n=82 v=62
93891 On ch=5 n=66 v=127
93900 Off ch=10 n=82 v=62
93900 Off ch=10 n=42 v=54
93900 Off ch=10 n=40 v=112
93900 Off ch=10 n=39 v=110
93917 Off ch=5 n=54 v=116
93921 Off ch=5 n=66 v=127
93940 On ch=11 n=57 v=127
93940 Off ch=2 n=45 v=127
93941 Off ch=11 n=57 v=127
93982 On ch=5 n=54 v=80
93983 Off ch=5 n=54 v=80
93984 On ch=10 n=42 v=74
93984 On ch=2 n=47 v=127
93984 On ch=10 n=82 v=64
93989 On ch=5 n=66 v=80
93990 Off ch=5 n=66 v=80
93991 On ch=11 n=59 v=127
93996 Off ch=10 n=82 v=64
93996 Off ch=10 n=42 v=74
94019 Off ch=11 n=59 v=127
94028 On ch=5 n=66 v=80
94029 Off ch=5 n=66 v=80
94034 On ch=5 n=54 v=80
94035 Off ch=5 n=54 v=80
94042 On ch=11 n=54 v=88
94043 Off ch=11 n=54 v=88
94054 Off ch=2 n=47 v=127
94076 On ch=5 n=54 v=102
94080 On ch=10 n=36 v=105
94080 On ch=10 n=42 v=57
94080 On ch=5 n=66 v=127
94080 On ch=10 n=82 v=64
94089 On ch=11 n=57 v=127
94092 Off ch=10 n=82 v=64
94092 Off ch=10 n=42 v=57
94092 Off ch=10 n=36 v=105
94108 Off ch=5 n=54 v=102
94116 Off ch=5 n=66 v=127
94175 On ch=5 n=54 v=76
94176 On ch=10 n=42 v=69
94176 On ch=2 n=42 v=127
94176 On ch=10 n=82 v=68
94176 Off ch=5 n=54 v=76
94179 On ch=4 n=66 v=127
94183 On ch=5 n=66 v=72
94184 Off ch=5 n=66 v=72
94188 Off ch=10 n=82 v=68
94188 Off ch=10 n=42 v=69
94204 Off ch=11 n=57 v=127
94218 On ch=5 n=66 v=72
94219 Off ch=5 n=66 v=72
94224 On ch=5 n=54 v=72
94225 On ch=11 n=59 v=127
94225 Off ch=5 n=54 v=72
94232 Off ch=2 n=42 v=127
94257 Off ch=11 n=59 v=127
94268 Off ch=4 n=66 v=127
94269 On ch=5 n=54 v=102
94272 On ch=10 n=39 v=110
94272 On ch=10 n=40 v=113
94272 On ch=2 n=40 v=127
94272 On ch=10 n=42 v=57
94272 On ch=10 n=82 v=62
94273 On ch=5 n=66 v=127
94284 Off ch=10 n=82 v=62
94284 Off ch=10 n=42 v=57
94284 Off ch=10 n=40 v=113
94284 Off ch=10 n=39 v=110
94304 Off ch=5 n=54 v=102
94307 Off ch=5 n=66 v=127
94332 Off ch=2 n=40 v=127
94366 On ch=5 n=54 v=68
94367 Off ch=5 n=54 v=68
94368 On ch=10 n=42 v=79
94368 On ch=2 n=42 v=127
94368 On ch=5 n=66 v=68
94368 On ch=4 n=66 v=127
94368 On ch=10 n=82 v=64
94369 Off ch=5 n=66 v=68
94380 Off ch=10 n=82 v=64
94380 Off ch=10 n=42 v=79
94413 On ch=5 n=66 v=68
94414 Off ch=5 n=66 v=68
94419 On ch=5 n=54 v=68
94420 Off ch=5 n=54 v=68
94420 Off ch=2 n=42 v=127
94454 Off ch=4 n=66 v=127
94461 On ch=5 n=54 v=102
94464 On ch=10 n=36 v=105
94464 On ch=10 n=42 v=54
94464 On ch=2 n=47 v=127
94464 On ch=10 n=82 v=62
94465 On ch=5 n=66 v=127
94467 On ch=4 n=73 v=127
94476 Off ch=10 n=82 v=62
94476 Off ch=10 n=42 v=54
94476 Off ch=10 n=36 v=105
94496 Off ch=5 n=54 v=102
94499 Off ch=5 n=66 v=127
94513 Off ch=2 n=47 v=127
94539 Off ch=4 n=73 v=127
94556 On ch=11 n=60 v=127
94556 Pb ch=11 v=8192
94557 On ch=5 n=54 v=68
94558 Off ch=5 n=54 v=68
94560 On ch=10 n=42 v=69
94560 On ch=2 n=42 v=127
94560 On ch=10 n=82 v=55
94562 On ch=4 n=71 v=127
94563 On ch=5 n=66 v=76
94563 Pb ch=11 v=8032
94564 Off ch=5 n=66 v=76
94572 Off ch=10 n=82 v=55
94572 Off ch=10 n=42 v=69
94578 Pb ch=11 v=11872
94583 Pb ch=11 v=12096
94592 Pb ch=11 v=12416
94596 Off ch=11 n=60 v=127
94598 Pb ch=11 v=8288
94601 On ch=5 n=66 v=76
94602 Off ch=5 n=66 v=76
94606 On ch=11 n=59 v=127
94610 On ch=5 n=54 v=72
94610 Off ch=2 n=42 v=127
94611 Off ch=5 n=54 v=72
94638 Off ch=4 n=71 v=127
94654 On ch=5 n=54 v=97
94656 On ch=10 n=39 v=110
94656 On ch=10 n=40 v=113
94656 On ch=10 n=42 v=49
94656 On ch=2 n=45 v=127
94656 On ch=10 n=82 v=55
94662 On ch=5 n=66 v=127
94663 On ch=4 n=71 v=127
94664 Off ch=11 n=59 v=127
94668 Off ch=10 n=82 v=55
94668 Off ch=10 n=42 v=49
94668 Off ch=10 n=40 v=113
94668 Off ch=10 n=39 v=110
94689 Off ch=5 n=54 v=97
94690 Off ch=5 n=66 v=127
94712 On ch=11 n=57 v=127
94713 Off ch=11 n=57 v=127
94713 Off ch=2 n=45 v=127
94752 On ch=10 n=42 v=79
94752 On ch=2 n=47 v=127
94752 On ch=11 n=59 v=127
94752 On ch=10 n=82 v=51
94753 On ch=5 n=54 v=72
94754 Off ch=5 n=54 v=72
94758 On ch=5 n=66 v=76
94759 Off ch=5 n=66 v=76
94764 Off ch=10 n=82 v=51
94764 Off ch=10 n=42 v=79
94774 Off ch=4 n=71 v=127
94780 Off ch=11 n=59 v=127
94798 On ch=5 n=66 v=76
94799 Off ch=5 n=66 v=76
94804 On ch=5 n=54 v=76
94805 Off ch=5 n=54 v=76
94812 On ch=11 n=54 v=88
94813 Off ch=11 n=54 v=88
94820 Off ch=2 n=47 v=127
94845 On ch=5 n=54 v=102
94848 On ch=10 n=36 v=105
94848 On ch=10 n=42 v=46
94848 On ch=10 n=82 v=58
94852 On ch=11 n=57 v=127
94852 On ch=4 n=66 v=127
94854 On ch=5 n=66 v=127
94860 Off ch=10 n=82 v=58
94860 Off ch=10 n=42 v=46
94860 Off ch=10 n=36 v=105
94875 Off ch=5 n=54 v=102
94886 Off ch=5 n=66 v=127
94940 On ch=5 n=54 v=71
94941 Off ch=5 n=54 v=71
94944 On ch=10 n=42 v=74
94944 On ch=2 n=42 v=127
94944 On ch=10 n=82 v=47
94951 On ch=5 n=66 v=68
94952 Off ch=5 n=66 v=68
94952 Off ch=4 n=66 v=127
94953 On ch=4 n=62 v=127
94956 Off ch=10 n=82 v=47
94956 Off ch=10 n=42 v=74
94967 Off ch=11 n=57 v=127
94988 On ch=5 n=66 v=68
94989 Off ch=5 n=66 v=68
94994 On ch=11 n=54 v=127
94995 On ch=5 n=54 v=68
94996 Off ch=5 n=54 v=68
95007 Off ch=2 n=42 v=127
95027 Off ch=11 n=54 v=127
95039 On ch=5 n=54 v=102
95040 On ch=10 n=39 v=110
95040 On ch=10 n=40 v=113
95040 On ch=2 n=40 v=127
95040 On ch=10 n=42 v=46
95040 On ch=10 n=82 v=62
95042 On ch=5 n=66 v=127
95052 Off ch=10 n=82 v=62
95052 Off ch=10 n=42 v=46
95052 Off ch=10 n=40 v=113
95052 Off ch=10 n=39 v=110
95066 Off ch=5 n=54 v=102
95071 Off ch=5 n=66 v=127
95100 Off ch=2 n=40 v=127
95118 Off ch=4 n=62 v=127
95132 On ch=5 n=54 v=68
95133 Off ch=5 n=54 v=68
95136 On ch=2 n=37 v=127
95136 On ch=10 n=42 v=79
95136 On ch=10 n=82 v=58
95142 On ch=5 n=66 v=68
95143 Off ch=5 n=66 v=68
95146 On ch=4 n=61 v=127
95148 Off ch=10 n=82 v=58
95148 Off ch=10 n=42 v=79
95183 On ch=5 n=66 v=72
95184 Off ch=5 n=66 v=72
95187 On ch=5 n=54 v=72
95188 Off ch=5 n=54 v=72
95191 Par ch=11 c=120 v=0
95199 Off ch=2 n=37 v=127
95204 Par ch=11 c=123 v=0
95212 Off ch=3 n=66 v=73
95216 Off ch=3 n=57 v=73
95216 Off ch=3 n=62 v=73
95230 On ch=5 n=54 v=102
95232 On ch=10 n=36 v=105
95232 On ch=10 n=42 v=42
95232 On ch=2 n=42 v=127
95232 On ch=3 n=57 v=96
95232 On ch=3 n=61 v=96
95232 On ch=3 n=66 v=96
95232 On ch=10 n=82 v=56
95232 Off ch=7 n=78 v=72
95232 Off ch=7 n=74 v=71
95235 On ch=5 n=66 v=127
95244 Off ch=10 n=82 v=56
95244 Off ch=10 n=42 v=42
95244 Off ch=10 n=36 v=105
95260 Off ch=5 n=54 v=102
95261 Off ch=5 n=66 v=127
95282 Off ch=2 n=42 v=127
95284 Off ch=3 n=57 v=96
95287 Off ch=3 n=61 v=96
95287 Off ch=3 n=66 v=96
95328 On ch=2 n=37 v=127
95328 On ch=10 n=42 v=69
95328 On ch=10 n=82 v=46
95340 Off ch=10 n=82 v=46
95340 Off ch=10 n=42 v=69
95380 Off ch=2 n=37 v=127
95424 On ch=10 n=39 v=110
95424 On ch=10 n=40 v=112
95424 On ch=2 n=40 v=127
95424 On ch=10 n=42 v=54
95424 On ch=10 n=82 v=64
95436 Off ch=10 n=82 v=64
95436 Off ch=10 n=42 v=54
95436 Off ch=10 n=40 v=112
95436 Off ch=10 n=39 v=110
95446 Off ch=4 n=61 v=127
95479 Off ch=2 n=40 v=127
95520 On ch=10 n=42 v=74
95520 On ch=10 n=82 v=53
95520 Par ch=7 c=10 v=0
95520 On ch=2 n=42 v=127
95520 On ch=3 n=59 v=96
95520 On ch=3 n=63 v=96
95520 On ch=3 n=68 v=96
95532 Off ch=10 n=82 v=53
95532 Off ch=10 n=42 v=74
95568 Off ch=3 n=68 v=96
95568 Off ch=3 n=63 v=96
95568 Off ch=3 n=59 v=96
95571 Off ch=2 n=42 v=127
95614 On ch=7 n=85 v=126
95616 On ch=10 n=36 v=105
95616 On ch=2 n=40 v=127
95616 On ch=10 n=42 v=57
95616 On ch=10 n=82 v=62
95628 Off ch=10 n=82 v=62
95628 Off ch=10 n=42 v=57
95628 Off ch=10 n=36 v=105
95662 Off ch=7 n=85 v=126
95663 On ch=7 n=81 v=126
95672 Off ch=2 n=40 v=127
95711 Off ch=7 n=81 v=126
95712 On ch=2 n=37 v=127
95712 On ch=10 n=42 v=69
95712 On ch=10 n=82 v=60
95713 On ch=7 n=78 v=126
95724 Off ch=10 n=82 v=60
95724 Off ch=10 n=42 v=69
95761 On ch=7 n=74 v=126
95761 Off ch=7 n=78 v=126
95763 Off ch=2 n=37 v=127
95808 On ch=2 n=35 v=127
95808 On ch=10 n=39 v=110
95808 On ch=10 n=40 v=113
95808 On ch=10 n=42 v=57
95808 On ch=10 n=82 v=68
95809 On ch=7 n=73 v=97
95809 Off ch=7 n=74 v=126
95820 Off ch=10 n=82 v=68
95820 Off ch=10 n=42 v=57
95820 Off ch=10 n=40 v=113
95820 Off ch=10 n=39 v=110
95869 Off ch=2 n=35 v=127
95904 On ch=2 n=37 v=127
95904 On ch=10 n=42 v=79
95904 On ch=10 n=82 v=50
95916 Off ch=10 n=82 v=50
95916 Off ch=10 n=42 v=79
95958 Off ch=2 n=37 v=127
96000 On ch=10 n=36 v=105
96000 On ch=10 n=42 v=54
96000 On ch=2 n=42 v=127
96000 On ch=3 n=61 v=96
96000 On ch=3 n=64 v=96
96000 On ch=3 n=69 v=96
96000 On ch=10 n=82 v=68
96012 Off ch=10 n=82 v=68
96012 Off ch=10 n=42 v=54
96012 Off ch=10 n=36 v=105
96047 Off ch=2 n=42 v=127
96048 Off ch=3 n=69 v=96
96048 Off ch=3 n=64 v=96
96048 Off ch=3 n=61 v=96
96096 On ch=2 n=37 v=127
96096 On ch=10 n=42 v=69
96096 On ch=10 n=82 v=58
96108 Off ch=10 n=82 v=58
96108 Off ch=10 n=42 v=69
96144 Off ch=2 n=37 v=127
96192 On ch=10 n=39 v=110
96192 On ch=10 n=40 v=113
96192 On ch=2 n=40 v=127
96192 On ch=10 n=42 v=49
96192 On ch=10 n=82 v=66
96204 Off ch=10 n=82 v=66
96204 Off ch=10 n=42 v=49
96204 Off ch=10 n=40 v=113
96204 Off ch=10 n=39 v=110
96245 Off ch=2 n=40 v=127
96288 On ch=10 n=42 v=79
96288 On ch=2 n=42 v=127
96288 On ch=3 n=59 v=96
96288 On ch=3 n=63 v=96
96288 On ch=3 n=68 v=96
96288 On ch=10 n=82 v=60
96288 Off ch=7 n=73 v=97
96300 Off ch=10 n=82 v=60
96300 Off ch=10 n=42 v=79
96308 Par ch=7 c=10 v=127
96334 Off ch=2 n=42 v=127
96336 Off ch=3 n=68 v=96
96336 Off ch=3 n=63 v=96
96336 Off ch=3 n=59 v=96
96369 On ch=7 n=64 v=113
96384 On ch=10 n=36 v=105
96384 On ch=10 n=42 v=46
96384 On ch=10 n=82 v=56
96384 Par ch=5 c=0 v=8
96384 On ch=2 n=40 v=127
96396 Off ch=10 n=82 v=56
96396 Off ch=10 n=42 v=46
96396 Off ch=10 n=36 v=105
96436 PrCh ch=5 p=28
96443 Off ch=2 n=40 v=127
96451 Off ch=7 n=64 v=113
96452 On ch=7 n=66 v=113
96480 On ch=2 n=37 v=127
96480 On ch=10 n=42 v=74
96480 On ch=10 n=82 v=60
96484 Par ch=5 c=7 v=76
96492 Off ch=10 n=82 v=60
96492 Off ch=10 n=42 v=74
96512 Off ch=7 n=66 v=113
96528 On ch=10 n=45 v=97
96534 Off ch=2 n=37 v=127
96540 Off ch=10 n=45 v=97
96576 On ch=2 n=35 v=127
96576 On ch=10 n=39 v=110
96576 On ch=10 n=40 v=113
96576 On ch=10 n=42 v=46
96576 On ch=10 n=43 v=103
96576 On ch=10 n=82 v=64
96588 Off ch=10 n=82 v=64
96588 Off ch=10 n=43 v=103
96588 Off ch=10 n=42 v=46
96588 Off ch=10 n=40 v=113
96588 Off ch=10 n=39 v=110
96628 Par ch=7 c=10 v=64
96641 Off ch=2 n=35 v=127
96672 On ch=2 n=37 v=127
96672 On ch=10 n=46 v=99
96672 On ch=10 n=82 v=64
96673 On ch=5 n=54 v=86
96674 Off ch=5 n=54 v=86
96675 On ch=5 n=66 v=76
96676 Off ch=5 n=66 v=76
96684 Off ch=10 n=82 v=64
96684 Off ch=10 n=46 v=99
96721 On ch=5 n=54 v=87
96722 Off ch=5 n=54 v=87
96723 On ch=5 n=66 v=76
96723 Off ch=2 n=37 v=127
96724 Off ch=5 n=66 v=76
96768 On ch=10 n=36 v=105
96768 On ch=10 n=42 v=42
96768 On ch=2 n=42 v=127
96768 On ch=3 n=57 v=73
96768 On ch=7 n=61 v=70
96768 On ch=3 n=61 v=73
96768 On ch=7 n=66 v=70
96768 On ch=3 n=66 v=73
96768 On ch=10 n=82 v=66
96775 On ch=5 n=61 v=127
96780 Off ch=10 n=82 v=66
96780 Off ch=10 n=42 v=42
96780 Off ch=10 n=36 v=105
96803 Off ch=5 n=61 v=127
96817 On ch=5 n=61 v=127
96818 Off ch=2 n=42 v=127
96849 Off ch=5 n=61 v=127
96864 On ch=2 n=37 v=127
96864 On ch=10 n=42 v=69
96864 On ch=10 n=82 v=64
96871 On ch=5 n=50 v=71
96876 Off ch=10 n=82 v=64
96876 Off ch=10 n=42 v=69
96877 Off ch=5 n=50 v=71
96916 On ch=5 n=59 v=127
96916 Off ch=2 n=37 v=127
96960 On ch=10 n=39 v=110
96960 On ch=10 n=40 v=112
96960 On ch=2 n=40 v=127
96960 On ch=10 n=42 v=54
96960 On ch=10 n=82 v=62
96966 On ch=4 n=66 v=127
96972 Off ch=10 n=82 v=62
96972 Off ch=10 n=42 v=54
96972 Off ch=10 n=40 v=112
96972 Off ch=10 n=39 v=110
96975 Off ch=5 n=59 v=127
97008 Off ch=7 n=61 v=70
97008 Off ch=7 n=66 v=70
97008 Off ch=3 n=66 v=73
97008 Off ch=3 n=61 v=73
97008 Off ch=3 n=57 v=73
97015 Off ch=2 n=40 v=127
97016 On ch=5 n=57 v=127
97023 Off ch=4 n=66 v=127
97037 Off ch=5 n=57 v=127
97048 On ch=4 n=66 v=127
97056 On ch=10 n=42 v=74
97056 On ch=2 n=42 v=127
97056 On ch=3 n=59 v=73
97056 On ch=7 n=63 v=70
97056 On ch=3 n=63 v=73
97056 On ch=7 n=68 v=70
97056 On ch=3 n=68 v=73
97056 On ch=10 n=82 v=64
97059 On ch=5 n=60 v=127
97067 On ch=5 n=61 v=127
97068 Off ch=10 n=82 v=64
97068 Off ch=10 n=42 v=74
97075 Off ch=5 n=60 v=127
97107 Off ch=2 n=42 v=127
97135 Off ch=4 n=66 v=127
97152 On ch=10 n=36 v=105
97152 On ch=2 n=40 v=127
97152 On ch=10 n=42 v=57
97152 On ch=10 n=82 v=64
97153 On ch=4 n=64 v=125
97164 Off ch=10 n=82 v=64
97164 Off ch=10 n=42 v=57
97164 Off ch=10 n=36 v=105
97208 Off ch=2 n=40 v=127
97248 On ch=2 n=37 v=127
97248 On ch=10 n=42 v=69
97248 On ch=10 n=82 v=68
97249 Off ch=4 n=64 v=125
97255 On ch=4 n=61 v=127
97260 Off ch=10 n=82 v=68
97260 Off ch=10 n=42 v=69
97299 Off ch=2 n=37 v=127
97344 On ch=2 n=35 v=127
97344 On ch=10 n=39 v=110
97344 On ch=10 n=40 v=113
97344 On ch=10 n=42 v=57
97344 On ch=10 n=82 v=62
97356 Off ch=10 n=82 v=62
97356 Off ch=10 n=42 v=57
97356 Off ch=10 n=40 v=113
97356 Off ch=10 n=39 v=110
97378 Off ch=5 n=61 v=127
97405 Off ch=2 n=35 v=127
97426 Off ch=4 n=61 v=127
97440 On ch=2 n=37 v=127
97440 On ch=10 n=42 v=74
97440 On ch=10 n=82 v=64
97440 Off ch=7 n=68 v=70
97440 Off ch=7 n=63 v=70
97440 Off ch=3 n=68 v=73
97440 Off ch=3 n=59 v=73
97440 Off ch=3 n=63 v=73
97448 On ch=5 n=54 v=121
97448 On ch=4 n=61 v=127
97449 Off ch=5 n=54 v=121
97452 Off ch=10 n=82 v=64
97452 Off ch=10 n=42 v=74
97494 Off ch=2 n=37 v=127
97496 On ch=5 n=54 v=120
97497 Off ch=5 n=54 v=120
97521 Off ch=4 n=61 v=127
97536 On ch=10 n=36 v=105
97536 On ch=10 n=42 v=54
97536 On ch=2 n=42 v=127
97536 On ch=3 n=61 v=73
97536 On ch=7 n=64 v=70
97536 On ch=3 n=64 v=73
97536 On ch=7 n=69 v=70
97536 On ch=3 n=69 v=73
97536 On ch=10 n=82 v=62
97544 On ch=5 n=61 v=127
97548 Off ch=10 n=82 v=62
97548 Off ch=10 n=42 v=54
97548 Off ch=10 n=36 v=105
97548 On ch=4 n=66 v=127
97575 Off ch=5 n=61 v=127
97583 Off ch=2 n=42 v=127
97584 On ch=5 n=61 v=127
97601 Off ch=4 n=66 v=127
97621 Off ch=5 n=61 v=127
97632 On ch=2 n=37 v=127
97632 On ch=10 n=42 v=69
97632 On ch=10 n=82 v=55
97639 On ch=5 n=50 v=71
97641 On ch=4 n=66 v=127
97644 Off ch=10 n=82 v=55
97644 Off ch=10 n=42 v=69
97653 Off ch=5 n=50 v=71
97680 Off ch=2 n=37 v=127
97684 On ch=5 n=59 v=127
97721 Off ch=4 n=66 v=127
97728 On ch=10 n=39 v=110
97728 On ch=10 n=40 v=113
97728 On ch=2 n=40 v=127
97728 On ch=10 n=42 v=49
97728 On ch=10 n=82 v=55
97732 Off ch=5 n=59 v=127
97740 Off ch=10 n=82 v=55
97740 Off ch=10 n=42 v=49
97740 Off ch=10 n=40 v=113
97740 Off ch=10 n=39 v=110
97774 Off ch=7 n=69 v=70
97776 Off ch=7 n=64 v=70
97776 Off ch=3 n=61 v=73
97776 Off ch=3 n=64 v=73
97776 Off ch=3 n=69 v=73
97778 On ch=5 n=57 v=127
97781 Off ch=2 n=40 v=127
97801 On ch=5 n=59 v=102
97803 Off ch=5 n=59 v=102
97806 Off ch=5 n=57 v=127
97816 On ch=5 n=60 v=110
97821 On ch=4 n=64 v=120
97824 On ch=10 n=42 v=79
97824 On ch=2 n=42 v=127
97824 On ch=3 n=59 v=73
97824 On ch=7 n=63 v=70
97824 On ch=3 n=63 v=73
97824 On ch=7 n=68 v=70
97824 On ch=3 n=68 v=73
97824 On ch=10 n=82 v=51
97828 Off ch=5 n=60 v=110
97830 On ch=5 n=61 v=127
97836 Off ch=10 n=82 v=51
97836 Off ch=10 n=42 v=79
97870 Off ch=2 n=42 v=127
97920 On ch=10 n=36 v=105
97920 On ch=2 n=40 v=127
97920 On ch=10 n=42 v=46
97920 On ch=10 n=82 v=58
97932 Off ch=10 n=82 v=58
97932 Off ch=10 n=42 v=46
97932 Off ch=10 n=36 v=105
97979 Off ch=2 n=40 v=127
98003 Off ch=4 n=64 v=120
98016 On ch=2 n=37 v=127
98016 On ch=10 n=42 v=74
98016 On ch=4 n=61 v=127
98016 On ch=10 n=82 v=47
98028 Off ch=10 n=82 v=47
98028 Off ch=10 n=42 v=74
98064 On ch=10 n=45 v=97
98070 Off ch=2 n=37 v=127
98076 Off ch=10 n=45 v=97
98112 On ch=2 n=35 v=127
98112 On ch=10 n=39 v=110
98112 On ch=10 n=40 v=113
98112 On ch=10 n=42 v=46
98112 On ch=10 n=43 v=103
98112 On ch=10 n=82 v=62
98124 Off ch=10 n=82 v=62
98124 Off ch=10 n=43 v=103
98124 Off ch=10 n=42 v=46
98124 Off ch=10 n=40 v=113
98124 Off ch=10 n=39 v=110
98160 Off ch=5 n=61 v=127
98164 Off ch=7 n=63 v=70
98165 Off ch=7 n=68 v=70
98177 Off ch=2 n=35 v=127
98205 Off ch=4 n=61 v=127
98208 On ch=2 n=37 v=127
98208 On ch=10 n=42 v=79
98208 On ch=5 n=54 v=121
98208 On ch=10 n=82 v=58
98208 Off ch=3 n=68 v=73
98208 Off ch=3 n=63 v=73
98208 Off ch=3 n=59 v=73
98220 Off ch=10 n=82 v=58
98220 Off ch=10 n=42 v=79
98220 Off ch=5 n=54 v=121
98256 On ch=5 n=54 v=122
98259 Off ch=2 n=37 v=127
98268 Off ch=5 n=54 v=122
98304 On ch=10 n=36 v=105
98304 On ch=10 n=42 v=42
98304 On ch=2 n=42 v=127
98304 On ch=3 n=57 v=73
98304 On ch=7 n=61 v=70
98304 On ch=3 n=61 v=73
98304 On ch=7 n=66 v=70
98304 On ch=3 n=66 v=73
98304 On ch=10 n=82 v=56
98314 On ch=5 n=61 v=127
98316 Off ch=10 n=82 v=56
98316 Off ch=10 n=42 v=42
98316 Off ch=10 n=36 v=105
98345 Off ch=5 n=61 v=127
98352 On ch=5 n=61 v=127
98354 Off ch=2 n=42 v=127
98389 Off ch=5 n=61 v=127
98400 On ch=2 n=37 v=127
98400 On ch=10 n=42 v=69
98400 On ch=10 n=82 v=46
98412 Off ch=10 n=82 v=46
98412 Off ch=10 n=42 v=69
98452 On ch=5 n=59 v=127
98452 Off ch=2 n=37 v=127
98496 On ch=10 n=39 v=110
98496 On ch=10 n=40 v=112
98496 On ch=2 n=40 v=127
98496 On ch=10 n=42 v=54
98496 On ch=10 n=82 v=64
98500 Off ch=5 n=59 v=127
98502 On ch=4 n=66 v=127
98508 Off ch=10 n=82 v=64
98508 Off ch=10 n=42 v=54
98508 Off ch=10 n=40 v=112
98508 Off ch=10 n=39 v=110
98542 Off ch=7 n=61 v=70
98544 Off ch=7 n=66 v=70
98544 Off ch=3 n=66 v=73
98544 Off ch=3 n=57 v=73
98544 Off ch=3 n=61 v=73
98545 On ch=5 n=57 v=102
98551 Off ch=2 n=40 v=127
98559 Off ch=4 n=66 v=127
98565 Off ch=5 n=57 v=102
98584 On ch=4 n=66 v=127
98592 On ch=10 n=42 v=74
98592 On ch=2 n=42 v=127
98592 On ch=3 n=59 v=73
98592 On ch=7 n=63 v=70
98592 On ch=3 n=63 v=73
98592 On ch=7 n=68 v=70
98592 On ch=3 n=68 v=73
98592 On ch=10 n=82 v=53
98593 On ch=5 n=61 v=127
98604 Off ch=10 n=82 v=53
98604 Off ch=10 n=42 v=74
98643 Off ch=2 n=42 v=127
98671 Off ch=4 n=66 v=127
98688 On ch=10 n=36 v=105
98688 On ch=2 n=40 v=127
98688 On ch=10 n=42 v=57
98688 On ch=10 n=82 v=62
98689 On ch=4 n=64 v=125
98700 Off ch=10 n=82 v=62
98700 Off ch=10 n=42 v=57
98700 Off ch=10 n=36 v=105
98744 Off ch=2 n=40 v=127
98784 On ch=2 n=37 v=127
98784 On ch=10 n=42 v=69
98784 On ch=10 n=82 v=60
98785 Off ch=4 n=64 v=125
98791 On ch=4 n=61 v=127
98796 Off ch=10 n=82 v=60
98796 Off ch=10 n=42 v=69
98835 Off ch=2 n=37 v=127
98880 On ch=2 n=35 v=127
98880 On ch=10 n=39 v=110
98880 On ch=10 n=40 v=113
98880 On ch=10 n=42 v=57
98880 On ch=10 n=82 v=68
98885 Off ch=7 n=68 v=70
98890 Off ch=7 n=63 v=70
98892 Off ch=10 n=82 v=68
98892 Off ch=10 n=42 v=57
98892 Off ch=10 n=40 v=113
98892 Off ch=10 n=39 v=110
98941 Off ch=5 n=61 v=127
98941 Off ch=2 n=35 v=127
98962 Off ch=4 n=61 v=127
98976 On ch=2 n=37 v=127
98976 On ch=10 n=42 v=79
98976 On ch=5 n=54 v=120
98976 On ch=10 n=82 v=50
98976 Off ch=3 n=59 v=73
98976 Off ch=3 n=63 v=73
98976 Off ch=3 n=68 v=73
98977 Off ch=5 n=54 v=120
98984 On ch=4 n=61 v=127
98988 Off ch=10 n=82 v=50
98988 Off ch=10 n=42 v=79
99024 On ch=5 n=54 v=121
99025 Off ch=5 n=54 v=121
99030 Off ch=2 n=37 v=127
99057 Off ch=4 n=61 v=127
99072 On ch=10 n=36 v=105
99072 On ch=10 n=42 v=54
99072 On ch=2 n=42 v=127
99072 On ch=3 n=61 v=73
99072 On ch=7 n=64 v=70
99072 On ch=3 n=64 v=73
99072 On ch=7 n=69 v=70
99072 On ch=3 n=69 v=73
99072 On ch=10 n=82 v=68
99080 On ch=5 n=61 v=127
99084 Off ch=10 n=82 v=68
99084 Off ch=10 n=42 v=54
99084 Off ch=10 n=36 v=105
99084 On ch=4 n=66 v=127
99111 Off ch=5 n=61 v=127
99119 Off ch=2 n=42 v=127
99120 On ch=5 n=61 v=127
99137 Off ch=4 n=66 v=127
99150 Off ch=5 n=61 v=127
99168 On ch=2 n=37 v=127
99168 On ch=10 n=42 v=69
99168 On ch=10 n=82 v=58
99177 On ch=4 n=66 v=127
99180 Off ch=10 n=82 v=58
99180 Off ch=10 n=42 v=69
99181 On ch=5 n=50 v=35
99185 Off ch=5 n=50 v=35
99216 Off ch=2 n=37 v=127
99218 On ch=5 n=59 v=127
99257 Off ch=4 n=66 v=127
99264 On ch=10 n=39 v=110
99264 On ch=10 n=40 v=113
99264 On ch=2 n=40 v=127
99264 On ch=10 n=42 v=49
99264 On ch=10 n=82 v=66
99271 Off ch=5 n=59 v=127
99276 Off ch=10 n=82 v=66
99276 Off ch=10 n=42 v=49
99276 Off ch=10 n=40 v=113
99276 Off ch=10 n=39 v=110
99285 Off ch=7 n=64 v=70
99285 Off ch=7 n=69 v=70
99312 Off ch=3 n=61 v=73
99312 Off ch=3 n=64 v=73
99312 Off ch=3 n=69 v=73
99317 On ch=5 n=57 v=127
99317 Off ch=2 n=40 v=127
99347 Off ch=5 n=57 v=127
99357 On ch=4 n=64 v=120
99360 On ch=10 n=42 v=79
99360 On ch=2 n=42 v=127
99360 On ch=3 n=59 v=73
99360 On ch=7 n=63 v=70
99360 On ch=3 n=63 v=73
99360 On ch=7 n=68 v=70
99360 On ch=3 n=68 v=73
99360 On ch=10 n=82 v=60
99361 On ch=5 n=54 v=120
99362 Off ch=5 n=54 v=120
99372 Off ch=10 n=82 v=60
99372 Off ch=10 n=42 v=79
99406 Off ch=2 n=42 v=127
99409 On ch=5 n=54 v=121
99410 Off ch=5 n=54 v=121
99456 On ch=10 n=36 v=105
99456 On ch=2 n=40 v=127
99456 On ch=10 n=42 v=46
99456 On ch=10 n=82 v=56
99465 On ch=5 n=61 v=127
99468 Off ch=10 n=82 v=56
99468 Off ch=10 n=42 v=46
99468 Off ch=10 n=36 v=105
99492 Off ch=5 n=61 v=127
99499 Off ch=7 n=68 v=70
99499 Off ch=7 n=63 v=70
99504 On ch=5 n=61 v=127
99515 Off ch=2 n=40 v=127
99519 Par ch=7 c=10 v=0
99539 Off ch=4 n=64 v=120
99547 On ch=7 n=66 v=126
99547 On ch=7 n=78 v=126
99550 Off ch=5 n=61 v=127
99552 On ch=2 n=37 v=127
99552 On ch=10 n=42 v=74
99552 On ch=4 n=61 v=127
99552 On ch=10 n=82 v=60
99564 Off ch=10 n=82 v=60
99564 Off ch=10 n=42 v=74
99587 Off ch=7 n=66 v=126
99589 Off ch=7 n=78 v=126
99600 On ch=10 n=45 v=97
99606 Off ch=2 n=37 v=127
99611 On ch=5 n=59 v=127
99612 Off ch=10 n=45 v=97
99642 On ch=7 n=66 v=126
99642 On ch=7 n=78 v=126
99645 Off ch=5 n=59 v=127
99648 On ch=2 n=35 v=127
99648 On ch=10 n=39 v=110
99648 On ch=10 n=40 v=113
99648 On ch=10 n=42 v=46
99648 On ch=10 n=43 v=103
99648 On ch=10 n=82 v=64
99660 Off ch=10 n=82 v=64
99660 Off ch=10 n=43 v=103
99660 Off ch=10 n=42 v=46
99660 Off ch=10 n=40 v=113
99660 Off ch=10 n=39 v=110
99682 Off ch=7 n=78 v=126
99685 Off ch=7 n=66 v=126
99702 On ch=5 n=57 v=127
99713 Off ch=2 n=35 v=127
99716 Par ch=7 c=10 v=64
99737 Off ch=5 n=57 v=127
99741 Off ch=4 n=61 v=127
99744 On ch=2 n=37 v=127
99744 On ch=10 n=46 v=99
99744 On ch=10 n=82 v=64
99746 On ch=5 n=54 v=120
99747 Off ch=5 n=54 v=120
99756 Off ch=10 n=82 v=64
99756 Off ch=10 n=46 v=99
99792 Off ch=3 n=68 v=73
99792 Off ch=3 n=63 v=73
99792 Off ch=3 n=59 v=73
99794 On ch=5 n=54 v=121
99795 Off ch=5 n=54 v=121
99795 Off ch=2 n=37 v=127
99840 On ch=10 n=36 v=105
99840 On ch=10 n=42 v=42
99840 On ch=2 n=42 v=127
99840 On ch=3 n=57 v=73
99840 On ch=7 n=61 v=70
99840 On ch=3 n=61 v=73
99840 On ch=7 n=66 v=70
99840 On ch=3 n=66 v=73
99840 On ch=10 n=82 v=66
99847 On ch=5 n=61 v=127
99852 Off ch=10 n=82 v=66
99852 Off ch=10 n=42 v=42
99852 Off ch=10 n=36 v=105
99875 Off ch=5 n=61 v=127
99889 On ch=5 n=61 v=127
99890 Off ch=2 n=42 v=127
99921 Off ch=5 n=61 v=127
99936 On ch=2 n=37 v=127
99936 On ch=10 n=42 v=69
99936 On ch=10 n=82 v=64
99943 On ch=5 n=50 v=71
99948 Off ch=10 n=82 v=64
99948 Off ch=10 n=42 v=69
99949 Off ch=5 n=50 v=71
99988 On ch=5 n=59 v=127
99988 Off ch=2 n=37 v=127
100032 On ch=10 n=39 v=110
100032 On ch=10 n=40 v=112
100032 On ch=2 n=40 v=127
100032 On ch=10 n=42 v=54
100032 On ch=10 n=82 v=62
100038 On ch=4 n=66 v=127
100044 Off ch=10 n=82 v=62
100044 Off ch=10 n=42 v=54
100044 Off ch=10 n=40 v=112
100044 Off ch=10 n=39 v=110
100047 Off ch=5 n=59 v=127
100080 Off ch=7 n=61 v=70
100080 Off ch=7 n=66 v=70
100080 Off ch=3 n=66 v=73
100080 Off ch=3 n=61 v=73
100080 Off ch=3 n=57 v=73
100087 Off ch=2 n=40 v=127
100088 On ch=5 n=57 v=127
100095 Off ch=4 n=66 v=127
100109 Off ch=5 n=57 v=127
100120 On ch=4 n=66 v=127
100128 On ch=10 n=42 v=74
100128 On ch=2 n=42 v=127
100128 On ch=3 n=59 v=73
100128 On ch=7 n=63 v=70
100128 On ch=3 n=63 v=73
100128 On ch=7 n=68 v=70
100128 On ch=3 n=68 v=73
100128 On ch=10 n=82 v=64
100131 On ch=5 n=60 v=127
100139 On ch=5 n=61 v=127
100140 Off ch=10 n=82 v=64
100140 Off ch=10 n=42 v=74
100147 Off ch=5 n=60 v=127
100179 Off ch=2 n=42 v=127
100207 Off ch=4 n=66 v=127
100224 On ch=10 n=36 v=105
100224 On ch=2 n=40 v=127
100224 On ch=10 n=42 v=57
100224 On ch=10 n=82 v=64
100225 On ch=4 n=64 v=125
100236 Off ch=10 n=82 v=64
100236 Off ch=10 n=42 v=57
100236 Off ch=10 n=36 v=105
100280 Off ch=2 n=40 v=127
100320 On ch=2 n=37 v=127
100320 On ch=10 n=42 v=69
100320 On ch=10 n=82 v=68
100321 Off ch=4 n=64 v=125
100327 On ch=4 n=61 v=127
100332 Off ch=10 n=82 v=68
100332 Off ch=10 n=42 v=69
100371 Off ch=2 n=37 v=127
100416 On ch=2 n=35 v=127
100416 On ch=10 n=39 v=110
100416 On ch=10 n=40 v=113
100416 On ch=10 n=42 v=57
100416 On ch=10 n=82 v=62
100428 Off ch=10 n=82 v=62
100428 Off ch=10 n=42 v=57
100428 Off ch=10 n=40 v=113
100428 Off ch=10 n=39 v=110
100450 Off ch=5 n=61 v=127
100477 Off ch=2 n=35 v=127
100498 Off ch=4 n=61 v=127
100512 On ch=2 n=37 v=127
100512 On ch=10 n=42 v=79
100512 On ch=10 n=82 v=64
100512 Off ch=7 n=68 v=70
100512 Off ch=7 n=63 v=70
100512 Off ch=3 n=68 v=73
100512 Off ch=3 n=59 v=73
100512 Off ch=3 n=63 v=73
100520 On ch=5 n=54 v=121
100520 On ch=4 n=61 v=127
100521 Off ch=5 n=54 v=121
100524 Off ch=10 n=82 v=64
100524 Off ch=10 n=42 v=79
100566 Off ch=2 n=37 v=127
100568 On ch=5 n=54 v=120
100569 Off ch=5 n=54 v=120
100593 Off ch=4 n=61 v=127
100608 On ch=10 n=36 v=105
100608 On ch=10 n=42 v=54
100608 On ch=2 n=42 v=127
100608 On ch=3 n=61 v=73
100608 On ch=7 n=64 v=70
100608 On ch=3 n=64 v=73
100608 On ch=7 n=69 v=70
100608 On ch=3 n=69 v=73
100608 On ch=10 n=82 v=62
100615 On ch=5 n=61 v=127
100620 Off ch=10 n=82 v=62
100620 Off ch=10 n=42 v=54
100620 Off ch=10 n=36 v=105
100620 On ch=4 n=66 v=127
100643 Off ch=5 n=61 v=127
100655 Off ch=2 n=42 v=127
100657 On ch=5 n=61 v=127
100673 Off ch=4 n=66 v=127
100689 Off ch=5 n=61 v=127
100704 On ch=2 n=37 v=127
100704 On ch=10 n=42 v=69
100704 On ch=10 n=82 v=55
100711 On ch=5 n=50 v=71
100713 On ch=4 n=66 v=127
100716 Off ch=10 n=82 v=55
100716 Off ch=10 n=42 v=69
100717 Off ch=5 n=50 v=71
100752 Off ch=2 n=37 v=127
100756 On ch=5 n=59 v=127
100793 Off ch=4 n=66 v=127
100800 On ch=10 n=39 v=110
100800 On ch=10 n=40 v=113
100800 On ch=2 n=40 v=127
100800 On ch=10 n=42 v=49
100800 On ch=10 n=82 v=55
100812 Off ch=10 n=82 v=55
100812 Off ch=10 n=42 v=49
100812 Off ch=10 n=40 v=113
100812 Off ch=10 n=39 v=110
100815 Off ch=5 n=59 v=127
100846 Off ch=7 n=69 v=70
100848 Off ch=7 n=64 v=70
100848 Off ch=3 n=61 v=73
100848 Off ch=3 n=64 v=73
100848 Off ch=3 n=69 v=73
100853 Off ch=2 n=40 v=127
100856 On ch=5 n=57 v=127
100877 Off ch=5 n=57 v=127
100893 On ch=4 n=64 v=120
100896 On ch=10 n=42 v=79
100896 On ch=2 n=42 v=127
100896 On ch=3 n=59 v=73
100896 On ch=7 n=63 v=70
100896 On ch=3 n=63 v=73
100896 On ch=7 n=68 v=70
100896 On ch=3 n=68 v=73
100896 On ch=10 n=82 v=51
100899 On ch=5 n=60 v=127
100907 On ch=5 n=61 v=127
100908 Off ch=10 n=82 v=51
100908 Off ch=10 n=42 v=79
100915 Off ch=5 n=60 v=127
100942 Off ch=2 n=42 v=127
100992 On ch=10 n=36 v=105
100992 On ch=2 n=40 v=127
100992 On ch=10 n=42 v=46
100992 On ch=10 n=82 v=58
101004 Off ch=10 n=82 v=58
101004 Off ch=10 n=42 v=46
101004 Off ch=10 n=36 v=105
101051 Off ch=2 n=40 v=127
101075 Off ch=4 n=64 v=120
101088 On ch=2 n=37 v=127
101088 On ch=10 n=42 v=74
101088 On ch=4 n=61 v=127
101088 On ch=10 n=82 v=47
101100 Off ch=10 n=82 v=47
101100 Off ch=10 n=42 v=74
101142 Off ch=2 n=37 v=127
101184 On ch=2 n=35 v=127
101184 On ch=10 n=39 v=110
101184 On ch=10 n=40 v=113
101184 On ch=10 n=42 v=46
101184 On ch=10 n=82 v=62
101196 Off ch=10 n=82 v=62
101196 Off ch=10 n=42 v=46
101196 Off ch=10 n=40 v=113
101196 Off ch=10 n=39 v=110
101218 Off ch=5 n=61 v=127
101236 Off ch=7 n=63 v=70
101237 Off ch=7 n=68 v=70
101249 Off ch=2 n=35 v=127
101277 Off ch=4 n=61 v=127
101280 On ch=2 n=37 v=127
101280 On ch=10 n=42 v=79
101280 On ch=10 n=82 v=58
101280 Off ch=3 n=68 v=73
101280 Off ch=3 n=63 v=73
101280 Off ch=3 n=59 v=73
101288 On ch=5 n=54 v=121
101289 Off ch=5 n=54 v=121
101292 Off ch=10 n=82 v=58
101292 Off ch=10 n=42 v=79
101331 Off ch=2 n=37 v=127
101336 On ch=5 n=54 v=120
101337 Off ch=5 n=54 v=120
101376 On ch=10 n=36 v=105
101376 On ch=10 n=42 v=42
101376 On ch=2 n=42 v=127
101376 On ch=3 n=57 v=73
101376 On ch=7 n=61 v=70
101376 On ch=3 n=61 v=73
101376 On ch=7 n=66 v=70
101376 On ch=3 n=66 v=73
101376 On ch=10 n=82 v=56
101385 On ch=5 n=61 v=127
101388 Off ch=10 n=82 v=56
101388 Off ch=10 n=42 v=42
101388 Off ch=10 n=36 v=105
101413 Off ch=5 n=61 v=127
101425 On ch=5 n=61 v=127
101426 Off ch=2 n=42 v=127
101471 Off ch=5 n=61 v=127
101472 On ch=2 n=37 v=127
101472 On ch=10 n=42 v=69
101472 On ch=10 n=82 v=46
101484 Off ch=10 n=82 v=46
101484 Off ch=10 n=42 v=69
101497 On ch=5 n=59 v=32
101508 Off ch=5 n=59 v=32
101521 On ch=5 n=59 v=127
101524 Off ch=2 n=37 v=127
101568 On ch=10 n=39 v=110
101568 On ch=10 n=40 v=112
101568 On ch=2 n=40 v=127
101568 On ch=10 n=42 v=54
101568 On ch=10 n=82 v=64
101574 On ch=4 n=66 v=127
101580 Off ch=10 n=82 v=64
101580 Off ch=10 n=42 v=54
101580 Off ch=10 n=40 v=112
101580 Off ch=10 n=39 v=110
101580 Off ch=5 n=59 v=127
101614 Off ch=7 n=61 v=70
101616 On ch=5 n=57 v=127
101616 Off ch=7 n=66 v=70
101616 Off ch=3 n=66 v=73
101616 Off ch=3 n=57 v=73
101616 Off ch=3 n=61 v=73
101623 Off ch=2 n=40 v=127
101631 Off ch=4 n=66 v=127
101636 Off ch=5 n=57 v=127
101656 On ch=4 n=66 v=127
101664 On ch=10 n=42 v=74
101664 On ch=2 n=42 v=127
101664 On ch=3 n=59 v=73
101664 On ch=7 n=63 v=70
101664 On ch=3 n=63 v=73
101664 On ch=7 n=68 v=70
101664 On ch=3 n=68 v=73
101664 On ch=10 n=82 v=53
101669 On ch=5 n=60 v=108
101676 Off ch=10 n=82 v=53
101676 Off ch=10 n=42 v=74
101676 On ch=5 n=61 v=127
101687 Off ch=5 n=60 v=108
101715 Off ch=2 n=42 v=127
101743 Off ch=4 n=66 v=127
101760 On ch=10 n=36 v=105
101760 On ch=2 n=40 v=127
101760 On ch=10 n=42 v=57
101760 On ch=10 n=82 v=62
101761 On ch=4 n=64 v=125
101772 Off ch=10 n=82 v=62
101772 Off ch=10 n=42 v=57
101772 Off ch=10 n=36 v=105
101816 Off ch=2 n=40 v=127
101856 On ch=2 n=37 v=127
101856 On ch=10 n=42 v=69
101856 On ch=10 n=82 v=60
101857 Off ch=4 n=64 v=125
101863 On ch=4 n=61 v=127
101868 Off ch=10 n=82 v=60
101868 Off ch=10 n=42 v=69
101907 Off ch=2 n=37 v=127
101952 On ch=2 n=35 v=127
101952 On ch=10 n=39 v=110
101952 On ch=10 n=40 v=113
101952 On ch=10 n=42 v=57
101952 On ch=10 n=82 v=68
101957 Off ch=7 n=68 v=70
101962 Off ch=7 n=63 v=70
101964 Off ch=10 n=82 v=68
101964 Off ch=10 n=42 v=57
101964 Off ch=10 n=40 v=113
101964 Off ch=10 n=39 v=110
102008 Off ch=5 n=61 v=127
102013 Off ch=2 n=35 v=127
102034 Off ch=4 n=61 v=127
102048 On ch=2 n=37 v=127
102048 On ch=10 n=42 v=79
102048 On ch=10 n=82 v=50
102048 Off ch=3 n=59 v=73
102048 Off ch=3 n=63 v=73
102048 Off ch=3 n=68 v=73
102050 On ch=5 n=54 v=120
102051 Off ch=5 n=54 v=120
102056 On ch=4 n=61 v=127
102060 Off ch=10 n=82 v=50
102060 Off ch=10 n=42 v=79
102099 On ch=5 n=54 v=121
102100 Off ch=5 n=54 v=121
102102 Off ch=2 n=37 v=127
102129 Off ch=4 n=61 v=127
102144 On ch=10 n=36 v=105
102144 On ch=10 n=42 v=54
102144 On ch=2 n=42 v=127
102144 On ch=3 n=61 v=73
102144 On ch=7 n=64 v=70
102144 On ch=3 n=64 v=73
102144 On ch=7 n=69 v=70
102144 On ch=3 n=69 v=73
102144 On ch=10 n=82 v=68
102153 On ch=5 n=61 v=127
102156 Off ch=10 n=82 v=68
102156 Off ch=10 n=42 v=54
102156 Off ch=10 n=36 v=105
102156 On ch=4 n=66 v=127
102184 Off ch=5 n=61 v=127
102191 Off ch=2 n=42 v=127
102196 On ch=5 n=61 v=127
102209 Off ch=4 n=66 v=127
102226 Off ch=5 n=61 v=127
102240 On ch=2 n=37 v=127
102240 On ch=10 n=42 v=69
102240 On ch=10 n=82 v=58
102243 On ch=5 n=49 v=78
102247 Off ch=5 n=49 v=78
102249 On ch=4 n=66 v=127
102252 Off ch=10 n=82 v=58
102252 Off ch=10 n=42 v=69
102288 Off ch=2 n=37 v=127
102294 On ch=5 n=59 v=127
102329 Off ch=4 n=66 v=127
102331 Off ch=5 n=59 v=127
102336 On ch=10 n=39 v=110
102336 On ch=10 n=40 v=113
102336 On ch=2 n=40 v=127
102336 On ch=10 n=42 v=49
102336 On ch=10 n=82 v=66
102348 Off ch=10 n=82 v=66
102348 Off ch=10 n=42 v=49
102348 Off ch=10 n=40 v=113
102348 Off ch=10 n=39 v=110
102357 Off ch=7 n=64 v=70
102357 Off ch=7 n=69 v=70
102384 Off ch=3 n=61 v=73
102384 Off ch=3 n=64 v=73
102384 Off ch=3 n=69 v=73
102386 On ch=5 n=57 v=127
102389 Off ch=2 n=40 v=127
102416 Off ch=5 n=57 v=127
102429 On ch=4 n=64 v=120
102432 On ch=10 n=42 v=79
102432 On ch=2 n=42 v=127
102432 On ch=3 n=59 v=73
102432 On ch=7 n=63 v=70
102432 On ch=3 n=63 v=73
102432 On ch=7 n=68 v=70
102432 On ch=3 n=68 v=73
102432 On ch=10 n=82 v=60
102436 On ch=5 n=54 v=121
102444 Off ch=10 n=82 v=60
102444 Off ch=10 n=42 v=79
102448 Off ch=5 n=54 v=121
102478 Off ch=2 n=42 v=127
102482 On ch=5 n=54 v=120
102492 Off ch=5 n=54 v=120
102528 On ch=10 n=36 v=105
102528 On ch=2 n=40 v=127
102528 On ch=10 n=42 v=46
102528 On ch=10 n=82 v=56
102532 On ch=5 n=61 v=127
102540 Off ch=10 n=82 v=56
102540 Off ch=10 n=42 v=46
102540 Off ch=10 n=36 v=105
102559 Off ch=5 n=61 v=127
102571 Off ch=7 n=68 v=70
102571 Off ch=7 n=63 v=70
102576 On ch=5 n=61 v=127
102587 Off ch=2 n=40 v=127
102591 Par ch=7 c=10 v=0
102611 Off ch=4 n=64 v=120
102619 On ch=7 n=66 v=126
102619 On ch=7 n=78 v=126
102622 Off ch=5 n=61 v=127
102624 On ch=2 n=37 v=127
102624 On ch=10 n=42 v=74
102624 On ch=4 n=61 v=127
102624 On ch=10 n=82 v=60
102636 Off ch=10 n=82 v=60
102636 Off ch=10 n=42 v=74
102659 Off ch=7 n=66 v=126
102661 Off ch=7 n=78 v=126
102678 Off ch=2 n=37 v=127
102687 On ch=5 n=59 v=127
102714 On ch=7 n=66 v=126
102714 On ch=7 n=78 v=126
102720 On ch=2 n=35 v=127
102720 On ch=10 n=39 v=110
102720 On ch=10 n=40 v=113
102720 On ch=10 n=42 v=46
102720 On ch=10 n=82 v=64
102722 Off ch=5 n=59 v=127
102732 Off ch=10 n=82 v=64
102732 Off ch=10 n=42 v=46
102732 Off ch=10 n=40 v=113
102732 Off ch=10 n=39 v=110
102754 Off ch=7 n=78 v=126
102757 Off ch=7 n=66 v=126
102772 On ch=5 n=57 v=127
102785 Off ch=2 n=35 v=127
102788 Par ch=7 c=10 v=64
102806 Off ch=5 n=57 v=127
102813 Off ch=4 n=61 v=127
102816 On ch=2 n=37 v=127
102816 On ch=10 n=42 v=79
102816 On ch=10 n=82 v=64
102822 On ch=5 n=54 v=120
102823 Off ch=5 n=54 v=120
102828 Off ch=10 n=82 v=64
102828 Off ch=10 n=42 v=79
102864 Off ch=3 n=68 v=73
102864 Off ch=3 n=63 v=73
102864 Off ch=3 n=59 v=73
102867 On ch=5 n=54 v=120
102867 Off ch=2 n=37 v=127
102868 Off ch=5 n=54 v=120
102912 On ch=10 n=36 v=105
102912 On ch=10 n=42 v=42
102912 On ch=10 n=82 v=66
102912 Par ch=10 c=11 v=127
102912 On ch=7 n=61 v=57
102912 On ch=7 n=66 v=57
102912 Par ch=4 c=11 v=127
102912 On ch=2 n=42 v=127
102912 On ch=3 n=57 v=73
102912 On ch=3 n=61 v=73
102912 On ch=3 n=66 v=73
102920 Par ch=7 c=11 v=127
102920 Par ch=5 c=11 v=127
102920 On ch=5 n=61 v=127
102924 Off ch=10 n=82 v=66
102924 Off ch=10 n=42 v=42
102924 Off ch=10 n=36 v=105
102928 Par ch=3 c=11 v=127
102928 Par ch=2 c=11 v=127
102948 Off ch=5 n=61 v=127
102960 Par ch=10 c=11 v=126
102960 Par ch=4 c=11 v=126
102961 On ch=5 n=61 v=127
102962 Off ch=2 n=42 v=127
102968 Par ch=7 c=11 v=126
102968 Par ch=5 c=11 v=126
102976 Par ch=3 c=11 v=126
102976 Par ch=2 c=11 v=126
103000 Par ch=10 c=11 v=125
103000 Par ch=4 c=11 v=125
103007 Off ch=5 n=61 v=127
103008 On ch=10 n=42 v=69
103008 On ch=10 n=82 v=64
103008 Par ch=7 c=11 v=125
103008 Par ch=5 c=11 v=125
103008 On ch=2 n=37 v=127
103016 Par ch=3 c=11 v=125
103016 Par ch=2 c=11 v=125
103020 Off ch=10 n=82 v=64
103020 Off ch=10 n=42 v=69
103033 On ch=5 n=59 v=32
103040 Par ch=10 c=11 v=124
103040 Par ch=4 c=11 v=124
103044 Off ch=5 n=59 v=32
103048 Par ch=7 c=11 v=124
103048 Par ch=5 c=11 v=124
103056 Par ch=3 c=11 v=124
103056 Par ch=2 c=11 v=124
103057 On ch=5 n=59 v=127
103060 Off ch=2 n=37 v=127
103088 Par ch=10 c=11 v=123
103088 Par ch=4 c=11 v=123
103096 Par ch=7 c=11 v=123
103096 Par ch=5 c=11 v=123
103096 Par ch=2 c=11 v=123
103104 On ch=10 n=39 v=110
103104 On ch=10 n=40 v=112
103104 On ch=10 n=42 v=54
103104 On ch=10 n=82 v=62
103104 Par ch=3 c=11 v=123
103104 On ch=2 n=40 v=127
103109 Off ch=5 n=59 v=127
103110 On ch=4 n=66 v=127
103116 Off ch=10 n=82 v=62
103116 Off ch=10 n=42 v=54
103116 Off ch=10 n=40 v=112
103116 Off ch=10 n=39 v=110
103128 Par ch=10 c=11 v=122
103128 Par ch=4 c=11 v=122
103136 Par ch=7 c=11 v=122
103136 Par ch=5 c=11 v=122
103144 Par ch=3 c=11 v=122
103144 Par ch=2 c=11 v=122
103152 On ch=5 n=57 v=127
103152 Off ch=7 n=61 v=57
103152 Off ch=7 n=66 v=57
103152 Off ch=3 n=66 v=73
103152 Off ch=3 n=61 v=73
103152 Off ch=3 n=57 v=73
103159 Off ch=2 n=40 v=127
103167 Off ch=4 n=66 v=127
103168 Par ch=10 c=11 v=121
103168 Par ch=4 c=11 v=121
103172 Off ch=5 n=57 v=127
103176 Par ch=7 c=11 v=121
103176 Par ch=5 c=11 v=121
103184 Par ch=3 c=11 v=121
103184 Par ch=2 c=11 v=121
103192 On ch=4 n=66 v=127
103200 On ch=10 n=42 v=74
103200 On ch=2 n=42 v=127
103200 On ch=3 n=59 v=73
103200 On ch=7 n=63 v=57
103200 On ch=3 n=63 v=73
103200 On ch=7 n=68 v=57
103200 On ch=3 n=68 v=73
103200 On ch=10 n=82 v=64
103205 On ch=5 n=60 v=127
103208 Par ch=10 c=11 v=120
103208 Par ch=4 c=11 v=120
103212 Off ch=10 n=82 v=64
103212 Off ch=10 n=42 v=74
103213 On ch=5 n=61 v=127
103216 Par ch=7 c=11 v=120
103216 Par ch=5 c=11 v=120
103224 Par ch=3 c=11 v=120
103224 Par ch=2 c=11 v=120
103227 Off ch=5 n=60 v=127
103251 Off ch=2 n=42 v=127
103256 Par ch=10 c=11 v=119
103256 Par ch=4 c=11 v=119
103264 Par ch=7 c=11 v=119
103264 Par ch=5 c=11 v=119
103264 Par ch=2 c=11 v=119
103272 Par ch=3 c=11 v=119
103279 Off ch=4 n=66 v=127
103296 On ch=10 n=36 v=105
103296 On ch=10 n=42 v=57
103296 On ch=10 n=82 v=64
103296 Par ch=10 c=11 v=118
103296 Par ch=4 c=11 v=118
103296 On ch=2 n=40 v=127
103297 On ch=4 n=64 v=125
103304 Par ch=7 c=11 v=118
103304 Par ch=5 c=11 v=118
103308 Off ch=10 n=82 v=64
103308 Off ch=10 n=42 v=57
103308 Off ch=10 n=36 v=105
103312 Par ch=3 c=11 v=118
103312 Par ch=2 c=11 v=118
103336 Par ch=10 c=11 v=117
103336 Par ch=4 c=11 v=117
103344 Par ch=7 c=11 v=117
103344 Par ch=5 c=11 v=117
103352 Par ch=3 c=11 v=117
103352 Off ch=2 n=40 v=127
103352 Par ch=2 c=11 v=117
103376 Par ch=10 c=11 v=116
103376 Par ch=4 c=11 v=116
103384 Par ch=7 c=11 v=116
103384 Par ch=5 c=11 v=116
103392 On ch=10 n=42 v=69
103392 On ch=10 n=82 v=68
103392 Par ch=3 c=11 v=116
103392 Par ch=2 c=11 v=116
103392 On ch=2 n=37 v=127
103393 Off ch=4 n=64 v=125
103399 On ch=4 n=61 v=127
103404 Off ch=10 n=82 v=68
103404 Off ch=10 n=42 v=69
103424 Par ch=10 c=11 v=115
103424 Par ch=4 c=11 v=115
103432 Par ch=7 c=11 v=115
103432 Par ch=5 c=11 v=115
103432 Par ch=2 c=11 v=115
103440 Par ch=3 c=11 v=115
103443 Off ch=2 n=37 v=127
103464 Par ch=10 c=11 v=114
103464 Par ch=4 c=11 v=114
103472 Par ch=7 c=11 v=114
103472 Par ch=5 c=11 v=114
103480 Par ch=3 c=11 v=114
103480 Par ch=2 c=11 v=114
103488 On ch=2 n=35 v=127
103488 On ch=10 n=39 v=110
103488 On ch=10 n=40 v=113
103488 On ch=10 n=42 v=57
103488 On ch=10 n=82 v=62
103500 Off ch=10 n=82 v=62
103500 Off ch=10 n=42 v=57
103500 Off ch=10 n=40 v=113
103500 Off ch=10 n=39 v=110
103504 Par ch=10 c=11 v=113
103504 Par ch=4 c=11 v=113
103512 Par ch=7 c=11 v=113
103512 Par ch=5 c=11 v=113
103520 Par ch=3 c=11 v=113
103520 Par ch=2 c=11 v=113
103544 Par ch=10 c=11 v=112
103544 Par ch=4 c=11 v=112
103549 Off ch=2 n=35 v=127
103552 Par ch=7 c=11 v=112
103552 Par ch=5 c=11 v=112
103553 Off ch=5 n=61 v=127
103560 Par ch=3 c=11 v=112
103560 Par ch=2 c=11 v=112
103570 Off ch=4 n=61 v=127
103584 On ch=2 n=37 v=127
103584 On ch=10 n=42 v=79
103584 On ch=10 n=82 v=64
103584 Off ch=7 n=68 v=57
103584 Off ch=7 n=63 v=57
103584 Off ch=3 n=68 v=73
103584 Off ch=3 n=59 v=73
103584 Off ch=3 n=63 v=73
103588 On ch=5 n=54 v=120
103589 Off ch=5 n=54 v=120
103592 Par ch=10 c=11 v=111
103592 Par ch=4 c=11 v=111
103592 On ch=4 n=61 v=127
103596 Off ch=10 n=82 v=64
103596 Off ch=10 n=42 v=79
103600 Par ch=7 c=11 v=111
103600 Par ch=5 c=11 v=111
103600 Par ch=2 c=11 v=111
103608 Par ch=3 c=11 v=111
103632 Par ch=10 c=11 v=110
103632 Par ch=4 c=11 v=110
103634 On ch=5 n=54 v=121
103635 Off ch=5 n=54 v=121
103638 Off ch=2 n=37 v=127
103640 Par ch=7 c=11 v=110
103640 Par ch=5 c=11 v=110
103648 Par ch=3 c=11 v=110
103648 Par ch=2 c=11 v=110
103665 Off ch=4 n=61 v=127
103672 Par ch=10 c=11 v=109
103672 Par ch=4 c=11 v=109
103680 On ch=10 n=36 v=105
103680 On ch=10 n=42 v=54
103680 On ch=10 n=82 v=62
103680 Par ch=7 c=11 v=109
103680 On ch=7 n=64 v=57
103680 On ch=7 n=69 v=57
103680 Par ch=5 c=11 v=109
103680 On ch=2 n=42 v=127
103680 On ch=3 n=61 v=73
103680 On ch=3 n=64 v=73
103680 On ch=3 n=69 v=73
103687 On ch=5 n=61 v=127
103688 Par ch=3 c=11 v=109
103688 Par ch=2 c=11 v=109
103692 Off ch=10 n=82 v=62
103692 Off ch=10 n=42 v=54
103692 Off ch=10 n=36 v=105
103692 On ch=4 n=66 v=127
103712 Par ch=10 c=11 v=108
103712 Par ch=4 c=11 v=108
103715 Off ch=5 n=61 v=127
103720 Par ch=7 c=11 v=108
103720 Par ch=5 c=11 v=108
103727 Off ch=2 n=42 v=127
103728 Par ch=3 c=11 v=108
103728 Par ch=2 c=11 v=108
103729 On ch=5 n=61 v=127
103745 Off ch=4 n=66 v=127
103760 Par ch=10 c=11 v=107
103760 Par ch=4 c=11 v=107
103761 Off ch=5 n=61 v=127
103768 Par ch=7 c=11 v=107
103768 Par ch=5 c=11 v=107
103768 Par ch=2 c=11 v=107
103776 On ch=10 n=42 v=69
103776 On ch=10 n=82 v=55
103776 Par ch=3 c=11 v=107
103776 On ch=2 n=37 v=127
103783 On ch=5 n=50 v=71
103785 On ch=4 n=66 v=127
103788 Off ch=10 n=82 v=55
103788 Off ch=10 n=42 v=69
103789 Off ch=5 n=50 v=71
103800 Par ch=10 c=11 v=106
103800 Par ch=4 c=11 v=106
103808 Par ch=7 c=11 v=106
103808 Par ch=5 c=11 v=106
103816 Par ch=3 c=11 v=106
103816 Par ch=2 c=11 v=106
103824 Off ch=2 n=37 v=127
103828 On ch=5 n=59 v=127
103840 Par ch=10 c=11 v=105
103840 Par ch=4 c=11 v=105
103848 Par ch=7 c=11 v=105
103848 Par ch=5 c=11 v=105
103856 Par ch=3 c=11 v=105
103856 Par ch=2 c=11 v=105
103865 Off ch=4 n=66 v=127
103872 On ch=10 n=39 v=110
103872 On ch=10 n=40 v=113
103872 On ch=2 n=40 v=127
103872 On ch=10 n=42 v=49
103872 On ch=10 n=82 v=55
103880 Par ch=10 c=11 v=104
103880 Par ch=4 c=11 v=104
103884 Off ch=10 n=82 v=55
103884 Off ch=10 n=42 v=49
103884 Off ch=10 n=40 v=113
103884 Off ch=10 n=39 v=110
103887 Off ch=5 n=59 v=127
103888 Par ch=7 c=11 v=104
103888 Par ch=5 c=11 v=104
103896 Par ch=3 c=11 v=104
103896 Par ch=2 c=11 v=104
103918 Off ch=7 n=69 v=57
103920 Off ch=7 n=64 v=57
103920 Off ch=3 n=61 v=73
103920 Off ch=3 n=64 v=73
103920 Off ch=3 n=69 v=73
103925 Off ch=2 n=40 v=127
103928 Par ch=10 c=11 v=103
103928 On ch=5 n=57 v=127
103928 Par ch=4 c=11 v=103
103936 Par ch=7 c=11 v=103
103936 Par ch=5 c=11 v=103
103936 Par ch=2 c=11 v=103
103944 Par ch=3 c=11 v=103
103949 Off ch=5 n=57 v=127
103965 On ch=4 n=64 v=120
103968 On ch=10 n=42 v=79
103968 On ch=10 n=82 v=51
103968 Par ch=10 c=11 v=102
103968 On ch=7 n=63 v=57
103968 On ch=7 n=68 v=57
103968 Par ch=4 c=11 v=102
103968 On ch=2 n=42 v=127
103968 On ch=3 n=59 v=73
103968 On ch=3 n=63 v=73
103968 On ch=3 n=68 v=73
103971 On ch=5 n=60 v=127
103976 Par ch=7 c=11 v=102
103976 Par ch=5 c=11 v=102
103979 On ch=5 n=61 v=127
103980 Off ch=10 n=82 v=51
103980 Off ch=10 n=42 v=79
103984 Par ch=3 c=11 v=102
103984 Par ch=2 c=11 v=102
103987 Off ch=5 n=60 v=127
104008 Par ch=10 c=11 v=101
104008 Par ch=4 c=11 v=101
104014 Off ch=2 n=42 v=127
104016 Par ch=7 c=11 v=101
104016 Par ch=5 c=11 v=101
104024 Par ch=3 c=11 v=101
104024 Par ch=2 c=11 v=101
104048 Par ch=10 c=11 v=100
104048 Par ch=4 c=11 v=100
104056 Par ch=7 c=11 v=100
104056 Par ch=5 c=11 v=100
104064 On ch=10 n=36 v=105
104064 On ch=10 n=42 v=46
104064 On ch=10 n=82 v=58
104064 Par ch=3 c=11 v=100
104064 Par ch=2 c=11 v=100
104064 On ch=2 n=40 v=127
104076 Off ch=10 n=82 v=58
104076 Off ch=10 n=42 v=46
104076 Off ch=10 n=36 v=105
104096 Par ch=10 c=11 v=99
104096 Par ch=4 c=11 v=99
104104 Par ch=7 c=11 v=99
104104 Par ch=5 c=11 v=99
104104 Par ch=2 c=11 v=99
104112 Par ch=3 c=11 v=99
104123 Off ch=2 n=40 v=127
104136 Par ch=10 c=11 v=98
104136 Par ch=4 c=11 v=98
104144 Par ch=7 c=11 v=98
104144 Par ch=5 c=11 v=98
104147 Off ch=4 n=64 v=120
104152 Par ch=3 c=11 v=98
104152 Par ch=2 c=11 v=98
104160 On ch=2 n=37 v=127
104160 On ch=10 n=42 v=74
104160 On ch=4 n=61 v=127
104160 On ch=10 n=82 v=47
104172 Off ch=10 n=82 v=47
104172 Off ch=10 n=42 v=74
104176 Par ch=10 c=11 v=97
104176 Par ch=4 c=11 v=97
104184 Par ch=7 c=11 v=97
104184 Par ch=5 c=11 v=97
104192 Par ch=3 c=11 v=97
104192 Par ch=2 c=11 v=97
104208 On ch=10 n=45 v=97
104214 Off ch=2 n=37 v=127
104216 Par ch=10 c=11 v=96
104216 Par ch=4 c=11 v=96
104220 Off ch=10 n=45 v=97
104224 Par ch=7 c=11 v=96
104224 Par ch=5 c=11 v=96
104232 Par ch=3 c=11 v=96
104232 Par ch=2 c=11 v=96
104256 On ch=2 n=35 v=127
104256 On ch=10 n=39 v=110
104256 On ch=10 n=40 v=113
104256 On ch=10 n=42 v=46
104256 On ch=10 n=43 v=103
104256 On ch=10 n=82 v=62
104264 Par ch=10 c=11 v=95
104264 Par ch=4 c=11 v=95
104268 Off ch=10 n=82 v=62
104268 Off ch=10 n=43 v=103
104268 Off ch=10 n=42 v=46
104268 Off ch=10 n=40 v=113
104268 Off ch=10 n=39 v=110
104272 Par ch=7 c=11 v=95
104272 Par ch=5 c=11 v=95
104272 Par ch=2 c=11 v=95
104280 Par ch=3 c=11 v=95
104290 Off ch=5 n=61 v=127
104304 Par ch=10 c=11 v=94
104304 Par ch=4 c=11 v=94
104308 Off ch=7 n=63 v=57
104309 Off ch=7 n=68 v=57
104312 Par ch=7 c=11 v=94
104312 Par ch=5 c=11 v=94
104312 Par ch=2 c=11 v=94
104320 Par ch=3 c=11 v=94
104321 Off ch=2 n=35 v=127
104344 Par ch=10 c=11 v=93
104344 Par ch=4 c=11 v=93
104349 Off ch=4 n=61 v=127
104352 On ch=10 n=46 v=99
104352 On ch=10 n=82 v=58
104352 Par ch=7 c=11 v=93
104352 Par ch=5 c=11 v=93
104352 On ch=2 n=37 v=127
104352 Off ch=3 n=68 v=73
104352 Off ch=3 n=63 v=73
104352 Off ch=3 n=59 v=73
104360 On ch=5 n=54 v=121
104360 Par ch=3 c=11 v=93
104360 Par ch=2 c=11 v=93
104361 Off ch=5 n=54 v=121
104364 Off ch=10 n=82 v=58
104364 Off ch=10 n=46 v=99
104392 Par ch=10 c=11 v=92
104392 Par ch=7 c=11 v=92
104392 Par ch=5 c=11 v=92
104392 Par ch=4 c=11 v=92
104400 Par ch=3 c=11 v=92
104400 Par ch=2 c=11 v=92
104403 Off ch=2 n=37 v=127
104408 On ch=5 n=54 v=120
104409 Off ch=5 n=54 v=120
104432 Par ch=10 c=11 v=91
104432 Par ch=4 c=11 v=91
104440 Par ch=7 c=11 v=91
104440 Par ch=5 c=11 v=91
104440 Par ch=2 c=11 v=91
104448 On ch=10 n=36 v=105
104448 On ch=10 n=42 v=42
104448 On ch=7 n=61 v=57
104448 On ch=7 n=66 v=57
104448 On ch=10 n=82 v=56
104448 Par ch=3 c=11 v=91
104448 On ch=2 n=42 v=127
104448 On ch=3 n=57 v=73
104448 On ch=3 n=61 v=73
104448 On ch=3 n=66 v=73
104455 On ch=5 n=61 v=127
104460 Off ch=10 n=82 v=56
104460 Off ch=10 n=42 v=42
104460 Off ch=10 n=36 v=105
104472 Par ch=10 c=11 v=90
104472 Par ch=4 c=11 v=90
104480 Par ch=7 c=11 v=90
104480 Par ch=5 c=11 v=90
104480 Par ch=2 c=11 v=90
104483 Off ch=5 n=61 v=127
104488 Par ch=3 c=11 v=90
104497 On ch=5 n=61 v=127
104498 Off ch=2 n=42 v=127
104512 Par ch=10 c=11 v=89
104512 Par ch=4 c=11 v=89
104520 Par ch=7 c=11 v=89
104520 Par ch=5 c=11 v=89
104528 Par ch=3 c=11 v=89
104528 Par ch=2 c=11 v=89
104529 Off ch=5 n=61 v=127
104544 On ch=2 n=37 v=127
104544 On ch=10 n=42 v=69
104544 On ch=10 n=82 v=46
104551 On ch=5 n=50 v=71
104556 Off ch=10 n=82 v=46
104556 Off ch=10 n=42 v=69
104557 Off ch=5 n=50 v=71
104560 Par ch=10 c=11 v=88
104560 Par ch=7 c=11 v=88
104560 Par ch=5 c=11 v=88
104560 Par ch=4 c=11 v=88
104568 Par ch=3 c=11 v=88
104568 Par ch=2 c=11 v=88
104596 On ch=5 n=59 v=127
104596 Off ch=2 n=37 v=127
104600 Par ch=10 c=11 v=87
104600 Par ch=4 c=11 v=87
104608 Par ch=7 c=11 v=87
104608 Par ch=5 c=11 v=87
104608 Par ch=2 c=11 v=87
104616 Par ch=3 c=11 v=87
104640 On ch=10 n=39 v=110
104640 On ch=10 n=40 v=112
104640 On ch=10 n=42 v=54
104640 On ch=10 n=82 v=64
104640 Par ch=10 c=11 v=86
104640 Par ch=4 c=11 v=86
104640 On ch=2 n=40 v=127
104646 On ch=4 n=66 v=127
104648 Par ch=7 c=11 v=86
104648 Par ch=5 c=11 v=86
104648 Par ch=2 c=11 v=86
104652 Off ch=10 n=82 v=64
104652 Off ch=10 n=42 v=54
104652 Off ch=10 n=40 v=112
104652 Off ch=10 n=39 v=110
104655 Off ch=5 n=59 v=127
104656 Par ch=3 c=11 v=86
104680 Par ch=10 c=11 v=85
104680 Par ch=4 c=11 v=85
104686 Off ch=7 n=61 v=57
104688 Off ch=7 n=66 v=57
104688 Par ch=7 c=11 v=85
104688 Par ch=5 c=11 v=85
104688 Off ch=3 n=66 v=73
104688 Off ch=3 n=57 v=73
104688 Off ch=3 n=61 v=73
104695 Off ch=2 n=40 v=127
104696 On ch=5 n=57 v=127
104696 Par ch=3 c=11 v=85
104696 Par ch=2 c=11 v=85
104703 Off ch=4 n=66 v=127
104717 Off ch=5 n=57 v=127
104728 Par ch=10 c=11 v=84
104728 Par ch=7 c=11 v=84
104728 Par ch=5 c=11 v=84
104728 Par ch=4 c=11 v=84
104728 On ch=4 n=66 v=127
104736 On ch=10 n=42 v=74
104736 On ch=7 n=63 v=57
104736 On ch=7 n=68 v=57
104736 On ch=10 n=82 v=53
104736 Par ch=3 c=11 v=84
104736 On ch=3 n=59 v=73
104736 On ch=3 n=63 v=73
104736 On ch=3 n=68 v=73
104736 Par ch=2 c=11 v=84
104736 On ch=2 n=42 v=127
104739 On ch=5 n=60 v=127
104747 On ch=5 n=61 v=127
104748 Off ch=10 n=82 v=53
104748 Off ch=10 n=42 v=74
104755 Off ch=5 n=60 v=127
104768 Par ch=10 c=11 v=83
104768 Par ch=4 c=11 v=83
104776 Par ch=7 c=11 v=83
104776 Par ch=5 c=11 v=83
104776 Par ch=2 c=11 v=83
104784 Par ch=3 c=11 v=83
104787 Off ch=2 n=42 v=127
104808 Par ch=10 c=11 v=82
104808 Par ch=4 c=11 v=82
104815 Off ch=4 n=66 v=127
104816 Par ch=7 c=11 v=82
104816 Par ch=5 c=11 v=82
104816 Par ch=2 c=11 v=82
104824 Par ch=3 c=11 v=82
104832 On ch=10 n=36 v=105
104832 On ch=2 n=40 v=127
104832 On ch=10 n=42 v=57
104832 On ch=10 n=82 v=62
104833 On ch=4 n=64 v=125
104844 Off ch=10 n=82 v=62
104844 Off ch=10 n=42 v=57
104844 Off ch=10 n=36 v=105
104848 Par ch=10 c=11 v=81
104848 Par ch=4 c=11 v=81
104856 Par ch=7 c=11 v=81
104856 Par ch=5 c=11 v=81
104864 Par ch=3 c=11 v=81
104864 Par ch=2 c=11 v=81
104888 Off ch=2 n=40 v=127
104896 Par ch=10 c=11 v=80
104896 Par ch=7 c=11 v=80
104896 Par ch=5 c=11 v=80
104896 Par ch=4 c=11 v=80
104904 Par ch=3 c=11 v=80
104904 Par ch=2 c=11 v=80
104928 On ch=2 n=37 v=127
104928 On ch=10 n=42 v=69
104928 On ch=10 n=82 v=60
104929 Off ch=4 n=64 v=125
104935 On ch=4 n=61 v=127
104936 Par ch=10 c=11 v=79
104936 Par ch=4 c=11 v=79
104940 Off ch=10 n=82 v=60
104940 Off ch=10 n=42 v=69
104944 Par ch=7 c=11 v=79
104944 Par ch=5 c=11 v=79
104944 Par ch=2 c=11 v=79
104952 Par ch=3 c=11 v=79
104976 Par ch=10 c=11 v=78
104976 Par ch=4 c=11 v=78
104979 Off ch=2 n=37 v=127
104984 Par ch=7 c=11 v=78
104984 Par ch=5 c=11 v=78
104984 Par ch=2 c=11 v=78
104992 Par ch=3 c=11 v=78
105016 Par ch=10 c=11 v=77
105016 Par ch=4 c=11 v=77
105024 On ch=10 n=39 v=110
105024 On ch=10 n=40 v=113
105024 On ch=10 n=42 v=57
105024 On ch=10 n=82 v=68
105024 Par ch=7 c=11 v=77
105024 Par ch=5 c=11 v=77
105024 On ch=2 n=35 v=127
105029 Off ch=7 n=68 v=57
105032 Par ch=3 c=11 v=77
105032 Par ch=2 c=11 v=77
105034 Off ch=7 n=63 v=57
105036 Off ch=10 n=82 v=68
105036 Off ch=10 n=42 v=57
105036 Off ch=10 n=40 v=113
105036 Off ch=10 n=39 v=110
105058 Off ch=5 n=61 v=127
105064 Par ch=10 c=11 v=76
105064 Par ch=7 c=11 v=76
105064 Par ch=5 c=11 v=76
105064 Par ch=4 c=11 v=76
105072 Par ch=3 c=11 v=76
105072 Par ch=2 c=11 v=76
105085 Off ch=2 n=35 v=127
105104 Par ch=10 c=11 v=75
105104 Par ch=4 c=11 v=75
105106 Off ch=4 n=61 v=127
105112 Par ch=7 c=11 v=75
105112 Par ch=5 c=11 v=75
105112 Par ch=2 c=11 v=75
105120 On ch=10 n=42 v=74
105120 On ch=10 n=82 v=50
105120 Off ch=3 n=59 v=73
105120 Off ch=3 n=63 v=73
105120 Off ch=3 n=68 v=73
105120 Par ch=3 c=11 v=75
105120 On ch=2 n=37 v=127
105128 On ch=5 n=54 v=121
105128 On ch=4 n=61 v=127
105129 Off ch=5 n=54 v=121
105132 Off ch=10 n=82 v=50
105132 Off ch=10 n=42 v=74
105144 Par ch=10 c=11 v=74
105144 Par ch=4 c=11 v=74
105152 Par ch=7 c=11 v=74
105152 Par ch=5 c=11 v=74
105152 Par ch=2 c=11 v=74
105160 Par ch=3 c=11 v=74
105174 Off ch=2 n=37 v=127
105176 On ch=5 n=54 v=120
105177 Off ch=5 n=54 v=120
105184 Par ch=10 c=11 v=73
105184 Par ch=4 c=11 v=73
105192 Par ch=7 c=11 v=73
105192 Par ch=5 c=11 v=73
105200 Par ch=3 c=11 v=73
105200 Par ch=2 c=11 v=73
105201 Off ch=4 n=61 v=127
105216 On ch=10 n=36 v=105
105216 On ch=10 n=42 v=59
105216 On ch=2 n=42 v=127
105216 On ch=3 n=61 v=73
105216 On ch=7 n=64 v=57
105216 On ch=3 n=64 v=73
105216 On ch=7 n=69 v=57
105216 On ch=3 n=69 v=73
105216 On ch=10 n=82 v=68
105223 On ch=5 n=61 v=127
105228 Off ch=10 n=82 v=68
105228 Off ch=10 n=42 v=59
105228 Off ch=10 n=36 v=105
105228 On ch=4 n=66 v=127
105232 Par ch=10 c=11 v=72
105232 Par ch=7 c=11 v=72
105232 Par ch=5 c=11 v=72
105232 Par ch=4 c=11 v=72
105240 Par ch=3 c=11 v=72
105240 Par ch=2 c=11 v=72
105251 Off ch=5 n=61 v=127
105263 Off ch=2 n=42 v=127
105265 On ch=5 n=61 v=127
105272 Par ch=10 c=11 v=71
105272 Par ch=4 c=11 v=71
105280 Par ch=7 c=11 v=71
105280 Par ch=5 c=11 v=71
105280 Par ch=2 c=11 v=71
105281 Off ch=4 n=66 v=127
105288 Par ch=3 c=11 v=71
105297 Off ch=5 n=61 v=127
105312 On ch=10 n=42 v=74
105312 On ch=10 n=82 v=58
105312 Par ch=10 c=11 v=70
105312 Par ch=4 c=11 v=70
105312 On ch=2 n=37 v=127
105319 On ch=5 n=50 v=71
105320 Par ch=7 c=11 v=70
105320 Par ch=5 c=11 v=70
105320 Par ch=2 c=11 v=70
105321 On ch=4 n=66 v=127
105324 Off ch=10 n=82 v=58
105324 Off ch=10 n=42 v=74
105325 Off ch=5 n=50 v=71
105328 Par ch=3 c=11 v=70
105352 Par ch=10 c=11 v=69
105352 Par ch=4 c=11 v=69
105360 Par ch=7 c=11 v=69
105360 Par ch=5 c=11 v=69
105360 Off ch=2 n=37 v=127
105364 On ch=5 n=59 v=127
105368 Par ch=3 c=11 v=69
105368 Par ch=2 c=11 v=69
105400 Par ch=10 c=11 v=68
105400 Par ch=7 c=11 v=68
105400 Par ch=5 c=11 v=68
105400 Par ch=4 c=11 v=68
105401 Off ch=4 n=66 v=127
105408 On ch=10 n=39 v=110
105408 On ch=10 n=40 v=113
105408 On ch=10 n=42 v=54
105408 On ch=10 n=82 v=66
105408 Par ch=3 c=11 v=68
105408 Par ch=2 c=11 v=68
105408 On ch=2 n=40 v=127
105420 Off ch=10 n=82 v=66
105420 Off ch=10 n=42 v=54
105420 Off ch=10 n=40 v=113
105420 Off ch=10 n=39 v=110
105423 Off ch=5 n=59 v=127
105429 Off ch=7 n=64 v=57
105429 Off ch=7 n=69 v=57
105440 Par ch=10 c=11 v=67
105440 Par ch=4 c=11 v=67
105448 Par ch=7 c=11 v=67
105448 Par ch=5 c=11 v=67
105448 Par ch=2 c=11 v=67
105456 Off ch=3 n=61 v=73
105456 Off ch=3 n=64 v=73
105456 Off ch=3 n=69 v=73
105456 Par ch=3 c=11 v=67
105461 Off ch=2 n=40 v=127
105464 On ch=5 n=57 v=127
105480 Par ch=10 c=11 v=66
105480 Par ch=4 c=11 v=66
105485 Off ch=5 n=57 v=127
105488 Par ch=7 c=11 v=66
105488 Par ch=5 c=11 v=66
105488 Par ch=2 c=11 v=66
105496 Par ch=3 c=11 v=66
105501 On ch=4 n=64 v=120
105504 On ch=10 n=42 v=84
105504 On ch=2 n=42 v=127
105504 On ch=3 n=59 v=73
105504 On ch=7 n=63 v=57
105504 On ch=3 n=63 v=73
105504 On ch=7 n=68 v=57
105504 On ch=3 n=68 v=73
105504 On ch=10 n=82 v=60
105507 On ch=5 n=60 v=127
105515 On ch=5 n=61 v=127
105516 Off ch=10 n=82 v=60
105516 Off ch=10 n=42 v=84
105520 Par ch=10 c=11 v=65
105520 Par ch=4 c=11 v=65
105523 Off ch=5 n=60 v=127
105528 Par ch=7 c=11 v=65
105528 Par ch=5 c=11 v=65
105536 Par ch=3 c=11 v=65
105536 Par ch=2 c=11 v=65
105550 Off ch=2 n=42 v=127
105568 Par ch=10 c=11 v=64
105568 Par ch=7 c=11 v=64
105568 Par ch=5 c=11 v=64
105568 Par ch=4 c=11 v=64
105576 Par ch=3 c=11 v=64
105576 Par ch=2 c=11 v=64
105600 On ch=10 n=36 v=105
105600 On ch=2 n=40 v=127
105600 On ch=10 n=42 v=51
105600 On ch=10 n=82 v=56
105608 Par ch=10 c=11 v=63
105608 Par ch=4 c=11 v=63
105612 Off ch=10 n=82 v=56
105612 Off ch=10 n=42 v=51
105612 Off ch=10 n=36 v=105
105616 Par ch=7 c=11 v=63
105616 Par ch=5 c=11 v=63
105616 Par ch=2 c=11 v=63
105624 Par ch=3 c=11 v=63
105643 Off ch=7 n=68 v=57
105643 Off ch=7 n=63 v=57
105648 Par ch=10 c=11 v=62
105648 Par ch=4 c=11 v=62
105656 Par ch=7 c=11 v=62
105656 Par ch=5 c=11 v=62
105656 Par ch=2 c=11 v=62
105659 Off ch=2 n=40 v=127
105663 Par ch=7 c=10 v=0
105664 Par ch=3 c=11 v=62
105683 Off ch=4 n=64 v=120
105691 On ch=7 n=66 v=126
105691 On ch=7 n=78 v=126
105696 On ch=10 n=42 v=79
105696 On ch=10 n=82 v=60
105696 Par ch=10 c=11 v=61
105696 Par ch=7 c=11 v=61
105696 Par ch=5 c=11 v=61
105696 Par ch=4 c=11 v=61
105696 On ch=4 n=61 v=127
105696 Par ch=2 c=11 v=61
105696 On ch=2 n=37 v=127
105704 Par ch=3 c=11 v=61
105708 Off ch=10 n=82 v=60
105708 Off ch=10 n=42 v=79
105731 Off ch=7 n=66 v=126
105733 Off ch=7 n=78 v=126
105736 Par ch=10 c=11 v=60
105736 Par ch=7 c=11 v=60
105736 Par ch=5 c=11 v=60
105736 Par ch=4 c=11 v=60
105744 Par ch=3 c=11 v=60
105744 Par ch=2 c=11 v=60
105750 Off ch=2 n=37 v=127
105776 Par ch=10 c=11 v=59
105776 Par ch=4 c=11 v=59
105784 Par ch=7 c=11 v=59
105784 Par ch=5 c=11 v=59
105784 Par ch=2 c=11 v=59
105786 On ch=7 n=66 v=126
105786 On ch=7 n=78 v=126
105792 On ch=10 n=39 v=110
105792 On ch=10 n=40 v=113
105792 On ch=10 n=42 v=51
105792 On ch=10 n=82 v=64
105792 Par ch=3 c=11 v=59
105792 On ch=2 n=35 v=127
105804 Off ch=10 n=82 v=64
105804 Off ch=10 n=42 v=51
105804 Off ch=10 n=40 v=113
105804 Off ch=10 n=39 v=110
105816 Par ch=10 c=11 v=58
105816 Par ch=4 c=11 v=58
105824 Par ch=7 c=11 v=58
105824 Par ch=5 c=11 v=58
105824 Par ch=2 c=11 v=58
105826 Off ch=7 n=78 v=126
105826 Off ch=5 n=61 v=127
105829 Off ch=7 n=66 v=126
105832 Par ch=3 c=11 v=58
105857 Off ch=2 n=35 v=127
105860 Par ch=7 c=10 v=64
105864 Par ch=10 c=11 v=57
105864 Par ch=7 c=11 v=57
105864 Par ch=5 c=11 v=57
105864 Par ch=4 c=11 v=57
105864 Par ch=2 c=11 v=57
105872 Par ch=3 c=11 v=57
105885 Off ch=4 n=61 v=127
105888 On ch=2 n=37 v=127
105888 On ch=10 n=46 v=104
105888 On ch=10 n=82 v=64
105896 On ch=5 n=54 v=121
105897 Off ch=5 n=54 v=121
105900 Off ch=10 n=82 v=64
105900 Off ch=10 n=46 v=104
105904 Par ch=10 c=11 v=56
105904 Par ch=7 c=11 v=56
105904 Par ch=5 c=11 v=56
105904 Par ch=4 c=11 v=56
105912 Par ch=3 c=11 v=56
105912 Par ch=2 c=11 v=56
105936 Off ch=3 n=68 v=73
105936 Off ch=3 n=63 v=73
105936 Off ch=3 n=59 v=73
105939 Off ch=2 n=37 v=127
105944 Par ch=10 c=11 v=55
105944 On ch=5 n=54 v=120
105944 Par ch=4 c=11 v=55
105945 Off ch=5 n=54 v=120
105952 Par ch=7 c=11 v=55
105952 Par ch=5 c=11 v=55
105952 Par ch=2 c=11 v=55
105960 Par ch=3 c=11 v=55
105984 On ch=10 n=36 v=105
105984 On ch=10 n=42 v=59
105984 On ch=10 n=82 v=68
105984 Par ch=10 c=11 v=54
105984 On ch=7 n=61 v=57
105984 On ch=7 n=66 v=57
105984 Par ch=4 c=11 v=54
105984 On ch=2 n=42 v=127
105984 On ch=3 n=57 v=73
105984 On ch=3 n=61 v=73
105984 On ch=3 n=66 v=73
105991 On ch=5 n=61 v=127
105992 Par ch=7 c=11 v=54
105992 Par ch=5 c=11 v=54
105992 Par ch=2 c=11 v=54
105996 Off ch=10 n=82 v=68
105996 Off ch=10 n=42 v=59
105996 Off ch=10 n=36 v=105
106000 Par ch=3 c=11 v=54
106019 Off ch=5 n=61 v=127
106032 Par ch=10 c=11 v=53
106032 Par ch=7 c=11 v=53
106032 Par ch=5 c=11 v=53
106032 Par ch=4 c=11 v=53
106032 Par ch=2 c=11 v=53
106033 On ch=5 n=61 v=127
106034 Off ch=2 n=42 v=127
106040 Par ch=3 c=11 v=53
106065 Off ch=5 n=61 v=127
106072 Par ch=10 c=11 v=52
106072 Par ch=7 c=11 v=52
106072 Par ch=5 c=11 v=52
106072 Par ch=4 c=11 v=52
106080 On ch=10 n=42 v=74
106080 On ch=10 n=82 v=58
106080 Par ch=3 c=11 v=52
106080 Par ch=2 c=11 v=52
106080 On ch=2 n=37 v=127
106087 On ch=5 n=50 v=71
106092 Off ch=10 n=82 v=58
106092 Off ch=10 n=42 v=74
106093 Off ch=5 n=50 v=71
106112 Par ch=10 c=11 v=51
106112 Par ch=4 c=11 v=51
106120 Par ch=7 c=11 v=51
106120 Par ch=5 c=11 v=51
106120 Par ch=2 c=11 v=51
106128 Par ch=3 c=11 v=51
106132 On ch=5 n=59 v=127
106132 Off ch=2 n=37 v=127
106152 Par ch=10 c=11 v=50
106152 Par ch=4 c=11 v=50
106160 Par ch=7 c=11 v=50
106160 Par ch=5 c=11 v=50
106160 Par ch=2 c=11 v=50
106168 Par ch=3 c=11 v=50
106176 On ch=10 n=39 v=110
106176 On ch=10 n=40 v=113
106176 On ch=2 n=40 v=127
106176 On ch=10 n=42 v=54
106176 On ch=10 n=82 v=66
106182 On ch=4 n=66 v=127
106188 Off ch=10 n=82 v=66
106188 Off ch=10 n=42 v=54
106188 Off ch=10 n=40 v=113
106188 Off ch=10 n=39 v=110
106191 Off ch=5 n=59 v=127
106200 Par ch=10 c=11 v=49
106200 Par ch=7 c=11 v=49
106200 Par ch=5 c=11 v=49
106200 Par ch=4 c=11 v=49
106200 Par ch=2 c=11 v=49
106208 Par ch=3 c=11 v=49
106224 Off ch=7 n=61 v=57
106224 Off ch=7 n=66 v=57
106224 Off ch=3 n=66 v=73
106224 Off ch=3 n=61 v=73
106224 Off ch=3 n=57 v=73
106231 Off ch=2 n=40 v=127
106232 On ch=5 n=57 v=127
106239 Off ch=4 n=66 v=127
106240 Par ch=10 c=11 v=48
106240 Par ch=7 c=11 v=48
106240 Par ch=5 c=11 v=48
106240 Par ch=4 c=11 v=48
106248 Par ch=3 c=11 v=48
106248 Par ch=2 c=11 v=48
106253 Off ch=5 n=57 v=127
106264 On ch=4 n=66 v=127
106272 On ch=10 n=42 v=84
106272 On ch=2 n=42 v=127
106272 On ch=3 n=59 v=73
106272 On ch=7 n=63 v=57
106272 On ch=3 n=63 v=73
106272 On ch=7 n=68 v=57
106272 On ch=3 n=68 v=73
106272 On ch=10 n=82 v=60
106275 On ch=5 n=60 v=127
106280 Par ch=10 c=11 v=47
106280 Par ch=4 c=11 v=47
106283 On ch=5 n=61 v=127
106284 Off ch=10 n=82 v=60
106284 Off ch=10 n=42 v=84
106288 Par ch=7 c=11 v=47
106288 Par ch=5 c=11 v=47
106288 Par ch=2 c=11 v=47
106291 Off ch=5 n=60 v=127
106296 Par ch=3 c=11 v=47
106320 Par ch=10 c=11 v=46
106320 Par ch=4 c=11 v=46
106323 Off ch=2 n=42 v=127
106328 Par ch=7 c=11 v=46
106328 Par ch=5 c=11 v=46
106328 Par ch=2 c=11 v=46
106336 Par ch=3 c=11 v=46
106351 Off ch=4 n=66 v=127
106368 On ch=10 n=36 v=105
106368 On ch=10 n=42 v=51
106368 On ch=10 n=82 v=56
106368 Par ch=10 c=11 v=45
106368 Par ch=7 c=11 v=45
106368 Par ch=5 c=11 v=45
106368 Par ch=4 c=11 v=45
106368 Par ch=2 c=11 v=45
106368 On ch=2 n=40 v=127
106369 On ch=4 n=64 v=125
106376 Par ch=3 c=11 v=45
106380 Off ch=10 n=82 v=56
106380 Off ch=10 n=42 v=51
106380 Off ch=10 n=36 v=105
106408 Par ch=10 c=11 v=44
106408 Par ch=7 c=11 v=44
106408 Par ch=5 c=11 v=44
106408 Par ch=4 c=11 v=44
106416 Par ch=3 c=11 v=44
106416 Par ch=2 c=11 v=44
106424 Off ch=2 n=40 v=127
106448 Par ch=10 c=11 v=43
106448 Par ch=4 c=11 v=43
106456 Par ch=7 c=11 v=43
106456 Par ch=5 c=11 v=43
106456 Par ch=2 c=11 v=43
106464 On ch=10 n=42 v=79
106464 On ch=10 n=82 v=60
106464 Par ch=3 c=11 v=43
106464 On ch=2 n=37 v=127
106465 Off ch=4 n=64 v=125
106471 On ch=4 n=61 v=127
106476 Off ch=10 n=82 v=60
106476 Off ch=10 n=42 v=79
106488 Par ch=10 c=11 v=42
106488 Par ch=4 c=11 v=42
106496 Par ch=7 c=11 v=42
106496 Par ch=5 c=11 v=42
106496 Par ch=2 c=11 v=42
106504 Par ch=3 c=11 v=42
106515 Off ch=2 n=37 v=127
106536 Par ch=10 c=11 v=41
106536 Par ch=7 c=11 v=41
106536 Par ch=5 c=11 v=41
106536 Par ch=4 c=11 v=41
106536 Par ch=2 c=11 v=41
106544 Par ch=3 c=11 v=41
106560 On ch=2 n=35 v=127
106560 On ch=10 n=39 v=110
106560 On ch=10 n=40 v=113
106560 On ch=10 n=42 v=51
106560 On ch=10 n=82 v=64
106572 Off ch=10 n=82 v=64
106572 Off ch=10 n=42 v=51
106572 Off ch=10 n=40 v=113
106572 Off ch=10 n=39 v=110
106576 Par ch=10 c=11 v=40
106576 Par ch=7 c=11 v=40
106576 Par ch=5 c=11 v=40
106576 Par ch=4 c=11 v=40
106584 Par ch=3 c=11 v=40
106584 Par ch=2 c=11 v=40
106594 Off ch=5 n=61 v=127
106616 Par ch=10 c=11 v=39
106616 Par ch=4 c=11 v=39
106621 Off ch=2 n=35 v=127
106624 Par ch=7 c=11 v=39
106624 Par ch=5 c=11 v=39
106624 Par ch=2 c=11 v=39
106632 Par ch=3 c=11 v=39
106642 Off ch=4 n=61 v=127
106656 On ch=10 n=42 v=84
106656 On ch=10 n=82 v=64
106656 Par ch=10 c=11 v=38
106656 Off ch=7 n=68 v=57
106656 Off ch=7 n=63 v=57
106656 Par ch=4 c=11 v=38
106656 On ch=2 n=37 v=127
106656 Off ch=3 n=68 v=73
106656 Off ch=3 n=59 v=73
106656 Off ch=3 n=63 v=73
106664 Par ch=7 c=11 v=38
106664 Par ch=5 c=11 v=38
106664 On ch=5 n=54 v=121
106664 On ch=4 n=61 v=127
106664 Par ch=2 c=11 v=38
106665 Off ch=5 n=54 v=121
106668 Off ch=10 n=82 v=64
106668 Off ch=10 n=42 v=84
106672 Par ch=3 c=11 v=38
106704 Par ch=10 c=11 v=37
106704 Par ch=7 c=11 v=37
106704 Par ch=5 c=11 v=37
106704 Par ch=4 c=11 v=37
106704 Par ch=2 c=11 v=37
106710 Off ch=2 n=37 v=127
106712 On ch=5 n=54 v=120
106712 Par ch=3 c=11 v=37
106713 Off ch=5 n=54 v=120
106737 Off ch=4 n=61 v=127
106744 Par ch=10 c=11 v=36
106744 Par ch=7 c=11 v=36
106744 Par ch=5 c=11 v=36
106744 Par ch=4 c=11 v=36
106752 On ch=10 n=36 v=105
106752 On ch=10 n=42 v=59
106752 On ch=7 n=64 v=57
106752 On ch=7 n=69 v=57
106752 On ch=10 n=82 v=65
106752 Par ch=3 c=11 v=36
106752 On ch=3 n=61 v=73
106752 On ch=3 n=64 v=73
106752 On ch=3 n=69 v=73
106752 Par ch=2 c=11 v=36
106752 On ch=2 n=42 v=127
106759 On ch=5 n=61 v=127
106764 Off ch=10 n=82 v=65
106764 Off ch=10 n=42 v=59
106764 Off ch=10 n=36 v=105
106764 On ch=4 n=66 v=127
106784 Par ch=10 c=11 v=35
106784 Par ch=4 c=11 v=35
106787 Off ch=5 n=61 v=127
106792 Par ch=7 c=11 v=35
106792 Par ch=5 c=11 v=35
106792 Par ch=2 c=11 v=35
106799 Off ch=2 n=42 v=127
106800 Par ch=3 c=11 v=35
106801 On ch=5 n=61 v=127
106817 Off ch=4 n=66 v=127
106824 Par ch=10 c=11 v=34
106824 Par ch=4 c=11 v=34
106832 Par ch=7 c=11 v=34
106832 Par ch=5 c=11 v=34
106832 Par ch=2 c=11 v=34
106833 Off ch=5 n=61 v=127
106840 Par ch=3 c=11 v=34
106848 On ch=2 n=37 v=127
106848 On ch=10 n=42 v=74
106848 On ch=10 n=82 v=43
106855 On ch=5 n=50 v=71
106857 On ch=4 n=66 v=127
106860 Off ch=10 n=82 v=43
106860 Off ch=10 n=42 v=74
106861 Off ch=5 n=50 v=71
106872 Par ch=10 c=11 v=33
106872 Par ch=7 c=11 v=33
106872 Par ch=5 c=11 v=33
106872 Par ch=4 c=11 v=33
106872 Par ch=2 c=11 v=33
106880 Par ch=3 c=11 v=33
106896 Off ch=2 n=37 v=127
106900 On ch=5 n=59 v=127
106912 Par ch=10 c=11 v=32
106912 Par ch=7 c=11 v=32
106912 Par ch=5 c=11 v=32
106912 Par ch=4 c=11 v=32
106920 Par ch=3 c=11 v=32
106920 Par ch=2 c=11 v=32
106937 Off ch=4 n=66 v=127
106944 On ch=10 n=39 v=110
106944 On ch=10 n=40 v=113
106944 On ch=2 n=40 v=127
106944 On ch=10 n=42 v=54
106944 On ch=10 n=82 v=67
106952 Par ch=10 c=11 v=31
106952 Par ch=4 c=11 v=31
106956 Off ch=10 n=82 v=67
106956 Off ch=10 n=42 v=54
106956 Off ch=10 n=40 v=113
106956 Off ch=10 n=39 v=110
106959 Off ch=5 n=59 v=127
106960 Par ch=7 c=11 v=31
106960 Par ch=5 c=11 v=31
106960 Par ch=2 c=11 v=31
106968 Par ch=3 c=11 v=31
106990 Off ch=7 n=69 v=57
106992 Off ch=7 n=64 v=57
106992 Off ch=3 n=61 v=73
106992 Off ch=3 n=64 v=73
106992 Off ch=3 n=69 v=73
106997 Off ch=2 n=40 v=127
107000 Par ch=10 c=11 v=30
107000 Par ch=7 c=11 v=30
107000 Par ch=5 c=11 v=30
107000 On ch=5 n=57 v=127
107000 Par ch=4 c=11 v=30
107000 Par ch=2 c=11 v=30
107008 Par ch=3 c=11 v=30
107021 Off ch=5 n=57 v=127
107037 On ch=4 n=64 v=120
107040 On ch=10 n=42 v=84
107040 On ch=10 n=82 v=60
107040 Par ch=10 c=11 v=29
107040 Par ch=7 c=11 v=29
107040 On ch=7 n=63 v=57
107040 On ch=7 n=68 v=57
107040 Par ch=5 c=11 v=29
107040 Par ch=4 c=11 v=29
107040 On ch=3 n=59 v=73
107040 On ch=3 n=63 v=73
107040 On ch=3 n=68 v=73
107040 Par ch=2 c=11 v=29
107040 On ch=2 n=42 v=127
107043 On ch=5 n=60 v=127
107048 Par ch=3 c=11 v=29
107051 On ch=5 n=61 v=127
107052 Off ch=10 n=82 v=60
107052 Off ch=10 n=42 v=84
107059 Off ch=5 n=60 v=127
107080 Par ch=10 c=11 v=28
107080 Par ch=7 c=11 v=28
107080 Par ch=5 c=11 v=28
107080 Par ch=4 c=11 v=28
107080 Par ch=2 c=11 v=28
107086 Off ch=2 n=42 v=127
107088 On ch=10 n=82 v=65
107088 Par ch=3 c=11 v=28
107100 Off ch=10 n=82 v=65
107120 Par ch=10 c=11 v=27
107120 Par ch=4 c=11 v=27
107128 Par ch=7 c=11 v=27
107128 Par ch=5 c=11 v=27
107128 Par ch=2 c=11 v=27
107136 On ch=10 n=36 v=105
107136 On ch=10 n=42 v=51
107136 On ch=10 n=82 v=65
107136 Par ch=3 c=11 v=27
107136 On ch=2 n=40 v=127
107148 Off ch=10 n=82 v=65
107148 Off ch=10 n=42 v=51
107148 Off ch=10 n=36 v=105
107168 Par ch=10 c=11 v=26
107168 Par ch=7 c=11 v=26
107168 Par ch=5 c=11 v=26
107168 Par ch=4 c=11 v=26
107168 Par ch=2 c=11 v=26
107176 Par ch=3 c=11 v=26
107195 Off ch=2 n=40 v=127
107208 Par ch=10 c=11 v=25
107208 Par ch=7 c=11 v=25
107208 Par ch=5 c=11 v=25
107208 Par ch=4 c=11 v=25
107208 Par ch=2 c=11 v=25
107216 Par ch=3 c=11 v=25
107219 Off ch=4 n=64 v=120
107232 On ch=2 n=37 v=127
107232 On ch=10 n=42 v=79
107232 On ch=4 n=61 v=127
107232 On ch=10 n=82 v=65
107244 Off ch=10 n=82 v=65
107244 Off ch=10 n=42 v=79
107248 Par ch=10 c=11 v=24
107248 Par ch=7 c=11 v=24
107248 Par ch=5 c=11 v=24
107248 Par ch=4 c=11 v=24
107248 Par ch=2 c=11 v=24
107256 Par ch=3 c=11 v=24
107280 On ch=10 n=82 v=70
107286 Off ch=2 n=37 v=127
107288 Par ch=10 c=11 v=23
107288 Par ch=4 c=11 v=23
107292 Off ch=10 n=82 v=70
107296 Par ch=7 c=11 v=23
107296 Par ch=5 c=11 v=23
107296 Par ch=2 c=11 v=23
107304 Par ch=3 c=11 v=23
107328 On ch=2 n=35 v=127
107328 On ch=10 n=39 v=78
107328 On ch=10 n=40 v=71
107328 On ch=10 n=42 v=51
107328 On ch=10 n=82 v=77
107336 Par ch=10 c=11 v=22
107336 Par ch=7 c=11 v=22
107336 Par ch=5 c=11 v=22
107336 Par ch=4 c=11 v=22
107336 Par ch=2 c=11 v=22
107340 Off ch=10 n=82 v=77
107340 Off ch=10 n=42 v=51
107340 Off ch=10 n=40 v=71
107340 Off ch=10 n=39 v=78
107344 Par ch=3 c=11 v=22
107362 Off ch=5 n=61 v=127
107376 Par ch=10 c=11 v=21
107376 Par ch=7 c=11 v=21
107376 Par ch=5 c=11 v=21
107376 Par ch=4 c=11 v=21
107376 Par ch=2 c=11 v=21
107380 Off ch=7 n=63 v=57
107381 Off ch=7 n=68 v=57
107384 Par ch=3 c=11 v=21
107393 Off ch=2 n=35 v=127
107416 Par ch=10 c=11 v=20
107416 Par ch=7 c=11 v=20
107416 Par ch=5 c=11 v=20
107416 Par ch=4 c=11 v=20
107416 Par ch=2 c=11 v=20
107421 Off ch=4 n=61 v=127
107424 On ch=10 n=42 v=84
107424 On ch=10 n=82 v=50
107424 Off ch=3 n=68 v=73
107424 Off ch=3 n=63 v=73
107424 Off ch=3 n=59 v=73
107424 Par ch=3 c=11 v=20
107424 On ch=2 n=37 v=127
107432 On ch=5 n=54 v=121
107433 Off ch=5 n=54 v=121
107436 Off ch=10 n=82 v=50
107436 Off ch=10 n=42 v=84
107456 Par ch=10 c=11 v=19
107456 Par ch=4 c=11 v=19
107464 Par ch=7 c=11 v=19
107464 Par ch=5 c=11 v=19
107464 Par ch=2 c=11 v=19
107472 On ch=10 n=82 v=60
107472 Par ch=3 c=11 v=19
107475 Off ch=2 n=37 v=127
107480 On ch=5 n=54 v=120
107481 Off ch=5 n=54 v=120
107484 Off ch=10 n=82 v=60
107504 Par ch=10 c=11 v=18
107504 Par ch=7 c=11 v=18
107504 Par ch=5 c=11 v=18
107504 Par ch=4 c=11 v=18
107504 Par ch=2 c=11 v=18
107512 Par ch=3 c=11 v=18
107520 On ch=10 n=36 v=39
107520 On ch=10 n=42 v=18
107520 On ch=2 n=42 v=47
107520 On ch=3 n=57 v=31
107520 On ch=7 n=61 v=57
107520 On ch=3 n=61 v=31
107520 On ch=7 n=66 v=57
107520 On ch=3 n=66 v=27
107520 On ch=10 n=82 v=16
107527 On ch=5 n=61 v=127
107532 Off ch=10 n=82 v=16
107532 Off ch=10 n=42 v=18
107532 Off ch=10 n=36 v=39
107544 Par ch=10 c=11 v=17
107544 Par ch=7 c=11 v=17
107544 Par ch=5 c=11 v=17
107544 Par ch=4 c=11 v=17
107544 Par ch=2 c=11 v=17
107552 Par ch=3 c=11 v=17
107555 Off ch=5 n=61 v=127
107569 On ch=5 n=61 v=127
107570 Off ch=2 n=42 v=47
107584 Par ch=10 c=11 v=16
107584 Par ch=7 c=11 v=16
107584 Par ch=5 c=11 v=16
107584 Par ch=4 c=11 v=16
107584 Par ch=2 c=11 v=16
107592 Par ch=3 c=11 v=16
107601 Off ch=5 n=61 v=127
107616 On ch=2 n=37 v=127
107616 On ch=10 n=42 v=10
107616 On ch=10 n=82 v=8
107623 On ch=5 n=50 v=71
107624 Par ch=10 c=11 v=15
107624 Par ch=4 c=11 v=15
107628 Off ch=10 n=82 v=8
107628 Off ch=10 n=42 v=10
107629 Off ch=5 n=50 v=71
107632 Par ch=7 c=11 v=15
107632 Par ch=5 c=11 v=15
107632 Par ch=2 c=11 v=15
107640 Par ch=3 c=11 v=15
107668 On ch=5 n=59 v=127
107668 Off ch=2 n=37 v=127
107672 Par ch=10 c=11 v=14
107672 Par ch=7 c=11 v=14
107672 Par ch=5 c=11 v=14
107672 Par ch=4 c=11 v=14
107672 Par ch=2 c=11 v=14
107680 Par ch=3 c=11 v=14
107712 On ch=10 n=39 v=62
107712 On ch=10 n=40 v=23
107712 On ch=10 n=42 v=6
107712 On ch=10 n=82 v=6
107712 Par ch=10 c=11 v=13
107712 Par ch=7 c=11 v=13
107712 Par ch=5 c=11 v=13
107712 Par ch=4 c=11 v=13
107712 Par ch=2 c=11 v=13
107712 On ch=2 n=40 v=127
107720 Par ch=3 c=11 v=13
107724 Off ch=10 n=82 v=6
107724 Off ch=10 n=42 v=6
107724 Off ch=10 n=40 v=23
107724 Off ch=10 n=39 v=62
107727 Off ch=5 n=59 v=127
107752 Par ch=10 c=11 v=12
107752 Par ch=7 c=11 v=12
107752 Par ch=5 c=11 v=12
107752 Par ch=4 c=11 v=12
107752 Par ch=2 c=11 v=12
107758 Off ch=7 n=61 v=57
107760 Off ch=7 n=66 v=57
107760 Off ch=3 n=66 v=27
107760 Off ch=3 n=57 v=31
107760 Off ch=3 n=61 v=31
107760 Par ch=3 c=11 v=12
107767 Off ch=2 n=40 v=127
107768 On ch=5 n=57 v=127
107789 Off ch=5 n=57 v=127
107792 Par ch=10 c=11 v=11
107792 Par ch=4 c=11 v=11
107800 Par ch=7 c=11 v=11
107800 Par ch=5 c=11 v=11
107800 Par ch=2 c=11 v=11
107808 On ch=10 n=42 v=2
107808 On ch=7 n=63 v=37
107808 On ch=7 n=68 v=37
107808 On ch=10 n=82 v=6
107808 Par ch=3 c=11 v=11
107808 On ch=2 n=42 v=127
107808 On ch=3 n=59 v=35
107808 On ch=3 n=63 v=35
107808 On ch=3 n=68 v=35
107811 On ch=5 n=60 v=127
107819 On ch=5 n=61 v=127
107820 Off ch=10 n=82 v=6
107820 Off ch=10 n=42 v=2
107827 Off ch=5 n=60 v=127
107840 Par ch=10 c=11 v=10
107840 Par ch=7 c=11 v=10
107840 Par ch=5 c=11 v=10
107840 Par ch=4 c=11 v=10
107840 Par ch=2 c=11 v=10
107848 Par ch=3 c=11 v=10
107859 Off ch=2 n=42 v=127
107880 Par ch=10 c=11 v=9
107880 Par ch=7 c=11 v=9
107880 Par ch=5 c=11 v=9
107880 Par ch=4 c=11 v=9
107880 Par ch=2 c=11 v=9
107888 Par ch=3 c=11 v=9
107904 On ch=10 n=36 v=27
107904 On ch=2 n=40 v=127
107904 On ch=10 n=42 v=1
107904 On ch=10 n=82 v=6
107904 Off ch=7 n=68 v=37
107904 Off ch=7 n=63 v=37
107916 Off ch=10 n=82 v=6
107916 Off ch=10 n=42 v=1
107916 Off ch=10 n=36 v=27
107920 Par ch=10 c=11 v=8
107920 Par ch=7 c=11 v=8
107920 Par ch=5 c=11 v=8
107920 Par ch=4 c=11 v=8
107920 Par ch=2 c=11 v=8
107928 Par ch=3 c=11 v=8
107960 Par ch=10 c=11 v=7
107960 Par ch=4 c=11 v=7
107960 Off ch=2 n=40 v=127
107968 Par ch=7 c=11 v=7
107968 Par ch=5 c=11 v=7
107968 Par ch=2 c=11 v=7
107976 Par ch=3 c=11 v=7
108000 On ch=2 n=37 v=127
108000 On ch=10 n=42 v=1
108000 On ch=10 n=82 v=6
108008 Par ch=10 c=11 v=6
108008 Par ch=7 c=11 v=6
108008 Par ch=5 c=11 v=6
108008 Par ch=4 c=11 v=6
108008 Par ch=2 c=11 v=6
108012 Off ch=10 n=82 v=6
108012 Off ch=10 n=42 v=1
108012 Off ch=3 n=59 v=35
108012 Off ch=3 n=63 v=35
108012 Off ch=3 n=68 v=35
108016 Par ch=3 c=11 v=6
108048 Par ch=10 c=11 v=5
108048 Par ch=7 c=11 v=5
108048 Par ch=5 c=11 v=5
108048 Par ch=4 c=11 v=5
108048 Par ch=2 c=11 v=5
108051 Off ch=2 n=37 v=127
108056 Par ch=3 c=11 v=5
108088 Par ch=10 c=11 v=4
108088 Par ch=7 c=11 v=4
108088 Par ch=5 c=11 v=4
108088 Par ch=4 c=11 v=4
108088 Par ch=2 c=11 v=4
108096 On ch=10 n=39 v=46
108096 On ch=10 n=40 v=15
108096 On ch=10 n=42 v=1
108096 On ch=10 n=82 v=6
108096 Par ch=3 c=11 v=4
108096 On ch=2 n=35 v=127
108108 Off ch=10 n=82 v=6
108108 Off ch=10 n=42 v=1
108108 Off ch=10 n=40 v=15
108108 Off ch=10 n=39 v=46
108128 Par ch=10 c=11 v=3
108128 Par ch=4 c=11 v=3
108130 Off ch=5 n=61 v=127
108136 Par ch=7 c=11 v=3
108136 Par ch=5 c=11 v=3
108136 Par ch=2 c=11 v=3
108144 Par ch=3 c=11 v=3
108157 Off ch=2 n=35 v=127
108176 Par ch=10 c=11 v=2
108176 Par ch=7 c=11 v=2
108176 Par ch=5 c=11 v=2
108176 Par ch=4 c=11 v=2
108176 Par ch=2 c=11 v=2
108184 Par ch=3 c=11 v=2
108192 On ch=2 n=37 v=127
108192 On ch=10 n=42 v=1
108192 On ch=10 n=82 v=6
108204 Off ch=10 n=82 v=6
108204 Off ch=10 n=42 v=1
108216 Par ch=10 c=11 v=1
108216 Par ch=7 c=11 v=0
108216 Par ch=5 c=11 v=1
108216 Par ch=4 c=11 v=1
108216 Par ch=2 c=11 v=1
108224 Par ch=3 c=11 v=1
108246 Off ch=2 n=37 v=127
108256 Par ch=10 c=11 v=0
108256 Par ch=5 c=11 v=0
108256 Par ch=2 c=11 v=0
108264 Par ch=3 c=11 v=0
108292 Par ch=7 c=120 v=0
108292 Par ch=4 c=120 v=0
108344 Par ch=7 c=123 v=0
108344 Par ch=4 c=123 v=0
108376 Par ch=10 c=120 v=0
108376 Par ch=5 c=120 v=0
108376 Par ch=3 c=120 v=0
108404 Par ch=5 c=123 v=0
108404 Par ch=3 c=123 v=0
108416 Par ch=10 c=123 v=0
108544 Par ch=2 c=120 v=0
108572 Par ch=2 c=123 v=0
108572 Meta TrkEnd
TrkEnd
