MFile 0 1 1920
MTrk
0 Meta Text "Billy Je"
0 Tempo 512820
15 SysEx f0 41 10 42 12 40 00 7f 00 41 f7
54 SysEx f0 41 10 45 12 10 00 00 42 69 6c 6c 79 20 4a 65 61 6e 56 f7
192 Par ch=10 c=121 v=0
192 Par ch=11 c=121 v=0
192 Par ch=7 c=121 v=0
192 Par ch=5 c=121 v=0
192 Par ch=4 c=121 v=0
192 Par ch=3 c=121 v=0
192 Par ch=2 c=121 v=0
192 Par ch=1 c=121 v=0
237 Par ch=10 c=0 v=0
237 Par ch=11 c=0 v=0
237 Par ch=7 c=0 v=0
237 Par ch=5 c=0 v=0
237 Par ch=4 c=0 v=0
237 Par ch=3 c=0 v=0
237 Par ch=2 c=0 v=0
237 Par ch=1 c=0 v=8
240 Par ch=10 c=32 v=0
240 Par ch=11 c=32 v=0
240 Par ch=7 c=32 v=0
240 Par ch=5 c=32 v=0
240 Par ch=4 c=32 v=0
240 Par ch=3 c=32 v=0
240 Par ch=2 c=32 v=0
240 Par ch=1 c=32 v=0
257 PrCh ch=10 p=0
283 Par ch=10 c=10 v=64
288 PrCh ch=11 p=7
288 PrCh ch=7 p=49
288 PrCh ch=5 p=27
288 PrCh ch=4 p=53
288 PrCh ch=3 p=50
288 PrCh ch=2 p=33
288 PrCh ch=1 p=5
298 Par ch=10 c=91 v=110
317 Par ch=10 c=93 v=30
336 Par ch=11 c=10 v=64
336 Par ch=7 c=10 v=64
336 Par ch=5 c=10 v=64
336 Par ch=4 c=10 v=64
336 Par ch=3 c=10 v=64
336 Par ch=2 c=10 v=64
336 Par ch=1 c=10 v=64
347 Par ch=10 c=7 v=123
380 Par ch=10 c=11 v=127
384 Par ch=2 c=91 v=30
384 Par ch=1 c=91 v=50
385 Par ch=11 c=91 v=70
385 Par ch=7 c=91 v=127
385 Par ch=5 c=91 v=100
385 Par ch=4 c=91 v=70
385 Par ch=3 c=91 v=110
414 Par ch=10 c=99 v=28
432 Par ch=11 c=93 v=30
432 Par ch=7 c=93 v=30
432 Par ch=5 c=93 v=60
432 Par ch=4 c=93 v=38
432 Par ch=3 c=93 v=30
432 Par ch=2 c=93 v=0
432 Par ch=1 c=93 v=30
437 Par ch=10 c=98 v=42
456 Par ch=10 c=6 v=1
478 Par ch=10 c=99 v=29
482 Par ch=11 c=7 v=66
482 Par ch=7 c=7 v=84
482 Par ch=5 c=7 v=70
482 Par ch=4 c=7 v=124
482 Par ch=3 c=7 v=91
482 Par ch=2 c=7 v=104
482 Par ch=1 c=7 v=123
496 Par ch=10 c=98 v=42
516 Par ch=10 c=6 v=20
518 Par ch=11 c=11 v=127
518 Par ch=7 c=11 v=127
518 Par ch=5 c=11 v=127
518 Par ch=4 c=11 v=127
518 Par ch=3 c=11 v=127
518 Par ch=2 c=11 v=127
518 Par ch=1 c=11 v=127
543 Par ch=10 c=99 v=24
559 Par ch=10 c=98 v=36
576 SysEx f0 41 10 45 12 10 00 00 28 4d 2e 20 4a 61 63 6b 73 6f 6e 29 3b f7
587 Par ch=10 c=6 v=63
594 Par ch=7 c=99 v=1
594 Par ch=3 c=99 v=1
600 Par ch=2 c=99 v=1
603 Par ch=10 c=99 v=24
610 Par ch=7 c=98 v=99
610 Par ch=3 c=98 v=99
623 Par ch=2 c=98 v=99
628 Par ch=7 c=6 v=52
628 Par ch=3 c=6 v=56
629 Par ch=10 c=98 v=40
642 Par ch=2 c=6 v=0
645 Par ch=10 c=6 v=64
658 Par ch=3 c=99 v=1
658 Par ch=2 c=99 v=1
670 Par ch=2 c=98 v=32
671 Par ch=10 c=99 v=29
676 Par ch=3 c=98 v=32
682 Par ch=2 c=6 v=27
692 Par ch=10 c=98 v=36
698 Par ch=10 c=6 v=5
701 Par ch=3 c=6 v=59
711 Par ch=10 c=99 v=29
750 On ch=2 n=60 v=1
760 Off ch=2 n=60 v=1
810 Par ch=10 c=98 v=40
900 Par ch=10 c=6 v=20
1230 On ch=10 n=36 v=105
1230 On ch=10 n=42 v=54
1350 Off ch=10 n=42 v=54
1350 Off ch=10 n=36 v=105
1570 Par ch=10 c=99 v=28
1800 Par ch=10 c=98 v=82
1990 Par ch=10 c=6 v=126
2184 On ch=10 n=42 v=69
2290 Par ch=10 c=99 v=29
2304 Off ch=10 n=42 v=69
2490 Par ch=10 c=98 v=82
2680 Par ch=10 c=6 v=1
3072 On ch=10 n=40 v=113
3072 On ch=10 n=42 v=49
3192 Off ch=10 n=42 v=49
3192 Off ch=10 n=40 v=113
4008 On ch=10 n=42 v=79
4128 Off ch=10 n=42 v=79
5007 On ch=10 n=36 v=105
5007 On ch=10 n=42 v=46
5127 Off ch=10 n=42 v=46
5127 Off ch=10 n=36 v=105
6032 On ch=10 n=42 v=74
6152 Off ch=10 n=42 v=74
6966 On ch=10 n=40 v=113
6966 On ch=10 n=42 v=46
7086 Off ch=10 n=42 v=46
7086 Off ch=10 n=40 v=113
7877 On ch=10 n=42 v=79
7997 Off ch=10 n=42 v=79
8937 On ch=10 n=36 v=105
8937 On ch=10 n=42 v=42
9057 Off ch=10 n=42 v=42
9057 Off ch=10 n=36 v=105
9877 On ch=10 n=42 v=69
9997 Off ch=10 n=42 v=69
10813 On ch=10 n=40 v=112
10813 On ch=10 n=42 v=54
10933 Off ch=10 n=42 v=54
10933 Off ch=10 n=40 v=112
11859 On ch=10 n=42 v=74
11979 Off ch=10 n=42 v=74
12747 On ch=10 n=36 v=105
12747 On ch=10 n=42 v=57
12867 Off ch=10 n=42 v=57
12867 Off ch=10 n=36 v=105
13637 On ch=10 n=42 v=69
13757 Off ch=10 n=42 v=69
14639 On ch=10 n=40 v=113
14639 On ch=10 n=42 v=57
14759 Off ch=10 n=42 v=57
14759 Off ch=10 n=40 v=113
15595 On ch=10 n=42 v=79
15715 Off ch=10 n=42 v=79
16590 On ch=2 n=42 v=127
16650 On ch=11 n=30 v=117
16650 On ch=10 n=36 v=105
16650 On ch=10 n=42 v=54
16650 On ch=10 n=82 v=62
16770 Off ch=10 n=82 v=62
16770 Off ch=10 n=42 v=54
16770 Off ch=10 n=36 v=105
17090 Off ch=2 n=42 v=127
17561 On ch=10 n=42 v=69
17561 On ch=10 n=82 v=55
17610 Off ch=11 n=30 v=117
17617 On ch=2 n=37 v=127
17681 Off ch=10 n=82 v=55
17681 Off ch=10 n=42 v=69
18137 Off ch=2 n=37 v=127
18584 On ch=10 n=40 v=113
18584 On ch=10 n=42 v=49
18584 On ch=10 n=82 v=55
18611 On ch=2 n=40 v=127
18704 Off ch=10 n=82 v=55
18704 Off ch=10 n=42 v=49
18704 Off ch=10 n=40 v=113
19161 Off ch=2 n=40 v=127
19500 On ch=11 n=30 v=117
19500 On ch=10 n=42 v=79
19500 On ch=10 n=82 v=51
19572 On ch=2 n=42 v=127
19620 Off ch=10 n=82 v=51
19620 Off ch=10 n=42 v=79
20082 Off ch=2 n=42 v=127
20434 On ch=2 n=40 v=127
20460 Off ch=11 n=30 v=117
20479 On ch=10 n=36 v=105
20479 On ch=10 n=42 v=46
20479 On ch=10 n=82 v=58
20599 Off ch=10 n=82 v=58
20599 Off ch=10 n=42 v=46
20599 Off ch=10 n=36 v=105
20994 Off ch=2 n=40 v=127
21347 On ch=10 n=42 v=74
21347 On ch=10 n=82 v=47
21467 On ch=2 n=37 v=127
21467 Off ch=10 n=82 v=47
21467 Off ch=10 n=42 v=74
21977 Off ch=2 n=37 v=127
22339 On ch=10 n=40 v=113
22339 On ch=10 n=42 v=46
22339 On ch=10 n=82 v=62
22431 On ch=2 n=35 v=127
22459 Off ch=10 n=82 v=62
22459 Off ch=10 n=42 v=46
22459 Off ch=10 n=40 v=113
23041 Off ch=2 n=35 v=127
23274 On ch=2 n=37 v=127
23367 On ch=10 n=42 v=79
23367 On ch=10 n=82 v=58
23487 Off ch=10 n=82 v=58
23487 Off ch=10 n=42 v=79
23814 Off ch=2 n=37 v=127
24294 On ch=11 n=30 v=117
24294 On ch=10 n=36 v=105
24294 On ch=10 n=42 v=42
24294 On ch=10 n=82 v=56
24345 On ch=2 n=42 v=127
24414 Off ch=10 n=82 v=56
24414 Off ch=10 n=42 v=42
24414 Off ch=10 n=36 v=105
24815 Off ch=2 n=42 v=127
25254 On ch=10 n=42 v=69
25254 On ch=10 n=82 v=46
25254 Off ch=11 n=30 v=117
25283 On ch=2 n=37 v=127
25374 Off ch=10 n=82 v=46
25374 Off ch=10 n=42 v=69
25763 Off ch=2 n=37 v=127
26263 On ch=10 n=40 v=112
26263 On ch=10 n=42 v=54
26263 On ch=10 n=82 v=64
26272 On ch=2 n=40 v=127
26383 Off ch=10 n=82 v=64
26383 Off ch=10 n=42 v=54
26383 Off ch=10 n=40 v=112
26802 Off ch=2 n=40 v=127
27231 On ch=11 n=30 v=117
27231 On ch=10 n=42 v=74
27231 On ch=10 n=82 v=53
27294 On ch=2 n=42 v=127
27351 Off ch=10 n=82 v=53
27351 Off ch=10 n=42 v=74
27754 Off ch=2 n=42 v=127
28147 On ch=2 n=40 v=127
28191 Off ch=11 n=30 v=117
28256 On ch=10 n=36 v=105
28256 On ch=10 n=42 v=57
28256 On ch=10 n=82 v=62
28376 Off ch=10 n=82 v=62
28376 Off ch=10 n=42 v=57
28376 Off ch=10 n=36 v=105
28737 Off ch=2 n=40 v=127
29068 On ch=2 n=37 v=127
29148 On ch=10 n=42 v=69
29148 On ch=10 n=82 v=60
29268 Off ch=10 n=82 v=60
29268 Off ch=10 n=42 v=69
29608 Off ch=2 n=37 v=127
30036 On ch=10 n=40 v=113
30036 On ch=10 n=42 v=57
30036 On ch=10 n=82 v=68
30105 On ch=2 n=35 v=127
30156 Off ch=10 n=82 v=68
30156 Off ch=10 n=42 v=57
30156 Off ch=10 n=40 v=113
30755 Off ch=2 n=35 v=127
31077 On ch=2 n=37 v=127
31080 On ch=10 n=42 v=79
31080 On ch=10 n=82 v=50
31200 Off ch=10 n=82 v=50
31200 Off ch=10 n=42 v=79
31587 Off ch=2 n=37 v=127
32072 On ch=2 n=42 v=127
32093 On ch=11 n=30 v=117
32093 On ch=10 n=36 v=105
32093 On ch=10 n=42 v=54
32093 On ch=10 n=82 v=68
32213 Off ch=10 n=82 v=68
32213 Off ch=10 n=42 v=54
32213 Off ch=10 n=36 v=105
32572 Off ch=2 n=42 v=127
32966 On ch=2 n=37 v=127
32976 On ch=10 n=42 v=69
32976 On ch=10 n=82 v=58
33053 Off ch=11 n=30 v=117
33096 Off ch=10 n=82 v=58
33096 Off ch=10 n=42 v=69
33486 Off ch=2 n=37 v=127
33858 On ch=2 n=40 v=127
33976 On ch=10 n=40 v=113
33976 On ch=10 n=42 v=49
33976 On ch=10 n=82 v=66
34096 Off ch=10 n=82 v=66
34096 Off ch=10 n=42 v=49
34096 Off ch=10 n=40 v=113
34408 Off ch=2 n=40 v=127
34851 On ch=11 n=30 v=117
34851 On ch=10 n=42 v=79
34851 On ch=10 n=82 v=60
34889 On ch=2 n=42 v=127
34971 Off ch=10 n=82 v=60
34971 Off ch=10 n=42 v=79
35399 Off ch=2 n=42 v=127
35738 On ch=2 n=40 v=127
35811 Off ch=11 n=30 v=117
35879 On ch=10 n=36 v=105
35879 On ch=10 n=42 v=46
35879 On ch=10 n=82 v=56
35999 Off ch=10 n=82 v=56
35999 Off ch=10 n=42 v=46
35999 Off ch=10 n=36 v=105
36298 Off ch=2 n=40 v=127
36734 On ch=10 n=42 v=74
36734 On ch=10 n=82 v=60
36749 On ch=2 n=37 v=127
36854 Off ch=10 n=82 v=60
36854 Off ch=10 n=42 v=74
37259 Off ch=2 n=37 v=127
37730 On ch=2 n=35 v=127
37797 On ch=10 n=40 v=113
37797 On ch=10 n=42 v=46
37797 On ch=10 n=82 v=64
37917 Off ch=10 n=82 v=64
37917 Off ch=10 n=42 v=46
37917 Off ch=10 n=40 v=113
38340 Off ch=2 n=35 v=127
38673 On ch=10 n=42 v=79
38673 On ch=10 n=69 v=0
38673 On ch=10 n=82 v=64
38754 On ch=2 n=37 v=127
38793 Off ch=10 n=82 v=64
38793 Off ch=10 n=69 v=0
38793 Off ch=10 n=42 v=79
38940 Par ch=10 c=11 v=127
39060 Par ch=10 c=99 v=28
39150 Par ch=10 c=98 v=69
39280 Par ch=10 c=6 v=126
39294 Off ch=2 n=37 v=127
39631 On ch=2 n=42 v=127
39691 On ch=11 n=30 v=117
39691 On ch=10 n=36 v=105
39691 On ch=10 n=42 v=42
39691 On ch=10 n=69 v=0
39691 On ch=10 n=82 v=66
39811 Off ch=10 n=82 v=66
39811 Off ch=10 n=69 v=0
39811 Off ch=10 n=42 v=42
39811 Off ch=10 n=36 v=105
40101 Off ch=2 n=42 v=127
40578 On ch=10 n=42 v=69
40578 On ch=10 n=69 v=0
40578 On ch=10 n=82 v=64
40651 Off ch=11 n=30 v=117
40698 Off ch=10 n=82 v=64
40698 Off ch=10 n=69 v=0
40698 Off ch=10 n=42 v=69
40700 On ch=2 n=37 v=127
41180 Off ch=2 n=37 v=127
41579 On ch=2 n=40 v=127
41594 On ch=10 n=40 v=112
41594 On ch=10 n=42 v=54
41594 On ch=10 n=69 v=0
41594 On ch=10 n=82 v=62
41714 Off ch=10 n=82 v=62
41714 Off ch=10 n=69 v=0
41714 Off ch=10 n=42 v=54
41714 Off ch=10 n=40 v=112
42109 Off ch=2 n=40 v=127
42453 On ch=2 n=42 v=127
42562 On ch=11 n=30 v=117
42562 On ch=10 n=42 v=74
42562 On ch=10 n=82 v=64
42613 On ch=10 n=69 v=0
42682 Off ch=10 n=82 v=64
42682 Off ch=10 n=42 v=74
42733 Off ch=10 n=69 v=0
42910 Par ch=10 c=99 v=28
42913 Off ch=2 n=42 v=127
43100 Par ch=10 c=98 v=69
43260 Par ch=10 c=6 v=1
43414 On ch=2 n=40 v=127
43522 Off ch=11 n=30 v=117
43533 On ch=10 n=36 v=105
43533 On ch=10 n=42 v=57
43533 On ch=10 n=82 v=64
43653 Off ch=10 n=82 v=64
43653 Off ch=10 n=42 v=57
43653 Off ch=10 n=36 v=105
44004 Off ch=2 n=40 v=127
44412 On ch=10 n=42 v=69
44412 On ch=10 n=82 v=68
44463 On ch=2 n=37 v=127
44532 Off ch=10 n=82 v=68
44532 Off ch=10 n=42 v=69
45003 Off ch=2 n=37 v=127
45304 On ch=2 n=35 v=127
45416 On ch=10 n=40 v=113
45416 On ch=10 n=42 v=57
45416 On ch=10 n=82 v=62
45536 Off ch=10 n=82 v=62
45536 Off ch=10 n=42 v=57
45536 Off ch=10 n=40 v=113
45954 Off ch=2 n=35 v=127
46325 On ch=2 n=37 v=127
46379 On ch=10 n=42 v=79
46379 On ch=10 n=82 v=64
46499 Off ch=10 n=82 v=64
46499 Off ch=10 n=42 v=79
46835 Off ch=2 n=37 v=127
47273 On ch=11 n=30 v=117
47273 On ch=10 n=36 v=105
47273 On ch=10 n=42 v=54
47273 On ch=10 n=82 v=62
47330 On ch=2 n=42 v=127
47393 Off ch=10 n=82 v=62
47393 Off ch=10 n=42 v=54
47393 Off ch=10 n=36 v=105
47830 Off ch=2 n=42 v=127
48233 Off ch=11 n=30 v=117
48298 On ch=10 n=42 v=69
48298 On ch=10 n=82 v=55
48348 On ch=2 n=37 v=127
48418 Off ch=10 n=82 v=55
48418 Off ch=10 n=42 v=69
48868 Off ch=2 n=37 v=127
49269 On ch=10 n=40 v=113
49269 On ch=10 n=42 v=49
49269 On ch=10 n=82 v=55
49290 On ch=2 n=40 v=127
49389 Off ch=10 n=82 v=55
49389 Off ch=10 n=42 v=49
49389 Off ch=10 n=40 v=113
49840 Off ch=2 n=40 v=127
50167 On ch=2 n=42 v=127
50177 On ch=11 n=30 v=117
50177 On ch=10 n=42 v=79
50177 On ch=10 n=82 v=51
50297 Off ch=10 n=82 v=51
50297 Off ch=10 n=42 v=79
50677 Off ch=2 n=42 v=127
51063 On ch=2 n=40 v=127
51137 Off ch=11 n=30 v=117
51154 On ch=10 n=36 v=105
51154 On ch=10 n=42 v=46
51154 On ch=10 n=82 v=58
51274 Off ch=10 n=82 v=58
51274 Off ch=10 n=42 v=46
51274 Off ch=10 n=36 v=105
51623 Off ch=2 n=40 v=127
52017 On ch=10 n=42 v=74
52017 On ch=10 n=82 v=47
52137 Off ch=10 n=82 v=47
52137 Off ch=10 n=42 v=74
52139 On ch=2 n=37 v=127
52649 Off ch=2 n=37 v=127
52988 On ch=2 n=35 v=127
53053 On ch=10 n=40 v=113
53053 On ch=10 n=42 v=46
53053 On ch=10 n=82 v=62
53173 Off ch=10 n=82 v=62
53173 Off ch=10 n=42 v=46
53173 Off ch=10 n=40 v=113
53598 Off ch=2 n=35 v=127
53965 On ch=10 n=42 v=79
53965 On ch=10 n=82 v=58
53969 On ch=2 n=37 v=127
54085 Off ch=10 n=82 v=58
54085 Off ch=10 n=42 v=79
54509 Off ch=2 n=37 v=127
54934 On ch=11 n=30 v=117
54934 On ch=10 n=36 v=105
54934 On ch=10 n=42 v=42
54934 On ch=10 n=82 v=56
55025 On ch=2 n=42 v=127
55054 Off ch=10 n=82 v=56
55054 Off ch=10 n=42 v=42
55054 Off ch=10 n=36 v=105
55495 Off ch=2 n=42 v=127
55894 Off ch=11 n=30 v=117
55904 On ch=2 n=37 v=127
56013 On ch=10 n=42 v=69
56013 On ch=10 n=82 v=46
56133 Off ch=10 n=82 v=46
56133 Off ch=10 n=42 v=69
56384 Off ch=2 n=37 v=127
56839 On ch=2 n=40 v=127
56908 On ch=10 n=40 v=112
56908 On ch=10 n=42 v=54
56908 On ch=10 n=82 v=64
57028 Off ch=10 n=82 v=64
57028 Off ch=10 n=42 v=54
57028 Off ch=10 n=40 v=112
57369 Off ch=2 n=40 v=127
57800 On ch=11 n=30 v=117
57800 On ch=10 n=42 v=74
57800 On ch=10 n=82 v=53
57818 On ch=2 n=42 v=127
57920 Off ch=10 n=82 v=53
57920 Off ch=10 n=42 v=74
58278 Off ch=2 n=42 v=127
58736 On ch=10 n=36 v=105
58736 On ch=10 n=42 v=57
58736 On ch=10 n=82 v=62
58760 Off ch=11 n=30 v=117
58856 Off ch=10 n=82 v=62
58856 Off ch=10 n=42 v=57
58856 Off ch=10 n=36 v=105
58867 On ch=2 n=40 v=127
59457 Off ch=2 n=40 v=127
59750 On ch=10 n=42 v=69
59750 On ch=10 n=82 v=60
59868 On ch=2 n=37 v=127
59870 Off ch=10 n=82 v=60
59870 Off ch=10 n=42 v=69
60408 Off ch=2 n=37 v=127
60729 On ch=2 n=35 v=127
60821 On ch=10 n=40 v=113
60821 On ch=10 n=42 v=57
60821 On ch=10 n=82 v=68
60941 Off ch=10 n=82 v=68
60941 Off ch=10 n=42 v=57
60941 Off ch=10 n=40 v=113
61379 Off ch=2 n=35 v=127
61661 On ch=2 n=37 v=127
61698 On ch=10 n=42 v=79
61698 On ch=10 n=82 v=50
61818 Off ch=10 n=82 v=50
61818 Off ch=10 n=42 v=79
62171 Off ch=2 n=37 v=127
62571 On ch=11 n=30 v=117
62571 On ch=10 n=36 v=105
62571 On ch=10 n=42 v=54
62571 On ch=10 n=82 v=68
62656 On ch=2 n=42 v=127
62691 Off ch=10 n=82 v=68
62691 Off ch=10 n=42 v=54
62691 Off ch=10 n=36 v=105
63156 Off ch=2 n=42 v=127
63531 Off ch=11 n=30 v=117
63583 On ch=2 n=37 v=127
63595 On ch=10 n=42 v=69
63595 On ch=10 n=82 v=58
63715 Off ch=10 n=82 v=58
63715 Off ch=10 n=42 v=69
64103 Off ch=2 n=37 v=127
64539 On ch=10 n=40 v=113
64539 On ch=10 n=42 v=49
64539 On ch=10 n=82 v=66
64659 Off ch=10 n=82 v=66
64659 Off ch=10 n=42 v=49
64659 Off ch=10 n=40 v=113
64661 On ch=2 n=40 v=127
65211 Off ch=2 n=40 v=127
65543 On ch=2 n=42 v=127
65569 On ch=11 n=30 v=117
65569 On ch=10 n=42 v=79
65569 On ch=10 n=82 v=60
65689 Off ch=10 n=82 v=60
65689 Off ch=10 n=42 v=79
66053 Off ch=2 n=42 v=127
66482 On ch=2 n=40 v=127
66527 On ch=10 n=36 v=105
66527 On ch=10 n=42 v=46
66527 On ch=10 n=82 v=56
66529 Off ch=11 n=30 v=117
66647 Off ch=10 n=82 v=56
66647 Off ch=10 n=42 v=46
66647 Off ch=10 n=36 v=105
67042 Off ch=2 n=40 v=127
67464 On ch=10 n=42 v=74
67464 On ch=10 n=82 v=60
67566 On ch=2 n=37 v=127
67584 Off ch=10 n=82 v=60
67584 Off ch=10 n=42 v=74
68076 Off ch=2 n=37 v=127
68419 On ch=2 n=35 v=127
68493 On ch=10 n=40 v=113
68493 On ch=10 n=42 v=46
68493 On ch=10 n=82 v=64
68613 Off ch=10 n=82 v=64
68613 Off ch=10 n=42 v=46
68613 Off ch=10 n=40 v=113
69029 Off ch=2 n=35 v=127
69388 On ch=2 n=37 v=127
69391 On ch=10 n=42 v=79
69391 On ch=10 n=82 v=64
69511 Off ch=10 n=82 v=64
69511 Off ch=10 n=42 v=79
69858 Off ch=2 n=37 v=127
69990 Par ch=2 c=11 v=127
69990 Par ch=2 c=99 v=1
69990 Par ch=2 c=98 v=33
70030 Par ch=2 c=6 v=70
70276 On ch=11 n=30 v=117
70276 On ch=10 n=36 v=105
70276 On ch=10 n=42 v=42
70276 On ch=3 n=57 v=96
70276 On ch=3 n=61 v=96
70276 On ch=3 n=66 v=96
70276 On ch=10 n=82 v=66
70396 Off ch=10 n=82 v=66
70396 Off ch=10 n=42 v=42
70396 Off ch=10 n=36 v=105
70397 On ch=2 n=42 v=127
70756 Off ch=3 n=57 v=96
70756 Off ch=3 n=61 v=96
70756 Off ch=3 n=66 v=96
70867 Off ch=2 n=42 v=127
71236 Off ch=11 n=30 v=117
71294 On ch=2 n=37 v=127
71360 On ch=10 n=42 v=69
71360 On ch=10 n=82 v=64
71480 Off ch=10 n=82 v=64
71480 Off ch=10 n=42 v=69
71774 Off ch=2 n=37 v=127
72246 On ch=10 n=40 v=112
72246 On ch=10 n=42 v=54
72246 On ch=10 n=82 v=62
72295 On ch=2 n=40 v=127
72366 Off ch=10 n=82 v=62
72366 Off ch=10 n=42 v=54
72366 Off ch=10 n=40 v=112
72825 Off ch=2 n=40 v=127
73217 On ch=11 n=30 v=117
73217 On ch=10 n=42 v=74
73217 On ch=3 n=59 v=96
73217 On ch=3 n=63 v=96
73217 On ch=3 n=68 v=96
73217 On ch=10 n=82 v=64
73230 On ch=2 n=42 v=127
73337 Off ch=10 n=82 v=64
73337 Off ch=10 n=42 v=74
73690 Off ch=2 n=42 v=127
73697 Off ch=3 n=68 v=96
73697 Off ch=3 n=63 v=96
73697 Off ch=3 n=59 v=96
74172 On ch=2 n=40 v=127
74177 On ch=10 n=36 v=105
74177 On ch=10 n=42 v=57
74177 On ch=10 n=82 v=64
74177 Off ch=11 n=30 v=117
74297 Off ch=10 n=82 v=64
74297 Off ch=10 n=42 v=57
74297 Off ch=10 n=36 v=105
74762 Off ch=2 n=40 v=127
75100 On ch=2 n=37 v=127
75186 On ch=10 n=42 v=69
75186 On ch=10 n=82 v=68
75306 Off ch=10 n=82 v=68
75306 Off ch=10 n=42 v=69
75640 Off ch=2 n=37 v=127
76065 On ch=10 n=40 v=113
76065 On ch=10 n=42 v=57
76065 On ch=10 n=82 v=62
76112 On ch=2 n=35 v=127
76185 Off ch=10 n=82 v=62
76185 Off ch=10 n=42 v=57
76185 Off ch=10 n=40 v=113
76762 Off ch=2 n=35 v=127
77006 On ch=10 n=42 v=79
77006 On ch=10 n=82 v=64
77007 On ch=2 n=37 v=127
77126 Off ch=10 n=82 v=64
77126 Off ch=10 n=42 v=79
77517 Off ch=2 n=37 v=127
77991 On ch=2 n=42 v=127
78080 On ch=11 n=30 v=117
78080 On ch=10 n=36 v=105
78080 On ch=10 n=42 v=54
78080 On ch=3 n=61 v=96
78080 On ch=3 n=64 v=96
78080 On ch=3 n=69 v=96
78080 On ch=10 n=82 v=62
78200 Off ch=10 n=82 v=62
78200 Off ch=10 n=42 v=54
78200 Off ch=10 n=36 v=105
78491 Off ch=2 n=42 v=127
78560 Off ch=3 n=69 v=96
78560 Off ch=3 n=64 v=96
78560 Off ch=3 n=61 v=96
78929 On ch=10 n=42 v=69
78929 On ch=10 n=82 v=55
79029 On ch=2 n=37 v=127
79040 Off ch=11 n=30 v=117
79049 Off ch=10 n=82 v=55
79049 Off ch=10 n=42 v=69
79549 Off ch=2 n=37 v=127
79882 On ch=2 n=40 v=127
79918 On ch=10 n=40 v=113
79918 On ch=10 n=42 v=49
79918 On ch=10 n=82 v=55
80038 Off ch=10 n=82 v=55
80038 Off ch=10 n=42 v=49
80038 Off ch=10 n=40 v=113
80432 Off ch=2 n=40 v=127
80793 On ch=11 n=30 v=117
80793 On ch=10 n=42 v=79
80793 On ch=3 n=59 v=96
80793 On ch=3 n=63 v=96
80793 On ch=3 n=68 v=96
80793 On ch=10 n=82 v=51
80898 On ch=2 n=42 v=127
80913 Off ch=10 n=82 v=51
80913 Off ch=10 n=42 v=79
81273 Off ch=3 n=68 v=96
81273 Off ch=3 n=63 v=96
81273 Off ch=3 n=59 v=96
81408 Off ch=2 n=42 v=127
81753 Off ch=11 n=30 v=117
81773 On ch=2 n=40 v=127
81870 On ch=10 n=36 v=105
81870 On ch=10 n=42 v=46
81870 On ch=10 n=82 v=58
81990 Off ch=10 n=82 v=58
81990 Off ch=10 n=42 v=46
81990 Off ch=10 n=36 v=105
82333 Off ch=2 n=40 v=127
82736 On ch=2 n=37 v=127
82767 On ch=10 n=42 v=74
82767 On ch=10 n=82 v=47
82887 Off ch=10 n=82 v=47
82887 Off ch=10 n=42 v=74
83246 Off ch=2 n=37 v=127
83746 On ch=2 n=35 v=127
83754 On ch=10 n=40 v=113
83754 On ch=10 n=42 v=46
83754 On ch=10 n=82 v=62
83874 Off ch=10 n=82 v=62
83874 Off ch=10 n=42 v=46
83874 Off ch=10 n=40 v=113
84356 Off ch=2 n=35 v=127
84695 On ch=10 n=42 v=79
84695 On ch=10 n=82 v=58
84714 On ch=2 n=37 v=127
84815 Off ch=10 n=82 v=58
84815 Off ch=10 n=42 v=79
85254 Off ch=2 n=37 v=127
85604 On ch=2 n=42 v=127
85636 On ch=11 n=30 v=117
85636 On ch=10 n=36 v=105
85636 On ch=10 n=42 v=42
85636 On ch=3 n=57 v=96
85636 On ch=3 n=61 v=96
85636 On ch=3 n=66 v=96
85636 On ch=10 n=82 v=56
85756 Off ch=10 n=82 v=56
85756 Off ch=10 n=42 v=42
85756 Off ch=10 n=36 v=105
86074 Off ch=2 n=42 v=127
86116 Off ch=3 n=66 v=96
86116 Off ch=3 n=61 v=96
86116 Off ch=3 n=57 v=96
86596 Off ch=11 n=30 v=117
86661 On ch=10 n=42 v=69
86661 On ch=10 n=82 v=46
86680 On ch=2 n=37 v=127
86781 Off ch=10 n=82 v=46
86781 Off ch=10 n=42 v=69
87160 Off ch=2 n=37 v=127
87545 On ch=2 n=40 v=127
87561 On ch=10 n=40 v=112
87561 On ch=10 n=42 v=54
87561 On ch=10 n=82 v=64
87681 Off ch=10 n=82 v=64
87681 Off ch=10 n=42 v=54
87681 Off ch=10 n=40 v=112
88075 Off ch=2 n=40 v=127
88510 On ch=2 n=42 v=127
88541 On ch=11 n=30 v=117
88541 On ch=10 n=42 v=74
88541 On ch=3 n=59 v=96
88541 On ch=3 n=63 v=96
88541 On ch=3 n=68 v=96
88541 On ch=10 n=82 v=53
88661 Off ch=10 n=82 v=53
88661 Off ch=10 n=42 v=74
88970 Off ch=2 n=42 v=127
89021 Off ch=3 n=68 v=96
89021 Off ch=3 n=63 v=96
89021 Off ch=3 n=59 v=96
89501 Off ch=11 n=30 v=117
89525 On ch=10 n=36 v=105
89525 On ch=10 n=42 v=57
89525 On ch=10 n=82 v=62
89532 On ch=2 n=40 v=127
89645 Off ch=10 n=82 v=62
89645 Off ch=10 n=42 v=57
89645 Off ch=10 n=36 v=105
90122 Off ch=2 n=40 v=127
90486 On ch=10 n=42 v=69
90486 On ch=10 n=82 v=60
90495 On ch=2 n=37 v=127
90606 Off ch=10 n=82 v=60
90606 Off ch=10 n=42 v=69
91035 Off ch=2 n=37 v=127
91458 On ch=10 n=40 v=113
91458 On ch=10 n=42 v=57
91458 On ch=10 n=82 v=68
91467 On ch=2 n=35 v=127
91578 Off ch=10 n=82 v=68
91578 Off ch=10 n=42 v=57
91578 Off ch=10 n=40 v=113
92117 Off ch=2 n=35 v=127
92440 On ch=10 n=42 v=79
92440 On ch=10 n=82 v=50
92476 On ch=2 n=37 v=127
92560 Off ch=10 n=82 v=50
92560 Off ch=10 n=42 v=79
92986 Off ch=2 n=37 v=127
93362 On ch=11 n=30 v=117
93362 On ch=10 n=36 v=105
93362 On ch=10 n=42 v=54
93362 On ch=3 n=61 v=96
93362 On ch=3 n=64 v=96
93362 On ch=3 n=69 v=96
93362 On ch=10 n=82 v=68
93405 On ch=2 n=42 v=127
93482 Off ch=10 n=82 v=68
93482 Off ch=10 n=42 v=54
93482 Off ch=10 n=36 v=105
93842 Off ch=3 n=69 v=96
93842 Off ch=3 n=64 v=96
93842 Off ch=3 n=61 v=96
93905 Off ch=2 n=42 v=127
94243 On ch=2 n=37 v=127
94322 Off ch=11 n=30 v=117
94391 On ch=10 n=42 v=69
94391 On ch=10 n=82 v=58
94511 Off ch=10 n=82 v=58
94511 Off ch=10 n=42 v=69
94763 Off ch=2 n=37 v=127
95281 On ch=2 n=40 v=127
95285 On ch=10 n=40 v=113
95285 On ch=10 n=42 v=49
95285 On ch=10 n=82 v=66
95285 On ch=10 n=85 v=94
95405 Off ch=10 n=85 v=94
95405 Off ch=10 n=82 v=66
95405 Off ch=10 n=42 v=49
95405 Off ch=10 n=40 v=113
95831 Off ch=2 n=40 v=127
96164 On ch=11 n=30 v=117
96164 On ch=10 n=42 v=79
96164 On ch=3 n=59 v=96
96164 On ch=3 n=63 v=96
96164 On ch=3 n=68 v=96
96164 On ch=10 n=82 v=60
96284 Off ch=10 n=82 v=60
96284 Off ch=10 n=42 v=79
96313 On ch=2 n=42 v=127
96644 Off ch=3 n=68 v=96
96644 Off ch=3 n=63 v=96
96644 Off ch=3 n=59 v=96
96823 Off ch=2 n=42 v=127
97124 Off ch=11 n=30 v=117
97174 On ch=2 n=40 v=127
97213 On ch=10 n=36 v=105
97213 On ch=10 n=42 v=46
97213 On ch=10 n=82 v=56
97333 Off ch=10 n=82 v=56
97333 Off ch=10 n=42 v=46
97333 Off ch=10 n=36 v=105
97734 Off ch=2 n=40 v=127
98201 On ch=2 n=37 v=127
98255 On ch=10 n=42 v=74
98255 On ch=10 n=82 v=60
98375 Off ch=10 n=82 v=60
98375 Off ch=10 n=42 v=74
98711 Off ch=2 n=37 v=127
99102 On ch=10 n=40 v=113
99102 On ch=10 n=42 v=46
99102 On ch=10 n=82 v=64
99102 On ch=10 n=85 v=94
99158 On ch=2 n=35 v=127
99222 Off ch=10 n=85 v=94
99222 Off ch=10 n=82 v=64
99222 Off ch=10 n=42 v=46
99222 Off ch=10 n=40 v=113
99768 Off ch=2 n=35 v=127
100099 On ch=10 n=42 v=79
100099 On ch=10 n=82 v=64
100130 On ch=2 n=37 v=127
100219 Off ch=10 n=82 v=64
100219 Off ch=10 n=42 v=79
100670 Off ch=2 n=37 v=127
101073 On ch=2 n=42 v=127
101110 On ch=10 n=36 v=105
101110 On ch=10 n=42 v=42
101110 On ch=3 n=57 v=96
101110 On ch=3 n=61 v=96
101110 On ch=3 n=66 v=96
101110 On ch=10 n=82 v=66
101230 Off ch=10 n=82 v=66
101230 Off ch=10 n=42 v=42
101230 Off ch=10 n=36 v=105
101543 Off ch=2 n=42 v=127
101590 Off ch=3 n=57 v=96
101590 Off ch=3 n=61 v=96
101590 Off ch=3 n=66 v=96
101978 On ch=2 n=37 v=127
102037 On ch=10 n=42 v=69
102037 On ch=10 n=82 v=64
102157 Off ch=10 n=82 v=64
102157 Off ch=10 n=42 v=69
102458 Off ch=2 n=37 v=127
102881 On ch=2 n=40 v=127
102917 On ch=10 n=40 v=112
102917 On ch=10 n=42 v=54
102917 On ch=10 n=82 v=62
103037 Off ch=10 n=82 v=62
103037 Off ch=10 n=42 v=54
103037 Off ch=10 n=40 v=112
103411 Off ch=2 n=40 v=127
103820 On ch=10 n=42 v=74
103820 On ch=3 n=59 v=96
103820 On ch=3 n=63 v=96
103820 On ch=3 n=68 v=96
103820 On ch=10 n=82 v=64
103898 On ch=2 n=42 v=127
103940 Off ch=10 n=82 v=64
103940 Off ch=10 n=42 v=74
104300 Off ch=3 n=68 v=96
104300 Off ch=3 n=63 v=96
104300 Off ch=3 n=59 v=96
104358 Off ch=2 n=42 v=127
104837 On ch=2 n=40 v=127
104849 On ch=10 n=36 v=105
104849 On ch=10 n=42 v=57
104849 On ch=10 n=82 v=64
104969 Off ch=10 n=82 v=64
104969 Off ch=10 n=42 v=57
104969 Off ch=10 n=36 v=105
105427 Off ch=2 n=40 v=127
105761 On ch=2 n=37 v=127
105810 On ch=10 n=42 v=69
105810 On ch=10 n=82 v=68
105930 Off ch=10 n=82 v=68
105930 Off ch=10 n=42 v=69
106301 Off ch=2 n=37 v=127
106764 On ch=10 n=40 v=113
106764 On ch=10 n=42 v=57
106764 On ch=10 n=82 v=62
106797 On ch=2 n=35 v=127
106884 Off ch=10 n=82 v=62
106884 Off ch=10 n=42 v=57
106884 Off ch=10 n=40 v=113
107447 Off ch=2 n=35 v=127
107697 On ch=10 n=42 v=79
107697 On ch=10 n=82 v=64
107817 Off ch=10 n=82 v=64
107817 Off ch=10 n=42 v=79
107818 On ch=2 n=37 v=127
108328 Off ch=2 n=37 v=127
108718 On ch=10 n=36 v=105
108718 On ch=10 n=42 v=54
108718 On ch=3 n=61 v=96
108718 On ch=3 n=64 v=96
108718 On ch=3 n=69 v=96
108718 On ch=10 n=82 v=62
108744 On ch=2 n=42 v=127
108838 Off ch=10 n=82 v=62
108838 Off ch=10 n=42 v=54
108838 Off ch=10 n=36 v=105
109198 Off ch=3 n=69 v=96
109198 Off ch=3 n=64 v=96
109198 Off ch=3 n=61 v=96
109244 Off ch=2 n=42 v=127
109597 On ch=2 n=37 v=127
109769 On ch=10 n=42 v=69
109769 On ch=10 n=82 v=55
109889 Off ch=10 n=82 v=55
109889 Off ch=10 n=42 v=69
110117 Off ch=2 n=37 v=127
110633 On ch=2 n=40 v=127
110662 On ch=10 n=40 v=113
110662 On ch=10 n=42 v=49
110662 On ch=10 n=82 v=55
110782 Off ch=10 n=82 v=55
110782 Off ch=10 n=42 v=49
110782 Off ch=10 n=40 v=113
111183 Off ch=2 n=40 v=127
111591 On ch=10 n=42 v=79
111591 On ch=3 n=59 v=96
111591 On ch=3 n=63 v=96
111591 On ch=3 n=68 v=96
111591 On ch=10 n=82 v=51
111646 On ch=2 n=42 v=127
111711 Off ch=10 n=82 v=51
111711 Off ch=10 n=42 v=79
112071 Off ch=3 n=68 v=96
112071 Off ch=3 n=63 v=96
112071 Off ch=3 n=59 v=96
112156 Off ch=2 n=42 v=127
112550 On ch=10 n=36 v=105
112550 On ch=10 n=42 v=46
112550 On ch=10 n=82 v=58
112593 On ch=2 n=40 v=127
112670 Off ch=10 n=82 v=58
112670 Off ch=10 n=42 v=46
112670 Off ch=10 n=36 v=105
113153 Off ch=2 n=40 v=127
113615 On ch=10 n=42 v=74
113615 On ch=10 n=82 v=47
113616 On ch=2 n=37 v=127
113735 Off ch=10 n=82 v=47
113735 Off ch=10 n=42 v=74
114126 Off ch=2 n=37 v=127
114468 On ch=2 n=35 v=127
114592 On ch=10 n=40 v=113
114592 On ch=10 n=42 v=46
114592 On ch=10 n=82 v=62
114712 Off ch=10 n=82 v=62
114712 Off ch=10 n=42 v=46
114712 Off ch=10 n=40 v=113
115078 Off ch=2 n=35 v=127
115439 On ch=10 n=42 v=79
115439 On ch=10 n=82 v=58
115496 On ch=2 n=37 v=127
115559 Off ch=10 n=82 v=58
115559 Off ch=10 n=42 v=79
116036 Off ch=2 n=37 v=127
116389 On ch=2 n=42 v=127
116493 On ch=10 n=36 v=105
116493 On ch=10 n=42 v=42
116493 On ch=3 n=57 v=96
116493 On ch=3 n=61 v=96
116493 On ch=3 n=66 v=96
116493 On ch=10 n=82 v=56
116613 Off ch=10 n=82 v=56
116613 Off ch=10 n=42 v=42
116613 Off ch=10 n=36 v=105
116859 Off ch=2 n=42 v=127
116973 Off ch=3 n=66 v=96
116973 Off ch=3 n=61 v=96
116973 Off ch=3 n=57 v=96
117387 On ch=10 n=42 v=69
117387 On ch=10 n=82 v=46
117444 On ch=2 n=37 v=127
117507 Off ch=10 n=82 v=46
117507 Off ch=10 n=42 v=69
117924 Off ch=2 n=37 v=127
118309 On ch=2 n=40 v=127
118319 On ch=10 n=40 v=112
118319 On ch=10 n=42 v=54
118319 On ch=10 n=82 v=64
118439 Off ch=10 n=82 v=64
118439 Off ch=10 n=42 v=54
118439 Off ch=10 n=40 v=112
118839 Off ch=2 n=40 v=127
119282 On ch=2 n=42 v=127
119303 On ch=10 n=42 v=74
119303 On ch=3 n=59 v=96
119303 On ch=3 n=63 v=96
119303 On ch=3 n=68 v=96
119303 On ch=10 n=82 v=53
119423 Off ch=10 n=82 v=53
119423 Off ch=10 n=42 v=74
119742 Off ch=2 n=42 v=127
119783 Off ch=3 n=68 v=96
119783 Off ch=3 n=63 v=96
119783 Off ch=3 n=59 v=96
120233 On ch=2 n=40 v=127
120290 On ch=10 n=36 v=105
120290 On ch=10 n=42 v=57
120290 On ch=10 n=82 v=62
120410 Off ch=10 n=82 v=62
120410 Off ch=10 n=42 v=57
120410 Off ch=10 n=36 v=105
120823 Off ch=2 n=40 v=127
121186 On ch=2 n=37 v=127
121233 On ch=10 n=42 v=69
121233 On ch=10 n=82 v=60
121353 Off ch=10 n=82 v=60
121353 Off ch=10 n=42 v=69
121726 Off ch=2 n=37 v=127
122167 On ch=10 n=40 v=113
122167 On ch=10 n=42 v=57
122167 On ch=10 n=82 v=68
122202 On ch=2 n=35 v=127
122287 Off ch=10 n=82 v=68
122287 Off ch=10 n=42 v=57
122287 Off ch=10 n=40 v=113
122852 Off ch=2 n=35 v=127
123147 On ch=10 n=42 v=79
123147 On ch=10 n=82 v=50
123200 On ch=2 n=37 v=127
123267 Off ch=10 n=82 v=50
123267 Off ch=10 n=42 v=79
123710 Off ch=2 n=37 v=127
124061 On ch=2 n=42 v=127
124112 On ch=10 n=36 v=105
124112 On ch=10 n=42 v=54
124112 On ch=3 n=61 v=96
124112 On ch=3 n=64 v=96
124112 On ch=3 n=69 v=96
124112 On ch=10 n=82 v=68
124232 Off ch=10 n=82 v=68
124232 Off ch=10 n=42 v=54
124232 Off ch=10 n=36 v=105
124561 Off ch=2 n=42 v=127
124592 Off ch=3 n=69 v=96
124592 Off ch=3 n=64 v=96
124592 Off ch=3 n=61 v=96
125054 On ch=2 n=37 v=127
125054 On ch=10 n=42 v=69
125054 On ch=10 n=82 v=58
125174 Off ch=10 n=82 v=58
125174 Off ch=10 n=42 v=69
125574 Off ch=2 n=37 v=127
125977 On ch=2 n=40 v=127
126030 On ch=10 n=40 v=113
126030 On ch=10 n=42 v=49
126030 On ch=10 n=82 v=66
126150 Off ch=10 n=82 v=66
126150 Off ch=10 n=42 v=49
126150 Off ch=10 n=40 v=113
126527 Off ch=2 n=40 v=127
126954 On ch=10 n=42 v=79
126954 On ch=3 n=59 v=96
126954 On ch=3 n=63 v=96
126954 On ch=3 n=68 v=96
126954 On ch=10 n=82 v=60
126992 On ch=2 n=42 v=127
127074 Off ch=10 n=82 v=60
127074 Off ch=10 n=42 v=79
127434 Off ch=3 n=68 v=96
127434 Off ch=3 n=63 v=96
127434 Off ch=3 n=59 v=96
127502 Off ch=2 n=42 v=127
127858 On ch=2 n=40 v=127
128029 On ch=10 n=36 v=105
128029 On ch=10 n=42 v=46
128029 On ch=10 n=82 v=56
128149 Off ch=10 n=82 v=56
128149 Off ch=10 n=42 v=46
128149 Off ch=10 n=36 v=105
128418 Off ch=2 n=40 v=127
128874 On ch=10 n=42 v=74
128874 On ch=10 n=82 v=60
128945 On ch=2 n=37 v=127
128994 Off ch=10 n=82 v=60
128994 Off ch=10 n=42 v=74
129455 Off ch=2 n=37 v=127
129881 On ch=2 n=35 v=127
129937 On ch=10 n=40 v=113
129937 On ch=10 n=42 v=46
129937 On ch=10 n=82 v=64
130057 Off ch=10 n=82 v=64
130057 Off ch=10 n=42 v=46
130057 Off ch=10 n=40 v=113
130491 Off ch=2 n=35 v=127
130860 On ch=10 n=42 v=79
130860 On ch=10 n=82 v=64
130906 On ch=2 n=37 v=127
130980 Off ch=10 n=82 v=64
130980 Off ch=10 n=42 v=79
131446 Off ch=2 n=37 v=127
131805 On ch=10 n=36 v=105
131805 On ch=10 n=42 v=42
131805 On ch=3 n=57 v=96
131805 On ch=3 n=62 v=96
131805 On ch=3 n=66 v=96
131805 On ch=10 n=82 v=66
131825 On ch=2 n=47 v=127
131925 Off ch=10 n=82 v=66
131925 Off ch=10 n=42 v=42
131925 Off ch=10 n=36 v=105
132285 Off ch=3 n=66 v=96
132285 Off ch=3 n=57 v=96
132285 Off ch=3 n=62 v=96
132305 Off ch=2 n=47 v=127
132782 On ch=2 n=42 v=127
132833 On ch=10 n=42 v=69
132833 On ch=10 n=82 v=64
132953 Off ch=10 n=82 v=64
132953 Off ch=10 n=42 v=69
133132 Off ch=2 n=42 v=127
133784 On ch=2 n=45 v=127
133823 On ch=10 n=40 v=112
133823 On ch=10 n=42 v=54
133823 On ch=10 n=82 v=62
133943 Off ch=10 n=82 v=62
133943 Off ch=10 n=42 v=54
133943 Off ch=10 n=40 v=112
134304 Off ch=2 n=45 v=127
134684 On ch=10 n=42 v=74
134684 On ch=3 n=57 v=96
134684 On ch=3 n=62 v=96
134684 On ch=3 n=66 v=96
134684 On ch=10 n=82 v=64
134708 On ch=2 n=47 v=127
134804 Off ch=10 n=82 v=64
134804 Off ch=10 n=42 v=74
135164 Off ch=3 n=62 v=96
135164 Off ch=3 n=66 v=96
135164 Off ch=3 n=57 v=96
135408 Off ch=2 n=47 v=127
135664 On ch=10 n=36 v=105
135664 On ch=10 n=42 v=57
135664 On ch=10 n=82 v=64
135784 Off ch=10 n=82 v=64
135784 Off ch=10 n=42 v=57
135784 Off ch=10 n=36 v=105
136647 On ch=10 n=42 v=69
136647 On ch=10 n=82 v=68
136678 On ch=2 n=42 v=127
136767 Off ch=10 n=82 v=68
136767 Off ch=10 n=42 v=69
137238 Off ch=2 n=42 v=127
137556 On ch=10 n=40 v=113
137556 On ch=10 n=42 v=57
137556 On ch=10 n=82 v=62
137558 On ch=2 n=40 v=127
137676 Off ch=10 n=82 v=62
137676 Off ch=10 n=42 v=57
137676 Off ch=10 n=40 v=113
138158 Off ch=2 n=40 v=127
138504 On ch=2 n=42 v=127
138508 On ch=10 n=42 v=79
138508 On ch=10 n=82 v=64
138628 Off ch=10 n=82 v=64
138628 Off ch=10 n=42 v=79
139024 Off ch=2 n=42 v=127
139389 On ch=10 n=36 v=105
139389 On ch=10 n=42 v=54
139389 On ch=3 n=57 v=96
139389 On ch=3 n=62 v=96
139389 On ch=3 n=66 v=96
139389 On ch=10 n=82 v=62
139462 On ch=2 n=47 v=127
139509 Off ch=10 n=82 v=62
139509 Off ch=10 n=42 v=54
139509 Off ch=10 n=36 v=105
139869 Off ch=3 n=66 v=96
139869 Off ch=3 n=62 v=96
139869 Off ch=3 n=57 v=96
139952 Off ch=2 n=47 v=127
140340 On ch=2 n=42 v=127
140463 On ch=10 n=42 v=69
140463 On ch=10 n=82 v=55
140583 Off ch=10 n=82 v=55
140583 Off ch=10 n=42 v=69
140840 Off ch=2 n=42 v=127
141343 On ch=10 n=40 v=113
141343 On ch=10 n=42 v=49
141343 On ch=10 n=82 v=55
141355 On ch=2 n=45 v=127
141463 Off ch=10 n=82 v=55
141463 Off ch=10 n=42 v=49
141463 Off ch=10 n=40 v=113
141925 Off ch=2 n=45 v=127
142321 On ch=2 n=47 v=127
142324 On ch=10 n=42 v=79
142324 On ch=3 n=57 v=96
142324 On ch=3 n=62 v=96
142324 On ch=3 n=66 v=96
142324 On ch=10 n=82 v=51
142444 Off ch=10 n=82 v=51
142444 Off ch=10 n=42 v=79
142804 Off ch=3 n=66 v=96
142804 Off ch=3 n=62 v=96
142804 Off ch=3 n=57 v=96
143001 Off ch=2 n=47 v=127
143300 On ch=10 n=36 v=105
143300 On ch=10 n=42 v=46
143300 On ch=10 n=82 v=58
143420 Off ch=10 n=82 v=58
143420 Off ch=10 n=42 v=46
143420 Off ch=10 n=36 v=105
144265 On ch=2 n=42 v=127
144271 On ch=10 n=42 v=74
144271 On ch=10 n=82 v=47
144391 Off ch=10 n=82 v=47
144391 Off ch=10 n=42 v=74
144895 Off ch=2 n=42 v=127
145201 On ch=10 n=40 v=113
145201 On ch=10 n=42 v=46
145201 On ch=10 n=82 v=62
145202 On ch=2 n=40 v=127
145321 Off ch=10 n=82 v=62
145321 Off ch=10 n=42 v=46
145321 Off ch=10 n=40 v=113
145802 Off ch=2 n=40 v=127
146166 On ch=2 n=37 v=127
146193 On ch=10 n=42 v=79
146193 On ch=10 n=82 v=58
146313 Off ch=10 n=82 v=58
146313 Off ch=10 n=42 v=79
146796 Off ch=2 n=37 v=127
147092 On ch=10 n=36 v=105
147092 On ch=10 n=42 v=42
147092 On ch=3 n=57 v=96
147092 On ch=3 n=61 v=96
147092 On ch=3 n=66 v=96
147092 On ch=10 n=82 v=56
147179 On ch=2 n=42 v=127
147212 Off ch=10 n=82 v=56
147212 Off ch=10 n=42 v=42
147212 Off ch=10 n=36 v=105
147572 Off ch=3 n=57 v=96
147572 Off ch=3 n=61 v=96
147572 Off ch=3 n=66 v=96
147679 Off ch=2 n=42 v=127
148053 On ch=2 n=37 v=127
148117 On ch=10 n=42 v=69
148117 On ch=10 n=82 v=46
148237 Off ch=10 n=82 v=46
148237 Off ch=10 n=42 v=69
148573 Off ch=2 n=37 v=127
149021 On ch=2 n=40 v=127
149043 On ch=10 n=40 v=112
149043 On ch=10 n=42 v=54
149043 On ch=10 n=82 v=64
149163 Off ch=10 n=82 v=64
149163 Off ch=10 n=42 v=54
149163 Off ch=10 n=40 v=112
149571 Off ch=2 n=40 v=127
150056 On ch=10 n=42 v=74
150056 On ch=3 n=59 v=96
150056 On ch=3 n=63 v=96
150056 On ch=3 n=68 v=96
150056 On ch=10 n=82 v=53
150057 On ch=2 n=42 v=127
150176 Off ch=10 n=82 v=53
150176 Off ch=10 n=42 v=74
150536 Off ch=3 n=68 v=96
150536 Off ch=3 n=63 v=96
150536 Off ch=3 n=59 v=96
150567 Off ch=2 n=42 v=127
150929 On ch=2 n=40 v=127
150990 On ch=10 n=36 v=105
150990 On ch=10 n=42 v=57
150990 On ch=10 n=82 v=62
151110 Off ch=10 n=82 v=62
151110 Off ch=10 n=42 v=57
151110 Off ch=10 n=36 v=105
151489 Off ch=2 n=40 v=127
151866 On ch=2 n=37 v=127
151941 On ch=10 n=42 v=69
151941 On ch=10 n=82 v=60
152061 Off ch=10 n=82 v=60
152061 Off ch=10 n=42 v=69
152376 Off ch=2 n=37 v=127
152834 On ch=10 n=40 v=113
152834 On ch=10 n=42 v=57
152834 On ch=10 n=82 v=68
152926 On ch=2 n=35 v=127
152954 Off ch=10 n=82 v=68
152954 Off ch=10 n=42 v=57
152954 Off ch=10 n=40 v=113
153536 Off ch=2 n=35 v=127
153765 On ch=10 n=42 v=79
153765 On ch=10 n=82 v=50
153794 On ch=2 n=37 v=127
153885 Off ch=10 n=82 v=50
153885 Off ch=10 n=42 v=79
154334 Off ch=2 n=37 v=127
154756 On ch=2 n=42 v=127
154821 On ch=10 n=36 v=105
154821 On ch=10 n=42 v=54
154821 On ch=3 n=61 v=96
154821 On ch=3 n=64 v=96
154821 On ch=3 n=69 v=96
154821 On ch=10 n=82 v=68
154941 Off ch=10 n=82 v=68
154941 Off ch=10 n=42 v=54
154941 Off ch=10 n=36 v=105
155226 Off ch=2 n=42 v=127
155301 Off ch=3 n=69 v=96
155301 Off ch=3 n=64 v=96
155301 Off ch=3 n=61 v=96
155777 On ch=10 n=42 v=69
155777 On ch=10 n=82 v=58
155789 On ch=2 n=37 v=127
155897 Off ch=10 n=82 v=58
155897 Off ch=10 n=42 v=69
156269 Off ch=2 n=37 v=127
156731 On ch=10 n=40 v=113
156731 On ch=10 n=42 v=49
156731 On ch=10 n=82 v=66
156747 On ch=2 n=40 v=127
156851 Off ch=10 n=82 v=66
156851 Off ch=10 n=42 v=49
156851 Off ch=10 n=40 v=113
157277 Off ch=2 n=40 v=127
157675 On ch=2 n=42 v=127
157690 On ch=10 n=42 v=79
157690 On ch=3 n=59 v=96
157690 On ch=3 n=63 v=96
157690 On ch=3 n=68 v=96
157690 On ch=10 n=82 v=60
157810 Off ch=10 n=82 v=60
157810 Off ch=10 n=42 v=79
158135 Off ch=2 n=42 v=127
158170 Off ch=3 n=68 v=96
158170 Off ch=3 n=63 v=96
158170 Off ch=3 n=59 v=96
158570 On ch=10 n=36 v=105
158570 On ch=10 n=42 v=46
158570 On ch=10 n=82 v=56
158690 On ch=2 n=40 v=127
158690 Off ch=10 n=82 v=56
158690 Off ch=10 n=42 v=46
158690 Off ch=10 n=36 v=105
159280 Off ch=2 n=40 v=127
159565 On ch=2 n=37 v=127
159624 On ch=10 n=42 v=74
159624 On ch=10 n=82 v=60
159744 Off ch=10 n=82 v=60
159744 Off ch=10 n=42 v=74
160105 Off ch=2 n=37 v=127
160511 On ch=2 n=35 v=127
160558 On ch=10 n=40 v=113
160558 On ch=10 n=42 v=46
160558 On ch=10 n=82 v=64
160678 Off ch=10 n=82 v=64
160678 Off ch=10 n=42 v=46
160678 Off ch=10 n=40 v=113
161161 Off ch=2 n=35 v=127
161500 On ch=10 n=42 v=79
161500 On ch=10 n=82 v=64
161555 On ch=2 n=37 v=127
161620 Off ch=10 n=82 v=64
161620 Off ch=10 n=42 v=79
162065 Off ch=2 n=37 v=127
162438 On ch=10 n=36 v=105
162438 On ch=10 n=42 v=42
162438 On ch=3 n=57 v=96
162438 On ch=3 n=62 v=96
162438 On ch=3 n=66 v=96
162438 On ch=10 n=82 v=66
162498 On ch=2 n=47 v=127
162558 Off ch=10 n=82 v=66
162558 Off ch=10 n=42 v=42
162558 Off ch=10 n=36 v=105
162918 Off ch=3 n=66 v=96
162918 Off ch=3 n=57 v=96
162918 Off ch=3 n=62 v=96
162978 Off ch=2 n=47 v=127
163366 On ch=2 n=42 v=127
163390 On ch=10 n=42 v=69
163390 On ch=10 n=82 v=64
163510 Off ch=10 n=82 v=64
163510 Off ch=10 n=42 v=69
163716 Off ch=2 n=42 v=127
164267 On ch=10 n=40 v=112
164267 On ch=10 n=42 v=54
164267 On ch=10 n=82 v=62
164387 On ch=2 n=45 v=127
164387 Off ch=10 n=82 v=62
164387 Off ch=10 n=42 v=54
164387 Off ch=10 n=40 v=112
164907 Off ch=2 n=45 v=127
165316 On ch=10 n=42 v=74
165316 On ch=3 n=57 v=96
165316 On ch=3 n=62 v=96
165316 On ch=3 n=66 v=96
165316 On ch=10 n=82 v=64
165337 On ch=2 n=47 v=127
165436 Off ch=10 n=82 v=64
165436 Off ch=10 n=42 v=74
165796 Off ch=3 n=62 v=96
165796 Off ch=3 n=66 v=96
165796 Off ch=3 n=57 v=96
166037 Off ch=2 n=47 v=127
166377 On ch=10 n=36 v=105
166377 On ch=10 n=42 v=57
166377 On ch=10 n=82 v=64
166497 Off ch=10 n=82 v=64
166497 Off ch=10 n=42 v=57
166497 Off ch=10 n=36 v=105
167272 On ch=2 n=42 v=127
167388 On ch=10 n=42 v=69
167388 On ch=10 n=82 v=68
167508 Off ch=10 n=82 v=68
167508 Off ch=10 n=42 v=69
167832 Off ch=2 n=42 v=127
168268 On ch=10 n=40 v=113
168268 On ch=10 n=42 v=57
168268 On ch=10 n=82 v=62
168299 On ch=2 n=40 v=127
168388 Off ch=10 n=82 v=62
168388 Off ch=10 n=42 v=57
168388 Off ch=10 n=40 v=113
168899 Off ch=2 n=40 v=127
169202 On ch=2 n=42 v=127
169243 On ch=10 n=42 v=79
169243 On ch=10 n=82 v=64
169363 Off ch=10 n=82 v=64
169363 Off ch=10 n=42 v=79
169722 Off ch=2 n=42 v=127
170179 On ch=2 n=47 v=127
170215 On ch=10 n=36 v=105
170215 On ch=10 n=42 v=54
170215 On ch=3 n=57 v=96
170215 On ch=3 n=62 v=96
170215 On ch=3 n=66 v=96
170215 On ch=10 n=82 v=62
170335 Off ch=10 n=82 v=62
170335 Off ch=10 n=42 v=54
170335 Off ch=10 n=36 v=105
170669 Off ch=2 n=47 v=127
170695 Off ch=3 n=66 v=96
170695 Off ch=3 n=62 v=96
170695 Off ch=3 n=57 v=96
171082 On ch=2 n=42 v=127
171144 On ch=10 n=42 v=69
171144 On ch=10 n=82 v=55
171264 Off ch=10 n=82 v=55
171264 Off ch=10 n=42 v=69
171582 Off ch=2 n=42 v=127
172013 On ch=10 n=40 v=113
172013 On ch=10 n=42 v=49
172013 On ch=10 n=82 v=55
172110 Par ch=3 c=11 v=127
172128 On ch=2 n=45 v=127
172133 Off ch=10 n=82 v=55
172133 Off ch=10 n=42 v=49
172133 Off ch=10 n=40 v=113
172590 Par ch=3 c=11 v=81
172698 Off ch=2 n=45 v=127
173018 On ch=2 n=47 v=127
173040 On ch=10 n=42 v=79
173040 On ch=10 n=82 v=51
173040 On ch=3 n=57 v=100
173040 On ch=3 n=62 v=100
173040 On ch=3 n=66 v=100
173070 Par ch=3 c=11 v=86
173160 Off ch=10 n=82 v=51
173160 Off ch=10 n=42 v=79
173550 Par ch=3 c=11 v=92
173698 Off ch=2 n=47 v=127
173964 On ch=10 n=36 v=105
173964 On ch=10 n=42 v=46
173964 On ch=10 n=82 v=58
174030 Par ch=3 c=11 v=97
174084 Off ch=10 n=82 v=58
174084 Off ch=10 n=42 v=46
174084 Off ch=10 n=36 v=105
174510 Par ch=3 c=11 v=103
174956 On ch=10 n=42 v=74
174956 On ch=10 n=82 v=47
174990 Par ch=3 c=11 v=108
175030 On ch=2 n=42 v=127
175076 Off ch=10 n=82 v=47
175076 Off ch=10 n=42 v=74
175470 Par ch=3 c=11 v=114
175660 Off ch=2 n=42 v=127
175894 On ch=2 n=40 v=127
175931 On ch=10 n=40 v=113
175931 On ch=10 n=42 v=46
175931 On ch=10 n=82 v=62
175950 Par ch=3 c=11 v=119
176051 Off ch=10 n=82 v=62
176051 Off ch=10 n=42 v=46
176051 Off ch=10 n=40 v=113
176430 Par ch=3 c=11 v=127
176494 Off ch=2 n=40 v=127
176811 On ch=10 n=42 v=79
176811 On ch=10 n=82 v=58
176839 On ch=2 n=37 v=127
176931 Off ch=10 n=82 v=58
176931 Off ch=10 n=42 v=79
177360 Off ch=3 n=66 v=100
177360 Off ch=3 n=62 v=100
177360 Off ch=3 n=57 v=100
177469 Off ch=2 n=37 v=127
177852 On ch=2 n=42 v=127
177872 On ch=10 n=36 v=105
177872 On ch=10 n=42 v=42
177872 On ch=3 n=57 v=96
177872 On ch=3 n=61 v=96
177872 On ch=3 n=66 v=96
177872 On ch=10 n=82 v=56
177992 Off ch=10 n=82 v=56
177992 Off ch=10 n=42 v=42
177992 Off ch=10 n=36 v=105
178352 Off ch=3 n=57 v=96
178352 Off ch=3 n=61 v=96
178352 Off ch=3 n=66 v=96
178352 Off ch=2 n=42 v=127
178715 On ch=10 n=42 v=69
178715 On ch=10 n=82 v=46
178835 Off ch=10 n=82 v=46
178835 Off ch=10 n=42 v=69
178839 On ch=2 n=37 v=127
179359 Off ch=2 n=37 v=127
179744 On ch=10 n=40 v=112
179744 On ch=10 n=42 v=54
179744 On ch=10 n=82 v=64
179799 On ch=2 n=40 v=127
179864 Off ch=10 n=82 v=64
179864 Off ch=10 n=42 v=54
179864 Off ch=10 n=40 v=112
180349 Off ch=2 n=40 v=127
180699 On ch=2 n=42 v=127
180796 On ch=10 n=42 v=74
180796 On ch=3 n=59 v=96
180796 On ch=3 n=63 v=96
180796 On ch=3 n=68 v=96
180796 On ch=10 n=82 v=53
180916 Off ch=10 n=82 v=53
180916 Off ch=10 n=42 v=74
181209 Off ch=2 n=42 v=127
181276 Off ch=3 n=68 v=96
181276 Off ch=3 n=63 v=96
181276 Off ch=3 n=59 v=96
181719 On ch=10 n=36 v=105
181719 On ch=10 n=42 v=57
181719 On ch=10 n=82 v=62
181744 On ch=2 n=40 v=127
181839 Off ch=10 n=82 v=62
181839 Off ch=10 n=42 v=57
181839 Off ch=10 n=36 v=105
182304 Off ch=2 n=40 v=127
182632 On ch=2 n=37 v=127
182746 On ch=10 n=42 v=69
182746 On ch=10 n=82 v=60
182866 Off ch=10 n=82 v=60
182866 Off ch=10 n=42 v=69
183142 Off ch=2 n=37 v=127
183631 On ch=10 n=40 v=113
183631 On ch=10 n=42 v=57
183631 On ch=10 n=82 v=68
183662 On ch=2 n=35 v=127
183751 Off ch=10 n=82 v=68
183751 Off ch=10 n=42 v=57
183751 Off ch=10 n=40 v=113
184272 Off ch=2 n=35 v=127
184586 On ch=2 n=37 v=127
184597 On ch=10 n=42 v=79
184597 On ch=10 n=82 v=50
184717 Off ch=10 n=82 v=50
184717 Off ch=10 n=42 v=79
185126 Off ch=2 n=37 v=127
185550 On ch=10 n=36 v=105
185550 On ch=10 n=42 v=54
185550 On ch=3 n=61 v=96
185550 On ch=3 n=64 v=96
185550 On ch=3 n=69 v=96
185550 On ch=10 n=82 v=68
185565 On ch=2 n=42 v=127
185670 Off ch=10 n=82 v=68
185670 Off ch=10 n=42 v=54
185670 Off ch=10 n=36 v=105
186030 Off ch=3 n=69 v=96
186030 Off ch=3 n=64 v=96
186030 Off ch=3 n=61 v=96
186035 Off ch=2 n=42 v=127
186510 On ch=2 n=37 v=127
186592 On ch=10 n=42 v=69
186592 On ch=10 n=82 v=58
186712 Off ch=10 n=82 v=58
186712 Off ch=10 n=42 v=69
186990 Off ch=2 n=37 v=127
187405 On ch=2 n=40 v=127
187450 On ch=10 n=40 v=113
187450 On ch=10 n=42 v=49
187450 On ch=10 n=82 v=66
187570 Off ch=10 n=82 v=66
187570 Off ch=10 n=42 v=49
187570 Off ch=10 n=40 v=113
187935 Off ch=2 n=40 v=127
188387 On ch=10 n=42 v=79
188387 On ch=3 n=59 v=96
188387 On ch=3 n=63 v=96
188387 On ch=3 n=68 v=96
188387 On ch=10 n=82 v=60
188414 On ch=2 n=42 v=127
188507 Off ch=10 n=82 v=60
188507 Off ch=10 n=42 v=79
188867 Off ch=3 n=68 v=96
188867 Off ch=3 n=63 v=96
188867 Off ch=3 n=59 v=96
188874 Off ch=2 n=42 v=127
189336 On ch=2 n=40 v=127
189408 On ch=10 n=36 v=105
189408 On ch=10 n=42 v=46
189408 On ch=10 n=82 v=56
189528 Off ch=10 n=82 v=56
189528 Off ch=10 n=42 v=46
189528 Off ch=10 n=36 v=105
189926 Off ch=2 n=40 v=127
190301 On ch=10 n=42 v=74
190301 On ch=10 n=82 v=60
190408 On ch=2 n=37 v=127
190421 Off ch=10 n=82 v=60
190421 Off ch=10 n=42 v=74
190948 Off ch=2 n=37 v=127
191286 On ch=2 n=35 v=127
191321 On ch=10 n=40 v=113
191321 On ch=10 n=42 v=46
191321 On ch=10 n=82 v=64
191441 Off ch=10 n=82 v=64
191441 Off ch=10 n=42 v=46
191441 Off ch=10 n=40 v=113
191936 Off ch=2 n=35 v=127
192276 On ch=2 n=37 v=127
192311 On ch=10 n=42 v=79
192311 On ch=10 n=82 v=64
192431 Off ch=10 n=82 v=64
192431 Off ch=10 n=42 v=79
192786 Off ch=2 n=37 v=127
193196 On ch=10 n=36 v=105
193196 On ch=10 n=42 v=42
193196 On ch=3 n=57 v=96
193196 On ch=3 n=61 v=96
193196 On ch=3 n=66 v=96
193196 On ch=10 n=82 v=66
193254 On ch=2 n=42 v=127
193316 Off ch=10 n=82 v=66
193316 Off ch=10 n=42 v=42
193316 Off ch=10 n=36 v=105
193676 Off ch=3 n=57 v=96
193676 Off ch=3 n=61 v=96
193676 Off ch=3 n=66 v=96
193754 Off ch=2 n=42 v=127
194116 On ch=2 n=37 v=127
194159 On ch=10 n=42 v=69
194159 On ch=10 n=82 v=64
194279 Off ch=10 n=82 v=64
194279 Off ch=10 n=42 v=69
194636 Off ch=2 n=37 v=127
195020 On ch=2 n=40 v=127
195097 On ch=10 n=40 v=112
195097 On ch=10 n=42 v=54
195097 On ch=10 n=82 v=62
195217 Off ch=10 n=82 v=62
195217 Off ch=10 n=42 v=54
195217 Off ch=10 n=40 v=112
195570 Off ch=2 n=40 v=127
196013 On ch=10 n=42 v=74
196013 On ch=3 n=59 v=96
196013 On ch=3 n=63 v=96
196013 On ch=3 n=68 v=96
196013 On ch=10 n=82 v=64
196085 On ch=2 n=42 v=127
196133 Off ch=10 n=82 v=64
196133 Off ch=10 n=42 v=74
196493 Off ch=3 n=68 v=96
196493 Off ch=3 n=63 v=96
196493 Off ch=3 n=59 v=96
196595 Off ch=2 n=42 v=127
196995 On ch=2 n=40 v=127
197019 On ch=10 n=36 v=105
197019 On ch=10 n=42 v=57
197019 On ch=10 n=82 v=64
197139 Off ch=10 n=82 v=64
197139 Off ch=10 n=42 v=57
197139 Off ch=10 n=36 v=105
197555 Off ch=2 n=40 v=127
197944 On ch=10 n=42 v=69
197944 On ch=10 n=82 v=68
198045 On ch=2 n=37 v=127
198064 Off ch=10 n=82 v=68
198064 Off ch=10 n=42 v=69
198555 Off ch=2 n=37 v=127
198902 On ch=2 n=35 v=127
199025 On ch=10 n=40 v=113
199025 On ch=10 n=42 v=57
199025 On ch=10 n=82 v=62
199145 Off ch=10 n=82 v=62
199145 Off ch=10 n=42 v=57
199145 Off ch=10 n=40 v=113
199512 Off ch=2 n=35 v=127
199917 On ch=2 n=37 v=127
199923 On ch=10 n=42 v=79
199923 On ch=10 n=82 v=64
200043 Off ch=10 n=82 v=64
200043 Off ch=10 n=42 v=79
200457 Off ch=2 n=37 v=127
200797 On ch=10 n=36 v=105
200797 On ch=10 n=42 v=54
200797 On ch=3 n=61 v=96
200797 On ch=3 n=64 v=96
200797 On ch=3 n=69 v=96
200797 On ch=10 n=82 v=62
200889 On ch=2 n=42 v=127
200917 Off ch=10 n=82 v=62
200917 Off ch=10 n=42 v=54
200917 Off ch=10 n=36 v=105
201277 Off ch=3 n=69 v=96
201277 Off ch=3 n=64 v=96
201277 Off ch=3 n=61 v=96
201359 Off ch=2 n=42 v=127
201730 On ch=2 n=37 v=127
201839 On ch=10 n=42 v=69
201839 On ch=10 n=82 v=55
201959 Off ch=10 n=82 v=55
201959 Off ch=10 n=42 v=69
202210 Off ch=2 n=37 v=127
202766 On ch=10 n=40 v=113
202766 On ch=10 n=42 v=49
202766 On ch=10 n=82 v=55
202776 On ch=2 n=40 v=127
202886 Off ch=10 n=82 v=55
202886 Off ch=10 n=42 v=49
202886 Off ch=10 n=40 v=113
203306 Off ch=2 n=40 v=127
203712 On ch=10 n=42 v=79
203712 On ch=3 n=59 v=96
203712 On ch=3 n=63 v=96
203712 On ch=3 n=68 v=96
203712 On ch=10 n=82 v=51
203727 On ch=2 n=42 v=127
203832 Off ch=10 n=82 v=51
203832 Off ch=10 n=42 v=79
204187 Off ch=2 n=42 v=127
204192 Off ch=3 n=68 v=96
204192 Off ch=3 n=63 v=96
204192 Off ch=3 n=59 v=96
204677 On ch=2 n=40 v=127
204736 On ch=10 n=36 v=105
204736 On ch=10 n=42 v=46
204736 On ch=10 n=82 v=58
204856 Off ch=10 n=82 v=58
204856 Off ch=10 n=42 v=46
204856 Off ch=10 n=36 v=105
205267 Off ch=2 n=40 v=127
205667 On ch=10 n=42 v=74
205667 On ch=10 n=82 v=47
205711 On ch=2 n=37 v=127
205787 Off ch=10 n=82 v=47
205787 Off ch=10 n=42 v=74
206251 Off ch=2 n=37 v=127
206555 On ch=10 n=40 v=113
206555 On ch=10 n=42 v=46
206555 On ch=10 n=82 v=62
206637 On ch=2 n=35 v=127
206675 Off ch=10 n=82 v=62
206675 Off ch=10 n=42 v=46
206675 Off ch=10 n=40 v=113
207287 Off ch=2 n=35 v=127
207607 On ch=10 n=42 v=79
207607 On ch=10 n=82 v=58
207633 On ch=2 n=37 v=127
207727 Off ch=10 n=82 v=58
207727 Off ch=10 n=42 v=79
208143 Off ch=2 n=37 v=127
208569 On ch=2 n=42 v=127
208582 On ch=10 n=36 v=105
208582 On ch=10 n=42 v=42
208582 On ch=3 n=57 v=96
208582 On ch=3 n=61 v=96
208582 On ch=3 n=66 v=96
208582 On ch=10 n=82 v=56
208702 Off ch=10 n=82 v=56
208702 Off ch=10 n=42 v=42
208702 Off ch=10 n=36 v=105
209062 Off ch=3 n=66 v=96
209062 Off ch=3 n=61 v=96
209062 Off ch=3 n=57 v=96
209069 Off ch=2 n=42 v=127
209416 On ch=2 n=37 v=127
209476 On ch=10 n=42 v=69
209476 On ch=10 n=82 v=46
209596 Off ch=10 n=82 v=46
209596 Off ch=10 n=42 v=69
209936 Off ch=2 n=37 v=127
210471 On ch=2 n=40 v=127
210473 On ch=10 n=40 v=112
210473 On ch=10 n=42 v=54
210473 On ch=10 n=82 v=64
210593 Off ch=10 n=82 v=64
210593 Off ch=10 n=42 v=54
210593 Off ch=10 n=40 v=112
211021 Off ch=2 n=40 v=127
211441 On ch=10 n=42 v=74
211441 On ch=3 n=59 v=96
211441 On ch=3 n=63 v=96
211441 On ch=3 n=68 v=96
211441 On ch=10 n=82 v=53
211475 On ch=2 n=42 v=127
211561 Off ch=10 n=82 v=53
211561 Off ch=10 n=42 v=74
211921 Off ch=3 n=68 v=96
211921 Off ch=3 n=63 v=96
211921 Off ch=3 n=59 v=96
211985 Off ch=2 n=42 v=127
212365 On ch=2 n=40 v=127
212484 On ch=10 n=36 v=105
212484 On ch=10 n=42 v=57
212484 On ch=10 n=82 v=62
212604 Off ch=10 n=82 v=62
212604 Off ch=10 n=42 v=57
212604 Off ch=10 n=36 v=105
212925 Off ch=2 n=40 v=127
213378 On ch=10 n=42 v=69
213378 On ch=10 n=82 v=60
213391 On ch=2 n=37 v=127
213498 Off ch=10 n=82 v=60
213498 Off ch=10 n=42 v=69
213901 Off ch=2 n=37 v=127
214313 On ch=10 n=40 v=113
214313 On ch=10 n=42 v=57
214313 On ch=10 n=82 v=68
214377 On ch=2 n=35 v=127
214433 Off ch=10 n=82 v=68
214433 Off ch=10 n=42 v=57
214433 Off ch=10 n=40 v=113
214987 Off ch=2 n=35 v=127
215257 On ch=2 n=37 v=127
215271 On ch=10 n=42 v=79
215271 On ch=10 n=82 v=50
215391 Off ch=10 n=82 v=50
215391 Off ch=10 n=42 v=79
215797 Off ch=2 n=37 v=127
216152 On ch=2 n=42 v=127
216260 On ch=10 n=36 v=105
216260 On ch=10 n=42 v=54
216260 On ch=3 n=61 v=96
216260 On ch=3 n=64 v=96
216260 On ch=3 n=69 v=96
216260 On ch=10 n=82 v=68
216380 Off ch=10 n=82 v=68
216380 Off ch=10 n=42 v=54
216380 Off ch=10 n=36 v=105
216622 Off ch=2 n=42 v=127
216740 Off ch=3 n=69 v=96
216740 Off ch=3 n=64 v=96
216740 Off ch=3 n=61 v=96
217124 On ch=10 n=42 v=69
217124 On ch=10 n=82 v=58
217185 On ch=2 n=37 v=127
217244 Off ch=10 n=82 v=58
217244 Off ch=10 n=42 v=69
217665 Off ch=2 n=37 v=127
218155 On ch=2 n=40 v=127
218168 On ch=10 n=40 v=113
218168 On ch=10 n=42 v=49
218168 On ch=10 n=82 v=66
218288 Off ch=10 n=82 v=66
218288 Off ch=10 n=42 v=49
218288 Off ch=10 n=40 v=113
218685 Off ch=2 n=40 v=127
219072 On ch=2 n=42 v=127
219126 On ch=10 n=42 v=79
219126 On ch=3 n=59 v=96
219126 On ch=3 n=63 v=96
219126 On ch=3 n=68 v=96
219126 On ch=10 n=82 v=60
219246 Off ch=10 n=82 v=60
219246 Off ch=10 n=42 v=79
219532 Off ch=2 n=42 v=127
219606 Off ch=3 n=68 v=96
219606 Off ch=3 n=63 v=96
219606 Off ch=3 n=59 v=96
220004 On ch=10 n=36 v=105
220004 On ch=10 n=42 v=46
220004 On ch=10 n=82 v=56
220071 On ch=2 n=40 v=127
220124 Off ch=10 n=82 v=56
220124 Off ch=10 n=42 v=46
220124 Off ch=10 n=36 v=105
220661 Off ch=2 n=40 v=127
221075 On ch=10 n=42 v=74
221075 On ch=10 n=82 v=60
221078 On ch=2 n=37 v=127
221195 Off ch=10 n=82 v=60
221195 Off ch=10 n=42 v=74
221618 Off ch=2 n=37 v=127
221987 On ch=10 n=40 v=113
221987 On ch=10 n=42 v=46
221987 On ch=10 n=82 v=64
222034 On ch=2 n=35 v=127
222107 Off ch=10 n=82 v=64
222107 Off ch=10 n=42 v=46
222107 Off ch=10 n=40 v=113
222684 Off ch=2 n=35 v=127
222943 On ch=2 n=37 v=127
222997 On ch=10 n=42 v=79
222997 On ch=10 n=82 v=64
223117 Off ch=10 n=82 v=64
223117 Off ch=10 n=42 v=79
223453 Off ch=2 n=37 v=127
223910 On ch=2 n=47 v=127
223968 On ch=10 n=36 v=105
223968 On ch=10 n=42 v=42
223968 On ch=10 n=82 v=66
223968 On ch=3 n=57 v=96
223968 On ch=3 n=62 v=96
223968 On ch=3 n=66 v=96
224088 Off ch=10 n=82 v=66
224088 Off ch=10 n=42 v=42
224088 Off ch=10 n=36 v=105
224390 Off ch=2 n=47 v=127
224448 Off ch=3 n=66 v=96
224448 Off ch=3 n=57 v=96
224448 Off ch=3 n=62 v=96
224874 On ch=2 n=42 v=127
224929 On ch=10 n=42 v=69
224929 On ch=10 n=82 v=64
225049 Off ch=10 n=82 v=64
225049 Off ch=10 n=42 v=69
225224 Off ch=2 n=42 v=127
225867 On ch=10 n=40 v=112
225867 On ch=10 n=42 v=54
225867 On ch=10 n=82 v=62
225904 On ch=2 n=45 v=127
225987 Off ch=10 n=82 v=62
225987 Off ch=10 n=42 v=54
225987 Off ch=10 n=40 v=112
226424 Off ch=2 n=45 v=127
226755 On ch=10 n=42 v=74
226755 On ch=3 n=57 v=96
226755 On ch=3 n=62 v=96
226755 On ch=3 n=66 v=96
226755 On ch=10 n=82 v=64
226772 On ch=2 n=47 v=127
226875 Off ch=10 n=82 v=64
226875 Off ch=10 n=42 v=74
227235 Off ch=3 n=62 v=96
227235 Off ch=3 n=66 v=96
227235 Off ch=3 n=57 v=96
227472 Off ch=2 n=47 v=127
227696 On ch=10 n=36 v=105
227696 On ch=10 n=42 v=57
227696 On ch=10 n=82 v=64
227816 Off ch=10 n=82 v=64
227816 Off ch=10 n=42 v=57
227816 Off ch=10 n=36 v=105
228731 On ch=2 n=42 v=127
228756 On ch=10 n=42 v=69
228756 On ch=10 n=82 v=68
228876 Off ch=10 n=82 v=68
228876 Off ch=10 n=42 v=69
229291 Off ch=2 n=42 v=127
229658 On ch=10 n=40 v=113
229658 On ch=10 n=42 v=57
229658 On ch=10 n=82 v=62
229670 On ch=2 n=40 v=127
229778 Off ch=10 n=82 v=62
229778 Off ch=10 n=42 v=57
229778 Off ch=10 n=40 v=113
230270 Off ch=2 n=40 v=127
230660 On ch=2 n=42 v=127
230677 On ch=10 n=42 v=79
230677 On ch=10 n=82 v=64
230797 Off ch=10 n=82 v=64
230797 Off ch=10 n=42 v=79
231180 Off ch=2 n=42 v=127
231554 On ch=10 n=36 v=105
231554 On ch=10 n=42 v=54
231554 On ch=3 n=57 v=96
231554 On ch=3 n=62 v=96
231554 On ch=3 n=66 v=96
231554 On ch=10 n=82 v=62
231580 On ch=2 n=47 v=127
231674 Off ch=10 n=82 v=62
231674 Off ch=10 n=42 v=54
231674 Off ch=10 n=36 v=105
232034 Off ch=3 n=66 v=96
232034 Off ch=3 n=62 v=96
232034 Off ch=3 n=57 v=96
232070 Off ch=2 n=47 v=127
232439 On ch=2 n=42 v=127
232470 On ch=10 n=42 v=69
232470 On ch=10 n=82 v=55
232590 Off ch=10 n=82 v=55
232590 Off ch=10 n=42 v=69
232939 Off ch=2 n=42 v=127
233415 On ch=2 n=45 v=127
233475 On ch=10 n=40 v=113
233475 On ch=10 n=42 v=49
233475 On ch=10 n=82 v=55
233550 Par ch=3 c=11 v=127
233595 Off ch=10 n=82 v=55
233595 Off ch=10 n=42 v=49
233595 Off ch=10 n=40 v=113
233985 Off ch=2 n=45 v=127
234030 Par ch=3 c=11 v=81
234431 On ch=2 n=47 v=127
234468 On ch=10 n=42 v=79
234468 On ch=10 n=82 v=51
234468 On ch=3 n=57 v=100
234468 On ch=3 n=62 v=100
234468 On ch=3 n=66 v=100
234510 Par ch=3 c=11 v=87
234588 Off ch=10 n=82 v=51
234588 Off ch=10 n=42 v=79
234990 Par ch=3 c=11 v=93
235111 Off ch=2 n=47 v=127
235418 On ch=10 n=36 v=105
235418 On ch=10 n=42 v=46
235418 On ch=10 n=82 v=58
235470 Par ch=3 c=11 v=100
235538 Off ch=10 n=82 v=58
235538 Off ch=10 n=42 v=46
235538 Off ch=10 n=36 v=105
235950 Par ch=3 c=11 v=106
236393 On ch=10 n=42 v=74
236393 On ch=10 n=82 v=47
236425 On ch=2 n=42 v=127
236430 Par ch=3 c=11 v=112
236513 Off ch=10 n=82 v=47
236513 Off ch=10 n=42 v=74
236910 Par ch=3 c=11 v=118
237055 Off ch=2 n=42 v=127
237390 Par ch=3 c=11 v=127
237390 On ch=2 n=40 v=127
237474 On ch=10 n=40 v=113
237474 On ch=10 n=42 v=46
237474 On ch=10 n=82 v=62
237594 Off ch=10 n=82 v=62
237594 Off ch=10 n=42 v=46
237594 Off ch=10 n=40 v=113
237990 Off ch=2 n=40 v=127
238360 On ch=2 n=37 v=127
238362 On ch=10 n=42 v=79
238362 On ch=10 n=82 v=58
238482 Off ch=10 n=82 v=58
238482 Off ch=10 n=42 v=79
238788 Off ch=3 n=66 v=100
238788 Off ch=3 n=62 v=100
238788 Off ch=3 n=57 v=100
238990 Off ch=2 n=37 v=127
239225 On ch=10 n=36 v=105
239225 On ch=10 n=42 v=42
239225 On ch=3 n=57 v=96
239225 On ch=3 n=61 v=96
239225 On ch=3 n=66 v=96
239225 On ch=10 n=82 v=56
239342 On ch=2 n=42 v=127
239345 Off ch=10 n=82 v=56
239345 Off ch=10 n=42 v=42
239345 Off ch=10 n=36 v=105
239705 Off ch=3 n=57 v=96
239705 Off ch=3 n=61 v=96
239705 Off ch=3 n=66 v=96
239842 Off ch=2 n=42 v=127
240181 On ch=2 n=37 v=127
240285 On ch=10 n=42 v=69
240285 On ch=10 n=82 v=46
240405 Off ch=10 n=82 v=46
240405 Off ch=10 n=42 v=69
240701 Off ch=2 n=37 v=127
241143 On ch=10 n=40 v=112
241143 On ch=10 n=42 v=54
241143 On ch=10 n=82 v=64
241263 Off ch=10 n=82 v=64
241263 Off ch=10 n=42 v=54
241263 Off ch=10 n=40 v=112
241265 On ch=2 n=40 v=127
241815 Off ch=2 n=40 v=127
242172 On ch=2 n=42 v=127
242177 On ch=10 n=42 v=74
242177 On ch=3 n=59 v=96
242177 On ch=3 n=63 v=96
242177 On ch=3 n=68 v=96
242177 On ch=10 n=82 v=53
242297 Off ch=10 n=82 v=53
242297 Off ch=10 n=42 v=74
242657 Off ch=3 n=68 v=96
242657 Off ch=3 n=63 v=96
242657 Off ch=3 n=59 v=96
242682 Off ch=2 n=42 v=127
243164 On ch=10 n=36 v=105
243164 On ch=10 n=42 v=57
243164 On ch=10 n=82 v=62
243180 On ch=2 n=40 v=127
243284 Off ch=10 n=82 v=62
243284 Off ch=10 n=42 v=57
243284 Off ch=10 n=36 v=105
243740 Off ch=2 n=40 v=127
244059 On ch=2 n=37 v=127
244167 On ch=10 n=42 v=69
244167 On ch=10 n=82 v=60
244287 Off ch=10 n=82 v=60
244287 Off ch=10 n=42 v=69
244569 Off ch=2 n=37 v=127
245019 On ch=10 n=40 v=113
245019 On ch=10 n=42 v=57
245019 On ch=10 n=82 v=68
245087 On ch=2 n=35 v=127
245139 Off ch=10 n=82 v=68
245139 Off ch=10 n=42 v=57
245139 Off ch=10 n=40 v=113
245697 Off ch=2 n=35 v=127
245992 On ch=2 n=37 v=127
246045 On ch=10 n=42 v=79
246045 On ch=10 n=82 v=50
246165 Off ch=10 n=82 v=50
246165 Off ch=10 n=42 v=79
246532 Off ch=2 n=37 v=127
246950 On ch=2 n=42 v=127
247007 On ch=10 n=36 v=105
247007 On ch=10 n=42 v=54
247007 On ch=3 n=61 v=96
247007 On ch=3 n=64 v=96
247007 On ch=3 n=69 v=96
247007 On ch=10 n=82 v=68
247127 Off ch=10 n=82 v=68
247127 Off ch=10 n=42 v=54
247127 Off ch=10 n=36 v=105
247420 Off ch=2 n=42 v=127
247487 Off ch=3 n=69 v=96
247487 Off ch=3 n=64 v=96
247487 Off ch=3 n=61 v=96
247931 On ch=10 n=42 v=69
247931 On ch=10 n=82 v=58
248001 On ch=2 n=37 v=127
248051 Off ch=10 n=82 v=58
248051 Off ch=10 n=42 v=69
248481 Off ch=2 n=37 v=127
248909 On ch=10 n=40 v=113
248909 On ch=10 n=42 v=49
248909 On ch=10 n=82 v=66
248927 On ch=2 n=40 v=127
249029 Off ch=10 n=82 v=66
249029 Off ch=10 n=42 v=49
249029 Off ch=10 n=40 v=113
249457 Off ch=2 n=40 v=127
249804 On ch=10 n=42 v=79
249804 On ch=3 n=59 v=96
249804 On ch=3 n=63 v=96
249804 On ch=3 n=68 v=96
249804 On ch=10 n=82 v=60
249860 On ch=2 n=42 v=127
249924 Off ch=10 n=82 v=60
249924 Off ch=10 n=42 v=79
250284 Off ch=3 n=68 v=96
250284 Off ch=3 n=63 v=96
250284 Off ch=3 n=59 v=96
250320 Off ch=2 n=42 v=127
250815 On ch=10 n=36 v=105
250815 On ch=10 n=42 v=46
250815 On ch=10 n=82 v=56
250864 On ch=2 n=40 v=127
250935 Off ch=10 n=82 v=56
250935 Off ch=10 n=42 v=46
250935 Off ch=10 n=36 v=105
251454 Off ch=2 n=40 v=127
251720 On ch=2 n=37 v=127
251782 On ch=10 n=42 v=74
251782 On ch=10 n=82 v=60
251902 Off ch=10 n=82 v=60
251902 Off ch=10 n=42 v=74
252260 Off ch=2 n=37 v=127
252687 On ch=10 n=40 v=113
252687 On ch=10 n=42 v=46
252687 On ch=10 n=82 v=64
252792 On ch=2 n=35 v=127
252807 Off ch=10 n=82 v=64
252807 Off ch=10 n=42 v=46
252807 Off ch=10 n=40 v=113
253442 Off ch=2 n=35 v=127
253660 On ch=2 n=37 v=127
253717 On ch=10 n=40 v=117
253717 On ch=10 n=46 v=94
253717 On ch=10 n=82 v=64
253837 Off ch=10 n=82 v=64
253837 Off ch=10 n=46 v=94
253837 Off ch=10 n=40 v=117
254050 Off ch=2 n=37 v=127
254168 On ch=10 n=40 v=121
254260 Par ch=2 c=11 v=127
254288 Off ch=10 n=40 v=121
254300 Par ch=2 c=99 v=1
254330 Par ch=2 c=98 v=33
254380 Par ch=2 c=6 v=64
254648 On ch=10 n=36 v=105
254648 On ch=10 n=42 v=42
254648 On ch=10 n=82 v=66
254658 On ch=2 n=38 v=127
254768 Off ch=10 n=82 v=66
254768 Off ch=10 n=42 v=42
254768 Off ch=10 n=36 v=105
255150 PrCh ch=11 p=63 
255677 On ch=10 n=42 v=69
255677 On ch=10 n=82 v=64
255797 Off ch=10 n=82 v=64
255797 Off ch=10 n=42 v=69
256110 Par ch=11 c=10 v=127
256617 On ch=10 n=40 v=112
256617 On ch=10 n=42 v=54
256617 On ch=10 n=82 v=62
256737 Off ch=10 n=82 v=62
256737 Off ch=10 n=42 v=54
256737 Off ch=10 n=40 v=112
257070 Par ch=11 c=7 v=58
257482 On ch=10 n=42 v=74
257482 On ch=10 n=82 v=64
257602 Off ch=10 n=82 v=64
257602 Off ch=10 n=42 v=74
257718 Off ch=2 n=38 v=127
257980 On ch=2 n=38 v=127
258410 Off ch=2 n=38 v=127
258460 On ch=2 n=38 v=127
258548 On ch=10 n=36 v=105
258548 On ch=10 n=42 v=57
258548 On ch=10 n=82 v=64
258668 Off ch=10 n=82 v=64
258668 Off ch=10 n=42 v=57
258668 Off ch=10 n=36 v=105
259448 On ch=10 n=42 v=69
259448 On ch=10 n=82 v=68
259568 Off ch=10 n=82 v=68
259568 Off ch=10 n=42 v=69
260465 On ch=10 n=40 v=113
260465 On ch=10 n=42 v=57
260465 On ch=10 n=82 v=62
260585 Off ch=10 n=82 v=62
260585 Off ch=10 n=42 v=57
260585 Off ch=10 n=40 v=113
260970 Off ch=2 n=38 v=127
261363 On ch=10 n=42 v=79
261363 On ch=10 n=82 v=64
261426 On ch=2 n=38 v=127
261483 Off ch=10 n=82 v=64
261483 Off ch=10 n=42 v=79
261940 Pb ch=2 v=11520 
262130 Pb ch=2 v=12160 
262220 Pb ch=2 v=13440 
262352 On ch=2 n=42 v=127
262416 Off ch=2 n=38 v=127
262421 On ch=10 n=36 v=105
262421 On ch=10 n=42 v=54
262421 On ch=10 n=82 v=62
262460 Pb ch=2 v=8192 
262541 Off ch=10 n=82 v=62
262541 Off ch=10 n=42 v=54
262541 Off ch=10 n=36 v=105
263370 On ch=10 n=42 v=69
263370 On ch=10 n=82 v=55
263490 Off ch=10 n=82 v=55
263490 Off ch=10 n=42 v=69
264264 On ch=10 n=40 v=113
264264 On ch=10 n=42 v=49
264264 On ch=10 n=82 v=55
264384 Off ch=10 n=82 v=55
264384 Off ch=10 n=42 v=49
264384 Off ch=10 n=40 v=113
265166 On ch=11 n=66 v=127
265206 On ch=10 n=42 v=79
265206 On ch=10 n=82 v=51
265282 Off ch=2 n=42 v=127
265326 Off ch=10 n=82 v=51
265326 Off ch=10 n=42 v=79
265436 Off ch=11 n=66 v=127
265688 On ch=2 n=30 v=127
266088 Off ch=2 n=30 v=127
266138 On ch=11 n=69 v=127
266158 On ch=10 n=36 v=105
266158 On ch=10 n=42 v=46
266158 On ch=10 n=82 v=58
266168 On ch=2 n=30 v=127
266278 Off ch=10 n=82 v=58
266278 Off ch=10 n=42 v=46
266278 Off ch=10 n=36 v=105
267008 Off ch=11 n=69 v=127
267163 On ch=10 n=42 v=74
267163 On ch=10 n=82 v=47
267175 On ch=11 n=66 v=99
267283 Off ch=10 n=82 v=47
267283 Off ch=10 n=42 v=74
267445 Off ch=11 n=66 v=99
268065 On ch=10 n=40 v=113
268065 On ch=10 n=42 v=46
268065 On ch=10 n=52 v=84
268065 On ch=10 n=82 v=62
268158 On ch=11 n=76 v=127
268185 Off ch=10 n=82 v=62
268185 Off ch=10 n=52 v=84
268185 Off ch=10 n=42 v=46
268185 Off ch=10 n=40 v=113
268198 Off ch=2 n=30 v=127
268858 Off ch=11 n=76 v=127
269084 On ch=2 n=35 v=127
269108 On ch=10 n=46 v=98
269108 On ch=10 n=82 v=58
269164 On ch=11 n=73 v=127
269228 Off ch=10 n=82 v=58
269228 Off ch=10 n=46 v=98
269854 Off ch=11 n=73 v=127
269964 Off ch=2 n=35 v=127
270048 On ch=2 n=38 v=127
270094 On ch=10 n=36 v=105
270094 On ch=10 n=42 v=42
270094 On ch=10 n=82 v=56
270214 Off ch=10 n=82 v=56
270214 Off ch=10 n=42 v=42
270214 Off ch=10 n=36 v=105
270958 On ch=10 n=42 v=69
270958 On ch=10 n=82 v=46
271078 Off ch=10 n=82 v=46
271078 Off ch=10 n=42 v=69
271809 On ch=10 n=40 v=112
271809 On ch=10 n=42 v=54
271809 On ch=10 n=82 v=64
271929 Off ch=10 n=82 v=64
271929 Off ch=10 n=42 v=54
271929 Off ch=10 n=40 v=112
272832 On ch=10 n=42 v=74
272832 On ch=10 n=82 v=53
272948 Off ch=2 n=38 v=127
272952 Off ch=10 n=82 v=53
272952 Off ch=10 n=42 v=74
273342 On ch=2 n=38 v=127
273779 On ch=10 n=36 v=105
273779 On ch=10 n=42 v=57
273779 On ch=10 n=82 v=62
273822 Off ch=2 n=38 v=127
273822 On ch=2 n=38 v=127
273899 Off ch=10 n=82 v=62
273899 Off ch=10 n=42 v=57
273899 Off ch=10 n=36 v=105
274857 On ch=10 n=42 v=69
274857 On ch=10 n=82 v=60
274977 Off ch=10 n=82 v=60
274977 Off ch=10 n=42 v=69
275736 On ch=10 n=40 v=113
275736 On ch=10 n=42 v=57
275736 On ch=10 n=82 v=68
275856 Off ch=10 n=82 v=68
275856 Off ch=10 n=42 v=57
275856 Off ch=10 n=40 v=113
276422 Off ch=2 n=38 v=127
276724 On ch=2 n=38 v=127
276763 On ch=10 n=42 v=79
276763 On ch=10 n=82 v=50
276883 Off ch=10 n=82 v=50
276883 Off ch=10 n=42 v=79
277140 Pb ch=2 v=9856 
277190 Pb ch=2 v=11776 
277260 Pb ch=2 v=14976 
277540 Pb ch=2 v=16383 
277672 On ch=2 n=42 v=127
277674 Off ch=2 n=38 v=127
277709 On ch=10 n=36 v=105
277709 On ch=10 n=42 v=54
277709 On ch=10 n=82 v=68
277829 Off ch=10 n=82 v=68
277829 Off ch=10 n=42 v=54
277829 Off ch=10 n=36 v=105
277830 Pb ch=2 v=8192 
278665 On ch=10 n=42 v=69
278665 On ch=10 n=82 v=58
278785 Off ch=10 n=82 v=58
278785 Off ch=10 n=42 v=69
279642 On ch=10 n=40 v=113
279642 On ch=10 n=42 v=49
279642 On ch=10 n=82 v=66
279762 Off ch=10 n=82 v=66
279762 Off ch=10 n=42 v=49
279762 Off ch=10 n=40 v=113
280584 On ch=10 n=42 v=79
280584 On ch=10 n=82 v=60
280652 Off ch=2 n=42 v=127
280704 Off ch=10 n=82 v=60
280704 Off ch=10 n=42 v=79
281112 On ch=2 n=30 v=127
281482 Off ch=2 n=30 v=127
281512 On ch=10 n=36 v=105
281512 On ch=10 n=42 v=46
281512 On ch=10 n=82 v=56
281592 On ch=2 n=30 v=127
281632 Off ch=10 n=82 v=56
281632 Off ch=10 n=42 v=46
281632 Off ch=10 n=36 v=105
282512 On ch=10 n=42 v=74
282512 On ch=10 n=82 v=60
282632 Off ch=10 n=82 v=60
282632 Off ch=10 n=42 v=74
283381 On ch=10 n=40 v=113
283381 On ch=10 n=42 v=46
283381 On ch=10 n=52 v=84
283381 On ch=10 n=82 v=64
283501 Off ch=10 n=82 v=64
283501 Off ch=10 n=52 v=84
283501 Off ch=10 n=42 v=46
283501 Off ch=10 n=40 v=113
284342 Off ch=2 n=30 v=127
284364 On ch=10 n=46 v=103
284364 On ch=10 n=82 v=64
284369 On ch=2 n=35 v=127
284484 Off ch=10 n=82 v=64
284484 Off ch=10 n=46 v=103
285279 Off ch=2 n=35 v=127
285346 On ch=2 n=38 v=127
285389 On ch=10 n=36 v=105
285389 On ch=10 n=42 v=42
285389 On ch=10 n=82 v=66
285509 Off ch=10 n=82 v=66
285509 Off ch=10 n=42 v=42
285509 Off ch=10 n=36 v=105
286273 On ch=10 n=42 v=69
286273 On ch=10 n=82 v=64
286393 Off ch=10 n=82 v=64
286393 Off ch=10 n=42 v=69
287251 On ch=10 n=40 v=112
287251 On ch=10 n=42 v=54
287251 On ch=10 n=82 v=62
287371 Off ch=10 n=82 v=62
287371 Off ch=10 n=42 v=54
287371 Off ch=10 n=40 v=112
288196 Off ch=2 n=38 v=127
288208 On ch=10 n=42 v=74
288208 On ch=10 n=82 v=64
288328 Off ch=10 n=82 v=64
288328 Off ch=10 n=42 v=74
288719 On ch=2 n=38 v=127
289099 Off ch=2 n=38 v=127
289137 On ch=10 n=36 v=105
289137 On ch=10 n=42 v=57
289137 On ch=10 n=82 v=64
289199 On ch=2 n=38 v=127
289257 Off ch=10 n=82 v=64
289257 Off ch=10 n=42 v=57
289257 Off ch=10 n=36 v=105
290178 On ch=10 n=42 v=69
290178 On ch=10 n=82 v=68
290298 Off ch=10 n=82 v=68
290298 Off ch=10 n=42 v=69
291128 On ch=10 n=40 v=113
291128 On ch=10 n=42 v=57
291128 On ch=10 n=82 v=62
291248 Off ch=10 n=82 v=62
291248 Off ch=10 n=42 v=57
291248 Off ch=10 n=40 v=113
291519 Off ch=2 n=38 v=127
292070 On ch=10 n=42 v=79
292070 On ch=10 n=82 v=64
292127 On ch=2 n=38 v=127
292190 Off ch=10 n=82 v=64
292190 Off ch=10 n=42 v=79
292590 Pb ch=2 v=12032 
292660 Pb ch=2 v=13696 
292820 Pb ch=2 v=16256 
293006 On ch=10 n=36 v=105
293006 On ch=10 n=42 v=54
293006 On ch=10 n=82 v=62
293057 Off ch=2 n=38 v=127
293071 On ch=2 n=42 v=127
293090 Pb ch=2 v=8192 
293126 Off ch=10 n=82 v=62
293126 Off ch=10 n=42 v=54
293126 Off ch=10 n=36 v=105
294049 On ch=10 n=42 v=69
294049 On ch=10 n=82 v=55
294169 Off ch=10 n=82 v=55
294169 Off ch=10 n=42 v=69
294977 On ch=10 n=40 v=113
294977 On ch=10 n=42 v=49
294977 On ch=10 n=82 v=55
295097 Off ch=10 n=82 v=55
295097 Off ch=10 n=42 v=49
295097 Off ch=10 n=40 v=113
295845 On ch=11 n=66 v=127
295885 On ch=10 n=42 v=79
295885 On ch=10 n=82 v=51
296005 Off ch=10 n=82 v=51
296005 Off ch=10 n=42 v=79
296071 Off ch=2 n=42 v=127
296115 Off ch=11 n=66 v=127
296445 On ch=2 n=30 v=127
296802 On ch=11 n=69 v=127
296822 On ch=10 n=36 v=105
296822 On ch=10 n=42 v=46
296822 On ch=10 n=82 v=58
296865 Off ch=2 n=30 v=127
296925 On ch=2 n=30 v=127
296942 Off ch=10 n=82 v=58
296942 Off ch=10 n=42 v=46
296942 Off ch=10 n=36 v=105
297672 Off ch=11 n=69 v=127
297853 On ch=10 n=42 v=74
297853 On ch=10 n=82 v=47
297855 On ch=11 n=66 v=99
297973 Off ch=10 n=82 v=47
297973 Off ch=10 n=42 v=74
298125 Off ch=11 n=66 v=99
298745 On ch=10 n=40 v=113
298745 On ch=10 n=42 v=46
298745 On ch=10 n=52 v=84
298745 On ch=10 n=82 v=62
298814 On ch=11 n=76 v=127
298865 Off ch=10 n=82 v=62
298865 Off ch=10 n=52 v=84
298865 Off ch=10 n=42 v=46
298865 Off ch=10 n=40 v=113
299325 Off ch=2 n=30 v=127
299514 Off ch=11 n=76 v=127
299760 On ch=2 n=35 v=127
299764 On ch=10 n=46 v=101
299764 On ch=10 n=82 v=58
299873 On ch=11 n=73 v=127
299884 Off ch=10 n=82 v=58
299884 Off ch=10 n=46 v=101
300440 Pb ch=2 v=9984 
300520 Pb ch=2 v=11648 
300590 Pb ch=2 v=13824 
300603 Off ch=11 n=73 v=127
300640 Pb ch=2 v=15104 
300690 Off ch=2 n=35 v=127
300786 On ch=2 n=38 v=127
300803 On ch=10 n=36 v=105
300803 On ch=10 n=42 v=36
300803 On ch=10 n=82 v=56
300820 Pb ch=2 v=8192 
300923 Off ch=10 n=82 v=56
300923 Off ch=10 n=42 v=36
300923 Off ch=10 n=36 v=105
301230 Par ch=11 c=10 v=64
301688 On ch=10 n=42 v=34
301688 On ch=10 n=82 v=46
301808 Off ch=10 n=82 v=46
301808 Off ch=10 n=42 v=34
302752 On ch=10 n=40 v=112
302752 On ch=10 n=42 v=59
302752 On ch=10 n=82 v=64
302872 Off ch=10 n=82 v=64
302872 Off ch=10 n=42 v=59
302872 Off ch=10 n=40 v=112
303576 Off ch=2 n=38 v=127
303603 On ch=10 n=46 v=89
303603 On ch=10 n=82 v=53
303723 Off ch=10 n=82 v=53
303723 Off ch=10 n=46 v=89
304075 On ch=2 n=38 v=127
304552 On ch=10 n=36 v=105
304552 On ch=10 n=42 v=62
304552 On ch=10 n=82 v=62
304555 Off ch=2 n=38 v=127
304555 On ch=2 n=38 v=127
304672 Off ch=10 n=82 v=62
304672 Off ch=10 n=42 v=62
304672 Off ch=10 n=36 v=105
305514 On ch=10 n=42 v=49
305514 On ch=10 n=82 v=60
305634 Off ch=10 n=82 v=60
305634 Off ch=10 n=42 v=49
306105 Off ch=2 n=38 v=127
306379 On ch=2 n=38 v=127
306431 On ch=10 n=40 v=113
306431 On ch=10 n=42 v=59
306431 On ch=10 n=82 v=68
306551 Off ch=10 n=82 v=68
306551 Off ch=10 n=42 v=59
306551 Off ch=10 n=40 v=113
307279 Off ch=2 n=38 v=127
307387 On ch=2 n=33 v=127
307436 On ch=10 n=46 v=99
307436 On ch=10 n=82 v=50
307556 Off ch=10 n=82 v=50
307556 Off ch=10 n=46 v=99
308227 Off ch=2 n=33 v=127
308407 On ch=10 n=36 v=105
308407 On ch=10 n=42 v=62
308407 On ch=10 n=82 v=68
308413 On ch=2 n=37 v=127
308527 Off ch=10 n=82 v=68
308527 Off ch=10 n=42 v=62
308527 Off ch=10 n=36 v=105
308983 Off ch=2 n=37 v=127
309395 On ch=10 n=42 v=47
309395 On ch=10 n=82 v=58
309485 On ch=2 n=37 v=123
309515 Off ch=10 n=82 v=58
309515 Off ch=10 n=42 v=47
310327 On ch=10 n=40 v=113
310327 On ch=10 n=42 v=59
310327 On ch=10 n=82 v=66
310367 On ch=2 n=37 v=127
310405 Off ch=2 n=37 v=123
310447 Off ch=10 n=82 v=66
310447 Off ch=10 n=42 v=59
310447 Off ch=10 n=40 v=113
311097 Off ch=2 n=37 v=127
311285 On ch=2 n=37 v=127
311355 On ch=10 n=46 v=94
311355 On ch=10 n=82 v=60
311475 Off ch=10 n=82 v=60
311475 Off ch=10 n=46 v=94
311875 Off ch=2 n=37 v=127
312230 On ch=10 n=36 v=105
312230 On ch=10 n=42 v=62
312230 On ch=10 n=82 v=56
312309 On ch=2 n=37 v=127
312350 Off ch=10 n=82 v=56
312350 Off ch=10 n=42 v=62
312350 Off ch=10 n=36 v=105
313029 Off ch=2 n=37 v=127
313173 On ch=2 n=37 v=127
313217 On ch=10 n=42 v=49
313217 On ch=10 n=82 v=60
313337 Off ch=10 n=82 v=60
313337 Off ch=10 n=42 v=49
313903 Off ch=2 n=37 v=127
314079 On ch=2 n=37 v=127
314146 On ch=10 n=40 v=113
314146 On ch=10 n=42 v=56
314146 On ch=10 n=52 v=84
314146 On ch=10 n=82 v=64
314266 Off ch=10 n=82 v=64
314266 Off ch=10 n=52 v=84
314266 Off ch=10 n=42 v=56
314266 Off ch=10 n=40 v=113
314350 Par ch=10 c=11 v=127
314599 Off ch=2 n=37 v=127
314690 Par ch=10 c=99 v=24
314920 Par ch=10 c=98 v=39
315023 On ch=10 n=46 v=94
315023 On ch=10 n=82 v=64
315048 On ch=2 n=37 v=127
315110 Par ch=10 c=6 v=70
315143 Off ch=10 n=82 v=64
315143 Off ch=10 n=46 v=94
315410 Par ch=10 c=99 v=29
315478 Off ch=2 n=37 v=127
315610 Par ch=10 c=98 v=39
315750 Par ch=2 c=11 v=127
315790 Par ch=2 c=99 v=1
315790 Par ch=2 c=98 v=33
315790 Par ch=2 c=6 v=70
315800 Par ch=10 c=6 v=40
316021 On ch=10 n=36 v=105
316021 On ch=10 n=42 v=42
316021 On ch=10 n=57 v=75
316021 On ch=3 n=57 v=73
316021 On ch=3 n=61 v=73
316021 On ch=3 n=66 v=73
316021 On ch=10 n=82 v=66
316117 On ch=2 n=42 v=127
316141 Off ch=10 n=82 v=66
316141 Off ch=10 n=42 v=42
316141 Off ch=10 n=36 v=105
316531 Off ch=10 n=57 v=75
316617 Off ch=2 n=42 v=127
316990 On ch=2 n=37 v=127
317030 On ch=10 n=42 v=69
317030 On ch=10 n=82 v=64
317150 Off ch=10 n=82 v=64
317150 Off ch=10 n=42 v=69
317510 Off ch=2 n=37 v=127
317934 On ch=10 n=39 v=110
317934 On ch=10 n=40 v=112
317934 On ch=10 n=42 v=54
317934 On ch=10 n=82 v=62
317970 On ch=2 n=40 v=127
318054 Off ch=10 n=82 v=62
318054 Off ch=10 n=42 v=54
318054 Off ch=10 n=40 v=112
318054 Off ch=10 n=39 v=110
318421 Off ch=3 n=66 v=73
318421 Off ch=3 n=61 v=73
318421 Off ch=3 n=57 v=73
318520 Off ch=2 n=40 v=127
318840 On ch=10 n=42 v=74
318840 On ch=3 n=59 v=73
318840 On ch=3 n=63 v=73
318840 On ch=3 n=68 v=73
318840 On ch=10 n=82 v=64
318937 On ch=2 n=42 v=127
318960 Off ch=10 n=82 v=64
318960 Off ch=10 n=42 v=74
319447 Off ch=2 n=42 v=127
319870 On ch=10 n=36 v=105
319870 On ch=10 n=42 v=57
319870 On ch=10 n=82 v=64
319884 On ch=2 n=40 v=127
319990 Off ch=10 n=82 v=64
319990 Off ch=10 n=42 v=57
319990 Off ch=10 n=36 v=105
320444 Off ch=2 n=40 v=127
320766 On ch=2 n=37 v=127
320831 On ch=10 n=42 v=69
320831 On ch=10 n=82 v=68
320951 Off ch=10 n=82 v=68
320951 Off ch=10 n=42 v=69
321276 Off ch=2 n=37 v=127
321793 On ch=10 n=39 v=110
321793 On ch=10 n=40 v=113
321793 On ch=10 n=42 v=57
321793 On ch=10 n=82 v=62
321840 On ch=2 n=35 v=127
321913 Off ch=10 n=82 v=62
321913 Off ch=10 n=42 v=57
321913 Off ch=10 n=40 v=113
321913 Off ch=10 n=39 v=110
322450 Off ch=2 n=35 v=127
322680 Off ch=3 n=68 v=73
322680 Off ch=3 n=59 v=73
322680 Off ch=3 n=63 v=73
322771 On ch=2 n=37 v=127
322784 On ch=10 n=42 v=79
322784 On ch=10 n=82 v=64
322904 Off ch=10 n=82 v=64
322904 Off ch=10 n=42 v=79
323311 Off ch=2 n=37 v=127
323703 On ch=2 n=42 v=127
323785 On ch=10 n=36 v=105
323785 On ch=10 n=42 v=54
323785 On ch=3 n=61 v=73
323785 On ch=3 n=64 v=73
323785 On ch=3 n=69 v=73
323785 On ch=10 n=82 v=62
323905 Off ch=10 n=82 v=62
323905 Off ch=10 n=42 v=54
323905 Off ch=10 n=36 v=105
324173 Off ch=2 n=42 v=127
324669 On ch=10 n=42 v=69
324669 On ch=10 n=82 v=55
324771 On ch=2 n=37 v=127
324789 Off ch=10 n=82 v=55
324789 Off ch=10 n=42 v=69
325251 Off ch=2 n=37 v=127
325644 On ch=10 n=39 v=110
325644 On ch=10 n=40 v=113
325644 On ch=10 n=42 v=49
325644 On ch=10 n=82 v=55
325663 On ch=2 n=40 v=127
325764 Off ch=10 n=82 v=55
325764 Off ch=10 n=42 v=49
325764 Off ch=10 n=40 v=113
325764 Off ch=10 n=39 v=110
326185 Off ch=3 n=61 v=73
326185 Off ch=3 n=64 v=73
326185 Off ch=3 n=69 v=73
326193 Off ch=2 n=40 v=127
326616 On ch=2 n=42 v=127
326643 On ch=10 n=42 v=79
326643 On ch=3 n=59 v=73
326643 On ch=3 n=63 v=73
326643 On ch=3 n=68 v=73
326643 On ch=10 n=82 v=51
326763 Off ch=10 n=82 v=51
326763 Off ch=10 n=42 v=79
327076 Off ch=2 n=42 v=127
327564 On ch=2 n=40 v=127
327614 On ch=10 n=36 v=105
327614 On ch=10 n=42 v=46
327614 On ch=10 n=82 v=58
327734 Off ch=10 n=82 v=58
327734 Off ch=10 n=42 v=46
327734 Off ch=10 n=36 v=105
328154 Off ch=2 n=40 v=127
328569 On ch=2 n=37 v=127
328577 On ch=10 n=42 v=74
328577 On ch=10 n=82 v=47
328697 Off ch=10 n=82 v=47
328697 Off ch=10 n=42 v=74
329069 On ch=10 n=45 v=97
329109 Off ch=2 n=37 v=127
329189 Off ch=10 n=45 v=97
329534 On ch=2 n=35 v=127
329549 On ch=10 n=39 v=110
329549 On ch=10 n=40 v=113
329549 On ch=10 n=42 v=46
329549 On ch=10 n=43 v=103
329549 On ch=10 n=82 v=62
329669 Off ch=10 n=82 v=62
329669 Off ch=10 n=43 v=103
329669 Off ch=10 n=42 v=46
329669 Off ch=10 n=40 v=113
329669 Off ch=10 n=39 v=110
330184 Off ch=2 n=35 v=127
330460 On ch=2 n=37 v=127
330475 On ch=10 n=42 v=79
330475 On ch=10 n=82 v=66
330483 Off ch=3 n=68 v=73
330483 Off ch=3 n=63 v=73
330483 Off ch=3 n=59 v=73
330595 Off ch=10 n=82 v=66
330595 Off ch=10 n=42 v=79
330970 Off ch=2 n=37 v=127
330990 On ch=10 n=82 v=69
331110 Off ch=10 n=82 v=69
331393 On ch=2 n=42 v=127
331470 On ch=10 n=36 v=105
331470 On ch=10 n=42 v=42
331470 On ch=3 n=57 v=73
331470 On ch=3 n=61 v=73
331470 On ch=3 n=66 v=73
331470 On ch=10 n=82 v=56
331590 Off ch=10 n=82 v=56
331590 Off ch=10 n=42 v=42
331590 Off ch=10 n=36 v=105
331893 Off ch=2 n=42 v=127
332364 On ch=10 n=42 v=69
332364 On ch=10 n=82 v=46
332452 On ch=2 n=37 v=127
332484 Off ch=10 n=82 v=46
332484 Off ch=10 n=42 v=69
332972 Off ch=2 n=37 v=127
333322 On ch=10 n=39 v=110
333322 On ch=10 n=40 v=112
333322 On ch=10 n=42 v=54
333322 On ch=10 n=82 v=64
333344 On ch=2 n=40 v=127
333442 Off ch=10 n=82 v=64
333442 Off ch=10 n=42 v=54
333442 Off ch=10 n=40 v=112
333442 Off ch=10 n=39 v=110
333870 Off ch=3 n=66 v=73
333870 Off ch=3 n=57 v=73
333870 Off ch=3 n=61 v=73
333894 Off ch=2 n=40 v=127
334260 On ch=2 n=42 v=127
334344 On ch=10 n=42 v=74
334344 On ch=3 n=59 v=73
334344 On ch=3 n=63 v=73
334344 On ch=3 n=68 v=73
334344 On ch=10 n=82 v=53
334464 Off ch=10 n=82 v=53
334464 Off ch=10 n=42 v=74
334770 Off ch=2 n=42 v=127
335236 On ch=10 n=36 v=105
335236 On ch=10 n=42 v=57
335236 On ch=10 n=82 v=62
335264 On ch=2 n=40 v=127
335356 Off ch=10 n=82 v=62
335356 Off ch=10 n=42 v=57
335356 Off ch=10 n=36 v=105
335824 Off ch=2 n=40 v=127
336203 On ch=10 n=42 v=69
336203 On ch=10 n=82 v=60
336234 On ch=2 n=37 v=127
336323 Off ch=10 n=82 v=60
336323 Off ch=10 n=42 v=69
336744 Off ch=2 n=37 v=127
337114 On ch=10 n=39 v=110
337114 On ch=10 n=40 v=113
337114 On ch=10 n=42 v=57
337114 On ch=10 n=82 v=68
337167 On ch=2 n=35 v=127
337234 Off ch=10 n=82 v=68
337234 Off ch=10 n=42 v=57
337234 Off ch=10 n=40 v=113
337234 Off ch=10 n=39 v=110
337777 Off ch=2 n=35 v=127
338103 On ch=2 n=37 v=127
338168 On ch=10 n=42 v=79
338168 On ch=10 n=82 v=50
338184 Off ch=3 n=59 v=73
338184 Off ch=3 n=63 v=73
338184 Off ch=3 n=68 v=73
338288 Off ch=10 n=82 v=50
338288 Off ch=10 n=42 v=79
338643 Off ch=2 n=37 v=127
339100 On ch=2 n=42 v=127
339123 On ch=10 n=36 v=105
339123 On ch=10 n=42 v=54
339123 On ch=3 n=61 v=73
339123 On ch=3 n=64 v=73
339123 On ch=3 n=69 v=73
339123 On ch=10 n=82 v=68
339243 Off ch=10 n=82 v=68
339243 Off ch=10 n=42 v=54
339243 Off ch=10 n=36 v=105
339570 Off ch=2 n=42 v=127
340059 On ch=10 n=42 v=69
340059 On ch=10 n=82 v=58
340083 On ch=2 n=37 v=127
340179 Off ch=10 n=82 v=58
340179 Off ch=10 n=42 v=69
340563 Off ch=2 n=37 v=127
341058 On ch=2 n=40 v=127
341071 On ch=10 n=39 v=110
341071 On ch=10 n=40 v=113
341071 On ch=10 n=42 v=49
341071 On ch=10 n=82 v=66
341191 Off ch=10 n=82 v=66
341191 Off ch=10 n=42 v=49
341191 Off ch=10 n=40 v=113
341191 Off ch=10 n=39 v=110
341523 Off ch=3 n=61 v=73
341523 Off ch=3 n=64 v=73
341523 Off ch=3 n=69 v=73
341588 Off ch=2 n=40 v=127
341932 On ch=2 n=42 v=127
341967 On ch=10 n=42 v=79
341967 On ch=3 n=59 v=73
341967 On ch=3 n=63 v=73
341967 On ch=3 n=68 v=73
341967 On ch=10 n=82 v=60
342087 Off ch=10 n=82 v=60
342087 Off ch=10 n=42 v=79
342392 Off ch=2 n=42 v=127
342934 On ch=2 n=40 v=127
342957 On ch=10 n=36 v=105
342957 On ch=10 n=42 v=46
342957 On ch=10 n=82 v=56
343077 Off ch=10 n=82 v=56
343077 Off ch=10 n=42 v=46
343077 Off ch=10 n=36 v=105
343524 Off ch=2 n=40 v=127
343906 On ch=10 n=42 v=74
343906 On ch=10 n=82 v=60
343948 On ch=2 n=37 v=127
344026 Off ch=10 n=82 v=60
344026 Off ch=10 n=42 v=74
344488 Off ch=2 n=37 v=127
344858 On ch=10 n=39 v=110
344858 On ch=10 n=40 v=113
344858 On ch=10 n=42 v=46
344858 On ch=10 n=82 v=64
344886 On ch=2 n=35 v=127
344978 Off ch=10 n=82 v=64
344978 Off ch=10 n=42 v=46
344978 Off ch=10 n=40 v=113
344978 Off ch=10 n=39 v=110
345536 Off ch=2 n=35 v=127
345881 On ch=10 n=42 v=79
345881 On ch=10 n=82 v=64
345886 On ch=2 n=37 v=127
346001 Off ch=10 n=82 v=64
346001 Off ch=10 n=42 v=79
346287 Off ch=3 n=68 v=73
346287 Off ch=3 n=63 v=73
346287 Off ch=3 n=59 v=73
346396 Off ch=2 n=37 v=127
346778 On ch=2 n=47 v=127
346799 On ch=10 n=36 v=105
346799 On ch=10 n=42 v=42
346799 On ch=3 n=57 v=73
346799 On ch=3 n=62 v=73
346799 On ch=3 n=66 v=73
346799 On ch=10 n=82 v=66
346919 Off ch=10 n=82 v=66
346919 Off ch=10 n=42 v=42
346919 Off ch=10 n=36 v=105
347258 Off ch=2 n=47 v=127
347714 On ch=10 n=42 v=69
347714 On ch=10 n=82 v=64
347812 On ch=2 n=42 v=127
347834 Off ch=10 n=82 v=64
347834 Off ch=10 n=42 v=69
348162 Off ch=2 n=42 v=127
348726 On ch=2 n=45 v=127
348754 On ch=10 n=39 v=110
348754 On ch=10 n=40 v=112
348754 On ch=10 n=42 v=54
348754 On ch=10 n=82 v=62
348874 Off ch=10 n=82 v=62
348874 Off ch=10 n=42 v=54
348874 Off ch=10 n=40 v=112
348874 Off ch=10 n=39 v=110
349246 Off ch=2 n=45 v=127
349670 On ch=10 n=42 v=74
349670 On ch=10 n=82 v=64
349755 On ch=2 n=47 v=127
349790 Off ch=10 n=82 v=64
349790 Off ch=10 n=42 v=74
350455 Off ch=2 n=47 v=127
350718 On ch=10 n=36 v=105
350718 On ch=10 n=42 v=57
350718 On ch=10 n=82 v=64
350838 Off ch=10 n=82 v=64
350838 Off ch=10 n=42 v=57
350838 Off ch=10 n=36 v=105
351686 On ch=10 n=42 v=69
351686 On ch=10 n=82 v=68
351727 On ch=2 n=42 v=127
351806 Off ch=10 n=82 v=68
351806 Off ch=10 n=42 v=69
352287 Off ch=2 n=42 v=127
352641 On ch=10 n=39 v=110
352641 On ch=10 n=40 v=113
352641 On ch=10 n=42 v=57
352641 On ch=10 n=82 v=62
352648 On ch=2 n=40 v=127
352761 Off ch=10 n=82 v=62
352761 Off ch=10 n=42 v=57
352761 Off ch=10 n=40 v=113
352761 Off ch=10 n=39 v=110
353248 Off ch=2 n=40 v=127
353494 On ch=2 n=42 v=127
353573 On ch=10 n=42 v=79
353573 On ch=10 n=82 v=64
353693 Off ch=10 n=82 v=64
353693 Off ch=10 n=42 v=79
354014 Off ch=2 n=42 v=127
354481 On ch=2 n=47 v=127
354566 On ch=10 n=36 v=105
354566 On ch=10 n=42 v=54
354566 On ch=10 n=82 v=62
354686 Off ch=10 n=82 v=62
354686 Off ch=10 n=42 v=54
354686 Off ch=10 n=36 v=105
354971 Off ch=2 n=47 v=127
355408 On ch=10 n=42 v=69
355408 On ch=10 n=82 v=55
355495 On ch=2 n=42 v=127
355528 Off ch=10 n=82 v=55
355528 Off ch=10 n=42 v=69
355995 Off ch=2 n=42 v=127
356412 On ch=10 n=39 v=110
356412 On ch=10 n=40 v=113
356412 On ch=10 n=42 v=49
356412 On ch=10 n=82 v=55
356427 On ch=2 n=45 v=127
356532 Off ch=10 n=82 v=55
356532 Off ch=10 n=42 v=49
356532 Off ch=10 n=40 v=113
356532 Off ch=10 n=39 v=110
356997 Off ch=2 n=45 v=127
357352 On ch=2 n=47 v=127
357417 On ch=10 n=42 v=79
357417 On ch=10 n=82 v=51
357537 Off ch=10 n=82 v=51
357537 Off ch=10 n=42 v=79
358032 Off ch=2 n=47 v=127
358370 On ch=10 n=36 v=105
358370 On ch=10 n=42 v=46
358370 On ch=10 n=82 v=58
358490 Off ch=10 n=82 v=58
358490 Off ch=10 n=42 v=46
358490 Off ch=10 n=36 v=105
359292 On ch=10 n=42 v=74
359292 On ch=10 n=82 v=47
359331 On ch=2 n=42 v=127
359412 Off ch=10 n=82 v=47
359412 Off ch=10 n=42 v=74
359961 Off ch=2 n=42 v=127
360238 On ch=10 n=39 v=110
360238 On ch=10 n=40 v=113
360238 On ch=10 n=42 v=46
360238 On ch=10 n=82 v=62
360259 On ch=2 n=40 v=127
360358 Off ch=10 n=82 v=62
360358 Off ch=10 n=42 v=46
360358 Off ch=10 n=40 v=113
360358 Off ch=10 n=39 v=110
360859 Off ch=2 n=40 v=127
361156 On ch=10 n=42 v=79
361156 On ch=10 n=82 v=58
361227 On ch=2 n=37 v=127
361276 Off ch=10 n=82 v=58
361276 Off ch=10 n=42 v=79
361799 Off ch=3 n=57 v=73
361839 Off ch=3 n=66 v=73
361857 Off ch=2 n=37 v=127
361919 Off ch=3 n=62 v=73
362125 On ch=2 n=42 v=127
362225 On ch=10 n=36 v=105
362225 On ch=10 n=42 v=42
362225 On ch=3 n=57 v=96
362225 On ch=3 n=61 v=96
362225 On ch=3 n=66 v=96
362225 On ch=10 n=82 v=56
362345 Off ch=10 n=82 v=56
362345 Off ch=10 n=42 v=42
362345 Off ch=10 n=36 v=105
362625 Off ch=2 n=42 v=127
362705 Off ch=3 n=61 v=96
362705 Off ch=3 n=66 v=96
362705 Off ch=3 n=57 v=96
363099 On ch=10 n=42 v=69
363099 On ch=10 n=82 v=46
363170 On ch=2 n=37 v=127
363219 Off ch=10 n=82 v=46
363219 Off ch=10 n=42 v=69
363690 Off ch=2 n=37 v=127
364015 On ch=10 n=39 v=110
364015 On ch=10 n=40 v=112
364015 On ch=10 n=42 v=54
364015 On ch=10 n=82 v=64
364060 On ch=2 n=40 v=127
364135 Off ch=10 n=82 v=64
364135 Off ch=10 n=42 v=54
364135 Off ch=10 n=40 v=112
364135 Off ch=10 n=39 v=110
364610 Off ch=2 n=40 v=127
364934 On ch=2 n=42 v=127
365077 On ch=10 n=42 v=74
365077 On ch=3 n=59 v=96
365077 On ch=3 n=63 v=96
365077 On ch=3 n=68 v=96
365077 On ch=10 n=82 v=53
365197 Off ch=10 n=82 v=53
365197 Off ch=10 n=42 v=74
365444 Off ch=2 n=42 v=127
365557 Off ch=3 n=63 v=96
365557 Off ch=3 n=68 v=96
365557 Off ch=3 n=59 v=96
365940 On ch=10 n=36 v=105
365940 On ch=10 n=42 v=57
365940 On ch=10 n=82 v=62
365988 On ch=2 n=40 v=127
366060 Off ch=10 n=82 v=62
366060 Off ch=10 n=42 v=57
366060 Off ch=10 n=36 v=105
366548 Off ch=2 n=40 v=127
366909 On ch=2 n=37 v=127
366912 On ch=10 n=42 v=69
366912 On ch=10 n=82 v=60
367032 Off ch=10 n=82 v=60
367032 Off ch=10 n=42 v=69
367419 Off ch=2 n=37 v=127
367828 On ch=10 n=39 v=110
367828 On ch=10 n=40 v=113
367828 On ch=10 n=42 v=57
367828 On ch=10 n=82 v=68
367942 On ch=2 n=35 v=127
367948 Off ch=10 n=82 v=68
367948 Off ch=10 n=42 v=57
367948 Off ch=10 n=40 v=113
367948 Off ch=10 n=39 v=110
368552 Off ch=2 n=35 v=127
368797 On ch=2 n=37 v=127
368851 On ch=10 n=42 v=79
368851 On ch=10 n=82 v=50
368971 Off ch=10 n=82 v=50
368971 Off ch=10 n=42 v=79
369337 Off ch=2 n=37 v=127
369799 On ch=2 n=42 v=127
369894 On ch=10 n=36 v=105
369894 On ch=10 n=42 v=54
369894 On ch=3 n=61 v=96
369894 On ch=3 n=64 v=96
369894 On ch=3 n=69 v=96
369894 On ch=10 n=82 v=68
370014 Off ch=10 n=82 v=68
370014 Off ch=10 n=42 v=54
370014 Off ch=10 n=36 v=105
370269 Off ch=2 n=42 v=127
370374 Off ch=3 n=69 v=96
370374 Off ch=3 n=64 v=96
370374 Off ch=3 n=61 v=96
370739 On ch=10 n=42 v=69
370739 On ch=10 n=82 v=58
370790 On ch=2 n=37 v=127
370859 Off ch=10 n=82 v=58
370859 Off ch=10 n=42 v=69
371270 Off ch=2 n=37 v=127
371697 On ch=10 n=39 v=110
371697 On ch=10 n=40 v=113
371697 On ch=10 n=42 v=49
371697 On ch=10 n=82 v=66
371753 On ch=2 n=40 v=127
371817 Off ch=10 n=82 v=66
371817 Off ch=10 n=42 v=49
371817 Off ch=10 n=40 v=113
371817 Off ch=10 n=39 v=110
372283 Off ch=2 n=40 v=127
372728 On ch=10 n=42 v=79
372728 On ch=3 n=59 v=96
372728 On ch=3 n=63 v=96
372728 On ch=3 n=68 v=96
372728 On ch=10 n=82 v=60
372747 On ch=2 n=42 v=127
372848 Off ch=10 n=82 v=60
372848 Off ch=10 n=42 v=79
373207 Off ch=2 n=42 v=127
373208 Off ch=3 n=68 v=96
373208 Off ch=3 n=63 v=96
373208 Off ch=3 n=59 v=96
373591 On ch=10 n=36 v=105
373591 On ch=10 n=42 v=46
373591 On ch=10 n=82 v=56
373600 On ch=2 n=40 v=127
373711 Off ch=10 n=82 v=56
373711 Off ch=10 n=42 v=46
373711 Off ch=10 n=36 v=105
374190 Off ch=2 n=40 v=127
374649 On ch=2 n=37 v=127
374650 On ch=10 n=42 v=74
374650 On ch=10 n=82 v=60
374770 Off ch=10 n=82 v=60
374770 Off ch=10 n=42 v=74
375189 Off ch=2 n=37 v=127
375645 On ch=10 n=39 v=110
375645 On ch=10 n=40 v=113
375645 On ch=10 n=42 v=46
375645 On ch=10 n=82 v=64
375712 On ch=2 n=35 v=127
375765 Off ch=10 n=82 v=64
375765 Off ch=10 n=42 v=46
375765 Off ch=10 n=40 v=113
375765 Off ch=10 n=39 v=110
376362 Off ch=2 n=35 v=127
376575 On ch=2 n=37 v=127
376646 On ch=10 n=42 v=79
376646 On ch=10 n=82 v=64
376766 Off ch=10 n=82 v=64
376766 Off ch=10 n=42 v=79
377085 Off ch=2 n=37 v=127
377539 On ch=10 n=36 v=105
377539 On ch=10 n=42 v=42
377539 On ch=3 n=57 v=73
377539 On ch=3 n=62 v=73
377539 On ch=3 n=66 v=73
377539 On ch=10 n=82 v=66
377585 On ch=2 n=47 v=127
377659 Off ch=10 n=82 v=66
377659 Off ch=10 n=42 v=42
377659 Off ch=10 n=36 v=105
378065 Off ch=2 n=47 v=127
378490 On ch=2 n=42 v=127
378561 On ch=10 n=42 v=69
378561 On ch=10 n=82 v=64
378681 Off ch=10 n=82 v=64
378681 Off ch=10 n=42 v=69
378840 Off ch=2 n=42 v=127
379491 On ch=10 n=39 v=110
379491 On ch=10 n=40 v=112
379491 On ch=10 n=42 v=54
379491 On ch=10 n=82 v=62
379513 On ch=2 n=45 v=127
379611 Off ch=10 n=82 v=62
379611 Off ch=10 n=42 v=54
379611 Off ch=10 n=40 v=112
379611 Off ch=10 n=39 v=110
380033 Off ch=2 n=45 v=127
380410 On ch=10 n=42 v=74
380410 On ch=10 n=82 v=64
380412 On ch=2 n=47 v=127
380530 Off ch=10 n=82 v=64
380530 Off ch=10 n=42 v=74
381112 Off ch=2 n=47 v=127
381378 On ch=10 n=36 v=105
381378 On ch=10 n=42 v=57
381378 On ch=10 n=82 v=64
381498 Off ch=10 n=82 v=64
381498 Off ch=10 n=42 v=57
381498 Off ch=10 n=36 v=105
382309 On ch=2 n=42 v=127
382370 On ch=10 n=42 v=69
382370 On ch=10 n=82 v=68
382490 Off ch=10 n=82 v=68
382490 Off ch=10 n=42 v=69
382869 Off ch=2 n=42 v=127
383298 On ch=10 n=39 v=110
383298 On ch=10 n=40 v=113
383298 On ch=10 n=42 v=57
383298 On ch=10 n=82 v=62
383368 On ch=2 n=40 v=127
383418 Off ch=10 n=82 v=62
383418 Off ch=10 n=42 v=57
383418 Off ch=10 n=40 v=113
383418 Off ch=10 n=39 v=110
383968 Off ch=2 n=40 v=127
384252 On ch=2 n=42 v=127
384273 On ch=10 n=42 v=79
384273 On ch=10 n=82 v=64
384393 Off ch=10 n=82 v=64
384393 Off ch=10 n=42 v=79
384772 Off ch=2 n=42 v=127
385249 On ch=10 n=36 v=105
385249 On ch=10 n=42 v=54
385249 On ch=2 n=47 v=127
385249 On ch=10 n=82 v=62
385369 Off ch=10 n=82 v=62
385369 Off ch=10 n=42 v=54
385369 Off ch=10 n=36 v=105
385739 Off ch=2 n=47 v=127
386157 On ch=2 n=42 v=127
386198 On ch=10 n=42 v=69
386198 On ch=10 n=82 v=55
386318 Off ch=10 n=82 v=55
386318 Off ch=10 n=42 v=69
386657 Off ch=2 n=42 v=127
387083 On ch=10 n=39 v=110
387083 On ch=10 n=40 v=113
387083 On ch=10 n=42 v=49
387083 On ch=10 n=82 v=55
387200 On ch=2 n=45 v=127
387203 Off ch=10 n=82 v=55
387203 Off ch=10 n=42 v=49
387203 Off ch=10 n=40 v=113
387203 Off ch=10 n=39 v=110
387770 Off ch=2 n=45 v=127
388079 On ch=10 n=42 v=79
388079 On ch=10 n=82 v=51
388104 On ch=2 n=47 v=127
388199 Off ch=10 n=82 v=51
388199 Off ch=10 n=42 v=79
388784 Off ch=2 n=47 v=127
389135 On ch=10 n=36 v=105
389135 On ch=10 n=42 v=46
389135 On ch=10 n=82 v=58
389255 Off ch=10 n=82 v=58
389255 Off ch=10 n=42 v=46
389255 Off ch=10 n=36 v=105
390017 On ch=2 n=42 v=127
390067 On ch=10 n=42 v=74
390067 On ch=10 n=82 v=47
390187 Off ch=10 n=82 v=47
390187 Off ch=10 n=42 v=74
390647 Off ch=2 n=42 v=127
390989 On ch=2 n=40 v=127
391035 On ch=10 n=39 v=110
391035 On ch=10 n=40 v=113
391035 On ch=10 n=42 v=46
391035 On ch=10 n=82 v=62
391155 Off ch=10 n=82 v=62
391155 Off ch=10 n=42 v=46
391155 Off ch=10 n=40 v=113
391155 Off ch=10 n=39 v=110
391589 Off ch=2 n=40 v=127
391942 On ch=2 n=37 v=127
391944 On ch=10 n=42 v=79
391944 On ch=10 n=82 v=58
392064 Off ch=10 n=82 v=58
392064 Off ch=10 n=42 v=79
392572 Off ch=2 n=37 v=127
392699 Off ch=3 n=66 v=73
392739 Off ch=3 n=57 v=73
392739 Off ch=3 n=62 v=73
392886 On ch=10 n=36 v=105
392886 On ch=10 n=42 v=42
392886 On ch=3 n=57 v=96
392886 On ch=3 n=61 v=96
392886 On ch=3 n=66 v=96
392886 On ch=10 n=82 v=56
392892 On ch=2 n=42 v=127
393006 Off ch=10 n=82 v=56
393006 Off ch=10 n=42 v=42
393006 Off ch=10 n=36 v=105
393392 Off ch=2 n=42 v=127
393406 Off ch=3 n=57 v=96
393436 Off ch=3 n=61 v=96
393436 Off ch=3 n=66 v=96
393832 On ch=2 n=37 v=127
393839 On ch=10 n=42 v=69
393839 On ch=10 n=82 v=46
393959 Off ch=10 n=82 v=46
393959 Off ch=10 n=42 v=69
394352 Off ch=2 n=37 v=127
394718 On ch=10 n=39 v=110
394718 On ch=10 n=40 v=112
394718 On ch=10 n=42 v=54
394718 On ch=10 n=82 v=64
394822 On ch=2 n=40 v=127
394838 Off ch=10 n=82 v=64
394838 Off ch=10 n=42 v=54
394838 Off ch=10 n=40 v=112
394838 Off ch=10 n=39 v=110
395372 Off ch=2 n=40 v=127
395697 On ch=2 n=42 v=127
395777 On ch=10 n=42 v=74
395777 On ch=3 n=59 v=96
395777 On ch=3 n=63 v=96
395777 On ch=3 n=68 v=96
395777 On ch=10 n=82 v=53
395897 Off ch=10 n=82 v=53
395897 Off ch=10 n=42 v=74
396207 Off ch=2 n=42 v=127
396257 Off ch=3 n=68 v=96
396257 Off ch=3 n=63 v=96
396257 Off ch=3 n=59 v=96
396625 On ch=10 n=36 v=105
396625 On ch=10 n=42 v=57
396625 On ch=10 n=82 v=62
396672 On ch=2 n=40 v=127
396745 Off ch=10 n=82 v=62
396745 Off ch=10 n=42 v=57
396745 Off ch=10 n=36 v=105
397232 Off ch=2 n=40 v=127
397583 On ch=10 n=42 v=69
397583 On ch=10 n=82 v=60
397650 On ch=2 n=37 v=127
397703 Off ch=10 n=82 v=60
397703 Off ch=10 n=42 v=69
398160 Off ch=2 n=37 v=127
398588 On ch=2 n=35 v=127
398617 On ch=10 n=39 v=110
398617 On ch=10 n=40 v=113
398617 On ch=10 n=42 v=57
398617 On ch=10 n=82 v=68
398737 Off ch=10 n=82 v=68
398737 Off ch=10 n=42 v=57
398737 Off ch=10 n=40 v=113
398737 Off ch=10 n=39 v=110
399198 Off ch=2 n=35 v=127
399515 On ch=10 n=42 v=79
399515 On ch=10 n=82 v=50
399587 On ch=2 n=37 v=127
399635 Off ch=10 n=82 v=50
399635 Off ch=10 n=42 v=79
400127 Off ch=2 n=37 v=127
400543 On ch=10 n=36 v=105
400543 On ch=10 n=42 v=54
400543 On ch=3 n=61 v=96
400543 On ch=3 n=64 v=96
400543 On ch=3 n=69 v=96
400543 On ch=10 n=82 v=68
400571 On ch=2 n=42 v=127
400663 Off ch=10 n=82 v=68
400663 Off ch=10 n=42 v=54
400663 Off ch=10 n=36 v=105
401023 Off ch=3 n=69 v=96
401023 Off ch=3 n=64 v=96
401023 Off ch=3 n=61 v=96
401041 Off ch=2 n=42 v=127
401070 PrCh ch=11 p=88 
401483 On ch=10 n=42 v=69
401483 On ch=10 n=82 v=58
401530 On ch=2 n=37 v=127
401550 Par ch=11 c=7 v=61
401603 Off ch=10 n=82 v=58
401603 Off ch=10 n=42 v=69
402010 Off ch=2 n=37 v=127
402434 On ch=2 n=40 v=127
402500 On ch=10 n=39 v=110
402500 On ch=10 n=40 v=113
402500 On ch=10 n=42 v=49
402500 On ch=10 n=82 v=66
402620 Off ch=10 n=82 v=66
402620 Off ch=10 n=42 v=49
402620 Off ch=10 n=40 v=113
402620 Off ch=10 n=39 v=110
402964 Off ch=2 n=40 v=127
403473 On ch=10 n=42 v=79
403473 On ch=3 n=59 v=96
403473 On ch=3 n=63 v=96
403473 On ch=3 n=68 v=96
403473 On ch=10 n=82 v=60
403500 On ch=2 n=42 v=127
403593 Off ch=10 n=82 v=60
403593 Off ch=10 n=42 v=79
403953 Off ch=3 n=68 v=96
403953 Off ch=3 n=63 v=96
403953 Off ch=3 n=59 v=96
403960 Off ch=2 n=42 v=127
404377 On ch=10 n=36 v=105
404377 On ch=10 n=42 v=46
404377 On ch=10 n=82 v=56
404435 On ch=2 n=40 v=127
404497 Off ch=10 n=82 v=56
404497 Off ch=10 n=42 v=46
404497 Off ch=10 n=36 v=105
405025 Off ch=2 n=40 v=127
405399 On ch=10 n=42 v=74
405399 On ch=10 n=82 v=60
405402 On ch=2 n=37 v=127
405519 Off ch=10 n=82 v=60
405519 Off ch=10 n=42 v=74
405942 Off ch=2 n=37 v=127
406361 On ch=2 n=35 v=127
406371 On ch=10 n=39 v=110
406371 On ch=10 n=40 v=113
406371 On ch=10 n=42 v=46
406371 On ch=10 n=82 v=64
406491 Off ch=10 n=82 v=64
406491 Off ch=10 n=42 v=46
406491 Off ch=10 n=40 v=113
406491 Off ch=10 n=39 v=110
407011 Off ch=2 n=35 v=127
407314 On ch=2 n=37 v=127
407357 On ch=10 n=46 v=99
407357 On ch=10 n=82 v=64
407477 Off ch=10 n=82 v=64
407477 Off ch=10 n=46 v=99
407824 Off ch=2 n=37 v=127
408289 On ch=2 n=42 v=127
408297 On ch=10 n=36 v=105
408297 On ch=10 n=42 v=42
408297 On ch=3 n=57 v=96
408297 On ch=11 n=61 v=127
408297 On ch=3 n=61 v=96
408297 On ch=3 n=66 v=96
408297 On ch=10 n=82 v=66
408417 Off ch=10 n=82 v=66
408417 Off ch=10 n=42 v=42
408417 Off ch=10 n=36 v=105
408759 Off ch=2 n=42 v=127
408777 Off ch=3 n=57 v=96
408777 Off ch=3 n=61 v=96
408777 Off ch=3 n=66 v=96
409272 On ch=10 n=42 v=69
409272 On ch=10 n=82 v=64
409358 On ch=2 n=37 v=127
409392 Off ch=10 n=82 v=64
409392 Off ch=10 n=42 v=69
409838 Off ch=2 n=37 v=127
410230 On ch=10 n=40 v=112
410230 On ch=10 n=42 v=54
410230 On ch=10 n=82 v=62
410252 On ch=2 n=40 v=127
410350 Off ch=10 n=82 v=62
410350 Off ch=10 n=42 v=54
410350 Off ch=10 n=40 v=112
410782 Off ch=2 n=40 v=127
411104 On ch=2 n=42 v=127
411152 On ch=10 n=42 v=74
411152 On ch=3 n=59 v=96
411152 On ch=3 n=63 v=96
411152 On ch=3 n=68 v=96
411152 On ch=10 n=82 v=64
411272 Off ch=10 n=82 v=64
411272 Off ch=10 n=42 v=74
411564 Off ch=2 n=42 v=127
411632 Off ch=3 n=68 v=96
411632 Off ch=3 n=63 v=96
411632 Off ch=3 n=59 v=96
412137 Off ch=11 n=61 v=127
412150 On ch=10 n=36 v=105
412150 On ch=10 n=42 v=57
412150 On ch=10 n=82 v=64
412172 On ch=2 n=40 v=127
412270 Off ch=10 n=82 v=64
412270 Off ch=10 n=42 v=57
412270 Off ch=10 n=36 v=105
412762 Off ch=2 n=40 v=127
413034 On ch=10 n=42 v=69
413034 On ch=10 n=82 v=68
413114 On ch=2 n=37 v=127
413154 Off ch=10 n=82 v=68
413154 Off ch=10 n=42 v=69
413654 Off ch=2 n=37 v=127
414010 On ch=2 n=35 v=127
414069 On ch=10 n=40 v=113
414069 On ch=10 n=42 v=57
414069 On ch=10 n=82 v=62
414189 Off ch=10 n=82 v=62
414189 Off ch=10 n=42 v=57
414189 Off ch=10 n=40 v=113
414660 Off ch=2 n=35 v=127
414916 On ch=2 n=37 v=127
414986 On ch=10 n=42 v=79
414986 On ch=10 n=82 v=64
415106 Off ch=10 n=82 v=64
415106 Off ch=10 n=42 v=79
415426 Off ch=2 n=37 v=127
415928 On ch=2 n=42 v=127
415967 On ch=10 n=36 v=105
415967 On ch=10 n=42 v=54
415967 On ch=3 n=61 v=96
415967 On ch=3 n=64 v=96
415967 On ch=3 n=69 v=96
415967 On ch=10 n=82 v=62
416087 Off ch=10 n=82 v=62
416087 Off ch=10 n=42 v=54
416087 Off ch=10 n=36 v=105
416428 Off ch=2 n=42 v=127
416447 Off ch=3 n=69 v=96
416447 Off ch=3 n=64 v=96
416447 Off ch=3 n=61 v=96
416865 On ch=10 n=42 v=69
416865 On ch=10 n=82 v=55
416967 On ch=2 n=37 v=127
416985 Off ch=10 n=82 v=55
416985 Off ch=10 n=42 v=69
417487 Off ch=2 n=37 v=127
417861 On ch=2 n=40 v=127
417909 On ch=10 n=40 v=113
417909 On ch=10 n=42 v=49
417909 On ch=10 n=82 v=55
418029 Off ch=10 n=82 v=55
418029 Off ch=10 n=42 v=49
418029 Off ch=10 n=40 v=113
418411 Off ch=2 n=40 v=127
418787 On ch=10 n=42 v=79
418787 On ch=3 n=59 v=96
418787 On ch=3 n=63 v=96
418787 On ch=3 n=68 v=96
418787 On ch=10 n=82 v=51
418790 On ch=2 n=42 v=127
418907 Off ch=10 n=82 v=51
418907 Off ch=10 n=42 v=79
419267 Off ch=3 n=68 v=96
419267 Off ch=3 n=63 v=96
419267 Off ch=3 n=59 v=96
419300 Off ch=2 n=42 v=127
419748 On ch=2 n=40 v=127
419762 On ch=11 n=63 v=127
419822 On ch=10 n=36 v=105
419822 On ch=10 n=42 v=46
419822 On ch=10 n=82 v=58
419942 Off ch=10 n=82 v=58
419942 Off ch=10 n=42 v=46
419942 Off ch=10 n=36 v=105
420308 Off ch=2 n=40 v=127
420723 On ch=10 n=42 v=74
420723 On ch=10 n=82 v=47
420827 On ch=2 n=37 v=127
420843 Off ch=10 n=82 v=47
420843 Off ch=10 n=42 v=74
421337 Off ch=2 n=37 v=127
421682 Off ch=11 n=63 v=127
421701 On ch=2 n=35 v=127
421731 On ch=10 n=40 v=113
421731 On ch=10 n=42 v=46
421731 On ch=10 n=82 v=62
421851 Off ch=10 n=82 v=62
421851 Off ch=10 n=42 v=46
421851 Off ch=10 n=40 v=113
421857 On ch=11 n=59 v=127
422311 Off ch=2 n=35 v=127
422684 On ch=2 n=37 v=127
422767 On ch=10 n=42 v=79
422767 On ch=10 n=82 v=58
422887 Off ch=10 n=82 v=58
422887 Off ch=10 n=42 v=79
423224 Off ch=2 n=37 v=127
423609 On ch=2 n=42 v=127
423641 On ch=11 n=61 v=127
423663 On ch=10 n=36 v=105
423663 On ch=10 n=42 v=42
423663 On ch=3 n=57 v=96
423663 On ch=3 n=61 v=96
423663 On ch=3 n=66 v=96
423663 On ch=10 n=82 v=56
423777 Off ch=11 n=59 v=127
423783 Off ch=10 n=82 v=56
423783 Off ch=10 n=42 v=42
423783 Off ch=10 n=36 v=105
424079 Off ch=2 n=42 v=127
424143 Off ch=3 n=66 v=96
424143 Off ch=3 n=61 v=96
424143 Off ch=3 n=57 v=96
424501 On ch=10 n=42 v=69
424501 On ch=10 n=82 v=46
424621 Off ch=10 n=82 v=46
424621 Off ch=10 n=42 v=69
424642 On ch=2 n=37 v=127
425122 Off ch=2 n=37 v=127
425512 On ch=2 n=40 v=127
425579 On ch=10 n=40 v=112
425579 On ch=10 n=42 v=54
425579 On ch=10 n=82 v=64
425699 Off ch=10 n=82 v=64
425699 Off ch=10 n=42 v=54
425699 Off ch=10 n=40 v=112
426042 Off ch=2 n=40 v=127
426445 On ch=10 n=42 v=74
426445 On ch=3 n=59 v=96
426445 On ch=3 n=63 v=96
426445 On ch=3 n=68 v=96
426445 On ch=10 n=82 v=53
426540 On ch=2 n=42 v=127
426565 Off ch=10 n=82 v=53
426565 Off ch=10 n=42 v=74
426925 Off ch=3 n=68 v=96
426925 Off ch=3 n=63 v=96
426925 Off ch=3 n=59 v=96
427000 Off ch=2 n=42 v=127
427381 Off ch=11 n=61 v=127
427425 On ch=10 n=36 v=105
427425 On ch=10 n=42 v=57
427425 On ch=10 n=82 v=62
427480 On ch=2 n=40 v=127
427545 Off ch=10 n=82 v=62
427545 Off ch=10 n=42 v=57
427545 Off ch=10 n=36 v=105
428070 Off ch=2 n=40 v=127
428357 On ch=2 n=37 v=127
428389 On ch=10 n=42 v=69
428389 On ch=10 n=82 v=60
428509 Off ch=10 n=82 v=60
428509 Off ch=10 n=42 v=69
428897 Off ch=2 n=37 v=127
429367 On ch=2 n=35 v=127
429373 On ch=10 n=40 v=113
429373 On ch=10 n=42 v=57
429373 On ch=10 n=82 v=68
429493 Off ch=10 n=82 v=68
429493 Off ch=10 n=42 v=57
429493 Off ch=10 n=40 v=113
430017 Off ch=2 n=35 v=127
430259 On ch=2 n=37 v=127
430373 On ch=10 n=42 v=79
430373 On ch=10 n=82 v=50
430493 Off ch=10 n=82 v=50
430493 Off ch=10 n=42 v=79
430769 Off ch=2 n=37 v=127
431227 On ch=10 n=36 v=105
431227 On ch=10 n=42 v=54
431227 On ch=3 n=61 v=96
431227 On ch=3 n=64 v=96
431227 On ch=3 n=69 v=96
431227 On ch=10 n=82 v=68
431298 On ch=2 n=42 v=127
431347 Off ch=10 n=82 v=68
431347 Off ch=10 n=42 v=54
431347 Off ch=10 n=36 v=105
431707 Off ch=3 n=69 v=96
431707 Off ch=3 n=64 v=96
431707 Off ch=3 n=61 v=96
431798 Off ch=2 n=42 v=127
432251 On ch=2 n=37 v=127
432291 On ch=10 n=42 v=69
432291 On ch=10 n=82 v=58
432411 Off ch=10 n=82 v=58
432411 Off ch=10 n=42 v=69
432771 Off ch=2 n=37 v=127
433171 On ch=2 n=40 v=127
433293 On ch=10 n=40 v=113
433293 On ch=10 n=42 v=49
433293 On ch=10 n=82 v=66
433413 Off ch=10 n=82 v=66
433413 Off ch=10 n=42 v=49
433413 Off ch=10 n=40 v=113
433721 Off ch=2 n=40 v=127
434169 On ch=10 n=42 v=79
434169 On ch=3 n=59 v=96
434169 On ch=3 n=63 v=96
434169 On ch=3 n=68 v=96
434169 On ch=10 n=82 v=60
434194 On ch=2 n=42 v=127
434289 Off ch=10 n=82 v=60
434289 Off ch=10 n=42 v=79
434649 Off ch=3 n=68 v=96
434649 Off ch=3 n=63 v=96
434649 Off ch=3 n=59 v=96
434704 Off ch=2 n=42 v=127
435124 On ch=10 n=36 v=105
435124 On ch=10 n=42 v=46
435124 On ch=10 n=82 v=56
435169 On ch=2 n=40 v=127
435211 On ch=11 n=59 v=127
435244 Off ch=10 n=82 v=56
435244 Off ch=10 n=42 v=46
435244 Off ch=10 n=36 v=105
435729 Off ch=2 n=40 v=127
436147 On ch=2 n=37 v=127
436161 On ch=10 n=42 v=74
436161 On ch=10 n=82 v=60
436281 Off ch=10 n=82 v=60
436281 Off ch=10 n=42 v=74
436657 Off ch=2 n=37 v=127
437060 On ch=2 n=35 v=127
437072 On ch=11 n=57 v=127
437073 On ch=10 n=40 v=113
437073 On ch=10 n=42 v=46
437073 On ch=10 n=82 v=64
437131 Off ch=11 n=59 v=127
437193 Off ch=10 n=82 v=64
437193 Off ch=10 n=42 v=46
437193 Off ch=10 n=40 v=113
437670 Off ch=2 n=35 v=127
437977 On ch=2 n=37 v=127
437982 On ch=10 n=42 v=79
437982 On ch=10 n=82 v=64
438102 Off ch=10 n=82 v=64
438102 Off ch=10 n=42 v=79
438517 Off ch=2 n=37 v=127
438955 On ch=2 n=47 v=127
438992 Off ch=11 n=57 v=127
439018 On ch=11 n=54 v=127
439043 On ch=10 n=36 v=105
439043 On ch=10 n=42 v=42
439043 On ch=3 n=57 v=96
439043 On ch=3 n=62 v=96
439043 On ch=3 n=66 v=96
439043 On ch=10 n=82 v=66
439163 Off ch=10 n=82 v=66
439163 Off ch=10 n=42 v=42
439163 Off ch=10 n=36 v=105
439435 Off ch=2 n=47 v=127
439523 Off ch=3 n=66 v=96
439523 Off ch=3 n=57 v=96
439523 Off ch=3 n=62 v=96
439938 On ch=10 n=42 v=69
439938 On ch=10 n=82 v=64
439989 On ch=2 n=42 v=127
440058 Off ch=10 n=82 v=64
440058 Off ch=10 n=42 v=69
440339 Off ch=2 n=42 v=127
440861 On ch=2 n=45 v=127
440950 On ch=10 n=40 v=112
440950 On ch=10 n=42 v=54
440950 On ch=10 n=82 v=62
441070 Off ch=10 n=82 v=62
441070 Off ch=10 n=42 v=54
441070 Off ch=10 n=40 v=112
441381 Off ch=2 n=45 v=127
441815 On ch=10 n=42 v=74
441815 On ch=3 n=57 v=96
441815 On ch=3 n=62 v=96
441815 On ch=3 n=66 v=96
441815 On ch=10 n=82 v=64
441849 On ch=2 n=47 v=127
441935 Off ch=10 n=82 v=64
441935 Off ch=10 n=42 v=74
442295 Off ch=3 n=62 v=96
442295 Off ch=3 n=66 v=96
442295 Off ch=3 n=57 v=96
442549 Off ch=2 n=47 v=127
442773 On ch=10 n=36 v=105
442773 On ch=10 n=42 v=57
442773 On ch=10 n=82 v=64
442818 Off ch=11 n=54 v=127
442893 Off ch=10 n=82 v=64
442893 Off ch=10 n=42 v=57
442893 Off ch=10 n=36 v=105
443721 On ch=10 n=42 v=69
443721 On ch=10 n=82 v=68
443802 On ch=2 n=42 v=127
443841 Off ch=10 n=82 v=68
443841 Off ch=10 n=42 v=69
444362 Off ch=2 n=42 v=127
444673 On ch=2 n=40 v=127
444792 On ch=10 n=40 v=113
444792 On ch=10 n=42 v=57
444792 On ch=10 n=82 v=62
444912 Off ch=10 n=82 v=62
444912 Off ch=10 n=42 v=57
444912 Off ch=10 n=40 v=113
445273 Off ch=2 n=40 v=127
445679 On ch=2 n=42 v=127
445693 On ch=10 n=42 v=79
445693 On ch=10 n=82 v=64
445813 Off ch=10 n=82 v=64
445813 Off ch=10 n=42 v=79
446199 Off ch=2 n=42 v=127
446622 On ch=10 n=36 v=105
446622 On ch=10 n=42 v=54
446622 On ch=3 n=57 v=96
446622 On ch=3 n=62 v=96
446622 On ch=3 n=66 v=96
446622 On ch=10 n=82 v=62
446651 On ch=2 n=47 v=127
446742 Off ch=10 n=82 v=62
446742 Off ch=10 n=42 v=54
446742 Off ch=10 n=36 v=105
447102 Off ch=3 n=66 v=96
447102 Off ch=3 n=62 v=96
447102 Off ch=3 n=57 v=96
447141 Off ch=2 n=47 v=127
447511 On ch=10 n=42 v=69
447511 On ch=10 n=82 v=55
447560 On ch=2 n=42 v=127
447631 Off ch=10 n=82 v=55
447631 Off ch=10 n=42 v=69
448060 Off ch=2 n=42 v=127
448464 On ch=2 n=45 v=127
448509 On ch=10 n=40 v=113
448509 On ch=10 n=42 v=49
448509 On ch=10 n=82 v=55
448629 Off ch=10 n=82 v=55
448629 Off ch=10 n=42 v=49
448629 Off ch=10 n=40 v=113
449034 Off ch=2 n=45 v=127
449383 On ch=2 n=47 v=127
449459 On ch=10 n=42 v=79
449459 On ch=3 n=57 v=96
449459 On ch=3 n=62 v=96
449459 On ch=3 n=66 v=96
449459 On ch=10 n=82 v=51
449579 Off ch=10 n=82 v=51
449579 Off ch=10 n=42 v=79
449939 Off ch=3 n=66 v=96
449939 Off ch=3 n=62 v=96
449939 Off ch=3 n=57 v=96
450063 Off ch=2 n=47 v=127
450354 On ch=10 n=36 v=105
450354 On ch=10 n=42 v=46
450354 On ch=10 n=82 v=58
450474 Off ch=10 n=82 v=58
450474 Off ch=10 n=42 v=46
450474 Off ch=10 n=36 v=105
451317 On ch=2 n=42 v=127
451409 On ch=10 n=42 v=74
451409 On ch=10 n=82 v=47
451529 Off ch=10 n=82 v=47
451529 Off ch=10 n=42 v=74
451947 Off ch=2 n=42 v=127
452343 On ch=10 n=40 v=113
452343 On ch=10 n=42 v=46
452343 On ch=10 n=82 v=62
452402 On ch=2 n=40 v=127
452463 Off ch=10 n=82 v=62
452463 Off ch=10 n=42 v=46
452463 Off ch=10 n=40 v=113
453002 Off ch=2 n=40 v=127
453318 On ch=10 n=42 v=79
453318 On ch=10 n=82 v=58
453359 On ch=2 n=37 v=127
453438 Off ch=10 n=82 v=58
453438 Off ch=10 n=42 v=79
453989 Off ch=2 n=37 v=127
454327 On ch=10 n=36 v=105
454327 On ch=10 n=42 v=42
454327 On ch=10 n=82 v=56
454327 On ch=3 n=57 v=96
454327 On ch=3 n=61 v=96
454327 On ch=3 n=66 v=96
454363 On ch=2 n=42 v=127
454447 Off ch=10 n=82 v=56
454447 Off ch=10 n=42 v=42
454447 Off ch=10 n=36 v=105
454807 Off ch=3 n=57 v=96
454807 Off ch=3 n=61 v=96
454807 Off ch=3 n=66 v=96
454863 Off ch=2 n=42 v=127
455226 On ch=2 n=37 v=127
455310 On ch=10 n=42 v=69
455310 On ch=10 n=82 v=46
455430 Off ch=10 n=82 v=46
455430 Off ch=10 n=42 v=69
455746 Off ch=2 n=37 v=127
456195 On ch=10 n=40 v=112
456195 On ch=10 n=42 v=54
456195 On ch=10 n=82 v=64
456279 On ch=2 n=40 v=127
456315 Off ch=10 n=82 v=64
456315 Off ch=10 n=42 v=54
456315 Off ch=10 n=40 v=112
456829 Off ch=2 n=40 v=127
457130 On ch=2 n=42 v=127
457213 On ch=10 n=42 v=74
457213 On ch=3 n=59 v=96
457213 On ch=3 n=63 v=96
457213 On ch=3 n=68 v=96
457213 On ch=10 n=82 v=53
457333 Off ch=10 n=82 v=53
457333 Off ch=10 n=42 v=74
457640 Off ch=2 n=42 v=127
457693 Off ch=3 n=68 v=96
457693 Off ch=3 n=63 v=96
457693 Off ch=3 n=59 v=96
458143 On ch=10 n=36 v=105
458143 On ch=10 n=42 v=57
458143 On ch=10 n=82 v=62
458157 On ch=2 n=40 v=127
458263 Off ch=10 n=82 v=62
458263 Off ch=10 n=42 v=57
458263 Off ch=10 n=36 v=105
458717 Off ch=2 n=40 v=127
459104 On ch=10 n=42 v=69
459104 On ch=10 n=82 v=60
459224 Off ch=10 n=82 v=60
459224 Off ch=10 n=42 v=69
459225 On ch=2 n=37 v=127
459735 Off ch=2 n=37 v=127
460019 On ch=10 n=40 v=113
460019 On ch=10 n=42 v=57
460019 On ch=10 n=82 v=68
460078 On ch=2 n=35 v=127
460139 Off ch=10 n=82 v=68
460139 Off ch=10 n=42 v=57
460139 Off ch=10 n=40 v=113
460688 Off ch=2 n=35 v=127
461011 On ch=2 n=37 v=127
461061 On ch=10 n=42 v=79
461061 On ch=10 n=82 v=50
461181 Off ch=10 n=82 v=50
461181 Off ch=10 n=42 v=79
461551 Off ch=2 n=37 v=127
462014 On ch=10 n=36 v=105
462014 On ch=10 n=42 v=54
462014 On ch=3 n=61 v=96
462014 On ch=3 n=64 v=96
462014 On ch=3 n=69 v=96
462014 On ch=10 n=82 v=68
462061 On ch=2 n=42 v=127
462134 Off ch=10 n=82 v=68
462134 Off ch=10 n=42 v=54
462134 Off ch=10 n=36 v=105
462494 Off ch=3 n=69 v=96
462494 Off ch=3 n=64 v=96
462494 Off ch=3 n=61 v=96
462531 Off ch=2 n=42 v=127
462896 On ch=2 n=37 v=127
463050 On ch=10 n=42 v=69
463050 On ch=10 n=82 v=58
463170 Off ch=10 n=82 v=58
463170 Off ch=10 n=42 v=69
463376 Off ch=2 n=37 v=127
463906 On ch=10 n=40 v=113
463906 On ch=10 n=42 v=49
463906 On ch=10 n=82 v=66
463965 On ch=2 n=40 v=127
464026 Off ch=10 n=82 v=66
464026 Off ch=10 n=42 v=49
464026 Off ch=10 n=40 v=113
464495 Off ch=2 n=40 v=127
464845 On ch=10 n=42 v=79
464845 On ch=3 n=59 v=96
464845 On ch=3 n=63 v=96
464845 On ch=3 n=68 v=96
464845 On ch=10 n=82 v=60
464857 On ch=2 n=42 v=127
464965 Off ch=10 n=82 v=60
464965 Off ch=10 n=42 v=79
465317 Off ch=2 n=42 v=127
465325 Off ch=3 n=68 v=96
465325 Off ch=3 n=63 v=96
465325 Off ch=3 n=59 v=96
465757 On ch=2 n=40 v=127
465894 On ch=10 n=36 v=105
465894 On ch=10 n=42 v=46
465894 On ch=10 n=82 v=56
466014 Off ch=10 n=82 v=56
466014 Off ch=10 n=42 v=46
466014 Off ch=10 n=36 v=105
466347 Off ch=2 n=40 v=127
466792 On ch=10 n=42 v=74
466792 On ch=10 n=82 v=60
466803 On ch=2 n=37 v=127
466912 Off ch=10 n=82 v=60
466912 Off ch=10 n=42 v=74
467343 Off ch=2 n=37 v=127
467679 On ch=10 n=40 v=113
467679 On ch=10 n=42 v=46
467679 On ch=10 n=82 v=64
467799 Off ch=10 n=82 v=64
467799 Off ch=10 n=42 v=46
467799 Off ch=10 n=40 v=113
467800 On ch=2 n=35 v=127
468450 Off ch=2 n=35 v=127
468706 On ch=10 n=42 v=79
468706 On ch=10 n=82 v=64
468721 On ch=2 n=37 v=127
468826 Off ch=10 n=82 v=64
468826 Off ch=10 n=42 v=79
469231 Off ch=2 n=37 v=127
469632 On ch=2 n=47 v=127
469651 On ch=10 n=36 v=105
469651 On ch=10 n=42 v=42
469651 On ch=3 n=57 v=96
469651 On ch=3 n=62 v=96
469651 On ch=3 n=66 v=96
469651 On ch=10 n=82 v=66
469771 Off ch=10 n=82 v=66
469771 Off ch=10 n=42 v=42
469771 Off ch=10 n=36 v=105
470112 Off ch=2 n=47 v=127
470131 Off ch=3 n=66 v=96
470131 Off ch=3 n=57 v=96
470131 Off ch=3 n=62 v=96
470596 On ch=2 n=42 v=127
470614 On ch=10 n=42 v=69
470614 On ch=10 n=82 v=64
470734 Off ch=10 n=82 v=64
470734 Off ch=10 n=42 v=69
470946 Off ch=2 n=42 v=127
471594 On ch=10 n=40 v=112
471594 On ch=10 n=42 v=54
471594 On ch=10 n=82 v=62
471622 On ch=2 n=45 v=127
471714 Off ch=10 n=82 v=62
471714 Off ch=10 n=42 v=54
471714 Off ch=10 n=40 v=112
472142 Off ch=2 n=45 v=127
472576 On ch=10 n=42 v=74
472576 On ch=3 n=57 v=96
472576 On ch=3 n=62 v=96
472576 On ch=3 n=66 v=96
472576 On ch=10 n=82 v=64
472600 On ch=2 n=47 v=127
472696 Off ch=10 n=82 v=64
472696 Off ch=10 n=42 v=74
473056 Off ch=3 n=62 v=96
473056 Off ch=3 n=66 v=96
473056 Off ch=3 n=57 v=96
473300 Off ch=2 n=47 v=127
473566 On ch=10 n=36 v=105
473566 On ch=10 n=42 v=57
473566 On ch=10 n=82 v=64
473686 Off ch=10 n=82 v=64
473686 Off ch=10 n=42 v=57
473686 Off ch=10 n=36 v=105
474475 On ch=2 n=42 v=127
474531 On ch=10 n=42 v=69
474531 On ch=10 n=82 v=68
474651 Off ch=10 n=82 v=68
474651 Off ch=10 n=42 v=69
475035 Off ch=2 n=42 v=127
475381 On ch=10 n=40 v=113
475381 On ch=10 n=42 v=57
475381 On ch=10 n=82 v=62
475403 On ch=2 n=40 v=127
475501 Off ch=10 n=82 v=62
475501 Off ch=10 n=42 v=57
475501 Off ch=10 n=40 v=113
476003 Off ch=2 n=40 v=127
476284 On ch=10 n=42 v=79
476284 On ch=10 n=82 v=64
476350 On ch=2 n=42 v=127
476404 Off ch=10 n=82 v=64
476404 Off ch=10 n=42 v=79
476870 Off ch=2 n=42 v=127
477232 On ch=2 n=47 v=127
477347 On ch=10 n=36 v=105
477347 On ch=10 n=42 v=54
477347 On ch=3 n=57 v=96
477347 On ch=3 n=62 v=96
477347 On ch=3 n=66 v=96
477347 On ch=10 n=82 v=62
477467 Off ch=10 n=82 v=62
477467 Off ch=10 n=42 v=54
477467 Off ch=10 n=36 v=105
477722 Off ch=2 n=47 v=127
477827 Off ch=3 n=66 v=96
477827 Off ch=3 n=62 v=96
477827 Off ch=3 n=57 v=96
478296 On ch=2 n=42 v=127
478333 On ch=10 n=42 v=69
478333 On ch=10 n=82 v=55
478453 Off ch=10 n=82 v=55
478453 Off ch=10 n=42 v=69
478796 Off ch=2 n=42 v=127
479328 On ch=2 n=45 v=127
479334 On ch=10 n=40 v=113
479334 On ch=10 n=42 v=49
479334 On ch=10 n=82 v=55
479454 Off ch=10 n=82 v=55
479454 Off ch=10 n=42 v=49
479454 Off ch=10 n=40 v=113
479898 Off ch=2 n=45 v=127
480301 On ch=2 n=47 v=127
480342 On ch=10 n=42 v=79
480342 On ch=3 n=57 v=96
480342 On ch=3 n=62 v=96
480342 On ch=3 n=66 v=96
480342 On ch=10 n=82 v=51
480462 Off ch=10 n=82 v=51
480462 Off ch=10 n=42 v=79
480822 Off ch=3 n=66 v=96
480822 Off ch=3 n=62 v=96
480822 Off ch=3 n=57 v=96
480981 Off ch=2 n=47 v=127
481296 On ch=10 n=36 v=105
481296 On ch=10 n=42 v=46
481296 On ch=10 n=82 v=58
481416 Off ch=10 n=82 v=58
481416 Off ch=10 n=42 v=46
481416 Off ch=10 n=36 v=105
482189 On ch=10 n=42 v=74
482189 On ch=10 n=82 v=47
482228 On ch=2 n=42 v=127
482309 Off ch=10 n=82 v=47
482309 Off ch=10 n=42 v=74
482858 Off ch=2 n=42 v=127
483179 On ch=10 n=40 v=113
483179 On ch=10 n=42 v=46
483179 On ch=10 n=82 v=62
483210 On ch=2 n=40 v=127
483299 Off ch=10 n=82 v=62
483299 Off ch=10 n=42 v=46
483299 Off ch=10 n=40 v=113
483810 Off ch=2 n=40 v=127
484095 On ch=2 n=37 v=127
484152 On ch=10 n=42 v=79
484152 On ch=10 n=82 v=58
484272 Off ch=10 n=82 v=58
484272 Off ch=10 n=42 v=79
484725 Off ch=2 n=37 v=127
485046 On ch=2 n=42 v=127
485086 On ch=10 n=36 v=105
485086 On ch=10 n=42 v=42
485086 On ch=3 n=57 v=96
485086 On ch=3 n=61 v=96
485086 On ch=3 n=66 v=96
485086 On ch=10 n=82 v=56
485206 Off ch=10 n=82 v=56
485206 Off ch=10 n=42 v=42
485206 Off ch=10 n=36 v=105
485546 Off ch=2 n=42 v=127
485566 Off ch=3 n=57 v=96
485566 Off ch=3 n=61 v=96
485566 Off ch=3 n=66 v=96
485941 On ch=2 n=37 v=127
486008 On ch=10 n=42 v=69
486008 On ch=10 n=82 v=46
486128 Off ch=10 n=82 v=46
486128 Off ch=10 n=42 v=69
486461 Off ch=2 n=37 v=127
486967 On ch=10 n=40 v=112
486967 On ch=10 n=42 v=54
486967 On ch=10 n=82 v=64
486978 On ch=2 n=40 v=127
487087 Off ch=10 n=82 v=64
487087 Off ch=10 n=42 v=54
487087 Off ch=10 n=40 v=112
487528 Off ch=2 n=40 v=127
487884 On ch=2 n=42 v=127
487960 On ch=10 n=42 v=74
487960 On ch=3 n=59 v=96
487960 On ch=3 n=63 v=96
487960 On ch=3 n=68 v=96
487960 On ch=10 n=82 v=53
488080 Off ch=10 n=82 v=53
488080 Off ch=10 n=42 v=74
488394 Off ch=2 n=42 v=127
488440 Off ch=3 n=68 v=96
488440 Off ch=3 n=63 v=96
488440 Off ch=3 n=59 v=96
488839 On ch=10 n=36 v=105
488839 On ch=10 n=42 v=57
488839 On ch=10 n=82 v=62
488918 On ch=2 n=40 v=127
488959 Off ch=10 n=82 v=62
488959 Off ch=10 n=42 v=57
488959 Off ch=10 n=36 v=105
489478 Off ch=2 n=40 v=127
489787 On ch=2 n=37 v=127
489867 On ch=10 n=42 v=69
489867 On ch=10 n=82 v=60
489987 Off ch=10 n=82 v=60
489987 Off ch=10 n=42 v=69
490297 Off ch=2 n=37 v=127
490770 On ch=2 n=35 v=127
490923 On ch=10 n=40 v=113
490923 On ch=10 n=42 v=57
490923 On ch=10 n=82 v=68
491043 Off ch=10 n=82 v=68
491043 Off ch=10 n=42 v=57
491043 Off ch=10 n=40 v=113
491380 Off ch=2 n=35 v=127
491770 On ch=10 n=42 v=79
491770 On ch=10 n=82 v=50
491843 On ch=2 n=37 v=127
491890 Off ch=10 n=82 v=50
491890 Off ch=10 n=42 v=79
492383 Off ch=2 n=37 v=127
492763 On ch=2 n=42 v=127
492804 On ch=10 n=36 v=105
492804 On ch=10 n=42 v=54
492804 On ch=3 n=61 v=96
492804 On ch=3 n=64 v=96
492804 On ch=3 n=69 v=96
492804 On ch=10 n=82 v=68
492924 Off ch=10 n=82 v=68
492924 Off ch=10 n=42 v=54
492924 Off ch=10 n=36 v=105
493233 Off ch=2 n=42 v=127
493284 Off ch=3 n=69 v=96
493284 Off ch=3 n=64 v=96
493284 Off ch=3 n=61 v=96
493691 On ch=10 n=42 v=69
493691 On ch=10 n=82 v=58
493782 On ch=2 n=37 v=127
493811 Off ch=10 n=82 v=58
493811 Off ch=10 n=42 v=69
494262 Off ch=2 n=37 v=127
494648 On ch=2 n=40 v=127
494734 On ch=10 n=40 v=113
494734 On ch=10 n=42 v=49
494734 On ch=10 n=82 v=66
494854 Off ch=10 n=82 v=66
494854 Off ch=10 n=42 v=49
494854 Off ch=10 n=40 v=113
495178 Off ch=2 n=40 v=127
495603 On ch=2 n=42 v=127
495656 On ch=10 n=42 v=79
495656 On ch=3 n=59 v=96
495656 On ch=3 n=63 v=96
495656 On ch=3 n=68 v=96
495656 On ch=10 n=82 v=60
495776 Off ch=10 n=82 v=60
495776 Off ch=10 n=42 v=79
496063 Off ch=2 n=42 v=127
496136 Off ch=3 n=68 v=96
496136 Off ch=3 n=63 v=96
496136 Off ch=3 n=59 v=96
496504 On ch=10 n=36 v=105
496504 On ch=10 n=42 v=46
496504 On ch=10 n=82 v=56
496624 Off ch=10 n=82 v=56
496624 Off ch=10 n=42 v=46
496624 Off ch=10 n=36 v=105
496675 On ch=2 n=40 v=127
497265 Off ch=2 n=40 v=127
497526 On ch=10 n=42 v=74
497526 On ch=10 n=82 v=60
497531 On ch=2 n=37 v=127
497646 Off ch=10 n=82 v=60
497646 Off ch=10 n=42 v=74
498071 Off ch=2 n=37 v=127
498436 On ch=2 n=35 v=127
498514 On ch=10 n=40 v=113
498514 On ch=10 n=42 v=46
498514 On ch=10 n=82 v=64
498634 Off ch=10 n=82 v=64
498634 Off ch=10 n=42 v=46
498634 Off ch=10 n=40 v=113
499086 Off ch=2 n=35 v=127
499424 On ch=10 n=46 v=99
499424 On ch=10 n=82 v=64
499429 On ch=2 n=37 v=127
499544 Off ch=10 n=82 v=64
499544 Off ch=10 n=46 v=99
499939 Off ch=2 n=37 v=127
500395 On ch=10 n=36 v=105
500395 On ch=10 n=42 v=42
500395 On ch=3 n=57 v=96
500395 On ch=3 n=61 v=96
500395 On ch=3 n=66 v=96
500395 On ch=10 n=82 v=66
500430 On ch=2 n=42 v=127
500490 On ch=11 n=61 v=127
500515 Off ch=10 n=82 v=66
500515 Off ch=10 n=42 v=42
500515 Off ch=10 n=36 v=105
500875 Off ch=3 n=57 v=96
500875 Off ch=3 n=61 v=96
500875 Off ch=3 n=66 v=96
500930 Off ch=2 n=42 v=127
501344 On ch=2 n=37 v=127
501420 On ch=10 n=42 v=69
501420 On ch=10 n=82 v=64
501540 Off ch=10 n=82 v=64
501540 Off ch=10 n=42 v=69
501864 Off ch=2 n=37 v=127
502278 On ch=10 n=40 v=112
502278 On ch=10 n=42 v=54
502278 On ch=10 n=82 v=62
502368 On ch=2 n=40 v=127
502398 Off ch=10 n=82 v=62
502398 Off ch=10 n=42 v=54
502398 Off ch=10 n=40 v=112
502918 Off ch=2 n=40 v=127
503241 On ch=10 n=42 v=74
503241 On ch=3 n=59 v=96
503241 On ch=3 n=63 v=96
503241 On ch=3 n=68 v=96
503241 On ch=10 n=82 v=64
503273 On ch=2 n=42 v=127
503361 Off ch=10 n=82 v=64
503361 Off ch=10 n=42 v=74
503721 Off ch=3 n=68 v=96
503721 Off ch=3 n=63 v=96
503721 Off ch=3 n=59 v=96
503783 Off ch=2 n=42 v=127
504270 On ch=2 n=40 v=127
504300 Off ch=11 n=61 v=127
504303 On ch=10 n=36 v=105
504303 On ch=10 n=42 v=57
504303 On ch=10 n=82 v=64
504423 Off ch=10 n=82 v=64
504423 Off ch=10 n=42 v=57
504423 Off ch=10 n=36 v=105
504830 Off ch=2 n=40 v=127
505174 On ch=2 n=37 v=127
505209 On ch=10 n=42 v=69
505209 On ch=10 n=82 v=68
505329 Off ch=10 n=82 v=68
505329 Off ch=10 n=42 v=69
505684 Off ch=2 n=37 v=127
506087 On ch=10 n=40 v=113
506087 On ch=10 n=42 v=57
506087 On ch=10 n=82 v=62
506207 Off ch=10 n=82 v=62
506207 Off ch=10 n=42 v=57
506207 Off ch=10 n=40 v=113
506259 On ch=2 n=35 v=127
506869 Off ch=2 n=35 v=127
507117 On ch=2 n=37 v=127
507129 On ch=10 n=42 v=79
507129 On ch=10 n=82 v=64
507249 Off ch=10 n=82 v=64
507249 Off ch=10 n=42 v=79
507657 Off ch=2 n=37 v=127
508084 On ch=10 n=36 v=105
508084 On ch=10 n=42 v=54
508084 On ch=3 n=61 v=96
508084 On ch=3 n=64 v=96
508084 On ch=3 n=69 v=96
508084 On ch=10 n=82 v=62
508091 On ch=2 n=42 v=127
508204 Off ch=10 n=82 v=62
508204 Off ch=10 n=42 v=54
508204 Off ch=10 n=36 v=105
508561 Off ch=2 n=42 v=127
508564 Off ch=3 n=69 v=96
508564 Off ch=3 n=64 v=96
508564 Off ch=3 n=61 v=96
508962 On ch=2 n=37 v=127
509119 On ch=10 n=42 v=69
509119 On ch=10 n=82 v=55
509239 Off ch=10 n=82 v=55
509239 Off ch=10 n=42 v=69
509442 Off ch=2 n=37 v=127
509977 On ch=10 n=40 v=113
509977 On ch=10 n=42 v=49
509977 On ch=10 n=82 v=55
510009 On ch=2 n=40 v=127
510097 Off ch=10 n=82 v=55
510097 Off ch=10 n=42 v=49
510097 Off ch=10 n=40 v=113
510539 Off ch=2 n=40 v=127
510875 On ch=2 n=42 v=127
511007 On ch=10 n=42 v=79
511007 On ch=3 n=59 v=96
511007 On ch=3 n=63 v=96
511007 On ch=3 n=68 v=96
511007 On ch=10 n=82 v=51
511127 Off ch=10 n=82 v=51
511127 Off ch=10 n=42 v=79
511335 Off ch=2 n=42 v=127
511487 Off ch=3 n=68 v=96
511487 Off ch=3 n=63 v=96
511487 Off ch=3 n=59 v=96
511764 On ch=11 n=63 v=127
511904 On ch=10 n=36 v=105
511904 On ch=10 n=42 v=46
511904 On ch=10 n=82 v=58
511922 On ch=2 n=40 v=127
512024 Off ch=10 n=82 v=58
512024 Off ch=10 n=42 v=46
512024 Off ch=10 n=36 v=105
512512 Off ch=2 n=40 v=127
512901 On ch=10 n=42 v=74
512901 On ch=10 n=82 v=47
512980 On ch=2 n=37 v=127
513021 Off ch=10 n=82 v=47
513021 Off ch=10 n=42 v=74
513520 Off ch=2 n=37 v=127
513604 Off ch=11 n=63 v=127
513718 On ch=11 n=59 v=127
513788 On ch=10 n=40 v=113
513788 On ch=10 n=42 v=46
513788 On ch=10 n=82 v=62
513849 On ch=2 n=35 v=127
513908 Off ch=10 n=82 v=62
513908 Off ch=10 n=42 v=46
513908 Off ch=10 n=40 v=113
514499 Off ch=2 n=35 v=127
514816 On ch=10 n=42 v=79
514816 On ch=10 n=82 v=58
514852 On ch=2 n=37 v=127
514936 Off ch=10 n=82 v=58
514936 Off ch=10 n=42 v=79
515362 Off ch=2 n=37 v=127
515558 Off ch=11 n=59 v=127
515777 On ch=2 n=42 v=127
515807 On ch=11 n=61 v=127
515877 On ch=10 n=36 v=105
515877 On ch=10 n=42 v=42
515877 On ch=3 n=57 v=96
515877 On ch=3 n=61 v=96
515877 On ch=3 n=66 v=96
515877 On ch=10 n=82 v=56
515997 Off ch=10 n=82 v=56
515997 Off ch=10 n=42 v=42
515997 Off ch=10 n=36 v=105
516277 Off ch=2 n=42 v=127
516357 Off ch=3 n=66 v=96
516357 Off ch=3 n=61 v=96
516357 Off ch=3 n=57 v=96
516744 On ch=2 n=37 v=127
516774 On ch=10 n=42 v=69
516774 On ch=10 n=82 v=46
516894 Off ch=10 n=82 v=46
516894 Off ch=10 n=42 v=69
517264 Off ch=2 n=37 v=127
517759 On ch=2 n=40 v=127
517764 On ch=10 n=40 v=112
517764 On ch=10 n=42 v=54
517764 On ch=10 n=82 v=64
517884 Off ch=10 n=82 v=64
517884 Off ch=10 n=42 v=54
517884 Off ch=10 n=40 v=112
518309 Off ch=2 n=40 v=127
518683 On ch=2 n=42 v=127
518688 On ch=10 n=42 v=74
518688 On ch=3 n=59 v=96
518688 On ch=3 n=63 v=96
518688 On ch=3 n=68 v=96
518688 On ch=10 n=82 v=53
518808 Off ch=10 n=82 v=53
518808 Off ch=10 n=42 v=74
519168 Off ch=3 n=68 v=96
519168 Off ch=3 n=63 v=96
519168 Off ch=3 n=59 v=96
519193 Off ch=2 n=42 v=127
519566 On ch=2 n=40 v=127
519662 On ch=10 n=36 v=105
519662 On ch=10 n=42 v=57
519662 On ch=10 n=82 v=62
519782 Off ch=10 n=82 v=62
519782 Off ch=10 n=42 v=57
519782 Off ch=10 n=36 v=105
519847 Off ch=11 n=61 v=127
520126 Off ch=2 n=40 v=127
520594 On ch=10 n=42 v=69
520594 On ch=10 n=82 v=60
520606 On ch=2 n=37 v=127
520714 Off ch=10 n=82 v=60
520714 Off ch=10 n=42 v=69
521116 Off ch=2 n=37 v=127
521555 On ch=2 n=35 v=127
521561 On ch=10 n=40 v=113
521561 On ch=10 n=42 v=57
521561 On ch=10 n=82 v=68
521681 Off ch=10 n=82 v=68
521681 Off ch=10 n=42 v=57
521681 Off ch=10 n=40 v=113
522165 Off ch=2 n=35 v=127
522488 On ch=10 n=42 v=79
522488 On ch=10 n=82 v=50
522545 On ch=2 n=37 v=127
522608 Off ch=10 n=82 v=50
522608 Off ch=10 n=42 v=79
523085 Off ch=2 n=37 v=127
523463 On ch=2 n=42 v=127
523517 On ch=10 n=36 v=105
523517 On ch=10 n=42 v=54
523517 On ch=3 n=61 v=96
523517 On ch=3 n=64 v=96
523517 On ch=3 n=69 v=96
523517 On ch=10 n=82 v=68
523637 Off ch=10 n=82 v=68
523637 Off ch=10 n=42 v=54
523637 Off ch=10 n=36 v=105
523933 Off ch=2 n=42 v=127
523997 Off ch=3 n=69 v=96
523997 Off ch=3 n=64 v=96
523997 Off ch=3 n=61 v=96
524431 On ch=10 n=42 v=69
524431 On ch=10 n=82 v=58
524501 On ch=2 n=37 v=127
524551 Off ch=10 n=82 v=58
524551 Off ch=10 n=42 v=69
524981 Off ch=2 n=37 v=127
525398 On ch=2 n=40 v=127
525499 On ch=10 n=40 v=113
525499 On ch=10 n=42 v=49
525499 On ch=10 n=82 v=66
525619 Off ch=10 n=82 v=66
525619 Off ch=10 n=42 v=49
525619 Off ch=10 n=40 v=113
525928 Off ch=2 n=40 v=127
526419 On ch=10 n=42 v=79
526419 On ch=3 n=59 v=96
526419 On ch=3 n=63 v=96
526419 On ch=3 n=68 v=96
526419 On ch=10 n=82 v=60
526424 On ch=2 n=42 v=127
526539 Off ch=10 n=82 v=60
526539 Off ch=10 n=42 v=79
526884 Off ch=2 n=42 v=127
526899 Off ch=3 n=68 v=96
526899 Off ch=3 n=63 v=96
526899 Off ch=3 n=59 v=96
527344 On ch=2 n=40 v=127
527355 On ch=11 n=59 v=127
527405 On ch=10 n=36 v=105
527405 On ch=10 n=42 v=46
527405 On ch=10 n=82 v=56
527525 Off ch=10 n=82 v=56
527525 Off ch=10 n=42 v=46
527525 Off ch=10 n=36 v=105
527934 Off ch=2 n=40 v=127
528348 On ch=10 n=42 v=74
528348 On ch=10 n=82 v=60
528372 On ch=2 n=37 v=127
528468 Off ch=10 n=82 v=60
528468 Off ch=10 n=42 v=74
528912 Off ch=2 n=37 v=127
529155 Off ch=11 n=59 v=127
529260 On ch=2 n=35 v=127
529267 On ch=11 n=57 v=119
529337 On ch=10 n=40 v=113
529337 On ch=10 n=42 v=46
529337 On ch=10 n=82 v=64
529457 Off ch=10 n=82 v=64
529457 Off ch=10 n=42 v=46
529457 Off ch=10 n=40 v=113
529910 Off ch=2 n=35 v=127
530208 On ch=10 n=42 v=79
530208 On ch=10 n=82 v=64
530286 On ch=2 n=37 v=127
530328 Off ch=10 n=82 v=64
530328 Off ch=10 n=42 v=79
530796 Off ch=2 n=37 v=127
531147 Off ch=11 n=57 v=119
531198 On ch=2 n=47 v=127
531237 On ch=10 n=36 v=105
531237 On ch=10 n=42 v=42
531237 On ch=11 n=54 v=127
531237 On ch=10 n=82 v=66
531237 On ch=3 n=57 v=96
531237 On ch=3 n=62 v=96
531237 On ch=3 n=66 v=96
531357 Off ch=10 n=82 v=66
531357 Off ch=10 n=42 v=42
531357 Off ch=10 n=36 v=105
531678 Off ch=2 n=47 v=127
531717 Off ch=3 n=66 v=96
531717 Off ch=3 n=57 v=96
531717 Off ch=3 n=62 v=96
532158 On ch=2 n=42 v=127
532207 On ch=10 n=42 v=69
532207 On ch=10 n=82 v=64
532327 Off ch=10 n=82 v=64
532327 Off ch=10 n=42 v=69
532508 Off ch=2 n=42 v=127
533075 On ch=10 n=40 v=112
533075 On ch=10 n=42 v=54
533075 On ch=10 n=82 v=62
533157 On ch=2 n=45 v=127
533195 Off ch=10 n=82 v=62
533195 Off ch=10 n=42 v=54
533195 Off ch=10 n=40 v=112
533677 Off ch=2 n=45 v=127
534049 On ch=10 n=42 v=74
534049 On ch=3 n=57 v=96
534049 On ch=3 n=62 v=96
534049 On ch=3 n=66 v=96
534049 On ch=10 n=82 v=64
534084 On ch=2 n=47 v=127
534169 Off ch=10 n=82 v=64
534169 Off ch=10 n=42 v=74
534529 Off ch=3 n=62 v=96
534529 Off ch=3 n=66 v=96
534529 Off ch=3 n=57 v=96
534784 Off ch=2 n=47 v=127
535105 On ch=10 n=36 v=105
535105 On ch=10 n=42 v=57
535105 On ch=10 n=82 v=64
535197 Off ch=11 n=54 v=127
535225 Off ch=10 n=82 v=64
535225 Off ch=10 n=42 v=57
535225 Off ch=10 n=36 v=105
535974 On ch=2 n=42 v=127
535992 On ch=10 n=42 v=69
535992 On ch=10 n=82 v=68
536112 Off ch=10 n=82 v=68
536112 Off ch=10 n=42 v=69
536534 Off ch=2 n=42 v=127
536955 On ch=10 n=40 v=113
536955 On ch=10 n=42 v=57
536955 On ch=10 n=82 v=62
537002 On ch=2 n=40 v=127
537075 Off ch=10 n=82 v=62
537075 Off ch=10 n=42 v=57
537075 Off ch=10 n=40 v=113
537602 Off ch=2 n=40 v=127
537872 On ch=2 n=42 v=127
537951 On ch=10 n=42 v=79
537951 On ch=10 n=82 v=64
538071 Off ch=10 n=82 v=64
538071 Off ch=10 n=42 v=79
538392 Off ch=2 n=42 v=127
538857 On ch=10 n=36 v=105
538857 On ch=10 n=42 v=54
538857 On ch=3 n=57 v=96
538857 On ch=3 n=62 v=96
538857 On ch=3 n=66 v=96
538857 On ch=10 n=82 v=62
538885 On ch=2 n=47 v=127
538977 Off ch=10 n=82 v=62
538977 Off ch=10 n=42 v=54
538977 Off ch=10 n=36 v=105
539337 Off ch=3 n=66 v=96
539337 Off ch=3 n=62 v=96
539337 Off ch=3 n=57 v=96
539375 Off ch=2 n=47 v=127
539879 On ch=10 n=42 v=69
539879 On ch=10 n=82 v=55
539880 On ch=2 n=42 v=127
539999 Off ch=10 n=82 v=55
539999 Off ch=10 n=42 v=69
540380 Off ch=2 n=42 v=127
540749 On ch=2 n=45 v=127
540767 On ch=10 n=40 v=113
540767 On ch=10 n=42 v=49
540767 On ch=10 n=82 v=55
540887 Off ch=10 n=82 v=55
540887 Off ch=10 n=42 v=49
540887 Off ch=10 n=40 v=113
541319 Off ch=2 n=45 v=127
541720 On ch=2 n=47 v=127
541732 On ch=10 n=42 v=79
541732 On ch=3 n=57 v=96
541732 On ch=3 n=62 v=96
541732 On ch=3 n=66 v=96
541732 On ch=10 n=82 v=51
541852 Off ch=10 n=82 v=51
541852 Off ch=10 n=42 v=79
542212 Off ch=3 n=66 v=96
542212 Off ch=3 n=62 v=96
542212 Off ch=3 n=57 v=96
542400 Off ch=2 n=47 v=127
542642 On ch=10 n=36 v=105
542642 On ch=10 n=42 v=46
542642 On ch=10 n=82 v=58
542762 Off ch=10 n=82 v=58
542762 Off ch=10 n=42 v=46
542762 Off ch=10 n=36 v=105
543673 On ch=10 n=42 v=74
543673 On ch=10 n=82 v=47
543699 On ch=2 n=42 v=127
543793 Off ch=10 n=82 v=47
543793 Off ch=10 n=42 v=74
544329 Off ch=2 n=42 v=127
544586 On ch=10 n=40 v=113
544586 On ch=10 n=42 v=46
544586 On ch=10 n=82 v=62
544590 On ch=2 n=40 v=127
544706 Off ch=10 n=82 v=62
544706 Off ch=10 n=42 v=46
544706 Off ch=10 n=40 v=113
545190 Off ch=2 n=40 v=127
545537 On ch=10 n=42 v=79
545537 On ch=10 n=82 v=58
545603 On ch=2 n=37 v=127
545657 Off ch=10 n=82 v=58
545657 Off ch=10 n=42 v=79
546233 Off ch=2 n=37 v=127
546505 On ch=2 n=42 v=127
546595 On ch=10 n=36 v=105
546595 On ch=10 n=42 v=42
546595 On ch=3 n=57 v=96
546595 On ch=3 n=61 v=96
546595 On ch=3 n=66 v=96
546595 On ch=10 n=82 v=56
546715 Off ch=10 n=82 v=56
546715 Off ch=10 n=42 v=42
546715 Off ch=10 n=36 v=105
547005 Off ch=2 n=42 v=127
547075 Off ch=3 n=57 v=96
547075 Off ch=3 n=61 v=96
547075 Off ch=3 n=66 v=96
547460 On ch=10 n=42 v=69
547460 On ch=10 n=82 v=46
547541 On ch=2 n=37 v=127
547580 Off ch=10 n=82 v=46
547580 Off ch=10 n=42 v=69
548061 Off ch=2 n=37 v=127
548445 On ch=2 n=40 v=127
548503 On ch=10 n=40 v=112
548503 On ch=10 n=42 v=54
548503 On ch=10 n=82 v=64
548623 Off ch=10 n=82 v=64
548623 Off ch=10 n=42 v=54
548623 Off ch=10 n=40 v=112
548995 Off ch=2 n=40 v=127
549407 On ch=10 n=42 v=74
549407 On ch=3 n=59 v=96
549407 On ch=3 n=63 v=96
549407 On ch=3 n=68 v=96
549407 On ch=10 n=82 v=53
549458 On ch=2 n=42 v=127
549527 Off ch=10 n=82 v=53
549527 Off ch=10 n=42 v=74
549887 Off ch=3 n=68 v=96
549887 Off ch=3 n=63 v=96
549887 Off ch=3 n=59 v=96
549968 Off ch=2 n=42 v=127
550295 On ch=10 n=36 v=105
550295 On ch=10 n=42 v=57
550295 On ch=10 n=82 v=62
550362 On ch=2 n=40 v=127
550415 Off ch=10 n=82 v=62
550415 Off ch=10 n=42 v=57
550415 Off ch=10 n=36 v=105
550922 Off ch=2 n=40 v=127
551265 On ch=2 n=37 v=127
551374 On ch=10 n=42 v=69
551374 On ch=10 n=82 v=60
551494 Off ch=10 n=82 v=60
551494 Off ch=10 n=42 v=69
551775 Off ch=2 n=37 v=127
552285 On ch=10 n=40 v=113
552285 On ch=10 n=42 v=57
552285 On ch=10 n=82 v=68
552295 On ch=2 n=35 v=127
552405 Off ch=10 n=82 v=68
552405 Off ch=10 n=42 v=57
552405 Off ch=10 n=40 v=113
552905 Off ch=2 n=35 v=127
553191 On ch=10 n=42 v=79
553191 On ch=10 n=82 v=50
553233 On ch=2 n=37 v=127
553311 Off ch=10 n=82 v=50
553311 Off ch=10 n=42 v=79
553773 Off ch=2 n=37 v=127
554229 On ch=2 n=42 v=127
554256 On ch=10 n=36 v=105
554256 On ch=10 n=42 v=54
554256 On ch=3 n=61 v=96
554256 On ch=3 n=64 v=96
554256 On ch=3 n=69 v=96
554256 On ch=10 n=82 v=68
554376 Off ch=10 n=82 v=68
554376 Off ch=10 n=42 v=54
554376 Off ch=10 n=36 v=105
554699 Off ch=2 n=42 v=127
554736 Off ch=3 n=69 v=96
554736 Off ch=3 n=64 v=96
554736 Off ch=3 n=61 v=96
555229 On ch=2 n=37 v=127
555254 On ch=10 n=42 v=69
555254 On ch=10 n=82 v=58
555374 Off ch=10 n=82 v=58
555374 Off ch=10 n=42 v=69
555709 Off ch=2 n=37 v=127
556135 On ch=2 n=40 v=127
556160 On ch=10 n=40 v=113
556160 On ch=10 n=42 v=49
556160 On ch=10 n=82 v=66
556280 Off ch=10 n=82 v=66
556280 Off ch=10 n=42 v=49
556280 Off ch=10 n=40 v=113
556665 Off ch=2 n=40 v=127
557015 On ch=10 n=42 v=79
557015 On ch=3 n=59 v=96
557015 On ch=3 n=63 v=96
557015 On ch=3 n=68 v=96
557015 On ch=10 n=82 v=60
557105 On ch=2 n=42 v=127
557135 Off ch=10 n=82 v=60
557135 Off ch=10 n=42 v=79
557495 Off ch=3 n=68 v=96
557495 Off ch=3 n=63 v=96
557495 Off ch=3 n=59 v=96
557565 Off ch=2 n=42 v=127
558059 On ch=10 n=36 v=105
558059 On ch=10 n=42 v=46
558059 On ch=10 n=82 v=56
558069 On ch=2 n=40 v=127
558179 Off ch=10 n=82 v=56
558179 Off ch=10 n=42 v=46
558179 Off ch=10 n=36 v=105
558659 Off ch=2 n=40 v=127
559040 On ch=2 n=37 v=127
559109 On ch=10 n=42 v=74
559109 On ch=10 n=82 v=60
559229 Off ch=10 n=82 v=60
559229 Off ch=10 n=42 v=74
559580 Off ch=2 n=37 v=127
559902 On ch=2 n=35 v=127
560045 On ch=10 n=40 v=113
560045 On ch=10 n=42 v=46
560045 On ch=10 n=82 v=64
560165 Off ch=10 n=82 v=64
560165 Off ch=10 n=42 v=46
560165 Off ch=10 n=40 v=113
560552 Off ch=2 n=35 v=127
560811 On ch=2 n=37 v=127
560884 On ch=10 n=40 v=117
560884 On ch=10 n=46 v=100
560884 On ch=10 n=82 v=64
560910 Par ch=11 c=7 v=45
561004 Off ch=10 n=82 v=64
561004 Off ch=10 n=46 v=100
561004 Off ch=10 n=40 v=117
561281 Off ch=2 n=37 v=127
561392 On ch=10 n=40 v=121
561512 Off ch=10 n=40 v=121
561550 Par ch=2 c=11 v=127
561550 Par ch=2 c=99 v=1
561550 Par ch=2 c=98 v=33
561580 Par ch=2 c=6 v=64
561848 On ch=2 n=38 v=127
561872 On ch=10 n=36 v=105
561872 On ch=10 n=42 v=42
561872 On ch=10 n=82 v=66
561992 Off ch=10 n=82 v=66
561992 Off ch=10 n=42 v=42
561992 Off ch=10 n=36 v=105
562837 On ch=10 n=42 v=69
562837 On ch=10 n=82 v=64
562957 Off ch=10 n=82 v=64
562957 Off ch=10 n=42 v=69
563863 On ch=10 n=40 v=112
563863 On ch=10 n=42 v=54
563863 On ch=10 n=82 v=62
563983 Off ch=10 n=82 v=62
563983 Off ch=10 n=42 v=54
563983 Off ch=10 n=40 v=112
564732 On ch=10 n=42 v=74
564732 On ch=10 n=82 v=64
564852 Off ch=10 n=82 v=64
564852 Off ch=10 n=42 v=74
564908 Off ch=2 n=38 v=127
565189 On ch=2 n=38 v=127
565619 Off ch=2 n=38 v=127
565652 On ch=10 n=36 v=105
565652 On ch=10 n=42 v=57
565652 On ch=10 n=82 v=64
565669 On ch=2 n=38 v=127
565772 Off ch=10 n=82 v=64
565772 Off ch=10 n=42 v=57
565772 Off ch=10 n=36 v=105
566575 On ch=10 n=42 v=69
566575 On ch=10 n=82 v=68
566695 Off ch=10 n=82 v=68
566695 Off ch=10 n=42 v=69
567620 On ch=10 n=40 v=113
567620 On ch=10 n=42 v=57
567620 On ch=10 n=82 v=62
567740 Off ch=10 n=82 v=62
567740 Off ch=10 n=42 v=57
567740 Off ch=10 n=40 v=113
568179 Off ch=2 n=38 v=127
568577 On ch=10 n=42 v=79
568577 On ch=10 n=82 v=64
568643 On ch=2 n=38 v=127
568697 Off ch=10 n=82 v=64
568697 Off ch=10 n=42 v=79
568940 Pb ch=2 v=8192 
569330 Pb ch=2 v=12160 
569420 Pb ch=2 v=13440 
569560 On ch=2 n=42 v=127
569605 On ch=10 n=36 v=105
569605 On ch=10 n=42 v=54
569605 On ch=10 n=82 v=62
569633 Off ch=2 n=38 v=127
569660 Pb ch=2 v=8192 
569725 Off ch=10 n=82 v=62
569725 Off ch=10 n=42 v=54
569725 Off ch=10 n=36 v=105
570494 On ch=10 n=42 v=69
570494 On ch=10 n=82 v=55
570614 Off ch=10 n=82 v=55
570614 Off ch=10 n=42 v=69
571522 On ch=10 n=40 v=113
571522 On ch=10 n=42 v=49
571522 On ch=10 n=82 v=55
571642 Off ch=10 n=82 v=55
571642 Off ch=10 n=42 v=49
571642 Off ch=10 n=40 v=113
572414 On ch=10 n=42 v=79
572414 On ch=10 n=82 v=51
572490 Off ch=2 n=42 v=127
572534 Off ch=10 n=82 v=51
572534 Off ch=10 n=42 v=79
572918 On ch=2 n=30 v=127
573318 Off ch=2 n=30 v=127
573394 On ch=10 n=36 v=105
573394 On ch=10 n=42 v=46
573394 On ch=10 n=82 v=58
573398 On ch=2 n=30 v=127
573514 Off ch=10 n=82 v=58
573514 Off ch=10 n=42 v=46
573514 Off ch=10 n=36 v=105
574279 On ch=10 n=42 v=74
574279 On ch=10 n=82 v=47
574399 Off ch=10 n=82 v=47
574399 Off ch=10 n=42 v=74
575317 On ch=10 n=40 v=113
575317 On ch=10 n=42 v=46
575317 On ch=10 n=52 v=99
575317 On ch=10 n=82 v=62
575428 Off ch=2 n=30 v=127
575437 Off ch=10 n=82 v=62
575437 Off ch=10 n=52 v=99
575437 Off ch=10 n=42 v=46
575437 Off ch=10 n=40 v=113
576279 On ch=2 n=35 v=127
576400 On ch=10 n=46 v=99
576400 On ch=10 n=82 v=58
576520 Off ch=10 n=82 v=58
576520 Off ch=10 n=46 v=99
577159 Off ch=2 n=35 v=127
577220 On ch=2 n=38 v=127
577297 On ch=10 n=36 v=105
577297 On ch=10 n=42 v=42
577297 On ch=10 n=82 v=56
577417 Off ch=10 n=82 v=56
577417 Off ch=10 n=42 v=42
577417 Off ch=10 n=36 v=105
578201 On ch=10 n=42 v=69
578201 On ch=10 n=82 v=46
578321 Off ch=10 n=82 v=46
578321 Off ch=10 n=42 v=69
579074 On ch=10 n=40 v=112
579074 On ch=10 n=42 v=54
579074 On ch=10 n=82 v=64
579194 Off ch=10 n=82 v=64
579194 Off ch=10 n=42 v=54
579194 Off ch=10 n=40 v=112
580104 On ch=10 n=42 v=74
580104 On ch=10 n=82 v=53
580120 Off ch=2 n=38 v=127
580224 Off ch=10 n=82 v=53
580224 Off ch=10 n=42 v=74
580553 On ch=2 n=38 v=127
581000 On ch=10 n=36 v=105
581000 On ch=10 n=42 v=57
581000 On ch=10 n=82 v=62
581033 Off ch=2 n=38 v=127
581033 On ch=2 n=38 v=127
581120 Off ch=10 n=82 v=62
581120 Off ch=10 n=42 v=57
581120 Off ch=10 n=36 v=105
582060 On ch=10 n=42 v=69
582060 On ch=10 n=82 v=60
582180 Off ch=10 n=82 v=60
582180 Off ch=10 n=42 v=69
582961 On ch=10 n=40 v=113
582961 On ch=10 n=42 v=57
582961 On ch=10 n=82 v=68
583081 Off ch=10 n=82 v=68
583081 Off ch=10 n=42 v=57
583081 Off ch=10 n=40 v=113
583633 Off ch=2 n=38 v=127
583908 On ch=10 n=42 v=79
583908 On ch=10 n=82 v=50
584017 On ch=2 n=38 v=127
584028 Off ch=10 n=82 v=50
584028 Off ch=10 n=42 v=79
584340 Pb ch=2 v=9856 
584390 Pb ch=2 v=11776 
584740 Pb ch=2 v=16256 
584883 On ch=2 n=42 v=127
584894 On ch=10 n=36 v=105
584894 On ch=10 n=42 v=54
584894 On ch=10 n=82 v=68
584967 Off ch=2 n=38 v=127
585014 Off ch=10 n=82 v=68
585014 Off ch=10 n=42 v=54
585014 Off ch=10 n=36 v=105
585030 Pb ch=2 v=8192 
585772 On ch=10 n=42 v=69
585772 On ch=10 n=82 v=58
585892 Off ch=10 n=82 v=58
585892 Off ch=10 n=42 v=69
586810 On ch=10 n=40 v=113
586810 On ch=10 n=42 v=49
586810 On ch=10 n=82 v=66
586930 Off ch=10 n=82 v=66
586930 Off ch=10 n=42 v=49
586930 Off ch=10 n=40 v=113
587688 On ch=10 n=42 v=79
587688 On ch=10 n=82 v=60
587808 Off ch=10 n=82 v=60
587808 Off ch=10 n=42 v=79
587863 Off ch=2 n=42 v=127
588164 On ch=2 n=30 v=127
588534 Off ch=2 n=30 v=127
588644 On ch=2 n=30 v=127
588705 On ch=10 n=36 v=105
588705 On ch=10 n=42 v=46
588705 On ch=10 n=82 v=56
588825 Off ch=10 n=82 v=56
588825 Off ch=10 n=42 v=46
588825 Off ch=10 n=36 v=105
589677 On ch=10 n=42 v=74
589677 On ch=10 n=82 v=60
589797 Off ch=10 n=82 v=60
589797 Off ch=10 n=42 v=74
590589 On ch=10 n=40 v=113
590589 On ch=10 n=42 v=46
590589 On ch=10 n=52 v=99
590589 On ch=10 n=82 v=64
590709 Off ch=10 n=82 v=64
590709 Off ch=10 n=52 v=99
590709 Off ch=10 n=42 v=46
590709 Off ch=10 n=40 v=113
591394 Off ch=2 n=30 v=127
591513 On ch=10 n=46 v=99
591513 On ch=10 n=82 v=64
591576 On ch=2 n=35 v=127
591633 Off ch=10 n=82 v=64
591633 Off ch=10 n=46 v=99
592486 Off ch=2 n=35 v=127
592491 On ch=2 n=38 v=127
592577 On ch=10 n=36 v=105
592577 On ch=10 n=42 v=42
592577 On ch=10 n=82 v=66
592697 Off ch=10 n=82 v=66
592697 Off ch=10 n=42 v=42
592697 Off ch=10 n=36 v=105
593460 On ch=10 n=42 v=69
593460 On ch=10 n=82 v=64
593580 Off ch=10 n=82 v=64
593580 Off ch=10 n=42 v=69
594417 On ch=10 n=40 v=112
594417 On ch=10 n=42 v=54
594417 On ch=10 n=82 v=62
594537 Off ch=10 n=82 v=62
594537 Off ch=10 n=42 v=54
594537 Off ch=10 n=40 v=112
595341 Off ch=2 n=38 v=127
595454 On ch=10 n=42 v=74
595454 On ch=10 n=82 v=64
595574 Off ch=10 n=82 v=64
595574 Off ch=10 n=42 v=74
595890 On ch=2 n=38 v=127
596270 Off ch=2 n=38 v=127
596314 On ch=10 n=36 v=105
596314 On ch=10 n=42 v=57
596314 On ch=10 n=82 v=64
596370 On ch=2 n=38 v=127
596434 Off ch=10 n=82 v=64
596434 Off ch=10 n=42 v=57
596434 Off ch=10 n=36 v=105
597339 On ch=10 n=42 v=69
597339 On ch=10 n=82 v=68
597459 Off ch=10 n=82 v=68
597459 Off ch=10 n=42 v=69
598392 On ch=10 n=40 v=113
598392 On ch=10 n=42 v=57
598392 On ch=10 n=82 v=62
598512 Off ch=10 n=82 v=62
598512 Off ch=10 n=42 v=57
598512 Off ch=10 n=40 v=113
598690 Off ch=2 n=38 v=127
599272 On ch=2 n=38 v=127
599304 On ch=10 n=42 v=79
599304 On ch=10 n=82 v=64
599424 Off ch=10 n=82 v=64
599424 Off ch=10 n=42 v=79
599720 Pb ch=2 v=11520 
599860 Pb ch=2 v=15872 
600020 Pb ch=2 v=16256 
600202 Off ch=2 n=38 v=127
600226 On ch=10 n=36 v=105
600226 On ch=10 n=42 v=54
600226 On ch=10 n=82 v=62
600287 On ch=2 n=42 v=127
600290 Pb ch=2 v=8192 
600346 Off ch=10 n=82 v=62
600346 Off ch=10 n=42 v=54
600346 Off ch=10 n=36 v=105
601185 On ch=10 n=42 v=69
601185 On ch=10 n=82 v=55
601305 Off ch=10 n=82 v=55
601305 Off ch=10 n=42 v=69
602212 On ch=10 n=40 v=113
602212 On ch=10 n=42 v=49
602212 On ch=10 n=82 v=55
602332 Off ch=10 n=82 v=55
602332 Off ch=10 n=42 v=49
602332 Off ch=10 n=40 v=113
603063 On ch=10 n=42 v=79
603063 On ch=10 n=82 v=51
603183 Off ch=10 n=82 v=51
603183 Off ch=10 n=42 v=79
603287 Off ch=2 n=42 v=127
603644 On ch=2 n=30 v=127
604064 Off ch=2 n=30 v=127
604091 On ch=10 n=36 v=105
604091 On ch=10 n=42 v=46
604091 On ch=10 n=82 v=58
604124 On ch=2 n=30 v=127
604211 Off ch=10 n=82 v=58
604211 Off ch=10 n=42 v=46
604211 Off ch=10 n=36 v=105
605113 On ch=10 n=42 v=74
605113 On ch=10 n=82 v=47
605233 Off ch=10 n=82 v=47
605233 Off ch=10 n=42 v=74
606067 On ch=10 n=40 v=113
606067 On ch=10 n=42 v=46
606067 On ch=10 n=52 v=99
606067 On ch=10 n=82 v=62
606187 Off ch=10 n=82 v=62
606187 Off ch=10 n=52 v=99
606187 Off ch=10 n=42 v=46
606187 Off ch=10 n=40 v=113
606524 Off ch=2 n=30 v=127
606966 On ch=2 n=35 v=127
607055 On ch=10 n=46 v=99
607055 On ch=10 n=82 v=58
607175 Off ch=10 n=82 v=58
607175 Off ch=10 n=46 v=99
607640 Pb ch=2 v=9984 
607720 Pb ch=2 v=11648 
607790 Pb ch=2 v=13824 
607840 Pb ch=2 v=15104 
607896 Off ch=2 n=35 v=127
607902 On ch=10 n=36 v=105
607902 On ch=10 n=42 v=49
607902 On ch=10 n=82 v=56
608000 On ch=2 n=38 v=127
608020 Pb ch=2 v=8192 
608022 Off ch=10 n=82 v=56
608022 Off ch=10 n=42 v=49
608022 Off ch=10 n=36 v=105
608794 On ch=10 n=42 v=38
608794 On ch=10 n=82 v=46
608914 Off ch=10 n=82 v=46
608914 Off ch=10 n=42 v=38
609830 On ch=10 n=40 v=112
609830 On ch=10 n=42 v=51
609830 On ch=10 n=82 v=64
609950 Off ch=10 n=82 v=64
609950 Off ch=10 n=42 v=51
609950 Off ch=10 n=40 v=112
610790 Off ch=2 n=38 v=127
610838 On ch=10 n=46 v=89
610838 On ch=10 n=82 v=53
610958 Off ch=10 n=82 v=53
610958 Off ch=10 n=46 v=89
611296 On ch=2 n=38 v=127
611776 Off ch=2 n=38 v=127
611776 On ch=2 n=38 v=127
611844 On ch=10 n=36 v=105
611844 On ch=10 n=42 v=59
611844 On ch=10 n=82 v=62
611964 Off ch=10 n=82 v=62
611964 Off ch=10 n=42 v=59
611964 Off ch=10 n=36 v=105
612772 On ch=10 n=42 v=36
612772 On ch=10 n=82 v=60
612892 Off ch=10 n=82 v=60
612892 Off ch=10 n=42 v=36
613326 Off ch=2 n=38 v=127
613738 On ch=2 n=38 v=127
613831 On ch=10 n=40 v=113
613831 On ch=10 n=42 v=62
613831 On ch=10 n=82 v=68
613951 Off ch=10 n=82 v=68
613951 Off ch=10 n=42 v=62
613951 Off ch=10 n=40 v=113
614638 Off ch=2 n=38 v=127
614705 On ch=10 n=46 v=94
614705 On ch=10 n=82 v=50
614739 On ch=2 n=33 v=127
614825 Off ch=10 n=82 v=50
614825 Off ch=10 n=46 v=94
615579 Off ch=2 n=33 v=127
615693 On ch=10 n=36 v=105
615693 On ch=10 n=42 v=59
615693 On ch=10 n=82 v=68
615741 On ch=2 n=37 v=127
615813 Off ch=10 n=82 v=68
615813 Off ch=10 n=42 v=59
615813 Off ch=10 n=36 v=105
616311 Off ch=2 n=37 v=127
616615 On ch=2 n=37 v=123
616724 On ch=10 n=46 v=94
616724 On ch=10 n=82 v=58
616844 Off ch=10 n=82 v=58
616844 Off ch=10 n=46 v=94
617535 Off ch=2 n=37 v=123
617574 On ch=10 n=40 v=113
617574 On ch=10 n=42 v=56
617574 On ch=10 n=82 v=66
617634 On ch=2 n=37 v=127
617694 Off ch=10 n=82 v=66
617694 Off ch=10 n=42 v=56
617694 Off ch=10 n=40 v=113
618364 Off ch=2 n=37 v=127
618527 On ch=2 n=37 v=127
618563 On ch=10 n=46 v=89
618563 On ch=10 n=82 v=60
618683 Off ch=10 n=82 v=60
618683 Off ch=10 n=46 v=89
619117 Off ch=2 n=37 v=127
619408 On ch=10 n=36 v=105
619408 On ch=10 n=42 v=66
619408 On ch=10 n=82 v=56
619528 Off ch=10 n=82 v=56
619528 Off ch=10 n=42 v=66
619528 Off ch=10 n=36 v=105
619555 On ch=2 n=37 v=127
620275 Off ch=2 n=37 v=127
620413 On ch=2 n=37 v=127
620465 On ch=10 n=46 v=94
620465 On ch=10 n=82 v=60
620585 Off ch=10 n=82 v=60
620585 Off ch=10 n=46 v=94
621143 Off ch=2 n=37 v=127
621392 On ch=10 n=40 v=113
621392 On ch=10 n=42 v=62
621392 On ch=10 n=52 v=92
621392 On ch=10 n=82 v=64
621419 On ch=2 n=37 v=127
621512 Off ch=10 n=82 v=64
621512 Off ch=10 n=52 v=92
621512 Off ch=10 n=42 v=62
621512 Off ch=10 n=40 v=113
621939 Off ch=2 n=37 v=127
622361 On ch=10 n=46 v=94
622361 On ch=10 n=82 v=64
622380 On ch=2 n=37 v=127
622481 Off ch=10 n=82 v=64
622481 Off ch=10 n=46 v=94
622850 Off ch=2 n=37 v=127
622980 Par ch=2 c=11 v=127
623020 Par ch=2 c=99 v=1
623030 Par ch=2 c=98 v=33
623050 Par ch=2 c=6 v=70
623300 On ch=10 n=36 v=105
623300 On ch=10 n=42 v=42
623300 On ch=10 n=57 v=78
623300 On ch=3 n=57 v=73
623300 On ch=3 n=61 v=73
623300 On ch=3 n=66 v=73
623300 On ch=10 n=82 v=66
623339 On ch=2 n=42 v=127
623420 Off ch=10 n=82 v=66
623420 Off ch=10 n=57 v=78
623420 Off ch=10 n=42 v=42
623420 Off ch=10 n=36 v=105
623839 Off ch=2 n=42 v=127
624269 On ch=2 n=37 v=127
624274 On ch=10 n=42 v=69
624274 On ch=10 n=82 v=64
624394 Off ch=10 n=82 v=64
624394 Off ch=10 n=42 v=69
624789 Off ch=2 n=37 v=127
625199 On ch=2 n=40 v=127
625215 On ch=10 n=39 v=110
625215 On ch=10 n=40 v=112
625215 On ch=10 n=42 v=54
625215 On ch=10 n=52 v=72
625215 On ch=10 n=82 v=62
625335 Off ch=10 n=82 v=62
625335 Off ch=10 n=52 v=72
625335 Off ch=10 n=42 v=54
625335 Off ch=10 n=40 v=112
625335 Off ch=10 n=39 v=110
625700 Off ch=3 n=66 v=73
625700 Off ch=3 n=61 v=73
625700 Off ch=3 n=57 v=73
625749 Off ch=2 n=40 v=127
626120 On ch=10 n=42 v=74
626120 On ch=3 n=59 v=73
626120 On ch=3 n=63 v=73
626120 On ch=3 n=68 v=73
626120 On ch=10 n=82 v=64
626218 On ch=2 n=42 v=127
626240 Off ch=10 n=82 v=64
626240 Off ch=10 n=42 v=74
626728 Off ch=2 n=42 v=127
627065 On ch=2 n=40 v=127
627200 On ch=10 n=36 v=105
627200 On ch=10 n=42 v=57
627200 On ch=10 n=82 v=64
627320 Off ch=10 n=82 v=64
627320 Off ch=10 n=42 v=57
627320 Off ch=10 n=36 v=105
627625 Off ch=2 n=40 v=127
628129 On ch=2 n=37 v=127
628175 On ch=10 n=42 v=69
628175 On ch=10 n=82 v=68
628295 Off ch=10 n=82 v=68
628295 Off ch=10 n=42 v=69
628639 Off ch=2 n=37 v=127
629083 On ch=2 n=35 v=127
629103 On ch=10 n=39 v=110
629103 On ch=10 n=40 v=113
629103 On ch=10 n=42 v=57
629103 On ch=10 n=82 v=62
629223 Off ch=10 n=82 v=62
629223 Off ch=10 n=42 v=57
629223 Off ch=10 n=40 v=113
629223 Off ch=10 n=39 v=110
629693 Off ch=2 n=35 v=127
629960 Off ch=3 n=68 v=73
629960 Off ch=3 n=59 v=73
629960 Off ch=3 n=63 v=73
630015 On ch=10 n=42 v=79
630015 On ch=10 n=82 v=64
630090 On ch=2 n=37 v=127
630135 Off ch=10 n=82 v=64
630135 Off ch=10 n=42 v=79
630630 Off ch=2 n=37 v=127
630957 On ch=2 n=42 v=127
630961 On ch=10 n=36 v=105
630961 On ch=10 n=42 v=54
630961 On ch=3 n=61 v=73
630961 On ch=3 n=64 v=73
630961 On ch=3 n=69 v=73
630961 On ch=10 n=82 v=62
631081 Off ch=10 n=82 v=62
631081 Off ch=10 n=42 v=54
631081 Off ch=10 n=36 v=105
631427 Off ch=2 n=42 v=127
631891 On ch=10 n=42 v=69
631891 On ch=10 n=82 v=55
631971 On ch=2 n=37 v=127
632011 Off ch=10 n=82 v=55
632011 Off ch=10 n=42 v=69
632451 Off ch=2 n=37 v=127
632958 On ch=10 n=39 v=110
632958 On ch=10 n=40 v=113
632958 On ch=10 n=42 v=49
632958 On ch=10 n=82 v=55
633018 On ch=2 n=40 v=127
633078 Off ch=10 n=82 v=55
633078 Off ch=10 n=42 v=49
633078 Off ch=10 n=40 v=113
633078 Off ch=10 n=39 v=110
633361 Off ch=3 n=61 v=73
633361 Off ch=3 n=64 v=73
633361 Off ch=3 n=69 v=73
633548 Off ch=2 n=40 v=127
633864 On ch=2 n=42 v=127
633988 On ch=10 n=42 v=79
633988 On ch=3 n=59 v=73
633988 On ch=3 n=63 v=73
633988 On ch=3 n=68 v=73
633988 On ch=10 n=82 v=51
634108 Off ch=10 n=82 v=51
634108 Off ch=10 n=42 v=79
634324 Off ch=2 n=42 v=127
634863 On ch=10 n=36 v=105
634863 On ch=10 n=42 v=46
634863 On ch=10 n=82 v=58
634900 On ch=2 n=40 v=127
634983 Off ch=10 n=82 v=58
634983 Off ch=10 n=42 v=46
634983 Off ch=10 n=36 v=105
635490 Off ch=2 n=40 v=127
635804 On ch=10 n=42 v=74
635804 On ch=10 n=82 v=47
635806 On ch=2 n=37 v=127
635924 Off ch=10 n=82 v=47
635924 Off ch=10 n=42 v=74
636261 On ch=10 n=45 v=97
636346 Off ch=2 n=37 v=127
636381 Off ch=10 n=45 v=97
636741 On ch=10 n=39 v=110
636741 On ch=10 n=40 v=113
636741 On ch=10 n=42 v=46
636741 On ch=10 n=43 v=103
636741 On ch=10 n=82 v=62
636791 On ch=2 n=35 v=127
636861 Off ch=10 n=82 v=62
636861 Off ch=10 n=43 v=103
636861 Off ch=10 n=42 v=46
636861 Off ch=10 n=40 v=113
636861 Off ch=10 n=39 v=110
637441 Off ch=2 n=35 v=127
637702 On ch=2 n=37 v=127
637754 On ch=10 n=42 v=79
637754 On ch=10 n=82 v=58
637828 Off ch=3 n=68 v=73
637828 Off ch=3 n=63 v=73
637828 Off ch=3 n=59 v=73
637874 Off ch=10 n=82 v=58
637874 Off ch=10 n=42 v=79
638212 Off ch=2 n=37 v=127
638744 On ch=2 n=42 v=127
638773 On ch=10 n=36 v=105
638773 On ch=10 n=42 v=42
638773 On ch=3 n=57 v=73
638773 On ch=3 n=61 v=73
638773 On ch=3 n=66 v=73
638773 On ch=10 n=82 v=56
638893 Off ch=10 n=82 v=56
638893 Off ch=10 n=42 v=42
638893 Off ch=10 n=36 v=105
639244 Off ch=2 n=42 v=127
639651 On ch=10 n=42 v=69
639651 On ch=10 n=82 v=46
639662 On ch=2 n=37 v=127
639771 Off ch=10 n=82 v=46
639771 Off ch=10 n=42 v=69
640182 Off ch=2 n=37 v=127
640591 On ch=10 n=39 v=110
640591 On ch=10 n=40 v=112
640591 On ch=10 n=42 v=54
640591 On ch=10 n=82 v=64
640645 On ch=2 n=40 v=127
640711 Off ch=10 n=82 v=64
640711 Off ch=10 n=42 v=54
640711 Off ch=10 n=40 v=112
640711 Off ch=10 n=39 v=110
641173 Off ch=3 n=66 v=73
641173 Off ch=3 n=57 v=73
641173 Off ch=3 n=61 v=73
641195 Off ch=2 n=40 v=127
641538 On ch=2 n=42 v=127
641615 On ch=10 n=42 v=74
641615 On ch=3 n=59 v=73
641615 On ch=3 n=63 v=73
641615 On ch=3 n=68 v=73
641615 On ch=10 n=82 v=53
641735 Off ch=10 n=82 v=53
641735 Off ch=10 n=42 v=74
642048 Off ch=2 n=42 v=127
642524 On ch=10 n=36 v=105
642524 On ch=10 n=42 v=57
642524 On ch=10 n=82 v=62
642572 On ch=2 n=40 v=127
642644 Off ch=10 n=82 v=62
642644 Off ch=10 n=42 v=57
642644 Off ch=10 n=36 v=105
643132 Off ch=2 n=40 v=127
643520 On ch=2 n=37 v=127
643537 On ch=10 n=42 v=69
643537 On ch=10 n=82 v=60
643657 Off ch=10 n=82 v=60
643657 Off ch=10 n=42 v=69
644030 Off ch=2 n=37 v=127
644429 On ch=10 n=39 v=110
644429 On ch=10 n=40 v=113
644429 On ch=10 n=42 v=57
644429 On ch=10 n=82 v=68
644523 On ch=2 n=35 v=127
644549 Off ch=10 n=82 v=68
644549 Off ch=10 n=42 v=57
644549 Off ch=10 n=40 v=113
644549 Off ch=10 n=39 v=110
645133 Off ch=2 n=35 v=127
645391 On ch=2 n=37 v=127
645442 On ch=10 n=42 v=79
645442 On ch=10 n=82 v=50
645455 Off ch=3 n=59 v=73
645455 Off ch=3 n=63 v=73
645455 Off ch=3 n=68 v=73
645562 Off ch=10 n=82 v=50
645562 Off ch=10 n=42 v=79
645931 Off ch=2 n=37 v=127
646345 On ch=10 n=36 v=105
646345 On ch=10 n=42 v=54
646345 On ch=3 n=61 v=73
646345 On ch=3 n=64 v=73
646345 On ch=3 n=69 v=73
646345 On ch=10 n=82 v=68
646443 On ch=2 n=42 v=127
646465 Off ch=10 n=82 v=68
646465 Off ch=10 n=42 v=54
646465 Off ch=10 n=36 v=105
646913 Off ch=2 n=42 v=127
647293 On ch=2 n=37 v=127
647368 On ch=10 n=42 v=69
647368 On ch=10 n=82 v=58
647488 Off ch=10 n=82 v=58
647488 Off ch=10 n=42 v=69
647773 Off ch=2 n=37 v=127
648212 On ch=2 n=40 v=127
648282 On ch=10 n=39 v=110
648282 On ch=10 n=40 v=113
648282 On ch=10 n=42 v=49
648282 On ch=10 n=82 v=66
648402 Off ch=10 n=82 v=66
648402 Off ch=10 n=42 v=49
648402 Off ch=10 n=40 v=113
648402 Off ch=10 n=39 v=110
648742 Off ch=2 n=40 v=127
648745 Off ch=3 n=61 v=73
648745 Off ch=3 n=64 v=73
648745 Off ch=3 n=69 v=73
649180 On ch=10 n=42 v=79
649180 On ch=3 n=59 v=73
649180 On ch=3 n=63 v=73
649180 On ch=3 n=68 v=73
649180 On ch=10 n=82 v=60
649257 On ch=2 n=42 v=127
649300 Off ch=10 n=82 v=60
649300 Off ch=10 n=42 v=79
649717 Off ch=2 n=42 v=127
650105 On ch=10 n=36 v=105
650105 On ch=10 n=42 v=46
650105 On ch=10 n=82 v=56
650179 On ch=2 n=40 v=127
650225 Off ch=10 n=82 v=56
650225 Off ch=10 n=42 v=46
650225 Off ch=10 n=36 v=105
650769 Off ch=2 n=40 v=127
651165 On ch=2 n=37 v=127
651171 On ch=10 n=42 v=74
651171 On ch=10 n=82 v=60
651291 Off ch=10 n=82 v=60
651291 Off ch=10 n=42 v=74
651705 Off ch=2 n=37 v=127
652008 On ch=2 n=35 v=127
652167 On ch=10 n=39 v=110
652167 On ch=10 n=40 v=113
652167 On ch=10 n=42 v=46
652167 On ch=10 n=82 v=64
652287 Off ch=10 n=82 v=64
652287 Off ch=10 n=42 v=46
652287 Off ch=10 n=40 v=113
652287 Off ch=10 n=39 v=110
652658 Off ch=2 n=35 v=127
653051 On ch=2 n=37 v=127
653128 On ch=10 n=42 v=79
653128 On ch=10 n=82 v=64
653248 Off ch=10 n=82 v=64
653248 Off ch=10 n=42 v=79
653500 Off ch=3 n=68 v=73
653500 Off ch=3 n=63 v=73
653500 Off ch=3 n=59 v=73
653561 Off ch=2 n=37 v=127
653970 On ch=10 n=36 v=105
653970 On ch=10 n=42 v=42
653970 On ch=3 n=57 v=73
653970 On ch=3 n=62 v=73
653970 On ch=3 n=66 v=73
653970 On ch=10 n=82 v=66
654090 Off ch=10 n=82 v=66
654090 Off ch=10 n=42 v=42
654090 Off ch=10 n=36 v=105
654115 On ch=2 n=47 v=127
654595 Off ch=2 n=47 v=127
654985 On ch=2 n=42 v=127
654986 On ch=10 n=42 v=69
654986 On ch=10 n=82 v=64
655106 Off ch=10 n=82 v=64
655106 Off ch=10 n=42 v=69
655335 Off ch=2 n=42 v=127
655958 On ch=10 n=39 v=110
655958 On ch=10 n=40 v=112
655958 On ch=10 n=42 v=54
655958 On ch=10 n=82 v=62
655979 On ch=2 n=45 v=127
656078 Off ch=10 n=82 v=62
656078 Off ch=10 n=42 v=54
656078 Off ch=10 n=40 v=112
656078 Off ch=10 n=39 v=110
656499 Off ch=2 n=45 v=127
656889 On ch=10 n=42 v=74
656889 On ch=10 n=82 v=64
656974 On ch=2 n=47 v=127
657009 Off ch=10 n=82 v=64
657009 Off ch=10 n=42 v=74
657674 Off ch=2 n=47 v=127
657860 On ch=10 n=36 v=105
657860 On ch=10 n=42 v=57
657860 On ch=10 n=82 v=64
657980 Off ch=10 n=82 v=64
657980 Off ch=10 n=42 v=57
657980 Off ch=10 n=36 v=105
658698 On ch=10 n=42 v=69
658698 On ch=10 n=82 v=68
658818 Off ch=10 n=82 v=68
658818 Off ch=10 n=42 v=69
658875 On ch=2 n=42 v=127
659435 Off ch=2 n=42 v=127
659744 On ch=2 n=40 v=127
659756 On ch=10 n=39 v=110
659756 On ch=10 n=40 v=113
659756 On ch=10 n=42 v=57
659756 On ch=10 n=82 v=62
659876 Off ch=10 n=82 v=62
659876 Off ch=10 n=42 v=57
659876 Off ch=10 n=40 v=113
659876 Off ch=10 n=39 v=110
660344 Off ch=2 n=40 v=127
660696 On ch=10 n=42 v=79
660696 On ch=10 n=82 v=64
660816 On ch=2 n=42 v=127
660816 Off ch=10 n=82 v=64
660816 Off ch=10 n=42 v=79
661336 Off ch=2 n=42 v=127
661703 On ch=2 n=47 v=127
661721 On ch=10 n=36 v=105
661721 On ch=10 n=42 v=54
661721 On ch=10 n=82 v=62
661841 Off ch=10 n=82 v=62
661841 Off ch=10 n=42 v=54
661841 Off ch=10 n=36 v=105
662193 Off ch=2 n=47 v=127
662602 On ch=2 n=42 v=127
662715 On ch=10 n=42 v=69
662715 On ch=10 n=82 v=55
662835 Off ch=10 n=82 v=55
662835 Off ch=10 n=42 v=69
663102 Off ch=2 n=42 v=127
663591 On ch=10 n=39 v=110
663591 On ch=10 n=40 v=113
663591 On ch=10 n=42 v=49
663591 On ch=10 n=82 v=55
663634 On ch=2 n=45 v=127
663711 Off ch=10 n=82 v=55
663711 Off ch=10 n=42 v=49
663711 Off ch=10 n=40 v=113
663711 Off ch=10 n=39 v=110
664204 Off ch=2 n=45 v=127
664487 On ch=10 n=42 v=79
664487 On ch=10 n=82 v=51
664572 On ch=2 n=47 v=127
664607 Off ch=10 n=82 v=51
664607 Off ch=10 n=42 v=79
665252 Off ch=2 n=47 v=127
665560 On ch=10 n=36 v=105
665560 On ch=10 n=42 v=46
665560 On ch=10 n=82 v=58
665680 Off ch=10 n=82 v=58
665680 Off ch=10 n=42 v=46
665680 Off ch=10 n=36 v=105
666480 On ch=10 n=42 v=74
666480 On ch=10 n=82 v=47
666552 On ch=2 n=42 v=127
666600 Off ch=10 n=82 v=47
666600 Off ch=10 n=42 v=74
667182 Off ch=2 n=42 v=127
667410 On ch=10 n=39 v=110
667410 On ch=10 n=40 v=113
667410 On ch=10 n=42 v=46
667410 On ch=10 n=82 v=62
667431 On ch=2 n=40 v=127
667530 Off ch=10 n=82 v=62
667530 Off ch=10 n=42 v=46
667530 Off ch=10 n=40 v=113
667530 Off ch=10 n=39 v=110
668031 Off ch=2 n=40 v=127
668375 On ch=2 n=37 v=127
668406 On ch=10 n=42 v=79
668406 On ch=10 n=82 v=58
668526 Off ch=10 n=82 v=58
668526 Off ch=10 n=42 v=79
668970 Off ch=3 n=57 v=73
669005 Off ch=2 n=37 v=127
669010 Off ch=3 n=66 v=73
669090 Off ch=3 n=62 v=73
669396 On ch=2 n=42 v=127
669397 On ch=10 n=36 v=105
669397 On ch=10 n=42 v=42
669397 On ch=3 n=57 v=96
669397 On ch=3 n=61 v=96
669397 On ch=3 n=66 v=96
669397 On ch=10 n=82 v=56
669517 Off ch=10 n=82 v=56
669517 Off ch=10 n=42 v=42
669517 Off ch=10 n=36 v=105
669877 Off ch=3 n=61 v=96
669877 Off ch=3 n=66 v=96
669877 Off ch=3 n=57 v=96
669896 Off ch=2 n=42 v=127
670373 On ch=10 n=42 v=69
670373 On ch=10 n=82 v=46
670432 On ch=2 n=37 v=127
670493 Off ch=10 n=82 v=46
670493 Off ch=10 n=42 v=69
670952 Off ch=2 n=37 v=127
671292 On ch=10 n=39 v=110
671292 On ch=10 n=40 v=112
671292 On ch=10 n=42 v=54
671292 On ch=10 n=82 v=64
671412 Off ch=10 n=82 v=64
671412 Off ch=10 n=42 v=54
671412 Off ch=10 n=40 v=112
671412 Off ch=10 n=39 v=110
671416 On ch=2 n=40 v=127
671966 Off ch=2 n=40 v=127
672300 On ch=2 n=42 v=127
672375 On ch=10 n=42 v=74
672375 On ch=10 n=82 v=53
672375 On ch=3 n=59 v=96
672375 On ch=3 n=63 v=96
672375 On ch=3 n=68 v=96
672495 Off ch=10 n=82 v=53
672495 Off ch=10 n=42 v=74
672810 Off ch=2 n=42 v=127
672855 Off ch=3 n=63 v=96
672855 Off ch=3 n=68 v=96
672855 Off ch=3 n=59 v=96
673268 On ch=10 n=36 v=105
673268 On ch=10 n=42 v=57
673268 On ch=10 n=82 v=62
673307 On ch=2 n=40 v=127
673388 Off ch=10 n=82 v=62
673388 Off ch=10 n=42 v=57
673388 Off ch=10 n=36 v=105
673867 Off ch=2 n=40 v=127
674188 On ch=2 n=37 v=127
674216 On ch=10 n=42 v=69
674216 On ch=10 n=82 v=60
674336 Off ch=10 n=82 v=60
674336 Off ch=10 n=42 v=69
674698 Off ch=2 n=37 v=127
675060 On ch=2 n=35 v=127
675118 On ch=10 n=39 v=110
675118 On ch=10 n=40 v=113
675118 On ch=10 n=42 v=57
675118 On ch=10 n=82 v=68
675238 Off ch=10 n=82 v=68
675238 Off ch=10 n=42 v=57
675238 Off ch=10 n=40 v=113
675238 Off ch=10 n=39 v=110
675670 Off ch=2 n=35 v=127
676089 On ch=2 n=37 v=127
676146 On ch=10 n=42 v=79
676146 On ch=10 n=82 v=50
676266 Off ch=10 n=82 v=50
676266 Off ch=10 n=42 v=79
676629 Off ch=2 n=37 v=127
677094 On ch=10 n=36 v=105
677094 On ch=10 n=42 v=54
677094 On ch=3 n=61 v=96
677094 On ch=3 n=64 v=96
677094 On ch=3 n=69 v=96
677094 On ch=10 n=82 v=68
677147 On ch=2 n=42 v=127
677214 Off ch=10 n=82 v=68
677214 Off ch=10 n=42 v=54
677214 Off ch=10 n=36 v=105
677550 PrCh ch=11 p=62 
677574 Off ch=3 n=69 v=96
677574 Off ch=3 n=64 v=96
677574 Off ch=3 n=61 v=96
677617 Off ch=2 n=42 v=127
678030 Par ch=11 c=10 v=127
678055 On ch=10 n=42 v=69
678055 On ch=10 n=82 v=58
678151 On ch=2 n=37 v=127
678175 Off ch=10 n=82 v=58
678175 Off ch=10 n=42 v=69
678500 Par ch=11 c=7 v=60
678631 Off ch=2 n=37 v=127
679010 On ch=10 n=39 v=110
679010 On ch=10 n=40 v=113
679010 On ch=10 n=42 v=49
679010 On ch=10 n=82 v=66
679110 On ch=2 n=40 v=127
679130 Off ch=10 n=82 v=66
679130 Off ch=10 n=42 v=49
679130 Off ch=10 n=40 v=113
679130 Off ch=10 n=39 v=110
679640 Off ch=2 n=40 v=127
679997 On ch=2 n=42 v=127
680029 On ch=10 n=42 v=79
680029 On ch=3 n=59 v=96
680029 On ch=3 n=63 v=96
680029 On ch=3 n=68 v=96
680029 On ch=10 n=82 v=60
680149 Off ch=10 n=82 v=60
680149 Off ch=10 n=42 v=79
680457 Off ch=2 n=42 v=127
680509 Off ch=3 n=68 v=96
680509 Off ch=3 n=63 v=96
680509 Off ch=3 n=59 v=96
680907 On ch=2 n=40 v=127
680949 On ch=10 n=36 v=105
680949 On ch=10 n=42 v=46
680949 On ch=10 n=82 v=56
681069 Off ch=10 n=82 v=56
681069 Off ch=10 n=42 v=46
681069 Off ch=10 n=36 v=105
681497 Off ch=2 n=40 v=127
681805 On ch=10 n=42 v=74
681805 On ch=10 n=82 v=60
681925 Off ch=10 n=82 v=60
681925 Off ch=10 n=42 v=74
681936 On ch=2 n=37 v=127
682334 On ch=10 n=45 v=97
682454 Off ch=10 n=45 v=97
682476 Off ch=2 n=37 v=127
682773 On ch=2 n=35 v=127
682814 On ch=10 n=39 v=110
682814 On ch=10 n=40 v=113
682814 On ch=10 n=42 v=46
682814 On ch=10 n=43 v=103
682814 On ch=10 n=82 v=64
682934 Off ch=10 n=82 v=64
682934 Off ch=10 n=43 v=103
682934 Off ch=10 n=42 v=46
682934 Off ch=10 n=40 v=113
682934 Off ch=10 n=39 v=110
683423 Off ch=2 n=35 v=127
683733 On ch=2 n=37 v=127
683799 On ch=10 n=42 v=79
683799 On ch=10 n=82 v=64
683919 Off ch=10 n=82 v=64
683919 Off ch=10 n=42 v=79
684243 Off ch=2 n=37 v=127
684769 On ch=10 n=36 v=105
684769 On ch=10 n=42 v=42
684769 On ch=3 n=57 v=73
684769 On ch=3 n=61 v=73
684769 On ch=3 n=66 v=73
684769 On ch=10 n=82 v=66
684774 On ch=2 n=42 v=127
684889 Off ch=10 n=82 v=66
684889 Off ch=10 n=42 v=42
684889 Off ch=10 n=36 v=105
685274 Off ch=2 n=42 v=127
685709 On ch=10 n=42 v=69
685709 On ch=10 n=82 v=64
685714 On ch=2 n=37 v=127
685829 Off ch=10 n=82 v=64
685829 Off ch=10 n=42 v=69
686234 Off ch=2 n=37 v=127
686649 On ch=2 n=40 v=127
686710 On ch=10 n=39 v=110
686710 On ch=10 n=40 v=112
686710 On ch=10 n=42 v=54
686710 On ch=10 n=82 v=62
686830 Off ch=10 n=82 v=62
686830 Off ch=10 n=42 v=54
686830 Off ch=10 n=40 v=112
686830 Off ch=10 n=39 v=110
687169 Off ch=3 n=66 v=73
687169 Off ch=3 n=61 v=73
687169 Off ch=3 n=57 v=73
687199 Off ch=2 n=40 v=127
687595 On ch=10 n=42 v=74
687595 On ch=3 n=59 v=73
687595 On ch=3 n=63 v=73
687595 On ch=3 n=68 v=73
687595 On ch=10 n=82 v=64
687627 On ch=2 n=42 v=127
687715 Off ch=10 n=82 v=64
687715 Off ch=10 n=42 v=74
688137 Off ch=2 n=42 v=127
688550 On ch=10 n=36 v=105
688550 On ch=10 n=42 v=57
688550 On ch=10 n=82 v=64
688616 On ch=2 n=40 v=127
688670 Off ch=10 n=82 v=64
688670 Off ch=10 n=42 v=57
688670 Off ch=10 n=36 v=105
689176 Off ch=2 n=40 v=127
689441 On ch=11 n=73 v=127
689521 On ch=10 n=42 v=69
689521 On ch=10 n=82 v=68
689571 On ch=2 n=37 v=127
689641 Off ch=10 n=82 v=68
689641 Off ch=10 n=42 v=69
689741 Off ch=11 n=73 v=127
690081 Off ch=2 n=37 v=127
690460 On ch=11 n=73 v=127
690480 On ch=10 n=39 v=110
690480 On ch=10 n=40 v=113
690480 On ch=10 n=42 v=57
690480 On ch=10 n=82 v=62
690513 On ch=2 n=35 v=127
690600 Off ch=10 n=82 v=62
690600 Off ch=10 n=42 v=57
690600 Off ch=10 n=40 v=113
690600 Off ch=10 n=39 v=110
690830 Off ch=11 n=73 v=127
691123 Off ch=2 n=35 v=127
691435 Off ch=3 n=68 v=73
691435 Off ch=3 n=59 v=73
691435 Off ch=3 n=63 v=73
691457 On ch=11 n=73 v=127
691482 On ch=10 n=42 v=79
691482 On ch=10 n=82 v=64
691489 On ch=2 n=37 v=127
691602 Off ch=10 n=82 v=64
691602 Off ch=10 n=42 v=79
692029 Off ch=2 n=37 v=127
692387 On ch=10 n=36 v=105
692387 On ch=10 n=42 v=54
692387 On ch=3 n=61 v=73
692387 On ch=3 n=64 v=73
692387 On ch=3 n=69 v=73
692387 On ch=10 n=82 v=62
692482 On ch=2 n=42 v=127
692507 Off ch=10 n=82 v=62
692507 Off ch=10 n=42 v=54
692507 Off ch=10 n=36 v=105
692952 Off ch=2 n=42 v=127
693414 On ch=2 n=37 v=127
693417 On ch=10 n=42 v=69
693417 On ch=10 n=82 v=55
693537 Off ch=10 n=82 v=55
693537 Off ch=10 n=42 v=69
693894 Off ch=2 n=37 v=127
694307 On ch=2 n=40 v=127
694407 On ch=10 n=39 v=110
694407 On ch=10 n=40 v=113
694407 On ch=10 n=42 v=49
694407 On ch=10 n=82 v=55
694527 Off ch=10 n=82 v=55
694527 Off ch=10 n=42 v=49
694527 Off ch=10 n=40 v=113
694527 Off ch=10 n=39 v=110
694787 Off ch=3 n=61 v=73
694787 Off ch=3 n=64 v=73
694787 Off ch=3 n=69 v=73
694837 Off ch=2 n=40 v=127
695316 On ch=10 n=42 v=79
695316 On ch=3 n=59 v=73
695316 On ch=3 n=63 v=73
695316 On ch=3 n=68 v=73
695316 On ch=10 n=82 v=51
695390 On ch=2 n=42 v=127
695436 Off ch=10 n=82 v=51
695436 Off ch=10 n=42 v=79
695850 Off ch=2 n=42 v=127
696230 On ch=2 n=40 v=127
696380 On ch=10 n=36 v=105
696380 On ch=10 n=42 v=46
696380 On ch=10 n=82 v=58
696500 Off ch=10 n=82 v=58
696500 Off ch=10 n=42 v=46
696500 Off ch=10 n=36 v=105
696707 Off ch=11 n=73 v=127
696820 Off ch=2 n=40 v=127
697204 On ch=2 n=37 v=127
697276 On ch=11 n=71 v=127
697296 On ch=10 n=42 v=74
697296 On ch=10 n=82 v=47
697416 Off ch=10 n=82 v=47
697416 Off ch=10 n=42 v=74
697726 Off ch=11 n=71 v=127
697744 Off ch=2 n=37 v=127
697754 On ch=10 n=45 v=97
697804 On ch=11 n=69 v=127
697874 Off ch=10 n=45 v=97
698124 Off ch=11 n=69 v=127
698183 On ch=2 n=35 v=127
698234 On ch=10 n=39 v=110
698234 On ch=10 n=40 v=113
698234 On ch=10 n=42 v=46
698234 On ch=10 n=43 v=103
698234 On ch=10 n=82 v=62
698236 On ch=11 n=71 v=127
698354 Off ch=10 n=82 v=62
698354 Off ch=10 n=43 v=103
698354 Off ch=10 n=42 v=46
698354 Off ch=10 n=40 v=113
698354 Off ch=10 n=39 v=110
698626 Off ch=11 n=71 v=127
698786 On ch=11 n=69 v=127
698833 Off ch=2 n=35 v=127
699046 Off ch=11 n=69 v=127
699076 On ch=11 n=71 v=127
699106 Off ch=11 n=71 v=127
699136 On ch=10 n=42 v=79
699136 On ch=10 n=82 v=58
699156 Off ch=3 n=68 v=73
699156 Off ch=3 n=63 v=73
699156 Off ch=3 n=59 v=73
699248 On ch=2 n=37 v=127
699256 Off ch=10 n=82 v=58
699256 Off ch=10 n=42 v=79
699272 On ch=11 n=72 v=127
699372 On ch=11 n=73 v=127
699442 Off ch=11 n=72 v=127
699758 Off ch=2 n=37 v=127
700171 On ch=2 n=42 v=127
700202 On ch=10 n=36 v=105
700202 On ch=10 n=42 v=42
700202 On ch=3 n=57 v=73
700202 On ch=3 n=61 v=73
700202 On ch=3 n=66 v=73
700202 On ch=10 n=82 v=56
700322 Off ch=10 n=82 v=56
700322 Off ch=10 n=42 v=42
700322 Off ch=10 n=36 v=105
700412 Off ch=11 n=73 v=127
700671 Off ch=2 n=42 v=127
701111 On ch=10 n=42 v=69
701111 On ch=10 n=82 v=46
701119 On ch=2 n=37 v=127
701231 Off ch=10 n=82 v=46
701231 Off ch=10 n=42 v=69
701639 Off ch=2 n=37 v=127
702001 On ch=10 n=39 v=110
702001 On ch=10 n=40 v=112
702001 On ch=10 n=42 v=54
702001 On ch=10 n=82 v=64
702121 Off ch=10 n=82 v=64
702121 Off ch=10 n=42 v=54
702121 Off ch=10 n=40 v=112
702121 Off ch=10 n=39 v=110
702124 On ch=2 n=40 v=127
702602 Off ch=3 n=66 v=73
702602 Off ch=3 n=57 v=73
702602 Off ch=3 n=61 v=73
702674 Off ch=2 n=40 v=127
702992 On ch=2 n=42 v=127
703025 On ch=10 n=42 v=74
703025 On ch=3 n=59 v=73
703025 On ch=3 n=63 v=73
703025 On ch=3 n=68 v=73
703025 On ch=10 n=82 v=53
703145 Off ch=10 n=82 v=53
703145 Off ch=10 n=42 v=74
703502 Off ch=2 n=42 v=127
703911 On ch=2 n=40 v=127
703983 On ch=10 n=36 v=105
703983 On ch=10 n=42 v=57
703983 On ch=10 n=82 v=62
704103 Off ch=10 n=82 v=62
704103 Off ch=10 n=42 v=57
704103 Off ch=10 n=36 v=105
704471 Off ch=2 n=40 v=127
704934 On ch=2 n=37 v=127
704958 On ch=11 n=73 v=127
704968 On ch=10 n=42 v=69
704968 On ch=10 n=82 v=60
705088 Off ch=10 n=82 v=60
705088 Off ch=10 n=42 v=69
705238 Off ch=11 n=73 v=127
705444 Off ch=2 n=37 v=127
705909 On ch=10 n=39 v=110
705909 On ch=10 n=40 v=113
705909 On ch=10 n=42 v=57
705909 On ch=10 n=82 v=68
705968 On ch=2 n=35 v=127
705973 On ch=11 n=72 v=86
706029 Off ch=10 n=82 v=68
706029 Off ch=10 n=42 v=57
706029 Off ch=10 n=40 v=113
706029 Off ch=10 n=39 v=110
706053 Off ch=11 n=72 v=86
706053 On ch=11 n=73 v=127
706333 Off ch=11 n=73 v=127
706578 Off ch=2 n=35 v=127
706865 Off ch=3 n=59 v=73
706865 Off ch=3 n=63 v=73
706865 Off ch=3 n=68 v=73
706923 On ch=10 n=42 v=79
706923 On ch=10 n=82 v=50
706950 On ch=11 n=73 v=127
706994 On ch=2 n=37 v=127
707043 Off ch=10 n=82 v=50
707043 Off ch=10 n=42 v=79
707534 Off ch=2 n=37 v=127
707790 On ch=10 n=36 v=105
707790 On ch=10 n=42 v=54
707790 On ch=3 n=61 v=73
707790 On ch=3 n=64 v=73
707790 On ch=3 n=69 v=73
707790 On ch=10 n=82 v=68
707868 On ch=2 n=42 v=127
707910 Off ch=10 n=82 v=68
707910 Off ch=10 n=42 v=54
707910 Off ch=10 n=36 v=105
708338 Off ch=2 n=42 v=127
708773 On ch=2 n=37 v=127
708796 On ch=10 n=42 v=69
708796 On ch=10 n=82 v=58
708916 Off ch=10 n=82 v=58
708916 Off ch=10 n=42 v=69
709253 Off ch=2 n=37 v=127
709709 On ch=2 n=40 v=127
709783 On ch=10 n=39 v=110
709783 On ch=10 n=40 v=113
709783 On ch=10 n=42 v=49
709783 On ch=10 n=82 v=66
709903 Off ch=10 n=82 v=66
709903 Off ch=10 n=42 v=49
709903 Off ch=10 n=40 v=113
709903 Off ch=10 n=39 v=110
710190 Off ch=3 n=61 v=73
710190 Off ch=3 n=64 v=73
710190 Off ch=3 n=69 v=73
710239 Off ch=2 n=40 v=127
710689 On ch=2 n=42 v=127
710691 On ch=10 n=42 v=79
710691 On ch=3 n=59 v=73
710691 On ch=3 n=63 v=73
710691 On ch=3 n=68 v=73
710691 On ch=10 n=82 v=60
710811 Off ch=10 n=82 v=60
710811 Off ch=10 n=42 v=79
711149 Off ch=2 n=42 v=127
711640 Off ch=11 n=73 v=127
711673 On ch=2 n=40 v=127
711710 On ch=10 n=36 v=105
711710 On ch=10 n=42 v=46
711710 On ch=10 n=82 v=56
711830 Off ch=10 n=82 v=56
711830 Off ch=10 n=42 v=46
711830 Off ch=10 n=36 v=105
712263 Off ch=2 n=40 v=127
712501 On ch=11 n=73 v=127
712601 On ch=10 n=42 v=74
712601 On ch=10 n=82 v=60
712611 On ch=2 n=37 v=127
712721 Off ch=10 n=82 v=60
712721 Off ch=10 n=42 v=74
712911 Off ch=11 n=73 v=127
713147 On ch=11 n=67 v=43
713151 Off ch=2 n=37 v=127
713317 Off ch=11 n=67 v=43
713387 On ch=11 n=71 v=42
713487 Off ch=11 n=71 v=42
713510 On ch=2 n=35 v=127
713637 On ch=11 n=71 v=127
713677 On ch=10 n=39 v=110
713677 On ch=10 n=40 v=113
713677 On ch=10 n=42 v=46
713677 On ch=10 n=82 v=64
713797 Off ch=10 n=82 v=64
713797 Off ch=10 n=42 v=46
713797 Off ch=10 n=40 v=113
713797 Off ch=10 n=39 v=110
714058 On ch=11 n=69 v=127
714067 Off ch=11 n=71 v=127
714160 Off ch=2 n=35 v=127
714508 On ch=10 n=46 v=100
714508 On ch=10 n=82 v=64
714579 On ch=2 n=37 v=127
714588 Off ch=11 n=69 v=127
714628 Off ch=10 n=82 v=64
714628 Off ch=10 n=46 v=100
714713 On ch=11 n=66 v=127
715011 Off ch=3 n=68 v=73
715011 Off ch=3 n=63 v=73
715011 Off ch=3 n=59 v=73
715089 Off ch=2 n=37 v=127
715103 Off ch=11 n=66 v=127
715263 On ch=11 n=64 v=127
715443 Off ch=11 n=64 v=127
715453 On ch=11 n=66 v=127
715474 On ch=2 n=47 v=127
715553 On ch=10 n=36 v=105
715553 On ch=10 n=42 v=42
715553 On ch=3 n=57 v=73
715553 On ch=3 n=62 v=73
715553 On ch=3 n=66 v=73
715553 On ch=10 n=82 v=66
715573 Off ch=11 n=66 v=127
715614 On ch=11 n=66 v=127
715673 Off ch=10 n=82 v=66
715673 Off ch=10 n=42 v=42
715673 Off ch=10 n=36 v=105
715954 Off ch=2 n=47 v=127
716444 On ch=10 n=42 v=69
716444 On ch=10 n=82 v=64
716508 On ch=2 n=42 v=127
716564 Off ch=10 n=82 v=64
716564 Off ch=10 n=42 v=69
716858 Off ch=2 n=42 v=127
717386 On ch=2 n=45 v=127
717429 On ch=10 n=39 v=110
717429 On ch=10 n=40 v=112
717429 On ch=10 n=42 v=54
717429 On ch=10 n=82 v=62
717446 On ch=11 n=65 v=38
717549 Off ch=10 n=82 v=62
717549 Off ch=10 n=42 v=54
717549 Off ch=10 n=40 v=112
717549 Off ch=10 n=39 v=110
717564 Off ch=11 n=66 v=127
717576 On ch=11 n=66 v=50
717666 Off ch=11 n=66 v=50
717666 Off ch=11 n=65 v=38
717906 Off ch=2 n=45 v=127
718326 On ch=10 n=42 v=74
718326 On ch=10 n=82 v=64
718415 On ch=2 n=47 v=127
718446 Off ch=10 n=82 v=64
718446 Off ch=10 n=42 v=74
719115 Off ch=2 n=47 v=127
719313 On ch=10 n=36 v=105
719313 On ch=10 n=42 v=57
719313 On ch=10 n=82 v=64
719433 Off ch=10 n=82 v=64
719433 Off ch=10 n=42 v=57
719433 Off ch=10 n=36 v=105
720293 On ch=2 n=42 v=127
720327 On ch=10 n=42 v=69
720327 On ch=10 n=82 v=68
720447 Off ch=10 n=82 v=68
720447 Off ch=10 n=42 v=69
720853 Off ch=2 n=42 v=127
721201 On ch=10 n=39 v=110
721201 On ch=10 n=40 v=113
721201 On ch=10 n=42 v=57
721201 On ch=10 n=82 v=62
721260 On ch=2 n=40 v=127
721321 Off ch=10 n=82 v=62
721321 Off ch=10 n=42 v=57
721321 Off ch=10 n=40 v=113
721321 Off ch=10 n=39 v=110
721860 Off ch=2 n=40 v=127
722247 On ch=2 n=42 v=127
722264 On ch=10 n=42 v=79
722264 On ch=10 n=82 v=64
722384 Off ch=10 n=82 v=64
722384 Off ch=10 n=42 v=79
722767 Off ch=2 n=42 v=127
723127 On ch=10 n=36 v=105
723127 On ch=10 n=42 v=54
723127 On ch=10 n=82 v=62
723152 On ch=2 n=47 v=127
723247 Off ch=10 n=82 v=62
723247 Off ch=10 n=42 v=54
723247 Off ch=10 n=36 v=105
723642 Off ch=2 n=47 v=127
724149 On ch=10 n=42 v=69
724149 On ch=10 n=82 v=55
724184 On ch=2 n=42 v=127
724269 Off ch=10 n=82 v=55
724269 Off ch=10 n=42 v=69
724684 Off ch=2 n=42 v=127
725124 On ch=2 n=45 v=127
725146 On ch=10 n=39 v=110
725146 On ch=10 n=40 v=113
725146 On ch=10 n=42 v=49
725146 On ch=10 n=82 v=55
725266 Off ch=10 n=82 v=55
725266 Off ch=10 n=42 v=49
725266 Off ch=10 n=40 v=113
725266 Off ch=10 n=39 v=110
725694 Off ch=2 n=45 v=127
726108 On ch=2 n=47 v=127
726188 On ch=10 n=42 v=79
726188 On ch=10 n=82 v=51
726308 Off ch=10 n=82 v=51
726308 Off ch=10 n=42 v=79
726788 Off ch=2 n=47 v=127
727049 On ch=10 n=36 v=105
727049 On ch=10 n=42 v=46
727049 On ch=10 n=82 v=58
727169 Off ch=10 n=82 v=58
727169 Off ch=10 n=42 v=46
727169 Off ch=10 n=36 v=105
728029 On ch=10 n=42 v=74
728029 On ch=10 n=82 v=47
728034 On ch=2 n=42 v=127
728149 Off ch=10 n=82 v=47
728149 Off ch=10 n=42 v=74
728664 Off ch=2 n=42 v=127
728940 On ch=10 n=39 v=110
728940 On ch=10 n=40 v=113
728940 On ch=10 n=42 v=46
728940 On ch=10 n=82 v=62
728955 On ch=2 n=40 v=127
729060 Off ch=10 n=82 v=62
729060 Off ch=10 n=42 v=46
729060 Off ch=10 n=40 v=113
729060 Off ch=10 n=39 v=110
729555 Off ch=2 n=40 v=127
729858 On ch=10 n=42 v=79
729858 On ch=10 n=82 v=58
729938 On ch=2 n=37 v=127
729978 Off ch=10 n=82 v=58
729978 Off ch=10 n=42 v=79
730553 Off ch=3 n=57 v=73
730568 Off ch=2 n=37 v=127
730593 Off ch=3 n=66 v=73
730673 Off ch=3 n=62 v=73
730920 On ch=2 n=42 v=127
730924 On ch=10 n=36 v=105
730924 On ch=10 n=42 v=42
730924 On ch=3 n=57 v=96
730924 On ch=3 n=61 v=96
730924 On ch=3 n=66 v=96
730924 On ch=10 n=82 v=56
731044 Off ch=10 n=82 v=56
731044 Off ch=10 n=42 v=42
731044 Off ch=10 n=36 v=105
731404 Off ch=3 n=61 v=96
731404 Off ch=3 n=66 v=96
731404 Off ch=3 n=57 v=96
731420 Off ch=2 n=42 v=127
731811 On ch=2 n=37 v=127
731813 On ch=11 n=73 v=127
731873 On ch=10 n=42 v=69
731873 On ch=10 n=82 v=46
731993 Off ch=10 n=82 v=46
731993 Off ch=10 n=42 v=69
732273 Off ch=11 n=73 v=127
732331 Off ch=2 n=37 v=127
732704 On ch=11 n=84 v=127
732734 On ch=10 n=39 v=110
732734 On ch=10 n=40 v=112
732734 On ch=10 n=42 v=54
732734 On ch=10 n=82 v=64
732832 On ch=2 n=40 v=127
732854 Off ch=10 n=82 v=64
732854 Off ch=10 n=42 v=54
732854 Off ch=10 n=40 v=112
732854 Off ch=10 n=39 v=110
733000 Pb ch=11 v=10336 
733030 Pb ch=11 v=12096 
733140 Pb ch=11 v=12192 
733280 Pb ch=11 v=12288 
733382 Off ch=2 n=40 v=127
733524 Off ch=11 n=84 v=127
733550 Pb ch=11 v=8192 
733772 On ch=2 n=42 v=127
733806 On ch=10 n=42 v=74
733806 On ch=10 n=82 v=53
733806 On ch=3 n=59 v=96
733806 On ch=3 n=63 v=96
733806 On ch=3 n=68 v=96
733849 On ch=11 n=73 v=127
733926 Off ch=10 n=82 v=53
733926 Off ch=10 n=42 v=74
734282 Off ch=2 n=42 v=127
734286 Off ch=3 n=63 v=96
734286 Off ch=3 n=68 v=96
734286 Off ch=3 n=59 v=96
734349 Off ch=11 n=73 v=127
734624 On ch=2 n=40 v=127
734779 On ch=10 n=36 v=105
734779 On ch=10 n=42 v=57
734779 On ch=10 n=82 v=62
734899 Off ch=10 n=82 v=62
734899 Off ch=10 n=42 v=57
734899 Off ch=10 n=36 v=105
735184 Off ch=2 n=40 v=127
735661 On ch=2 n=37 v=127
735668 On ch=10 n=42 v=69
735668 On ch=10 n=82 v=60
735788 Off ch=10 n=82 v=60
735788 Off ch=10 n=42 v=69
736171 Off ch=2 n=37 v=127
736606 On ch=10 n=39 v=110
736606 On ch=10 n=40 v=113
736606 On ch=10 n=42 v=57
736606 On ch=10 n=82 v=68
736726 Off ch=10 n=82 v=68
736726 Off ch=10 n=42 v=57
736726 Off ch=10 n=40 v=113
736726 Off ch=10 n=39 v=110
736734 On ch=2 n=35 v=127
737344 Off ch=2 n=35 v=127
737613 On ch=2 n=37 v=127
737628 On ch=10 n=42 v=79
737628 On ch=10 n=82 v=50
737748 Off ch=10 n=82 v=50
737748 Off ch=10 n=42 v=79
738153 Off ch=2 n=37 v=127
738509 On ch=2 n=42 v=127
738594 On ch=10 n=36 v=105
738594 On ch=10 n=42 v=54
738594 On ch=3 n=61 v=96
738594 On ch=3 n=64 v=96
738594 On ch=3 n=69 v=96
738594 On ch=10 n=82 v=68
738714 Off ch=10 n=82 v=68
738714 Off ch=10 n=42 v=54
738714 Off ch=10 n=36 v=105
738979 Off ch=2 n=42 v=127
739074 Off ch=3 n=69 v=96
739074 Off ch=3 n=64 v=96
739074 Off ch=3 n=61 v=96
739455 On ch=11 n=73 v=127
739540 On ch=2 n=37 v=127
739555 On ch=10 n=42 v=69
739555 On ch=10 n=82 v=58
739675 Off ch=10 n=82 v=58
739675 Off ch=10 n=42 v=69
739885 Off ch=11 n=73 v=127
740020 Off ch=2 n=37 v=127
740421 On ch=11 n=84 v=127
740451 On ch=2 n=40 v=127
740461 On ch=10 n=39 v=110
740461 On ch=10 n=40 v=113
740461 On ch=10 n=42 v=49
740461 On ch=10 n=82 v=66
740530 Pb ch=11 v=10336 
740581 Off ch=10 n=82 v=66
740581 Off ch=10 n=42 v=49
740581 Off ch=10 n=40 v=113
740581 Off ch=10 n=39 v=110
740670 Pb ch=11 v=12096 
740830 Pb ch=11 v=12192 
740981 Off ch=2 n=40 v=127
741010 Pb ch=11 v=12288 
741090 Pb ch=11 v=12192 
741200 Pb ch=11 v=8192 
741291 Off ch=11 n=84 v=127
741353 On ch=11 n=73 v=123
741393 On ch=10 n=42 v=79
741393 On ch=3 n=59 v=96
741393 On ch=3 n=63 v=96
741393 On ch=3 n=68 v=96
741393 On ch=10 n=82 v=60
741423 On ch=2 n=42 v=127
741513 Off ch=10 n=82 v=60
741513 Off ch=10 n=42 v=79
741873 Off ch=3 n=68 v=96
741873 Off ch=3 n=63 v=96
741873 Off ch=3 n=59 v=96
741883 Off ch=2 n=42 v=127
741923 Off ch=11 n=73 v=123
742435 On ch=2 n=40 v=127
742446 On ch=10 n=36 v=105
742446 On ch=10 n=42 v=46
742446 On ch=10 n=82 v=56
742566 Off ch=10 n=82 v=56
742566 Off ch=10 n=42 v=46
742566 Off ch=10 n=36 v=105
743025 Off ch=2 n=40 v=127
743324 On ch=10 n=42 v=74
743324 On ch=10 n=82 v=60
743400 On ch=2 n=37 v=127
743444 Off ch=10 n=82 v=60
743444 Off ch=10 n=42 v=74
743940 Off ch=2 n=37 v=127
744347 On ch=10 n=39 v=110
744347 On ch=10 n=40 v=113
744347 On ch=10 n=42 v=46
744347 On ch=10 n=82 v=64
744368 On ch=2 n=35 v=127
744467 Off ch=10 n=82 v=64
744467 Off ch=10 n=42 v=46
744467 Off ch=10 n=40 v=113
744467 Off ch=10 n=39 v=110
745018 Off ch=2 n=35 v=127
745248 On ch=2 n=37 v=127
745260 On ch=10 n=42 v=79
745260 On ch=10 n=82 v=64
745380 Off ch=10 n=82 v=64
745380 Off ch=10 n=42 v=79
745758 Off ch=2 n=37 v=127
746212 On ch=2 n=47 v=127
746278 On ch=10 n=36 v=105
746278 On ch=10 n=42 v=42
746278 On ch=3 n=57 v=73
746278 On ch=3 n=62 v=73
746278 On ch=3 n=66 v=73
746278 On ch=10 n=82 v=66
746398 Off ch=10 n=82 v=66
746398 Off ch=10 n=42 v=42
746398 Off ch=10 n=36 v=105
746692 Off ch=2 n=47 v=127
747143 On ch=10 n=42 v=69
747143 On ch=10 n=82 v=64
747199 On ch=2 n=42 v=127
747263 Off ch=10 n=82 v=64
747263 Off ch=10 n=42 v=69
747549 Off ch=2 n=42 v=127
748030 On ch=10 n=39 v=110
748030 On ch=10 n=40 v=112
748030 On ch=10 n=42 v=54
748030 On ch=10 n=82 v=62
748092 On ch=2 n=45 v=127
748150 Off ch=10 n=82 v=62
748150 Off ch=10 n=42 v=54
748150 Off ch=10 n=40 v=112
748150 Off ch=10 n=39 v=110
748612 Off ch=2 n=45 v=127
749033 On ch=10 n=42 v=74
749033 On ch=10 n=82 v=64
749127 On ch=2 n=47 v=127
749153 Off ch=10 n=82 v=64
749153 Off ch=10 n=42 v=74
749827 Off ch=2 n=47 v=127
750086 On ch=10 n=36 v=105
750086 On ch=10 n=42 v=57
750086 On ch=10 n=82 v=64
750206 Off ch=10 n=82 v=64
750206 Off ch=10 n=42 v=57
750206 Off ch=10 n=36 v=105
751006 On ch=10 n=42 v=69
751006 On ch=10 n=82 v=68
751039 On ch=2 n=42 v=127
751126 Off ch=10 n=82 v=68
751126 Off ch=10 n=42 v=69
751599 Off ch=2 n=42 v=127
751909 On ch=2 n=40 v=127
751964 On ch=10 n=39 v=110
751964 On ch=10 n=40 v=113
751964 On ch=10 n=42 v=57
751964 On ch=10 n=82 v=62
752084 Off ch=10 n=82 v=62
752084 Off ch=10 n=42 v=57
752084 Off ch=10 n=40 v=113
752084 Off ch=10 n=39 v=110
752509 Off ch=2 n=40 v=127
752942 On ch=10 n=42 v=79
752942 On ch=10 n=82 v=64
752947 On ch=2 n=42 v=127
753062 Off ch=10 n=82 v=64
753062 Off ch=10 n=42 v=79
753467 Off ch=2 n=42 v=127
753864 On ch=10 n=36 v=105
753864 On ch=10 n=42 v=54
753864 On ch=10 n=82 v=62
753953 On ch=2 n=47 v=127
753984 Off ch=10 n=82 v=62
753984 Off ch=10 n=42 v=54
753984 Off ch=10 n=36 v=105
754443 Off ch=2 n=47 v=127
754822 On ch=10 n=42 v=69
754822 On ch=10 n=82 v=55
754919 On ch=2 n=42 v=127
754942 Off ch=10 n=82 v=55
754942 Off ch=10 n=42 v=69
755419 Off ch=2 n=42 v=127
755775 On ch=2 n=45 v=127
755887 On ch=10 n=39 v=110
755887 On ch=10 n=40 v=113
755887 On ch=10 n=42 v=49
755887 On ch=10 n=82 v=55
756007 Off ch=10 n=82 v=55
756007 Off ch=10 n=42 v=49
756007 Off ch=10 n=40 v=113
756007 Off ch=10 n=39 v=110
756345 Off ch=2 n=45 v=127
756812 On ch=2 n=47 v=127
756828 On ch=10 n=42 v=79
756828 On ch=10 n=82 v=51
756948 Off ch=10 n=82 v=51
756948 Off ch=10 n=42 v=79
757492 Off ch=2 n=47 v=127
757712 On ch=10 n=36 v=105
757712 On ch=10 n=42 v=46
757712 On ch=10 n=82 v=58
757832 Off ch=10 n=82 v=58
757832 Off ch=10 n=42 v=46
757832 Off ch=10 n=36 v=105
758687 On ch=2 n=42 v=127
758709 On ch=10 n=42 v=74
758709 On ch=10 n=82 v=47
758829 Off ch=10 n=82 v=47
758829 Off ch=10 n=42 v=74
759317 Off ch=2 n=42 v=127
759688 On ch=10 n=39 v=110
759688 On ch=10 n=40 v=113
759688 On ch=10 n=42 v=46
759688 On ch=10 n=82 v=62
759738 On ch=2 n=40 v=127
759808 Off ch=10 n=82 v=62
759808 Off ch=10 n=42 v=46
759808 Off ch=10 n=40 v=113
759808 Off ch=10 n=39 v=110
760338 Off ch=2 n=40 v=127
760664 On ch=2 n=37 v=127
760671 On ch=10 n=42 v=79
760671 On ch=10 n=82 v=58
760791 Off ch=10 n=82 v=58
760791 Off ch=10 n=42 v=79
761294 Off ch=2 n=37 v=127
761438 Off ch=3 n=66 v=73
761478 Off ch=3 n=57 v=73
761478 Off ch=3 n=62 v=73
761513 On ch=2 n=42 v=127
761626 On ch=10 n=36 v=105
761626 On ch=10 n=42 v=42
761626 On ch=3 n=57 v=96
761626 On ch=3 n=61 v=96
761626 On ch=3 n=66 v=96
761626 On ch=10 n=82 v=56
761746 Off ch=10 n=82 v=56
761746 Off ch=10 n=42 v=42
761746 Off ch=10 n=36 v=105
762013 Off ch=2 n=42 v=127
762146 Off ch=3 n=57 v=96
762176 Off ch=3 n=61 v=96
762176 Off ch=3 n=66 v=96
762462 On ch=11 n=73 v=127
762522 On ch=10 n=42 v=69
762522 On ch=10 n=82 v=46
762544 On ch=2 n=37 v=127
762642 Off ch=10 n=82 v=46
762642 Off ch=10 n=42 v=69
762922 Off ch=11 n=73 v=127
763064 Off ch=2 n=37 v=127
763537 On ch=11 n=84 v=127
763543 On ch=2 n=40 v=127
763567 On ch=10 n=39 v=110
763567 On ch=10 n=40 v=112
763567 On ch=10 n=42 v=54
763567 On ch=10 n=82 v=64
763687 Off ch=10 n=82 v=64
763687 Off ch=10 n=42 v=54
763687 Off ch=10 n=40 v=112
763687 Off ch=10 n=39 v=110
763720 Pb ch=11 v=10336 
763750 Pb ch=11 v=12096 
763860 Pb ch=11 v=12192 
764000 Pb ch=11 v=12288 
764093 Off ch=2 n=40 v=127
764210 Pb ch=11 v=8192 
764357 Off ch=11 n=84 v=127
764426 On ch=10 n=42 v=74
764426 On ch=10 n=82 v=53
764426 On ch=3 n=59 v=96
764426 On ch=3 n=63 v=96
764426 On ch=3 n=68 v=96
764489 On ch=2 n=42 v=127
764508 On ch=11 n=73 v=127
764546 Off ch=10 n=82 v=53
764546 Off ch=10 n=42 v=74
764906 Off ch=3 n=68 v=96
764906 Off ch=3 n=63 v=96
764906 Off ch=3 n=59 v=96
764999 Off ch=2 n=42 v=127
765008 Off ch=11 n=73 v=127
765413 On ch=2 n=40 v=127
765438 On ch=10 n=36 v=105
765438 On ch=10 n=42 v=57
765438 On ch=10 n=82 v=62
765558 Off ch=10 n=82 v=62
765558 Off ch=10 n=42 v=57
765558 Off ch=10 n=36 v=105
765973 Off ch=2 n=40 v=127
766358 On ch=2 n=37 v=127
766392 On ch=10 n=42 v=69
766392 On ch=10 n=82 v=60
766512 Off ch=10 n=82 v=60
766512 Off ch=10 n=42 v=69
766868 Off ch=2 n=37 v=127
767245 On ch=2 n=35 v=127
767329 On ch=10 n=39 v=110
767329 On ch=10 n=40 v=113
767329 On ch=10 n=42 v=57
767329 On ch=10 n=82 v=68
767449 Off ch=10 n=82 v=68
767449 Off ch=10 n=42 v=57
767449 Off ch=10 n=40 v=113
767449 Off ch=10 n=39 v=110
767855 Off ch=2 n=35 v=127
768279 On ch=2 n=37 v=127
768330 On ch=10 n=42 v=79
768330 On ch=10 n=82 v=50
768450 Off ch=10 n=82 v=50
768450 Off ch=10 n=42 v=79
768819 Off ch=2 n=37 v=127
769247 On ch=10 n=36 v=105
769247 On ch=10 n=42 v=54
769247 On ch=3 n=61 v=96
769247 On ch=3 n=64 v=96
769247 On ch=3 n=69 v=96
769247 On ch=10 n=82 v=68
769310 On ch=2 n=42 v=127
769367 Off ch=10 n=82 v=68
769367 Off ch=10 n=42 v=54
769367 Off ch=10 n=36 v=105
769727 Off ch=3 n=69 v=96
769727 Off ch=3 n=64 v=96
769727 Off ch=3 n=61 v=96
769780 Off ch=2 n=42 v=127
770165 On ch=11 n=73 v=127
770201 On ch=2 n=37 v=127
770265 On ch=10 n=42 v=69
770265 On ch=10 n=82 v=58
770385 Off ch=10 n=82 v=58
770385 Off ch=10 n=42 v=69
770595 Off ch=11 n=73 v=127
770681 Off ch=2 n=37 v=127
771135 On ch=11 n=84 v=127
771169 On ch=2 n=40 v=127
771175 On ch=10 n=39 v=110
771175 On ch=10 n=40 v=113
771175 On ch=10 n=42 v=49
771175 On ch=10 n=82 v=66
771250 Pb ch=11 v=10336 
771295 Off ch=10 n=82 v=66
771295 Off ch=10 n=42 v=49
771295 Off ch=10 n=40 v=113
771295 Off ch=10 n=39 v=110
771390 Pb ch=11 v=12096 
771550 Pb ch=11 v=12192 
771699 Off ch=2 n=40 v=127
771890 Pb ch=11 v=12288 
771960 Pb ch=11 v=8192 
772005 Off ch=11 n=84 v=127
772101 On ch=11 n=73 v=123
772141 On ch=10 n=42 v=79
772141 On ch=10 n=82 v=60
772141 On ch=3 n=59 v=96
772141 On ch=3 n=63 v=96
772141 On ch=3 n=68 v=96
772175 On ch=2 n=42 v=127
772261 Off ch=10 n=82 v=60
772261 Off ch=10 n=42 v=79
772621 Off ch=3 n=68 v=96
772621 Off ch=3 n=63 v=96
772621 Off ch=3 n=59 v=96
772635 Off ch=2 n=42 v=127
772671 Off ch=11 n=73 v=123
773090 On ch=10 n=36 v=105
773090 On ch=10 n=42 v=46
773090 On ch=10 n=82 v=56
773163 On ch=2 n=40 v=127
773210 Off ch=10 n=82 v=56
773210 Off ch=10 n=42 v=46
773210 Off ch=10 n=36 v=105
773753 Off ch=2 n=40 v=127
774024 On ch=2 n=37 v=127
774035 On ch=10 n=42 v=74
774035 On ch=10 n=82 v=60
774155 Off ch=10 n=82 v=60
774155 Off ch=10 n=42 v=74
774564 Off ch=2 n=37 v=127
774591 On ch=10 n=45 v=97
774711 Off ch=10 n=45 v=97
774946 On ch=2 n=35 v=127
775071 On ch=10 n=39 v=110
775071 On ch=10 n=40 v=113
775071 On ch=10 n=42 v=46
775071 On ch=10 n=43 v=103
775071 On ch=10 n=82 v=64
775191 Off ch=10 n=82 v=64
775191 Off ch=10 n=43 v=103
775191 Off ch=10 n=42 v=46
775191 Off ch=10 n=40 v=113
775191 Off ch=10 n=39 v=110
775596 Off ch=2 n=35 v=127
775875 On ch=2 n=37 v=127
775959 On ch=10 n=46 v=100
775959 On ch=10 n=82 v=64
776079 Off ch=10 n=82 v=64
776079 Off ch=10 n=46 v=100
776385 Off ch=2 n=37 v=127
776430 Par ch=11 c=10 v=64
776847 On ch=10 n=36 v=105
776847 On ch=10 n=42 v=42
776847 On ch=3 n=57 v=73
776847 On ch=3 n=61 v=73
776847 On ch=3 n=66 v=73
776847 On ch=10 n=82 v=66
776911 On ch=2 n=42 v=127
776967 Off ch=10 n=82 v=66
776967 Off ch=10 n=42 v=42
776967 Off ch=10 n=36 v=105
777411 Off ch=2 n=42 v=127
777884 On ch=10 n=42 v=69
777884 On ch=10 n=82 v=64
777956 On ch=2 n=37 v=127
778004 Off ch=10 n=82 v=64
778004 Off ch=10 n=42 v=69
778476 Off ch=2 n=37 v=127
778841 On ch=2 n=40 v=127
778882 On ch=10 n=39 v=110
778882 On ch=10 n=40 v=112
778882 On ch=10 n=42 v=54
778882 On ch=10 n=82 v=62
779002 Off ch=10 n=82 v=62
779002 Off ch=10 n=42 v=54
779002 Off ch=10 n=40 v=112
779002 Off ch=10 n=39 v=110
779247 Off ch=3 n=66 v=73
779247 Off ch=3 n=61 v=73
779247 Off ch=3 n=57 v=73
779391 Off ch=2 n=40 v=127
779754 On ch=10 n=42 v=74
779754 On ch=3 n=59 v=73
779754 On ch=3 n=63 v=73
779754 On ch=3 n=68 v=73
779754 On ch=10 n=82 v=64
779839 On ch=2 n=42 v=127
779874 Off ch=10 n=82 v=64
779874 Off ch=10 n=42 v=74
780349 Off ch=2 n=42 v=127
780724 On ch=10 n=36 v=105
780724 On ch=10 n=42 v=57
780724 On ch=10 n=82 v=64
780779 On ch=2 n=40 v=127
780844 Off ch=10 n=82 v=64
780844 Off ch=10 n=42 v=57
780844 Off ch=10 n=36 v=105
781339 Off ch=2 n=40 v=127
781623 On ch=2 n=37 v=127
781792 On ch=10 n=42 v=69
781792 On ch=10 n=82 v=68
781912 Off ch=10 n=82 v=68
781912 Off ch=10 n=42 v=69
782133 Off ch=2 n=37 v=127
782629 On ch=10 n=39 v=110
782629 On ch=10 n=40 v=113
782629 On ch=10 n=42 v=57
782629 On ch=10 n=82 v=62
782665 On ch=2 n=35 v=127
782749 Off ch=10 n=82 v=62
782749 Off ch=10 n=42 v=57
782749 Off ch=10 n=40 v=113
782749 Off ch=10 n=39 v=110
783275 Off ch=2 n=35 v=127
783594 Off ch=3 n=68 v=73
783594 Off ch=3 n=59 v=73
783594 Off ch=3 n=63 v=73
783596 On ch=2 n=37 v=127
783682 On ch=10 n=42 v=79
783682 On ch=10 n=82 v=64
783802 Off ch=10 n=82 v=64
783802 Off ch=10 n=42 v=79
784136 Off ch=2 n=37 v=127
784616 On ch=10 n=36 v=105
784616 On ch=10 n=42 v=54
784616 On ch=2 n=42 v=127
784616 On ch=3 n=61 v=73
784616 On ch=3 n=64 v=73
784616 On ch=3 n=69 v=73
784616 On ch=10 n=82 v=62
784736 Off ch=10 n=82 v=62
784736 Off ch=10 n=42 v=54
784736 Off ch=10 n=36 v=105
785086 Off ch=2 n=42 v=127
785499 On ch=10 n=42 v=69
785499 On ch=10 n=82 v=55
785536 On ch=2 n=37 v=127
785619 Off ch=10 n=82 v=55
785619 Off ch=10 n=42 v=69
786016 Off ch=2 n=37 v=127
786460 On ch=2 n=40 v=127
786558 On ch=10 n=39 v=110
786558 On ch=10 n=40 v=113
786558 On ch=10 n=42 v=49
786558 On ch=10 n=82 v=55
786678 Off ch=10 n=82 v=55
786678 Off ch=10 n=42 v=49
786678 Off ch=10 n=40 v=113
786678 Off ch=10 n=39 v=110
786990 Off ch=2 n=40 v=127
787016 Off ch=3 n=61 v=73
787016 Off ch=3 n=64 v=73
787016 Off ch=3 n=69 v=73
787468 On ch=10 n=42 v=79
787468 On ch=3 n=59 v=73
787468 On ch=3 n=63 v=73
787468 On ch=3 n=68 v=73
787468 On ch=10 n=82 v=51
787519 On ch=2 n=42 v=127
787588 Off ch=10 n=82 v=51
787588 Off ch=10 n=42 v=79
787979 Off ch=2 n=42 v=127
788367 On ch=2 n=40 v=127
788434 On ch=10 n=36 v=105
788434 On ch=10 n=42 v=46
788434 On ch=10 n=82 v=58
788554 Off ch=10 n=82 v=58
788554 Off ch=10 n=42 v=46
788554 Off ch=10 n=36 v=105
788957 Off ch=2 n=40 v=127
789358 On ch=10 n=42 v=74
789358 On ch=10 n=82 v=47
789408 On ch=2 n=37 v=127
789478 Off ch=10 n=82 v=47
789478 Off ch=10 n=42 v=74
789948 Off ch=2 n=37 v=127
790302 On ch=2 n=35 v=127
790433 On ch=10 n=39 v=110
790433 On ch=10 n=40 v=113
790433 On ch=10 n=42 v=46
790433 On ch=10 n=82 v=62
790553 Off ch=10 n=82 v=62
790553 Off ch=10 n=42 v=46
790553 Off ch=10 n=40 v=113
790553 Off ch=10 n=39 v=110
790952 Off ch=2 n=35 v=127
791308 Off ch=3 n=68 v=73
791308 Off ch=3 n=63 v=73
791308 Off ch=3 n=59 v=73
791328 On ch=2 n=37 v=127
791393 On ch=10 n=42 v=79
791393 On ch=10 n=82 v=58
791513 Off ch=10 n=82 v=58
791513 Off ch=10 n=42 v=79
791838 Off ch=2 n=37 v=127
792251 On ch=10 n=36 v=105
792251 On ch=10 n=42 v=42
792251 On ch=3 n=57 v=73
792251 On ch=3 n=61 v=73
792251 On ch=3 n=66 v=73
792251 On ch=10 n=82 v=56
792359 On ch=2 n=42 v=127
792371 Off ch=10 n=82 v=56
792371 Off ch=10 n=42 v=42
792371 Off ch=10 n=36 v=105
792859 Off ch=2 n=42 v=127
793235 On ch=2 n=37 v=127
793265 On ch=10 n=42 v=69
793265 On ch=10 n=82 v=46
793385 Off ch=10 n=82 v=46
793385 Off ch=10 n=42 v=69
793755 Off ch=2 n=37 v=127
794178 On ch=10 n=39 v=110
794178 On ch=10 n=40 v=112
794178 On ch=10 n=42 v=54
794178 On ch=10 n=82 v=64
794225 On ch=2 n=40 v=127
794298 Off ch=10 n=82 v=64
794298 Off ch=10 n=42 v=54
794298 Off ch=10 n=40 v=112
794298 Off ch=10 n=39 v=110
794651 Off ch=3 n=66 v=73
794651 Off ch=3 n=57 v=73
794651 Off ch=3 n=61 v=73
794775 Off ch=2 n=40 v=127
795166 On ch=2 n=42 v=127
795228 On ch=10 n=42 v=74
795228 On ch=3 n=59 v=73
795228 On ch=3 n=63 v=73
795228 On ch=3 n=68 v=73
795228 On ch=10 n=82 v=53
795348 Off ch=10 n=82 v=53
795348 Off ch=10 n=42 v=74
795676 Off ch=2 n=42 v=127
796143 On ch=10 n=36 v=105
796143 On ch=10 n=42 v=57
796143 On ch=10 n=82 v=62
796174 On ch=2 n=40 v=127
796263 Off ch=10 n=82 v=62
796263 Off ch=10 n=42 v=57
796263 Off ch=10 n=36 v=105
796734 Off ch=2 n=40 v=127
797057 On ch=2 n=37 v=127
797068 On ch=10 n=42 v=69
797068 On ch=10 n=82 v=60
797188 Off ch=10 n=82 v=60
797188 Off ch=10 n=42 v=69
797567 Off ch=2 n=37 v=127
798010 On ch=10 n=39 v=110
798010 On ch=10 n=40 v=113
798010 On ch=10 n=42 v=57
798010 On ch=10 n=82 v=68
798118 On ch=2 n=35 v=127
798130 Off ch=10 n=82 v=68
798130 Off ch=10 n=42 v=57
798130 Off ch=10 n=40 v=113
798130 Off ch=10 n=39 v=110
798728 Off ch=2 n=35 v=127
798960 On ch=2 n=37 v=127
799024 On ch=10 n=42 v=79
799024 On ch=10 n=82 v=50
799068 Off ch=3 n=59 v=73
799068 Off ch=3 n=63 v=73
799068 Off ch=3 n=68 v=73
799144 Off ch=10 n=82 v=50
799144 Off ch=10 n=42 v=79
799500 Off ch=2 n=37 v=127
799934 On ch=10 n=36 v=105
799934 On ch=10 n=42 v=54
799934 On ch=3 n=61 v=73
799934 On ch=3 n=64 v=73
799934 On ch=3 n=69 v=73
799934 On ch=10 n=82 v=68
799966 On ch=2 n=42 v=127
800054 Off ch=10 n=82 v=68
800054 Off ch=10 n=42 v=54
800054 Off ch=10 n=36 v=105
800436 Off ch=2 n=42 v=127
800947 On ch=2 n=37 v=127
800960 On ch=10 n=42 v=69
800960 On ch=10 n=82 v=58
801080 Off ch=10 n=82 v=58
801080 Off ch=10 n=42 v=69
801427 Off ch=2 n=37 v=127
801910 On ch=2 n=40 v=127
801918 On ch=10 n=39 v=110
801918 On ch=10 n=40 v=113
801918 On ch=10 n=42 v=49
801918 On ch=10 n=82 v=66
802038 Off ch=10 n=82 v=66
802038 Off ch=10 n=42 v=49
802038 Off ch=10 n=40 v=113
802038 Off ch=10 n=39 v=110
802334 Off ch=3 n=61 v=73
802334 Off ch=3 n=64 v=73
802334 Off ch=3 n=69 v=73
802440 Off ch=2 n=40 v=127
802772 On ch=2 n=42 v=127
802912 On ch=10 n=42 v=79
802912 On ch=3 n=59 v=73
802912 On ch=3 n=63 v=73
802912 On ch=3 n=68 v=73
802912 On ch=10 n=82 v=60
803032 Off ch=10 n=82 v=60
803032 Off ch=10 n=42 v=79
803232 Off ch=2 n=42 v=127
803800 On ch=2 n=40 v=127
803819 On ch=10 n=36 v=105
803819 On ch=10 n=42 v=46
803819 On ch=10 n=82 v=56
803939 Off ch=10 n=82 v=56
803939 Off ch=10 n=42 v=46
803939 Off ch=10 n=36 v=105
804390 Off ch=2 n=40 v=127
804796 On ch=10 n=42 v=74
804796 On ch=10 n=82 v=60
804833 On ch=2 n=37 v=127
804916 Off ch=10 n=82 v=60
804916 Off ch=10 n=42 v=74
805373 Off ch=2 n=37 v=127
805729 On ch=10 n=39 v=110
805729 On ch=10 n=40 v=113
805729 On ch=10 n=42 v=46
805729 On ch=10 n=82 v=64
805812 On ch=2 n=35 v=127
805849 Off ch=10 n=82 v=64
805849 Off ch=10 n=42 v=46
805849 Off ch=10 n=40 v=113
805849 Off ch=10 n=39 v=110
806462 Off ch=2 n=35 v=127
806682 On ch=2 n=37 v=127
806739 On ch=10 n=42 v=79
806739 On ch=10 n=82 v=64
806859 Off ch=10 n=82 v=64
806859 Off ch=10 n=42 v=79
807192 Off ch=2 n=37 v=127
807232 Off ch=3 n=68 v=73
807232 Off ch=3 n=63 v=73
807232 Off ch=3 n=59 v=73
807595 On ch=10 n=36 v=105
807595 On ch=10 n=42 v=42
807595 On ch=3 n=57 v=73
807595 On ch=3 n=61 v=73
807595 On ch=3 n=66 v=73
807595 On ch=10 n=82 v=66
807692 On ch=2 n=42 v=127
807715 Off ch=10 n=82 v=66
807715 Off ch=10 n=42 v=42
807715 Off ch=10 n=36 v=105
808192 Off ch=2 n=42 v=127
808563 On ch=2 n=37 v=127
808679 On ch=10 n=42 v=69
808679 On ch=10 n=82 v=64
808799 Off ch=10 n=82 v=64
808799 Off ch=10 n=42 v=69
809083 Off ch=2 n=37 v=127
809594 On ch=10 n=39 v=110
809594 On ch=10 n=40 v=112
809594 On ch=10 n=42 v=54
809594 On ch=10 n=82 v=62
809609 On ch=2 n=40 v=127
809714 Off ch=10 n=82 v=62
809714 Off ch=10 n=42 v=54
809714 Off ch=10 n=40 v=112
809714 Off ch=10 n=39 v=110
809995 Off ch=3 n=66 v=73
809995 Off ch=3 n=61 v=73
809995 Off ch=3 n=57 v=73
810159 Off ch=2 n=40 v=127
810557 On ch=2 n=42 v=127
810563 On ch=10 n=42 v=74
810563 On ch=3 n=59 v=73
810563 On ch=3 n=63 v=73
810563 On ch=3 n=68 v=73
810563 On ch=10 n=82 v=64
810683 Off ch=10 n=82 v=64
810683 Off ch=10 n=42 v=74
811067 Off ch=2 n=42 v=127
811499 On ch=10 n=36 v=105
811499 On ch=10 n=42 v=57
811499 On ch=10 n=82 v=64
811575 On ch=2 n=40 v=127
811619 Off ch=10 n=82 v=64
811619 Off ch=10 n=42 v=57
811619 Off ch=10 n=36 v=105
812135 Off ch=2 n=40 v=127
812466 On ch=2 n=37 v=127
812478 On ch=10 n=42 v=69
812478 On ch=10 n=82 v=68
812598 Off ch=10 n=82 v=68
812598 Off ch=10 n=42 v=69
812976 Off ch=2 n=37 v=127
813373 On ch=2 n=35 v=127
813470 On ch=10 n=39 v=110
813470 On ch=10 n=40 v=113
813470 On ch=10 n=42 v=57
813470 On ch=10 n=82 v=62
813590 Off ch=10 n=82 v=62
813590 Off ch=10 n=42 v=57
813590 Off ch=10 n=40 v=113
813590 Off ch=10 n=39 v=110
813983 Off ch=2 n=35 v=127
814314 On ch=2 n=37 v=127
814403 Off ch=3 n=68 v=73
814403 Off ch=3 n=59 v=73
814403 Off ch=3 n=63 v=73
814421 On ch=10 n=42 v=79
814421 On ch=10 n=82 v=64
814541 Off ch=10 n=82 v=64
814541 Off ch=10 n=42 v=79
814854 Off ch=2 n=37 v=127
815277 On ch=10 n=36 v=105
815277 On ch=10 n=42 v=54
815277 On ch=3 n=61 v=73
815277 On ch=3 n=64 v=73
815277 On ch=3 n=69 v=73
815277 On ch=10 n=82 v=62
815308 On ch=2 n=42 v=127
815397 Off ch=10 n=82 v=62
815397 Off ch=10 n=42 v=54
815397 Off ch=10 n=36 v=105
815778 Off ch=2 n=42 v=127
816211 On ch=10 n=42 v=69
816211 On ch=10 n=82 v=55
816331 Off ch=10 n=82 v=55
816331 Off ch=10 n=42 v=69
816360 On ch=2 n=37 v=127
816840 Off ch=2 n=37 v=127
817220 On ch=2 n=40 v=127
817269 On ch=10 n=39 v=110
817269 On ch=10 n=40 v=113
817269 On ch=10 n=42 v=49
817269 On ch=10 n=82 v=55
817389 Off ch=10 n=82 v=55
817389 Off ch=10 n=42 v=49
817389 Off ch=10 n=40 v=113
817389 Off ch=10 n=39 v=110
817677 Off ch=3 n=61 v=73
817677 Off ch=3 n=64 v=73
817677 Off ch=3 n=69 v=73
817750 Off ch=2 n=40 v=127
818233 On ch=2 n=42 v=127
818247 On ch=10 n=42 v=79
818247 On ch=3 n=59 v=73
818247 On ch=3 n=63 v=73
818247 On ch=3 n=68 v=73
818247 On ch=10 n=82 v=51
818367 Off ch=10 n=82 v=51
818367 Off ch=10 n=42 v=79
818693 Off ch=2 n=42 v=127
819190 On ch=2 n=40 v=127
819262 On ch=10 n=36 v=105
819262 On ch=10 n=42 v=46
819262 On ch=10 n=82 v=58
819382 Off ch=10 n=82 v=58
819382 Off ch=10 n=42 v=46
819382 Off ch=10 n=36 v=105
819780 Off ch=2 n=40 v=127
820135 On ch=10 n=42 v=74
820135 On ch=10 n=82 v=47
820212 On ch=2 n=37 v=127
820255 Off ch=10 n=82 v=47
820255 Off ch=10 n=42 v=74
820658 On ch=10 n=45 v=97
820752 Off ch=2 n=37 v=127
820778 Off ch=10 n=45 v=97
821073 On ch=2 n=35 v=127
821138 On ch=10 n=39 v=110
821138 On ch=10 n=40 v=113
821138 On ch=10 n=42 v=46
821138 On ch=10 n=43 v=103
821138 On ch=10 n=82 v=62
821258 Off ch=10 n=82 v=62
821258 Off ch=10 n=43 v=103
821258 Off ch=10 n=42 v=46
821258 Off ch=10 n=40 v=113
821258 Off ch=10 n=39 v=110
821723 Off ch=2 n=35 v=127
822025 On ch=10 n=42 v=79
822025 On ch=10 n=82 v=58
822085 On ch=2 n=37 v=127
822087 Off ch=3 n=68 v=73
822087 Off ch=3 n=63 v=73
822087 Off ch=3 n=59 v=73
822145 Off ch=10 n=82 v=58
822145 Off ch=10 n=42 v=79
822595 Off ch=2 n=37 v=127
822951 On ch=10 n=36 v=105
822951 On ch=10 n=42 v=42
822951 On ch=3 n=57 v=73
822951 On ch=3 n=61 v=73
822951 On ch=3 n=66 v=73
822951 On ch=10 n=82 v=56
823037 On ch=2 n=42 v=127
823071 Off ch=10 n=82 v=56
823071 Off ch=10 n=42 v=42
823071 Off ch=10 n=36 v=105
823537 Off ch=2 n=42 v=127
823977 On ch=10 n=42 v=69
823977 On ch=10 n=82 v=46
824012 On ch=2 n=37 v=127
824097 Off ch=10 n=82 v=46
824097 Off ch=10 n=42 v=69
824532 Off ch=2 n=37 v=127
824894 On ch=2 n=40 v=127
824951 On ch=10 n=39 v=110
824951 On ch=10 n=40 v=112
824951 On ch=10 n=42 v=54
824951 On ch=10 n=82 v=64
825071 Off ch=10 n=82 v=64
825071 Off ch=10 n=42 v=54
825071 Off ch=10 n=40 v=112
825071 Off ch=10 n=39 v=110
825351 Off ch=3 n=66 v=73
825351 Off ch=3 n=57 v=73
825351 Off ch=3 n=61 v=73
825444 Off ch=2 n=40 v=127
825904 On ch=10 n=42 v=74
825904 On ch=3 n=59 v=73
825904 On ch=3 n=63 v=73
825904 On ch=3 n=68 v=73
825904 On ch=10 n=82 v=53
825937 On ch=2 n=42 v=127
826024 Off ch=10 n=82 v=53
826024 Off ch=10 n=42 v=74
826447 Off ch=2 n=42 v=127
826863 On ch=10 n=36 v=105
826863 On ch=10 n=42 v=57
826863 On ch=10 n=82 v=62
826882 On ch=2 n=40 v=127
826983 Off ch=10 n=82 v=62
826983 Off ch=10 n=42 v=57
826983 Off ch=10 n=36 v=105
827442 Off ch=2 n=40 v=127
827789 On ch=2 n=37 v=127
827836 On ch=10 n=42 v=69
827836 On ch=10 n=82 v=60
827956 Off ch=10 n=82 v=60
827956 Off ch=10 n=42 v=69
828299 Off ch=2 n=37 v=127
828737 On ch=2 n=35 v=127
828802 On ch=10 n=39 v=110
828802 On ch=10 n=40 v=113
828802 On ch=10 n=42 v=57
828802 On ch=10 n=82 v=68
828922 Off ch=10 n=82 v=68
828922 Off ch=10 n=42 v=57
828922 Off ch=10 n=40 v=113
828922 Off ch=10 n=39 v=110
829347 Off ch=2 n=35 v=127
829692 On ch=10 n=42 v=79
829692 On ch=10 n=82 v=50
829727 On ch=2 n=37 v=127
829744 Off ch=3 n=59 v=73
829744 Off ch=3 n=63 v=73
829744 Off ch=3 n=68 v=73
829812 Off ch=10 n=82 v=50
829812 Off ch=10 n=42 v=79
830267 Off ch=2 n=37 v=127
830601 On ch=2 n=42 v=127
830629 On ch=10 n=36 v=105
830629 On ch=10 n=42 v=54
830629 On ch=3 n=61 v=73
830629 On ch=3 n=64 v=73
830629 On ch=3 n=69 v=73
830629 On ch=10 n=82 v=68
830749 Off ch=10 n=82 v=68
830749 Off ch=10 n=42 v=54
830749 Off ch=10 n=36 v=105
831071 Off ch=2 n=42 v=127
831581 On ch=10 n=42 v=69
831581 On ch=10 n=82 v=58
831610 On ch=2 n=37 v=127
831701 Off ch=10 n=82 v=58
831701 Off ch=10 n=42 v=69
832090 Off ch=2 n=37 v=127
832517 On ch=10 n=39 v=110
832517 On ch=10 n=40 v=113
832517 On ch=10 n=42 v=49
832517 On ch=10 n=82 v=66
832540 On ch=2 n=40 v=127
832637 Off ch=10 n=82 v=66
832637 Off ch=10 n=42 v=49
832637 Off ch=10 n=40 v=113
832637 Off ch=10 n=39 v=110
833029 Off ch=3 n=61 v=73
833029 Off ch=3 n=64 v=73
833029 Off ch=3 n=69 v=73
833070 Off ch=2 n=40 v=127
833493 On ch=2 n=42 v=127
833580 On ch=10 n=42 v=79
833580 On ch=3 n=59 v=73
833580 On ch=3 n=63 v=73
833580 On ch=3 n=68 v=73
833580 On ch=10 n=82 v=60
833700 Off ch=10 n=82 v=60
833700 Off ch=10 n=42 v=79
833953 Off ch=2 n=42 v=127
834478 On ch=10 n=36 v=105
834478 On ch=10 n=42 v=46
834478 On ch=10 n=82 v=56
834514 On ch=2 n=40 v=127
834598 Off ch=10 n=82 v=56
834598 Off ch=10 n=42 v=46
834598 Off ch=10 n=36 v=105
835104 Off ch=2 n=40 v=127
835491 On ch=2 n=37 v=127
835528 On ch=10 n=42 v=74
835528 On ch=10 n=82 v=60
835648 Off ch=10 n=82 v=60
835648 Off ch=10 n=42 v=74
836031 Off ch=2 n=37 v=127
836459 On ch=10 n=39 v=110
836459 On ch=10 n=40 v=113
836459 On ch=10 n=42 v=46
836459 On ch=10 n=82 v=64
836509 On ch=2 n=35 v=127
836579 Off ch=10 n=82 v=64
836579 Off ch=10 n=42 v=46
836579 Off ch=10 n=40 v=113
836579 Off ch=10 n=39 v=110
837159 Off ch=2 n=35 v=127
837400 On ch=10 n=42 v=79
837400 On ch=10 n=82 v=64
837406 On ch=2 n=37 v=127
837520 Off ch=10 n=82 v=64
837520 Off ch=10 n=42 v=79
837900 Off ch=3 n=68 v=73
837900 Off ch=3 n=63 v=73
837900 Off ch=3 n=59 v=73
837916 Off ch=2 n=37 v=127
838271 On ch=2 n=47 v=127
838329 On ch=10 n=36 v=105
838329 On ch=10 n=42 v=42
838329 On ch=3 n=57 v=73
838329 On ch=3 n=62 v=73
838329 On ch=3 n=66 v=73
838329 On ch=10 n=82 v=66
838449 Off ch=10 n=82 v=66
838449 Off ch=10 n=42 v=42
838449 Off ch=10 n=36 v=105
838751 Off ch=2 n=47 v=127
839168 On ch=10 n=42 v=69
839168 On ch=10 n=82 v=64
839288 Off ch=10 n=82 v=64
839288 Off ch=10 n=42 v=69
839303 On ch=2 n=42 v=127
839653 Off ch=2 n=42 v=127
840190 On ch=2 n=45 v=127
840216 On ch=10 n=39 v=110
840216 On ch=10 n=40 v=112
840216 On ch=10 n=42 v=54
840216 On ch=10 n=82 v=62
840336 Off ch=10 n=82 v=62
840336 Off ch=10 n=42 v=54
840336 Off ch=10 n=40 v=112
840336 Off ch=10 n=39 v=110
840710 Off ch=2 n=45 v=127
841155 On ch=2 n=47 v=127
841250 On ch=10 n=42 v=74
841250 On ch=10 n=82 v=64
841370 Off ch=10 n=82 v=64
841370 Off ch=10 n=42 v=74
841855 Off ch=2 n=47 v=127
842105 On ch=10 n=36 v=105
842105 On ch=10 n=42 v=57
842105 On ch=10 n=82 v=64
842225 Off ch=10 n=82 v=64
842225 Off ch=10 n=42 v=57
842225 Off ch=10 n=36 v=105
843159 On ch=2 n=42 v=127
843176 On ch=10 n=42 v=69
843176 On ch=10 n=82 v=68
843296 Off ch=10 n=82 v=68
843296 Off ch=10 n=42 v=69
843719 Off ch=2 n=42 v=127
844083 On ch=2 n=40 v=127
844144 On ch=10 n=39 v=110
844144 On ch=10 n=40 v=113
844144 On ch=10 n=42 v=57
844144 On ch=10 n=82 v=62
844264 Off ch=10 n=82 v=62
844264 Off ch=10 n=42 v=57
844264 Off ch=10 n=40 v=113
844264 Off ch=10 n=39 v=110
844683 Off ch=2 n=40 v=127
845059 On ch=10 n=42 v=79
845059 On ch=10 n=82 v=64
845073 On ch=2 n=42 v=127
845179 Off ch=10 n=82 v=64
845179 Off ch=10 n=42 v=79
845593 Off ch=2 n=42 v=127
845992 On ch=10 n=36 v=105
845992 On ch=10 n=42 v=54
845992 On ch=10 n=82 v=62
846016 On ch=2 n=47 v=127
846112 Off ch=10 n=82 v=62
846112 Off ch=10 n=42 v=54
846112 Off ch=10 n=36 v=105
846506 Off ch=2 n=47 v=127
847005 On ch=2 n=42 v=127
847048 On ch=10 n=42 v=69
847048 On ch=10 n=82 v=55
847168 Off ch=10 n=82 v=55
847168 Off ch=10 n=42 v=69
847505 Off ch=2 n=42 v=127
847910 On ch=10 n=39 v=110
847910 On ch=10 n=40 v=113
847910 On ch=10 n=42 v=49
847910 On ch=10 n=82 v=55
847982 On ch=2 n=45 v=127
848030 Off ch=10 n=82 v=55
848030 Off ch=10 n=42 v=49
848030 Off ch=10 n=40 v=113
848030 Off ch=10 n=39 v=110
848552 Off ch=2 n=45 v=127
848848 On ch=10 n=42 v=79
848848 On ch=10 n=82 v=51
848879 On ch=2 n=47 v=127
848968 Off ch=10 n=82 v=51
848968 Off ch=10 n=42 v=79
849559 Off ch=2 n=47 v=127
849738 On ch=10 n=36 v=105
849738 On ch=10 n=42 v=46
849738 On ch=10 n=82 v=58
849858 Off ch=10 n=82 v=58
849858 Off ch=10 n=42 v=46
849858 Off ch=10 n=36 v=105
850769 On ch=10 n=42 v=74
850769 On ch=10 n=82 v=47
850773 On ch=2 n=42 v=127
850889 Off ch=10 n=82 v=47
850889 Off ch=10 n=42 v=74
851403 Off ch=2 n=42 v=127
851799 On ch=10 n=39 v=110
851799 On ch=10 n=40 v=113
851799 On ch=10 n=42 v=46
851799 On ch=10 n=82 v=62
851840 On ch=2 n=40 v=127
851919 Off ch=10 n=82 v=62
851919 Off ch=10 n=42 v=46
851919 Off ch=10 n=40 v=113
851919 Off ch=10 n=39 v=110
852440 Off ch=2 n=40 v=127
852766 On ch=10 n=42 v=79
852766 On ch=10 n=82 v=58
852816 On ch=2 n=37 v=127
852886 Off ch=10 n=82 v=58
852886 Off ch=10 n=42 v=79
853446 Off ch=2 n=37 v=127
853489 Off ch=3 n=66 v=73
853529 Off ch=3 n=57 v=73
853529 Off ch=3 n=62 v=73
853656 On ch=2 n=42 v=127
853759 On ch=10 n=36 v=105
853759 On ch=10 n=42 v=42
853759 On ch=3 n=57 v=96
853759 On ch=3 n=61 v=96
853759 On ch=3 n=66 v=96
853759 On ch=10 n=82 v=56
853879 Off ch=10 n=82 v=56
853879 Off ch=10 n=42 v=42
853879 Off ch=10 n=36 v=105
854156 Off ch=2 n=42 v=127
854279 Off ch=3 n=57 v=96
854309 Off ch=3 n=61 v=96
854309 Off ch=3 n=66 v=96
854680 On ch=10 n=42 v=69
854680 On ch=10 n=82 v=46
854721 On ch=2 n=37 v=127
854800 Off ch=10 n=82 v=46
854800 Off ch=10 n=42 v=69
855241 Off ch=2 n=37 v=127
855597 On ch=2 n=40 v=127
855711 On ch=10 n=39 v=110
855711 On ch=10 n=40 v=112
855711 On ch=10 n=42 v=54
855711 On ch=10 n=82 v=64
855831 Off ch=10 n=82 v=64
855831 Off ch=10 n=42 v=54
855831 Off ch=10 n=40 v=112
855831 Off ch=10 n=39 v=110
856147 Off ch=2 n=40 v=127
856591 On ch=10 n=42 v=74
856591 On ch=10 n=82 v=53
856591 On ch=3 n=59 v=96
856591 On ch=3 n=63 v=96
856591 On ch=3 n=68 v=96
856620 On ch=2 n=42 v=127
856711 Off ch=10 n=82 v=53
856711 Off ch=10 n=42 v=74
857071 Off ch=3 n=68 v=96
857071 Off ch=3 n=63 v=96
857071 Off ch=3 n=59 v=96
857130 Off ch=2 n=42 v=127
857588 On ch=10 n=36 v=105
857588 On ch=10 n=42 v=57
857588 On ch=10 n=82 v=62
857611 On ch=2 n=40 v=127
857708 Off ch=10 n=82 v=62
857708 Off ch=10 n=42 v=57
857708 Off ch=10 n=36 v=105
858171 Off ch=2 n=40 v=127
858455 On ch=2 n=37 v=127
858522 On ch=10 n=42 v=69
858522 On ch=10 n=82 v=60
858642 Off ch=10 n=82 v=60
858642 Off ch=10 n=42 v=69
858965 Off ch=2 n=37 v=127
859480 On ch=10 n=39 v=110
859480 On ch=10 n=40 v=113
859480 On ch=10 n=42 v=57
859480 On ch=10 n=82 v=68
859484 On ch=2 n=35 v=127
859600 Off ch=10 n=82 v=68
859600 Off ch=10 n=42 v=57
859600 Off ch=10 n=40 v=113
859600 Off ch=10 n=39 v=110
860094 Off ch=2 n=35 v=127
860413 On ch=2 n=37 v=127
860423 On ch=10 n=42 v=79
860423 On ch=10 n=82 v=50
860543 Off ch=10 n=82 v=50
860543 Off ch=10 n=42 v=79
860953 Off ch=2 n=37 v=127
861378 On ch=2 n=42 v=127
861454 On ch=10 n=36 v=105
861454 On ch=10 n=42 v=54
861454 On ch=3 n=61 v=96
861454 On ch=3 n=64 v=96
861454 On ch=3 n=69 v=96
861454 On ch=10 n=82 v=68
861574 Off ch=10 n=82 v=68
861574 Off ch=10 n=42 v=54
861574 Off ch=10 n=36 v=105
861848 Off ch=2 n=42 v=127
861934 Off ch=3 n=69 v=96
861934 Off ch=3 n=64 v=96
861934 Off ch=3 n=61 v=96
862350 On ch=10 n=42 v=69
862350 On ch=10 n=82 v=58
862384 On ch=2 n=37 v=127
862470 Off ch=10 n=82 v=58
862470 Off ch=10 n=42 v=69
862864 Off ch=2 n=37 v=127
863280 On ch=2 n=40 v=127
863350 On ch=10 n=39 v=110
863350 On ch=10 n=40 v=113
863350 On ch=10 n=42 v=49
863350 On ch=10 n=82 v=66
863470 Off ch=10 n=82 v=66
863470 Off ch=10 n=42 v=49
863470 Off ch=10 n=40 v=113
863470 Off ch=10 n=39 v=110
863810 Off ch=2 n=40 v=127
864216 On ch=10 n=42 v=79
864216 On ch=3 n=59 v=96
864216 On ch=3 n=63 v=96
864216 On ch=3 n=68 v=96
864216 On ch=10 n=82 v=60
864267 On ch=2 n=42 v=127
864336 Off ch=10 n=82 v=60
864336 Off ch=10 n=42 v=79
864696 Off ch=3 n=68 v=96
864696 Off ch=3 n=63 v=96
864696 Off ch=3 n=59 v=96
864727 Off ch=2 n=42 v=127
865261 On ch=10 n=36 v=105
865261 On ch=10 n=42 v=46
865261 On ch=10 n=82 v=56
865268 On ch=2 n=40 v=127
865381 Off ch=10 n=82 v=56
865381 Off ch=10 n=42 v=46
865381 Off ch=10 n=36 v=105
865858 Off ch=2 n=40 v=127
866227 On ch=10 n=42 v=74
866227 On ch=10 n=82 v=60
866228 On ch=2 n=37 v=127
866347 Off ch=10 n=82 v=60
866347 Off ch=10 n=42 v=74
866657 On ch=10 n=45 v=97
866768 Off ch=2 n=37 v=127
866777 Off ch=10 n=45 v=97
867137 On ch=10 n=39 v=110
867137 On ch=10 n=40 v=113
867137 On ch=10 n=42 v=46
867137 On ch=10 n=43 v=103
867137 On ch=10 n=82 v=64
867162 On ch=2 n=35 v=127
867257 Off ch=10 n=82 v=64
867257 Off ch=10 n=43 v=103
867257 Off ch=10 n=42 v=46
867257 Off ch=10 n=40 v=113
867257 Off ch=10 n=39 v=110
867812 Off ch=2 n=35 v=127
868108 On ch=2 n=37 v=127
868183 On ch=10 n=46 v=99
868183 On ch=10 n=82 v=64
868303 Off ch=10 n=82 v=64
868303 Off ch=10 n=46 v=99
868618 Off ch=2 n=37 v=127
869048 On ch=10 n=36 v=105
869048 On ch=10 n=42 v=42
869048 On ch=3 n=57 v=73
869048 On ch=3 n=61 v=73
869048 On ch=3 n=66 v=73
869048 On ch=10 n=82 v=66
869079 On ch=2 n=42 v=127
869168 Off ch=10 n=82 v=66
869168 Off ch=10 n=42 v=42
869168 Off ch=10 n=36 v=105
869579 Off ch=2 n=42 v=127
869945 On ch=2 n=37 v=127
870006 On ch=10 n=42 v=69
870006 On ch=10 n=82 v=64
870126 Off ch=10 n=82 v=64
870126 Off ch=10 n=42 v=69
870465 Off ch=2 n=37 v=127
870977 On ch=2 n=40 v=127
870993 On ch=10 n=39 v=110
870993 On ch=10 n=40 v=112
870993 On ch=10 n=42 v=54
870993 On ch=10 n=82 v=62
871113 Off ch=10 n=82 v=62
871113 Off ch=10 n=42 v=54
871113 Off ch=10 n=40 v=112
871113 Off ch=10 n=39 v=110
871448 Off ch=3 n=66 v=73
871448 Off ch=3 n=61 v=73
871448 Off ch=3 n=57 v=73
871527 Off ch=2 n=40 v=127
871921 On ch=2 n=42 v=127
872011 On ch=10 n=42 v=74
872011 On ch=3 n=59 v=73
872011 On ch=3 n=63 v=73
872011 On ch=3 n=68 v=73
872011 On ch=10 n=82 v=64
872131 Off ch=10 n=82 v=64
872131 Off ch=10 n=42 v=74
872431 Off ch=2 n=42 v=127
872914 On ch=2 n=40 v=127
872926 On ch=10 n=36 v=105
872926 On ch=10 n=42 v=57
872926 On ch=10 n=82 v=64
873046 Off ch=10 n=82 v=64
873046 Off ch=10 n=42 v=57
873046 Off ch=10 n=36 v=105
873474 Off ch=2 n=40 v=127
873843 On ch=10 n=42 v=69
873843 On ch=10 n=82 v=68
873945 On ch=2 n=37 v=127
873963 Off ch=10 n=82 v=68
873963 Off ch=10 n=42 v=69
874455 Off ch=2 n=37 v=127
874742 On ch=10 n=39 v=110
874742 On ch=10 n=40 v=113
874742 On ch=10 n=42 v=57
874742 On ch=10 n=82 v=62
874804 On ch=2 n=35 v=127
874862 Off ch=10 n=82 v=62
874862 Off ch=10 n=42 v=57
874862 Off ch=10 n=40 v=113
874862 Off ch=10 n=39 v=110
875414 Off ch=2 n=35 v=127
875763 On ch=2 n=37 v=127
875776 On ch=10 n=42 v=79
875776 On ch=10 n=82 v=64
875851 Off ch=3 n=68 v=73
875851 Off ch=3 n=59 v=73
875851 Off ch=3 n=63 v=73
875896 Off ch=10 n=82 v=64
875896 Off ch=10 n=42 v=79
876303 Off ch=2 n=37 v=127
876767 On ch=2 n=42 v=127
876784 On ch=10 n=36 v=105
876784 On ch=10 n=42 v=54
876784 On ch=3 n=61 v=73
876784 On ch=3 n=64 v=73
876784 On ch=3 n=69 v=73
876784 On ch=10 n=82 v=62
876904 Off ch=10 n=82 v=62
876904 Off ch=10 n=42 v=54
876904 Off ch=10 n=36 v=105
877237 Off ch=2 n=42 v=127
877640 On ch=10 n=42 v=69
877640 On ch=10 n=82 v=55
877760 On ch=2 n=37 v=127
877760 Off ch=10 n=82 v=55
877760 Off ch=10 n=42 v=69
878240 Off ch=2 n=37 v=127
878689 On ch=10 n=39 v=110
878689 On ch=10 n=40 v=113
878689 On ch=10 n=42 v=49
878689 On ch=10 n=82 v=55
878722 On ch=2 n=40 v=127
878809 Off ch=10 n=82 v=55
878809 Off ch=10 n=42 v=49
878809 Off ch=10 n=40 v=113
878809 Off ch=10 n=39 v=110
879184 Off ch=3 n=61 v=73
879184 Off ch=3 n=64 v=73
879184 Off ch=3 n=69 v=73
879252 Off ch=2 n=40 v=127
879667 On ch=10 n=42 v=79
879667 On ch=3 n=59 v=73
879667 On ch=3 n=63 v=73
879667 On ch=3 n=68 v=73
879667 On ch=10 n=82 v=51
879708 On ch=2 n=42 v=127
879787 Off ch=10 n=82 v=51
879787 Off ch=10 n=42 v=79
880168 Off ch=2 n=42 v=127
880606 On ch=2 n=40 v=127
880624 On ch=10 n=36 v=105
880624 On ch=10 n=42 v=46
880624 On ch=10 n=82 v=58
880744 Off ch=10 n=82 v=58
880744 Off ch=10 n=42 v=46
880744 Off ch=10 n=36 v=105
881196 Off ch=2 n=40 v=127
881610 On ch=10 n=42 v=74
881610 On ch=10 n=82 v=47
881671 On ch=2 n=37 v=127
881730 Off ch=10 n=82 v=47
881730 Off ch=10 n=42 v=74
882118 On ch=10 n=45 v=97
882211 Off ch=2 n=37 v=127
882238 Off ch=10 n=45 v=97
882520 On ch=2 n=35 v=127
882598 On ch=10 n=39 v=110
882598 On ch=10 n=40 v=113
882598 On ch=10 n=42 v=46
882598 On ch=10 n=43 v=103
882598 On ch=10 n=82 v=62
882718 Off ch=10 n=82 v=62
882718 Off ch=10 n=43 v=103
882718 Off ch=10 n=42 v=46
882718 Off ch=10 n=40 v=113
882718 Off ch=10 n=39 v=110
883170 Off ch=2 n=35 v=127
883497 On ch=10 n=42 v=79
883497 On ch=10 n=82 v=58
883507 Off ch=3 n=68 v=73
883507 Off ch=3 n=63 v=73
883507 Off ch=3 n=59 v=73
883519 On ch=2 n=37 v=127
883617 Off ch=10 n=82 v=58
883617 Off ch=10 n=42 v=79
884029 Off ch=2 n=37 v=127
884445 On ch=10 n=36 v=105
884445 On ch=10 n=42 v=42
884445 On ch=3 n=57 v=73
884445 On ch=3 n=61 v=73
884445 On ch=3 n=66 v=73
884445 On ch=10 n=82 v=56
884456 On ch=2 n=42 v=127
884565 Off ch=10 n=82 v=56
884565 Off ch=10 n=42 v=42
884565 Off ch=10 n=36 v=105
884956 Off ch=2 n=42 v=127
885380 On ch=10 n=42 v=69
885380 On ch=10 n=82 v=46
885414 On ch=2 n=37 v=127
885500 Off ch=10 n=82 v=46
885500 Off ch=10 n=42 v=69
885934 Off ch=2 n=37 v=127
886426 On ch=10 n=39 v=110
886426 On ch=10 n=40 v=112
886426 On ch=10 n=42 v=54
886426 On ch=10 n=82 v=64
886436 On ch=2 n=40 v=127
886546 Off ch=10 n=82 v=64
886546 Off ch=10 n=42 v=54
886546 Off ch=10 n=40 v=112
886546 Off ch=10 n=39 v=110
886845 Off ch=3 n=66 v=73
886845 Off ch=3 n=57 v=73
886845 Off ch=3 n=61 v=73
886986 Off ch=2 n=40 v=127
887315 On ch=2 n=42 v=127
887380 On ch=10 n=42 v=74
887380 On ch=3 n=59 v=73
887380 On ch=3 n=63 v=73
887380 On ch=3 n=68 v=73
887380 On ch=10 n=82 v=53
887500 Off ch=10 n=82 v=53
887500 Off ch=10 n=42 v=74
887825 Off ch=2 n=42 v=127
888270 On ch=2 n=40 v=127
888304 On ch=10 n=36 v=105
888304 On ch=10 n=42 v=57
888304 On ch=10 n=82 v=62
888424 Off ch=10 n=82 v=62
888424 Off ch=10 n=42 v=57
888424 Off ch=10 n=36 v=105
888830 Off ch=2 n=40 v=127
889256 On ch=10 n=42 v=69
889256 On ch=10 n=82 v=60
889290 On ch=2 n=37 v=127
889376 Off ch=10 n=82 v=60
889376 Off ch=10 n=42 v=69
889800 Off ch=2 n=37 v=127
890208 On ch=2 n=35 v=127
890222 On ch=10 n=39 v=110
890222 On ch=10 n=40 v=113
890222 On ch=10 n=42 v=57
890222 On ch=10 n=82 v=68
890342 Off ch=10 n=82 v=68
890342 Off ch=10 n=42 v=57
890342 Off ch=10 n=40 v=113
890342 Off ch=10 n=39 v=110
890818 Off ch=2 n=35 v=127
891220 Off ch=3 n=59 v=73
891220 Off ch=3 n=63 v=73
891220 Off ch=3 n=68 v=73
891234 On ch=2 n=37 v=127
891299 On ch=10 n=42 v=79
891299 On ch=10 n=82 v=50
891419 Off ch=10 n=82 v=50
891419 Off ch=10 n=42 v=79
891774 Off ch=2 n=37 v=127
892192 On ch=10 n=36 v=105
892192 On ch=10 n=42 v=54
892192 On ch=3 n=61 v=73
892192 On ch=3 n=64 v=73
892192 On ch=3 n=69 v=73
892192 On ch=10 n=82 v=68
892226 On ch=2 n=42 v=127
892312 Off ch=10 n=82 v=68
892312 Off ch=10 n=42 v=54
892312 Off ch=10 n=36 v=105
892696 Off ch=2 n=42 v=127
893107 On ch=2 n=37 v=127
893178 On ch=10 n=42 v=69
893178 On ch=10 n=82 v=58
893298 Off ch=10 n=82 v=58
893298 Off ch=10 n=42 v=69
893587 Off ch=2 n=37 v=127
894095 On ch=10 n=39 v=110
894095 On ch=10 n=40 v=113
894095 On ch=10 n=42 v=49
894095 On ch=10 n=82 v=66
894110 Par ch=11 c=0 v=8
894132 On ch=2 n=40 v=127
894215 Off ch=10 n=82 v=66
894215 Off ch=10 n=42 v=49
894215 Off ch=10 n=40 v=113
894215 Off ch=10 n=39 v=110
894590 PrCh ch=11 p=28 
894592 Off ch=3 n=61 v=73
894592 Off ch=3 n=64 v=73
894592 Off ch=3 n=69 v=73
894662 Off ch=2 n=40 v=127
895058 On ch=10 n=42 v=79
895058 On ch=3 n=59 v=73
895058 On ch=3 n=63 v=73
895058 On ch=3 n=68 v=73
895058 On ch=10 n=82 v=60
895080 On ch=2 n=42 v=127
895110 Par ch=11 c=7 v=70
895178 Off ch=10 n=82 v=60
895178 Off ch=10 n=42 v=79
895540 Off ch=2 n=42 v=127
895550 Par ch=11 c=91 v=100
896018 On ch=10 n=36 v=105
896018 On ch=10 n=42 v=46
896018 On ch=10 n=82 v=56
896070 On ch=2 n=40 v=127
896110 Par ch=11 c=93 v=60
896138 Off ch=10 n=82 v=56
896138 Off ch=10 n=42 v=46
896138 Off ch=10 n=36 v=105
896510 Par ch=11 c=10 v=39
896660 Off ch=2 n=40 v=127
896947 On ch=2 n=37 v=127
897004 On ch=10 n=42 v=74
897004 On ch=10 n=82 v=60
897124 Off ch=10 n=82 v=60
897124 Off ch=10 n=42 v=74
897487 Off ch=2 n=37 v=127
897883 On ch=10 n=39 v=110
897883 On ch=10 n=40 v=113
897883 On ch=10 n=42 v=46
897883 On ch=10 n=82 v=64
897888 On ch=2 n=35 v=127
898003 Off ch=10 n=82 v=64
898003 Off ch=10 n=42 v=46
898003 Off ch=10 n=40 v=113
898003 Off ch=10 n=39 v=110
898538 Off ch=2 n=35 v=127
898864 On ch=2 n=37 v=127
898914 On ch=10 n=46 v=99
898914 On ch=10 n=82 v=64
899034 Off ch=10 n=82 v=64
899034 Off ch=10 n=46 v=99
899374 Off ch=2 n=37 v=127
899378 Off ch=3 n=68 v=73
899378 Off ch=3 n=63 v=73
899378 Off ch=3 n=59 v=73
899859 On ch=10 n=36 v=105
899859 On ch=10 n=42 v=42
899859 On ch=3 n=57 v=73
899859 On ch=3 n=62 v=73
899859 On ch=3 n=66 v=73
899859 On ch=10 n=82 v=66
899916 On ch=2 n=47 v=127
899979 Off ch=10 n=82 v=66
899979 Off ch=10 n=42 v=42
899979 Off ch=10 n=36 v=105
900396 Off ch=2 n=47 v=127
900805 On ch=11 n=60 v=127
900837 On ch=2 n=42 v=127
900841 On ch=10 n=42 v=69
900841 On ch=10 n=82 v=64
900900 Pb ch=11 v=11168 
900961 Off ch=10 n=82 v=64
900961 Off ch=10 n=42 v=69
900990 Pb ch=11 v=12096 
901040 Pb ch=11 v=12288 
901187 Off ch=2 n=42 v=127
901190 Pb ch=11 v=8192 
901225 Off ch=11 n=60 v=127
901355 On ch=11 n=59 v=127
901745 Off ch=11 n=59 v=127
901755 On ch=10 n=39 v=110
901755 On ch=10 n=40 v=112
901755 On ch=10 n=42 v=54
901755 On ch=10 n=82 v=62
901834 On ch=2 n=45 v=127
901875 Off ch=10 n=82 v=62
901875 Off ch=10 n=42 v=54
901875 Off ch=10 n=40 v=112
901875 Off ch=10 n=39 v=110
902299 On ch=11 n=57 v=127
902309 Off ch=11 n=57 v=127
902354 Off ch=2 n=45 v=127
902716 On ch=2 n=47 v=127
902739 On ch=10 n=42 v=74
902739 On ch=10 n=82 v=64
902859 Off ch=10 n=82 v=64
902859 Off ch=10 n=42 v=74
902895 On ch=11 n=59 v=127
903175 Off ch=11 n=59 v=127
903405 On ch=11 n=54 v=88
903415 Off ch=11 n=54 v=88
903416 Off ch=2 n=47 v=127
903785 On ch=10 n=36 v=105
903785 On ch=10 n=42 v=57
903785 On ch=10 n=82 v=64
903812 On ch=11 n=57 v=127
903905 Off ch=10 n=82 v=64
903905 Off ch=10 n=42 v=57
903905 Off ch=10 n=36 v=105
904665 On ch=2 n=42 v=127
904682 On ch=10 n=42 v=69
904682 On ch=10 n=82 v=68
904802 Off ch=10 n=82 v=68
904802 Off ch=10 n=42 v=69
904962 Off ch=11 n=57 v=127
905131 On ch=11 n=59 v=127
905225 Off ch=2 n=42 v=127
905451 Off ch=11 n=59 v=127
905601 On ch=10 n=39 v=110
905601 On ch=10 n=40 v=113
905601 On ch=10 n=42 v=57
905601 On ch=10 n=82 v=62
905690 On ch=2 n=40 v=127
905721 Off ch=10 n=82 v=62
905721 Off ch=10 n=42 v=57
905721 Off ch=10 n=40 v=113
905721 Off ch=10 n=39 v=110
906290 Off ch=2 n=40 v=127
906548 On ch=2 n=42 v=127
906606 On ch=10 n=42 v=79
906606 On ch=10 n=82 v=64
906726 Off ch=10 n=82 v=64
906726 Off ch=10 n=42 v=79
907068 Off ch=2 n=42 v=127
907471 On ch=10 n=36 v=105
907471 On ch=10 n=42 v=54
907471 On ch=10 n=82 v=62
907576 On ch=2 n=47 v=127
907591 Off ch=10 n=82 v=62
907591 Off ch=10 n=42 v=54
907591 Off ch=10 n=36 v=105
908066 Off ch=2 n=47 v=127
908456 On ch=11 n=60 v=127
908496 On ch=10 n=42 v=69
908496 On ch=10 n=82 v=55
908500 Pb ch=11 v=8032 
908507 On ch=2 n=42 v=127
908610 Pb ch=11 v=11872 
908616 Off ch=10 n=82 v=55
908616 Off ch=10 n=42 v=69
908660 Pb ch=11 v=12096 
908750 Pb ch=11 v=12416 
908800 Pb ch=11 v=8192 
908856 Off ch=11 n=60 v=127
909007 Off ch=2 n=42 v=127
909028 On ch=11 n=59 v=127
909462 On ch=2 n=45 v=127
909528 On ch=10 n=39 v=110
909528 On ch=10 n=40 v=113
909528 On ch=10 n=42 v=49
909528 On ch=10 n=82 v=55
909608 Off ch=11 n=59 v=127
909648 Off ch=10 n=82 v=55
909648 Off ch=10 n=42 v=49
909648 Off ch=10 n=40 v=113
909648 Off ch=10 n=39 v=110
910022 On ch=11 n=57 v=127
910032 Off ch=11 n=57 v=127
910032 Off ch=2 n=45 v=127
910422 On ch=10 n=42 v=79
910422 On ch=11 n=59 v=127
910422 On ch=10 n=82 v=51
910508 On ch=2 n=47 v=127
910542 Off ch=10 n=82 v=51
910542 Off ch=10 n=42 v=79
910702 Off ch=11 n=59 v=127
910996 On ch=11 n=54 v=88
911006 Off ch=11 n=54 v=88
911188 Off ch=2 n=47 v=127
911356 On ch=10 n=36 v=105
911356 On ch=10 n=42 v=46
911356 On ch=10 n=82 v=58
911453 On ch=11 n=57 v=127
911476 Off ch=10 n=82 v=58
911476 Off ch=10 n=42 v=46
911476 Off ch=10 n=36 v=105
912320 On ch=2 n=42 v=127
912373 On ch=10 n=42 v=74
912373 On ch=10 n=82 v=47
912493 Off ch=10 n=82 v=47
912493 Off ch=10 n=42 v=74
912603 Off ch=11 n=57 v=127
912804 On ch=11 n=54 v=127
912950 Off ch=2 n=42 v=127
913134 Off ch=11 n=54 v=127
913237 On ch=2 n=40 v=127
913264 On ch=10 n=39 v=110
913264 On ch=10 n=40 v=113
913264 On ch=10 n=42 v=46
913264 On ch=10 n=82 v=62
913384 Off ch=10 n=82 v=62
913384 Off ch=10 n=42 v=46
913384 Off ch=10 n=40 v=113
913384 Off ch=10 n=39 v=110
913837 Off ch=2 n=40 v=127
914189 On ch=10 n=42 v=79
914189 On ch=10 n=82 v=58
914270 On ch=2 n=37 v=127
914309 Off ch=10 n=82 v=58
914309 Off ch=10 n=42 v=79
914859 Off ch=3 n=57 v=73
914899 Off ch=3 n=66 v=73
914900 Off ch=2 n=37 v=127
914979 Off ch=3 n=62 v=73
915140 On ch=2 n=42 v=127
915270 On ch=10 n=36 v=105
915270 On ch=10 n=42 v=42
915270 On ch=3 n=57 v=96
915270 On ch=3 n=61 v=96
915270 On ch=3 n=66 v=96
915270 On ch=10 n=82 v=56
915390 Off ch=10 n=82 v=56
915390 Off ch=10 n=42 v=42
915390 Off ch=10 n=36 v=105
915640 Off ch=2 n=42 v=127
915750 Off ch=3 n=61 v=96
915750 Off ch=3 n=66 v=96
915750 Off ch=3 n=57 v=96
916106 On ch=10 n=42 v=69
916106 On ch=10 n=82 v=46
916214 On ch=2 n=37 v=127
916226 Off ch=10 n=82 v=46
916226 Off ch=10 n=42 v=69
916734 Off ch=2 n=37 v=127
917107 On ch=2 n=40 v=127
917110 On ch=10 n=39 v=110
917110 On ch=10 n=40 v=112
917110 On ch=10 n=42 v=54
917110 On ch=10 n=82 v=64
917230 Off ch=10 n=82 v=64
917230 Off ch=10 n=42 v=54
917230 Off ch=10 n=40 v=112
917230 Off ch=10 n=39 v=110
917657 Off ch=2 n=40 v=127
918038 On ch=2 n=42 v=127
918072 On ch=10 n=42 v=74
918072 On ch=10 n=82 v=53
918072 On ch=3 n=59 v=96
918072 On ch=3 n=63 v=96
918072 On ch=3 n=68 v=96
918192 Off ch=10 n=82 v=53
918192 Off ch=10 n=42 v=74
918548 Off ch=2 n=42 v=127
918552 Off ch=3 n=63 v=96
918552 Off ch=3 n=68 v=96
918552 Off ch=3 n=59 v=96
919027 On ch=10 n=36 v=105
919027 On ch=10 n=42 v=57
919027 On ch=10 n=82 v=62
919043 On ch=2 n=40 v=127
919147 Off ch=10 n=82 v=62
919147 Off ch=10 n=42 v=57
919147 Off ch=10 n=36 v=105
919603 Off ch=2 n=40 v=127
919928 On ch=2 n=37 v=127
920030 On ch=10 n=42 v=69
920030 On ch=10 n=82 v=60
920150 Off ch=10 n=82 v=60
920150 Off ch=10 n=42 v=69
920438 Off ch=2 n=37 v=127
920936 On ch=2 n=35 v=127
920951 On ch=10 n=39 v=110
920951 On ch=10 n=40 v=113
920951 On ch=10 n=42 v=57
920951 On ch=10 n=82 v=68
921071 Off ch=10 n=82 v=68
921071 Off ch=10 n=42 v=57
921071 Off ch=10 n=40 v=113
921071 Off ch=10 n=39 v=110
921546 Off ch=2 n=35 v=127
921851 On ch=2 n=37 v=127
921895 On ch=10 n=42 v=79
921895 On ch=10 n=82 v=50
922015 Off ch=10 n=82 v=50
922015 Off ch=10 n=42 v=79
922391 Off ch=2 n=37 v=127
922825 On ch=10 n=36 v=105
922825 On ch=10 n=42 v=54
922825 On ch=3 n=61 v=96
922825 On ch=3 n=64 v=96
922825 On ch=3 n=69 v=96
922825 On ch=10 n=82 v=68
922888 On ch=2 n=42 v=127
922945 Off ch=10 n=82 v=68
922945 Off ch=10 n=42 v=54
922945 Off ch=10 n=36 v=105
923305 Off ch=3 n=69 v=96
923305 Off ch=3 n=64 v=96
923305 Off ch=3 n=61 v=96
923358 Off ch=2 n=42 v=127
923734 On ch=10 n=42 v=69
923734 On ch=10 n=82 v=58
923854 Off ch=10 n=82 v=58
923854 Off ch=10 n=42 v=69
923898 On ch=2 n=37 v=127
924378 Off ch=2 n=37 v=127
924789 On ch=2 n=40 v=127
924794 On ch=10 n=39 v=110
924794 On ch=10 n=40 v=113
924794 On ch=10 n=42 v=49
924794 On ch=10 n=82 v=66
924914 Off ch=10 n=82 v=66
924914 Off ch=10 n=42 v=49
924914 Off ch=10 n=40 v=113
924914 Off ch=10 n=39 v=110
925319 Off ch=2 n=40 v=127
925718 On ch=10 n=42 v=79
925718 On ch=3 n=59 v=96
925718 On ch=3 n=63 v=96
925718 On ch=3 n=68 v=96
925718 On ch=10 n=82 v=60
925786 On ch=2 n=42 v=127
925838 Off ch=10 n=82 v=60
925838 Off ch=10 n=42 v=79
926198 Off ch=3 n=68 v=96
926198 Off ch=3 n=63 v=96
926198 Off ch=3 n=59 v=96
926246 Off ch=2 n=42 v=127
926671 On ch=2 n=40 v=127
926748 On ch=10 n=36 v=105
926748 On ch=10 n=42 v=46
926748 On ch=10 n=82 v=56
926868 Off ch=10 n=82 v=56
926868 Off ch=10 n=42 v=46
926868 Off ch=10 n=36 v=105
927261 Off ch=2 n=40 v=127
927635 On ch=2 n=37 v=127
927738 On ch=10 n=42 v=74
927738 On ch=10 n=82 v=60
927858 Off ch=10 n=82 v=60
927858 Off ch=10 n=42 v=74
928175 Off ch=2 n=37 v=127
928629 On ch=10 n=39 v=110
928629 On ch=10 n=40 v=113
928629 On ch=10 n=42 v=46
928629 On ch=10 n=82 v=64
928659 On ch=2 n=35 v=127
928749 Off ch=10 n=82 v=64
928749 Off ch=10 n=42 v=46
928749 Off ch=10 n=40 v=113
928749 Off ch=10 n=39 v=110
929309 Off ch=2 n=35 v=127
929611 On ch=2 n=37 v=127
929662 On ch=10 n=46 v=99
929662 On ch=10 n=82 v=64
929782 Off ch=10 n=82 v=64
929782 Off ch=10 n=46 v=99
930121 Off ch=2 n=37 v=127
930545 On ch=2 n=47 v=127
930609 On ch=10 n=36 v=105
930609 On ch=10 n=42 v=42
930609 On ch=3 n=57 v=73
930609 On ch=3 n=62 v=73
930609 On ch=3 n=66 v=73
930609 On ch=10 n=82 v=66
930729 Off ch=10 n=82 v=66
930729 Off ch=10 n=42 v=42
930729 Off ch=10 n=36 v=105
931025 Off ch=2 n=47 v=127
931500 On ch=10 n=42 v=69
931500 On ch=10 n=82 v=64
931508 On ch=11 n=60 v=127
931558 On ch=2 n=42 v=127
931620 Off ch=10 n=82 v=64
931620 Off ch=10 n=42 v=69
931620 Pb ch=11 v=11168 
931710 Pb ch=11 v=12096 
931840 Pb ch=11 v=12416 
931908 Off ch=2 n=42 v=127
931920 Pb ch=11 v=8192 
931928 Off ch=11 n=60 v=127
932058 On ch=11 n=59 v=127
932448 Off ch=11 n=59 v=127
932456 On ch=2 n=45 v=127
932458 On ch=10 n=39 v=110
932458 On ch=10 n=40 v=112
932458 On ch=10 n=42 v=54
932458 On ch=10 n=82 v=62
932578 Off ch=10 n=82 v=62
932578 Off ch=10 n=42 v=54
932578 Off ch=10 n=40 v=112
932578 Off ch=10 n=39 v=110
932976 Off ch=2 n=45 v=127
932984 On ch=11 n=57 v=127
932994 Off ch=11 n=57 v=127
933424 On ch=10 n=42 v=74
933424 On ch=10 n=82 v=64
933430 On ch=2 n=47 v=127
933456 On ch=11 n=59 v=127
933544 Off ch=10 n=82 v=64
933544 Off ch=10 n=42 v=74
933736 Off ch=11 n=59 v=127
933966 On ch=11 n=54 v=88
933976 Off ch=11 n=54 v=88
934130 Off ch=2 n=47 v=127
934346 On ch=10 n=36 v=105
934346 On ch=10 n=42 v=57
934346 On ch=10 n=82 v=64
934442 On ch=11 n=57 v=127
934466 Off ch=10 n=82 v=64
934466 Off ch=10 n=42 v=57
934466 Off ch=10 n=36 v=105
935312 On ch=10 n=42 v=69
935312 On ch=10 n=82 v=68
935327 On ch=2 n=42 v=127
935432 Off ch=10 n=82 v=68
935432 Off ch=10 n=42 v=69
935592 Off ch=11 n=57 v=127
935697 On ch=11 n=59 v=127
935887 Off ch=2 n=42 v=127
936017 Off ch=11 n=59 v=127
936167 On ch=10 n=39 v=110
936167 On ch=10 n=40 v=113
936167 On ch=10 n=42 v=57
936167 On ch=10 n=82 v=62
936192 On ch=2 n=40 v=127
936287 Off ch=10 n=82 v=62
936287 Off ch=10 n=42 v=57
936287 Off ch=10 n=40 v=113
936287 Off ch=10 n=39 v=110
936792 Off ch=2 n=40 v=127
937203 On ch=2 n=42 v=127
937245 On ch=10 n=42 v=79
937245 On ch=10 n=82 v=64
937365 Off ch=10 n=82 v=64
937365 Off ch=10 n=42 v=79
937723 Off ch=2 n=42 v=127
938203 On ch=2 n=47 v=127
938204 On ch=10 n=36 v=105
938204 On ch=10 n=42 v=54
938204 On ch=10 n=82 v=62
938324 Off ch=10 n=82 v=62
938324 Off ch=10 n=42 v=54
938324 Off ch=10 n=36 v=105
938693 Off ch=2 n=47 v=127
939110 Pb ch=11 v=8192 
939148 On ch=2 n=42 v=127
939180 Pb ch=11 v=8032 
939216 On ch=11 n=60 v=127
939256 On ch=10 n=42 v=69
939256 On ch=10 n=82 v=55
939330 Pb ch=11 v=11872 
939376 Off ch=10 n=82 v=55
939376 Off ch=10 n=42 v=69
939380 Pb ch=11 v=12096 
939470 Pb ch=11 v=12416 
939530 Pb ch=11 v=8288 
939597 On ch=11 n=59 v=127
939616 Off ch=11 n=60 v=127
939648 Off ch=2 n=42 v=127
940097 On ch=10 n=39 v=110
940097 On ch=10 n=40 v=113
940097 On ch=10 n=42 v=49
940097 On ch=10 n=82 v=55
940177 Off ch=11 n=59 v=127
940217 Off ch=10 n=82 v=55
940217 Off ch=10 n=42 v=49
940217 Off ch=10 n=40 v=113
940217 Off ch=10 n=39 v=110
940229 On ch=2 n=45 v=127
940728 On ch=11 n=57 v=127
940738 Off ch=11 n=57 v=127
940799 Off ch=2 n=45 v=127
941098 On ch=2 n=47 v=127
941128 On ch=10 n=42 v=79
941128 On ch=11 n=59 v=127
941128 On ch=10 n=82 v=51
941248 Off ch=10 n=82 v=51
941248 Off ch=10 n=42 v=79
941408 Off ch=11 n=59 v=127
941715 On ch=11 n=54 v=88
941725 Off ch=11 n=54 v=88
941778 Off ch=2 n=47 v=127
942075 On ch=10 n=36 v=105
942075 On ch=10 n=42 v=46
942075 On ch=10 n=82 v=58
942184 On ch=11 n=57 v=127
942195 Off ch=10 n=82 v=58
942195 Off ch=10 n=42 v=46
942195 Off ch=10 n=36 v=105
943091 On ch=2 n=42 v=127
943104 On ch=10 n=42 v=74
943104 On ch=10 n=82 v=47
943224 Off ch=10 n=82 v=47
943224 Off ch=10 n=42 v=74
943334 Off ch=11 n=57 v=127
943534 On ch=11 n=54 v=127
943721 Off ch=2 n=42 v=127
943864 Off ch=11 n=54 v=127
943994 On ch=10 n=39 v=110
943994 On ch=10 n=40 v=113
943994 On ch=10 n=42 v=46
943994 On ch=10 n=82 v=62
944094 On ch=2 n=40 v=127
944114 Off ch=10 n=82 v=62
944114 Off ch=10 n=42 v=46
944114 Off ch=10 n=40 v=113
944114 Off ch=10 n=39 v=110
944694 Off ch=2 n=40 v=127
944945 On ch=10 n=42 v=79
944945 On ch=10 n=82 v=58
945009 On ch=2 n=37 v=127
945065 Off ch=10 n=82 v=58
945065 Off ch=10 n=42 v=79
945460 Par ch=11 c=120 v=0
945590 Par ch=11 c=123 v=0
945639 Off ch=2 n=37 v=127
945769 Off ch=3 n=66 v=73
945809 Off ch=3 n=57 v=73
945809 Off ch=3 n=62 v=73
945951 On ch=10 n=36 v=105
945951 On ch=10 n=42 v=42
945951 On ch=3 n=57 v=96
945951 On ch=3 n=61 v=96
945951 On ch=3 n=66 v=96
945951 On ch=10 n=82 v=56
945986 On ch=2 n=42 v=127
946071 Off ch=10 n=82 v=56
946071 Off ch=10 n=42 v=42
946071 Off ch=10 n=36 v=105
946471 Off ch=3 n=57 v=96
946486 Off ch=2 n=42 v=127
946501 Off ch=3 n=61 v=96
946501 Off ch=3 n=66 v=96
946877 On ch=2 n=37 v=127
947001 On ch=10 n=42 v=69
947001 On ch=10 n=82 v=46
947121 Off ch=10 n=82 v=46
947121 Off ch=10 n=42 v=69
947397 Off ch=2 n=37 v=127
947807 On ch=2 n=40 v=127
947890 On ch=10 n=39 v=110
947890 On ch=10 n=40 v=112
947890 On ch=10 n=42 v=54
947890 On ch=10 n=82 v=64
948010 Off ch=10 n=82 v=64
948010 Off ch=10 n=42 v=54
948010 Off ch=10 n=40 v=112
948010 Off ch=10 n=39 v=110
948357 Off ch=2 n=40 v=127
948860 On ch=2 n=42 v=127
948862 On ch=10 n=42 v=74
948862 On ch=10 n=82 v=53
948862 On ch=3 n=59 v=96
948862 On ch=3 n=63 v=96
948862 On ch=3 n=68 v=96
948982 Off ch=10 n=82 v=53
948982 Off ch=10 n=42 v=74
949342 Off ch=3 n=68 v=96
949342 Off ch=3 n=63 v=96
949342 Off ch=3 n=59 v=96
949370 Off ch=2 n=42 v=127
949723 On ch=10 n=36 v=105
949723 On ch=10 n=42 v=57
949723 On ch=10 n=82 v=62
949724 On ch=2 n=40 v=127
949843 Off ch=10 n=82 v=62
949843 Off ch=10 n=42 v=57
949843 Off ch=10 n=36 v=105
950284 Off ch=2 n=40 v=127
950689 On ch=2 n=37 v=127
950708 On ch=10 n=42 v=69
950708 On ch=10 n=82 v=60
950828 Off ch=10 n=82 v=60
950828 Off ch=10 n=42 v=69
951199 Off ch=2 n=37 v=127
951664 On ch=2 n=35 v=127
951711 On ch=10 n=39 v=110
951711 On ch=10 n=40 v=113
951711 On ch=10 n=42 v=57
951711 On ch=10 n=82 v=68
951831 Off ch=10 n=82 v=68
951831 Off ch=10 n=42 v=57
951831 Off ch=10 n=40 v=113
951831 Off ch=10 n=39 v=110
952274 Off ch=2 n=35 v=127
952586 On ch=10 n=42 v=79
952586 On ch=10 n=82 v=50
952677 On ch=2 n=37 v=127
952706 Off ch=10 n=82 v=50
952706 Off ch=10 n=42 v=79
953217 Off ch=2 n=37 v=127
953576 On ch=2 n=42 v=127
953665 On ch=10 n=36 v=105
953665 On ch=10 n=42 v=54
953665 On ch=3 n=61 v=96
953665 On ch=3 n=64 v=96
953665 On ch=3 n=69 v=96
953665 On ch=10 n=82 v=68
953785 Off ch=10 n=82 v=68
953785 Off ch=10 n=42 v=54
953785 Off ch=10 n=36 v=105
954046 Off ch=2 n=42 v=127
954145 Off ch=3 n=69 v=96
954145 Off ch=3 n=64 v=96
954145 Off ch=3 n=61 v=96
954541 On ch=2 n=37 v=127
954640 On ch=10 n=42 v=69
954640 On ch=10 n=82 v=58
954760 Off ch=10 n=82 v=58
954760 Off ch=10 n=42 v=69
955021 Off ch=2 n=37 v=127
955523 On ch=10 n=39 v=110
955523 On ch=10 n=40 v=113
955523 On ch=10 n=42 v=49
955523 On ch=10 n=82 v=66
955572 On ch=2 n=40 v=127
955643 Off ch=10 n=82 v=66
955643 Off ch=10 n=42 v=49
955643 Off ch=10 n=40 v=113
955643 Off ch=10 n=39 v=110
956102 Off ch=2 n=40 v=127
956492 On ch=2 n=42 v=127
956531 On ch=10 n=42 v=79
956531 On ch=3 n=59 v=96
956531 On ch=3 n=63 v=96
956531 On ch=3 n=68 v=96
956531 On ch=10 n=82 v=60
956651 Off ch=10 n=82 v=60
956651 Off ch=10 n=42 v=79
956952 Off ch=2 n=42 v=127
957011 Off ch=3 n=68 v=96
957011 Off ch=3 n=63 v=96
957011 Off ch=3 n=59 v=96
957417 On ch=10 n=36 v=105
957417 On ch=10 n=42 v=46
957417 On ch=10 n=82 v=56
957460 On ch=2 n=40 v=127
957537 Off ch=10 n=82 v=56
957537 Off ch=10 n=42 v=46
957537 Off ch=10 n=36 v=105
958050 Off ch=2 n=40 v=127
958339 On ch=10 n=42 v=74
958339 On ch=10 n=82 v=60
958439 On ch=2 n=37 v=127
958459 Off ch=10 n=82 v=60
958459 Off ch=10 n=42 v=74
958800 On ch=10 n=45 v=97
958920 Off ch=10 n=45 v=97
958979 Off ch=2 n=37 v=127
959280 On ch=10 n=39 v=110
959280 On ch=10 n=40 v=113
959280 On ch=10 n=42 v=46
959280 On ch=10 n=43 v=103
959280 On ch=10 n=82 v=64
959301 On ch=2 n=35 v=127
959400 Off ch=10 n=82 v=64
959400 Off ch=10 n=43 v=103
959400 Off ch=10 n=42 v=46
959400 Off ch=10 n=40 v=113
959400 Off ch=10 n=39 v=110
959951 Off ch=2 n=35 v=127
960226 On ch=2 n=37 v=127
960340 On ch=10 n=46 v=99
960340 On ch=10 n=82 v=64
960460 Off ch=10 n=82 v=64
960460 Off ch=10 n=46 v=99
960736 Off ch=2 n=37 v=127
961219 On ch=10 n=36 v=105
961219 On ch=10 n=42 v=42
961219 On ch=3 n=57 v=73
961219 On ch=3 n=61 v=73
961219 On ch=3 n=66 v=73
961219 On ch=10 n=82 v=66
961305 On ch=2 n=42 v=127
961339 Off ch=10 n=82 v=66
961339 Off ch=10 n=42 v=42
961339 Off ch=10 n=36 v=105
961805 Off ch=2 n=42 v=127
962202 On ch=2 n=37 v=127
962293 On ch=10 n=42 v=69
962293 On ch=10 n=82 v=64
962413 Off ch=10 n=82 v=64
962413 Off ch=10 n=42 v=69
962722 Off ch=2 n=37 v=127
963164 On ch=2 n=40 v=127
963168 On ch=10 n=39 v=110
963168 On ch=10 n=40 v=112
963168 On ch=10 n=42 v=54
963168 On ch=10 n=82 v=62
963288 Off ch=10 n=82 v=62
963288 Off ch=10 n=42 v=54
963288 Off ch=10 n=40 v=112
963288 Off ch=10 n=39 v=110
963619 Off ch=3 n=66 v=73
963619 Off ch=3 n=61 v=73
963619 Off ch=3 n=57 v=73
963714 Off ch=2 n=40 v=127
964078 On ch=10 n=42 v=74
964078 On ch=3 n=59 v=73
964078 On ch=3 n=63 v=73
964078 On ch=3 n=68 v=73
964078 On ch=10 n=82 v=64
964161 On ch=2 n=42 v=127
964198 Off ch=10 n=82 v=64
964198 Off ch=10 n=42 v=74
964671 Off ch=2 n=42 v=127
964989 On ch=10 n=36 v=105
964989 On ch=10 n=42 v=57
964989 On ch=10 n=82 v=64
965109 Off ch=10 n=82 v=64
965109 Off ch=10 n=42 v=57
965109 Off ch=10 n=36 v=105
965141 On ch=2 n=40 v=127
965701 Off ch=2 n=40 v=127
965990 On ch=2 n=37 v=127
965997 On ch=10 n=42 v=69
965997 On ch=10 n=82 v=68
966117 Off ch=10 n=82 v=68
966117 Off ch=10 n=42 v=69
966500 Off ch=2 n=37 v=127
966862 On ch=2 n=35 v=127
967052 On ch=10 n=39 v=110
967052 On ch=10 n=40 v=113
967052 On ch=10 n=42 v=57
967052 On ch=10 n=82 v=62
967172 Off ch=10 n=82 v=62
967172 Off ch=10 n=42 v=57
967172 Off ch=10 n=40 v=113
967172 Off ch=10 n=39 v=110
967472 Off ch=2 n=35 v=127
967918 Off ch=3 n=68 v=73
967918 Off ch=3 n=59 v=73
967918 Off ch=3 n=63 v=73
967922 On ch=2 n=37 v=127
968028 On ch=10 n=42 v=74
968028 On ch=10 n=82 v=64
968148 Off ch=10 n=82 v=64
968148 Off ch=10 n=42 v=74
968462 Off ch=2 n=37 v=127
968905 On ch=2 n=42 v=127
968907 On ch=10 n=36 v=105
968907 On ch=10 n=42 v=54
968907 On ch=3 n=61 v=73
968907 On ch=3 n=64 v=73
968907 On ch=3 n=69 v=73
968907 On ch=10 n=82 v=62
969027 Off ch=10 n=82 v=62
969027 Off ch=10 n=42 v=54
969027 Off ch=10 n=36 v=105
969375 Off ch=2 n=42 v=127
969793 On ch=2 n=37 v=127
969874 On ch=10 n=42 v=69
969874 On ch=10 n=82 v=55
969994 Off ch=10 n=82 v=55
969994 Off ch=10 n=42 v=69
970273 Off ch=2 n=37 v=127
970762 On ch=10 n=39 v=110
970762 On ch=10 n=40 v=113
970762 On ch=10 n=42 v=49
970762 On ch=10 n=82 v=55
970843 On ch=2 n=40 v=127
970882 Off ch=10 n=82 v=55
970882 Off ch=10 n=42 v=49
970882 Off ch=10 n=40 v=113
970882 Off ch=10 n=39 v=110
971307 Off ch=3 n=61 v=73
971307 Off ch=3 n=64 v=73
971307 Off ch=3 n=69 v=73
971373 Off ch=2 n=40 v=127
971708 On ch=2 n=42 v=127
971824 On ch=10 n=42 v=79
971824 On ch=3 n=59 v=73
971824 On ch=3 n=63 v=73
971824 On ch=3 n=68 v=73
971824 On ch=10 n=82 v=51
971944 Off ch=10 n=82 v=51
971944 Off ch=10 n=42 v=79
972168 Off ch=2 n=42 v=127
972753 On ch=2 n=40 v=127
972827 On ch=10 n=36 v=105
972827 On ch=10 n=42 v=46
972827 On ch=10 n=82 v=58
972947 Off ch=10 n=82 v=58
972947 Off ch=10 n=42 v=46
972947 Off ch=10 n=36 v=105
973343 Off ch=2 n=40 v=127
973682 On ch=10 n=42 v=74
973682 On ch=10 n=82 v=47
973767 On ch=2 n=37 v=127
973802 Off ch=10 n=82 v=47
973802 Off ch=10 n=42 v=74
974221 On ch=10 n=45 v=97
974307 Off ch=2 n=37 v=127
974341 Off ch=10 n=45 v=97
974654 On ch=2 n=35 v=127
974701 On ch=10 n=39 v=110
974701 On ch=10 n=40 v=113
974701 On ch=10 n=42 v=46
974701 On ch=10 n=43 v=103
974701 On ch=10 n=82 v=62
974821 Off ch=10 n=82 v=62
974821 Off ch=10 n=43 v=103
974821 Off ch=10 n=42 v=46
974821 Off ch=10 n=40 v=113
974821 Off ch=10 n=39 v=110
975304 Off ch=2 n=35 v=127
975619 On ch=2 n=37 v=127
975664 Off ch=3 n=68 v=73
975664 Off ch=3 n=63 v=73
975664 Off ch=3 n=59 v=73
975708 On ch=10 n=42 v=79
975708 On ch=10 n=82 v=58
975828 Off ch=10 n=82 v=58
975828 Off ch=10 n=42 v=79
976129 Off ch=2 n=37 v=127
976547 On ch=10 n=36 v=105
976547 On ch=10 n=42 v=42
976547 On ch=3 n=57 v=73
976547 On ch=3 n=61 v=73
976547 On ch=3 n=66 v=73
976547 On ch=10 n=82 v=56
976667 Off ch=10 n=82 v=56
976667 Off ch=10 n=42 v=42
976667 Off ch=10 n=36 v=105
976676 On ch=2 n=42 v=127
977176 Off ch=2 n=42 v=127
977549 On ch=2 n=37 v=127
977560 On ch=10 n=42 v=69
977560 On ch=10 n=82 v=46
977680 Off ch=10 n=82 v=46
977680 Off ch=10 n=42 v=69
978069 Off ch=2 n=37 v=127
978551 On ch=2 n=40 v=127
978561 On ch=10 n=39 v=110
978561 On ch=10 n=40 v=112
978561 On ch=10 n=42 v=54
978561 On ch=10 n=82 v=64
978681 Off ch=10 n=82 v=64
978681 Off ch=10 n=42 v=54
978681 Off ch=10 n=40 v=112
978681 Off ch=10 n=39 v=110
978947 Off ch=3 n=66 v=73
978947 Off ch=3 n=57 v=73
978947 Off ch=3 n=61 v=73
979101 Off ch=2 n=40 v=127
979469 On ch=2 n=42 v=127
979629 On ch=10 n=42 v=74
979629 On ch=3 n=59 v=73
979629 On ch=3 n=63 v=73
979629 On ch=3 n=68 v=73
979629 On ch=10 n=82 v=53
979749 Off ch=10 n=82 v=53
979749 Off ch=10 n=42 v=74
979979 Off ch=2 n=42 v=127
980494 On ch=10 n=36 v=105
980494 On ch=10 n=42 v=57
980494 On ch=10 n=82 v=62
980496 On ch=2 n=40 v=127
980614 Off ch=10 n=82 v=62
980614 Off ch=10 n=42 v=57
980614 Off ch=10 n=36 v=105
981056 Off ch=2 n=40 v=127
981396 On ch=2 n=37 v=127
981409 On ch=10 n=42 v=69
981409 On ch=10 n=82 v=60
981529 Off ch=10 n=82 v=60
981529 Off ch=10 n=42 v=69
981906 Off ch=2 n=37 v=127
982361 On ch=2 n=35 v=127
982381 On ch=10 n=39 v=110
982381 On ch=10 n=40 v=113
982381 On ch=10 n=42 v=57
982381 On ch=10 n=82 v=68
982501 Off ch=10 n=82 v=68
982501 Off ch=10 n=42 v=57
982501 Off ch=10 n=40 v=113
982501 Off ch=10 n=39 v=110
982971 Off ch=2 n=35 v=127
983259 On ch=2 n=37 v=127
983335 On ch=10 n=42 v=79
983335 On ch=10 n=82 v=50
983455 Off ch=10 n=82 v=50
983455 Off ch=10 n=42 v=79
983469 Off ch=3 n=59 v=73
983469 Off ch=3 n=63 v=73
983469 Off ch=3 n=68 v=73
983799 Off ch=2 n=37 v=127
984238 On ch=10 n=36 v=105
984238 On ch=10 n=42 v=54
984238 On ch=3 n=61 v=73
984238 On ch=3 n=64 v=73
984238 On ch=3 n=69 v=73
984238 On ch=10 n=82 v=68
984318 On ch=2 n=42 v=127
984358 Off ch=10 n=82 v=68
984358 Off ch=10 n=42 v=54
984358 Off ch=10 n=36 v=105
984788 Off ch=2 n=42 v=127
985200 On ch=2 n=37 v=127
985255 On ch=10 n=42 v=69
985255 On ch=10 n=82 v=58
985375 Off ch=10 n=82 v=58
985375 Off ch=10 n=42 v=69
985680 Off ch=2 n=37 v=127
986134 On ch=10 n=39 v=110
986134 On ch=10 n=40 v=113
986134 On ch=10 n=42 v=49
986134 On ch=10 n=82 v=66
986228 On ch=2 n=40 v=127
986254 Off ch=10 n=82 v=66
986254 Off ch=10 n=42 v=49
986254 Off ch=10 n=40 v=113
986254 Off ch=10 n=39 v=110
986638 Off ch=3 n=61 v=73
986638 Off ch=3 n=64 v=73
986638 Off ch=3 n=69 v=73
986758 Off ch=2 n=40 v=127
987109 On ch=10 n=42 v=79
987109 On ch=3 n=59 v=73
987109 On ch=3 n=63 v=73
987109 On ch=3 n=68 v=73
987109 On ch=10 n=82 v=60
987143 On ch=2 n=42 v=127
987229 Off ch=10 n=82 v=60
987229 Off ch=10 n=42 v=79
987603 Off ch=2 n=42 v=127
988033 On ch=2 n=40 v=127
988144 On ch=10 n=36 v=105
988144 On ch=10 n=42 v=46
988144 On ch=10 n=82 v=56
988264 Off ch=10 n=82 v=56
988264 Off ch=10 n=42 v=46
988264 Off ch=10 n=36 v=105
988623 Off ch=2 n=40 v=127
989024 On ch=10 n=42 v=74
989024 On ch=10 n=82 v=60
989112 On ch=2 n=37 v=127
989144 Off ch=10 n=82 v=60
989144 Off ch=10 n=42 v=74
989546 On ch=10 n=45 v=97
989652 Off ch=2 n=37 v=127
989666 Off ch=10 n=45 v=97
989956 On ch=2 n=35 v=127
990026 On ch=10 n=39 v=110
990026 On ch=10 n=40 v=113
990026 On ch=10 n=42 v=46
990026 On ch=10 n=43 v=103
990026 On ch=10 n=82 v=64
990146 Off ch=10 n=82 v=64
990146 Off ch=10 n=43 v=103
990146 Off ch=10 n=42 v=46
990146 Off ch=10 n=40 v=113
990146 Off ch=10 n=39 v=110
990606 Off ch=2 n=35 v=127
991000 On ch=2 n=37 v=127
991038 On ch=10 n=46 v=99
991038 On ch=10 n=82 v=64
991158 Off ch=10 n=82 v=64
991158 Off ch=10 n=46 v=99
991429 Off ch=3 n=68 v=73
991429 Off ch=3 n=63 v=73
991429 Off ch=3 n=59 v=73
991510 Off ch=2 n=37 v=127
991932 On ch=10 n=36 v=105
991932 On ch=10 n=42 v=42
991932 On ch=3 n=57 v=73
991932 On ch=3 n=61 v=73
991932 On ch=3 n=66 v=73
991932 On ch=10 n=82 v=66
992038 On ch=2 n=42 v=127
992052 Off ch=10 n=82 v=66
992052 Off ch=10 n=42 v=42
992052 Off ch=10 n=36 v=105
992538 Off ch=2 n=42 v=127
992914 On ch=2 n=37 v=127
992959 On ch=10 n=42 v=69
992959 On ch=10 n=82 v=64
993079 Off ch=10 n=82 v=64
993079 Off ch=10 n=42 v=69
993434 Off ch=2 n=37 v=127
993860 On ch=2 n=40 v=127
993869 On ch=10 n=39 v=110
993869 On ch=10 n=40 v=112
993869 On ch=10 n=42 v=54
993869 On ch=10 n=82 v=62
993989 Off ch=10 n=82 v=62
993989 Off ch=10 n=42 v=54
993989 Off ch=10 n=40 v=112
993989 Off ch=10 n=39 v=110
994332 Off ch=3 n=66 v=73
994332 Off ch=3 n=61 v=73
994332 Off ch=3 n=57 v=73
994410 Off ch=2 n=40 v=127
994803 On ch=10 n=42 v=74
994803 On ch=3 n=59 v=73
994803 On ch=3 n=63 v=73
994803 On ch=3 n=68 v=73
994803 On ch=10 n=82 v=64
994923 Off ch=10 n=82 v=64
994923 Off ch=10 n=42 v=74
994933 On ch=2 n=42 v=127
995443 Off ch=2 n=42 v=127
995822 On ch=2 n=40 v=127
995849 On ch=10 n=36 v=105
995849 On ch=10 n=42 v=57
995849 On ch=10 n=82 v=64
995969 Off ch=10 n=82 v=64
995969 Off ch=10 n=42 v=57
995969 Off ch=10 n=36 v=105
996382 Off ch=2 n=40 v=127
996806 On ch=2 n=37 v=127
996816 On ch=10 n=42 v=69
996816 On ch=10 n=82 v=68
996936 Off ch=10 n=82 v=68
996936 Off ch=10 n=42 v=69
997316 Off ch=2 n=37 v=127
997693 On ch=10 n=39 v=110
997693 On ch=10 n=40 v=113
997693 On ch=10 n=42 v=57
997693 On ch=10 n=82 v=62
997804 On ch=2 n=35 v=127
997813 Off ch=10 n=82 v=62
997813 Off ch=10 n=42 v=57
997813 Off ch=10 n=40 v=113
997813 Off ch=10 n=39 v=110
998414 Off ch=2 n=35 v=127
998643 Off ch=3 n=68 v=73
998643 Off ch=3 n=59 v=73
998643 Off ch=3 n=63 v=73
998745 On ch=2 n=37 v=127
998773 On ch=10 n=42 v=79
998773 On ch=10 n=82 v=64
998893 Off ch=10 n=82 v=64
998893 Off ch=10 n=42 v=79
999285 Off ch=2 n=37 v=127
999718 On ch=2 n=42 v=127
999743 On ch=10 n=36 v=105
999743 On ch=10 n=42 v=54
999743 On ch=3 n=61 v=73
999743 On ch=3 n=64 v=73
999743 On ch=3 n=69 v=73
999743 On ch=10 n=82 v=62
999863 Off ch=10 n=82 v=62
999863 Off ch=10 n=42 v=54
999863 Off ch=10 n=36 v=105
1000188 Off ch=2 n=42 v=127
1000665 On ch=10 n=42 v=69
1000665 On ch=10 n=82 v=55
1000710 On ch=2 n=37 v=127
1000785 Off ch=10 n=82 v=55
1000785 Off ch=10 n=42 v=69
1001190 Off ch=2 n=37 v=127
1001618 On ch=10 n=39 v=110
1001618 On ch=10 n=40 v=113
1001618 On ch=10 n=42 v=49
1001618 On ch=10 n=82 v=55
1001624 On ch=2 n=40 v=127
1001738 Off ch=10 n=82 v=55
1001738 Off ch=10 n=42 v=49
1001738 Off ch=10 n=40 v=113
1001738 Off ch=10 n=39 v=110
1002143 Off ch=3 n=61 v=73
1002143 Off ch=3 n=64 v=73
1002143 Off ch=3 n=69 v=73
1002154 Off ch=2 n=40 v=127
1002514 On ch=2 n=42 v=127
1002635 On ch=10 n=42 v=79
1002635 On ch=3 n=59 v=73
1002635 On ch=3 n=63 v=73
1002635 On ch=3 n=68 v=73
1002635 On ch=10 n=82 v=51
1002755 Off ch=10 n=82 v=51
1002755 Off ch=10 n=42 v=79
1002974 Off ch=2 n=42 v=127
1003515 On ch=10 n=36 v=105
1003515 On ch=10 n=42 v=46
1003515 On ch=10 n=82 v=58
1003571 On ch=2 n=40 v=127
1003635 Off ch=10 n=82 v=58
1003635 Off ch=10 n=42 v=46
1003635 Off ch=10 n=36 v=105
1004161 Off ch=2 n=40 v=127
1004402 On ch=10 n=42 v=74
1004402 On ch=10 n=82 v=47
1004412 On ch=2 n=37 v=127
1004522 Off ch=10 n=82 v=47
1004522 Off ch=10 n=42 v=74
1004952 Off ch=2 n=37 v=127
1005303 On ch=10 n=39 v=110
1005303 On ch=10 n=40 v=113
1005303 On ch=10 n=42 v=46
1005303 On ch=10 n=82 v=62
1005423 Off ch=10 n=82 v=62
1005423 Off ch=10 n=42 v=46
1005423 Off ch=10 n=40 v=113
1005423 Off ch=10 n=39 v=110
1005482 On ch=2 n=35 v=127
1006132 Off ch=2 n=35 v=127
1006349 On ch=10 n=42 v=79
1006349 On ch=10 n=82 v=58
1006364 On ch=2 n=37 v=127
1006469 Off ch=10 n=82 v=58
1006469 Off ch=10 n=42 v=79
1006475 Off ch=3 n=68 v=73
1006475 Off ch=3 n=63 v=73
1006475 Off ch=3 n=59 v=73
1006874 Off ch=2 n=37 v=127
1007282 On ch=10 n=36 v=105
1007282 On ch=10 n=42 v=42
1007282 On ch=3 n=57 v=73
1007282 On ch=3 n=61 v=73
1007282 On ch=3 n=66 v=73
1007282 On ch=10 n=82 v=56
1007307 On ch=2 n=42 v=127
1007402 Off ch=10 n=82 v=56
1007402 Off ch=10 n=42 v=42
1007402 Off ch=10 n=36 v=105
1007807 Off ch=2 n=42 v=127
1008178 On ch=10 n=42 v=69
1008178 On ch=10 n=82 v=46
1008227 On ch=2 n=37 v=127
1008298 Off ch=10 n=82 v=46
1008298 Off ch=10 n=42 v=69
1008747 Off ch=2 n=37 v=127
1009127 On ch=10 n=39 v=110
1009127 On ch=10 n=40 v=112
1009127 On ch=10 n=42 v=54
1009127 On ch=10 n=82 v=64
1009235 On ch=2 n=40 v=127
1009247 Off ch=10 n=82 v=64
1009247 Off ch=10 n=42 v=54
1009247 Off ch=10 n=40 v=112
1009247 Off ch=10 n=39 v=110
1009682 Off ch=3 n=66 v=73
1009682 Off ch=3 n=57 v=73
1009682 Off ch=3 n=61 v=73
1009785 Off ch=2 n=40 v=127
1010127 On ch=2 n=42 v=127
1010186 On ch=10 n=42 v=74
1010186 On ch=3 n=59 v=73
1010186 On ch=3 n=63 v=73
1010186 On ch=3 n=68 v=73
1010186 On ch=10 n=82 v=53
1010306 Off ch=10 n=82 v=53
1010306 Off ch=10 n=42 v=74
1010637 Off ch=2 n=42 v=127
1011100 On ch=2 n=40 v=127
1011129 On ch=10 n=36 v=105
1011129 On ch=10 n=42 v=57
1011129 On ch=10 n=82 v=62
1011249 Off ch=10 n=82 v=62
1011249 Off ch=10 n=42 v=57
1011249 Off ch=10 n=36 v=105
1011660 Off ch=2 n=40 v=127
1012054 On ch=10 n=42 v=69
1012054 On ch=10 n=82 v=60
1012094 On ch=2 n=37 v=127
1012174 Off ch=10 n=82 v=60
1012174 Off ch=10 n=42 v=69
1012604 Off ch=2 n=37 v=127
1013044 On ch=2 n=35 v=127
1013060 On ch=10 n=39 v=110
1013060 On ch=10 n=40 v=113
1013060 On ch=10 n=42 v=57
1013060 On ch=10 n=82 v=68
1013180 Off ch=10 n=82 v=68
1013180 Off ch=10 n=42 v=57
1013180 Off ch=10 n=40 v=113
1013180 Off ch=10 n=39 v=110
1013654 Off ch=2 n=35 v=127
1013935 On ch=2 n=37 v=127
1014026 Off ch=3 n=59 v=73
1014026 Off ch=3 n=63 v=73
1014026 Off ch=3 n=68 v=73
1014071 On ch=10 n=42 v=79
1014071 On ch=10 n=82 v=50
1014191 Off ch=10 n=82 v=50
1014191 Off ch=10 n=42 v=79
1014475 Off ch=2 n=37 v=127
1014943 On ch=10 n=36 v=105
1014943 On ch=10 n=42 v=54
1014943 On ch=3 n=61 v=73
1014943 On ch=3 n=64 v=73
1014943 On ch=3 n=69 v=73
1014943 On ch=10 n=82 v=68
1014970 On ch=2 n=42 v=127
1015063 Off ch=10 n=82 v=68
1015063 Off ch=10 n=42 v=54
1015063 Off ch=10 n=36 v=105
1015440 Off ch=2 n=42 v=127
1015815 On ch=2 n=37 v=127
1015896 On ch=10 n=42 v=69
1015896 On ch=10 n=82 v=58
1016016 Off ch=10 n=82 v=58
1016016 Off ch=10 n=42 v=69
1016295 Off ch=2 n=37 v=127
1016884 On ch=2 n=40 v=127
1016937 On ch=10 n=39 v=110
1016937 On ch=10 n=40 v=113
1016937 On ch=10 n=42 v=49
1016937 On ch=10 n=82 v=66
1017057 Off ch=10 n=82 v=66
1017057 Off ch=10 n=42 v=49
1017057 Off ch=10 n=40 v=113
1017057 Off ch=10 n=39 v=110
1017343 Off ch=3 n=61 v=73
1017343 Off ch=3 n=64 v=73
1017343 Off ch=3 n=69 v=73
1017414 Off ch=2 n=40 v=127
1017866 On ch=10 n=42 v=79
1017866 On ch=3 n=59 v=73
1017866 On ch=3 n=63 v=73
1017866 On ch=3 n=68 v=73
1017866 On ch=10 n=82 v=60
1017899 On ch=2 n=42 v=127
1017986 Off ch=10 n=82 v=60
1017986 Off ch=10 n=42 v=79
1018359 Off ch=2 n=42 v=127
1018791 On ch=2 n=40 v=127
1018847 On ch=10 n=36 v=105
1018847 On ch=10 n=42 v=46
1018847 On ch=10 n=82 v=56
1018967 Off ch=10 n=82 v=56
1018967 Off ch=10 n=42 v=46
1018967 Off ch=10 n=36 v=105
1019381 Off ch=2 n=40 v=127
1019717 On ch=10 n=42 v=74
1019717 On ch=10 n=82 v=60
1019827 On ch=2 n=37 v=127
1019837 Off ch=10 n=82 v=60
1019837 Off ch=10 n=42 v=74
1020367 Off ch=2 n=37 v=127
1020734 On ch=2 n=35 v=127
1020755 On ch=10 n=39 v=110
1020755 On ch=10 n=40 v=113
1020755 On ch=10 n=42 v=46
1020755 On ch=10 n=82 v=64
1020875 Off ch=10 n=82 v=64
1020875 Off ch=10 n=42 v=46
1020875 Off ch=10 n=40 v=113
1020875 Off ch=10 n=39 v=110
1021384 Off ch=2 n=35 v=127
1021663 On ch=2 n=37 v=127
1021753 On ch=10 n=42 v=79
1021753 On ch=10 n=82 v=64
1021873 Off ch=10 n=82 v=64
1021873 Off ch=10 n=42 v=79
1022173 Off ch=2 n=37 v=127
1022186 Off ch=3 n=68 v=73
1022186 Off ch=3 n=63 v=73
1022186 Off ch=3 n=59 v=73
1022631 On ch=2 n=42 v=127
1022667 On ch=10 n=36 v=105
1022667 On ch=10 n=42 v=42
1022667 On ch=10 n=82 v=66
1022667 On ch=3 n=57 v=73
1022667 On ch=3 n=61 v=73
1022667 On ch=3 n=66 v=73
1022670 Par ch=10 c=11 v=127
1022787 Off ch=10 n=82 v=66
1022787 Off ch=10 n=42 v=42
1022787 Off ch=10 n=36 v=105
1022830 Par ch=3 c=11 v=127
1022830 Par ch=2 c=11 v=127
1023131 Off ch=2 n=42 v=127
1023150 Par ch=10 c=11 v=126
1023310 Par ch=3 c=11 v=126
1023310 Par ch=2 c=11 v=126
1023542 On ch=10 n=42 v=69
1023542 On ch=10 n=82 v=64
1023550 Par ch=10 c=11 v=125
1023571 On ch=2 n=37 v=127
1023662 Off ch=10 n=82 v=64
1023662 Off ch=10 n=42 v=69
1023710 Par ch=3 c=11 v=125
1023710 Par ch=2 c=11 v=125
1023950 Par ch=10 c=11 v=124
1024091 Off ch=2 n=37 v=127
1024110 Par ch=3 c=11 v=124
1024110 Par ch=2 c=11 v=124
1024430 Par ch=10 c=11 v=123
1024510 Par ch=2 c=11 v=123
1024590 Par ch=3 c=11 v=123
1024597 On ch=10 n=39 v=110
1024597 On ch=10 n=40 v=112
1024597 On ch=10 n=42 v=54
1024597 On ch=10 n=82 v=62
1024597 On ch=2 n=40 v=127
1024717 Off ch=10 n=82 v=62
1024717 Off ch=10 n=42 v=54
1024717 Off ch=10 n=40 v=112
1024717 Off ch=10 n=39 v=110
1024830 Par ch=10 c=11 v=122
1024990 Par ch=3 c=11 v=122
1024990 Par ch=2 c=11 v=122
1025067 Off ch=3 n=66 v=73
1025067 Off ch=3 n=61 v=73
1025067 Off ch=3 n=57 v=73
1025147 Off ch=2 n=40 v=127
1025230 Par ch=10 c=11 v=121
1025390 Par ch=3 c=11 v=121
1025390 Par ch=2 c=11 v=121
1025548 On ch=2 n=42 v=127
1025615 On ch=10 n=42 v=74
1025615 On ch=3 n=59 v=73
1025615 On ch=3 n=63 v=73
1025615 On ch=3 n=68 v=73
1025615 On ch=10 n=82 v=64
1025630 Par ch=10 c=11 v=120
1025735 Off ch=10 n=82 v=64
1025735 Off ch=10 n=42 v=74
1025790 Par ch=3 c=11 v=120
1025790 Par ch=2 c=11 v=120
1026058 Off ch=2 n=42 v=127
1026110 Par ch=10 c=11 v=119
1026190 Par ch=2 c=11 v=119
1026270 Par ch=3 c=11 v=119
1026457 On ch=2 n=40 v=127
1026466 On ch=10 n=36 v=105
1026466 On ch=10 n=42 v=57
1026466 On ch=10 n=82 v=64
1026510 Par ch=10 c=11 v=118
1026586 Off ch=10 n=82 v=64
1026586 Off ch=10 n=42 v=57
1026586 Off ch=10 n=36 v=105
1026670 Par ch=3 c=11 v=118
1026670 Par ch=2 c=11 v=118
1026910 Par ch=10 c=11 v=117
1027017 Off ch=2 n=40 v=127
1027070 Par ch=3 c=11 v=117
1027070 Par ch=2 c=11 v=117
1027310 Par ch=10 c=11 v=116
1027470 Par ch=3 c=11 v=116
1027470 Par ch=2 c=11 v=116
1027487 On ch=2 n=37 v=127
1027497 On ch=10 n=42 v=69
1027497 On ch=10 n=82 v=68
1027617 Off ch=10 n=82 v=68
1027617 Off ch=10 n=42 v=69
1027790 Par ch=10 c=11 v=115
1027870 Par ch=2 c=11 v=115
1027950 Par ch=3 c=11 v=115
1027997 Off ch=2 n=37 v=127
1028190 Par ch=10 c=11 v=114
1028350 Par ch=3 c=11 v=114
1028350 Par ch=2 c=11 v=114
1028415 On ch=10 n=39 v=110
1028415 On ch=10 n=40 v=113
1028415 On ch=10 n=42 v=57
1028415 On ch=10 n=82 v=62
1028420 On ch=2 n=35 v=127
1028535 Off ch=10 n=82 v=62
1028535 Off ch=10 n=42 v=57
1028535 Off ch=10 n=40 v=113
1028535 Off ch=10 n=39 v=110
1028590 Par ch=10 c=11 v=113
1028750 Par ch=3 c=11 v=113
1028750 Par ch=2 c=11 v=113
1028990 Par ch=10 c=11 v=112
1029030 Off ch=2 n=35 v=127
1029150 Par ch=3 c=11 v=112
1029150 Par ch=2 c=11 v=112
1029338 On ch=10 n=42 v=79
1029338 On ch=10 n=82 v=64
1029386 On ch=2 n=37 v=127
1029455 Off ch=3 n=68 v=73
1029455 Off ch=3 n=59 v=73
1029455 Off ch=3 n=63 v=73
1029458 Off ch=10 n=82 v=64
1029458 Off ch=10 n=42 v=79
1029470 Par ch=10 c=11 v=111
1029550 Par ch=2 c=11 v=111
1029630 Par ch=3 c=11 v=111
1029870 Par ch=10 c=11 v=110
1029926 Off ch=2 n=37 v=127
1030030 Par ch=3 c=11 v=110
1030030 Par ch=2 c=11 v=110
1030258 On ch=2 n=42 v=127
1030270 Par ch=10 c=11 v=109
1030359 On ch=10 n=36 v=105
1030359 On ch=10 n=42 v=54
1030359 On ch=10 n=82 v=62
1030359 On ch=3 n=61 v=73
1030359 On ch=3 n=64 v=73
1030359 On ch=3 n=69 v=73
1030430 Par ch=3 c=11 v=109
1030430 Par ch=2 c=11 v=109
1030479 Off ch=10 n=82 v=62
1030479 Off ch=10 n=42 v=54
1030479 Off ch=10 n=36 v=105
1030670 Par ch=10 c=11 v=108
1030728 Off ch=2 n=42 v=127
1030830 Par ch=3 c=11 v=108
1030830 Par ch=2 c=11 v=108
1031150 Par ch=10 c=11 v=107
1031226 On ch=2 n=37 v=127
1031230 Par ch=2 c=11 v=107
1031292 On ch=10 n=42 v=69
1031292 On ch=10 n=82 v=55
1031310 Par ch=3 c=11 v=107
1031412 Off ch=10 n=82 v=55
1031412 Off ch=10 n=42 v=69
1031550 Par ch=10 c=11 v=106
1031706 Off ch=2 n=37 v=127
1031710 Par ch=3 c=11 v=106
1031710 Par ch=2 c=11 v=106
1031950 Par ch=10 c=11 v=105
1032110 Par ch=3 c=11 v=105
1032110 Par ch=2 c=11 v=105
1032210 On ch=10 n=39 v=110
1032210 On ch=10 n=40 v=113
1032210 On ch=10 n=42 v=49
1032210 On ch=10 n=82 v=55
1032217 On ch=2 n=40 v=127
1032330 Off ch=10 n=82 v=55
1032330 Off ch=10 n=42 v=49
1032330 Off ch=10 n=40 v=113
1032330 Off ch=10 n=39 v=110
1032350 Par ch=10 c=11 v=104
1032510 Par ch=3 c=11 v=104
1032510 Par ch=2 c=11 v=104
1032747 Off ch=2 n=40 v=127
1032759 Off ch=3 n=61 v=73
1032759 Off ch=3 n=64 v=73
1032759 Off ch=3 n=69 v=73
1032830 Par ch=10 c=11 v=103
1032910 Par ch=2 c=11 v=103
1032990 Par ch=3 c=11 v=103
1033107 On ch=10 n=42 v=79
1033107 On ch=10 n=82 v=51
1033107 On ch=3 n=59 v=73
1033107 On ch=3 n=63 v=73
1033107 On ch=3 n=68 v=73
1033227 Off ch=10 n=82 v=51
1033227 Off ch=10 n=42 v=79
1033230 Par ch=10 c=11 v=102
1033245 On ch=2 n=42 v=127
1033390 Par ch=3 c=11 v=102
1033390 Par ch=2 c=11 v=102
1033630 Par ch=10 c=11 v=101
1033705 Off ch=2 n=42 v=127
1033790 Par ch=3 c=11 v=101
1033790 Par ch=2 c=11 v=101
1034030 Par ch=10 c=11 v=100
1034121 On ch=2 n=40 v=127
1034135 On ch=10 n=36 v=105
1034135 On ch=10 n=42 v=46
1034135 On ch=10 n=82 v=58
1034190 Par ch=3 c=11 v=100
1034190 Par ch=2 c=11 v=100
1034255 Off ch=10 n=82 v=58
1034255 Off ch=10 n=42 v=46
1034255 Off ch=10 n=36 v=105
1034510 Par ch=10 c=11 v=99
1034590 Par ch=2 c=11 v=99
1034670 Par ch=3 c=11 v=99
1034711 Off ch=2 n=40 v=127
1034910 Par ch=10 c=11 v=98
1035070 Par ch=3 c=11 v=98
1035070 Par ch=2 c=11 v=98
1035096 On ch=10 n=42 v=74
1035096 On ch=10 n=82 v=47
1035113 On ch=2 n=37 v=127
1035216 Off ch=10 n=82 v=47
1035216 Off ch=10 n=42 v=74
1035310 Par ch=10 c=11 v=97
1035470 Par ch=3 c=11 v=97
1035470 Par ch=2 c=11 v=97
1035608 On ch=10 n=45 v=97
1035653 Off ch=2 n=37 v=127
1035710 Par ch=10 c=11 v=96
1035728 Off ch=10 n=45 v=97
1035870 Par ch=3 c=11 v=96
1035870 Par ch=2 c=11 v=96
1036049 On ch=2 n=35 v=127
1036088 On ch=10 n=39 v=110
1036088 On ch=10 n=40 v=113
1036088 On ch=10 n=42 v=46
1036088 On ch=10 n=43 v=103
1036088 On ch=10 n=82 v=62
1036190 Par ch=10 c=11 v=95
1036208 Off ch=10 n=82 v=62
1036208 Off ch=10 n=43 v=103
1036208 Off ch=10 n=42 v=46
1036208 Off ch=10 n=40 v=113
1036208 Off ch=10 n=39 v=110
1036270 Par ch=2 c=11 v=95
1036350 Par ch=3 c=11 v=95
1036590 Par ch=10 c=11 v=94
1036670 Par ch=2 c=11 v=94
1036699 Off ch=2 n=35 v=127
1036750 Par ch=3 c=11 v=94
1036947 Off ch=3 n=68 v=73
1036947 Off ch=3 n=63 v=73
1036947 Off ch=3 n=59 v=73
1036990 Par ch=10 c=11 v=93
1037053 On ch=10 n=46 v=99
1037053 On ch=10 n=82 v=58
1037094 On ch=2 n=37 v=127
1037150 Par ch=3 c=11 v=93
1037150 Par ch=2 c=11 v=93
1037173 Off ch=10 n=82 v=58
1037173 Off ch=10 n=46 v=99
1037470 Par ch=10 c=11 v=92
1037550 Par ch=3 c=11 v=92
1037550 Par ch=2 c=11 v=92
1037604 Off ch=2 n=37 v=127
1037870 Par ch=10 c=11 v=91
1037950 Par ch=2 c=11 v=91
1037984 On ch=10 n=36 v=105
1037984 On ch=10 n=42 v=42
1037984 On ch=10 n=82 v=56
1037984 On ch=3 n=57 v=73
1037984 On ch=3 n=61 v=73
1037984 On ch=3 n=66 v=73
1038030 Par ch=3 c=11 v=91
1038096 On ch=2 n=42 v=127
1038104 Off ch=10 n=82 v=56
1038104 Off ch=10 n=42 v=42
1038104 Off ch=10 n=36 v=105
1038270 Par ch=10 c=11 v=90
1038350 Par ch=2 c=11 v=90
1038430 Par ch=3 c=11 v=90
1038596 Off ch=2 n=42 v=127
1038670 Par ch=10 c=11 v=89
1038830 Par ch=3 c=11 v=89
1038830 Par ch=2 c=11 v=89
1038964 On ch=2 n=37 v=127
1038991 On ch=10 n=42 v=69
1038991 On ch=10 n=82 v=46
1039111 Off ch=10 n=82 v=46
1039111 Off ch=10 n=42 v=69
1039150 Par ch=10 c=11 v=88
1039230 Par ch=3 c=11 v=88
1039230 Par ch=2 c=11 v=88
1039484 Off ch=2 n=37 v=127
1039550 Par ch=10 c=11 v=87
1039630 Par ch=2 c=11 v=87
1039710 Par ch=3 c=11 v=87
1039926 On ch=2 n=40 v=127
1039948 On ch=10 n=39 v=110
1039948 On ch=10 n=40 v=112
1039948 On ch=10 n=42 v=54
1039948 On ch=10 n=82 v=64
1039950 Par ch=10 c=11 v=86
1040030 Par ch=2 c=11 v=86
1040068 Off ch=10 n=82 v=64
1040068 Off ch=10 n=42 v=54
1040068 Off ch=10 n=40 v=112
1040068 Off ch=10 n=39 v=110
1040110 Par ch=3 c=11 v=86
1040350 Par ch=10 c=11 v=85
1040384 Off ch=3 n=66 v=73
1040384 Off ch=3 n=57 v=73
1040384 Off ch=3 n=61 v=73
1040476 Off ch=2 n=40 v=127
1040510 Par ch=3 c=11 v=85
1040510 Par ch=2 c=11 v=85
1040830 Par ch=10 c=11 v=84
1040866 On ch=2 n=42 v=127
1040896 On ch=10 n=42 v=74
1040896 On ch=10 n=82 v=53
1040896 On ch=3 n=59 v=73
1040896 On ch=3 n=63 v=73
1040896 On ch=3 n=68 v=73
1040910 Par ch=3 c=11 v=84
1040910 Par ch=2 c=11 v=84
1041016 Off ch=10 n=82 v=53
1041016 Off ch=10 n=42 v=74
1041230 Par ch=10 c=11 v=83
1041310 Par ch=2 c=11 v=83
1041376 Off ch=2 n=42 v=127
1041390 Par ch=3 c=11 v=83
1041630 Par ch=10 c=11 v=82
1041710 Par ch=2 c=11 v=82
1041790 Par ch=3 c=11 v=82
1041791 On ch=10 n=36 v=105
1041791 On ch=10 n=42 v=57
1041791 On ch=10 n=82 v=62
1041911 Off ch=10 n=82 v=62
1041911 Off ch=10 n=42 v=57
1041911 Off ch=10 n=36 v=105
1041934 On ch=2 n=40 v=127
1042030 Par ch=10 c=11 v=81
1042190 Par ch=3 c=11 v=81
1042190 Par ch=2 c=11 v=81
1042494 Off ch=2 n=40 v=127
1042510 Par ch=10 c=11 v=80
1042590 Par ch=3 c=11 v=80
1042590 Par ch=2 c=11 v=80
1042804 On ch=2 n=37 v=127
1042860 On ch=10 n=42 v=69
1042860 On ch=10 n=82 v=60
1042910 Par ch=10 c=11 v=79
1042980 Off ch=10 n=82 v=60
1042980 Off ch=10 n=42 v=69
1042990 Par ch=2 c=11 v=79
1043070 Par ch=3 c=11 v=79
1043310 Par ch=10 c=11 v=78
1043314 Off ch=2 n=37 v=127
1043390 Par ch=2 c=11 v=78
1043470 Par ch=3 c=11 v=78
1043710 Par ch=10 c=11 v=77
1043719 On ch=2 n=35 v=127
1043743 On ch=10 n=39 v=110
1043743 On ch=10 n=40 v=113
1043743 On ch=10 n=42 v=57
1043743 On ch=10 n=82 v=68
1043863 Off ch=10 n=82 v=68
1043863 Off ch=10 n=42 v=57
1043863 Off ch=10 n=40 v=113
1043863 Off ch=10 n=39 v=110
1043870 Par ch=3 c=11 v=77
1043870 Par ch=2 c=11 v=77
1044190 Par ch=10 c=11 v=76
1044270 Par ch=3 c=11 v=76
1044270 Par ch=2 c=11 v=76
1044329 Off ch=2 n=35 v=127
1044590 Par ch=10 c=11 v=75
1044670 Par ch=2 c=11 v=75
1044690 On ch=2 n=37 v=127
1044736 Off ch=3 n=59 v=73
1044736 Off ch=3 n=63 v=73
1044736 Off ch=3 n=68 v=73
1044750 Par ch=3 c=11 v=75
1044752 On ch=10 n=42 v=74
1044752 On ch=10 n=82 v=50
1044872 Off ch=10 n=82 v=50
1044872 Off ch=10 n=42 v=74
1044990 Par ch=10 c=11 v=74
1045070 Par ch=2 c=11 v=74
1045150 Par ch=3 c=11 v=74
1045230 Off ch=2 n=37 v=127
1045390 Par ch=10 c=11 v=73
1045550 Par ch=3 c=11 v=73
1045550 Par ch=2 c=11 v=73
1045711 On ch=2 n=42 v=127
1045758 On ch=10 n=36 v=105
1045758 On ch=10 n=42 v=59
1045758 On ch=3 n=61 v=73
1045758 On ch=3 n=64 v=73
1045758 On ch=3 n=69 v=73
1045758 On ch=10 n=82 v=68
1045870 Par ch=10 c=11 v=72
1045878 Off ch=10 n=82 v=68
1045878 Off ch=10 n=42 v=59
1045878 Off ch=10 n=36 v=105
1045950 Par ch=3 c=11 v=72
1045950 Par ch=2 c=11 v=72
1046181 Off ch=2 n=42 v=127
1046270 Par ch=10 c=11 v=71
1046350 Par ch=2 c=11 v=71
1046430 Par ch=3 c=11 v=71
1046657 On ch=10 n=42 v=74
1046657 On ch=10 n=82 v=58
1046670 Par ch=10 c=11 v=70
1046671 On ch=2 n=37 v=127
1046750 Par ch=2 c=11 v=70
1046777 Off ch=10 n=82 v=58
1046777 Off ch=10 n=42 v=74
1046830 Par ch=3 c=11 v=70
1047070 Par ch=10 c=11 v=69
1047151 Off ch=2 n=37 v=127
1047230 Par ch=3 c=11 v=69
1047230 Par ch=2 c=11 v=69
1047550 Par ch=10 c=11 v=68
1047593 On ch=10 n=39 v=110
1047593 On ch=10 n=40 v=113
1047593 On ch=10 n=42 v=54
1047593 On ch=10 n=82 v=66
1047630 Par ch=3 c=11 v=68
1047630 Par ch=2 c=11 v=68
1047635 On ch=2 n=40 v=127
1047713 Off ch=10 n=82 v=66
1047713 Off ch=10 n=42 v=54
1047713 Off ch=10 n=40 v=113
1047713 Off ch=10 n=39 v=110
1047950 Par ch=10 c=11 v=67
1048030 Par ch=2 c=11 v=67
1048110 Par ch=3 c=11 v=67
1048158 Off ch=3 n=61 v=73
1048158 Off ch=3 n=64 v=73
1048158 Off ch=3 n=69 v=73
1048165 Off ch=2 n=40 v=127
1048350 Par ch=10 c=11 v=66
1048430 Par ch=2 c=11 v=66
1048510 Par ch=3 c=11 v=66
1048532 On ch=10 n=42 v=84
1048532 On ch=3 n=59 v=73
1048532 On ch=3 n=63 v=73
1048532 On ch=3 n=68 v=73
1048532 On ch=10 n=82 v=60
1048540 On ch=2 n=42 v=127
1048652 Off ch=10 n=82 v=60
1048652 Off ch=10 n=42 v=84
1048750 Par ch=10 c=11 v=65
1048910 Par ch=3 c=11 v=65
1048910 Par ch=2 c=11 v=65
1049000 Off ch=2 n=42 v=127
1049230 Par ch=10 c=11 v=64
1049310 Par ch=3 c=11 v=64
1049310 Par ch=2 c=11 v=64
1049527 On ch=2 n=40 v=127
1049604 On ch=10 n=36 v=105
1049604 On ch=10 n=42 v=51
1049604 On ch=10 n=82 v=56
1049630 Par ch=10 c=11 v=63
1049710 Par ch=2 c=11 v=63
1049724 Off ch=10 n=82 v=56
1049724 Off ch=10 n=42 v=51
1049724 Off ch=10 n=36 v=105
1049790 Par ch=3 c=11 v=63
1050030 Par ch=10 c=11 v=62
1050110 Par ch=2 c=11 v=62
1050117 Off ch=2 n=40 v=127
1050190 Par ch=3 c=11 v=62
1050494 On ch=2 n=37 v=127
1050503 On ch=10 n=42 v=79
1050503 On ch=10 n=82 v=60
1050510 Par ch=10 c=11 v=61
1050510 Par ch=2 c=11 v=61
1050590 Par ch=3 c=11 v=61
1050623 Off ch=10 n=82 v=60
1050623 Off ch=10 n=42 v=79
1050910 Par ch=10 c=11 v=60
1050990 Par ch=3 c=11 v=60
1050990 Par ch=2 c=11 v=60
1051034 Off ch=2 n=37 v=127
1051310 Par ch=10 c=11 v=59
1051390 Par ch=2 c=11 v=59
1051419 On ch=10 n=39 v=110
1051419 On ch=10 n=40 v=113
1051419 On ch=10 n=42 v=51
1051419 On ch=10 n=82 v=64
1051470 Par ch=3 c=11 v=59
1051497 On ch=2 n=35 v=127
1051539 Off ch=10 n=82 v=64
1051539 Off ch=10 n=42 v=51
1051539 Off ch=10 n=40 v=113
1051539 Off ch=10 n=39 v=110
1051710 Par ch=10 c=11 v=58
1051790 Par ch=2 c=11 v=58
1051870 Par ch=3 c=11 v=58
1052147 Off ch=2 n=35 v=127
1052190 Par ch=10 c=11 v=57
1052190 Par ch=2 c=11 v=57
1052270 Par ch=3 c=11 v=57
1052352 On ch=2 n=37 v=127
1052429 On ch=10 n=46 v=104
1052429 On ch=10 n=82 v=64
1052549 Off ch=10 n=82 v=64
1052549 Off ch=10 n=46 v=104
1052590 Par ch=10 c=11 v=56
1052670 Par ch=3 c=11 v=56
1052670 Par ch=2 c=11 v=56
1052852 Off ch=3 n=68 v=73
1052852 Off ch=3 n=63 v=73
1052852 Off ch=3 n=59 v=73
1052862 Off ch=2 n=37 v=127
1052990 Par ch=10 c=11 v=55
1053070 Par ch=2 c=11 v=55
1053150 Par ch=3 c=11 v=55
1053330 On ch=2 n=42 v=127
1053390 Par ch=10 c=11 v=54
1053467 On ch=10 n=36 v=105
1053467 On ch=10 n=42 v=59
1053467 On ch=10 n=82 v=68
1053467 On ch=3 n=57 v=73
1053467 On ch=3 n=61 v=73
1053467 On ch=3 n=66 v=73
1053470 Par ch=2 c=11 v=54
1053550 Par ch=3 c=11 v=54
1053587 Off ch=10 n=82 v=68
1053587 Off ch=10 n=42 v=59
1053587 Off ch=10 n=36 v=105
1053830 Off ch=2 n=42 v=127
1053870 Par ch=10 c=11 v=53
1053870 Par ch=2 c=11 v=53
1053950 Par ch=3 c=11 v=53
1054270 Par ch=10 c=11 v=52
1054350 Par ch=3 c=11 v=52
1054350 Par ch=2 c=11 v=52
1054361 On ch=10 n=42 v=74
1054361 On ch=10 n=82 v=58
1054372 On ch=2 n=37 v=127
1054481 Off ch=10 n=82 v=58
1054481 Off ch=10 n=42 v=74
1054670 Par ch=10 c=11 v=51
1054750 Par ch=2 c=11 v=51
1054830 Par ch=3 c=11 v=51
1054892 Off ch=2 n=37 v=127
1055070 Par ch=10 c=11 v=50
1055150 Par ch=2 c=11 v=50
1055230 Par ch=3 c=11 v=50
1055281 On ch=2 n=40 v=127
1055375 On ch=10 n=39 v=110
1055375 On ch=10 n=40 v=113
1055375 On ch=10 n=42 v=54
1055375 On ch=10 n=82 v=66
1055495 Off ch=10 n=82 v=66
1055495 Off ch=10 n=42 v=54
1055495 Off ch=10 n=40 v=113
1055495 Off ch=10 n=39 v=110
1055550 Par ch=10 c=11 v=49
1055550 Par ch=2 c=11 v=49
1055630 Par ch=3 c=11 v=49
1055831 Off ch=2 n=40 v=127
1055867 Off ch=3 n=66 v=73
1055867 Off ch=3 n=61 v=73
1055867 Off ch=3 n=57 v=73
1055950 Par ch=10 c=11 v=48
1056030 Par ch=3 c=11 v=48
1056030 Par ch=2 c=11 v=48
1056256 On ch=2 n=42 v=127
1056263 On ch=10 n=42 v=84
1056263 On ch=3 n=59 v=73
1056263 On ch=3 n=63 v=73
1056263 On ch=3 n=68 v=73
1056263 On ch=10 n=82 v=60
1056350 Par ch=10 c=11 v=47
1056383 Off ch=10 n=82 v=60
1056383 Off ch=10 n=42 v=84
1056430 Par ch=2 c=11 v=47
1056510 Par ch=3 c=11 v=47
1056750 Par ch=10 c=11 v=46
1056766 Off ch=2 n=42 v=127
1056830 Par ch=2 c=11 v=46
1056910 Par ch=3 c=11 v=46
1057220 On ch=10 n=36 v=105
1057220 On ch=10 n=42 v=51
1057220 On ch=10 n=82 v=56
1057230 Par ch=10 c=11 v=45
1057230 Par ch=2 c=11 v=45
1057298 On ch=2 n=40 v=127
1057310 Par ch=3 c=11 v=45
1057340 Off ch=10 n=82 v=56
1057340 Off ch=10 n=42 v=51
1057340 Off ch=10 n=36 v=105
1057630 Par ch=10 c=11 v=44
1057710 Par ch=3 c=11 v=44
1057710 Par ch=2 c=11 v=44
1057858 Off ch=2 n=40 v=127
1058030 Par ch=10 c=11 v=43
1058110 Par ch=2 c=11 v=43
1058190 Par ch=3 c=11 v=43
1058230 On ch=2 n=37 v=127
1058244 On ch=10 n=42 v=79
1058244 On ch=10 n=82 v=60
1058364 Off ch=10 n=82 v=60
1058364 Off ch=10 n=42 v=79
1058430 Par ch=10 c=11 v=42
1058510 Par ch=2 c=11 v=42
1058590 Par ch=3 c=11 v=42
1058740 Off ch=2 n=37 v=127
1058910 Par ch=10 c=11 v=41
1058910 Par ch=2 c=11 v=41
1058990 Par ch=3 c=11 v=41
1059197 On ch=10 n=39 v=110
1059197 On ch=10 n=40 v=113
1059197 On ch=10 n=42 v=51
1059197 On ch=10 n=82 v=64
1059281 On ch=2 n=35 v=127
1059310 Par ch=10 c=11 v=40
1059317 Off ch=10 n=82 v=64
1059317 Off ch=10 n=42 v=51
1059317 Off ch=10 n=40 v=113
1059317 Off ch=10 n=39 v=110
1059390 Par ch=3 c=11 v=40
1059390 Par ch=2 c=11 v=40
1059710 Par ch=10 c=11 v=39
1059790 Par ch=2 c=11 v=39
1059870 Par ch=3 c=11 v=39
1059891 Off ch=2 n=35 v=127
1060103 Off ch=3 n=68 v=73
1060103 Off ch=3 n=59 v=73
1060103 Off ch=3 n=63 v=73
1060110 Par ch=10 c=11 v=38
1060148 On ch=2 n=37 v=127
1060163 On ch=10 n=42 v=84
1060163 On ch=10 n=82 v=64
1060190 Par ch=2 c=11 v=38
1060270 Par ch=3 c=11 v=38
1060283 Off ch=10 n=82 v=64
1060283 Off ch=10 n=42 v=84
1060590 Par ch=10 c=11 v=37
1060590 Par ch=2 c=11 v=37
1060670 Par ch=3 c=11 v=37
1060688 Off ch=2 n=37 v=127
1060990 Par ch=10 c=11 v=36
1061070 Par ch=3 c=11 v=36
1061070 Par ch=2 c=11 v=36
1061081 On ch=10 n=36 v=105
1061081 On ch=10 n=42 v=59
1061081 On ch=10 n=82 v=65
1061081 On ch=3 n=61 v=73
1061081 On ch=3 n=64 v=73
1061081 On ch=3 n=69 v=73
1061133 On ch=2 n=42 v=127
1061201 Off ch=10 n=82 v=65
1061201 Off ch=10 n=42 v=59
1061201 Off ch=10 n=36 v=105
1061390 Par ch=10 c=11 v=35
1061470 Par ch=2 c=11 v=35
1061550 Par ch=3 c=11 v=35
1061603 Off ch=2 n=42 v=127
1061790 Par ch=10 c=11 v=34
1061870 Par ch=2 c=11 v=34
1061950 Par ch=3 c=11 v=34
1062100 On ch=2 n=37 v=127
1062134 On ch=10 n=42 v=74
1062134 On ch=10 n=82 v=43
1062254 Off ch=10 n=82 v=43
1062254 Off ch=10 n=42 v=74
1062270 Par ch=10 c=11 v=33
1062270 Par ch=2 c=11 v=33
1062350 Par ch=3 c=11 v=33
1062580 Off ch=2 n=37 v=127
1062670 Par ch=10 c=11 v=32
1062750 Par ch=3 c=11 v=32
1062750 Par ch=2 c=11 v=32
1063020 On ch=10 n=39 v=110
1063020 On ch=10 n=40 v=113
1063020 On ch=10 n=42 v=54
1063020 On ch=10 n=82 v=67
1063070 Par ch=10 c=11 v=31
1063119 On ch=2 n=40 v=127
1063140 Off ch=10 n=82 v=67
1063140 Off ch=10 n=42 v=54
1063140 Off ch=10 n=40 v=113
1063140 Off ch=10 n=39 v=110
1063150 Par ch=2 c=11 v=31
1063230 Par ch=3 c=11 v=31
1063481 Off ch=3 n=61 v=73
1063481 Off ch=3 n=64 v=73
1063481 Off ch=3 n=69 v=73
1063550 Par ch=10 c=11 v=30
1063550 Par ch=2 c=11 v=30
1063630 Par ch=3 c=11 v=30
1063649 Off ch=2 n=40 v=127
1063950 Par ch=10 c=11 v=29
1063950 Par ch=2 c=11 v=29
1063999 On ch=10 n=42 v=84
1063999 On ch=10 n=82 v=60
1063999 On ch=3 n=59 v=73
1063999 On ch=3 n=63 v=73
1063999 On ch=3 n=68 v=73
1064011 On ch=2 n=42 v=127
1064030 Par ch=3 c=11 v=29
1064119 Off ch=10 n=82 v=60
1064119 Off ch=10 n=42 v=84
1064350 Par ch=10 c=11 v=28
1064350 Par ch=2 c=11 v=28
1064403 On ch=10 n=82 v=65
1064430 Par ch=3 c=11 v=28
1064471 Off ch=2 n=42 v=127
1064523 Off ch=10 n=82 v=65
1064750 Par ch=10 c=11 v=27
1064830 Par ch=2 c=11 v=27
1064883 On ch=10 n=36 v=105
1064883 On ch=10 n=42 v=51
1064883 On ch=10 n=82 v=65
1064910 Par ch=3 c=11 v=27
1064933 On ch=2 n=40 v=127
1065003 Off ch=10 n=82 v=65
1065003 Off ch=10 n=42 v=51
1065003 Off ch=10 n=36 v=105
1065230 Par ch=10 c=11 v=26
1065230 Par ch=2 c=11 v=26
1065310 Par ch=3 c=11 v=26
1065523 Off ch=2 n=40 v=127
1065630 Par ch=10 c=11 v=25
1065630 Par ch=2 c=11 v=25
1065710 Par ch=3 c=11 v=25
1065844 On ch=2 n=37 v=127
1065863 On ch=10 n=42 v=79
1065863 On ch=10 n=82 v=65
1065983 Off ch=10 n=82 v=65
1065983 Off ch=10 n=42 v=79
1066030 Par ch=10 c=11 v=24
1066030 Par ch=2 c=11 v=24
1066110 Par ch=3 c=11 v=24
1066361 On ch=10 n=82 v=70
1066384 Off ch=2 n=37 v=127
1066430 Par ch=10 c=11 v=23
1066481 Off ch=10 n=82 v=70
1066510 Par ch=2 c=11 v=23
1066590 Par ch=3 c=11 v=23
1066757 On ch=2 n=35 v=127
1066841 On ch=10 n=39 v=78
1066841 On ch=10 n=40 v=71
1066841 On ch=10 n=42 v=51
1066841 On ch=10 n=82 v=77
1066910 Par ch=10 c=11 v=22
1066910 Par ch=2 c=11 v=22
1066961 Off ch=10 n=82 v=77
1066961 Off ch=10 n=42 v=51
1066961 Off ch=10 n=40 v=71
1066961 Off ch=10 n=39 v=78
1066990 Par ch=3 c=11 v=22
1067310 Par ch=10 c=11 v=21
1067310 Par ch=2 c=11 v=21
1067390 Par ch=3 c=11 v=21
1067407 Off ch=2 n=35 v=127
1067710 Par ch=10 c=11 v=20
1067710 Par ch=2 c=11 v=20
1067774 On ch=10 n=42 v=84
1067774 On ch=10 n=82 v=50
1067779 On ch=2 n=37 v=127
1067790 Par ch=3 c=11 v=20
1067839 Off ch=3 n=68 v=73
1067839 Off ch=3 n=63 v=73
1067839 Off ch=3 n=59 v=73
1067894 Off ch=10 n=82 v=50
1067894 Off ch=10 n=42 v=84
1068110 Par ch=10 c=11 v=19
1068161 On ch=10 n=82 v=60
1068190 Par ch=2 c=11 v=19
1068270 Par ch=3 c=11 v=19
1068281 Off ch=10 n=82 v=60
1068289 Off ch=2 n=37 v=127
1068590 Par ch=10 c=11 v=18
1068590 Par ch=2 c=11 v=18
1068641 On ch=10 n=36 v=39
1068641 On ch=10 n=42 v=18
1068641 On ch=3 n=57 v=31
1068641 On ch=3 n=61 v=31
1068641 On ch=3 n=66 v=27
1068641 On ch=10 n=82 v=16
1068670 Par ch=3 c=11 v=18
1068737 On ch=2 n=42 v=47
1068761 Off ch=10 n=82 v=16
1068761 Off ch=10 n=42 v=18
1068761 Off ch=10 n=36 v=39
1068990 Par ch=10 c=11 v=17
1068990 Par ch=2 c=11 v=17
1069070 Par ch=3 c=11 v=17
1069237 Off ch=2 n=42 v=47
1069390 Par ch=10 c=11 v=16
1069390 Par ch=2 c=11 v=16
1069470 Par ch=3 c=11 v=16
1069609 On ch=2 n=37 v=127
1069666 On ch=10 n=42 v=10
1069666 On ch=10 n=82 v=8
1069786 Off ch=10 n=82 v=8
1069786 Off ch=10 n=42 v=10
1069790 Par ch=10 c=11 v=15
1069870 Par ch=2 c=11 v=15
1069950 Par ch=3 c=11 v=15
1070129 Off ch=2 n=37 v=127
1070270 Par ch=10 c=11 v=14
1070270 Par ch=2 c=11 v=14
1070350 Par ch=3 c=11 v=14
1070627 On ch=2 n=40 v=127
1070647 On ch=10 n=39 v=62
1070647 On ch=10 n=40 v=23
1070647 On ch=10 n=42 v=6
1070647 On ch=10 n=82 v=6
1070670 Par ch=10 c=11 v=13
1070670 Par ch=2 c=11 v=13
1070750 Par ch=3 c=11 v=13
1070767 Off ch=10 n=82 v=6
1070767 Off ch=10 n=42 v=6
1070767 Off ch=10 n=40 v=23
1070767 Off ch=10 n=39 v=62
1071041 Off ch=3 n=66 v=27
1071041 Off ch=3 n=57 v=31
1071041 Off ch=3 n=61 v=31
1071070 Par ch=10 c=11 v=12
1071070 Par ch=2 c=11 v=12
1071150 Par ch=3 c=11 v=12
1071177 Off ch=2 n=40 v=127
1071470 Par ch=10 c=11 v=11
1071550 Par ch=2 c=11 v=11
1071568 On ch=2 n=42 v=127
1071630 Par ch=3 c=11 v=11
1071649 On ch=10 n=42 v=2
1071649 On ch=10 n=82 v=6
1071649 On ch=3 n=59 v=35
1071649 On ch=3 n=63 v=35
1071649 On ch=3 n=68 v=35
1071769 Off ch=10 n=82 v=6
1071769 Off ch=10 n=42 v=2
1071950 Par ch=10 c=11 v=10
1071950 Par ch=2 c=11 v=10
1072030 Par ch=3 c=11 v=10
1072078 Off ch=2 n=42 v=127
1072350 Par ch=10 c=11 v=9
1072350 Par ch=2 c=11 v=9
1072430 Par ch=3 c=11 v=9
1072513 On ch=2 n=40 v=127
1072640 On ch=10 n=36 v=27
1072640 On ch=10 n=42 v=1
1072640 On ch=10 n=82 v=6
1072750 Par ch=10 c=11 v=8
1072750 Par ch=2 c=11 v=8
1072760 Off ch=10 n=82 v=6
1072760 Off ch=10 n=42 v=1
1072760 Off ch=10 n=36 v=27
1072830 Par ch=3 c=11 v=8
1073073 Off ch=2 n=40 v=127
1073150 Par ch=10 c=11 v=7
1073230 Par ch=2 c=11 v=7
1073310 Par ch=3 c=11 v=7
1073528 On ch=10 n=42 v=1
1073528 On ch=10 n=82 v=6
1073543 On ch=2 n=37 v=127
1073630 Par ch=10 c=11 v=6
1073630 Par ch=2 c=11 v=6
1073648 Off ch=10 n=82 v=6
1073648 Off ch=10 n=42 v=1
1073689 Off ch=3 n=59 v=35
1073689 Off ch=3 n=63 v=35
1073689 Off ch=3 n=68 v=35
1073710 Par ch=3 c=11 v=6
1074030 Par ch=10 c=11 v=5
1074030 Par ch=2 c=11 v=5
1074053 Off ch=2 n=37 v=127
1074110 Par ch=3 c=11 v=5
1074430 Par ch=10 c=11 v=4
1074430 Par ch=2 c=11 v=4
1074438 On ch=10 n=39 v=46
1074438 On ch=10 n=40 v=15
1074438 On ch=10 n=42 v=1
1074438 On ch=10 n=82 v=6
1074510 Par ch=3 c=11 v=4
1074513 On ch=2 n=35 v=127
1074558 Off ch=10 n=82 v=6
1074558 Off ch=10 n=42 v=1
1074558 Off ch=10 n=40 v=15
1074558 Off ch=10 n=39 v=46
1074830 Par ch=10 c=11 v=3
1074910 Par ch=2 c=11 v=3
1074990 Par ch=3 c=11 v=3
1075123 Off ch=2 n=35 v=127
1075310 Par ch=10 c=11 v=2
1075310 Par ch=2 c=11 v=2
1075379 On ch=10 n=42 v=1
1075379 On ch=10 n=82 v=6
1075390 Par ch=3 c=11 v=2
1075415 On ch=2 n=37 v=127
1075499 Off ch=10 n=82 v=6
1075499 Off ch=10 n=42 v=1
1075710 Par ch=10 c=11 v=1
1075710 Par ch=2 c=11 v=1
1075790 Par ch=3 c=11 v=1
1075955 Off ch=2 n=37 v=127
1076110 Par ch=10 c=11 v=0
1076110 Par ch=2 c=11 v=0
1076190 Par ch=3 c=11 v=0
1077310 Par ch=10 c=120 v=0
1077310 Par ch=3 c=120 v=0
1077590 Par ch=3 c=123 v=0
1077710 Par ch=10 c=123 v=0
1078990 Par ch=2 c=120 v=0
1079270 Par ch=2 c=123 v=0
1079270 Meta TrkEnd
TrkEnd
